<svg width="78" height="73" viewBox="0 0 78 73" fill="none" xmlns="http://www.w3.org/2000/svg">
<path d="M0.7 36.3C0.7 47.6333 2.56667 56.4667 6.3 62.8C10.0333 69.1333 16.5 72.3 25.7 72.3C34.9 72.3 41.3667 69.1333 45.1 62.8C48.9 56.4667 50.8 47.6333 50.8 36.3C50.8 25.1 48.9 16.3333 45.1 10C41.3667 3.66666 34.9 0.499997 25.7 0.499997C16.5 0.499997 10.0333 3.66666 6.3 10C2.56667 16.2667 0.7 25.0333 0.7 36.3ZM41.8 36.3C41.8 42.1 41.3667 46.9667 40.5 50.9C39.7 54.7667 38.1333 57.8667 35.8 60.2C33.4667 62.5333 30.1 63.7 25.7 63.7C21.3667 63.7 18.0333 62.5333 15.7 60.2C13.3667 57.8667 11.7667 54.7667 10.9 50.9C10.1 46.9667 9.7 42.1 9.7 36.3C9.7 30.5667 10.1 25.7667 10.9 21.9C11.7667 18.0333 13.3667 14.9667 15.7 12.7C18.0333 10.3667 21.3667 9.2 25.7 9.2C30.1 9.2 33.4667 10.3667 35.8 12.7C38.1333 14.9667 39.7 18.0333 40.5 21.9C41.3667 25.7667 41.8 30.5667 41.8 36.3ZM57.7258 10V1.5H77.9258V72H68.3258V10H57.7258Z" fill="#1D1655" fill-opacity="0.17"/>
</svg>
