<svg width="110" height="74" viewBox="0 0 110 74" fill="none" xmlns="http://www.w3.org/2000/svg">
<path d="M0.2 37.1C0.2 25.6333 2.06667 16.7 5.8 10.3C9.53333 3.83333 16.0667 0.599997 25.4 0.599997C34.6667 0.599997 41.1667 3.83333 44.9 10.3C48.6333 16.7 50.5 25.6333 50.5 37.1C50.5 48.7667 48.6333 57.8333 44.9 64.3C41.1667 70.7667 34.6667 74 25.4 74C16.0667 74 9.53333 70.7667 5.8 64.3C2.06667 57.8333 0.2 48.7667 0.2 37.1ZM41.5 37.1C41.5 31.3 41.1 26.4 40.3 22.4C39.5667 18.3333 38 15.0667 35.6 12.6C33.2667 10.1333 29.8667 8.9 25.4 8.9C20.8667 8.9 17.4 10.1333 15 12.6C12.6667 15.0667 11.1 18.3333 10.3 22.4C9.56667 26.4 9.2 31.3 9.2 37.1C9.2 43.1 9.56667 48.1333 10.3 52.2C11.1 56.2667 12.6667 59.5333 15 62C17.4 64.4667 20.8667 65.7 25.4 65.7C29.8667 65.7 33.2667 64.4667 35.6 62C38 59.5333 39.5667 56.2667 40.3 52.2C41.1 48.1333 41.5 43.1 41.5 37.1ZM61.893 66.7C70.3596 59.9 76.993 54.3333 81.793 50C86.593 45.6 90.6263 41.0333 93.893 36.3C97.2263 31.5 98.893 26.8 98.893 22.2C98.893 17.8667 97.8263 14.4667 95.693 12C93.6263 9.46666 90.2596 8.19999 85.593 8.19999C81.0596 8.19999 77.5263 9.63333 74.993 12.5C72.5263 15.3 71.193 19.0667 70.993 23.8H62.193C62.4596 16.3333 64.7263 10.5667 68.993 6.5C73.2596 2.43333 78.7596 0.399994 85.493 0.399994C92.3596 0.399994 97.793 2.3 101.793 6.1C105.86 9.9 107.893 15.1333 107.893 21.8C107.893 27.3333 106.226 32.7333 102.893 38C99.6263 43.2 95.893 47.8 91.693 51.8C87.493 55.7333 82.1263 60.3333 75.593 65.6H109.993V73.2H61.893V66.7Z" fill="#1D1655" fill-opacity="0.17"/>
</svg>
