<svg width="110" height="75" viewBox="0 0 110 75" fill="none" xmlns="http://www.w3.org/2000/svg">
<path d="M0.2 37.1C0.2 25.6333 2.06667 16.7 5.8 10.3C9.53333 3.83333 16.0667 0.599997 25.4 0.599997C34.6667 0.599997 41.1667 3.83333 44.9 10.3C48.6333 16.7 50.5 25.6333 50.5 37.1C50.5 48.7667 48.6333 57.8333 44.9 64.3C41.1667 70.7667 34.6667 74 25.4 74C16.0667 74 9.53333 70.7667 5.8 64.3C2.06667 57.8333 0.2 48.7667 0.2 37.1ZM41.5 37.1C41.5 31.3 41.1 26.4 40.3 22.4C39.5667 18.3333 38 15.0667 35.6 12.6C33.2667 10.1333 29.8667 8.9 25.4 8.9C20.8667 8.9 17.4 10.1333 15 12.6C12.6667 15.0667 11.1 18.3333 10.3 22.4C9.56667 26.4 9.2 31.3 9.2 37.1C9.2 43.1 9.56667 48.1333 10.3 52.2C11.1 56.2667 12.6667 59.5333 15 62C17.4 64.4667 20.8667 65.7 25.4 65.7C29.8667 65.7 33.2667 64.4667 35.6 62C38 59.5333 39.5667 56.2667 40.3 52.2C41.1 48.1333 41.5 43.1 41.5 37.1ZM62.793 19.9C63.2596 13.7667 65.6263 8.96666 69.893 5.49999C74.1596 2.03333 79.693 0.299995 86.493 0.299995C91.0263 0.299995 94.9263 1.13333 98.193 2.8C101.526 4.4 104.026 6.6 105.693 9.4C107.426 12.2 108.293 15.3667 108.293 18.9C108.293 23.0333 107.093 26.6 104.693 29.6C102.36 32.6 99.293 34.5333 95.493 35.4V35.9C99.8263 36.9667 103.26 39.0667 105.793 42.2C108.326 45.3333 109.593 49.4333 109.593 54.5C109.593 58.3 108.726 61.7333 106.993 64.8C105.26 67.8 102.66 70.1667 99.193 71.9C95.7263 73.6333 91.5596 74.5 86.693 74.5C79.6263 74.5 73.8263 72.6667 69.293 69C64.7596 65.2667 62.2263 60 61.693 53.2H70.493C70.9596 57.2 72.593 60.4667 75.393 63C78.193 65.5333 81.9263 66.8 86.593 66.8C91.2596 66.8 94.793 65.6 97.193 63.2C99.6596 60.7333 100.893 57.5667 100.893 53.7C100.893 48.7 99.2263 45.1 95.893 42.9C92.5596 40.7 87.5263 39.6 80.793 39.6H78.493V32H80.893C87.0263 31.9333 91.6596 30.9333 94.793 29C97.9263 27 99.493 23.9333 99.493 19.8C99.493 16.2667 98.3263 13.4333 95.993 11.3C93.7263 9.16666 90.4596 8.1 86.193 8.1C82.0596 8.1 78.7263 9.16666 76.193 11.3C73.6596 13.4333 72.1596 16.3 71.693 19.9H62.793Z" fill="#1D1655" fill-opacity="0.17"/>
</svg>
