<svg width="114" height="73" viewBox="0 0 114 73" fill="none" xmlns="http://www.w3.org/2000/svg">
<path d="M0.7 36.3C0.7 47.6333 2.56667 56.4667 6.3 62.8C10.0333 69.1333 16.5 72.3 25.7 72.3C34.9 72.3 41.3667 69.1333 45.1 62.8C48.9 56.4667 50.8 47.6333 50.8 36.3C50.8 25.1 48.9 16.3333 45.1 10C41.3667 3.66666 34.9 0.499997 25.7 0.499997C16.5 0.499997 10.0333 3.66666 6.3 10C2.56667 16.2667 0.7 25.0333 0.7 36.3ZM41.8 36.3C41.8 42.1 41.3667 46.9667 40.5 50.9C39.7 54.7667 38.1333 57.8667 35.8 60.2C33.4667 62.5333 30.1 63.7 25.7 63.7C21.3667 63.7 18.0333 62.5333 15.7 60.2C13.3667 57.8667 11.7667 54.7667 10.9 50.9C10.1 46.9667 9.7 42.1 9.7 36.3C9.7 30.5667 10.1 25.7667 10.9 21.9C11.7667 18.0333 13.3667 14.9667 15.7 12.7C18.0333 10.3667 21.3667 9.2 25.7 9.2C30.1 9.2 33.4667 10.3667 35.8 12.7C38.1333 14.9667 39.7 18.0333 40.5 21.9C41.3667 25.7667 41.8 30.5667 41.8 36.3ZM109.626 8.7H73.4258V32.3C75.0924 30.0333 77.4924 28.2333 80.6258 26.9C83.7591 25.5667 87.1924 24.9 90.9258 24.9C95.9258 24.9 100.059 25.9667 103.326 28.1C106.659 30.1667 109.092 32.9333 110.626 36.4C112.226 39.8 113.026 43.6 113.026 47.8C113.026 55.0667 110.992 61 106.926 65.6C102.859 70.2 96.8925 72.5 89.0258 72.5C81.9591 72.5 76.1924 70.6 71.7258 66.8C67.2591 62.9333 64.7591 57.7667 64.2258 51.3H73.2258C73.9591 55.4333 75.6591 58.6667 78.3258 61C81.0591 63.2667 84.4925 64.4 88.6258 64.4C93.7591 64.4 97.6258 62.8667 100.226 59.8C102.826 56.7333 104.126 52.7 104.126 47.7C104.126 42.8333 102.792 39.0333 100.126 36.3C97.4591 33.5667 93.6924 32.2 88.8258 32.2C85.3591 32.2 82.3258 32.9667 79.7258 34.5C77.1258 35.9667 75.1591 37.9667 73.8258 40.5H65.0258V0.599995H109.626V8.7Z" fill="#1D1655" fill-opacity="0.17"/>
</svg>
