<svg width="215" height="217" viewBox="0 0 215 217" fill="none" xmlns="http://www.w3.org/2000/svg">
<path d="M154.571 17.2302C175.902 28.1575 197.211 41.6883 207.319 63.3284C217.464 85.0467 217.134 110.916 208.831 133.394C201.184 154.097 181.166 166.069 164.147 180.214C148.028 193.611 133.081 209.089 112.531 213.432C90.6932 218.048 65.864 217.817 47.7703 204.811C30.2219 192.198 29.2592 167.598 21.0482 147.675C13.2536 128.763 -4.32533 111.031 0.981453 91.2845C6.27135 71.6011 32.2742 67.1518 46.6029 52.588C62.2606 36.6732 67.1467 9.38215 88.4133 2.41764C110.422 -4.78988 133.972 6.67827 154.571 17.2302Z" fill="#2FBC88"/>
<g clip-path="url(#clip0_223_8)">
<path d="M95.6001 38.1672C97.317 38.5962 98.9076 39.2523 100.145 40.6149C101.66 42.2804 102.19 44.2488 102.19 46.4442C102.165 52.9295 102.19 59.4149 102.19 65.9254C102.19 66.3292 102.19 66.733 102.19 67.2377C102.67 67.2377 103.074 67.2377 103.452 67.2377C116.884 67.2377 130.316 67.2377 143.723 67.2377C147.586 67.2377 150.464 69.3069 151.424 72.7893C151.676 73.6725 151.727 74.6567 151.727 75.5904C151.752 90.7817 151.752 105.998 151.752 121.19C151.752 121.593 151.752 121.997 151.752 122.426C156.07 123.41 158.746 126.035 159.731 130.426C161.397 130.426 163.089 130.451 164.755 130.4C165.689 130.375 166.396 130.653 166.901 131.435C166.901 131.763 166.901 132.116 166.901 132.444C166.396 133.227 165.689 133.504 164.755 133.479C163.089 133.429 161.397 133.454 159.756 133.454C158.266 139.788 153.217 141.756 149.758 141.478C145.137 141.125 141.451 137.794 140.82 133.656C140.466 131.309 140.794 129.088 142.006 127.044C143.521 124.521 145.794 123.032 148.672 122.451C148.672 116.9 148.672 111.424 148.672 105.948C140.895 105.948 133.195 105.948 125.418 105.948C125.519 106.982 125.62 107.891 125.671 108.85C125.974 116.673 123.752 123.738 118.828 129.845C113.451 136.507 106.432 140.368 97.8977 141.302C90.5757 142.109 83.7839 140.444 77.6234 136.406C71.1598 132.167 66.8171 126.287 64.7215 118.843C64.1408 116.748 63.8883 114.578 63.4844 112.433C63.4844 111.096 63.4844 109.733 63.4844 108.396C63.5349 108.143 63.6106 107.891 63.6359 107.613C64.2923 100.573 67.0444 94.4408 71.8415 89.2676C76.2095 84.5487 81.5621 81.4701 87.8741 80.1074C89.5658 79.7289 91.3079 79.527 92.9995 79.2494C92.9995 66.5311 92.9995 53.8884 92.9995 41.1449C92.5451 41.1449 92.1916 41.1449 91.8129 41.1449C86.8642 41.1449 81.9156 41.1449 76.9669 41.1449C76.1085 41.1449 75.3258 41.0187 75.0228 40.085C74.7451 39.1513 75.25 38.5457 76.0075 38.1167C82.5468 38.1672 89.0608 38.1672 95.6001 38.1672ZM122.641 110.44C122.641 95.0212 109.941 82.3533 94.5397 82.3785C79.113 82.429 66.5647 94.9707 66.5142 110.389C66.4637 125.782 79.113 138.45 94.5649 138.501C109.966 138.526 122.666 125.833 122.641 110.44ZM148.647 85.7095C148.647 82 148.647 78.4419 148.647 74.8081C147.637 74.8081 146.728 74.8081 145.743 74.8081C145.541 75.868 144.885 76.3474 143.824 76.3474C129.559 76.3474 115.268 76.3474 101.003 76.3474C100.145 76.3474 99.5136 76.0698 99.2106 75.1866C99.0086 74.6567 96.5343 74.48 96.2061 74.9343C96.1556 75.01 96.1303 75.1362 96.1303 75.2119C96.1303 76.5745 96.1303 77.9372 96.1303 79.3504C96.6353 79.4261 96.9888 79.4765 97.3422 79.527C102.947 80.0065 107.997 81.9243 112.592 85.1039C113.097 85.4572 113.804 85.6843 114.435 85.6843C125.469 85.7095 136.527 85.7095 147.561 85.7095C147.889 85.7095 148.217 85.7095 148.647 85.7095ZM148.571 102.793C148.571 98.0494 148.571 93.5071 148.571 88.9144C138.093 88.9144 127.665 88.9144 117.137 88.9144C117.288 89.1415 117.364 89.2676 117.49 89.3686C120.848 93.0276 123.247 97.2166 124.535 102.011C124.737 102.743 125.166 102.793 125.797 102.793C131.655 102.768 137.512 102.793 143.37 102.793C145.087 102.793 146.803 102.793 148.571 102.793ZM150.262 138.476C153.822 138.45 156.827 135.397 156.777 131.864C156.726 128.331 153.747 125.379 150.237 125.379C146.677 125.379 143.673 128.382 143.698 131.94C143.698 135.523 146.702 138.501 150.262 138.476ZM99.0591 67.1367C99.0591 66.6068 99.0591 66.2283 99.0591 65.8245C99.0591 61.3579 99.0591 56.8662 99.0591 52.3996C99.0591 50.078 99.0844 47.7564 99.0339 45.4348C98.9834 43.6684 97.8724 42.2047 96.2818 41.7253C96.2818 50.2042 96.2818 58.6326 96.2818 67.1367C97.1907 67.1367 98.0492 67.1367 99.0591 67.1367Z" fill="#1D1655"/>
<path d="M122.643 110.439C122.643 125.858 109.943 138.526 94.5413 138.501C79.1146 138.45 66.4653 125.782 66.5158 110.389C66.5663 94.9705 79.1399 82.4288 94.5413 82.3783C109.943 82.3279 122.643 95.021 122.643 110.439ZM69.8485 110.439C69.8485 111.449 69.8233 112.458 69.8485 113.468C69.8738 114.755 70.2525 115.209 71.5149 115.461C72.7016 115.713 73.8883 115.915 75.0749 116.168C75.3779 116.243 75.7566 116.395 75.8576 116.647C76.2868 117.48 76.6403 118.363 76.9433 119.246C77.019 119.499 76.8928 119.902 76.7413 120.155C76.1353 121.114 75.4789 122.073 74.8477 123.006C73.9135 124.394 73.964 124.823 75.1759 126.06C76.1353 127.019 77.0948 127.952 78.029 128.911C80.5033 131.46 80.4275 131.359 83.0786 129.391C84.6187 128.23 85.9821 127.776 87.7495 128.836C88.3807 129.214 88.8099 129.492 88.9109 130.249C89.0624 131.334 89.3149 132.419 89.5421 133.504C89.7946 134.766 90.2491 135.144 91.5368 135.17C93.0769 135.195 94.6423 135.17 96.1824 135.17C99.2627 135.17 99.3637 135.195 99.7929 132.192C100.071 130.173 100.677 128.634 102.898 128.255C102.974 128.255 103.025 128.179 103.075 128.179C103.479 128.205 103.959 128.104 104.262 128.28C105.398 128.937 106.458 129.694 107.544 130.425C108.327 130.955 109.059 130.88 109.741 130.224C111.306 128.684 112.846 127.145 114.386 125.58C115.043 124.899 115.093 124.167 114.563 123.385C114.134 122.754 113.755 122.047 113.275 121.467C112.266 120.281 111.836 119.12 112.846 117.732C112.998 117.53 112.972 117.177 113.149 117C113.427 116.672 113.73 116.269 114.109 116.168C115.245 115.865 116.406 115.688 117.568 115.461C118.931 115.209 119.335 114.78 119.335 113.442C119.36 111.424 119.36 109.405 119.335 107.386C119.31 106.099 118.906 105.645 117.669 105.392C116.482 105.165 115.27 104.989 114.109 104.686C113.73 104.585 113.376 104.206 113.174 103.853C112.846 103.273 112.67 102.591 112.367 102.011C112.064 101.456 112.139 101.027 112.493 100.547C113.225 99.538 113.881 98.4781 114.563 97.4435C115.093 96.6612 115.043 95.9294 114.386 95.2481C112.846 93.6835 111.306 92.1442 109.741 90.6049C109.084 89.9488 108.327 89.8731 107.544 90.403C106.963 90.8067 106.332 91.1348 105.802 91.589C104.514 92.6994 103.302 93.0526 101.687 92.119C100.879 91.6395 100.273 91.3367 100.172 90.3273C100.071 89.3179 99.7929 88.359 99.5909 87.3496C99.3385 86.0878 98.884 85.6841 97.5963 85.6588C95.5765 85.6336 93.5566 85.6336 91.5368 85.6588C90.2491 85.6588 89.7946 86.0626 89.5421 87.3243C89.3149 88.4094 89.0877 89.4945 88.9109 90.5796C88.8099 91.261 88.5575 91.7404 87.8253 91.9171C87.2698 92.0433 86.7396 92.2956 86.2599 92.5732C85.7044 92.876 85.2499 92.876 84.6945 92.4722C83.6846 91.7404 82.6241 91.0843 81.589 90.403C80.8063 89.8731 80.0741 89.9235 79.3924 90.5796C77.827 92.119 76.2868 93.6583 74.7467 95.2228C74.0902 95.8789 74.0397 96.636 74.57 97.4183C74.9739 98.0239 75.3274 98.7052 75.8071 99.2604C76.8423 100.472 77.3725 101.708 76.2616 103.172C76.1353 103.323 76.0848 103.55 76.0596 103.727C75.9586 104.434 75.4789 104.61 74.8729 104.711C73.7368 104.913 72.6258 105.14 71.5149 105.367C70.2525 105.62 69.8738 106.074 69.8485 107.361C69.8233 108.421 69.8485 109.43 69.8485 110.439Z" fill="white"/>
<path d="M148.647 85.7092C148.218 85.7092 147.89 85.7092 147.536 85.7092C136.503 85.7092 125.444 85.7092 114.41 85.684C113.779 85.684 113.072 85.4569 112.567 85.1036C107.972 81.8988 102.922 79.9809 97.3174 79.5267C96.9639 79.5015 96.5852 79.4257 96.1055 79.35C96.1055 77.9621 96.1055 76.5995 96.1055 75.2115C96.1055 75.1106 96.1307 75.0097 96.1812 74.934C96.5094 74.4545 98.9838 74.6311 99.1857 75.1863C99.4887 76.0695 100.12 76.3471 100.978 76.3471C115.244 76.3471 129.534 76.3471 143.799 76.3471C144.885 76.3471 145.516 75.8676 145.718 74.8078C146.703 74.8078 147.637 74.8078 148.622 74.8078C148.647 78.4416 148.647 81.9997 148.647 85.7092Z" fill="white"/>
<path d="M148.571 102.793C146.778 102.793 145.086 102.793 143.37 102.793C137.512 102.793 131.654 102.793 125.797 102.793C125.191 102.793 124.736 102.743 124.534 102.011C123.222 97.2163 120.848 93.0273 117.49 89.3683C117.389 89.2421 117.313 89.1159 117.137 88.9141C127.665 88.9141 138.067 88.9141 148.571 88.9141C148.571 93.5068 148.571 98.0238 148.571 102.793Z" fill="white"/>
<path d="M150.262 138.475C146.702 138.501 143.697 135.498 143.672 131.939C143.672 128.381 146.676 125.378 150.211 125.378C153.721 125.378 156.675 128.331 156.75 131.864C156.826 135.397 153.822 138.45 150.262 138.475Z" fill="white"/>
<path d="M99.0586 67.1365C98.0486 67.1365 97.1902 67.1365 96.2812 67.1365C96.2812 58.6324 96.2812 50.1788 96.2812 41.7251C97.8719 42.2046 98.9828 43.6682 99.0333 45.4346C99.0838 47.7562 99.0586 50.0778 99.0586 52.3994C99.0586 56.866 99.0586 61.3578 99.0586 65.8243C99.0586 66.2281 99.0586 66.6318 99.0586 67.1365Z" fill="white"/>
<path d="M69.8472 110.439C69.8472 109.43 69.8219 108.421 69.8472 107.411C69.8724 106.124 70.2511 105.67 71.5135 105.418C72.6245 105.191 73.7606 104.964 74.8716 104.762C75.4775 104.661 75.9572 104.459 76.0582 103.777C76.0835 103.576 76.1592 103.374 76.2602 103.222C77.3711 101.759 76.8409 100.522 75.8057 99.3109C75.326 98.7557 74.9725 98.0744 74.5686 97.4688C74.0384 96.6865 74.1141 95.9295 74.7453 95.2733C76.2855 93.7088 77.8256 92.1695 79.391 90.6301C80.0474 89.974 80.8049 89.9236 81.5876 90.4535C82.6228 91.1601 83.6832 91.7909 84.6931 92.5228C85.2233 92.9265 85.6778 92.9265 86.2585 92.6237C86.7635 92.3461 87.2937 92.0938 87.8239 91.9676C88.5813 91.7909 88.8086 91.3115 88.9096 90.6301C89.0863 89.545 89.3135 88.46 89.5408 87.3749C89.7932 86.1131 90.2477 85.7346 91.5354 85.7094C93.5552 85.6841 95.5751 85.6841 97.5949 85.7094C98.8826 85.7346 99.3118 86.1131 99.5895 87.4001C99.7915 88.3842 100.069 89.3684 100.17 90.3778C100.271 91.3872 100.877 91.7152 101.685 92.1695C103.301 93.1284 104.538 92.7499 105.801 91.6395C106.331 91.1853 106.962 90.8573 107.543 90.4535C108.325 89.9236 109.058 89.9993 109.739 90.6554C111.305 92.1947 112.845 93.734 114.385 95.2986C115.041 95.9799 115.092 96.7117 114.562 97.494C113.855 98.5286 113.198 99.5885 112.491 100.598C112.138 101.103 112.062 101.506 112.365 102.062C112.693 102.642 112.845 103.323 113.173 103.904C113.375 104.257 113.754 104.635 114.107 104.736C115.269 105.039 116.481 105.216 117.667 105.443C118.904 105.695 119.334 106.15 119.334 107.437C119.359 109.455 119.359 111.474 119.334 113.493C119.308 114.83 118.904 115.259 117.566 115.512C116.405 115.739 115.243 115.915 114.107 116.218C113.729 116.319 113.426 116.723 113.148 117.051C112.996 117.253 112.996 117.581 112.845 117.783C111.835 119.171 112.264 120.357 113.274 121.518C113.779 122.098 114.133 122.805 114.562 123.435C115.092 124.218 115.067 124.949 114.385 125.631C112.845 127.195 111.305 128.735 109.739 130.274C109.083 130.93 108.351 131.006 107.543 130.476C106.457 129.744 105.371 128.987 104.26 128.331C103.957 128.154 103.478 128.255 103.074 128.23C103.023 128.23 102.948 128.28 102.897 128.306C100.675 128.684 100.069 130.249 99.7915 132.242C99.3623 135.245 99.2613 135.22 96.181 135.22C94.6409 135.22 93.0755 135.245 91.5354 135.22C90.2477 135.195 89.7932 134.816 89.5408 133.555C89.3135 132.469 89.061 131.384 88.9096 130.299C88.8086 129.542 88.3541 129.265 87.7481 128.886C85.9808 127.826 84.6174 128.28 83.0772 129.441C80.4514 131.384 80.5272 131.485 78.0276 128.962C77.0934 128.003 76.134 127.069 75.1745 126.11C73.9626 124.899 73.9121 124.47 74.8463 123.057C75.4775 122.098 76.134 121.164 76.7399 120.205C76.8914 119.953 77.0177 119.549 76.9419 119.297C76.6389 118.414 76.2855 117.53 75.8562 116.698C75.73 116.471 75.3513 116.294 75.0735 116.218C73.8869 115.966 72.7002 115.739 71.5135 115.512C70.2511 115.259 69.8724 114.805 69.8472 113.518C69.8219 112.458 69.8472 111.449 69.8472 110.439ZM80.9059 127.195C81.9915 126.464 83.153 125.732 84.2891 124.949C84.9456 124.52 85.5515 124.47 86.2837 124.798C87.5967 125.404 88.9348 125.959 90.273 126.464C91.0557 126.766 91.4596 127.246 91.6111 128.053C91.8383 129.366 92.1413 130.678 92.4191 132.015C93.8835 132.015 95.2721 132.015 96.7365 132.015C97.0142 130.678 97.3172 129.366 97.5444 128.053C97.6959 127.17 98.1756 126.716 98.9836 126.413C100.271 125.934 101.559 125.429 102.796 124.823C103.579 124.445 104.26 124.495 104.967 124.975C106.078 125.732 107.189 126.464 108.25 127.17C109.285 126.11 110.27 125.126 111.33 124.041C110.648 123.006 109.916 121.896 109.159 120.786C108.679 120.079 108.603 119.423 108.982 118.616C109.588 117.354 110.118 116.042 110.598 114.729C110.901 113.972 111.355 113.518 112.188 113.367C113.527 113.114 114.865 112.812 116.152 112.559C116.152 111.045 116.152 109.632 116.152 108.244C114.764 107.966 113.451 107.664 112.138 107.437C111.355 107.285 110.901 106.856 110.623 106.124C110.093 104.787 109.563 103.449 108.957 102.137C108.603 101.38 108.679 100.724 109.133 100.068C109.79 99.1343 110.421 98.1753 111.027 97.2164C111.178 96.9893 111.254 96.5099 111.103 96.3584C110.244 95.3743 109.335 94.4658 108.426 93.5321C107.139 94.3901 106.003 95.1219 104.892 95.879C104.26 96.308 103.629 96.4089 102.897 96.0809C101.559 95.4752 100.196 94.8948 98.8069 94.3649C98.0747 94.0873 97.6707 93.6078 97.5192 92.8508C97.2667 91.5134 96.9637 90.1759 96.686 88.8385C95.1711 88.8385 93.7825 88.8385 92.3686 88.8385C92.0908 90.2012 91.7879 91.5134 91.5606 92.8508C91.4091 93.6836 90.9547 94.1378 90.172 94.4154C88.8843 94.8948 87.5966 95.3995 86.3595 96.0052C85.5263 96.4089 84.8446 96.3584 84.1124 95.8537C83.0267 95.0967 81.8906 94.3649 80.6534 93.5574C79.7445 94.5163 78.8608 95.3743 78.0528 96.3332C77.9013 96.5099 77.9266 97.0145 78.0781 97.2417C78.6588 98.2258 79.3152 99.1595 79.9717 100.093C80.4262 100.775 80.5019 101.405 80.1484 102.162C79.5425 103.475 78.987 104.812 78.482 106.15C78.2043 106.881 77.7498 107.31 76.9672 107.462C75.629 107.714 74.2908 108.017 72.9274 108.295C72.9274 109.783 72.9274 111.171 72.9274 112.61C74.2151 112.887 75.4523 113.19 76.7147 113.367C77.7498 113.518 78.2801 114.099 78.6083 115.057C79.0123 116.218 79.492 117.379 80.0474 118.489C80.5019 119.373 80.4767 120.104 79.8959 120.912C79.1385 121.972 78.4316 123.082 77.7498 124.117C78.8355 125.177 79.8202 126.136 80.9059 127.195Z" fill="#1D1655"/>
<path d="M80.9045 127.195C79.8188 126.11 78.8341 125.151 77.799 124.142C78.5059 123.107 79.1876 121.997 79.9451 120.937C80.5258 120.13 80.5258 119.398 80.0966 118.515C79.5411 117.404 79.0614 116.244 78.6574 115.083C78.3292 114.124 77.8242 113.543 76.7638 113.392C75.5014 113.215 74.2642 112.887 72.9766 112.635C72.9766 111.197 72.9766 109.809 72.9766 108.32C74.34 108.042 75.6781 107.739 77.0163 107.487C77.799 107.336 78.2534 106.907 78.5312 106.175C79.0614 104.837 79.5916 103.5 80.1976 102.188C80.551 101.431 80.4753 100.775 80.0208 100.118C79.3644 99.1848 78.7079 98.2259 78.1272 97.267C77.9757 97.0398 77.9505 96.5352 78.102 96.3585C78.9099 95.4248 79.7936 94.5416 80.7025 93.5827C81.9397 94.3902 83.0506 95.122 84.1615 95.879C84.8937 96.3837 85.5754 96.4342 86.4086 96.0305C87.6458 95.4248 88.9334 94.9454 90.2211 94.4407C90.9785 94.1631 91.4583 93.7089 91.6097 92.8761C91.837 91.5639 92.14 90.2517 92.4177 88.8638C93.8316 88.8638 95.2455 88.8638 96.7351 88.8638C97.0129 90.2012 97.3158 91.5134 97.5683 92.8761C97.7198 93.6584 98.1238 94.1126 98.856 94.3902C100.245 94.9201 101.583 95.5005 102.946 96.1062C103.678 96.4342 104.31 96.3585 104.941 95.9043C106.052 95.1472 107.163 94.4154 108.476 93.5574C109.384 94.4911 110.293 95.4248 111.152 96.3837C111.278 96.5351 111.202 97.0146 111.076 97.2417C110.47 98.2259 109.839 99.1596 109.182 100.093C108.728 100.775 108.652 101.405 109.006 102.163C109.612 103.475 110.167 104.812 110.672 106.15C110.95 106.881 111.404 107.31 112.187 107.462C113.5 107.714 114.813 107.992 116.202 108.269C116.202 109.682 116.202 111.07 116.202 112.584C114.914 112.862 113.576 113.165 112.238 113.392C111.404 113.543 110.95 113.972 110.647 114.755C110.142 116.067 109.612 117.379 109.031 118.641C108.652 119.448 108.728 120.104 109.208 120.811C109.965 121.921 110.697 123.032 111.379 124.066C110.319 125.126 109.334 126.136 108.299 127.195C107.238 126.489 106.102 125.757 105.017 125C104.31 124.521 103.653 124.47 102.845 124.849C101.608 125.429 100.32 125.934 99.0327 126.438C98.25 126.741 97.7451 127.195 97.5936 128.079C97.3663 129.391 97.0634 130.703 96.7856 132.041C95.3212 132.041 93.9326 132.041 92.4682 132.041C92.1905 130.703 91.8875 129.391 91.6602 128.079C91.5087 127.271 91.1048 126.766 90.3221 126.489C88.9839 125.984 87.6458 125.429 86.3329 124.823C85.6259 124.495 84.9947 124.521 84.3383 124.975C83.1516 125.732 82.0154 126.489 80.9045 127.195ZM80.9297 110.212C80.9802 110.995 80.9297 111.525 81.056 112.004C81.6115 113.796 82.1417 115.587 82.8486 117.303C83.2021 118.161 84.1615 118.338 84.919 117.909C85.7017 117.455 85.9289 116.773 85.5502 115.915C85.4492 115.663 85.3229 115.436 85.1967 115.184C81.359 107.411 87.7468 99.4372 95.094 99.9418C100.068 100.295 104.411 104.156 105.017 109.077C105.648 114.124 102.466 119.045 97.6441 120.458C94.7658 121.316 92.0137 121.038 89.3627 119.6C88.378 119.07 87.5195 119.322 87.1156 120.13C86.6611 120.988 86.9641 121.795 87.974 122.376C90.0696 123.562 92.3419 124.142 94.7405 124.092C103.401 123.94 109.662 116.117 107.945 107.664C106.557 100.749 100.093 96.1566 92.8469 96.9137C86.2066 97.595 80.753 103.803 80.9297 110.212ZM86.9641 110.465C87.1156 114.755 90.2968 118.086 94.7658 118.035C99.0075 118.01 102.264 114.679 102.239 110.389C102.214 105.922 98.7802 102.844 94.69 102.793C90.3978 102.768 86.9136 106.326 86.9641 110.465Z" fill="white"/>
<path d="M80.9328 110.212C80.7813 103.803 86.2349 97.5949 92.8752 96.8883C100.096 96.1313 106.585 100.724 107.974 107.638C109.69 116.117 103.404 123.915 94.7688 124.066C92.3702 124.117 90.0979 123.536 88.0023 122.35C86.9923 121.795 86.6894 120.988 87.1438 120.104C87.573 119.297 88.4062 119.044 89.3909 119.574C92.042 121.013 94.8193 121.29 97.6723 120.432C102.495 119.019 105.651 114.073 105.045 109.052C104.439 104.131 100.096 100.27 95.1223 99.9165C87.775 99.4118 81.3872 107.386 85.225 115.158C85.3512 115.411 85.4522 115.638 85.5784 115.89C85.9319 116.723 85.7047 117.404 84.9472 117.884C84.1898 118.338 83.2304 118.136 82.8769 117.278C82.1699 115.562 81.6397 113.77 81.0843 111.979C80.9075 111.525 80.9833 110.995 80.9328 110.212Z" fill="#1D1655"/>
<path d="M86.9654 110.465C86.9149 106.326 90.3991 102.743 94.6913 102.793C98.7815 102.844 102.19 105.922 102.241 110.389C102.266 114.679 99.0088 118.01 94.7671 118.035C90.2982 118.086 87.1169 114.755 86.9654 110.465ZM99.1098 110.414C99.0845 107.916 97.1152 105.948 94.6156 105.922C92.0908 105.897 90.0457 107.941 90.0709 110.465C90.0962 112.988 92.1413 115.007 94.6661 114.956C97.1657 114.906 99.1098 112.912 99.1098 110.414Z" fill="#1D1655"/>
<path d="M99.1094 110.414C99.1347 112.912 97.1653 114.906 94.6657 114.956C92.1409 115.007 90.0958 112.988 90.0705 110.465C90.0453 107.941 92.0904 105.897 94.6152 105.922C97.1148 105.948 99.0842 107.916 99.1094 110.414Z" fill="white"/>
</g>
<defs>
<clipPath id="clip0_223_8">
<rect width="103.417" height="103.362" fill="white" transform="translate(63.4844 38.167)"/>
</clipPath>
</defs>
</svg>
