<svg width="155" height="156" viewBox="0 0 155 156" fill="none" xmlns="http://www.w3.org/2000/svg">
<path d="M111.435 12.3259C126.813 20.2178 142.175 29.9901 149.463 45.619C156.776 61.3044 156.538 79.9875 150.553 96.222C145.04 111.174 130.608 119.821 118.339 130.036C106.718 139.712 95.9419 150.89 81.1272 154.027C65.3835 157.361 47.4833 157.194 34.4391 147.801C21.7879 138.691 21.0939 120.925 15.1743 106.536C9.55492 92.8771 -3.11826 80.0707 0.707559 65.8095C4.5212 51.5938 23.2675 48.3804 33.5974 37.8621C44.8856 26.3681 48.4081 6.65786 63.7398 1.62794C79.6066 -3.57749 96.5843 4.70506 111.435 12.3259Z" fill="#2FBC88"/>
<g clip-path="url(#clip0_704_5)">
<path d="M67.8976 39.9999C69.0682 40.2935 70.1528 40.7426 70.9963 41.6753C72.0292 42.8153 72.3907 44.1626 72.3907 45.6653C72.3735 50.1044 72.3907 54.5435 72.3907 58.9998C72.3907 59.2762 72.3907 59.5526 72.3907 59.898C72.7178 59.898 72.9933 59.898 73.2515 59.898C82.4099 59.898 91.5684 59.898 100.71 59.898C103.343 59.898 105.306 61.3144 105.96 63.698C106.132 64.3025 106.167 64.9762 106.167 65.6153C106.184 76.0134 106.184 86.4289 106.184 96.827C106.184 97.1034 106.184 97.3797 106.184 97.6734C109.128 98.347 110.953 100.143 111.624 103.149C112.76 103.149 113.914 103.166 115.05 103.132C115.687 103.114 116.169 103.304 116.513 103.84C116.513 104.064 116.513 104.306 116.513 104.531C116.169 105.066 115.687 105.256 115.05 105.239C113.914 105.204 112.76 105.222 111.641 105.222C110.625 109.557 107.182 110.904 104.824 110.714C101.674 110.472 99.1602 108.192 98.7298 105.36C98.4888 103.753 98.7126 102.233 99.539 100.834C100.572 99.107 102.121 98.0879 104.084 97.6907C104.084 93.8907 104.084 90.1425 104.084 86.3943C98.7815 86.3943 93.5309 86.3943 88.2286 86.3943C88.2975 87.1025 88.3664 87.7243 88.4008 88.3807C88.6074 93.7352 87.0924 98.5716 83.7355 102.752C80.0687 107.312 75.2829 109.954 69.4642 110.593C64.4718 111.146 59.8409 110.006 55.6405 107.242C51.2334 104.341 48.2724 100.316 46.8435 95.2207C46.4476 93.787 46.2754 92.3016 46 90.8334C46 89.9179 46 88.9852 46 88.0698C46.0344 87.897 46.0861 87.7243 46.1033 87.5343C46.5509 82.7152 48.4273 78.518 51.6982 74.9771C54.6764 71.7471 58.326 69.6398 62.6298 68.7071C63.7832 68.448 64.971 68.3098 66.1245 68.1198C66.1245 59.4144 66.1245 50.7608 66.1245 42.0381C65.8146 42.0381 65.5736 42.0381 65.3153 42.0381C61.9412 42.0381 58.567 42.0381 55.1929 42.0381C54.6075 42.0381 54.0739 41.9517 53.8673 41.3126C53.6779 40.6735 54.0222 40.259 54.5387 39.9653C58.9974 39.9999 63.4389 39.9999 67.8976 39.9999ZM86.335 89.4689C86.335 78.9152 77.6758 70.2444 67.1746 70.2616C56.6561 70.2962 48.1002 78.8807 48.0658 89.4343C48.0314 99.9707 56.6561 108.642 67.1918 108.676C77.693 108.693 86.3522 100.005 86.335 89.4689ZM104.067 72.5416C104.067 70.0025 104.067 67.5671 104.067 65.0798C103.378 65.0798 102.758 65.0798 102.087 65.0798C101.949 65.8053 101.501 66.1335 100.778 66.1335C91.0519 66.1335 81.3082 66.1335 71.5816 66.1335C70.9963 66.1335 70.5659 65.9435 70.3594 65.3389C70.2216 64.9762 68.5346 64.8553 68.3108 65.1662C68.2763 65.218 68.2591 65.3044 68.2591 65.3562C68.2591 66.2889 68.2591 67.2216 68.2591 68.1889C68.6034 68.2407 68.8444 68.2753 69.0854 68.3098C72.9072 68.638 76.3502 69.9507 79.4834 72.1271C79.8277 72.3689 80.3097 72.5243 80.7401 72.5243C88.2631 72.5416 95.8033 72.5416 103.326 72.5416C103.55 72.5416 103.774 72.5416 104.067 72.5416ZM104.015 84.2352C104.015 80.988 104.015 77.8789 104.015 74.7353C96.8706 74.7353 89.7608 74.7353 82.5821 74.7353C82.6854 74.8907 82.737 74.9771 82.8231 75.0462C85.1127 77.5507 86.7481 80.418 87.6261 83.6998C87.7638 84.2007 88.0565 84.2352 88.4869 84.2352C92.4808 84.218 96.4747 84.2352 100.469 84.2352C101.639 84.2352 102.81 84.2352 104.015 84.2352ZM105.168 108.659C107.596 108.642 109.644 106.552 109.61 104.133C109.575 101.715 107.544 99.6943 105.151 99.6943C102.724 99.6943 100.675 101.75 100.692 104.185C100.692 106.638 102.741 108.676 105.168 108.659ZM70.2561 59.8289C70.2561 59.4662 70.2561 59.2071 70.2561 58.9307C70.2561 55.8735 70.2561 52.7989 70.2561 49.7417C70.2561 48.1526 70.2733 46.5635 70.2389 44.9744C70.2044 43.7653 69.447 42.7635 68.3624 42.4353C68.3624 48.2389 68.3624 54.008 68.3624 59.8289C68.9822 59.8289 69.5675 59.8289 70.2561 59.8289Z" fill="#1D1655"/>
<path d="M86.3357 89.4691C86.3357 100.023 77.6765 108.694 67.1753 108.676C56.6568 108.642 48.0321 99.9708 48.0665 89.4345C48.1009 78.8809 56.6741 70.2964 67.1753 70.2618C77.6765 70.2273 86.3357 78.9154 86.3357 89.4691ZM50.3389 89.4691C50.3389 90.16 50.3217 90.8509 50.3389 91.5418C50.3561 92.4227 50.6143 92.7336 51.4751 92.9063C52.2842 93.079 53.0933 93.2172 53.9024 93.39C54.109 93.4418 54.3672 93.5454 54.4361 93.7181C54.7288 94.2881 54.9698 94.8927 55.1763 95.4972C55.228 95.6699 55.1419 95.9463 55.0386 96.119C54.6255 96.7754 54.1779 97.4318 53.7475 98.0709C53.1105 99.0209 53.145 99.3145 53.9713 100.161C54.6255 100.817 55.2796 101.456 55.9166 102.113C57.6037 103.857 57.552 103.788 59.3596 102.441C60.4097 101.646 61.3393 101.335 62.5444 102.061C62.9748 102.32 63.2674 102.51 63.3363 103.028C63.4396 103.771 63.6117 104.514 63.7667 105.256C63.9388 106.12 64.2487 106.379 65.1267 106.396C66.1768 106.414 67.2441 106.396 68.2942 106.396C70.3945 106.396 70.4634 106.414 70.756 104.358C70.9454 102.976 71.3585 101.923 72.8735 101.664C72.9251 101.664 72.9595 101.612 72.994 101.612C73.2694 101.629 73.5965 101.56 73.8031 101.681C74.5778 102.13 75.3008 102.648 76.041 103.149C76.5747 103.512 77.0739 103.46 77.5388 103.011C78.6061 101.957 79.6562 100.904 80.7063 99.8327C81.1539 99.3663 81.1884 98.8654 80.8268 98.3299C80.5342 97.8981 80.276 97.4145 79.9489 97.0172C79.2603 96.2054 78.9676 95.4109 79.6562 94.4609C79.7595 94.3227 79.7423 94.0809 79.8628 93.96C80.0522 93.7354 80.2587 93.459 80.517 93.39C81.2916 93.1827 82.0835 93.0618 82.8754 92.9063C83.8051 92.7336 84.0805 92.44 84.0805 91.5245C84.0977 90.1427 84.0977 88.7609 84.0805 87.3791C84.0633 86.4981 83.7878 86.1872 82.9443 86.0145C82.1352 85.8591 81.3089 85.7382 80.517 85.5309C80.2587 85.4618 80.0177 85.2027 79.88 84.9609C79.6562 84.5636 79.5357 84.0972 79.3291 83.7C79.1225 83.32 79.1742 83.0263 79.4152 82.6982C79.9144 82.0073 80.362 81.2818 80.8268 80.5736C81.1884 80.0382 81.1539 79.5373 80.7063 79.0709C79.6562 78 78.6061 76.9464 77.5388 75.8927C77.0912 75.4436 76.5747 75.3918 76.041 75.7545C75.6451 76.0309 75.2147 76.2554 74.8532 76.5664C73.9752 77.3264 73.1489 77.5682 72.0471 76.9291C71.4963 76.6009 71.0831 76.3936 71.0142 75.7027C70.9454 75.0118 70.756 74.3554 70.6183 73.6645C70.4461 72.8009 70.1363 72.5245 69.2583 72.5073C67.8811 72.49 66.5039 72.49 65.1267 72.5073C64.2487 72.5073 63.9388 72.7836 63.7667 73.6473C63.6117 74.39 63.4568 75.1327 63.3363 75.8754C63.2674 76.3418 63.0953 76.67 62.5961 76.7909C62.2173 76.8773 61.8558 77.05 61.5287 77.24C61.15 77.4473 60.8401 77.4473 60.4614 77.1709C59.7728 76.67 59.0497 76.2209 58.3439 75.7545C57.8103 75.3918 57.311 75.4264 56.8462 75.8754C55.7789 76.9291 54.7288 77.9827 53.6786 79.0536C53.231 79.5027 53.1966 80.0209 53.5581 80.5563C53.8336 80.9709 54.0746 81.4373 54.4017 81.8173C55.1075 82.6463 55.469 83.4927 54.7115 84.4945C54.6255 84.5982 54.591 84.7536 54.5738 84.8745C54.505 85.3582 54.1779 85.4791 53.7647 85.5482C52.99 85.6863 52.2326 85.8418 51.4751 85.9972C50.6143 86.17 50.3561 86.4809 50.3389 87.3618C50.3217 88.0872 50.3389 88.7781 50.3389 89.4691Z" fill="white"/>
<path d="M104.067 72.5419C103.774 72.5419 103.55 72.5419 103.309 72.5419C95.7863 72.5419 88.2461 72.5419 80.7231 72.5247C80.2928 72.5247 79.8107 72.3692 79.4664 72.1274C76.3333 69.9338 72.8903 68.621 69.0685 68.3101C68.8275 68.2928 68.5693 68.241 68.2422 68.1892C68.2422 67.2392 68.2422 66.3065 68.2422 65.3565C68.2422 65.2874 68.2594 65.2183 68.2938 65.1665C68.5176 64.8383 70.2047 64.9592 70.3424 65.3392C70.549 65.9438 70.9794 66.1338 71.5647 66.1338C81.2912 66.1338 91.035 66.1338 100.762 66.1338C101.502 66.1338 101.932 65.8056 102.07 65.0801C102.741 65.0801 103.378 65.0801 104.05 65.0801C104.067 67.5674 104.067 70.0028 104.067 72.5419Z" fill="white"/>
<path d="M104.015 84.2353C102.793 84.2353 101.639 84.2353 100.469 84.2353C96.4746 84.2353 92.4807 84.2353 88.4868 84.2353C88.0736 84.2353 87.7638 84.2008 87.6261 83.6999C86.7309 80.4181 85.1126 77.5508 82.823 75.0463C82.7542 74.9599 82.7025 74.8735 82.582 74.7354C89.7607 74.7354 96.8533 74.7354 104.015 74.7354C104.015 77.879 104.015 80.9708 104.015 84.2353Z" fill="white"/>
<path d="M105.169 108.659C102.742 108.676 100.693 106.621 100.676 104.185C100.676 101.75 102.724 99.6943 105.134 99.6943C107.527 99.6943 109.542 101.715 109.593 104.133C109.645 106.552 107.596 108.642 105.169 108.659Z" fill="white"/>
<path d="M70.2569 59.8291C69.5683 59.8291 68.983 59.8291 68.3633 59.8291C68.3633 54.0082 68.3633 48.2219 68.3633 42.4355C69.4478 42.7637 70.2053 43.7655 70.2397 44.9746C70.2742 46.5637 70.2569 48.1528 70.2569 49.7419C70.2569 52.7992 70.2569 55.8737 70.2569 58.931C70.2569 59.2073 70.2569 59.4837 70.2569 59.8291Z" fill="white"/>
<path d="M50.3397 89.469C50.3397 88.7781 50.3225 88.0872 50.3397 87.3963C50.3569 86.5154 50.6151 86.2045 51.4759 86.0317C52.2333 85.8763 53.008 85.7208 53.7655 85.5826C54.1786 85.5136 54.5057 85.3754 54.5746 84.909C54.5918 84.7708 54.6435 84.6326 54.7123 84.529C55.4698 83.5272 55.1083 82.6808 54.4024 81.8517C54.0754 81.4717 53.8343 81.0054 53.5589 80.5908C53.1974 80.0554 53.249 79.5372 53.6794 79.0881C54.7295 78.0172 55.7797 76.9636 56.847 75.9099C57.2946 75.4608 57.811 75.4263 58.3447 75.789C59.0505 76.2727 59.7736 76.7045 60.4622 77.2054C60.8237 77.4818 61.1335 77.4818 61.5295 77.2745C61.8738 77.0845 62.2353 76.9118 62.5968 76.8254C63.1133 76.7045 63.2682 76.3763 63.3371 75.9099C63.4576 75.1672 63.6125 74.4245 63.7675 73.6818C63.9396 72.8181 64.2495 72.559 65.1274 72.5418C66.5047 72.5245 67.8819 72.5245 69.2591 72.5418C70.137 72.559 70.4297 72.8181 70.6191 73.699C70.7568 74.3727 70.9462 75.0463 71.015 75.7372C71.0839 76.4281 71.497 76.6527 72.0479 76.9636C73.1497 77.6199 73.9932 77.3608 74.854 76.6008C75.2155 76.2899 75.6459 76.0654 76.0418 75.789C76.5755 75.4263 77.0747 75.4781 77.5395 75.9272C78.6069 76.9808 79.657 78.0345 80.7071 79.1054C81.1547 79.5717 81.1891 80.0727 80.8276 80.6081C80.3456 81.3163 79.898 82.0417 79.416 82.7327C79.175 83.0781 79.1233 83.3545 79.3299 83.7345C79.5537 84.1317 79.657 84.5981 79.8808 84.9954C80.0185 85.2372 80.2767 85.4963 80.5177 85.5654C81.3096 85.7726 82.136 85.8936 82.9451 86.049C83.7886 86.2217 84.0813 86.5326 84.0813 87.4135C84.0985 88.7954 84.0985 90.1772 84.0813 91.559C84.0641 92.4744 83.7886 92.7681 82.8762 92.9408C82.0843 93.0963 81.2924 93.2172 80.5177 93.4244C80.2595 93.4935 80.0529 93.7699 79.8636 93.9944C79.7603 94.1326 79.7603 94.3572 79.657 94.4954C78.9684 95.4454 79.261 96.2572 79.9496 97.0517C80.2939 97.449 80.535 97.9326 80.8276 98.3644C81.1891 98.8999 81.1719 99.4008 80.7071 99.8672C79.657 100.938 78.6069 101.992 77.5395 103.045C77.0919 103.494 76.5927 103.546 76.0418 103.184C75.3016 102.683 74.5613 102.164 73.8039 101.715C73.5973 101.594 73.2702 101.664 72.9947 101.646C72.9603 101.646 72.9087 101.681 72.8742 101.698C71.3593 101.957 70.9462 103.028 70.7568 104.393C70.4641 106.448 70.3953 106.431 68.295 106.431C67.2449 106.431 66.1776 106.448 65.1274 106.431C64.2495 106.414 63.9396 106.154 63.7675 105.291C63.6125 104.548 63.4404 103.805 63.3371 103.063C63.2682 102.544 62.9583 102.354 62.5452 102.095C61.3401 101.37 60.4105 101.681 59.3604 102.475C57.57 103.805 57.6217 103.874 55.9174 102.147C55.2804 101.491 54.6262 100.852 53.9721 100.195C53.1457 99.3663 53.1113 99.0726 53.7483 98.1053C54.1786 97.449 54.6262 96.8099 55.0394 96.1535C55.1427 95.9808 55.2288 95.7044 55.1771 95.5317C54.9705 94.9272 54.7295 94.3226 54.4369 93.7526C54.3508 93.5972 54.0926 93.4763 53.9032 93.4244C53.0941 93.2517 52.285 93.0963 51.4759 92.9408C50.6151 92.7681 50.3569 92.4572 50.3397 91.5763C50.3225 90.8508 50.3397 90.1599 50.3397 89.469ZM57.8799 100.938C58.6201 100.437 59.412 99.9362 60.1867 99.4008C60.6343 99.1072 61.0475 99.0726 61.5467 99.2972C62.4419 99.7117 63.3543 100.092 64.2667 100.437C64.8004 100.644 65.0758 100.973 65.1791 101.525C65.334 102.424 65.5406 103.322 65.73 104.237C66.7285 104.237 67.6753 104.237 68.6738 104.237C68.8631 103.322 69.0697 102.424 69.2246 101.525C69.3279 100.921 69.655 100.61 70.2059 100.403C71.0839 100.074 71.9618 99.729 72.8054 99.3144C73.3391 99.0553 73.8039 99.0899 74.2859 99.4181C75.0433 99.9363 75.8008 100.437 76.5238 100.921C77.2297 100.195 77.9011 99.5217 78.6241 98.779C78.1593 98.0708 77.66 97.3108 77.1436 96.5508C76.8165 96.0672 76.7649 95.6181 77.0231 95.0653C77.4362 94.2017 77.7978 93.3035 78.1248 92.4054C78.3314 91.8872 78.6413 91.5763 79.2094 91.4726C80.1218 91.2999 81.0342 91.0926 81.9122 90.9199C81.9122 89.8835 81.9122 88.9163 81.9122 87.9663C80.9653 87.7763 80.0702 87.569 79.175 87.4135C78.6413 87.3099 78.3314 87.0163 78.1421 86.5154C77.7805 85.5999 77.419 84.6845 77.0059 83.7863C76.7649 83.2681 76.8165 82.819 77.1264 82.3699C77.574 81.7308 78.0043 81.0745 78.4175 80.4181C78.5208 80.2627 78.5724 79.9345 78.4692 79.8308C77.8838 79.1572 77.2641 78.5354 76.6444 77.8963C75.7664 78.4836 74.9917 78.9845 74.2342 79.5027C73.8039 79.7963 73.3735 79.8654 72.8742 79.6408C71.9618 79.2263 71.0322 78.829 70.0854 78.4663C69.5862 78.2763 69.3107 77.9481 69.2074 77.4299C69.0353 76.5145 68.8287 75.599 68.6393 74.6836C67.6064 74.6836 66.6596 74.6836 65.6955 74.6836C65.5062 75.6163 65.2996 76.5145 65.1447 77.4299C65.0414 77.9999 64.7315 78.3108 64.1978 78.5008C63.3199 78.829 62.4419 79.1745 61.5984 79.589C61.0303 79.8654 60.5654 79.8308 60.0662 79.4854C59.326 78.9672 58.5513 78.4663 57.7077 77.9136C57.088 78.5699 56.4855 79.1572 55.9346 79.8136C55.8313 79.9345 55.8485 80.2799 55.9518 80.4354C56.3478 81.109 56.7953 81.7481 57.2429 82.3872C57.5528 82.8536 57.6045 83.2854 57.3634 83.8036C56.9503 84.7017 56.5715 85.6172 56.2272 86.5326C56.0379 87.0335 55.728 87.3272 55.1943 87.4308C54.2819 87.6035 53.3695 87.8108 52.4399 88.0008C52.4399 89.0199 52.4399 89.9699 52.4399 90.9545C53.3179 91.1445 54.1614 91.3517 55.0222 91.4726C55.728 91.5763 56.0895 91.9735 56.3133 92.6299C56.5888 93.4244 56.9158 94.219 57.2946 94.979C57.6045 95.5835 57.5872 96.0844 57.1913 96.6372C56.6748 97.3626 56.1928 98.1226 55.728 98.8308C56.4683 99.5563 57.1396 100.213 57.8799 100.938Z" fill="#19164C"/>
<path d="M57.8782 100.938C57.1379 100.195 56.4666 99.5388 55.7607 98.8479C56.2428 98.1397 56.7076 97.3797 57.224 96.6543C57.62 96.1015 57.62 95.6006 57.3273 94.9961C56.9486 94.2361 56.6215 93.4416 56.3461 92.647C56.1223 91.9906 55.778 91.5934 55.0549 91.4897C54.1942 91.3688 53.3506 91.1443 52.4727 90.9716C52.4727 89.987 52.4727 89.037 52.4727 88.0179C53.4023 87.8279 54.3147 87.6207 55.2271 87.4479C55.7607 87.3443 56.0706 87.0507 56.26 86.5498C56.6215 85.6343 56.983 84.7188 57.3962 83.8207C57.6372 83.3025 57.5855 82.8534 57.2757 82.4043C56.8281 81.7652 56.3805 81.1089 55.9845 80.4525C55.8812 80.297 55.864 79.9516 55.9673 79.8307C56.5182 79.1916 57.1207 78.587 57.7405 77.9307C58.584 78.4834 59.3415 78.9843 60.0989 79.5025C60.5982 79.8479 61.063 79.8825 61.6311 79.6061C62.4746 79.1916 63.3526 78.8634 64.2306 78.5179C64.747 78.3279 65.0741 78.017 65.1774 77.447C65.3323 76.5489 65.5389 75.6507 65.7283 74.7007C66.6923 74.7007 67.6564 74.7007 68.6721 74.7007C68.8614 75.6161 69.068 76.5143 69.2402 77.447C69.3435 77.9825 69.6189 78.2934 70.1181 78.4834C71.065 78.8461 71.9774 79.2434 72.907 79.6579C73.4062 79.8825 73.8366 79.8307 74.267 79.5198C75.0244 79.0016 75.7819 78.5007 76.6771 77.9134C77.2968 78.5525 77.9166 79.1916 78.5019 79.8479C78.588 79.9516 78.5363 80.2798 78.4502 80.4352C78.0371 81.1089 77.6067 81.7479 77.1591 82.387C76.8492 82.8534 76.7976 83.2852 77.0386 83.8034C77.4518 84.7016 77.8305 85.617 78.1748 86.5325C78.3642 87.0334 78.674 87.327 79.2077 87.4307C80.1029 87.6034 80.9981 87.7934 81.9449 87.9834C81.9449 88.9507 81.9449 89.9007 81.9449 90.937C81.0669 91.127 80.1545 91.3343 79.2421 91.4897C78.674 91.5934 78.3642 91.887 78.1576 92.4225C77.8133 93.3206 77.4518 94.2188 77.0558 95.0825C76.7976 95.6352 76.8492 96.0843 77.1763 96.5679C77.6928 97.3279 78.192 98.0879 78.6568 98.7961C77.9338 99.5215 77.2624 100.212 76.5566 100.938C75.8335 100.454 75.0589 99.9534 74.3186 99.4352C73.8366 99.107 73.389 99.0725 72.8381 99.3315C71.9946 99.7288 71.1166 100.074 70.2386 100.42C69.705 100.627 69.3607 100.938 69.2574 101.542C69.1024 102.441 68.8959 103.339 68.7065 104.254C67.708 104.254 66.7612 104.254 65.7627 104.254C65.5733 103.339 65.3668 102.441 65.2118 101.542C65.1085 100.99 64.8331 100.644 64.2994 100.454C63.387 100.109 62.4746 99.7288 61.5794 99.3143C61.0974 99.0897 60.667 99.107 60.2195 99.4179C59.4103 99.9361 58.6357 100.454 57.8782 100.938ZM57.8954 89.3134C57.9298 89.8488 57.8954 90.2116 57.9815 90.5397C58.3602 91.7661 58.7217 92.9925 59.2038 94.167C59.4448 94.7543 60.0989 94.8752 60.6154 94.5816C61.1491 94.2706 61.304 93.8043 61.0458 93.217C60.9769 93.0443 60.8908 92.8888 60.8048 92.7161C58.1881 87.3961 62.5435 81.9379 67.5531 82.2834C70.9445 82.5252 73.9055 85.1679 74.3186 88.5361C74.749 91.9906 72.5799 95.3588 69.2918 96.3261C67.3293 96.9134 65.4528 96.7234 63.6453 95.7388C62.9739 95.3761 62.3886 95.5488 62.1131 96.1015C61.8032 96.6888 62.0098 97.2415 62.6984 97.6388C64.1273 98.4506 65.6766 98.8479 67.3121 98.8134C73.2169 98.7097 77.4862 93.3552 76.3156 87.5688C75.3687 82.8361 70.9617 79.6925 66.0209 80.2107C61.4934 80.677 57.7749 84.9261 57.8954 89.3134ZM62.0098 89.4861C62.1131 92.4225 64.2822 94.7025 67.3293 94.6679C70.2214 94.6506 72.4422 92.3706 72.425 89.4343C72.4077 86.377 70.0665 84.2698 67.2776 84.2352C64.3511 84.2179 61.9754 86.6534 62.0098 89.4861Z" fill="white"/>
<path d="M57.8966 89.3134C57.7933 84.9262 61.5118 80.6771 66.0394 80.1934C70.9629 79.6753 75.3872 82.8189 76.334 87.5516C77.5046 93.3552 73.2181 98.6925 67.3305 98.7961C65.6951 98.8307 64.1457 98.4334 62.7169 97.6216C62.0283 97.2416 61.8217 96.6889 62.1315 96.0843C62.4242 95.5316 62.9923 95.3589 63.6637 95.7216C65.4713 96.7061 67.3649 96.8961 69.3102 96.3089C72.5983 95.3416 74.7502 91.9561 74.3371 88.5189C73.9239 85.1507 70.9629 82.508 67.5715 82.2662C62.5619 81.9207 58.2065 87.3789 60.8232 92.6989C60.9093 92.8716 60.9781 93.0271 61.0642 93.1998C61.3052 93.7698 61.1503 94.2361 60.6338 94.5643C60.1174 94.8752 59.4632 94.7371 59.2222 94.1498C58.7402 92.9752 58.3787 91.7489 57.9999 90.5225C57.8794 90.2116 57.9311 89.8489 57.8966 89.3134Z" fill="#19164C"/>
<path d="M62.0082 89.4861C61.9738 86.6534 64.3494 84.2007 67.276 84.2352C70.0648 84.2698 72.3889 86.377 72.4233 89.4343C72.4405 92.3707 70.2198 94.6507 67.3276 94.6679C64.2806 94.7025 62.1115 92.4225 62.0082 89.4861ZM70.2886 89.4516C70.2714 87.7416 68.9287 86.3943 67.2244 86.377C65.5028 86.3598 64.1084 87.7589 64.1256 89.4861C64.1429 91.2134 65.5373 92.5952 67.2588 92.5607C68.9631 92.5261 70.2886 91.1616 70.2886 89.4516Z" fill="#19164C"/>
<path d="M70.2921 89.4516C70.3093 91.1616 68.9665 92.5262 67.2622 92.5607C65.5407 92.5953 64.1463 91.2135 64.1291 89.4862C64.1118 87.7589 65.5063 86.3598 67.2278 86.3771C68.9321 86.3944 70.2749 87.7417 70.2921 89.4516Z" fill="white"/>
</g>
<defs>
<clipPath id="clip0_704_5">
<rect width="70.513" height="70.7489" fill="white" transform="translate(46 40)"/>
</clipPath>
</defs>
</svg>
