<svg width="33" height="19" viewBox="0 0 33 19" fill="none" xmlns="http://www.w3.org/2000/svg">
<g clip-path="url(#clip0_194_2519)">
<path d="M28.0099 10.8278H10.1396C9.89317 10.8372 9.64646 10.8333 9.40048 10.8164C9.06542 10.8044 8.74807 10.663 8.51526 10.4219C8.28245 10.1807 8.15234 9.85873 8.15234 9.52363C8.15234 9.18854 8.28245 8.86653 8.51526 8.6254C8.74807 8.38427 9.06542 8.24285 9.40048 8.23091C9.64646 8.21394 9.89317 8.21011 10.1396 8.21942H27.9672C27.7472 7.95677 27.6174 7.7762 27.4647 7.6219C25.9306 6.06461 24.3928 4.50897 22.8511 2.95496C22.1481 2.24089 22.0693 1.50711 22.6162 0.935852C23.1993 0.330118 23.945 0.392497 24.6906 1.14105C27.0864 3.54318 29.4777 5.9508 31.8647 8.36388C32.7007 9.20764 32.6991 9.84128 31.8647 10.6801C29.4766 13.0877 27.0847 15.4953 24.689 17.9029C23.9433 18.6515 23.2026 18.7237 22.6162 18.1147C22.066 17.5484 22.1416 16.8015 22.8445 16.0956C24.3424 14.5755 25.8502 13.0653 27.3513 11.5485C27.5386 11.3597 27.7094 11.1562 28.0099 10.8278Z" fill="black"/>
</g>
<defs>
<clipPath id="clip0_194_2519">
<rect width="32.4444" height="17.9898" fill="white" transform="translate(0.046875 0.525391)"/>
</clipPath>
</defs>
</svg>
