<svg width="34" height="19" viewBox="0 0 34 19" fill="none" xmlns="http://www.w3.org/2000/svg">
<g clip-path="url(#clip0_512_451)">
<path d="M28.8264 10.3691H10.956C10.7096 10.3784 10.4629 10.3746 10.2169 10.3576C9.88183 10.3457 9.56448 10.2043 9.33167 9.96313C9.09885 9.722 8.96875 9.39999 8.96875 9.06489C8.96875 8.7298 9.09885 8.40779 9.33167 8.16666C9.56448 7.92553 9.88183 7.78411 10.2169 7.77217C10.4629 7.7552 10.7096 7.75137 10.956 7.76068H28.7837C28.5636 7.49803 28.4338 7.31746 28.2811 7.16316C26.747 5.60587 25.2092 4.05022 23.6675 2.49622C22.9645 1.78215 22.8857 1.04837 23.4326 0.477111C24.0157 -0.128622 24.7614 -0.0662428 25.507 0.682305C27.9028 3.08444 30.2941 5.49206 32.6811 7.90514C33.5171 8.7489 33.5155 9.38254 32.6811 10.2214C30.293 12.629 27.9011 15.0366 25.5054 17.4442C24.7597 18.1928 24.019 18.265 23.4326 17.656C22.8824 17.0896 22.958 16.3427 23.6609 15.6369C25.1588 14.1168 26.6666 12.6065 28.1677 11.0898C28.355 10.901 28.5258 10.6974 28.8264 10.3691Z" fill="#FDFEFF"/>
</g>
<defs>
<clipPath id="clip0_512_451">
<rect width="32.4444" height="17.9898" fill="white" transform="translate(0.867188 0.0668945)"/>
</clipPath>
</defs>
</svg>
