<svg width="38" height="17" viewBox="0 0 38 17" fill="none" xmlns="http://www.w3.org/2000/svg">
<g clip-path="url(#clip0_194_2264)">
<path d="M33.6701 9.33908H14.4849C14.2693 9.34724 14.0534 9.34389 13.8382 9.32903C13.545 9.31859 13.2674 9.19484 13.0636 8.98385C12.8599 8.77286 12.7461 8.4911 12.7461 8.1979C12.7461 7.90469 12.8599 7.62293 13.0636 7.41194C13.2674 7.20095 13.545 7.07721 13.8382 7.06676C14.0534 7.05191 14.2693 7.04856 14.4849 7.05671H33.6327C33.4402 6.82689 33.3266 6.66889 33.193 6.53387C31.8507 5.17125 30.5051 3.81006 29.1561 2.45031C28.541 1.82549 28.472 1.18344 28.9506 0.683586C29.4608 0.153569 30.1132 0.208151 30.7657 0.86313C32.862 2.965 34.9544 5.07166 37.043 7.18311C37.7745 7.9214 37.7731 8.47583 37.043 9.20981C34.9535 11.3165 32.8605 13.4231 30.7642 15.5298C30.1118 16.1848 29.4637 16.248 28.9506 15.7151C28.4692 15.2195 28.5353 14.566 29.1504 13.9484C30.461 12.6183 31.7803 11.2968 33.0938 9.96964C33.2577 9.80446 33.4071 9.62635 33.6701 9.33908Z" fill="#19164C"/>
</g>
<ellipse cx="3.11979" cy="8.43129" rx="3.04167" ry="3.04005" fill="#19164C"/>
<defs>
<clipPath id="clip0_194_2264">
<rect width="28.3889" height="15.741" fill="white" transform="translate(9.20312 0.324463)"/>
</clipPath>
</defs>
</svg>
