<svg width="108" height="97" viewBox="0 0 108 97" fill="none" xmlns="http://www.w3.org/2000/svg">
<g clip-path="url(#clip0_176_903)">
<path d="M30.3696 39.7416H8.76745C8.5204 39.7416 8.28346 39.6436 8.10877 39.469C7.93408 39.2944 7.83594 39.0575 7.83594 38.8106C7.83594 38.5637 7.93408 38.3269 8.10877 38.1523C8.28346 37.9777 8.5204 37.8796 8.76745 37.8796H30.3696C30.6167 37.8796 30.8536 37.9777 31.0283 38.1523C31.203 38.3269 31.3011 38.5637 31.3011 38.8106C31.3011 39.0575 31.203 39.2944 31.0283 39.469C30.8536 39.6436 30.6167 39.7416 30.3696 39.7416Z" fill="white"/>
<path d="M99.7469 39.7416H77.6346C77.3876 39.7416 77.1507 39.6436 76.976 39.469C76.8013 39.2944 76.7031 39.0575 76.7031 38.8106C76.7031 38.5637 76.8013 38.3269 76.976 38.1523C77.1507 37.9777 77.3876 37.8796 77.6346 37.8796H99.7469C99.994 37.8796 100.231 37.9777 100.406 38.1523C100.58 38.3269 100.678 38.5637 100.678 38.8106C100.678 39.0575 100.58 39.2944 100.406 39.469C100.231 39.6436 99.994 39.7416 99.7469 39.7416Z" fill="white"/>
<path d="M37.29 22.8504C37.07 22.8523 36.8569 22.7734 36.6912 22.6287L30.4811 17.4194C30.3768 17.3329 30.293 17.2245 30.2355 17.1019C30.1779 16.9793 30.1482 16.8455 30.1484 16.7101V8.02059C30.1484 7.77367 30.2466 7.53686 30.4213 7.36226C30.596 7.18766 30.8329 7.08957 31.0799 7.08957C31.327 7.08957 31.5639 7.18766 31.7386 7.36226C31.9133 7.53686 32.0115 7.77367 32.0115 8.02059V16.2778L37.8888 21.21C37.9838 21.2872 38.0624 21.3825 38.12 21.4904C38.1777 21.5982 38.2132 21.7165 38.2246 21.8383C38.2359 21.9601 38.2229 22.0829 38.1862 22.1996C38.1495 22.3163 38.0899 22.4245 38.0108 22.5178C37.9221 22.6223 37.8116 22.7062 37.6872 22.7636C37.5627 22.8211 37.4271 22.8507 37.29 22.8504Z" fill="white"/>
<path d="M70.8805 23.1274C70.7448 23.1292 70.6104 23.1002 70.4875 23.0426C70.3646 22.985 70.2563 22.9003 70.1708 22.7949C70.0127 22.6065 69.9357 22.3632 69.9565 22.1181C69.9772 21.8731 70.0942 21.6462 70.2817 21.4871L76.5029 16.2778V8.02058C76.5029 7.77366 76.601 7.53686 76.7757 7.36226C76.9504 7.18766 77.1873 7.08957 77.4344 7.08957C77.6814 7.08957 77.9184 7.18766 78.0931 7.36226C78.2677 7.53686 78.3659 7.77366 78.3659 8.02058V16.7101C78.3661 16.8455 78.3364 16.9793 78.2789 17.1019C78.2214 17.2245 78.1375 17.3329 78.0332 17.4194L71.4794 22.9612C71.3051 23.0843 71.0934 23.1431 70.8805 23.1274Z" fill="white"/>
<path d="M77.4344 72.4159C77.3116 72.4174 77.1898 72.3943 77.0762 72.348C76.9625 72.3018 76.8592 72.2332 76.7724 72.1465C76.6856 72.0597 76.617 71.9565 76.5708 71.8429C76.5245 71.7293 76.5014 71.6075 76.5029 71.4848V63.2276L70.2817 58.0738C70.0942 57.9146 69.9772 57.6877 69.9565 57.4427C69.9357 57.1977 70.0127 56.9544 70.1708 56.7659C70.2488 56.6718 70.3448 56.5942 70.4531 56.5376C70.5615 56.481 70.68 56.4465 70.8018 56.4362C70.9237 56.4259 71.0463 56.4399 71.1626 56.4775C71.279 56.5151 71.3866 56.5755 71.4794 56.6551L78.0332 62.1414C78.1375 62.2279 78.2214 62.3363 78.2789 62.4589C78.3364 62.5816 78.3661 62.7154 78.3659 62.8508V71.4848C78.3659 71.7318 78.2677 71.9686 78.0931 72.1432C77.9184 72.3178 77.6814 72.4159 77.4344 72.4159Z" fill="white"/>
<path d="M61.9409 82.1138H45.7947C45.5642 82.1121 45.3425 82.0251 45.1725 81.8695C45.0025 81.7139 44.8963 81.5008 44.8743 81.2715L44.7302 79.7974C43.9268 70.5845 40.4591 61.8043 34.7497 54.527C32.3634 51.4815 30.7396 47.9103 30.0135 44.1107C29.2874 40.3112 29.4799 36.3932 30.5751 32.683C31.6702 28.9729 33.6363 25.5779 36.3097 22.7808C38.9831 19.9836 42.2863 17.8652 45.9445 16.602C49.6026 15.3388 53.5097 14.9672 57.3405 15.5184C61.1713 16.0695 64.815 17.5273 67.9682 19.7704C71.1213 22.0135 73.6927 24.977 75.4682 28.4142C77.2438 31.8514 78.1721 35.6628 78.1758 39.531C78.1903 44.7543 76.5006 49.84 73.363 54.0171C67.4896 61.6064 63.8697 70.6935 62.9168 80.2407L62.8281 81.3491C62.7901 81.5588 62.6813 81.7491 62.5198 81.8883C62.3584 82.0275 62.154 82.1071 61.9409 82.1138ZM46.6486 80.2407H61.0649V80.0191C62.053 70.1484 65.7827 60.7505 71.8327 52.8866C74.3703 49.4795 75.8869 45.4217 76.2058 41.1862C76.5247 36.9507 75.6327 32.7118 73.6337 28.9634C71.6348 25.2151 68.6113 22.1117 64.9154 20.0149C61.2196 17.9181 57.0037 16.9142 52.7589 17.1201C48.6431 17.31 44.6594 18.6301 41.2454 20.9354C37.8313 23.2407 35.1192 26.4421 33.4071 30.1876C31.6949 33.9331 31.0489 38.0779 31.5401 42.1665C32.0313 46.2551 33.6406 50.1293 36.1913 53.3632C42.1176 60.9236 45.7197 70.0414 46.5599 79.609L46.6486 80.2407Z" fill="white"/>
<path d="M61.9431 81.1828V88.498C61.9431 88.8272 61.8122 89.1429 61.5793 89.3757C61.3464 89.6085 61.0304 89.7393 60.701 89.7393H47.0389C46.7095 89.7393 46.3936 89.6085 46.1606 89.3757C45.9277 89.1429 45.7969 88.8272 45.7969 88.498V81.1828H61.9431Z" fill="white"/>
<path d="M57.7513 89.7394V94.073C57.7483 94.5209 57.5683 94.9493 57.2504 95.265C56.9325 95.5806 56.5027 95.7577 56.0546 95.7577H51.8295C51.6058 95.7577 51.3842 95.7135 51.1777 95.6276C50.9711 95.5417 50.7836 95.4158 50.6259 95.2571C50.4682 95.0985 50.3434 94.9102 50.2588 94.7032C50.1742 94.4962 50.1314 94.2745 50.1328 94.0509V89.7394H57.7513Z" fill="#50C9B2"/>
<path d="M53.9237 82.1139C53.6766 82.1139 53.4397 82.0158 53.265 81.8412C53.0903 81.6666 52.9922 81.4298 52.9922 81.1829V56.9654C52.9922 56.7185 53.0903 56.4817 53.265 56.3071C53.4397 56.1325 53.6766 56.0344 53.9237 56.0344C54.1708 56.0344 54.4077 56.1325 54.5824 56.3071C54.7571 56.4817 54.8552 56.7185 54.8552 56.9654V81.1829C54.8567 81.3056 54.8336 81.4273 54.7873 81.5409C54.741 81.6546 54.6725 81.7578 54.5857 81.8445C54.4989 81.9313 54.3956 81.9998 54.2819 82.0461C54.1682 82.0923 54.0464 82.1154 53.9237 82.1139Z" fill="white"/>
<path d="M106.345 38.7995C106.341 39.6451 106.034 40.4613 105.479 41.1001C104.925 41.7388 104.16 42.1579 103.323 42.2812C102.486 42.4046 101.633 42.224 100.917 41.7723C100.202 41.3206 99.6726 40.6277 99.4248 39.8192C99.322 39.4891 99.2697 39.1453 99.2695 38.7995C99.2695 38.3324 99.3621 37.8699 99.542 37.4388C99.7218 37.0076 99.9854 36.6164 100.317 36.2876C100.649 35.9589 101.043 35.6991 101.476 35.5234C101.909 35.3477 102.373 35.2595 102.84 35.2639C103.189 35.2651 103.536 35.3136 103.872 35.408C104.59 35.6383 105.217 36.0909 105.662 36.7005C106.106 37.3102 106.345 38.0452 106.345 38.7995Z" fill="#82CBAD"/>
<path d="M103.947 36.4387C103.947 36.9911 103.817 37.5357 103.568 38.0289C103.319 38.5221 102.958 38.9502 102.514 39.2788C102.07 39.6075 101.555 39.8275 101.01 39.9214C100.466 40.0152 99.9065 39.9802 99.3779 39.8192C99.2751 39.489 99.2228 39.1453 99.2227 38.7995C99.2225 38.3286 99.3166 37.8624 99.4992 37.4283C99.6818 36.9942 99.9493 36.6009 100.286 36.2716C100.623 35.9422 101.022 35.6834 101.46 35.5104C101.898 35.3373 102.367 35.2535 102.838 35.2639C103.187 35.2651 103.533 35.3136 103.869 35.4079C103.945 35.7459 103.971 36.0932 103.947 36.4387Z" fill="#FDFEFF"/>
<path d="M102.838 43.2551C101.961 43.2551 101.103 42.9951 100.374 42.5079C99.6443 42.0208 99.0757 41.3283 98.74 40.5182C98.4043 39.7081 98.3164 38.8167 98.4876 37.9567C98.6587 37.0967 99.0812 36.3068 99.7015 35.6868C100.322 35.0667 101.112 34.6445 101.973 34.4734C102.833 34.3024 103.725 34.3902 104.536 34.7257C105.346 35.0613 106.039 35.6295 106.526 36.3586C107.014 37.0877 107.274 37.9448 107.274 38.8217C107.274 39.9975 106.807 41.1251 105.975 41.9566C105.143 42.788 104.015 43.2551 102.838 43.2551ZM102.838 36.1949C102.323 36.1949 101.819 36.3476 101.39 36.6338C100.962 36.92 100.628 37.3268 100.43 37.8027C100.233 38.2787 100.182 38.8024 100.282 39.3076C100.383 39.8129 100.631 40.277 100.995 40.6412C101.36 41.0055 101.824 41.2536 102.33 41.3541C102.835 41.4546 103.359 41.403 103.835 41.2059C104.312 41.0087 104.719 40.6749 105.005 40.2465C105.291 39.8182 105.444 39.3146 105.444 38.7995C105.444 38.4574 105.377 38.1187 105.246 37.8027C105.115 37.4867 104.923 37.1996 104.681 36.9577C104.439 36.7159 104.152 36.524 103.835 36.3931C103.519 36.2622 103.18 36.1949 102.838 36.1949Z" fill="#19164C"/>
<path d="M8.8224 38.7995C8.80281 39.6331 8.4891 40.4329 7.93669 41.0577C7.38428 41.6825 6.62871 42.0921 5.80346 42.2141C4.9782 42.3361 4.13636 42.1626 3.42663 41.7244C2.71691 41.2862 2.18497 40.6114 1.92478 39.8192C1.82199 39.489 1.76965 39.1453 1.76953 38.7995C1.76942 37.8713 2.1345 36.9803 2.78597 36.3188C3.43744 35.6573 4.32304 35.2784 5.25161 35.2639C5.60026 35.2659 5.94708 35.3144 6.28292 35.4079C7.01311 35.6281 7.6536 36.0761 8.11057 36.6864C8.56754 37.2967 8.817 38.0372 8.8224 38.7995Z" fill="#82CBAD"/>
<path d="M6.47144 36.4387C6.47016 36.9885 6.34059 37.5305 6.09303 38.0215C5.84547 38.5125 5.48674 38.9391 5.04535 39.2672C4.60396 39.5954 4.09207 39.8162 3.55036 39.912C3.00865 40.0078 2.45205 39.976 1.92478 39.8192C1.82199 39.489 1.76965 39.1453 1.76953 38.7995C1.76942 37.8713 2.1345 36.9803 2.78597 36.3188C3.43744 35.6573 4.32304 35.2784 5.25161 35.2639C5.60026 35.2659 5.94708 35.3144 6.28292 35.4079C6.39616 35.7404 6.45969 36.0877 6.47144 36.4387Z" fill="#FDFEFF"/>
<path d="M5.25218 43.2551C4.37486 43.2551 3.51725 42.9951 2.7878 42.5079C2.05834 42.0208 1.48979 41.3283 1.15406 40.5182C0.818328 39.7081 0.730485 38.8167 0.90164 37.9567C1.0728 37.0967 1.49526 36.3068 2.11561 35.6868C2.73597 35.0667 3.52635 34.6445 4.3868 34.4734C5.24726 34.3024 6.13914 34.3902 6.94967 34.7257C7.7602 35.0613 8.45297 35.6295 8.94038 36.3586C9.42779 37.0877 9.68794 37.9448 9.68794 38.8217C9.68794 39.9975 9.22061 41.1251 8.38874 41.9566C7.55687 42.788 6.42862 43.2551 5.25218 43.2551ZM5.25218 36.1949C4.73676 36.1949 4.23291 36.3476 3.80435 36.6338C3.3758 36.92 3.04178 37.3268 2.84453 37.8027C2.64729 38.2787 2.59568 38.8024 2.69624 39.3076C2.79679 39.8129 3.04499 40.277 3.40945 40.6412C3.7739 41.0055 4.23825 41.2536 4.74377 41.3541C5.24929 41.4546 5.77327 41.403 6.24945 41.2059C6.72564 41.0087 7.13265 40.6749 7.419 40.2465C7.70535 39.8182 7.85819 39.3146 7.85819 38.7995C7.85819 38.4574 7.79078 38.1187 7.65982 37.8027C7.52885 37.4867 7.3369 37.1996 7.09491 36.9577C6.85292 36.7159 6.56563 36.524 6.24945 36.3931C5.93328 36.2622 5.5944 36.1949 5.25218 36.1949Z" fill="#19164C"/>
<path d="M81.1258 74.2225C81.1246 75.069 80.8195 75.8869 80.2661 76.5277C79.7126 77.1685 78.9475 77.5895 78.1098 77.7143C77.2721 77.8391 76.4174 77.6593 75.701 77.2077C74.9847 76.7561 74.4542 76.0626 74.206 75.2532C74.1025 74.9194 74.0501 74.5719 74.0508 74.2225C74.0508 73.2847 74.4235 72.3854 75.0869 71.7224C75.7503 71.0593 76.6501 70.6868 77.5883 70.6868C78.5265 70.6868 79.4263 71.0593 80.0897 71.7224C80.7531 72.3854 81.1258 73.2847 81.1258 74.2225Z" fill="#82CBAD"/>
<path d="M78.7749 71.8727C78.7661 72.4204 78.6301 72.9585 78.3776 73.4446C78.1252 73.9308 77.7631 74.3516 77.3201 74.6741C76.8771 74.9965 76.3652 75.2116 75.8248 75.3025C75.2844 75.3934 74.7302 75.3575 74.206 75.1978C74.1025 74.864 74.0501 74.5165 74.0508 74.167C74.0596 73.6193 74.1956 73.0812 74.4481 72.5951C74.7005 72.1089 75.0625 71.6881 75.5055 71.3657C75.9485 71.0432 76.4604 70.8281 77.0009 70.7372C77.5413 70.6463 78.0954 70.6822 78.6196 70.8419C78.7216 71.1761 78.7739 71.5234 78.7749 71.8727Z" fill="#FDFEFF"/>
<path d="M77.5881 78.6891C76.7108 78.6891 75.8532 78.4291 75.1237 77.942C74.3943 77.4548 73.8257 76.7624 73.49 75.9523C73.1543 75.1422 73.0664 74.2508 73.2376 73.3908C73.4087 72.5308 73.8312 71.7408 74.4515 71.1208C75.0719 70.5008 75.8623 70.0785 76.7227 69.9075C77.5832 69.7364 78.4751 69.8242 79.2856 70.1598C80.0961 70.4953 80.7889 71.0636 81.2763 71.7926C81.7637 72.5217 82.0239 73.3789 82.0239 74.2557C82.0239 75.4315 81.5565 76.5592 80.7247 77.3906C79.8928 78.222 78.7646 78.6891 77.5881 78.6891ZM77.5881 71.6289C77.0718 71.6267 76.5664 71.7779 76.1361 72.0633C75.7059 72.3486 75.3701 72.7553 75.1715 73.2317C74.9729 73.708 74.9204 74.2327 75.0206 74.7389C75.1208 75.2452 75.3692 75.7103 75.7343 76.0753C76.0994 76.4402 76.5648 76.6885 77.0714 76.7886C77.5779 76.8888 78.1028 76.8363 78.5794 76.6378C79.0561 76.4393 79.463 76.1037 79.7485 75.6737C80.034 75.2436 80.1852 74.7385 80.183 74.2225C80.1801 73.5355 79.9058 72.8775 79.4198 72.3918C78.9338 71.906 78.2754 71.6318 77.5881 71.6289Z" fill="#19164C"/>
<path d="M30.7597 72.4158C30.637 72.4173 30.5152 72.3942 30.4015 72.3479C30.2878 72.3017 30.1845 72.2332 30.0977 72.1464C30.0109 72.0597 29.9424 71.9564 29.8961 71.8428C29.8498 71.7292 29.8267 71.6074 29.8282 71.4848V62.7953C29.828 62.6599 29.8577 62.5261 29.9152 62.4035C29.9727 62.2808 30.0566 62.1724 30.1609 62.0859L36.7036 56.5996C36.7973 56.5197 36.9059 56.4591 37.0231 56.4214C37.1403 56.3836 37.2639 56.3695 37.3866 56.3798C37.5093 56.3901 37.6288 56.4247 37.7381 56.4814C37.8473 56.5382 37.9443 56.616 38.0233 56.7104C38.1113 56.8049 38.1784 56.9169 38.2203 57.039C38.2622 57.1611 38.2779 57.2907 38.2664 57.4193C38.2549 57.5479 38.2164 57.6726 38.1535 57.7853C38.0906 57.8981 38.0047 57.9963 37.9013 58.0737L31.6912 63.283V71.4848C31.6912 71.7317 31.5931 71.9685 31.4184 72.1431C31.2437 72.3177 31.0068 72.4158 30.7597 72.4158Z" fill="white"/>
<path d="M34.0835 74.2224C34.0917 75.0728 33.7919 75.8975 33.2396 76.5444C32.6872 77.1912 31.9194 77.6167 31.0779 77.7422C30.2363 77.8678 29.3777 77.685 28.6604 77.2276C27.9431 76.7701 27.4155 76.0689 27.1748 75.2532C27.0712 74.9194 27.0189 74.5719 27.0195 74.2224C27.0195 73.2847 27.3922 72.3854 28.0557 71.7224C28.7191 71.0593 29.6189 70.6868 30.5571 70.6868C30.9067 70.6861 31.2544 70.7385 31.5884 70.842C32.3112 71.0648 32.9436 71.5133 33.3927 72.1217C33.8418 72.7301 34.0839 73.4664 34.0835 74.2224Z" fill="#82CBAD"/>
<path d="M31.7794 71.8727C31.7724 72.4199 31.6379 72.9579 31.3868 73.4442C31.1356 73.9304 30.7746 74.3516 30.3324 74.6742C29.8901 74.9968 29.3788 75.2121 28.8388 75.303C28.2989 75.3939 27.7452 75.3578 27.2217 75.1977C27.1181 74.864 27.0658 74.5164 27.0664 74.167C27.0664 73.2292 27.4391 72.3299 28.1025 71.6669C28.7659 71.0038 29.6657 70.6313 30.6039 70.6313C30.9536 70.6307 31.3013 70.683 31.6353 70.7865C31.7331 71.1402 31.7816 71.5057 31.7794 71.8727Z" fill="#FDFEFF"/>
<path d="M30.6037 78.6891C29.7264 78.6891 28.8688 78.4291 28.1394 77.942C27.4099 77.4548 26.8414 76.7624 26.5056 75.9523C26.1699 75.1422 26.082 74.2508 26.2532 73.3908C26.4244 72.5308 26.8468 71.7408 27.4672 71.1208C28.0875 70.5008 28.8779 70.0785 29.7384 69.9075C30.5988 69.7364 31.4907 69.8242 32.3012 70.1598C33.1118 70.4953 33.8045 71.0636 34.2919 71.7926C34.7794 72.5217 35.0395 73.3789 35.0395 74.2557C35.0395 75.4315 34.5722 76.5592 33.7403 77.3906C32.9084 78.222 31.7802 78.6891 30.6037 78.6891ZM30.6037 71.6289C30.0874 71.6267 29.582 71.7779 29.1518 72.0633C28.7215 72.3486 28.3858 72.7553 28.1872 73.2317C27.9885 73.708 27.936 74.2327 28.0362 74.7389C28.1364 75.2452 28.3848 75.7103 28.7499 76.0753C29.1151 76.4402 29.5804 76.6885 30.087 76.7886C30.5935 76.8888 31.1184 76.8363 31.5951 76.6378C32.0717 76.4393 32.4786 76.1037 32.7641 75.6737C33.0496 75.2436 33.2009 74.7385 33.1987 74.2225C33.1957 73.5355 32.9214 72.8775 32.4354 72.3918C31.9494 71.906 31.2911 71.6318 30.6037 71.6289Z" fill="#19164C"/>
<path d="M80.9831 4.87286C80.9991 5.62097 80.7779 6.35494 80.3512 6.96979C79.9245 7.58463 79.3141 8.04884 78.6075 8.296C77.9008 8.54316 77.1341 8.56061 76.4169 8.34586C75.6997 8.13111 75.0689 7.69515 74.6146 7.10036C74.1603 6.50557 73.9059 5.78242 73.8878 5.03436C73.8696 4.28631 74.0886 3.55168 74.5135 2.93557C74.9384 2.31946 75.5473 1.85344 76.2532 1.60418C76.9592 1.35492 77.7259 1.33519 78.4437 1.54781C79.1658 1.75992 79.8015 2.19672 80.2582 2.79471C80.7149 3.3927 80.9689 4.1207 80.9831 4.87286Z" fill="#82CBAD"/>
<path d="M78.6302 2.5564C78.6302 3.49028 78.2605 4.38624 77.6019 5.04867C76.9433 5.7111 76.0492 6.08619 75.1148 6.09204C74.7601 6.10849 74.4049 6.07112 74.0613 5.98121C73.8674 5.36462 73.8462 4.70669 74.0001 4.07892C74.1541 3.45116 74.4773 2.87758 74.9346 2.42054C75.3918 1.96351 75.9657 1.6405 76.5938 1.48663C77.2219 1.33276 77.8802 1.35392 78.4971 1.5478C78.5902 1.87577 78.635 2.21553 78.6302 2.5564Z" fill="#FDFEFF"/>
<path d="M77.4436 9.37277C76.5663 9.37277 75.7087 9.11276 74.9792 8.62561C74.2497 8.13846 73.6812 7.44606 73.3455 6.63596C73.0097 5.82586 72.9219 4.93444 73.093 4.07445C73.2642 3.21445 73.6867 2.42449 74.307 1.80447C74.9274 1.18445 75.7178 0.762204 76.5782 0.59114C77.4387 0.420076 78.3306 0.507872 79.1411 0.843426C79.9516 1.17898 80.6444 1.74722 81.1318 2.47629C81.6192 3.20536 81.8794 4.06252 81.8794 4.93936C81.8794 6.11518 81.412 7.24283 80.5801 8.07426C79.7483 8.90568 78.62 9.37277 77.4436 9.37277ZM77.4436 2.30148C76.9268 2.30153 76.4216 2.45516 75.9924 2.74286C75.5631 3.03056 75.2292 3.43932 75.0329 3.9172C74.8367 4.39507 74.7871 4.92047 74.8903 5.4266C74.9936 5.93274 75.2451 6.39675 75.6129 6.75966C75.9807 7.12256 76.4482 7.36797 76.9559 7.46468C77.4636 7.5614 77.9886 7.50505 78.4641 7.3028C78.9397 7.10055 79.3444 6.76154 79.6267 6.32886C79.909 5.89618 80.0562 5.38937 80.0496 4.87286C80.0408 4.18785 79.7624 3.53386 79.2747 3.05257C78.7869 2.57127 78.129 2.30143 77.4436 2.30148Z" fill="#19164C"/>
<path d="M34.8837 4.87285C34.9018 5.72631 34.6104 6.5575 34.0632 7.21296C33.516 7.86842 32.75 8.30389 31.9067 8.43897C31.0634 8.57405 30.1996 8.39961 29.4749 7.94787C28.7502 7.49612 28.2135 6.79758 27.9639 5.98121C27.8594 5.62107 27.8071 5.24782 27.8086 4.87285C27.8174 3.94092 28.194 3.05013 28.8564 2.39424C29.5189 1.73835 30.4137 1.37042 31.3461 1.37046C31.6958 1.3698 32.0435 1.42212 32.3775 1.52563C33.097 1.74477 33.7279 2.18743 34.1786 2.78935C34.6293 3.39127 34.8762 4.12109 34.8837 4.87285Z" fill="#82CBAD"/>
<path d="M32.5327 2.5564C32.5327 3.0207 32.4412 3.48046 32.2634 3.90943C32.0857 4.33839 31.8251 4.72816 31.4966 5.05647C30.8332 5.71953 29.9334 6.09204 28.9952 6.09204C28.6479 6.10546 28.3004 6.06812 27.9639 5.9812C27.8594 5.62107 27.8071 5.24782 27.8086 4.87285C27.8174 3.94091 28.194 3.05013 28.8564 2.39424C29.5189 1.73835 30.4137 1.37042 31.3461 1.37046C31.6958 1.3698 32.0435 1.42212 32.3775 1.52563C32.4802 1.85959 32.5325 2.207 32.5327 2.5564Z" fill="#FDFEFF"/>
<path d="M31.3459 9.37277C30.4686 9.37277 29.611 9.11276 28.8815 8.62561C28.1521 8.13846 27.5835 7.44606 27.2478 6.63596C26.9121 5.82586 26.8242 4.93444 26.9954 4.07445C27.1665 3.21445 27.589 2.42449 28.2094 1.80447C28.8297 1.18445 29.6201 0.762204 30.4806 0.59114C31.341 0.420076 32.2329 0.507872 33.0434 0.843426C33.854 1.17898 34.5467 1.74722 35.0341 2.47629C35.5215 3.20536 35.7817 4.06252 35.7817 4.93936C35.7817 6.11518 35.3144 7.24283 34.4825 8.07426C33.6506 8.90568 32.5224 9.37277 31.3459 9.37277ZM31.3459 2.30148C30.8291 2.30153 30.324 2.45516 29.8947 2.74286C29.4655 3.03056 29.1315 3.43932 28.9353 3.9172C28.739 4.39507 28.6894 4.92047 28.7927 5.4266C28.896 5.93274 29.1475 6.39675 29.5153 6.75966C29.8831 7.12256 30.3505 7.36797 30.8582 7.46468C31.3659 7.5614 31.8909 7.50505 32.3665 7.3028C32.842 7.10055 33.2467 6.76154 33.529 6.32886C33.8113 5.89618 33.9585 5.38937 33.9519 4.87286C33.9432 4.18785 33.6648 3.53386 33.177 3.05257C32.6892 2.57127 32.0314 2.30143 31.3459 2.30148Z" fill="#19164C"/>
<path d="M67.7307 47.755C63.8938 54.8374 53.9687 56.6218 53.9687 56.6218C53.9687 56.6218 53.7248 56.245 53.3588 55.58C51.9948 53.1084 49.0672 46.7132 51.4625 41.0938C53.8578 35.4745 61.443 32.227 64.5813 31.1186C64.968 30.9779 65.3936 30.9875 65.7736 31.1456C66.1535 31.3036 66.4602 31.5986 66.6328 31.9721C66.9433 32.6593 67.3315 33.5903 67.7418 34.6765C68.9505 38.2232 70.0262 43.5211 67.7307 47.755Z" fill="white"/>
<path d="M67.7284 47.7551C63.8914 54.8374 53.9664 56.6219 53.9664 56.6219C53.9664 56.6219 53.7224 56.245 53.3565 55.58C52.944 54.4991 52.6177 53.3873 52.3806 52.255C51.7643 49.6251 51.9576 46.8705 52.9351 44.3524C55.3415 38.7441 62.9156 35.4856 66.0539 34.3772C66.22 34.3123 66.3967 34.2785 66.5751 34.2775C66.9816 34.2676 67.3771 34.4099 67.684 34.6765C68.9482 38.2232 70.0239 43.5211 67.7284 47.7551Z" fill="#82CBAD"/>
<path d="M65.6015 43.4989C62.2746 49.5838 54.5121 51.7562 52.3829 52.2438C51.7689 49.6175 51.9622 46.8671 52.9374 44.3524C55.3438 38.7441 62.9178 35.4855 66.0561 34.3772C66.2223 34.3122 66.3989 34.2784 66.5773 34.2774C67.3052 37.3731 66.9612 40.624 65.6015 43.4989Z" fill="#82CBAD"/>
<path d="M53.9672 57.5528C53.813 57.5523 53.6614 57.5136 53.5259 57.4401C53.3905 57.3666 53.2753 57.2606 53.1909 57.1317C52.9581 56.777 47.3912 48.2648 50.6071 40.7281C53.1577 34.7873 61.009 31.3957 64.2693 30.2098C64.8745 29.9926 65.5392 30.0097 66.1324 30.258C66.7256 30.5062 67.2043 30.9675 67.4741 31.5509C68.8603 34.5878 71.7546 42.2908 68.583 48.1762C64.5798 55.5689 54.5882 57.442 54.1668 57.5196L53.9672 57.5528ZM65.1342 31.9167C65.0574 31.9008 64.9782 31.9008 64.9014 31.9167C61.8739 33.025 54.5882 36.1395 52.326 41.4152C49.9306 47.0124 53.3129 53.6071 54.4219 55.5246C56.5843 55.0036 63.87 52.8756 66.9196 47.2673C69.7142 42.1024 67.0527 35.0755 65.8107 32.2824C65.7461 32.162 65.6476 32.0631 65.5273 31.9981C65.4071 31.9331 65.2704 31.9048 65.1342 31.9167Z" fill="#19164C"/>
<path d="M53.9674 56.6218C53.1649 56.5047 52.3691 56.3456 51.5832 56.1452C48.2564 55.3251 42.379 53.2635 39.8285 48.4865C37.0007 43.2108 39.0411 35.4634 40.139 32.1827C40.2824 31.735 40.5929 31.3597 41.0059 31.1348C41.4189 30.9098 41.9027 30.8524 42.3568 30.9746C43.6224 31.3095 44.8667 31.7204 46.0829 32.2048C49.4762 33.5681 53.535 35.9622 55.2095 39.9633C58.3034 47.3782 53.9674 56.6218 53.9674 56.6218Z" fill="white"/>
<path d="M53.969 56.6218C53.1664 56.5046 52.3706 56.3456 51.5847 56.1452C51.0192 55.9014 50.4758 55.6464 49.8548 55.3472C47.2847 54.1394 45.1422 52.1798 43.7113 49.7278C40.8835 44.4632 42.9239 36.7158 44.0218 33.4351C44.1356 33.0843 44.3567 32.7781 44.6539 32.5595C44.8485 32.4012 45.0754 32.2874 45.3187 32.2262C45.562 32.1649 45.8158 32.1576 46.0622 32.2048C49.4556 33.5681 53.5143 35.9621 55.1888 39.9633C58.3049 47.3781 53.969 56.6218 53.969 56.6218Z" fill="#82CBAD"/>
<path d="M49.8314 55.3472C47.2612 54.1394 45.1188 52.1798 43.6878 49.7279C40.86 44.4632 42.9005 36.7158 43.9983 33.4351C44.1122 33.0843 44.3333 32.7781 44.6304 32.5595C47.3775 33.9322 49.5868 36.1832 50.907 38.9547C53.7237 45.627 50.5078 53.7734 49.8314 55.3472Z" fill="#82CBAD"/>
<path d="M53.9669 57.5528H53.856C53.4124 57.4974 42.8331 56.123 38.9851 48.9298C35.9688 43.3105 38.1534 35.1419 39.2291 31.8945C39.4511 31.2279 39.9182 30.6706 40.5359 30.3352C41.1535 29.9998 41.8755 29.9114 42.5559 30.0879C45.7496 30.9191 53.4568 33.4905 56.0406 39.5975C59.3009 47.356 55.0093 56.6329 54.8208 57.0319C54.7428 57.1909 54.621 57.3244 54.4697 57.4166C54.3185 57.5089 54.1441 57.5562 53.9669 57.5528ZM41.8462 31.8501C41.6569 31.8519 41.4729 31.9127 41.3199 32.0239C41.1668 32.1352 41.0523 32.2914 40.9923 32.4708C39.9942 35.4966 37.9538 43.0556 40.6263 48.0432C43.4985 53.4076 51.0726 55.1588 53.4013 55.591C54.2663 53.3743 56.7282 46.17 54.3107 40.3069C52.0928 34.9646 44.9956 32.6371 42.1123 31.8834C42.0259 31.8582 41.9361 31.847 41.8462 31.8501Z" fill="#19164C"/>
<path d="M61.9417 81.1828V88.498C61.9417 88.8272 61.8108 89.1429 61.5779 89.3757C61.345 89.6085 61.0291 89.7393 60.6997 89.7393H50.7192C50.3917 89.7364 50.0787 89.6043 49.8481 89.3718C49.6176 89.1393 49.4883 88.8253 49.4883 88.498V81.1828H61.9417Z" fill="#82CBAD"/>
<path d="M60.7003 90.6704H47.0382C46.45 90.6704 45.8858 90.4369 45.4699 90.0212C45.054 89.6054 44.8203 89.0416 44.8203 88.4537V81.1386C44.8232 80.8926 44.9223 80.6574 45.0963 80.4835C45.2704 80.3095 45.5057 80.2105 45.7518 80.2076H61.9424C62.1885 80.2105 62.4238 80.3095 62.5979 80.4835C62.7719 80.6574 62.871 80.8926 62.8739 81.1386V88.4537C62.874 89.034 62.6464 89.5912 62.24 90.0057C61.8336 90.4202 61.2808 90.6588 60.7003 90.6704ZM46.7277 82.1139V88.498C46.7305 88.5795 46.7641 88.6568 46.8217 88.7144C46.8793 88.772 46.9567 88.8056 47.0382 88.8084H60.7003C60.7818 88.8056 60.8592 88.772 60.9168 88.7144C60.9745 88.6568 61.0081 88.5795 61.0108 88.498V82.1139H46.7277Z" fill="#19164C"/>
<path d="M57.7513 89.7394V94.073C57.7483 94.5209 57.5683 94.9493 57.2504 95.265C56.9325 95.5806 56.5027 95.7577 56.0546 95.7577H51.8295C51.6058 95.7577 51.3842 95.7135 51.1777 95.6276C50.9711 95.5417 50.7836 95.4158 50.6259 95.2571C50.4682 95.0985 50.3434 94.9102 50.2588 94.7032C50.1742 94.4962 50.1314 94.2745 50.1328 94.0509V89.7394H57.7513Z" fill="#82CBAD"/>
<path d="M56.0525 96.7109H51.8274C51.1304 96.7109 50.4619 96.4342 49.969 95.9416C49.4761 95.4489 49.1992 94.7808 49.1992 94.0841V89.7394C49.1992 89.6171 49.2233 89.4961 49.2701 89.3831C49.3169 89.2701 49.3856 89.1675 49.4721 89.0811C49.5585 88.9946 49.6612 88.926 49.7743 88.8792C49.8873 88.8324 50.0084 88.8084 50.1307 88.8084H57.7824C57.9052 88.8069 58.027 88.8299 58.1406 88.8762C58.2543 88.9225 58.3576 88.991 58.4444 89.0777C58.5312 89.1645 58.5998 89.2677 58.6461 89.3813C58.6923 89.495 58.7154 89.6167 58.7139 89.7394V94.0841C58.714 94.4319 58.6449 94.7762 58.5107 95.0971C58.3766 95.418 58.18 95.709 57.9324 95.9534C57.6848 96.1978 57.3912 96.3906 57.0685 96.5206C56.7457 96.6506 56.4004 96.7153 56.0525 96.7109ZM51.029 90.6704V94.0841C51.029 94.287 51.1096 94.4815 51.2531 94.6249C51.3966 94.7683 51.5912 94.8489 51.7941 94.8489H56.0525C56.2554 94.8489 56.45 94.7683 56.5935 94.6249C56.737 94.4815 56.8176 94.287 56.8176 94.0841V90.6704H51.029Z" fill="#19164C"/>
</g>
<defs>
<clipPath id="clip0_176_903">
<rect width="106.458" height="96.2715" fill="white" transform="translate(0.816406 0.439453)"/>
</clipPath>
</defs>
</svg>
