<svg width="487" height="476" viewBox="0 0 487 476" fill="none" xmlns="http://www.w3.org/2000/svg">
<path d="M350.12 37.6098C398.439 61.6903 446.706 91.5081 469.602 139.197C492.581 187.057 491.833 244.064 473.027 293.6C455.706 339.224 410.361 365.607 371.812 396.777C335.3 426.301 301.443 460.409 254.896 469.98C205.431 480.152 149.19 479.643 108.205 450.982C68.4562 423.186 66.2756 368.976 47.6767 325.072C30.0209 283.394 -9.79739 244.318 2.2231 200.803C14.2053 157.427 73.1049 147.622 105.561 115.528C141.028 80.4565 152.095 20.315 200.266 4.96729C250.119 -10.9159 303.462 14.3565 350.12 37.6098Z" fill="#82CBAD" fill-opacity="0.34"/>
</svg>
