<svg width="359" height="362" viewBox="0 0 359 362" fill="none" xmlns="http://www.w3.org/2000/svg">
<path d="M258.097 28.6024C293.716 46.9157 329.297 69.5923 346.175 105.86C363.114 142.258 362.563 185.612 348.699 223.284C335.931 257.981 302.504 278.045 274.088 301.751C247.172 324.204 222.214 350.143 187.901 357.422C151.437 365.158 109.977 364.77 79.7653 342.974C50.4636 321.835 48.8561 280.608 35.1456 247.219C22.1304 215.523 -7.2223 185.805 1.6388 152.712C10.4717 119.724 53.8905 112.267 77.8159 87.8594C103.961 61.1875 112.119 15.4496 147.63 3.77765C184.379 -8.30161 223.702 10.9181 258.097 28.6024Z" fill="#282065"/>
</svg>
