<svg width="263" height="266" viewBox="0 0 263 266" fill="none" xmlns="http://www.w3.org/2000/svg">
<path d="M189.079 21.0173C215.173 34.474 241.24 51.1369 253.605 77.7863C266.014 104.532 265.61 136.389 255.454 164.071C246.1 189.566 221.612 204.31 200.794 221.728C181.076 238.227 162.792 257.287 137.654 262.636C110.941 268.32 80.5685 268.036 58.4353 252.02C36.9692 236.486 35.7915 206.193 25.7474 181.658C16.2125 158.367 -5.29099 136.531 1.20057 112.214C7.67146 87.974 39.4797 82.4947 57.0072 64.5597C76.1607 44.961 82.1376 11.3525 108.152 2.77584C135.074 -6.10008 163.882 8.02272 189.079 21.0173Z" fill="#282065"/>
</svg>
