<svg width="25" height="18" viewBox="0 0 25 18" fill="none" xmlns="http://www.w3.org/2000/svg">
<path d="M19.8576 10.3022H1.98722C1.74083 10.3115 1.49411 10.3077 1.24813 10.2907C0.913075 10.2788 0.595727 10.1374 0.362916 9.89624C0.130105 9.65511 0 9.33309 0 8.998C0 8.66291 0.130105 8.34089 0.362916 8.09976C0.595727 7.85863 0.913075 7.71721 1.24813 7.70528C1.49412 7.68831 1.74083 7.68447 1.98722 7.69379H19.8149C19.5948 7.43114 19.4651 7.25057 19.3123 7.09626C17.7783 5.53898 16.2404 3.98333 14.6988 2.42933C13.9958 1.71525 13.917 0.981477 14.4639 0.410217C15.0469 -0.195516 15.7926 -0.133137 16.5383 0.615411C18.934 3.01755 21.3254 5.42516 23.7124 7.83824C24.5484 8.682 24.5467 9.31564 23.7124 10.1545C21.3243 12.5621 18.9324 14.9697 16.5366 17.3773C15.791 18.1259 15.0502 18.1981 14.4639 17.5891C13.9137 17.0227 13.9892 16.2758 14.6922 15.57C16.1901 14.0499 17.6978 12.5397 19.199 11.0229C19.3862 10.8341 19.557 10.6305 19.8576 10.3022Z" fill="#1D1655"/>
</svg>
