<svg width="140" height="126" viewBox="0 0 140 126" fill="none" xmlns="http://www.w3.org/2000/svg">
<g clip-path="url(#clip0_92_1601)">
<path d="M39.4139 51.3159H11.2084C10.8859 51.3159 10.5765 51.1878 10.3484 50.9598C10.1203 50.7319 9.99219 50.4227 9.99219 50.1003C9.99219 49.7779 10.1203 49.4687 10.3484 49.2407C10.5765 49.0127 10.8859 48.8847 11.2084 48.8847H39.4139C39.7364 48.8847 40.0458 49.0127 40.2739 49.2407C40.502 49.4687 40.6301 49.7779 40.6301 50.1003C40.6301 50.4227 40.502 50.7319 40.2739 50.9598C40.0458 51.1878 39.7364 51.3159 39.4139 51.3159Z" fill="#1D1655"/>
<path d="M129.994 51.3159H101.122C100.8 51.3159 100.491 51.1878 100.262 50.9598C100.034 50.7319 99.9062 50.4227 99.9062 50.1003C99.9062 49.7779 100.034 49.4687 100.262 49.2407C100.491 49.0127 100.8 48.8847 101.122 48.8847H129.994C130.317 48.8847 130.626 49.0127 130.854 49.2407C131.082 49.4687 131.21 49.7779 131.21 50.1003C131.21 50.4227 131.082 50.7319 130.854 50.9598C130.626 51.1878 130.317 51.3159 129.994 51.3159Z" fill="#1D1655"/>
<path d="M48.4496 29.2613C48.1623 29.2638 47.8841 29.1609 47.6677 28.9719L39.5594 22.1703C39.4232 22.0574 39.3137 21.9159 39.2386 21.7558C39.1635 21.5957 39.1247 21.421 39.125 21.2441V9.8985C39.125 9.5761 39.2531 9.2669 39.4812 9.03893C39.7093 8.81096 40.0187 8.68289 40.3413 8.68289C40.6638 8.68289 40.9732 8.81096 41.2013 9.03893C41.4294 9.2669 41.5575 9.5761 41.5575 9.8985V20.6798L49.2315 27.1196C49.3554 27.2203 49.458 27.3448 49.5333 27.4856C49.6086 27.6265 49.655 27.781 49.6698 27.94C49.6846 28.099 49.6676 28.2593 49.6197 28.4117C49.5718 28.564 49.4939 28.7053 49.3907 28.8272C49.2749 28.9636 49.1307 29.0732 48.9681 29.1481C48.8056 29.2231 48.6286 29.2618 48.4496 29.2613Z" fill="#1D1655"/>
<path d="M92.3047 29.6231C92.1274 29.6255 91.9519 29.5876 91.7914 29.5124C91.6309 29.4372 91.4896 29.3266 91.378 29.189C91.1716 28.9429 91.071 28.6253 91.0981 28.3053C91.1252 27.9854 91.2779 27.6892 91.5228 27.4813L99.6456 20.6797V9.8985C99.6456 9.5761 99.7737 9.2669 100.002 9.03893C100.23 8.81096 100.539 8.68289 100.862 8.68289C101.184 8.68289 101.494 8.81096 101.722 9.03893C101.95 9.2669 102.078 9.5761 102.078 9.8985V21.2441C102.078 21.421 102.04 21.5956 101.964 21.7557C101.889 21.9158 101.78 22.0574 101.644 22.1703L93.0865 29.406C92.859 29.5668 92.5826 29.6436 92.3047 29.6231Z" fill="#1D1655"/>
<path d="M100.862 93.9779C100.702 93.9798 100.543 93.9497 100.394 93.8893C100.246 93.8289 100.111 93.7394 99.9975 93.6262C99.8842 93.5129 99.7947 93.3781 99.7342 93.2298C99.6738 93.0814 99.6437 92.9224 99.6456 92.7623V81.981L91.5228 75.2518C91.2779 75.0439 91.1252 74.7477 91.0981 74.4278C91.071 74.1078 91.1716 73.7902 91.378 73.5441C91.4798 73.4213 91.6051 73.3199 91.7466 73.246C91.8881 73.1721 92.0428 73.1271 92.2019 73.1136C92.361 73.1001 92.5211 73.1185 92.673 73.1675C92.8249 73.2166 92.9655 73.2954 93.0865 73.3994L101.644 80.5628C101.78 80.6757 101.889 80.8173 101.964 80.9774C102.04 81.1375 102.078 81.3122 102.078 81.489V92.7623C102.078 93.0847 101.95 93.3939 101.722 93.6218C101.494 93.8498 101.184 93.9779 100.862 93.9779Z" fill="#1D1655"/>
<path d="M80.6408 106.64H59.5592C59.2582 106.638 58.9687 106.524 58.7467 106.321C58.5248 106.118 58.386 105.84 58.3574 105.54L58.1692 103.616C57.1203 91.5867 52.5925 80.1225 45.1379 70.6208C42.0222 66.6443 39.9021 61.9815 38.954 57.0205C38.0059 52.0595 38.2573 46.9439 39.6872 42.0997C41.1171 37.2554 43.6842 32.8227 47.1748 29.1705C50.6653 25.5183 54.9783 22.7524 59.7546 21.103C64.5309 19.4537 69.6324 18.9686 74.6342 19.6881C79.636 20.4077 84.3935 22.3111 88.5105 25.2399C92.6274 28.1687 95.9848 32.0381 98.3031 36.5259C100.621 41.0138 101.833 45.9902 101.838 51.0409C101.857 57.8608 99.6511 64.501 95.5544 69.9551C87.8856 79.8642 83.1592 91.7289 81.915 104.195L81.7991 105.642C81.7496 105.916 81.6075 106.164 81.3967 106.346C81.1859 106.528 80.9191 106.631 80.6408 106.64ZM60.6741 104.195H79.497V103.905C80.7872 91.0173 85.6569 78.7467 93.5562 68.479C96.8696 64.0304 98.8498 58.7323 99.2661 53.202C99.6824 47.6718 98.5178 42.1372 95.9078 37.2431C93.2979 32.349 89.3501 28.297 84.5246 25.5592C79.699 22.8214 74.1944 21.5106 68.6521 21.7796C63.2782 22.0274 58.0767 23.751 53.6191 26.761C49.1616 29.7711 45.6204 33.951 43.3849 38.8414C41.1493 43.7319 40.3059 49.1437 40.9472 54.482C41.5885 59.8204 43.6898 64.8788 47.0202 69.1013C54.758 78.9727 59.4612 90.8776 60.5582 103.37L60.6741 104.195Z" fill="#19164C"/>
<path d="M80.6364 105.425V114.976C80.6364 115.406 80.4655 115.818 80.1614 116.122C79.8573 116.426 79.4448 116.597 79.0147 116.597H61.1764C60.7463 116.597 60.3338 116.426 60.0297 116.122C59.7255 115.818 59.5547 115.406 59.5547 114.976V105.425H80.6364Z" fill="white"/>
<path d="M75.166 116.597V122.255C75.1622 122.84 74.9271 123.399 74.512 123.811C74.097 124.223 73.5357 124.455 72.9507 124.455H67.4341C67.142 124.455 66.8527 124.397 66.583 124.285C66.3133 124.173 66.0684 124.008 65.8625 123.801C65.6566 123.594 65.4937 123.348 65.3832 123.078C65.2728 122.808 65.2169 122.518 65.2188 122.226V116.597H75.166Z" fill="#50C9B2"/>
<path d="M70.1694 106.64C69.8468 106.64 69.5375 106.512 69.3094 106.284C69.0813 106.056 68.9531 105.747 68.9531 105.425V73.8045C68.9531 73.4821 69.0813 73.173 69.3094 72.945C69.5375 72.717 69.8468 72.5889 70.1694 72.5889C70.4919 72.5889 70.8013 72.717 71.0294 72.945C71.2575 73.173 71.3856 73.4821 71.3856 73.8045V105.425C71.3876 105.585 71.3574 105.744 71.297 105.892C71.2366 106.041 71.1471 106.175 71.0337 106.289C70.9204 106.402 70.7855 106.491 70.6371 106.552C70.4887 106.612 70.3296 106.642 70.1694 106.64Z" fill="#1D1655"/>
<path d="M138.613 50.0858C138.608 51.1899 138.207 52.2555 137.483 53.0896C136.759 53.9236 135.76 54.4708 134.668 54.6318C133.575 54.7928 132.46 54.5571 131.527 53.9673C130.593 53.3775 129.901 52.4728 129.578 51.4172C129.443 50.9861 129.375 50.5373 129.375 50.0858C129.375 49.4759 129.496 48.8721 129.731 48.3091C129.966 47.7462 130.31 47.2353 130.743 46.8061C131.177 46.3768 131.691 46.0377 132.256 45.8083C132.822 45.5789 133.427 45.4637 134.037 45.4694C134.493 45.471 134.946 45.5343 135.384 45.6576C136.322 45.9582 137.141 46.5492 137.721 47.3452C138.301 48.1412 138.614 49.1009 138.613 50.0858Z" fill="#82CBAD"/>
<path d="M135.481 47.0033C135.48 47.7245 135.311 48.4356 134.986 49.0796C134.661 49.7235 134.19 50.2825 133.61 50.7116C133.03 51.1407 132.358 51.428 131.646 51.5505C130.935 51.6731 130.205 51.6274 129.515 51.4171C129.381 50.986 129.313 50.5372 129.313 50.0857C129.312 49.4709 129.435 48.8622 129.674 48.2954C129.912 47.7286 130.261 47.2151 130.701 46.7851C131.141 46.3551 131.662 46.0172 132.234 45.7912C132.806 45.5653 133.418 45.4558 134.033 45.4693C134.488 45.4709 134.941 45.5342 135.379 45.6575C135.478 46.0988 135.512 46.5521 135.481 47.0033Z" fill="#FDFEFF"/>
<path d="M134.034 55.9033C132.888 55.9033 131.769 55.5638 130.816 54.9277C129.864 54.2917 129.121 53.3876 128.683 52.3299C128.245 51.2721 128.13 50.1083 128.353 48.9854C128.577 47.8625 129.129 46.8311 129.939 46.0215C130.749 45.212 131.78 44.6607 132.904 44.4373C134.027 44.214 135.192 44.3286 136.25 44.7667C137.309 45.2048 138.213 45.9468 138.849 46.8987C139.486 47.8506 139.826 48.9698 139.826 50.1147C139.826 51.6499 139.215 53.1223 138.129 54.2078C137.043 55.2934 135.57 55.9033 134.034 55.9033ZM134.034 46.6849C133.361 46.6849 132.703 46.8844 132.143 47.2581C131.584 47.6318 131.148 48.1629 130.89 48.7843C130.633 49.4057 130.565 50.0895 130.697 50.7492C130.828 51.4089 131.152 52.0149 131.628 52.4905C132.104 52.9661 132.71 53.29 133.37 53.4212C134.03 53.5524 134.714 53.4851 135.336 53.2277C135.958 52.9703 136.489 52.5344 136.863 51.9751C137.237 51.4159 137.436 50.7584 137.436 50.0857C137.436 49.6391 137.348 49.1969 137.177 48.7843C137.006 48.3717 136.756 47.9968 136.44 47.681C136.124 47.3652 135.749 47.1147 135.336 46.9438C134.923 46.7729 134.481 46.6849 134.034 46.6849Z" fill="#19164C"/>
<path d="M11.2791 50.0858C11.2535 51.1741 10.8439 52.2184 10.1226 53.0342C9.40134 53.85 8.41482 54.3848 7.33731 54.5441C6.25979 54.7034 5.16062 54.4769 4.23395 53.9048C3.30728 53.3326 2.61274 52.4515 2.27302 51.4171C2.13881 50.9861 2.07047 50.5372 2.07031 50.0858C2.07016 48.8739 2.54684 47.7105 3.39745 46.8468C4.24806 45.9831 5.40437 45.4884 6.61677 45.4694C7.07199 45.472 7.52483 45.5353 7.96333 45.6575C8.91673 45.9449 9.75299 46.5299 10.3496 47.3268C10.9463 48.1236 11.272 49.0905 11.2791 50.0858Z" fill="#82CBAD"/>
<path d="M8.20948 47.0033C8.2078 47.7212 8.03863 48.4289 7.71539 49.07C7.39216 49.7111 6.92378 50.268 6.34747 50.6965C5.77115 51.125 5.1028 51.4132 4.3955 51.5383C3.6882 51.6634 2.96146 51.6219 2.27302 51.4171C2.13881 50.9861 2.07047 50.5372 2.07031 50.0858C2.07016 48.8739 2.54684 47.7105 3.39745 46.8468C4.24806 45.9831 5.40436 45.4884 6.61677 45.4694C7.07199 45.472 7.52483 45.5353 7.96333 45.6575C8.11119 46.0916 8.19413 46.5451 8.20948 47.0033Z" fill="#FDFEFF"/>
<path d="M6.6198 55.9033C5.47431 55.9033 4.35455 55.5638 3.40212 54.9277C2.44968 54.2917 1.70735 53.3876 1.26899 52.3299C0.830634 51.2721 0.71594 50.1083 0.939413 48.9854C1.16289 47.8625 1.71449 46.8311 2.52447 46.0215C3.33445 45.212 4.36642 44.6607 5.4899 44.4373C6.61337 44.214 7.77788 44.3286 8.83617 44.7667C9.89446 45.2048 10.799 45.9468 11.4354 46.8987C12.0718 47.8506 12.4115 48.9698 12.4115 50.1147C12.4115 51.6499 11.8013 53.1223 10.7151 54.2078C9.62898 55.2934 8.15584 55.9033 6.6198 55.9033ZM6.6198 46.6849C5.94682 46.6849 5.28897 46.8844 4.72941 47.2581C4.16985 47.6318 3.73373 48.1629 3.4762 48.7843C3.21866 49.4057 3.15128 50.0895 3.28257 50.7492C3.41386 51.4089 3.73793 52.0149 4.21379 52.4905C4.68965 52.9661 5.29594 53.29 5.95598 53.4212C6.61602 53.5524 7.30017 53.4851 7.92192 53.2277C8.54366 52.9703 9.07508 52.5344 9.44896 51.9751C9.82284 51.4159 10.0224 50.7584 10.0224 50.0857C10.0224 49.6391 9.93439 49.1969 9.76339 48.7843C9.5924 48.3717 9.34176 47.9968 9.0258 47.681C8.70984 47.3652 8.33474 47.1147 7.92192 46.9438C7.50909 46.7729 7.06663 46.6849 6.6198 46.6849Z" fill="#19164C"/>
<path d="M105.683 96.3366C105.681 97.4419 105.283 98.5099 104.56 99.3466C103.838 100.183 102.839 100.733 101.745 100.896C100.651 101.059 99.5353 100.824 98.6 100.234C97.6646 99.6447 96.972 98.7392 96.648 97.6825C96.5128 97.2467 96.4445 96.7929 96.4453 96.3366C96.4453 95.1123 96.9319 93.9381 97.7981 93.0723C98.6644 92.2066 99.8392 91.7202 101.064 91.7202C102.289 91.7202 103.464 92.2066 104.33 93.0723C105.196 93.9381 105.683 95.1123 105.683 96.3366Z" fill="#82CBAD"/>
<path d="M102.613 93.2687C102.602 93.9837 102.424 94.6864 102.095 95.3211C101.765 95.9559 101.292 96.5054 100.714 96.9263C100.136 97.3473 99.4672 97.6282 98.7616 97.7469C98.056 97.8655 97.3324 97.8187 96.648 97.6101C96.5128 97.1743 96.4445 96.7206 96.4453 96.2643C96.4568 95.5492 96.6344 94.8466 96.964 94.2119C97.2936 93.5771 97.7663 93.0276 98.3447 92.6066C98.9232 92.1857 99.5916 91.9048 100.297 91.7861C101.003 91.6675 101.726 91.7143 102.411 91.9228C102.544 92.3591 102.612 92.8126 102.613 93.2687Z" fill="#FDFEFF"/>
<path d="M101.065 102.169C99.9196 102.169 98.7999 101.829 97.8474 101.193C96.895 100.557 96.1527 99.653 95.7143 98.5953C95.2759 97.5376 95.1613 96.3737 95.3847 95.2508C95.6082 94.1279 96.1598 93.0965 96.9698 92.2869C97.7798 91.4774 98.8117 90.9261 99.9352 90.7027C101.059 90.4794 102.223 90.594 103.281 91.0321C104.34 91.4702 105.244 92.2122 105.881 93.1641C106.517 94.116 106.857 95.2352 106.857 96.3801C106.857 97.9153 106.247 99.3877 105.16 100.473C104.074 101.559 102.601 102.169 101.065 102.169ZM101.065 92.9504C100.391 92.9475 99.7311 93.1449 99.1693 93.5175C98.6075 93.89 98.1692 94.421 97.9098 95.043C97.6505 95.665 97.5819 96.35 97.7127 97.011C97.8436 97.6721 98.1679 98.2794 98.6446 98.7558C99.1214 99.2323 99.729 99.5565 100.39 99.6873C101.052 99.818 101.737 99.7495 102.359 99.4903C102.982 99.2311 103.513 98.793 103.886 98.2315C104.259 97.67 104.456 97.0105 104.453 96.3367C104.449 95.4397 104.091 94.5806 103.457 93.9464C102.822 93.3122 101.963 92.9542 101.065 92.9504Z" fill="#19164C"/>
<path d="M39.9195 93.9777C39.7592 93.9797 39.6002 93.9496 39.4517 93.8892C39.3033 93.8288 39.1684 93.7393 39.0551 93.626C38.9418 93.5127 38.8523 93.378 38.7918 93.2296C38.7314 93.0812 38.7013 92.9223 38.7032 92.7621V81.4165C38.7029 81.2397 38.7417 81.065 38.8168 80.9049C38.8919 80.7448 39.0014 80.6032 39.1376 80.4903L47.6803 73.3269C47.8026 73.2225 47.9443 73.1434 48.0974 73.0942C48.2505 73.0449 48.4118 73.0265 48.572 73.04C48.7323 73.0534 48.8882 73.0985 49.0309 73.1726C49.1736 73.2467 49.3002 73.3483 49.4033 73.4716C49.5182 73.595 49.6059 73.7412 49.6606 73.9006C49.7153 74.0601 49.7358 74.2292 49.7208 74.3971C49.7057 74.565 49.6555 74.7279 49.5734 74.8751C49.4913 75.0223 49.379 75.1506 49.244 75.2516L41.1357 82.0532V92.7621C41.1357 93.0845 41.0076 93.3937 40.7795 93.6217C40.5514 93.8497 40.242 93.9777 39.9195 93.9777Z" fill="#1D1655"/>
<path d="M44.2623 96.3366C44.273 97.447 43.8816 98.5237 43.1604 99.3683C42.4392 100.213 41.4367 100.768 40.3379 100.932C39.2391 101.096 38.1181 100.858 37.1815 100.26C36.2449 99.6631 35.556 98.7475 35.2418 97.6825C35.1066 97.2467 35.0382 96.7929 35.0391 96.3366C35.0391 95.1123 35.5257 93.9381 36.3919 93.0723C37.2581 92.2066 38.4329 91.7202 39.6579 91.7202C40.1144 91.7194 40.5685 91.7877 41.0045 91.9228C41.9483 92.2137 42.774 92.7993 43.3603 93.5937C43.9467 94.3881 44.2628 95.3495 44.2623 96.3366Z" fill="#82CBAD"/>
<path d="M41.2552 93.2686C41.246 93.9831 41.0705 94.6856 40.7426 95.3205C40.4146 95.9554 39.9433 96.5053 39.3658 96.9265C38.7884 97.3478 38.1208 97.6289 37.4158 97.7475C36.7108 97.8661 35.9879 97.8191 35.3043 97.6101C35.1691 97.1743 35.1007 96.7205 35.1016 96.2642C35.1016 95.0399 35.5882 93.8657 36.4544 92.9999C37.3206 92.1342 38.4954 91.6478 39.7204 91.6478C40.1769 91.647 40.631 91.7153 41.067 91.8504C41.1947 92.3123 41.258 92.7895 41.2552 93.2686Z" fill="#FDFEFF"/>
<path d="M39.7214 102.169C38.5759 102.169 37.4561 101.829 36.5037 101.193C35.5512 100.557 34.8089 99.653 34.3706 98.5953C33.9322 97.5376 33.8175 96.3737 34.041 95.2508C34.2644 94.1279 34.816 93.0965 35.626 92.2869C36.436 91.4774 37.468 90.9261 38.5915 90.7027C39.7149 90.4794 40.8794 90.594 41.9377 91.0321C42.996 91.4702 43.9006 92.2122 44.537 93.1641C45.1734 94.116 45.513 95.2352 45.513 96.3801C45.513 97.9153 44.9028 99.3877 43.8167 100.473C42.7305 101.559 41.2574 102.169 39.7214 102.169ZM39.7214 92.9504C39.0472 92.9475 38.3873 93.1449 37.8255 93.5175C37.2638 93.89 36.8254 94.421 36.5661 95.043C36.3068 95.665 36.2382 96.35 36.369 97.011C36.4998 97.6721 36.8242 98.2794 37.3009 98.7558C37.7776 99.2323 38.3853 99.5565 39.0466 99.6873C39.708 99.818 40.3934 99.7495 41.0157 99.4903C41.638 99.2311 42.1693 98.793 42.5421 98.2315C42.9149 97.67 43.1123 97.0105 43.1095 96.3367C43.1057 95.4397 42.7475 94.5806 42.1129 93.9464C41.4783 93.3122 40.6188 92.9542 39.7214 92.9504Z" fill="#19164C"/>
<path d="M105.5 5.78859C105.521 6.76538 105.232 7.72371 104.675 8.52649C104.118 9.32928 103.321 9.93538 102.398 10.2581C101.475 10.5808 100.474 10.6036 99.5379 10.3232C98.6015 10.0428 97.7779 9.47358 97.1848 8.69698C96.5916 7.92037 96.2594 6.97617 96.2357 5.99946C96.212 5.02274 96.498 4.06355 97.0528 3.25911C97.6075 2.45468 98.4026 1.84621 99.3243 1.52075C100.246 1.1953 101.247 1.16953 102.184 1.44715C103.127 1.7241 103.957 2.29442 104.553 3.0752C105.15 3.85598 105.481 4.80651 105.5 5.78859Z" fill="#82CBAD"/>
<path d="M102.428 2.76405C102.428 3.9834 101.945 5.15323 101.086 6.01815C100.226 6.88306 99.0582 7.3728 97.8382 7.38045C97.375 7.40193 96.9113 7.35314 96.4627 7.23573C96.2094 6.43068 96.1818 5.57163 96.3828 4.75197C96.5838 3.93231 97.0058 3.18341 97.6028 2.58667C98.1999 1.98993 98.9492 1.56818 99.7693 1.36728C100.589 1.16637 101.449 1.194 102.254 1.44715C102.376 1.87537 102.434 2.31898 102.428 2.76405Z" fill="#FDFEFF"/>
<path d="M100.878 11.664C99.7321 11.664 98.6124 11.3245 97.6599 10.6885C96.7075 10.0524 95.9652 9.14835 95.5268 8.09062C95.0884 7.03289 94.9738 5.869 95.1972 4.74612C95.4207 3.62325 95.9723 2.59182 96.7823 1.78227C97.5923 0.972719 98.6242 0.421409 99.7477 0.198055C100.871 -0.025299 102.036 0.0893344 103.094 0.527459C104.152 0.965584 105.057 1.70752 105.693 2.65945C106.33 3.61138 106.669 4.73055 106.669 5.87542C106.669 7.41065 106.059 8.883 104.973 9.96858C103.887 11.0541 102.414 11.664 100.878 11.664ZM100.878 2.43121C100.203 2.43126 99.5432 2.63186 98.9828 3.0075C98.4223 3.38314 97.9863 3.91686 97.7301 4.5408C97.4739 5.16475 97.4091 5.85075 97.5439 6.5116C97.6788 7.17245 98.0072 7.7783 98.4874 8.25213C98.9676 8.72597 99.5779 9.04639 100.241 9.17267C100.904 9.29894 101.589 9.22537 102.21 8.9613C102.831 8.69724 103.359 8.2546 103.728 7.68966C104.097 7.12472 104.289 6.46299 104.28 5.78859C104.269 4.89419 103.905 4.0403 103.268 3.41188C102.632 2.78347 101.773 2.43114 100.878 2.43121Z" fill="#19164C"/>
<path d="M45.3081 5.78859C45.3317 6.90293 44.9512 7.98819 44.2368 8.84401C43.5223 9.69983 42.5222 10.2684 41.4211 10.4448C40.32 10.6211 39.1922 10.3934 38.246 9.80356C37.2998 9.21373 36.599 8.30166 36.2731 7.23574C36.1367 6.76552 36.0684 6.27818 36.0704 5.78859C36.0818 4.57179 36.5735 3.40871 37.4384 2.55233C38.3034 1.69596 39.4717 1.21555 40.6892 1.21561C41.1457 1.21475 41.5997 1.28306 42.0358 1.41821C42.9752 1.70433 43.799 2.28231 44.3874 3.06822C44.9759 3.85412 45.2984 4.80704 45.3081 5.78859Z" fill="#82CBAD"/>
<path d="M42.2385 2.76405C42.2385 3.37029 42.119 3.97059 41.8869 4.53067C41.6548 5.09076 41.3145 5.59967 40.8856 6.02834C40.0194 6.89408 38.8446 7.38045 37.6196 7.38045C37.1661 7.39798 36.7125 7.34922 36.2731 7.23574C36.1367 6.76551 36.0684 6.27818 36.0704 5.78859C36.0818 4.57178 36.5735 3.40871 37.4384 2.55233C38.3034 1.69596 39.4717 1.21555 40.6892 1.21561C41.1457 1.21475 41.5997 1.28306 42.0358 1.41821C42.1699 1.85425 42.2382 2.30786 42.2385 2.76405Z" fill="#FDFEFF"/>
<path d="M40.6901 11.664C39.5446 11.664 38.4249 11.3245 37.4724 10.6885C36.52 10.0524 35.7777 9.14835 35.3393 8.09062C34.9009 7.03289 34.7863 5.869 35.0097 4.74612C35.2332 3.62325 35.7848 2.59182 36.5948 1.78227C37.4048 0.972719 38.4367 0.421409 39.5602 0.198055C40.6837 -0.025299 41.8482 0.0893344 42.9065 0.527459C43.9648 0.965584 44.8693 1.70752 45.5057 2.65945C46.1421 3.61138 46.4818 4.73055 46.4818 5.87542C46.4818 7.41065 45.8716 8.883 44.7854 9.96858C43.6993 11.0541 42.2262 11.664 40.6901 11.664ZM40.6901 2.43121C40.0153 2.43126 39.3557 2.63186 38.7953 3.0075C38.2348 3.38314 37.7988 3.91686 37.5426 4.5408C37.2864 5.16475 37.2216 5.85075 37.3564 6.5116C37.4913 7.17245 37.8197 7.7783 38.2999 8.25213C38.7801 8.72597 39.3904 9.04639 40.0533 9.17267C40.7162 9.29894 41.4017 9.22537 42.0226 8.9613C42.6435 8.69724 43.1719 8.2546 43.5405 7.68966C43.9091 7.12472 44.1013 6.46299 44.0927 5.78859C44.0813 4.89419 43.7178 4.0403 43.0809 3.41188C42.444 2.78347 41.5851 2.43114 40.6901 2.43121Z" fill="#19164C"/>
<path d="M88.197 61.7788C83.1872 71.026 70.2284 73.3559 70.2284 73.3559C70.2284 73.3559 69.9098 72.8639 69.432 71.9956C67.6511 68.7685 63.8286 60.4184 66.9561 53.0814C70.0836 45.7443 79.9873 41.5042 84.0849 40.0571C84.5899 39.8733 85.1455 39.8858 85.6416 40.0922C86.1378 40.2986 86.5382 40.6838 86.7636 41.1714C87.169 42.0686 87.6758 43.2842 88.2115 44.7024C89.7897 49.3333 91.1942 56.2506 88.197 61.7788Z" fill="white"/>
<path d="M88.1957 61.7788C83.1859 71.0261 70.2271 73.356 70.2271 73.356C70.2271 73.356 69.9085 72.864 69.4307 71.9957C68.8921 70.5844 68.4661 69.1327 68.1566 67.6542C67.3519 64.2205 67.6043 60.6239 68.8805 57.336C72.0225 50.0135 81.9118 45.7589 86.0094 44.3117C86.2263 44.2269 86.457 44.1827 86.6899 44.1815C87.2207 44.1686 87.7371 44.3544 88.1378 44.7024C89.7885 49.3333 91.1929 56.2507 88.1957 61.7788Z" fill="#82CBAD"/>
<path d="M85.4136 56.2217C81.0699 64.1665 70.9345 67.0029 68.1545 67.6397C67.3528 64.2106 67.6051 60.6195 68.8784 57.336C72.0204 50.0134 81.9097 45.7588 86.0073 44.3116C86.2242 44.2268 86.4549 44.1827 86.6878 44.1814C87.6382 48.2233 87.189 52.4679 85.4136 56.2217Z" fill="#82CBAD"/>
<path d="M70.229 74.5715C70.0277 74.5708 69.8297 74.5202 69.6528 74.4243C69.4759 74.3283 69.3256 74.1899 69.2154 74.0216C68.9113 73.5585 61.6428 62.4444 65.8418 52.6038C69.172 44.8471 79.4232 40.4188 83.6801 38.8704C84.4704 38.5867 85.3382 38.6092 86.1128 38.9333C86.8873 39.2574 87.5123 39.8597 87.8646 40.6214C89.6745 44.5866 93.4535 54.6443 89.3125 62.3287C84.0855 71.9811 71.0398 74.4268 70.4896 74.5281L70.229 74.5715ZM84.8095 41.099C84.7092 41.0783 84.6057 41.0783 84.5054 41.099C80.5526 42.5461 71.0398 46.6126 68.086 53.5011C64.9585 60.8092 69.3747 69.4197 70.8226 71.9232C73.646 71.2431 83.1589 68.4646 87.1406 61.142C90.7894 54.3983 87.3144 45.2234 85.6927 41.5766C85.6084 41.4193 85.4798 41.2903 85.3228 41.2054C85.1658 41.1205 84.9873 41.0835 84.8095 41.099Z" fill="#19164C"/>
<path d="M70.2238 73.356C69.176 73.203 68.1369 72.9953 67.1108 72.7337C62.767 71.6628 55.0931 68.9711 51.7629 62.7339C48.0707 55.8455 50.7348 45.7299 52.1683 41.4464C52.3556 40.8618 52.761 40.3719 53.3002 40.0782C53.8394 39.7844 54.4711 39.7095 55.0641 39.869C56.7166 40.3063 58.3412 40.8428 59.9291 41.4753C64.3597 43.2553 69.6591 46.3811 71.8455 51.6053C75.8852 61.2868 70.2238 73.356 70.2238 73.356Z" fill="white"/>
<path d="M70.2264 73.3559C69.1786 73.203 68.1395 72.9952 67.1134 72.7336C66.3749 72.4153 65.6655 72.0824 64.8546 71.6917C61.4989 70.1147 58.7016 67.5561 56.8332 64.3547C53.141 57.4807 55.8052 47.3651 57.2386 43.0816C57.3872 42.6236 57.6759 42.2237 58.0639 41.9383C58.318 41.7317 58.6143 41.5831 58.932 41.5031C59.2497 41.4231 59.581 41.4136 59.9028 41.4752C64.3334 43.2552 69.6327 46.3811 71.8191 51.6053C75.8877 61.2867 70.2264 73.3559 70.2264 73.3559Z" fill="#82CBAD"/>
<path d="M64.8234 71.6917C61.4676 70.1147 58.6703 67.5561 56.8019 64.3547C53.1097 57.4807 55.7739 47.3652 57.2073 43.0816C57.356 42.6236 57.6446 42.2237 58.0327 41.9383C61.6195 43.7306 64.504 46.6697 66.2279 50.2884C69.9056 59.0002 65.7066 69.6368 64.8234 71.6917Z" fill="#82CBAD"/>
<path d="M70.2257 74.5715H70.0809C69.5017 74.4992 55.6886 72.7047 50.6643 63.3127C46.726 55.9757 49.5784 45.3102 50.9829 41.07C51.2728 40.1997 51.8827 39.472 52.6891 39.0341C53.4955 38.5962 54.4383 38.4808 55.3266 38.7112C59.4966 39.7966 69.5596 43.1539 72.9333 51.1277C77.1902 61.2578 71.5867 73.3704 71.3406 73.8914C71.2387 74.099 71.0797 74.2732 70.8822 74.3937C70.6848 74.5142 70.457 74.5759 70.2257 74.5715ZM54.3999 41.0122C54.1528 41.0145 53.9126 41.0938 53.7128 41.2391C53.5129 41.3843 53.3634 41.5883 53.285 41.8226C51.9819 45.7733 49.3178 55.6428 52.8072 62.155C56.5573 69.1592 66.4466 71.4457 69.4872 72.0101C70.6166 69.1158 73.831 59.7093 70.6745 52.0539C67.7787 45.0786 58.512 42.0396 54.7474 41.0556C54.6347 41.0227 54.5174 41.008 54.3999 41.0122Z" fill="#19164C"/>
<path d="M80.6351 105.425V114.976C80.6351 115.406 80.4643 115.818 80.1601 116.122C79.856 116.426 79.4435 116.597 79.0134 116.597H65.9822C65.5546 116.593 65.1458 116.42 64.8448 116.117C64.5438 115.813 64.375 115.403 64.375 114.976V105.425H80.6351Z" fill="#82CBAD"/>
<path d="M79.0154 117.812H61.1771C60.4091 117.812 59.6725 117.507 59.1294 116.965C58.5863 116.422 58.2812 115.686 58.2812 114.918V105.367C58.285 105.046 58.4144 104.739 58.6416 104.511C58.8689 104.284 59.1761 104.155 59.4975 104.151H80.6371C80.9585 104.155 81.2657 104.284 81.493 104.511C81.7202 104.739 81.8496 105.046 81.8533 105.367V114.918C81.8535 115.676 81.5564 116.403 81.0258 116.944C80.4951 117.486 79.7734 117.797 79.0154 117.812ZM60.7717 106.64V114.976C60.7753 115.082 60.8191 115.183 60.8944 115.258C60.9697 115.334 61.0707 115.378 61.1771 115.381H79.0154C79.1218 115.378 79.2228 115.334 79.2981 115.258C79.3734 115.183 79.4172 115.082 79.4208 114.976V106.64H60.7717Z" fill="#19164C"/>
<path d="M75.166 116.597V122.255C75.1622 122.84 74.9271 123.399 74.512 123.811C74.097 124.223 73.5357 124.455 72.9507 124.455H67.4341C67.142 124.455 66.8527 124.397 66.583 124.285C66.3133 124.173 66.0684 124.008 65.8625 123.801C65.6566 123.594 65.4937 123.348 65.3832 123.078C65.2728 122.808 65.2169 122.518 65.2188 122.226V116.597H75.166Z" fill="#82CBAD"/>
<path d="M72.9481 125.699H67.4316C66.5215 125.699 65.6486 125.338 65.0051 124.695C64.3615 124.051 64 123.179 64 122.269V116.597C64 116.437 64.0315 116.279 64.0926 116.131C64.1537 115.984 64.2433 115.85 64.3562 115.737C64.4692 115.624 64.6032 115.535 64.7508 115.474C64.8984 115.413 65.0565 115.381 65.2162 115.381H75.2069C75.3671 115.379 75.5262 115.409 75.6746 115.47C75.823 115.53 75.9579 115.62 76.0712 115.733C76.1845 115.846 76.2741 115.981 76.3345 116.129C76.3949 116.278 76.4251 116.436 76.4231 116.597V122.269C76.4232 122.724 76.333 123.173 76.1578 123.592C75.9827 124.011 75.726 124.391 75.4027 124.71C75.0795 125.029 74.696 125.281 74.2747 125.451C73.8533 125.621 73.4024 125.705 72.9481 125.699ZM66.3891 117.812V122.269C66.3891 122.534 66.4943 122.788 66.6817 122.976C66.869 123.163 67.1232 123.268 67.3881 123.268H72.9481C73.2131 123.268 73.4672 123.163 73.6546 122.976C73.8419 122.788 73.9472 122.534 73.9472 122.269V117.812H66.3891Z" fill="#19164C"/>
</g>
<defs>
<clipPath id="clip0_92_1601">
<rect width="139" height="125.699" fill="white" transform="translate(0.828125)"/>
</clipPath>
</defs>
</svg>
