<svg width="39" height="17" viewBox="0 0 39 17" fill="none" xmlns="http://www.w3.org/2000/svg">
<g clip-path="url(#clip0_176_1022)">
<path d="M34.2248 9.33908H15.0396C14.824 9.34725 14.6081 9.34389 14.3929 9.32903C14.0997 9.31859 13.822 9.19484 13.6183 8.98385C13.4146 8.77287 13.3008 8.4911 13.3008 8.1979C13.3008 7.90469 13.4146 7.62293 13.6183 7.41194C13.822 7.20095 14.0997 7.07721 14.3929 7.06676C14.6081 7.05192 14.824 7.04856 15.0396 7.05671H34.1874C33.9949 6.82689 33.8813 6.66889 33.7477 6.53388C32.4054 5.17125 31.0598 3.81006 29.7108 2.45031C29.0957 1.82549 29.0267 1.18344 29.5053 0.683588C30.0155 0.153571 30.6679 0.208153 31.3204 0.863132C33.4167 2.965 35.5091 5.07166 37.5977 7.18311C38.3292 7.9214 38.3278 8.47583 37.5977 9.20981C35.5081 11.3165 33.4152 13.4231 31.3189 15.5298C30.6665 16.1848 30.0183 16.248 29.5053 15.7151C29.0239 15.2195 29.09 14.566 29.7051 13.9484C31.0157 12.6183 32.335 11.2968 33.6485 9.96965C33.8123 9.80447 33.9618 9.62636 34.2248 9.33908Z" fill="#19164C"/>
</g>
<ellipse cx="3.67448" cy="8.43126" rx="3.04167" ry="3.04005" fill="#19164C"/>
<defs>
<clipPath id="clip0_176_1022">
<rect width="28.3889" height="15.741" fill="white" transform="translate(9.75781 0.324459)"/>
</clipPath>
</defs>
</svg>
