<svg width="80" height="96" viewBox="0 0 80 96" fill="none" xmlns="http://www.w3.org/2000/svg">
<path d="M69.5345 4.19921L71.257 3.38715H74.9078H76.7061L77.822 4.19921V72.5104L77.4861 76.3759L76.132 85.5143L74.4745 93.0612H73.6728L71.9936 88.5461L70.1628 80.9126L69.3828 75.5205V69.8685L69.5345 4.19921Z" fill="#82CBAD"/>
<path d="M53.9785 15.9363H4.53516V82.212H53.9785V15.9363Z" fill="#82CBAD"/>
<path d="M15.259 38.122C13.9022 38.1242 12.5753 37.724 11.4462 36.9722C10.3171 36.2204 9.43643 35.1507 8.91574 33.8985C8.39505 32.6463 8.2577 31.2679 8.52107 29.9377C8.78445 28.6075 9.43671 27.3852 10.3953 26.4256C11.3539 25.466 12.5758 24.8121 13.9063 24.5468C15.2368 24.2815 16.6162 24.4166 17.8699 24.935C19.1235 25.4534 20.1952 26.3319 20.9492 27.4592C21.7032 28.5866 22.1056 29.9121 22.1056 31.2682C22.1028 33.0832 21.3809 34.8232 20.0978 36.1076C18.8147 37.392 17.0749 38.1163 15.259 38.122V38.122ZM15.259 26.6231C14.3398 26.6231 13.4412 26.8956 12.6769 27.406C11.9127 27.9164 11.317 28.6418 10.9652 29.4906C10.6135 30.3394 10.5214 31.2733 10.7008 32.1744C10.8801 33.0754 11.3227 33.9031 11.9727 34.5527C12.6226 35.2023 13.4508 35.6447 14.3523 35.8239C15.2538 36.0032 16.1883 35.9112 17.0375 35.5596C17.8867 35.208 18.6125 34.6127 19.1232 33.8488C19.6339 33.0849 19.9065 32.1869 19.9065 31.2682C19.9036 30.0371 19.413 28.8573 18.5421 27.9868C17.6711 27.1163 16.4907 26.626 15.259 26.6231V26.6231Z" fill="#19164C"/>
<path d="M32.8548 74.7084C32.6318 74.7193 32.4108 74.661 32.2222 74.5415C32.0335 74.422 31.8865 74.2472 31.8011 74.0409C31.7157 73.8347 31.6961 73.6071 31.7452 73.3893C31.7942 73.1716 31.9093 72.9742 32.0748 72.8244L44.739 60.167C44.9459 59.9602 45.2265 59.8441 45.519 59.8441C45.8116 59.8441 46.0921 59.9602 46.299 60.167C46.5059 60.3737 46.6221 60.6542 46.6221 60.9466C46.6221 61.239 46.5059 61.5194 46.299 61.7261L33.6782 74.3836C33.5716 74.4926 33.4431 74.5779 33.3012 74.6339C33.1593 74.6899 33.0072 74.7153 32.8548 74.7084V74.7084Z" fill="#19164C"/>
<path d="M45.5188 74.7085C45.3737 74.7093 45.2298 74.681 45.0958 74.6252C44.9618 74.5694 44.8404 74.4872 44.7388 74.3836L32.0747 61.7262C31.8678 61.5137 31.7539 61.2277 31.7579 60.9313C31.762 60.6348 31.8837 60.3521 32.0963 60.1454C32.3089 59.9386 32.595 59.8247 32.8916 59.8288C33.1883 59.8328 33.4711 59.9545 33.678 60.167L46.353 72.8244C46.4578 72.9254 46.5412 73.0465 46.5982 73.1805C46.6552 73.3144 46.6845 73.4585 46.6845 73.604C46.6845 73.7496 46.6552 73.8936 46.5982 74.0276C46.5412 74.1615 46.4578 74.2826 46.353 74.3836C46.2451 74.494 46.1149 74.5802 45.9711 74.6362C45.8272 74.6922 45.673 74.7168 45.5188 74.7085V74.7085Z" fill="#19164C"/>
<path d="M15.2598 75.2606H15.1948C15.0495 75.2525 14.9073 75.2152 14.7767 75.151C14.6461 75.0867 14.5299 74.9969 14.4348 74.8867C14.3398 74.7765 14.2679 74.6484 14.2235 74.5098C14.1791 74.3713 14.1631 74.2253 14.1764 74.0804C14.6423 65.57 16.5273 58.1422 19.8098 52.003C22.3365 47.1828 25.9216 42.9963 30.2964 39.757C34.6154 36.5056 39.6673 34.364 45.0081 33.5203C45.1504 33.5047 45.2943 33.5172 45.4317 33.5572C45.5692 33.5971 45.6974 33.6638 45.809 33.7532C45.9207 33.8427 46.0136 33.9533 46.0825 34.0787C46.1514 34.2041 46.1949 34.3418 46.2106 34.484C46.2262 34.6262 46.2137 34.77 46.1737 34.9074C46.1337 35.0447 46.0671 35.1729 45.9776 35.2845C45.888 35.3961 45.7774 35.489 45.6519 35.5578C45.5265 35.6267 45.3887 35.6702 45.2464 35.6858C40.2569 36.5184 35.5436 38.5469 31.5098 41.5977C22.2689 48.4407 17.1773 59.4091 16.3431 74.1995C16.3374 74.4829 16.2208 74.7528 16.0182 74.9512C15.8157 75.1496 15.5434 75.2607 15.2598 75.2606V75.2606Z" fill="#19164C"/>
<path d="M36.5568 44.716C36.3393 44.7133 36.1277 44.6452 35.9494 44.5206C35.7712 44.396 35.6346 44.2206 35.5575 44.0174C35.4803 43.8141 35.4662 43.5923 35.5169 43.3809C35.5676 43.1695 35.6809 42.9783 35.8418 42.832L44.021 34.8738L32.711 32.9356C32.4237 32.8854 32.1681 32.7231 32.0005 32.4845C31.8329 32.2459 31.767 31.9506 31.8172 31.6634C31.8675 31.3762 32.0299 31.1208 32.2686 30.9533C32.5073 30.7857 32.8028 30.7199 33.0902 30.7701L46.4693 33.0764C46.6685 33.1104 46.8542 33.1994 47.0055 33.3333C47.1567 33.4672 47.2674 33.6408 47.3252 33.8343C47.3813 34.0233 47.3847 34.2241 47.3351 34.4149C47.2855 34.6057 47.1846 34.7793 47.0435 34.9171L37.2935 44.3804C37.1006 44.5832 36.8366 44.7035 36.5568 44.716Z" fill="#19164C"/>
<path d="M78.0942 12.504H65.8958C65.6085 12.504 65.333 12.3899 65.1298 12.1868C64.9266 11.9838 64.8125 11.7084 64.8125 11.4212V4.97881C64.8125 2.48847 66.4808 0.452881 68.5283 0.452881H75.4833C77.5092 0.452881 79.1775 2.48847 79.1775 4.97881V11.3996C79.1804 11.5436 79.1545 11.6867 79.1013 11.8206C79.0482 11.9544 78.9688 12.0764 78.868 12.1792C78.7671 12.2821 78.6467 12.3638 78.5138 12.4195C78.3809 12.4753 78.2383 12.504 78.0942 12.504V12.504ZM67.0117 10.3385H77.0108V4.97881C77.0108 3.70115 76.2742 2.6184 75.4617 2.6184H68.5067C67.705 2.6184 66.99 3.70116 66.99 4.94633L67.0117 10.3385Z" fill="#19164C"/>
<path d="M71.9824 95.1184C71.5745 95.1035 71.1823 94.9574 70.8642 94.7018C70.546 94.4463 70.3189 94.0949 70.2166 93.7L64.8866 75.867C64.8217 75.6528 64.7889 75.4303 64.7891 75.2065V20.1916C64.7891 19.9044 64.9032 19.629 65.1064 19.426C65.3095 19.2229 65.5851 19.1088 65.8724 19.1088H71.4841V21.2743H66.9882V75.239L71.9824 91.9135L77.0091 75.239V21.296H71.5924V19.1305H78.0924C78.3797 19.1305 78.6553 19.2446 78.8584 19.4476C79.0616 19.6507 79.1757 19.9261 79.1757 20.2132V75.1632C79.1776 75.3871 79.1447 75.6099 79.0782 75.8237L73.7591 93.7C73.6562 94.0966 73.4274 94.4492 73.1071 94.705C72.7868 94.9607 72.3922 95.1058 71.9824 95.1184Z" fill="#19164C"/>
<path d="M72.5906 77.2529H71.3665C71.2037 77.2522 71.0433 77.2148 70.897 77.1435C70.7507 77.0723 70.6223 76.9691 70.5215 76.8415C70.0189 76.0829 69.2427 75.5476 68.3548 75.3472C68.0333 75.3416 67.714 75.4011 67.4161 75.522C67.1183 75.643 66.8479 75.8229 66.6215 76.051L65.9065 75.2173L65.1265 75.9861C65.0188 75.8807 64.9342 75.7541 64.8783 75.6143C64.8223 75.4745 64.7961 75.3245 64.8015 75.174C64.8045 75.0213 64.8399 74.8709 64.9053 74.7328C64.9706 74.5947 65.0644 74.472 65.1806 74.3728C65.6309 73.9534 66.1617 73.6297 66.7408 73.4212C67.3199 73.2128 67.9353 73.1239 68.5498 73.1601C69.863 73.3434 71.0566 74.0212 71.8865 75.0549H72.1031C72.9292 74.0315 74.1148 73.3616 75.4181 73.1817C76.0356 73.1495 76.6533 73.2422 77.2341 73.4543C77.8149 73.6664 78.3469 73.9935 78.7981 74.4161C78.9886 74.5738 79.1194 74.7919 79.1686 75.0342C79.2179 75.2765 79.1827 75.5283 79.069 75.7479L78.094 75.2606L77.379 76.0943C77.1513 75.8611 76.8779 75.6773 76.5759 75.5543C76.274 75.4313 75.9499 75.3719 75.624 75.3797C75.1833 75.4698 74.765 75.6464 74.3931 75.8991C74.0212 76.1519 73.7031 76.4759 73.4573 76.8523C73.3531 76.9808 73.2207 77.0837 73.0705 77.1532C72.9203 77.2226 72.7561 77.2567 72.5906 77.2529Z" fill="#19164C"/>
<path d="M69.7741 87.2142L68.5391 85.3952C69.2882 84.8416 70.1594 84.476 71.0794 84.329C71.9994 84.182 72.9413 84.258 73.8257 84.5507C74.397 84.7589 74.9394 85.0391 75.4399 85.3844L74.1941 87.1926C73.8598 86.9573 73.4954 86.768 73.1107 86.6295C72.5494 86.4446 71.9511 86.4013 71.369 86.5033C70.7868 86.6053 70.2389 86.8495 69.7741 87.2142Z" fill="#19164C"/>
<path d="M73.0781 20.1915H70.8789V76.1485H73.0781V20.1915Z" fill="#19164C"/>
<path d="M78.0942 21.296H65.8958C65.6085 21.296 65.333 21.1819 65.1298 20.9789C64.9266 20.7758 64.8125 20.5004 64.8125 20.2132V15.7956C64.8125 15.5084 64.9266 15.233 65.1298 15.03C65.333 14.8269 65.6085 14.7128 65.8958 14.7128H78.0942C78.3815 14.7128 78.657 14.8269 78.8602 15.03C79.0634 15.233 79.1775 15.5084 79.1775 15.7956V20.1916C79.1804 20.3356 79.1545 20.4787 79.1013 20.6126C79.0482 20.7465 78.9688 20.8684 78.868 20.9712C78.7671 21.0741 78.6467 21.1558 78.5138 21.2116C78.3809 21.2673 78.2383 21.296 78.0942 21.296ZM67.0117 19.1305H77.0108V16.965H66.99L67.0117 19.1305Z" fill="#19164C"/>
<path d="M78.0942 16.8999H65.8958C65.6085 16.8999 65.333 16.7859 65.1298 16.5828C64.9266 16.3798 64.8125 16.1043 64.8125 15.8172V11.3995C64.8125 11.1124 64.9266 10.837 65.1298 10.6339C65.333 10.4308 65.6085 10.3168 65.8958 10.3168H78.0942C78.3815 10.3168 78.657 10.4308 78.8602 10.6339C79.0634 10.837 79.1775 11.1124 79.1775 11.3995V15.7955C79.1804 15.9395 79.1545 16.0827 79.1013 16.2165C79.0482 16.3504 78.9688 16.4723 78.868 16.5752C78.7671 16.678 78.6467 16.7597 78.5138 16.8155C78.3809 16.8713 78.2383 16.9 78.0942 16.8999V16.8999ZM67.0117 14.7344H77.0108V12.5689H66.99L67.0117 14.7344Z" fill="#19164C"/>
<path d="M54.1304 84.4099H1.17708C0.889765 84.4099 0.614215 84.2958 0.411051 84.0928C0.207887 83.8897 0.09375 83.6143 0.09375 83.3271V12.2657C0.09375 11.9786 0.207887 11.7032 0.411051 11.5001C0.614215 11.2971 0.889765 11.183 1.17708 11.183H54.1304C54.4177 11.183 54.6933 11.2971 54.8964 11.5001C55.0996 11.7032 55.2137 11.9786 55.2137 12.2657V83.3055C55.2166 83.4495 55.1907 83.5926 55.1376 83.7265C55.0844 83.8604 55.0051 83.9823 54.9042 84.0852C54.8033 84.188 54.6829 84.2697 54.55 84.3255C54.4172 84.3812 54.2745 84.4099 54.1304 84.4099ZM2.26042 82.2119H53.0362V13.3593H2.26042V82.2119Z" fill="#19164C"/>
<path d="M12.3687 19.6177C8.99953 19.6177 6.26953 16.3694 6.26953 12.2658C6.26953 8.16212 8.99953 4.90302 12.3687 4.90302C15.7379 4.90302 18.5112 8.20543 18.5112 12.2658C18.5112 12.5271 18.4073 12.7777 18.2225 12.9625C18.0376 13.1473 17.7868 13.2511 17.5254 13.2511C17.2639 13.2511 17.0132 13.1473 16.8283 12.9625C16.6434 12.7777 16.5395 12.5271 16.5395 12.2658C16.5395 9.29901 14.687 6.85198 12.412 6.85198C10.137 6.85198 8.28453 9.26653 8.28453 12.2658C8.28453 15.265 10.137 17.6796 12.412 17.6796C12.6735 17.6796 12.9242 17.7834 13.1091 17.9681C13.294 18.1529 13.3979 18.4035 13.3979 18.6649C13.3979 18.9262 13.294 19.1768 13.1091 19.3616C12.9242 19.5464 12.6735 19.6502 12.412 19.6502L12.3687 19.6177Z" fill="#19164C"/>
<path d="M27.6656 19.6177C24.2964 19.6177 21.5664 16.3694 21.5664 12.2658C21.5664 8.16212 24.2964 4.90302 27.6656 4.90302C31.0347 4.90302 33.7647 8.20543 33.7647 12.2658C33.7647 12.5271 33.6609 12.7777 33.476 12.9625C33.2911 13.1473 33.0404 13.2511 32.7789 13.2511C32.5174 13.2511 32.2667 13.1473 32.0818 12.9625C31.8969 12.7777 31.7931 12.5271 31.7931 12.2658C31.7931 9.29901 29.9406 6.85198 27.6656 6.85198C25.3906 6.85198 23.5381 9.26653 23.5381 12.2658C23.5381 15.265 25.3906 17.6796 27.6656 17.6796C27.927 17.6796 28.1778 17.7834 28.3627 17.9681C28.5475 18.1529 28.6514 18.4035 28.6514 18.6649C28.6514 18.9262 28.5475 19.1768 28.3627 19.3616C28.1778 19.5464 27.927 19.6502 27.6656 19.6502V19.6177Z" fill="#19164C"/>
<path d="M42.9624 19.6177C39.5933 19.6177 36.8633 16.3694 36.8633 12.2658C36.8633 8.16212 39.5933 4.90302 42.9624 4.90302C46.3316 4.90302 49.0616 8.20543 49.0616 12.2658C49.0616 12.5271 48.9578 12.7777 48.7729 12.9625C48.588 13.1473 48.3372 13.2511 48.0758 13.2511C47.8143 13.2511 47.5636 13.1473 47.3787 12.9625C47.1938 12.7777 47.0899 12.5271 47.0899 12.2658C47.0899 9.29901 45.2374 6.85198 42.9624 6.85198C40.6874 6.85198 38.8349 9.26653 38.8349 12.2658C38.8349 15.265 40.6874 17.6796 42.9624 17.6796C43.2239 17.6796 43.4747 17.7834 43.6595 17.9681C43.8444 18.1529 43.9483 18.4035 43.9483 18.6649C43.9483 18.9262 43.8444 19.1768 43.6595 19.3616C43.4747 19.5464 43.2239 19.6502 42.9624 19.6502V19.6177Z" fill="#19164C"/>
<path d="M70.5117 86.8245C70.9806 86.5761 71.5032 86.4462 72.0338 86.4462C72.5645 86.4462 73.087 86.5761 73.5559 86.8245L72.0392 91.9134L70.5117 86.8245Z" fill="white"/>
<path d="M69.2658 2.6184H74.6825C74.99 2.61252 75.2955 2.66871 75.5807 2.78362C75.866 2.89852 76.1251 3.06978 76.3426 3.28713C76.56 3.50448 76.7314 3.76346 76.8464 4.04856C76.9613 4.33365 77.0175 4.639 77.0117 4.94633V10.306H66.9692V4.94633C66.9634 4.64177 67.0186 4.33913 67.1316 4.05621C67.2445 3.7733 67.413 3.51581 67.6269 3.29891C67.8409 3.08201 68.0962 2.91007 68.3776 2.7932C68.6591 2.67633 68.9611 2.6169 69.2658 2.6184V2.6184Z" fill="white"/>
<path d="M15.2061 35.9132C17.7728 35.9132 19.8536 33.8335 19.8536 31.2681C19.8536 28.7028 17.7728 26.6231 15.2061 26.6231C12.6394 26.6231 10.5586 28.7028 10.5586 31.2681C10.5586 33.8335 12.6394 35.9132 15.2061 35.9132Z" fill="white"/>
</svg>
