<svg width="145" height="41" viewBox="0 0 145 41" fill="none" xmlns="http://www.w3.org/2000/svg">
<path d="M78.3202 37.4074L76.4952 37.002C76.3938 37.002 76.1911 36.9007 76.0897 36.9007C75.7855 36.7993 75.6841 36.4953 75.7855 36.1913C75.8869 35.8873 76.1911 35.786 76.4952 35.8873C77.0022 35.9887 77.4077 36.09 77.9147 36.1913C80.5508 36.5967 82.9841 34.874 83.3897 32.2393C83.3897 32.2393 83.3897 32.2393 83.3897 32.1379V32.0366C83.491 31.1246 83.4911 30.1112 83.4911 29.1992V28.0845C83.3897 28.0845 83.3897 28.1859 83.3897 28.1859C82.2744 30.4152 79.841 31.7326 77.3063 31.5299C74.9744 31.4286 72.8452 29.9086 72.0341 27.6792C70.7161 24.9431 71.3244 21.5991 73.3522 19.3697C75.3799 17.343 78.4216 17.039 80.8549 18.559C81.9702 19.167 82.7813 19.9777 83.3897 21.0924C83.491 21.1938 83.4911 21.1938 83.5924 21.2951V19.1671C83.5924 18.863 83.6938 18.559 83.7952 18.255C83.8966 18.0524 83.998 17.951 84.2008 17.8497C84.4036 17.7484 84.6063 17.8497 84.6063 18.1537V31.3273C84.6063 33.1513 83.8966 34.874 82.68 36.09C81.7675 36.9007 80.6522 37.4074 79.4355 37.5087L79.1313 37.61L78.3202 37.4074ZM77.8133 30.4152C78.2188 30.4152 78.523 30.3139 78.8272 30.2126C81.3619 29.6046 83.1869 27.4765 83.2883 24.8418C83.3897 22.3084 81.8688 19.8764 79.5369 18.9644C77.2049 17.8497 74.4674 18.863 73.2508 21.0924C72.0341 23.2205 72.0341 25.8552 73.3522 27.9832C74.2647 29.5032 75.9883 30.5166 77.8133 30.4152Z" fill="#1D1655"/>
<path d="M54.2886 21.2953C55.2011 21.802 56.0122 22.5113 56.5191 23.4233C58.0399 26.0581 57.1274 29.3008 54.4913 30.8208C54.1872 31.0235 53.7816 31.1248 53.4774 31.3275C53.0719 31.4288 52.5649 31.5302 52.058 31.5302H45.6705C45.0622 31.5302 44.8594 31.3275 44.8594 30.7195V13.8979C44.8594 13.1885 44.8594 13.1885 45.5691 13.1885H51.7538C53.6802 13.0872 55.3025 14.3032 55.9108 16.0259C56.6205 17.8499 56.0122 19.8766 54.4913 21.0926L54.2886 21.2953ZM45.9747 30.3141H51.9566C53.2747 30.3141 54.3899 29.7061 55.2011 28.6928C56.2149 27.3754 56.4177 25.5514 55.6066 24.1327C54.8969 22.714 53.4775 21.802 51.8552 21.9033H46.0761V30.3141H45.9747ZM45.9747 20.6873H51.9566C53.6802 20.6873 54.9983 19.3699 54.9983 17.6473C55.0997 15.9246 53.883 14.5059 52.1594 14.4045H46.2788C45.9747 14.4045 45.9747 14.5059 45.9747 14.8099V17.8499C45.9747 18.8633 45.9747 19.7753 45.9747 20.6873Z" fill="#1D1655"/>
<path d="M143.311 27.9834C142.5 29.6048 141.081 30.8208 139.256 31.2261C136.011 32.1382 132.564 30.3141 131.652 27.0714C131.449 26.2607 131.246 25.45 131.246 24.6394C131.246 22.5113 131.246 20.3833 131.246 18.2553C131.246 17.8499 131.347 17.6473 131.753 17.5459C132.057 17.5459 132.361 17.6473 132.361 17.9513C132.361 18.1539 132.361 18.2553 132.361 18.4579V25.146C132.463 27.5781 134.085 29.6048 136.316 30.2128C138.546 30.6181 140.878 29.7061 142.196 27.7808C142.906 26.6661 143.311 25.45 143.311 24.1327V18.0526C143.311 17.5459 143.514 17.4446 143.818 17.4446C144.123 17.4446 144.325 17.5459 144.325 17.8499V17.9513V31.1248C144.427 33.3542 143.21 35.4822 141.182 36.4956C139.56 37.3062 137.735 37.4076 136.011 36.7996C135.707 36.6982 135.504 36.3942 135.504 36.0902C135.504 35.9889 135.504 35.9889 135.504 35.9889C135.606 35.6849 135.91 35.5836 136.316 35.6849C137.532 36.0902 138.749 36.0902 139.966 35.6849C141.689 35.0769 143.007 33.5569 143.109 31.7328C143.311 30.5168 143.413 29.1994 143.311 27.9834Z" fill="#1D1655"/>
<path d="M112.689 17.4446C114.007 17.4446 115.325 17.7486 116.541 18.4579C117.454 18.8633 118.062 19.7753 118.265 20.6873C118.366 21.2953 118.265 21.498 117.859 21.5993C117.454 21.7007 117.251 21.5993 117.251 21.194C117.15 20.282 116.541 19.5726 115.73 19.2686C114.007 18.3566 111.979 18.2553 110.255 19.0659C109.545 19.2686 109.039 19.8766 108.836 20.4846C108.532 21.3966 108.836 22.3087 109.647 22.714C110.458 23.1193 111.269 23.322 112.182 23.4233C113.398 23.5247 114.615 23.7274 115.73 24.0314C116.44 24.234 117.048 24.538 117.657 25.0447C118.975 26.2607 119.177 28.2874 117.961 29.7061L117.758 29.9088C116.947 30.6181 115.832 31.1248 114.818 31.2261C112.79 31.6315 110.559 31.3275 108.836 30.2128C108.329 29.8075 107.822 29.4021 107.416 28.8954C107.112 28.4901 106.909 27.9834 107.011 27.3754C107.011 27.0714 107.214 26.8687 107.518 26.8687C107.822 26.8687 108.025 27.0714 108.025 27.2741C108.025 27.2741 108.025 27.2741 108.025 27.3754C108.126 28.0848 108.532 28.6928 109.039 29.0981C110.458 30.1115 112.182 30.5168 113.804 30.3141C114.615 30.3141 115.426 30.0101 116.237 29.6048C116.643 29.4021 116.947 29.0981 117.251 28.7941C117.961 27.9834 117.859 26.7674 117.048 26.0581L116.845 25.8554C116.136 25.3487 115.223 25.0447 114.311 24.9434C113.195 24.7407 112.08 24.7407 110.864 24.538C109.951 24.4367 109.14 23.93 108.43 23.322C107.214 22.0047 107.416 19.8766 108.734 18.7619C108.836 18.6606 109.039 18.5593 109.14 18.4579C110.154 17.7486 111.472 17.4446 112.689 17.4446Z" fill="#1D1655"/>
<path d="M87.7502 20.9913C88.3585 19.8766 89.3724 18.9646 90.3863 18.3566C93.3266 16.6339 97.078 17.5459 98.8016 20.4846C99.0044 20.8899 99.2071 21.2953 99.3085 21.7006C99.6127 22.5113 99.8155 23.4233 99.8155 24.3353V30.7194C99.8155 30.8208 99.8155 30.9221 99.8155 31.0234C99.8155 31.3274 99.6127 31.4288 99.3085 31.4288C99.0044 31.4288 98.8016 31.2261 98.8016 30.9221C98.8016 30.8208 98.8016 30.7194 98.8016 30.6181C98.8016 28.4901 98.8016 26.2607 98.8016 24.1327C98.8016 22.3086 97.9905 20.5859 96.4696 19.4712C94.4419 18.0526 91.8057 18.2552 89.9807 19.8766C88.4599 21.0926 87.6488 22.8153 87.6488 24.7407V30.5168C87.6488 30.6181 87.6488 30.8208 87.6488 30.9221C87.5474 31.1248 87.3446 31.2261 87.1418 31.3274C86.9391 31.4288 86.6349 31.2261 86.6349 31.0234C86.6349 30.9221 86.5335 30.7194 86.6349 30.6181V13.8978C86.6349 13.6952 86.6349 13.5938 86.7363 13.4925C86.8377 13.2898 87.0405 13.1885 87.2432 13.1885C87.446 13.1885 87.5474 13.3911 87.6488 13.5938C87.7502 13.7965 87.6488 13.8978 87.6488 13.9992V20.5859L87.7502 20.9913Z" fill="#1D1655"/>
<path d="M103.869 18.1539C104.579 18.1539 105.289 18.0525 105.999 18.0525C106.303 18.0525 106.506 18.1539 106.81 18.2552C106.911 18.4579 106.911 18.6605 106.81 18.8632C106.708 19.0659 106.506 19.1672 106.303 19.1672C105.694 19.1672 105.086 19.1672 104.478 19.0659H103.971V19.5726C103.971 23.2206 103.971 26.8687 103.971 30.5167C103.971 30.6181 103.971 30.7194 103.971 30.8207C103.869 31.1247 103.667 31.3274 103.362 31.2261C103.058 31.2261 102.856 30.9221 102.856 30.6181V29.8074C102.856 26.2607 102.856 22.8153 102.856 19.2685V18.9645H100.625C100.118 18.9645 99.8139 18.5592 100.017 18.1539C100.118 17.8499 100.422 17.7485 100.726 17.7485C101.436 17.7485 102.146 17.8499 102.856 17.8499V13.9991C102.856 13.6951 103.058 13.3911 103.362 13.3911H103.464C103.768 13.3911 104.072 13.6951 104.072 13.9991V14.1005C104.072 15.2151 104.072 16.3298 104.072 17.4445C103.869 17.8499 103.869 17.8499 103.869 18.1539Z" fill="#1D1655"/>
<path d="M125.667 18.1538V14.4044C125.667 14.1004 125.87 13.7964 126.174 13.6951C126.174 13.6951 126.174 13.6951 126.275 13.6951C126.579 13.6951 126.782 13.9991 126.782 14.4044C126.782 15.5191 126.782 16.6338 126.681 17.7485C126.681 18.0525 126.782 18.2551 127.086 18.1538C127.695 18.0525 128.202 18.0525 128.81 18.0525C129.114 18.0525 129.418 18.0525 129.621 18.3565C129.824 18.6605 129.722 18.9645 129.418 19.1672C129.317 19.2685 129.215 19.2685 129.013 19.2685C128.404 19.2685 127.796 19.2685 127.188 19.1672H126.681V19.5725C126.681 23.2206 126.681 26.97 126.782 30.618C126.782 30.7194 126.782 30.8207 126.782 30.922C126.782 31.226 126.478 31.4287 126.275 31.4287C125.971 31.4287 125.768 31.226 125.667 30.922C125.667 30.8207 125.667 30.618 125.667 30.5167C125.667 26.8686 125.667 23.2206 125.667 19.6738V19.2685H123.436C123.132 19.3698 122.828 19.0658 122.727 18.7618C122.727 18.6605 122.727 18.5591 122.828 18.3565C122.929 18.0525 123.233 17.9511 123.538 17.9511L125.667 18.1538Z" fill="#1D1655"/>
<path d="M60.1701 20.7885C60.9813 19.2685 62.4007 18.1538 64.1243 17.6471C65.0368 17.3431 66.0507 17.3431 66.9632 17.7485C67.166 17.8498 67.3688 18.0525 67.3688 18.3565C67.3688 18.5591 67.2674 18.7618 67.0646 18.8631C66.8618 18.9645 66.5576 18.9645 66.3549 18.8631C65.2396 18.4578 63.9215 18.6605 63.009 19.3698C61.184 20.4845 60.1701 22.5112 60.1701 24.6392V30.618C60.1701 30.7193 60.1701 30.922 60.1701 31.0233C60.1701 31.3273 59.9674 31.53 59.6632 31.53C59.359 31.53 59.1562 31.3273 59.1562 31.0233V18.1538C59.1562 17.9511 59.2577 17.6471 59.359 17.6471C59.5618 17.6471 59.866 17.7485 59.866 17.9511C59.9674 18.4578 60.0687 18.8631 60.0687 19.3698C60.1701 19.8765 60.1701 20.2818 60.1701 20.7885Z" fill="#1D1655"/>
<path d="M121.612 24.4367V30.5168C121.612 30.6181 121.612 30.7194 121.612 30.8208C121.612 31.1248 121.409 31.3275 121.105 31.3275C120.8 31.3275 120.598 31.1248 120.598 30.8208C120.598 30.7194 120.598 30.6181 120.598 30.5168V18.2552C120.598 18.1539 120.598 18.0526 120.598 17.9512C120.598 17.6472 120.902 17.4446 121.206 17.5459C121.51 17.5459 121.713 17.7486 121.713 18.0526C121.713 18.1539 121.713 18.2552 121.713 18.3566C121.612 20.3833 121.612 22.41 121.612 24.4367Z" fill="#1D1655"/>
<path d="M68.4844 24.4367V17.9512C68.5858 17.7486 68.6871 17.6472 68.8899 17.5459C69.0927 17.5459 69.2955 17.6472 69.3969 17.8499C69.4983 17.9512 69.4983 18.1539 69.4983 18.2552V30.6181C69.4983 30.7195 69.4983 30.8208 69.4983 30.9221C69.3969 31.2261 69.0927 31.3275 68.8899 31.3275C68.6871 31.2261 68.4844 31.1248 68.4844 30.8208V30.0101C68.4844 28.1861 68.4844 26.362 68.4844 24.4367Z" fill="#1D1655"/>
<path d="M68.2812 14.1005C68.2812 13.6951 68.5854 13.2898 68.991 13.2898C69.3965 13.2898 69.8021 13.6951 69.8021 14.1005C69.8021 14.5058 69.4979 14.9112 69.0924 14.9112C68.6868 14.9112 68.3826 14.6072 68.3826 14.2018C68.2813 14.1005 68.2812 14.1005 68.2812 14.1005Z" fill="#1D1655"/>
<path d="M121.915 14.1005C121.915 14.5058 121.51 14.8098 121.104 14.8098C120.699 14.8098 120.395 14.4045 120.395 13.9991C120.395 13.5938 120.8 13.2898 121.206 13.2898C121.611 13.2898 121.814 13.5938 121.915 13.9991C121.915 13.9991 121.915 13.9991 121.915 14.1005Z" fill="#1D1655"/>
<path d="M2.17622 10.2498H0.148438V35.6849H2.17622V10.2498Z" fill="#1D1655"/>
<path d="M12.5161 0.318848H10.4883V40.5489H12.5161V0.318848Z" fill="#1D1655"/>
<path d="M24.0747 16.0259H22.0469V35.9889H24.0747V16.0259Z" fill="#1D1655"/>
<path d="M33.6059 6.60156H31.5781V38.1168H33.6059V6.60156Z" fill="#1D1655"/>
</svg>
