<svg width="150" height="42" viewBox="0 0 150 42" fill="none" xmlns="http://www.w3.org/2000/svg">
<path d="M81.1629 38.6706L79.2365 38.2653C79.1351 38.2653 78.9324 38.1639 78.831 38.0626C78.5268 37.9612 78.4254 37.6572 78.5268 37.3532C78.6282 37.0492 78.9323 36.9479 79.2365 37.0492C79.7435 37.1506 80.2504 37.2519 80.7573 37.3532C83.3935 37.7586 85.9282 36.0359 86.4352 33.2998C86.4352 33.2998 86.4352 33.2998 86.4352 33.1985V33.0972C86.5366 32.0838 86.5365 31.1718 86.5365 30.1584V29.0438C86.4351 29.1451 86.4352 29.1451 86.4352 29.1451C85.2185 31.4758 82.7852 32.7932 80.149 32.5905C77.7157 32.4892 75.5865 30.9691 74.674 28.6384C73.356 25.801 73.9643 22.457 76.0935 20.1263C78.1213 18.0996 81.3657 17.6942 83.799 19.2143C84.9143 19.8223 85.8268 20.7343 86.4352 21.849C86.5366 21.9503 86.5365 21.9503 86.6379 22.0516V19.8223C86.6379 19.5183 86.7393 19.1129 86.8407 18.8089C86.9421 18.6063 87.0435 18.5049 87.2463 18.4036C87.449 18.3022 87.6518 18.4036 87.6518 18.7076V32.2865C87.6518 34.1105 86.9421 35.9345 85.624 37.1506C84.7115 37.9612 83.4949 38.5693 82.2782 38.6706L81.974 38.7719L81.1629 38.6706ZM80.656 31.4758C81.0615 31.4758 81.3657 31.3745 81.7712 31.2731C84.306 30.6651 86.2324 28.4358 86.4352 25.801C86.5366 23.1663 85.0157 20.7343 82.5823 19.7209C80.149 18.6063 77.3102 19.6196 76.0935 21.9503C74.7754 24.1797 74.8768 26.8144 76.1948 29.0438C77.006 30.5638 78.831 31.5771 80.656 31.4758Z" fill="#808080"/>
<path d="M56.4249 22.0517C57.3374 22.5583 58.1485 23.2677 58.6555 24.1797C60.1763 26.8144 59.2638 30.2598 56.6277 31.7798C56.3235 31.9825 55.918 32.0838 55.6138 32.2865C55.1069 32.3878 54.7013 32.4892 54.1943 32.4892H47.6041C46.9957 32.4892 46.793 32.2865 46.793 31.6785V14.4515C46.793 13.7422 46.793 13.7422 47.5027 13.7422H53.8902C55.8166 13.6408 57.5402 14.8569 58.2499 16.6809C58.9596 18.5049 58.3513 20.633 56.8305 21.849L56.4249 22.0517ZM47.9083 31.3745H54.093C55.411 31.3745 56.6277 30.7665 57.3374 29.7531C58.3513 28.4358 58.5541 26.6117 57.743 25.0917C57.0332 23.5717 55.5124 22.6597 53.8902 22.761H47.9083V31.3745ZM47.9083 21.4436H54.093C55.8166 21.4436 57.236 20.025 57.236 18.3023C57.3374 16.5796 56.0194 15.0595 54.2958 14.9582H48.2124C47.9083 14.9582 47.8069 15.0595 47.8069 15.3635V18.5049C47.9082 19.6196 47.9083 20.4303 47.9083 21.4436Z" fill="#808080"/>
<path d="M148.18 28.9424C147.369 30.5638 145.848 31.7798 144.023 32.2865C140.677 33.2998 137.129 31.3745 136.216 27.9291C135.912 27.1184 135.811 26.3077 135.811 25.497C135.709 23.2677 135.811 21.0383 135.811 18.9102C135.811 18.4036 135.912 18.3022 136.318 18.2009C136.723 18.0996 136.926 18.3022 136.926 18.7076C136.926 18.9102 136.926 19.0116 136.926 19.2143V26.105C137.027 28.5371 138.65 30.6651 140.982 31.3745C143.314 31.8811 145.645 30.8678 147.065 28.9424C147.775 27.8277 148.18 26.5104 148.18 25.193V18.9102C148.18 18.4036 148.383 18.2009 148.687 18.2009C148.991 18.2009 149.194 18.3022 149.295 18.6062V18.7076V32.1851C149.397 34.5158 148.18 36.6439 146.051 37.7586C144.429 38.5693 142.502 38.6706 140.779 38.0626C140.475 37.9612 140.272 37.6572 140.272 37.3532C140.272 37.2519 140.272 37.2519 140.272 37.1506C140.373 36.8466 140.677 36.7452 141.083 36.8466C142.3 37.2519 143.618 37.2519 144.834 36.8466C146.659 36.2385 147.977 34.6172 148.079 32.6918C148.18 31.5771 148.18 30.2598 148.18 28.9424Z" fill="#808080"/>
<path d="M116.548 18.2009C117.967 18.2009 119.285 18.5049 120.502 19.2143C121.414 19.721 122.124 20.5316 122.327 21.545C122.428 22.153 122.327 22.457 121.82 22.457C121.313 22.5583 121.212 22.457 121.212 22.0517C121.11 21.1396 120.502 20.329 119.691 20.025C117.967 19.1129 115.838 19.0116 114.013 19.8223C113.303 20.025 112.796 20.633 112.492 21.3423C112.188 22.2543 112.492 23.2677 113.405 23.673C114.216 24.0784 115.128 24.281 116.041 24.3824C117.257 24.4837 118.474 24.6864 119.691 24.9904C120.4 25.193 121.11 25.497 121.719 26.0037C123.138 27.2197 123.239 29.3478 122.023 30.7665L121.82 30.9691C120.907 31.6785 119.894 32.1852 118.778 32.3878C116.649 32.8945 114.419 32.4892 112.594 31.3745C112.087 30.9691 111.58 30.5638 111.174 30.0571C110.87 29.6518 110.667 29.0438 110.769 28.5371C110.769 28.2331 110.971 28.0304 111.276 27.9291H111.377C111.681 27.9291 111.884 28.1318 111.985 28.3344C111.985 28.3344 111.985 28.3344 111.985 28.4358C112.087 29.1451 112.492 29.7531 113.1 30.1585C114.52 31.1718 116.244 31.6785 118.069 31.3745C118.981 31.3745 119.792 31.0705 120.502 30.6651C120.907 30.4625 121.212 30.1585 121.516 29.7531C122.225 28.9424 122.124 27.6251 121.313 26.9157L121.11 26.7131C120.299 26.2064 119.488 25.9024 118.474 25.8011C117.359 25.5984 116.142 25.5984 114.925 25.3957C114.013 25.2944 113.1 24.7877 112.391 24.1797C111.174 22.761 111.377 20.633 112.695 19.5183C112.796 19.4169 112.999 19.3156 113.1 19.2143C114.013 18.5049 115.331 18.0996 116.548 18.2009Z" fill="#808080"/>
<path d="M90.8968 21.7477C91.6066 20.633 92.5191 19.721 93.6344 19.1129C96.676 17.2889 100.529 18.3023 102.354 21.3423C102.557 21.7477 102.759 22.153 102.962 22.5583C103.266 23.4704 103.469 24.3824 103.469 25.2944V31.8812C103.469 31.9825 103.469 32.0838 103.469 32.1852C103.469 32.4892 103.165 32.6918 102.962 32.6918C102.658 32.6918 102.455 32.4892 102.455 32.1852C102.455 32.0838 102.455 31.9825 102.455 31.7798C102.455 29.5505 102.455 27.3211 102.455 25.0917C102.455 23.2677 101.644 21.4437 100.123 20.329C98.0955 18.9103 95.2566 19.0116 93.4316 20.7343C91.9107 21.9503 90.9982 23.7744 91.0996 25.6997V31.6785C91.0996 31.7798 91.0996 31.9825 91.0996 32.0838C90.9982 32.2865 90.7955 32.3878 90.5927 32.4892C90.3899 32.5905 90.0857 32.3878 90.0857 32.1852C90.0857 32.0838 89.9844 31.8812 89.9844 31.7798V14.5529C89.9844 14.3502 89.9844 14.2489 90.0857 14.0462C90.1871 13.8435 90.3899 13.7422 90.5927 13.7422C90.7955 13.7422 90.8969 13.9449 91.0996 14.1475C91.201 14.3502 91.0996 14.4515 91.0996 14.5529V21.3423L90.8968 21.7477Z" fill="#808080"/>
<path d="M107.524 18.8089C108.234 18.8089 108.943 18.7076 109.653 18.7076C109.957 18.7076 110.261 18.8089 110.464 18.9103C110.565 19.1129 110.565 19.3156 110.565 19.5183C110.464 19.7209 110.261 19.8223 109.957 19.8223C109.349 19.8223 108.639 19.8223 108.031 19.7209H107.524V20.3289C107.524 24.0783 107.524 27.8277 107.625 31.5771C107.625 31.6785 107.625 31.7798 107.625 31.8811C107.524 32.1851 107.321 32.3878 107.017 32.3878C106.713 32.3878 106.408 32.0838 106.408 31.7798V30.8678C106.408 27.2197 106.409 23.673 106.51 20.0249V19.7209H104.178C103.671 19.7209 103.265 19.3156 103.57 18.8089C103.671 18.5049 103.975 18.4036 104.279 18.4036C104.989 18.5049 105.699 18.5049 106.51 18.5049V14.5529C106.51 14.2488 106.713 13.9448 107.017 13.8435H107.118C107.422 13.8435 107.727 14.1475 107.727 14.4515V14.5529C107.727 15.6675 107.727 16.8836 107.625 17.9982C107.524 18.5049 107.524 18.6063 107.524 18.8089Z" fill="#808080"/>
<path d="M130.034 18.8089V14.9582C130.034 14.6542 130.237 14.3502 130.541 14.2488C130.541 14.2488 130.541 14.2488 130.642 14.2488C131.048 14.2488 131.251 14.5528 131.149 14.9582C131.149 16.0729 131.149 17.2889 131.048 18.4036C131.048 18.7076 131.149 18.9103 131.453 18.8089C132.062 18.7076 132.67 18.7076 133.278 18.7076C133.583 18.7076 133.887 18.7076 134.09 19.0116C134.292 19.3156 134.191 19.7209 133.887 19.8223C133.785 19.9236 133.684 19.9236 133.481 19.9236C132.873 19.9236 132.163 19.9236 131.555 19.8223H131.149V20.3289C131.149 24.0783 131.149 27.9291 131.251 31.6785C131.251 31.7798 131.251 31.8811 131.251 31.9825C131.251 32.2865 130.947 32.4891 130.642 32.4891C130.338 32.4891 130.135 32.2865 130.034 31.9825C130.034 31.8811 130.034 31.6785 130.034 31.5771C130.034 27.8277 130.034 24.0783 130.135 20.3289V19.9236H127.803C127.499 20.0249 127.195 19.7209 127.094 19.4169C127.094 19.3156 127.094 19.1129 127.195 19.0116C127.297 18.7076 127.601 18.5049 127.905 18.6062L130.034 18.8089Z" fill="#808080"/>
<path d="M62.5064 21.545C63.4189 20.0249 64.8384 18.8089 66.562 18.4036C67.4745 18.0996 68.4884 18.0996 69.5023 18.5049C69.705 18.6063 69.9078 18.8089 70.0092 19.1129C70.0092 19.3156 69.9078 19.5183 69.7051 19.7209C69.5023 19.8223 69.1981 19.8223 68.9953 19.7209C67.88 19.3156 66.562 19.5183 65.5481 20.2276C63.7231 21.3423 62.6078 23.4703 62.7092 25.5984V31.7798C62.7092 31.8811 62.7092 32.0838 62.7092 32.1852C62.7092 32.4892 62.405 32.6918 62.2023 32.6918C61.8981 32.6918 61.6953 32.4892 61.6953 32.1852V19.0116C61.6953 18.8089 61.7967 18.5049 61.8981 18.4036C62.1009 18.4036 62.405 18.5049 62.5064 18.7076C62.6078 19.2143 62.7092 19.7209 62.7092 20.2276C62.5064 20.633 62.5064 21.0383 62.5064 21.545Z" fill="#808080"/>
<path d="M125.877 25.3957V31.6785C125.877 31.7798 125.877 31.8812 125.877 32.0838C125.877 32.3878 125.674 32.5905 125.37 32.6918C125.066 32.6918 124.863 32.4892 124.762 32.1852C124.762 32.0838 124.762 31.9825 124.762 31.7798V19.0116C124.762 18.9103 124.762 18.8089 124.762 18.6063C124.762 18.3023 125.066 18.0996 125.37 18.2009C125.674 18.2009 125.877 18.4036 125.877 18.7076C125.877 18.8089 125.877 18.9103 125.877 19.1129C125.877 21.1396 125.877 23.2677 125.877 25.3957Z" fill="#808080"/>
<path d="M71.125 25.2944V18.6063C71.2264 18.4036 71.3278 18.3023 71.5306 18.2009C71.7334 18.2009 71.9361 18.3023 72.1389 18.5049C72.2403 18.6063 72.2403 18.8089 72.2403 19.0116V31.7798C72.2403 31.8812 72.2403 31.9825 72.2403 32.0838C72.1389 32.3878 71.8347 32.5905 71.6319 32.4892C71.4292 32.3878 71.2264 32.1852 71.2264 31.9825V31.1718C71.125 29.2464 71.125 27.2197 71.125 25.2944Z" fill="#808080"/>
<path d="M70.9217 14.6542C70.9217 14.2489 71.2259 13.8435 71.6314 13.7422C72.037 13.7422 72.4425 14.1475 72.4425 14.6542C72.4425 15.0595 72.1384 15.4649 71.6314 15.4649C71.2259 15.4649 70.9217 15.1609 70.8203 14.7555C70.9217 14.7555 70.9217 14.6542 70.9217 14.6542Z" fill="#808080"/>
<path d="M126.079 14.6542C126.079 15.0595 125.674 15.3635 125.167 15.3635C124.761 15.3635 124.457 14.9582 124.457 14.4515C124.457 14.0462 124.863 13.7422 125.369 13.7422C125.775 13.7422 126.079 14.0462 126.079 14.4515C126.079 14.5529 126.079 14.5529 126.079 14.6542Z" fill="#808080"/>
<path d="M2.89086 10.7021H0.761719V36.9479H2.89086V10.7021Z" fill="#808080"/>
<path d="M13.5354 0.467285H11.4062V41.812H13.5354V0.467285Z" fill="#808080"/>
<path d="M25.3987 16.5796H23.2695V37.1506H25.3987V16.5796Z" fill="#808080"/>
<path d="M35.2347 6.95273H33.1055V39.3799H35.2347V6.95273Z" fill="#808080"/>
</svg>
