<svg width="22" height="22" viewBox="0 0 22 22" fill="none" xmlns="http://www.w3.org/2000/svg">
<path d="M8.94531 11.9336C9.37476 12.5077 9.92267 12.9827 10.5519 13.3265C11.1811 13.6703 11.8768 13.8747 12.592 13.9259C13.3071 13.9771 14.0249 13.8739 14.6967 13.6233C15.3684 13.3728 15.9784 12.9806 16.4853 12.4736L19.4853 9.47356C20.3961 8.53055 20.9001 7.26754 20.8887 5.95655C20.8773 4.64557 20.3514 3.39151 19.4244 2.46447C18.4974 1.53743 17.2433 1.01158 15.9323 1.00019C14.6213 0.988797 13.3583 1.49277 12.4153 2.40356L10.6953 4.11356" stroke="white" stroke-width="2" stroke-linecap="round" stroke-linejoin="round"/>
<path d="M12.9436 9.93357C12.5141 9.35945 11.9662 8.88439 11.337 8.54063C10.7078 8.19688 10.0121 7.99246 9.29691 7.94124C8.58177 7.89002 7.86397 7.99321 7.19221 8.24379C6.52045 8.49438 5.91044 8.8865 5.40356 9.39357L2.40356 12.3936C1.49277 13.3366 0.988797 14.5996 1.00019 15.9106C1.01158 17.2216 1.53743 18.4756 2.46447 19.4027C3.39151 20.3297 4.64557 20.8556 5.95655 20.8669C7.26754 20.8783 8.53055 20.3744 9.47356 19.4636L11.1836 17.7536" stroke="white" stroke-width="2" stroke-linecap="round" stroke-linejoin="round"/>
</svg>
