<svg width="216" height="149" viewBox="0 0 216 149" fill="none" xmlns="http://www.w3.org/2000/svg">
<path d="M187.52 114.228L178.933 114.229L178.932 107.36C179.11 91.7897 174.119 76.6005 164.74 64.171C155.361 51.7415 142.125 42.7737 127.104 38.6724L129.378 30.386C146.221 34.9728 161.067 45.0179 171.588 58.9473C182.11 72.8767 187.713 89.9032 187.519 107.359L187.52 114.228ZM36.3945 114.246L27.8079 114.247L27.8071 107.377C27.8386 89.9897 33.5202 73.0831 43.9958 59.2052C54.4714 45.3273 69.1735 35.2298 85.8868 30.4341L88.2062 38.677C73.2887 42.9616 60.1683 51.9793 50.8228 64.3707C41.4773 76.7622 36.4131 91.8559 36.3937 107.376L36.3945 114.246ZM41.5355 20.6505L91.3382 20.6446L91.3392 29.2313L41.5365 29.2371L41.5355 20.6505ZM123.968 20.6408L173.77 20.6349L173.771 29.2216L123.969 29.2275L123.968 20.6408Z" fill="#1D1655"/>
<path d="M25.2222 45.5537C36.6037 45.5523 45.8291 36.3247 45.8278 24.9432C45.8264 13.5618 36.5988 4.33633 25.2174 4.33767C13.8359 4.339 4.61046 13.5666 4.6118 24.9481C4.61313 36.3296 13.8407 45.555 25.2222 45.5537Z" fill="#93CFEF"/>
<path d="M25.2275 49.8471C20.3025 49.8477 15.4879 48.3878 11.3926 45.6521C7.29725 42.9164 4.10513 39.0277 2.21987 34.4778C0.334613 29.9279 -0.159105 24.9211 0.801151 20.0906C1.76141 15.2601 4.13251 10.8229 7.61461 7.33995C11.0967 3.85703 15.5334 1.48488 20.3637 0.523491C25.194 -0.437899 30.2009 0.0546415 34.7512 1.93883C39.3015 3.82302 43.191 7.01423 45.9277 11.1089C48.6643 15.2036 50.1253 20.0178 50.1259 24.9428C50.1153 31.5436 47.4889 37.8711 42.822 42.5391C38.1551 47.2071 31.8283 49.835 25.2275 49.8471ZM25.2227 8.63111C21.9959 8.63149 18.8418 9.5887 16.159 11.3817C13.4763 13.1747 11.3855 15.7229 10.1511 18.7042C8.91659 21.6854 8.59389 24.9658 9.22377 28.1305C9.85365 31.2951 11.4078 34.202 13.6897 36.4833C15.9716 38.7647 18.8788 40.3182 22.0436 40.9473C25.2084 41.5765 28.4887 41.253 31.4697 40.0178C34.4507 38.7826 36.9984 36.6913 38.7908 34.0081C40.5832 31.325 41.5396 28.1706 41.5392 24.9438C41.5387 20.6169 39.8194 16.4674 36.7594 13.4082C33.6995 10.349 29.5496 8.6306 25.2227 8.63111Z" fill="#1D1655"/>
<path d="M190.089 45.5344C201.471 45.533 210.696 36.3054 210.695 24.9239C210.694 13.5425 201.466 4.31704 190.085 4.31838C178.703 4.31972 169.478 13.5473 169.479 24.9288C169.48 36.3103 178.708 45.5357 190.089 45.5344Z" fill="#93CFEF"/>
<path d="M190.095 49.8278C185.17 49.8284 180.355 48.3685 176.26 45.6328C172.164 42.8971 168.972 39.0084 167.087 34.4585C165.202 29.9086 164.708 24.9018 165.668 20.0713C166.629 15.2408 169 10.8036 172.482 7.32066C175.964 3.83774 180.401 1.46559 185.231 0.504204C190.061 -0.457187 195.068 0.0353544 199.618 1.91954C204.169 3.80373 208.058 6.99494 210.795 11.0896C213.532 15.1843 214.993 19.9985 214.993 24.9236C214.983 31.5243 212.356 37.8518 207.689 42.5198C203.022 47.1878 196.695 49.8157 190.095 49.8278ZM190.09 8.61182C186.863 8.6122 183.709 9.56942 181.026 11.3624C178.344 13.1554 176.253 15.7036 175.018 18.6849C173.784 21.6662 173.461 24.9465 174.091 28.1112C174.721 31.2759 176.275 34.1827 178.557 36.4641C180.839 38.7454 183.746 40.2989 186.911 40.928C190.076 41.5572 193.356 41.2337 196.337 39.9985C199.318 38.7634 201.866 36.672 203.658 33.9888C205.45 31.3057 206.407 28.1513 206.406 24.9246C206.395 20.6011 204.672 16.4582 201.614 13.4014C198.557 10.3447 194.413 8.62265 190.09 8.61182Z" fill="#1D1655"/>
<path d="M87.6016 4.88843L127.658 4.88372L127.663 44.9405L87.6063 44.9452L87.6016 4.88843Z" fill="#FDBC3B"/>
<path d="M132.005 49.2764L83.3182 49.2821L83.3125 0.595703L131.999 0.589982L132.005 49.2764ZM91.9468 40.6944L123.417 40.6907L123.413 9.17765L91.9002 9.18136L91.9468 40.6944Z" fill="#1D1655"/>
<path d="M107.674 132.398L136.312 144.201L107.668 75.1251L79.0394 144.208L107.674 132.398Z" fill="white"/>
<path d="M136.308 148.495C135.747 148.488 135.192 148.371 134.676 148.151L107.67 137.035L80.6661 148.158C79.8794 148.49 79.0116 148.579 78.1736 148.416C77.3357 148.252 76.5656 147.842 75.9618 147.238C75.358 146.635 74.9479 145.865 74.7839 145.027C74.6199 144.189 74.7095 143.321 75.0411 142.534L103.67 73.4941C103.993 72.7066 104.543 72.033 105.25 71.5589C105.957 71.0849 106.789 70.8317 107.641 70.8316C108.492 70.8315 109.324 71.0845 110.031 71.5584C110.738 72.0323 111.289 72.7057 111.612 73.4931L140.257 142.527C140.524 143.177 140.628 143.883 140.558 144.583C140.489 145.283 140.248 145.954 139.858 146.54C139.468 147.125 138.941 147.605 138.322 147.939C137.702 148.272 137.011 148.448 136.308 148.452L136.308 148.495ZM107.669 128.105C108.23 128.111 108.784 128.228 109.3 128.448L128.364 136.303L107.664 86.3736L86.9759 136.307L106.037 128.448C106.553 128.228 107.108 128.112 107.669 128.105Z" fill="#1D1655"/>
</svg>
