<svg width="600" height="600" viewBox="0 0 600 600" fill="none" xmlns="http://www.w3.org/2000/svg">
<path d="M278 100H487.5C490.815 100 493.995 101.317 496.339 103.661C498.683 106.005 500 109.185 500 112.5V128.875C500 132.19 501.317 135.37 503.661 137.714C506.005 140.058 509.185 141.375 512.5 141.375C515.815 141.375 518.995 140.058 521.339 137.714C523.683 135.37 525 132.19 525 128.875V100H562.5C565.815 100 568.995 98.683 571.339 96.3388C573.683 93.9946 575 90.8152 575 87.5C575 84.1848 573.683 81.0054 571.339 78.6612C568.995 76.317 565.815 75 562.5 75H525V37.5C525 34.1848 523.683 31.0054 521.339 28.6612C518.995 26.317 515.815 25 512.5 25C509.185 25 506.005 26.317 503.661 28.6612C501.317 31.0054 500 34.1848 500 37.5V75H278C274.685 75 271.505 76.317 269.161 78.6612C266.817 81.0054 265.5 84.1848 265.5 87.5C265.5 90.8152 266.817 93.9946 269.161 96.3388C271.505 98.683 274.685 100 278 100ZM284.5 237.5C284.5 250.455 288.342 263.118 295.539 273.89C302.736 284.661 312.966 293.057 324.934 298.014C336.903 302.972 350.073 304.269 362.778 301.741C375.484 299.214 387.155 292.976 396.316 283.815C405.476 274.655 411.714 262.984 414.241 250.278C416.769 237.573 415.472 224.403 410.514 212.434C405.557 200.466 397.161 190.236 386.39 183.039C375.618 175.841 362.955 172 350 172C332.638 172.033 315.997 178.945 303.721 191.221C291.445 203.497 284.533 220.138 284.5 237.5ZM390.5 237.5C390.5 245.51 388.125 253.34 383.675 260.001C379.224 266.661 372.899 271.852 365.499 274.917C358.098 277.982 349.955 278.784 342.099 277.222C334.243 275.659 327.026 271.802 321.362 266.138C315.698 260.474 311.841 253.257 310.278 245.401C308.716 237.545 309.518 229.402 312.583 222.001C315.648 214.601 320.839 208.276 327.499 203.825C334.16 199.375 341.99 197 350 197C360.731 197.033 371.013 201.31 378.601 208.899C386.189 216.487 390.467 226.769 390.5 237.5Z" fill="#19164C"/>
<path d="M562.5 500H525V195.125C525 191.81 523.683 188.63 521.339 186.286C518.995 183.942 515.815 182.625 512.5 182.625C509.185 182.625 506.005 183.942 503.661 186.286C501.317 188.63 500 191.81 500 195.125V375.875L475 343C471.435 338.463 466.93 334.75 461.795 332.118C456.659 329.486 451.015 327.996 445.25 327.75C439.389 327.433 433.53 328.386 428.071 330.543C422.613 332.701 417.685 336.012 413.625 340.25L362.5 393.625C361.006 395.187 359.212 396.43 357.224 397.279C355.237 398.128 353.099 398.566 350.938 398.566C348.776 398.566 346.638 398.128 344.651 397.279C342.663 396.43 340.869 395.187 339.375 393.625L284.25 327.5C280.635 323.302 276.195 319.892 271.206 317.484C266.217 315.075 260.786 313.719 255.25 313.5C249.691 313.257 244.14 314.151 238.938 316.129C233.737 318.106 228.994 321.125 225 325L100 447.75V305.375C100 302.06 98.683 298.88 96.3388 296.536C93.9946 294.192 90.8152 292.875 87.5 292.875C84.1848 292.875 81.0054 294.192 78.6612 296.536C76.317 298.88 75 302.06 75 305.375V500H37.5C34.1848 500 31.0054 501.317 28.6612 503.661C26.317 506.005 25 509.185 25 512.5C25 515.815 26.317 518.995 28.6612 521.339C31.0054 523.683 34.1848 525 37.5 525H75V562.5C75 565.815 76.317 568.995 78.6612 571.339C81.0054 573.683 84.1848 575 87.5 575C90.8152 575 93.9946 573.683 96.3388 571.339C98.683 568.995 100 565.815 100 562.5V525H500V562.5C500 565.815 501.317 568.995 503.661 571.339C506.005 573.683 509.185 575 512.5 575C515.815 575 518.995 573.683 521.339 571.339C523.683 568.995 525 565.815 525 562.5V525H562.5C565.815 525 568.995 523.683 571.339 521.339C573.683 518.995 575 515.815 575 512.5C575 509.185 573.683 506.005 571.339 503.661C568.995 501.317 565.815 500 562.5 500ZM475 500H114.625C111.756 500.153 108.908 499.435 106.454 497.94C104 496.446 102.055 494.244 100.875 491.625C100.352 490.31 100.056 488.915 100 487.5C99.871 485.871 100.12 484.233 100.727 482.716C101.334 481.198 102.283 479.841 103.5 478.75L242.25 342.25C243.793 340.745 245.639 339.588 247.666 338.855C249.692 338.122 251.852 337.831 254 338C256.096 338.072 258.155 338.575 260.047 339.478C261.94 340.382 263.626 341.666 265 343.25L320.125 408.75C323.852 413.034 328.427 416.497 333.562 418.92C338.697 421.343 344.28 422.673 349.956 422.826C355.631 422.979 361.277 421.951 366.535 419.808C371.793 417.664 376.548 414.452 380.5 410.375L431.125 357C432.691 355.441 434.563 354.223 436.623 353.423C438.683 352.624 440.886 352.259 443.094 352.353C445.302 352.447 447.466 352.997 449.451 353.969C451.435 354.941 453.197 356.313 454.625 358L497.375 413.25C498.906 415.215 499.741 417.634 499.75 420.125V487.5C499.463 491.095 497.762 494.429 495.021 496.772C492.279 499.115 488.721 500.276 485.125 500H475ZM37.5 100H75V239C75 242.315 76.317 245.495 78.6612 247.839C81.0054 250.183 84.1848 251.5 87.5 251.5C90.8152 251.5 93.9946 250.183 96.3388 247.839C98.683 245.495 100 242.315 100 239V112.5C100 109.185 101.317 106.005 103.661 103.661C106.005 101.317 109.185 100 112.5 100H211.75C215.065 100 218.245 98.683 220.589 96.3388C222.933 93.9946 224.25 90.8152 224.25 87.5C224.25 84.1848 222.933 81.0054 220.589 78.6612C218.245 76.317 215.065 75 211.75 75H100V37.5C100 34.1848 98.683 31.0054 96.3388 28.6612C93.9946 26.317 90.8152 25 87.5 25C84.1848 25 81.0054 26.317 78.6612 28.6612C76.317 31.0054 75 34.1848 75 37.5V75H37.5C34.1848 75 31.0054 76.317 28.6612 78.6612C26.317 81.0054 25 84.1848 25 87.5C25 90.8152 26.317 93.9946 28.6612 96.3388C31.0054 98.683 34.1848 100 37.5 100Z" fill="#19164C"/>
</svg>
