<svg width="265" height="266" viewBox="0 0 265 266" fill="none" xmlns="http://www.w3.org/2000/svg">
<path d="M190.315 21.4478C216.549 34.8791 242.756 51.5106 255.187 78.1096C267.664 104.805 267.257 136.602 257.047 164.231C247.642 189.679 223.022 204.394 202.093 221.78C182.269 238.247 163.886 257.272 138.614 262.61C111.756 268.284 81.2205 268 58.9683 252.014C37.3867 236.51 36.2028 206.273 26.1046 181.785C16.5185 158.539 -5.1007 136.743 1.42577 112.472C7.93147 88.2781 39.9107 82.8092 57.5326 64.908C76.789 45.3463 82.7981 11.8013 108.953 3.24081C136.02 -5.61835 164.982 8.47779 190.315 21.4478Z" fill="#282065" fill-opacity="0.08"/>
<g clip-path="url(#clip0_234_3)">
<path d="M156.053 90.3669C153.01 90.3669 149.966 90.3669 146.923 90.3669C146.843 89.9694 146.763 89.6514 146.603 89.254C145.962 86.8691 144.68 84.8818 142.999 83.0534C139.715 79.5557 138.674 75.422 140.035 70.8113C141.477 66.1211 144.68 63.1799 149.406 62.1464C154.291 61.113 159.336 63.6568 161.899 68.188C164.382 72.7192 163.901 78.4427 160.538 82.338C159.016 84.0868 157.574 85.7562 156.774 87.9821C156.533 88.777 156.373 89.5719 156.053 90.3669ZM149.646 78.4427C149.165 77.8863 148.925 77.4888 148.525 77.0913C148.044 76.6144 147.484 76.5349 147.003 77.0119C146.522 77.4888 146.603 78.1248 147.083 78.6017C147.644 79.2377 148.204 79.7941 148.845 80.3506C149.566 81.0661 150.046 81.0661 150.687 80.3506C152.449 78.6017 154.131 76.7734 155.893 75.0245C156.533 74.3885 156.613 73.6731 156.133 73.2756C155.492 72.7192 154.932 72.9576 154.371 73.5141C152.769 75.104 151.328 76.6939 149.646 78.4427Z" fill="#82CBAD"/>
<path d="M150.843 99.8266C149.481 99.8266 148.12 99.8266 146.758 99.8266C144.916 99.8266 143.555 98.6342 143.555 97.0443C143.555 95.3749 144.836 94.103 146.758 94.103C149.561 94.103 152.284 94.103 155.087 94.103C156.929 94.103 158.291 95.3749 158.291 96.9648C158.291 98.5547 156.929 99.8266 155.007 99.8266C153.646 99.8266 152.284 99.8266 150.843 99.8266Z" fill="#82CBAD"/>
<path d="M96.3838 152.452H92.2193C89.4163 152.452 87.0938 150.146 87.0938 147.364V117.872C87.0938 115.09 89.4163 112.784 92.2193 112.784H96.3838C99.1869 112.784 101.509 115.09 101.509 117.872V147.364C101.429 150.146 99.1869 152.452 96.3838 152.452Z" fill="#82CBAD"/>
<path d="M102.632 117.156C102.632 125.742 102.632 134.168 102.632 142.753C103.433 142.753 104.233 142.753 105.034 142.753C107.117 142.674 108.959 143.23 110.72 144.264C116.246 147.523 121.933 150.703 127.459 153.962C129.621 155.234 131.703 155.393 134.026 154.519C144.757 150.623 155.409 146.728 166.141 142.833C167.502 142.356 168.143 142.435 168.463 143.23C168.783 144.025 168.383 144.502 167.021 145.059C156.37 148.954 145.638 152.77 134.987 156.744C131.863 157.857 129.06 157.698 126.177 156.029C120.811 152.849 115.446 149.828 110.08 146.728C107.437 145.218 105.915 144.9 102.712 145.377C102.712 146.013 102.712 146.649 102.712 147.285C102.632 150.623 100.469 153.008 97.1857 153.167C93.9823 153.326 90.8589 153.326 87.6554 153.167C84.3718 153.008 82.1294 150.623 82.1294 147.364C82.1294 138.938 82.1294 130.511 82.1294 122.085C82.1294 121.211 82.2896 120.575 83.3307 120.495C84.1316 120.416 84.532 121.052 84.532 122.164C84.532 130.273 84.532 138.461 84.532 146.569C84.532 149.51 85.7333 150.782 88.7766 150.782C91.3394 150.782 93.9823 150.782 96.545 150.782C99.0277 150.782 100.389 149.431 100.389 146.887C100.389 136.076 100.389 125.265 100.389 114.533C100.389 111.989 99.1078 110.638 96.465 110.638C93.6619 110.638 90.939 110.638 88.1359 110.638C85.8935 110.638 84.532 111.989 84.4519 114.215C84.4519 115.089 84.4519 115.884 84.4519 116.759C84.4519 117.474 84.0515 118.031 83.2506 118.031C82.4497 118.031 82.1294 117.554 82.1294 116.759C82.1294 115.566 82.0493 114.295 82.2095 113.102C82.5298 110.399 84.9324 108.332 87.8156 108.253C90.8589 108.173 93.9022 108.173 96.9455 108.253C100.229 108.332 102.552 110.638 102.712 113.818C102.712 114.136 102.792 114.454 102.792 114.851C104.474 114.851 106.155 114.93 107.757 114.851C110.24 114.772 112.402 115.566 114.324 116.997C119.049 120.416 123.775 123.754 128.42 127.093C129.941 128.206 131.623 128.762 133.545 128.762C138.03 128.762 142.435 128.762 146.92 128.762C151.164 128.762 153.407 131.068 153.166 135.281C153.166 135.361 153.166 135.44 153.247 135.678C156.21 134.725 159.173 133.771 162.136 132.737C166.221 131.386 170.385 130.034 174.47 128.683C178.314 127.491 182.078 129.557 182.879 133.373C183.519 136.235 181.998 139.335 179.275 140.528C176.952 141.482 174.55 142.277 172.147 143.151C171.426 143.389 170.705 143.23 170.465 142.435C170.225 141.641 170.625 141.164 171.426 140.925C173.589 140.13 175.831 139.335 177.993 138.54C179.595 137.904 180.476 136.712 180.556 134.963C180.636 133.214 179.915 131.942 178.314 131.147C177.273 130.591 176.231 130.591 175.11 130.909C167.262 133.532 159.333 135.996 151.565 138.779C149.482 139.494 147.48 139.812 145.398 139.812C140.112 139.812 134.827 139.812 129.621 139.812C129.301 139.812 128.9 139.892 128.74 139.733C128.34 139.415 127.699 139.017 127.699 138.62C127.699 138.222 128.259 137.745 128.74 137.507C129.06 137.348 129.621 137.427 130.021 137.427C135.868 137.427 141.634 137.427 147.48 137.427C149.723 137.427 150.764 136.473 150.764 134.407C150.764 132.499 149.402 131.227 147.4 131.227C142.995 131.227 138.591 131.147 134.186 131.227C131.303 131.306 128.82 130.511 126.578 128.762C122.013 125.424 117.368 122.164 112.803 118.826C111.281 117.713 109.519 117.156 107.677 117.156C105.915 117.156 104.313 117.156 102.632 117.156Z" fill="#1D1655"/>
<path d="M160.695 96.8852C161.816 97.2032 162.938 97.5212 163.979 97.9187C170.706 100.78 174.39 105.868 174.951 113.102C175.111 115.248 175.031 117.474 175.031 119.621C175.031 120.495 174.79 121.131 173.829 121.21C173.109 121.29 172.628 120.654 172.628 119.621C172.548 117.077 172.708 114.612 172.468 112.069C171.907 105.868 166.702 100.462 160.615 99.3495C160.295 99.2701 159.734 99.5085 159.574 99.747C158.293 101.337 156.691 102.132 154.689 102.132C151.565 102.132 148.442 102.132 145.319 102.132C143.316 102.132 141.635 101.257 140.353 99.6675C140.193 99.429 139.632 99.2701 139.312 99.2701C133.065 100.383 127.86 106.027 127.379 112.307C127.219 114.612 127.299 116.918 127.219 119.223C127.219 119.621 127.219 120.098 126.979 120.416C126.738 120.733 126.178 121.051 125.777 120.972C125.377 120.892 124.896 120.416 124.896 120.098C124.896 116.123 124.336 112.148 125.777 108.332C128.02 102.37 132.184 98.6341 138.351 97.0442C138.591 96.9647 138.831 96.8852 139.152 96.8057C139.072 94.4209 139.953 92.513 142.035 91.1616C142.275 91.0027 142.275 90.4462 142.195 90.1282C141.635 87.8229 140.433 85.915 138.751 84.2456C136.269 81.7813 134.747 78.9195 134.106 75.5013C132.505 66.5184 139.793 57.5356 149.003 57.2176C158.533 56.8201 166.141 64.1336 165.821 73.5139C165.661 77.5681 164.139 81.0659 161.336 84.0072C159.574 85.8355 158.213 87.8229 157.572 90.3667C157.412 90.9232 157.572 91.1616 157.972 91.4796C159.894 92.7515 160.775 94.5799 160.695 96.8852ZM155.089 90.3667C155.409 89.4923 155.65 88.6973 155.89 87.9024C156.771 85.5176 158.453 83.6097 160.215 81.7813C163.979 77.5681 164.539 71.2881 161.736 66.4389C158.853 61.5103 153.087 58.728 147.641 59.8409C142.275 60.8743 138.591 64.0541 136.989 69.1417C135.388 74.1499 136.669 78.6811 140.353 82.4173C142.275 84.3251 143.717 86.551 144.438 89.0948C144.518 89.4923 144.678 89.8897 144.758 90.2872C148.202 90.3667 151.645 90.3667 155.089 90.3667ZM149.883 99.8265C151.485 99.8265 153.007 99.8265 154.609 99.8265C156.771 99.8265 158.293 98.3161 158.293 96.3288C158.293 94.3414 156.771 92.7515 154.609 92.7515C151.485 92.7515 148.362 92.672 145.158 92.7515C143.076 92.7515 141.554 94.3414 141.554 96.4083C141.554 98.3956 143.076 99.8265 145.238 99.8265C146.76 99.8265 148.362 99.8265 149.883 99.8265Z" fill="#1D1655"/>
<path d="M138.356 115.248C138.356 116.759 138.356 118.19 138.356 119.7C138.356 120.574 138.035 121.131 137.154 121.131C136.354 121.131 135.953 120.574 135.953 119.779C135.953 116.759 135.953 113.738 135.953 110.717C135.953 109.922 136.273 109.366 137.074 109.366C137.955 109.366 138.276 109.922 138.276 110.797C138.356 112.307 138.356 113.738 138.356 115.248Z" fill="#1D1655"/>
<path d="M163.823 115.249C163.823 116.759 163.823 118.269 163.823 119.78C163.823 120.575 163.502 121.131 162.701 121.131C161.9 121.131 161.5 120.575 161.5 119.78C161.5 116.759 161.5 113.659 161.5 110.638C161.5 109.843 161.82 109.286 162.701 109.366C163.582 109.366 163.823 109.922 163.823 110.717C163.823 112.228 163.823 113.738 163.823 115.249Z" fill="#1D1655"/>
<path d="M172.226 86.4713C171.825 86.3123 171.585 86.3123 171.345 86.1533C169.983 85.4379 168.702 84.6429 167.34 83.848C166.7 83.4505 166.459 82.8941 166.86 82.1786C167.26 81.5427 167.821 81.3837 168.542 81.7812C169.903 82.4966 171.265 83.212 172.466 84.0865C172.786 84.325 173.107 84.9609 173.027 85.4379C173.027 85.9149 172.466 86.2328 172.226 86.4713Z" fill="#1D1655"/>
<path d="M127.701 58.6484C128.182 58.8074 128.422 58.8869 128.662 59.0459C129.943 59.7614 131.145 60.4768 132.426 61.1923C133.067 61.5897 133.467 62.0667 133.067 62.8616C132.666 63.6566 131.946 63.6566 131.225 63.2591C129.943 62.5437 128.582 61.8282 127.381 60.9538C126.98 60.7153 126.74 60.0793 126.82 59.6024C126.9 59.2844 127.381 58.9664 127.701 58.6484Z" fill="#1D1655"/>
<path d="M127.619 86.3917C127.458 86.2328 126.898 85.9943 126.818 85.5968C126.738 85.1993 126.898 84.5634 127.138 84.4044C128.58 83.4505 130.101 82.576 131.623 81.7811C131.943 81.6221 132.664 81.9401 132.904 82.1785C133.145 82.4965 133.064 83.371 132.904 83.5299C131.383 84.5634 129.701 85.4378 128.099 86.3122C128.019 86.3917 127.939 86.3917 127.619 86.3917Z" fill="#1D1655"/>
<path d="M166.7 61.9873C166.86 61.8283 167.02 61.4308 167.421 61.1923C168.702 60.3974 169.984 59.6819 171.265 58.9665C171.986 58.569 172.626 58.6485 173.027 59.364C173.427 60.0794 173.107 60.6359 172.466 60.9538C171.185 61.6693 169.903 62.4642 168.542 63.1797C167.581 63.8156 166.62 63.2592 166.7 61.9873Z" fill="#1D1655"/>
<path d="M126.821 73.7526C126.1 73.7526 125.299 73.7526 124.578 73.7526C123.777 73.7526 123.297 73.3551 123.297 72.6397C123.297 71.8447 123.697 71.4473 124.498 71.4473C126.1 71.4473 127.622 71.4473 129.223 71.4473C129.944 71.4473 130.425 71.8447 130.425 72.6397C130.425 73.4346 129.864 73.7526 129.143 73.7526C128.342 73.7526 127.622 73.7526 126.821 73.7526Z" fill="#1D1655"/>
<path d="M173.032 73.7526C172.311 73.7526 171.51 73.7526 170.789 73.7526C169.988 73.7526 169.508 73.3551 169.508 72.6397C169.508 71.8447 169.908 71.4473 170.709 71.4473C172.311 71.4473 173.833 71.4473 175.434 71.4473C176.155 71.4473 176.636 71.8447 176.636 72.6397C176.636 73.3551 176.155 73.7526 175.434 73.7526C174.553 73.7526 173.833 73.7526 173.032 73.7526Z" fill="#1D1655"/>
<path d="M149.642 78.2837C151.484 76.4553 153.085 74.7859 154.687 73.1166C155.248 72.5601 155.888 72.2421 156.609 72.7986C157.17 73.2755 157.09 73.991 156.369 74.7064C154.527 76.6143 152.605 78.5222 150.763 80.3505C149.962 81.1455 149.481 81.1455 148.761 80.3505C148.12 79.7146 147.479 79.0786 146.919 78.4427C146.438 77.8862 146.358 77.3298 146.838 76.7733C147.399 76.2168 147.96 76.2963 148.52 76.8528C148.841 77.2503 149.241 77.7272 149.642 78.2837Z" fill="#1D1655"/>
<path d="M84.2131 115.805H81.8906V125.98H84.2131V115.805Z" fill="#1D1655"/>
</g>
<defs>
<clipPath id="clip0_234_3">
<rect width="101.07" height="100.242" fill="white" transform="translate(81.8906 57.2178)"/>
</clipPath>
</defs>
</svg>
