<svg width="463" height="524" viewBox="0 0 463 524" fill="none" xmlns="http://www.w3.org/2000/svg">
<path d="M313.191 41.4024C366.073 67.9112 418.9 100.736 443.959 153.233C469.108 205.92 468.289 268.676 447.707 323.207C428.75 373.432 379.122 402.475 336.932 436.788C296.971 469.289 259.916 506.837 208.973 517.373C154.835 528.571 93.2813 528.01 48.4259 496.46C4.92227 465.86 2.5357 406.184 -17.82 357.852C-37.1434 311.972 -80.7228 268.955 -67.5669 221.053C-54.4529 173.302 10.0101 162.508 45.5317 127.178C84.3485 88.5697 96.4613 22.3636 149.183 5.4682C203.744 -12.0167 262.125 15.8042 313.191 41.4024Z" fill="#282065"/>
</svg>
