<svg width="774" height="736" viewBox="0 0 774 736" fill="none" xmlns="http://www.w3.org/2000/svg">
<path d="M575.146 58.153C654.519 95.3867 733.809 141.492 771.421 215.228C809.168 289.231 807.939 377.377 777.046 453.97C748.593 524.515 674.104 565.308 610.78 613.504C550.801 659.154 495.184 711.893 418.721 726.692C337.463 742.42 245.075 741.632 177.75 697.317C112.454 654.338 108.872 570.518 78.319 502.632C49.3157 438.189 -16.0943 377.769 3.65192 310.486C23.3352 243.417 120.09 228.256 173.406 178.631C231.667 124.403 249.848 31.4114 328.98 7.68052C410.873 -16.8784 498.499 22.1982 575.146 58.153Z" fill="#282065"/>
</svg>
