<svg width="558" height="626" viewBox="0 0 558 626" fill="none" xmlns="http://www.w3.org/2000/svg">
<path d="M488.874 49.4617C556.341 81.1305 623.737 120.345 655.707 183.061C687.793 246.004 686.748 320.976 660.489 386.122C636.304 446.122 572.989 480.819 519.163 521.812C468.181 560.639 420.907 605.496 355.913 618.083C286.844 631.46 208.314 630.791 151.088 593.099C95.5856 556.543 92.5409 485.25 66.5711 427.511C41.9183 372.699 -13.6801 321.309 3.10413 264.082C19.835 207.037 102.077 194.142 147.395 151.934C196.917 105.81 212.371 26.7168 279.633 6.53262C349.242 -14.3558 423.724 18.8805 488.874 49.4617Z" fill="#282065"/>
</svg>
