<svg width="39" height="16" viewBox="0 0 39 16" fill="none" xmlns="http://www.w3.org/2000/svg">
<g clip-path="url(#clip0_92_1821)">
<path d="M34.424 9.06796H15.2388C15.0232 9.07613 14.8074 9.07277 14.5921 9.05791C14.2989 9.04747 14.0213 8.92372 13.8176 8.71273C13.6138 8.50175 13.5 8.21998 13.5 7.92678C13.5 7.63357 13.6138 7.35181 13.8176 7.14082C14.0213 6.92983 14.2989 6.80609 14.5921 6.79564C14.8074 6.7808 15.0232 6.77744 15.2388 6.78559H34.3866C34.1941 6.55577 34.0805 6.39777 33.9469 6.26276C32.6046 4.90013 31.259 3.53894 29.91 2.17919C29.2949 1.55437 29.2259 0.91232 29.7045 0.412467C30.2147 -0.117549 30.8671 -0.0629673 31.5196 0.592012C33.6159 2.69388 35.7083 4.80054 37.7969 6.91199C38.5284 7.65028 38.527 8.20471 37.7969 8.93869C35.7074 11.0454 33.6144 13.152 31.5182 15.2587C30.8657 15.9137 30.2176 15.9768 29.7045 15.444C29.2231 14.9484 29.2892 14.2949 29.9043 13.6772C31.2149 12.3472 32.5342 11.0257 33.8477 9.69853C34.0116 9.53335 34.161 9.35524 34.424 9.06796Z" fill="#82CBAD"/>
</g>
<ellipse cx="3.86979" cy="8.16015" rx="3.04167" ry="3.04005" fill="#82CBAD"/>
<defs>
<clipPath id="clip0_92_1821">
<rect width="28.3889" height="15.741" fill="white" transform="translate(9.95312 0.0533447)"/>
</clipPath>
</defs>
</svg>
