<svg width="155" height="156" viewBox="0 0 155 156" fill="none" xmlns="http://www.w3.org/2000/svg">
<path d="M111.435 12.3259C126.813 20.2178 142.175 29.9901 149.463 45.619C156.776 61.3044 156.538 79.9875 150.553 96.222C145.04 111.174 130.608 119.821 118.339 130.036C106.718 139.712 95.9419 150.89 81.1272 154.027C65.3835 157.361 47.4833 157.194 34.4391 147.801C21.7879 138.691 21.0939 120.925 15.1743 106.536C9.55492 92.8771 -3.11826 80.0707 0.707559 65.8095C4.5212 51.5938 23.2675 48.3804 33.5974 37.8621C44.8856 26.3681 48.4081 6.65786 63.7398 1.62794C79.6066 -3.57749 96.5843 4.70506 111.435 12.3259Z" fill="#2FBC88"/>
<g clip-path="url(#clip0_719_112)">
<path d="M88.8166 90.9977C88.7722 90.5035 88.8166 89.9643 88.6832 89.4701C88.2831 87.5831 86.6824 86.325 84.7705 86.325C82.414 86.325 80.0574 86.325 77.7453 86.325C77.4786 86.325 77.1229 86.1902 76.9006 86.0105C75.8334 85.2917 74.7663 84.4829 73.6992 83.7191C75.211 82.5959 76.9006 82.3712 78.7235 83.135C79.7462 83.5843 79.8796 83.5394 80.5021 82.5959C82.5029 79.5856 86.8603 79.5407 88.8611 82.5959C89.1723 83.0901 89.528 83.3148 90.1505 83.3148C92.7294 83.4495 94.6857 85.3366 94.9081 87.8526C94.9081 88.0324 94.8191 88.3469 94.6413 88.4367C92.7738 89.3353 90.8619 90.189 88.95 91.0426C88.9056 90.9977 88.8611 90.9977 88.8166 90.9977Z" fill="#82CBAD"/>
<path d="M49.6016 105.061C49.6016 97.1083 49.6016 89.1557 49.6016 81.1582C50.9355 81.1582 52.2693 81.0684 53.5588 81.2032C54.537 81.293 55.2484 82.3264 55.2484 83.4946C55.2484 85.5164 55.2484 87.5383 55.2484 89.5601C55.2484 93.8733 55.2484 98.2315 55.2484 102.545C55.2484 104.297 54.448 105.151 52.8918 105.151C51.8247 105.151 50.8021 105.151 49.735 105.151C49.6905 105.106 49.646 105.061 49.6016 105.061Z" fill="#82CBAD"/>
<path d="M56.3145 81.8772C57.4705 81.8772 58.5821 81.8772 59.6937 81.8772C62.0502 81.8772 64.4512 81.8323 66.8077 81.9221C67.9638 81.967 69.1198 82.2366 70.2759 82.3265C70.4982 82.3714 70.8539 82.2816 70.9873 82.1468C73.1215 80.2148 75.5225 79.6756 78.2792 80.4844C78.457 80.5293 78.7683 80.4844 78.9017 80.3945C80.5913 78.3277 82.77 77.4741 85.5267 77.5639C85.5267 76.3958 85.5267 75.2276 85.5267 74.0594C85.5267 73.9246 85.3933 73.7449 85.2599 73.6101C84.5485 72.9811 83.8371 72.397 83.0367 71.7231C82.8589 71.9927 82.7255 72.1724 82.5921 72.3521C80.9914 74.5537 78.1458 75.003 76.0116 73.3855C75.0779 72.6666 74.1886 71.813 73.2993 71.0492C72.3656 70.2404 71.2985 69.6563 70.098 69.3418C69.6534 69.207 69.2532 69.0273 69.1643 68.4882C69.0754 67.949 69.3866 67.6794 69.7868 67.4099C72.3212 65.8822 74.9 64.5793 77.879 64.1749C80.9914 63.7706 83.5703 66.062 83.5258 69.252C83.5258 69.7013 83.6147 69.9259 83.9705 70.1506C84.5485 70.51 85.082 70.9593 85.6156 71.3637C85.9268 69.7911 86.2825 68.2186 86.5493 66.6461C86.5938 66.4663 86.327 66.1968 86.1936 66.062C83.7926 63.7256 82.8589 60.94 83.7481 57.6601C84.2372 55.9079 85.3043 54.6049 86.6827 53.5266C89.1726 51.5946 92.0182 50.3815 94.9973 49.4829C96.8647 48.8989 98.7766 48.4945 100.689 48.0452C101.178 47.9104 101.667 47.8655 101.978 48.4046C102.245 48.8539 102.067 49.3032 101.8 49.7076C100.111 52.3135 99.5325 55.2339 99.3102 58.2891C99.1768 59.7269 98.9989 61.2096 98.7322 62.6473C97.9318 66.5562 93.8857 68.6679 90.3731 68.0838C89.7062 67.949 88.9948 67.7693 88.2389 67.5446C88.0166 68.623 87.7498 69.7462 87.6164 70.8694C87.3941 73.071 87.3496 75.2725 87.1718 77.4292C87.1273 77.7886 87.2607 78.0132 87.6609 78.193C88.728 78.6872 89.6172 79.451 90.3731 80.3945C90.5065 80.5742 90.7288 80.7539 90.9511 80.7989C94.686 81.4728 96.6424 83.3149 97.5317 87.089V87.1339C98.4209 86.9542 99.3102 86.6847 100.199 86.5499C103.845 86.1455 106.913 87.3586 109.359 90.0544C109.981 90.7732 109.937 91.2675 109.136 91.8066C101.711 96.4344 94.3748 101.197 86.8605 105.645C80.0577 109.689 72.8547 109.913 65.5628 106.858C62.6282 105.645 59.7826 104.297 56.848 103.039C56.6702 102.949 56.4479 102.859 56.2256 102.769C56.1811 102.859 56.1366 102.949 56.1366 102.994C55.5586 105.78 54.1358 106.948 51.3346 106.948C49.9118 106.948 48.489 106.948 47.0662 106.948C46.2214 106.948 45.9102 106.633 45.9102 105.825C45.9102 96.7938 45.9102 87.763 45.9102 78.777C45.9991 77.9234 46.3103 77.6538 47.1551 77.6538C48.7113 77.6538 50.2231 77.6538 51.7793 77.6538C54.1803 77.6538 55.8254 79.0466 56.2256 81.4279C56.27 81.5177 56.3145 81.6525 56.3145 81.8772ZM56.359 83.7642C56.3145 83.899 56.3145 83.9439 56.3145 83.9889C56.3145 89.4254 56.3145 94.8618 56.3145 100.343C56.3145 100.748 56.5368 100.882 56.848 100.972C60.0938 102.41 63.3841 103.848 66.6299 105.286C68.853 106.229 71.1651 106.858 73.5661 106.993C78.5015 107.307 82.9923 106.094 87.1718 103.488C93.7523 99.3099 100.422 95.2213 107.002 91.0878C107.18 90.9979 107.358 90.8631 107.536 90.7283C105.09 88.347 101.355 87.6731 98.1541 89.0659C94.5082 90.6834 90.8622 92.3907 87.2162 94.0531C86.327 94.4575 85.3933 94.6821 84.4151 94.6821C80.5468 94.6821 76.723 94.6821 72.8547 94.6821C71.8321 94.6821 71.3874 94.4125 71.3874 93.7835C71.3874 93.1545 71.8321 92.84 72.8547 92.84C76.8119 92.84 80.7247 92.84 84.6819 92.84C86.0602 92.84 87.1273 92.0313 87.3496 90.8182C87.6609 89.2007 86.5493 87.8079 84.8597 87.763C82.1475 87.763 79.3908 87.763 76.6785 87.718C76.2784 87.718 75.7448 87.4934 75.478 87.2238C72.9881 84.9324 70.098 83.7193 66.7633 83.7193C63.5175 83.7193 60.2717 83.7193 56.9814 83.7193C56.7591 83.7193 56.5813 83.7642 56.359 83.7642ZM47.8665 105.061C47.9555 105.106 47.9555 105.151 47.9999 105.151C49.2449 105.151 50.4454 105.151 51.6903 105.151C53.5133 105.151 54.447 104.207 54.447 102.365C54.447 97.7373 54.447 93.1096 54.447 88.4818C54.447 86.3252 54.447 84.1686 54.447 82.012C54.447 80.7539 53.6467 79.6307 52.4907 79.5408C50.9789 79.451 49.4227 79.4959 47.8665 79.4959C47.8665 88.0775 47.8665 96.5692 47.8665 105.061ZM87.3052 64.4445C87.9277 63.1865 88.5057 61.8835 89.1726 60.6704C90.2842 58.6935 91.7959 57.076 93.7078 55.8629C94.2414 55.5484 94.775 55.6383 95.0417 56.0876C95.353 56.5369 95.2196 57.0311 94.7305 57.3906C94.6416 57.4804 94.5082 57.5253 94.4193 57.6152C91.6181 59.5921 90.0174 62.4227 88.9503 65.6127C92.0627 67.32 96.3756 65.6576 97.087 62.243C97.2649 61.4791 97.3983 60.6704 97.4872 59.8617C97.754 57.8398 97.9318 55.7731 98.332 53.7513C98.5543 52.5831 99.0434 51.4598 99.4436 50.2467C99.3102 50.2467 99.2212 50.2467 99.1323 50.2917C97.176 50.8758 95.2196 51.4149 93.3077 52.1338C91.0845 52.9425 88.9948 54.0208 87.2607 55.6832C84.7263 58.1094 84.7708 62.2429 87.3052 64.4445ZM89.2171 90.9979C89.2615 90.9979 89.306 90.9979 89.3505 90.9979C91.3958 90.0544 93.4855 89.1558 95.5308 88.1673C95.7087 88.0775 95.8421 87.763 95.7976 87.5383C95.5308 84.7976 93.3966 82.7758 90.5954 82.641C89.9285 82.5961 89.5728 82.3714 89.2171 81.8323C87.0384 78.5524 82.3253 78.5524 80.1466 81.8323C79.4797 82.8656 79.3463 82.8656 78.2347 82.4163C76.2784 81.6076 74.4109 81.8323 72.7658 83.0454C73.9218 83.899 75.0779 84.7078 76.2784 85.5165C76.5451 85.6962 76.9008 85.8759 77.2121 85.8759C79.7465 85.9209 82.3253 85.8759 84.8597 85.8759C86.9495 85.8759 88.6391 87.2687 89.0837 89.2906C89.2171 89.8747 89.1726 90.4138 89.2171 90.9979ZM81.7028 68.623C81.7028 67.4099 80.4579 66.1069 79.0351 66.062C76.5896 65.9721 74.4998 67.0504 72.3656 68.1287C73.0326 68.578 73.655 68.9375 74.2331 69.3868C74.8111 69.8361 75.3446 70.3752 75.9227 70.8694C76.4117 71.2738 76.9453 71.7231 77.4789 72.0825C78.5015 72.8463 80.7691 72.397 81.3916 70.6897C81.2582 70.5999 81.0804 70.4651 80.947 70.4201C79.7465 70.1506 78.546 69.8361 77.301 69.6114C76.6785 69.4766 76.3228 69.252 76.3228 68.6679C76.3228 68.0838 76.723 67.7244 77.3455 67.7244C77.5678 67.7244 77.8346 67.7244 78.0569 67.7693C79.3018 68.0838 80.5468 68.3534 81.7028 68.623Z" fill="#19164C"/>
<path d="M56.357 83.7642C56.5793 83.7642 56.7571 83.7192 56.9794 83.7192C60.2252 83.7192 63.471 83.7192 66.7613 83.7192C70.1405 83.7192 73.0306 84.9323 75.476 87.2237C75.7873 87.4933 76.2764 87.718 76.6765 87.718C79.3888 87.7629 82.1455 87.718 84.8577 87.7629C86.5028 87.7629 87.6589 89.1557 87.3476 90.8181C87.1253 92.0312 86.0582 92.8399 84.6799 92.8399C80.7227 92.8399 76.8099 92.8399 72.8527 92.8399C71.8301 92.8399 71.3854 93.1095 71.3854 93.7835C71.3854 94.4125 71.8301 94.6821 72.8527 94.6821C76.721 94.6821 80.5448 94.6821 84.4131 94.6821C85.3913 94.6821 86.325 94.4574 87.2143 94.053C90.8602 92.3457 94.4617 90.6833 98.1521 89.0659C101.353 87.673 105.088 88.347 107.534 90.7283C107.356 90.863 107.178 90.9978 107 91.0877C100.375 95.2212 93.7503 99.3098 87.1698 103.488C82.9903 106.139 78.4551 107.352 73.5641 106.993C71.1631 106.813 68.8511 106.229 66.6279 105.285C63.3821 103.848 60.0919 102.41 56.8461 100.972C56.5348 100.837 56.3125 100.748 56.3125 100.343C56.3125 94.9067 56.3125 89.4702 56.3125 83.9888C56.3125 83.9439 56.3125 83.899 56.357 83.7642Z" fill="white"/>
<path d="M87.1255 64.5794C84.8134 62.5576 84.769 58.7385 87.0366 56.537C88.6372 55.0094 90.5936 54.0209 92.6389 53.2571C94.4174 52.6281 96.2404 52.1339 98.0189 51.5498C98.1078 51.5049 98.1968 51.5049 98.3302 51.5049C97.9745 52.5832 97.4854 53.6166 97.3075 54.7398C96.9518 56.6269 96.8184 58.5139 96.5516 60.4009C96.4627 61.1198 96.3293 61.8387 96.1959 62.5576C95.529 65.7026 91.5718 67.2302 88.6817 65.6577C89.6599 62.7373 91.1272 60.0864 93.706 58.2893C93.7949 58.1994 93.9283 58.1545 94.0172 58.0646C94.5063 57.7052 94.5953 57.2559 94.3285 56.8515C94.0617 56.4471 93.5726 56.3573 93.0835 56.6718C91.305 57.795 89.9267 59.3226 88.904 61.1198C88.2371 62.2431 87.7035 63.4112 87.1255 64.5794Z" fill="#82CBAD"/>
<path d="M82.1459 68.8474C81.0343 68.6228 79.8783 68.3532 78.7667 68.1285C78.5444 68.0836 78.3221 68.0836 78.0998 68.0836C77.4773 68.0836 77.1216 68.4431 77.1216 68.9822C77.1216 69.5214 77.4773 69.746 78.0553 69.8359C79.2114 70.0605 80.3229 70.3301 81.479 70.5997C81.6124 70.6446 81.7458 70.7345 81.9236 70.8243C81.3456 72.4418 79.2114 72.8462 78.2332 72.1273C77.7441 71.7678 77.255 71.3635 76.7659 70.9591C76.2323 70.5098 75.7433 70.0156 75.1652 69.5663C74.6317 69.1619 74.0537 68.8025 73.3867 68.3532C75.3876 67.3198 77.3439 66.3314 79.656 66.4212C80.9899 66.5111 82.1904 67.7242 82.1459 68.8474Z" fill="#82CBAD"/>
</g>
<defs>
<clipPath id="clip0_719_112">
<rect width="63.9377" height="60.9695" fill="white" transform="translate(46 48)"/>
</clipPath>
</defs>
</svg>
