<svg width="60" height="74" viewBox="0 0 60 74" fill="none" xmlns="http://www.w3.org/2000/svg">
<path d="M3.87545 40.9218C3.87565 40.922 3.87575 40.9222 4.00185 40.7987L3.87585 40.9222L21.3801 58.7739L21.3803 58.7741L22.548 59.9643C22.548 59.9644 22.548 59.9644 22.548 59.9644C30.6034 68.1764 43.7966 68.3058 52.0107 60.2518L52.0108 60.2517C59.5409 52.8645 60.2753 41.1672 54.1403 32.9402C52.0918 30.1932 50.3759 27.1977 48.7083 24.14L44.5012 16.4268L44.4832 16.392C44.4673 16.3617 44.4451 16.3209 44.4167 16.2716C44.3601 16.1731 44.2777 16.0392 44.169 15.8857C43.9539 15.582 43.6235 15.1841 43.1697 14.8346C42.7131 14.4829 42.1176 14.1702 41.3852 14.069C40.6466 13.9669 39.828 14.0883 38.9467 14.5147L38.9462 14.5149C38.0654 14.9417 37.4626 15.5084 37.0846 16.151C36.7099 16.7882 36.5859 17.4491 36.5785 18.0254C36.5711 18.598 36.6783 19.104 36.7831 19.461C36.8361 19.6414 36.89 19.7891 36.932 19.8946C36.9531 19.9475 36.9714 19.9901 36.9852 20.0214L36.9951 20.0431L41.4943 31.5834L41.5019 31.603L41.5068 31.6139C41.27 31.4629 40.947 31.1868 40.5495 30.7185L40.5303 30.6959L40.5096 30.6747L39.3435 29.4841L39.343 29.4837L38.0453 28.1607L38.0452 28.1606L21.8392 11.6338L21.8391 11.6337L21.2442 12.2172C21.8391 11.6337 21.8388 11.6334 21.8385 11.6331L21.8379 11.6324L21.8364 11.6309L21.8328 11.6273L21.8229 11.6174L21.7926 11.588C21.7678 11.5644 21.7338 11.5328 21.6911 11.4951C21.606 11.4199 21.4853 11.3193 21.3333 11.2085C21.0327 10.9893 20.5926 10.7176 20.0512 10.5313C19.5062 10.3438 18.8422 10.2375 18.116 10.3755C17.3835 10.5146 16.6467 10.8911 15.9478 11.5766C15.2489 12.2621 14.8582 12.9915 14.7049 13.7211C14.5529 14.4446 14.6463 15.1105 14.8232 15.659C14.999 16.2039 15.2621 16.6491 15.4755 16.954C15.5833 17.108 15.6815 17.2307 15.7551 17.3173C15.7919 17.3607 15.8229 17.3953 15.846 17.4205L15.8748 17.4514L14.7242 16.2781L14.1293 16.8616C14.7242 16.2781 14.7239 16.2778 14.7236 16.2775L14.7229 16.2768L14.7215 16.2753L14.7178 16.2717L14.7079 16.2618L14.6776 16.2324C14.6528 16.2088 14.6188 16.1772 14.5762 16.1395C14.4911 16.0643 14.3703 15.9637 14.2184 15.8529C13.9177 15.6337 13.4777 15.362 12.9362 15.1757C12.3913 14.9882 11.7273 14.8819 11.001 15.0199C10.2686 15.159 9.53185 15.5354 8.83295 16.2209C8.13365 16.9064 7.74265 17.6357 7.58905 18.3653C7.43675 19.0889 7.52985 19.7549 7.70675 20.3034C7.88245 20.8485 8.14555 21.2937 8.35885 21.5986C8.46665 21.7527 8.56485 21.8754 8.63845 21.962C8.67525 22.0053 8.70625 22.0399 8.72935 22.0652L8.75815 22.0961L8.76785 22.1062L8.77135 22.1099L8.77285 22.1114L8.77355 22.112C8.77375 22.1122 8.77395 22.1125 8.99695 21.8939L8.77405 22.1125L11.093 24.4777L11.0627 24.4483C11.0379 24.4247 11.0039 24.3931 10.9613 24.3554C10.8762 24.2802 10.7554 24.1796 10.6034 24.0688C10.3028 23.8496 9.86275 23.5779 9.32125 23.3916C8.77635 23.2041 8.11235 23.0978 7.38605 23.2358C6.65365 23.3749 5.91695 23.7513 5.21805 24.4367C4.51875 25.1222 4.12775 25.8516 3.97415 26.5812C3.82185 27.3048 3.91495 27.9708 4.09175 28.5193C4.26745 29.0644 4.53055 29.5096 4.74385 29.8145C4.85165 29.9686 4.94995 30.0913 5.02345 30.1778C5.06035 30.2212 5.09125 30.2558 5.11445 30.2811L5.14325 30.312L5.15285 30.3221L5.15645 30.3257L5.15795 30.3272L5.15855 30.3279C5.15885 30.3282 5.15915 30.3285 5.60765 29.8886L5.15915 30.3285L9.80285 35.0635L9.77915 35.0405C9.75435 35.0168 9.72035 34.9852 9.67765 34.9475C9.59255 34.8723 9.47185 34.7717 9.31985 34.661C9.01915 34.4418 8.57915 34.1701 8.03775 33.9837C7.49275 33.7962 6.82875 33.69 6.10255 33.8279C5.37005 33.9671 4.63325 34.3436 3.93435 35.0291C3.23475 35.7145 2.84355 36.444 2.68995 37.1738C2.53755 37.8975 2.63085 38.5638 2.80785 39.1125C2.98365 39.6578 3.24695 40.1032 3.46045 40.4082C3.56835 40.5623 3.66665 40.6851 3.74025 40.7717C3.77715 40.8151 3.80805 40.8497 3.83125 40.8749L3.86005 40.9058L3.86975 40.9159L3.87335 40.9196L3.87475 40.9211L3.87545 40.9218ZM16.2543 17.1114L15.8908 17.4678L15.8903 17.4673C15.8923 17.4658 15.9168 17.4423 16.2543 17.1114ZM11.1086 24.4935L11.1091 24.4941L10.5143 25.0775C11.0732 24.5294 11.1068 24.4959 11.1086 24.4935ZM13.8821 39.2229L19.6476 45.1017L19.6472 45.1022L13.8821 39.2229ZM9.82485 35.0859L9.82535 35.0864L9.23135 35.669C9.77755 35.1333 9.82155 35.0897 9.82485 35.0859Z" fill="#080A0C" stroke="#080A0C"/>
<path fill-rule="evenodd" clip-rule="evenodd" d="M4.52043 35.6241C2.13793 37.9583 4.47343 40.3389 4.47343 40.3389L21.9776 58.1906L23.1454 59.3809C30.8785 67.2645 43.5442 67.3887 51.4298 59.6569C58.6582 52.5656 59.3639 41.3358 53.4747 33.4384C51.389 30.6414 49.6498 27.6023 47.9792 24.5392L43.7653 16.8135C43.7653 16.8135 42.3123 13.8136 39.3121 15.2649C36.3138 16.7177 37.7651 19.7179 37.7651 19.7179L42.2732 31.2808C42.3555 31.4639 42.4029 31.6421 42.4177 31.8051C42.4411 31.9641 42.4184 32.1286 42.3498 32.2769C42.3087 32.3658 42.251 32.449 42.1768 32.5218C36.0022 38.5785 36.9157 47.776 41.9767 52.9374C42.2989 53.2661 42.2937 53.7937 41.9651 54.1159C41.6365 54.4381 41.1089 54.4329 40.7867 54.1043C35.3038 48.5127 34.1598 38.635 40.4898 31.8645C40.3094 31.6961 40.1181 31.4952 39.9167 31.2579L38.7506 30.0673L37.4528 28.7443L21.2467 12.2173C21.2467 12.2173 18.9131 9.83805 16.5338 12.1717C14.1546 14.5053 16.4882 16.8845 16.4882 16.8845L31.8151 32.5139L31.8119 32.5164C31.9408 32.6641 32.019 32.8572 32.019 33.0686C32.019 33.5324 31.6429 33.9084 31.1791 33.9084C30.8857 33.9084 30.6274 33.7579 30.4772 33.5299L14.1318 16.8617C14.1318 16.8617 11.7981 14.4824 9.41893 16.8161C7.03803 19.15 9.37163 21.5292 9.37163 21.5292L25.7203 38.2034C25.9279 38.3563 26.0627 38.6025 26.0627 38.8801C26.0627 39.344 25.6867 39.72 25.2228 39.72C24.9601 39.72 24.7255 39.5993 24.5715 39.4104L10.5168 25.0776C10.5168 25.0776 8.18323 22.6983 5.80403 25.0319C3.42313 27.3658 5.75673 29.7451 5.75673 29.7451L20.7944 45.0785L20.7931 45.0799C21.0053 45.2324 21.1435 45.4813 21.1435 45.7625C21.1435 46.2263 20.7675 46.6023 20.3036 46.6023C20.0489 46.6023 19.8206 46.4889 19.6666 46.3097L9.23333 35.6697C9.23333 35.6697 6.89973 33.2905 4.52043 35.6241Z" fill="#FDBC3B"/>
<path d="M23.0463 62.1213C20.0324 62.6527 16.6604 61.668 13.8774 59.7193C11.0945 57.7707 9.01594 54.9388 8.48444 51.925C8.25284 50.611 7.06375 49.6369 5.65725 49.8849C4.34065 50.1171 3.31285 51.3893 3.56045 52.7932C4.46195 57.9059 6.95275 61.9406 10.5556 64.4634C14.1585 66.9862 18.8018 67.9468 23.9145 67.0453C25.3184 66.7978 26.1624 65.3969 25.9303 64.0803C25.6823 62.6738 24.3602 61.8896 23.0463 62.1213Z" fill="#82CBAD" stroke="#080A0C"/>
<path d="M35.6678 7.02193C34.3086 7.26161 33.4003 8.55881 33.6399 9.91808C33.8796 11.2774 35.1768 12.1857 36.5361 11.946C42.6754 10.8635 49.8248 15.3255 51.0168 22.0855C51.2565 23.4448 52.5537 24.3531 53.913 24.1134C55.2722 23.8737 56.1805 22.5765 55.9409 21.2173C54.2698 11.7403 45.9954 5.20091 35.6678 7.02193Z" fill="#82CBAD" stroke="#080A0C"/>
<path d="M14.651 68.2687C12.3755 68.67 10.4099 68.2382 8.92587 67.1991C7.44177 66.1599 6.36377 64.4606 5.96257 62.185C5.72257 60.8241 4.42727 59.9172 3.06637 60.1571C1.70548 60.3971 0.79852 61.6924 1.03849 63.0533C2.27607 70.0719 8.50057 74.4304 15.5192 73.1928C16.8802 72.9528 17.7871 71.6575 17.5471 70.2966C17.3072 68.9357 16.0119 68.0288 14.651 68.2687Z" fill="#82CBAD" stroke="#080A0C"/>
<path d="M44.1217 1.20261C42.8093 1.43402 41.8339 2.62503 42.0816 4.02982C42.3135 5.34487 43.5876 6.37391 44.9899 6.12666C49.4317 5.34345 52.881 8.09145 53.5973 12.1536C53.8444 13.5554 55.2451 14.4016 56.5623 14.1693C57.9693 13.9213 58.7526 12.5971 58.5213 11.2854C57.3331 4.5469 51.1529 -0.0371827 44.1217 1.20261Z" fill="#82CBAD" stroke="#080A0C"/>
</svg>
