<svg width="215" height="217" viewBox="0 0 215 217" fill="none" xmlns="http://www.w3.org/2000/svg">
<path d="M154.571 17.2302C175.902 28.1575 197.211 41.6883 207.319 63.3284C217.464 85.0467 217.134 110.916 208.831 133.394C201.184 154.097 181.166 166.069 164.147 180.214C148.028 193.611 133.081 209.089 112.531 213.432C90.6932 218.048 65.864 217.817 47.7703 204.811C30.2219 192.198 29.2592 167.598 21.0482 147.675C13.2536 128.763 -4.32533 111.031 0.981453 91.2845C6.27135 71.6011 32.2742 67.1518 46.6029 52.588C62.2606 36.6732 67.1467 9.38215 88.4133 2.41764C110.422 -4.78988 133.972 6.67827 154.571 17.2302Z" fill="#2FBC88"/>
<g clip-path="url(#clip0_223_6)">
<path d="M127.335 114.569C127.27 113.847 127.335 113.059 127.139 112.337C126.548 109.58 124.186 107.742 121.364 107.742C117.886 107.742 114.408 107.742 110.995 107.742C110.601 107.742 110.076 107.545 109.748 107.282C108.173 106.232 106.598 105.051 105.023 103.935C107.255 102.294 109.748 101.966 112.439 103.081C113.948 103.738 114.145 103.672 115.064 102.294C118.017 97.8959 124.448 97.8302 127.401 102.294C127.86 103.016 128.385 103.344 129.304 103.344C133.11 103.541 135.998 106.298 136.326 109.974C136.326 110.236 136.195 110.696 135.932 110.827C133.176 112.14 130.354 113.387 127.532 114.634C127.467 114.569 127.401 114.569 127.335 114.569Z" fill="#82CBAD"/>
<path d="M69.4531 135.114C69.4531 123.496 69.4531 111.877 69.4531 100.193C71.4218 100.193 73.3905 100.062 75.2936 100.259C76.7373 100.39 77.7873 101.9 77.7873 103.607C77.7873 106.56 77.7873 109.514 77.7873 112.468C77.7873 118.77 77.7873 125.137 77.7873 131.438C77.7873 133.998 76.6061 135.245 74.3093 135.245C72.7343 135.245 71.225 135.245 69.65 135.245C69.5844 135.18 69.5187 135.114 69.4531 135.114Z" fill="#82CBAD"/>
<path d="M79.3637 101.244C81.0699 101.244 82.7105 101.244 84.3511 101.244C87.8292 101.244 91.3728 101.178 94.8509 101.309C96.5571 101.375 98.2633 101.769 99.9695 101.9C100.298 101.966 100.823 101.834 101.019 101.638C104.169 98.815 107.713 98.0273 111.782 99.2088C112.044 99.2745 112.504 99.2088 112.7 99.0776C115.194 96.0581 118.41 94.8109 122.478 94.9422C122.478 93.2355 122.478 91.5289 122.478 89.8222C122.478 89.6253 122.282 89.3627 122.085 89.1658C121.035 88.2469 119.985 87.3935 118.803 86.4089C118.541 86.8028 118.344 87.0653 118.147 87.3279C115.785 90.5443 111.585 91.2007 108.435 88.8376C107.057 87.7874 105.744 86.5402 104.432 85.4243C103.054 84.2428 101.479 83.3895 99.707 82.93C99.0508 82.733 98.4602 82.4705 98.3289 81.6828C98.1977 80.8951 98.657 80.5013 99.2476 80.1074C102.988 77.8756 106.794 75.9721 111.191 75.3813C115.785 74.7905 119.591 78.1382 119.525 82.7987C119.525 83.4551 119.657 83.7833 120.182 84.1115C121.035 84.6366 121.822 85.293 122.61 85.8838C123.069 83.5864 123.594 81.289 123.988 78.9915C124.053 78.729 123.66 78.3351 123.463 78.1382C119.919 74.7249 118.541 70.6552 119.853 65.8634C120.575 63.3034 122.15 61.3999 124.185 59.8245C127.859 57.0019 132.059 55.2296 136.456 53.9168C139.212 53.0635 142.034 52.4727 144.856 51.8163C145.578 51.6194 146.3 51.5538 146.759 52.3415C147.153 52.9979 146.89 53.6543 146.497 54.245C144.003 58.0522 143.15 62.3188 142.822 66.7824C142.625 68.8829 142.362 71.049 141.969 73.1495C140.787 78.8603 134.816 81.9454 129.631 81.092C128.647 80.8951 127.597 80.6325 126.481 80.3043C126.153 81.8797 125.76 83.5207 125.563 85.1618C125.235 88.3781 125.169 91.5945 124.906 94.7453C124.841 95.2704 125.038 95.5986 125.628 95.8612C127.203 96.5832 128.516 97.6991 129.631 99.0776C129.828 99.3401 130.156 99.6027 130.484 99.6683C135.997 100.653 138.884 103.344 140.197 108.858V108.924C141.509 108.661 142.822 108.267 144.134 108.07C149.515 107.48 154.043 109.252 157.653 113.19C158.571 114.241 158.506 114.963 157.324 115.75C146.365 122.511 135.537 129.469 124.447 135.968C114.407 141.875 103.776 142.203 93.0134 137.74C88.6823 135.968 84.4824 133.998 80.1512 132.16C79.8887 132.029 79.5606 131.898 79.2325 131.767C79.1668 131.898 79.1012 132.029 79.1012 132.095C78.2481 136.164 76.1482 137.871 72.0139 137.871C69.9139 137.871 67.814 137.871 65.714 137.871C64.4672 137.871 64.0078 137.412 64.0078 136.23C64.0078 123.036 64.0078 109.843 64.0078 96.7145C64.1391 95.4673 64.5984 95.0735 65.8453 95.0735C68.1421 95.0735 70.3733 95.0735 72.6701 95.0735C76.2138 95.0735 78.6419 97.1083 79.2325 100.587C79.2981 100.719 79.3637 100.915 79.3637 101.244ZM79.4293 104.001C79.3637 104.198 79.3637 104.263 79.3637 104.329C79.3637 112.271 79.3637 120.214 79.3637 128.222C79.3637 128.813 79.6918 129.01 80.1512 129.141C84.9417 131.241 89.7979 133.342 94.5884 135.442C97.8696 136.821 101.282 137.74 104.826 137.937C112.11 138.396 118.738 136.624 124.906 132.817C134.619 126.712 144.462 120.739 154.175 114.7C154.437 114.569 154.7 114.372 154.962 114.175C151.353 110.696 145.84 109.711 141.115 111.746C135.734 114.109 130.353 116.604 124.972 119.032C123.66 119.623 122.281 119.951 120.838 119.951C115.129 119.951 109.485 119.951 103.776 119.951C102.266 119.951 101.61 119.557 101.61 118.638C101.61 117.719 102.266 117.26 103.776 117.26C109.616 117.26 115.391 117.26 121.232 117.26C123.266 117.26 124.841 116.078 125.169 114.306C125.628 111.943 123.988 109.908 121.494 109.843C117.491 109.843 113.422 109.843 109.419 109.777C108.829 109.777 108.041 109.449 107.647 109.055C103.973 105.707 99.707 103.935 94.7852 103.935C89.9947 103.935 85.2042 103.935 80.3481 103.935C80.02 103.935 79.7575 104.001 79.4293 104.001ZM66.8952 135.114C67.0265 135.18 67.0265 135.246 67.0921 135.246C68.9296 135.246 70.7014 135.246 72.5389 135.246C75.2294 135.246 76.6075 133.867 76.6075 131.176C76.6075 124.415 76.6075 117.654 76.6075 110.893C76.6075 107.742 76.6075 104.591 76.6075 101.441C76.6075 99.6027 75.4263 97.9617 73.7201 97.8304C71.4889 97.6991 69.1921 97.7647 66.8952 97.7647C66.8952 110.302 66.8952 122.708 66.8952 135.114ZM125.103 75.7751C126.022 73.9372 126.875 72.0336 127.859 70.2613C129.5 67.3731 131.731 65.0101 134.553 63.2378C135.341 62.7783 136.128 62.9096 136.522 63.566C136.981 64.2224 136.784 64.9444 136.062 65.4696C135.931 65.6009 135.734 65.6665 135.603 65.7978C131.469 68.686 129.106 72.8213 127.531 77.4818C132.125 79.9761 138.491 77.5474 139.54 72.5588C139.803 71.4429 140 70.2613 140.131 69.0798C140.525 66.126 140.787 63.1065 141.378 60.1527C141.706 58.446 142.428 56.805 143.019 55.0327C142.822 55.0327 142.69 55.0327 142.559 55.0984C139.672 55.9517 136.784 56.7394 133.962 57.7896C130.681 58.9712 127.597 60.5465 125.038 62.9752C121.297 66.5198 121.363 72.5588 125.103 75.7751ZM127.925 114.569C127.991 114.569 128.056 114.569 128.122 114.569C131.141 113.19 134.225 111.877 137.244 110.433C137.506 110.302 137.703 109.843 137.637 109.514C137.244 105.51 134.094 102.557 129.959 102.36C128.975 102.294 128.45 101.966 127.925 101.178C124.71 96.3863 117.753 96.3863 114.538 101.178C113.554 102.688 113.357 102.688 111.716 102.031C108.829 100.85 106.072 101.178 103.644 102.95C105.351 104.198 107.057 105.379 108.829 106.561C109.222 106.823 109.747 107.086 110.207 107.086C113.947 107.151 117.753 107.086 121.494 107.086C124.578 107.086 127.072 109.121 127.728 112.074C127.925 112.928 127.859 113.715 127.925 114.569ZM116.835 81.8797C116.835 80.1074 114.997 78.2038 112.897 78.1382C109.288 78.0069 106.204 79.5823 103.054 81.1577C104.038 81.8141 104.957 82.3392 105.81 82.9956C106.663 83.652 107.451 84.4397 108.304 85.1618C109.026 85.7525 109.813 86.4089 110.601 86.934C112.11 88.0499 115.457 87.3935 116.375 84.8992C116.179 84.7679 115.916 84.571 115.719 84.5053C113.947 84.1115 112.175 83.652 110.338 83.3238C109.419 83.1269 108.894 82.7987 108.894 81.9454C108.894 81.092 109.485 80.5669 110.404 80.5669C110.732 80.5669 111.125 80.5669 111.454 80.6325C113.291 81.092 115.129 81.4859 116.835 81.8797Z" fill="#1D1655"/>
<path d="M79.4289 104C79.757 104 80.0195 103.935 80.3476 103.935C85.1382 103.935 89.9287 103.935 94.7848 103.935C99.7722 103.935 104.038 105.707 107.647 109.055C108.106 109.449 108.828 109.777 109.419 109.777C113.422 109.842 117.491 109.777 121.494 109.842C123.922 109.842 125.628 111.877 125.168 114.306C124.84 116.078 123.265 117.26 121.231 117.26C115.391 117.26 109.616 117.26 103.775 117.26C102.266 117.26 101.61 117.654 101.61 118.638C101.61 119.557 102.266 119.951 103.775 119.951C109.484 119.951 115.128 119.951 120.837 119.951C122.281 119.951 123.659 119.623 124.972 119.032C130.353 116.538 135.668 114.109 141.115 111.746C145.84 109.711 151.352 110.696 154.962 114.175C154.699 114.372 154.437 114.569 154.174 114.7C144.396 120.739 134.618 126.712 124.906 132.817C118.737 136.689 112.044 138.462 104.825 137.937C101.282 137.674 97.8691 136.821 94.5879 135.442C89.7974 133.342 84.9413 131.241 80.1508 129.141C79.6914 128.944 79.3633 128.813 79.3633 128.222C79.3633 120.279 79.3633 112.337 79.3633 104.329C79.3633 104.263 79.3633 104.197 79.4289 104Z" fill="white"/>
<path d="M124.839 75.972C121.427 73.0182 121.361 67.4387 124.708 64.2224C127.07 61.9906 129.958 60.5465 132.976 59.4306C135.601 58.5116 138.292 57.7896 140.917 56.9362C141.048 56.8706 141.179 56.8706 141.376 56.8706C140.851 58.446 140.129 59.9557 139.867 61.5967C139.342 64.3536 139.145 67.1105 138.751 69.8674C138.62 70.9177 138.423 71.9679 138.226 73.0182C137.242 77.613 131.402 79.8448 127.136 77.5474C128.58 73.2808 130.745 69.408 134.551 66.7823C134.683 66.6511 134.88 66.5854 135.011 66.4541C135.733 65.929 135.864 65.2726 135.47 64.6818C135.076 64.0911 134.355 63.9598 133.633 64.4193C131.008 66.0603 128.973 68.2921 127.464 70.9177C126.48 72.5587 125.692 74.2654 124.839 75.972Z" fill="#82CBAD"/>
<path d="M117.49 82.2079C115.85 81.8797 114.144 81.4859 112.503 81.1577C112.175 81.092 111.847 81.092 111.519 81.092C110.6 81.092 110.075 81.6172 110.075 82.4049C110.075 83.1925 110.6 83.5207 111.453 83.652C113.159 83.9802 114.8 84.3741 116.506 84.7679C116.703 84.8336 116.9 84.9648 117.162 85.0961C116.309 87.4592 113.159 88.05 111.715 86.9997C110.994 86.4746 110.272 85.8838 109.55 85.293C108.762 84.6366 108.041 83.9146 107.187 83.2582C106.4 82.6674 105.547 82.1423 104.562 81.4859C107.516 79.9762 110.403 78.5321 113.815 78.6633C115.784 78.7946 117.556 80.5669 117.49 82.2079Z" fill="#82CBAD"/>
</g>
<defs>
<clipPath id="clip0_223_6">
<rect width="94.3666" height="89.0743" fill="white" transform="translate(64.1406 51.7505)"/>
</clipPath>
</defs>
</svg>
