<svg width="108" height="97" viewBox="0 0 108 97" fill="none" xmlns="http://www.w3.org/2000/svg">
<g clip-path="url(#clip0_194_2205)">
<path d="M30.3696 39.7417H8.76745C8.5204 39.7417 8.28346 39.6436 8.10877 39.469C7.93408 39.2944 7.83594 39.0576 7.83594 38.8107C7.83594 38.5637 7.93408 38.3269 8.10877 38.1523C8.28346 37.9777 8.5204 37.8796 8.76745 37.8796H30.3696C30.6167 37.8796 30.8536 37.9777 31.0283 38.1523C31.203 38.3269 31.3011 38.5637 31.3011 38.8107C31.3011 39.0576 31.203 39.2944 31.0283 39.469C30.8536 39.6436 30.6167 39.7417 30.3696 39.7417Z" fill="white"/>
<path d="M99.7469 39.7417H77.6346C77.3876 39.7417 77.1507 39.6436 76.976 39.469C76.8013 39.2944 76.7031 39.0576 76.7031 38.8107C76.7031 38.5637 76.8013 38.3269 76.976 38.1523C77.1507 37.9777 77.3876 37.8796 77.6346 37.8796H99.7469C99.994 37.8796 100.231 37.9777 100.406 38.1523C100.58 38.3269 100.678 38.5637 100.678 38.8107C100.678 39.0576 100.58 39.2944 100.406 39.469C100.231 39.6436 99.994 39.7417 99.7469 39.7417Z" fill="white"/>
<path d="M37.29 22.8504C37.07 22.8523 36.8569 22.7734 36.6912 22.6287L30.4811 17.4195C30.3768 17.333 30.293 17.2246 30.2355 17.1019C30.1779 16.9793 30.1482 16.8455 30.1484 16.7101V8.02062C30.1484 7.7737 30.2466 7.53689 30.4213 7.36229C30.596 7.18769 30.8329 7.0896 31.0799 7.0896C31.327 7.0896 31.5639 7.18769 31.7386 7.36229C31.9133 7.53689 32.0115 7.7737 32.0115 8.02062V16.2778L37.8888 21.21C37.9838 21.2872 38.0624 21.3825 38.12 21.4904C38.1777 21.5983 38.2132 21.7166 38.2246 21.8384C38.2359 21.9601 38.2229 22.083 38.1862 22.1996C38.1495 22.3163 38.0899 22.4245 38.0108 22.5179C37.9221 22.6224 37.8116 22.7062 37.6872 22.7637C37.5627 22.8211 37.4271 22.8507 37.29 22.8504Z" fill="white"/>
<path d="M70.8805 23.1274C70.7448 23.1292 70.6104 23.1002 70.4875 23.0426C70.3646 22.9851 70.2563 22.9004 70.1708 22.7949C70.0127 22.6065 69.9357 22.3632 69.9565 22.1182C69.9772 21.8731 70.0942 21.6463 70.2817 21.4871L76.5029 16.2778V8.02062C76.5029 7.77369 76.601 7.53689 76.7757 7.36229C76.9504 7.18769 77.1873 7.0896 77.4344 7.0896C77.6814 7.0896 77.9184 7.18769 78.0931 7.36229C78.2677 7.53689 78.3659 7.77369 78.3659 8.02062V16.7101C78.3661 16.8455 78.3364 16.9793 78.2789 17.1019C78.2214 17.2245 78.1375 17.333 78.0332 17.4194L71.4794 22.9612C71.3051 23.0843 71.0934 23.1431 70.8805 23.1274Z" fill="white"/>
<path d="M77.4344 72.4159C77.3116 72.4174 77.1898 72.3943 77.0762 72.3481C76.9625 72.3018 76.8592 72.2333 76.7724 72.1466C76.6856 72.0598 76.617 71.9566 76.5708 71.8429C76.5245 71.7293 76.5014 71.6076 76.5029 71.4849V63.2277L70.2817 58.0738C70.0942 57.9147 69.9772 57.6878 69.9565 57.4428C69.9357 57.1977 70.0127 56.9544 70.1708 56.766C70.2488 56.6719 70.3448 56.5943 70.4531 56.5377C70.5615 56.4811 70.68 56.4466 70.8018 56.4363C70.9237 56.426 71.0463 56.44 71.1626 56.4776C71.279 56.5152 71.3866 56.5755 71.4794 56.6551L78.0332 62.1415C78.1375 62.228 78.2214 62.3364 78.2789 62.459C78.3364 62.5816 78.3661 62.7154 78.3659 62.8508V71.4849C78.3659 71.7318 78.2677 71.9686 78.0931 72.1432C77.9184 72.3178 77.6814 72.4159 77.4344 72.4159Z" fill="white"/>
<path d="M61.9409 82.1138H45.7947C45.5642 82.1121 45.3425 82.0251 45.1725 81.8695C45.0025 81.7139 44.8963 81.5008 44.8743 81.2715L44.7302 79.7974C43.9268 70.5845 40.4591 61.8043 34.7497 54.527C32.3634 51.4815 30.7396 47.9103 30.0135 44.1107C29.2874 40.3112 29.4799 36.3932 30.5751 32.683C31.6702 28.9729 33.6363 25.5779 36.3097 22.7808C38.9831 19.9836 42.2863 17.8652 45.9445 16.602C49.6026 15.3388 53.5097 14.9672 57.3405 15.5184C61.1713 16.0695 64.815 17.5273 67.9682 19.7704C71.1213 22.0135 73.6927 24.977 75.4682 28.4142C77.2438 31.8514 78.1721 35.6628 78.1758 39.531C78.1903 44.7543 76.5006 49.84 73.363 54.0171C67.4896 61.6064 63.8697 70.6935 62.9168 80.2407L62.8281 81.3491C62.7901 81.5588 62.6813 81.7491 62.5198 81.8883C62.3584 82.0275 62.154 82.1071 61.9409 82.1138ZM46.6486 80.2407H61.0649V80.0191C62.053 70.1484 65.7827 60.7505 71.8327 52.8866C74.3703 49.4795 75.8869 45.4217 76.2058 41.1862C76.5247 36.9507 75.6327 32.7118 73.6337 28.9634C71.6348 25.2151 68.6113 22.1117 64.9154 20.0149C61.2196 17.9181 57.0037 16.9142 52.7589 17.1201C48.6431 17.31 44.6594 18.6301 41.2454 20.9354C37.8313 23.2407 35.1192 26.4421 33.4071 30.1876C31.6949 33.9331 31.0489 38.0779 31.5401 42.1665C32.0313 46.2551 33.6406 50.1293 36.1913 53.3632C42.1176 60.9236 45.7197 70.0414 46.5599 79.609L46.6486 80.2407Z" fill="white"/>
<path d="M61.9431 81.1829V88.498C61.9431 88.8272 61.8122 89.143 61.5793 89.3758C61.3464 89.6086 61.0304 89.7393 60.701 89.7393H47.0389C46.7095 89.7393 46.3936 89.6086 46.1606 89.3758C45.9277 89.143 45.7969 88.8272 45.7969 88.498V81.1829H61.9431Z" fill="white"/>
<path d="M57.7513 89.7394V94.073C57.7483 94.5209 57.5683 94.9493 57.2504 95.265C56.9325 95.5806 56.5027 95.7577 56.0546 95.7577H51.8295C51.6058 95.7577 51.3842 95.7135 51.1777 95.6276C50.9711 95.5417 50.7836 95.4158 50.6259 95.2571C50.4682 95.0985 50.3434 94.9102 50.2588 94.7032C50.1742 94.4962 50.1314 94.2745 50.1328 94.0509V89.7394H57.7513Z" fill="#50C9B2"/>
<path d="M53.9237 82.1139C53.6766 82.1139 53.4397 82.0158 53.265 81.8412C53.0903 81.6666 52.9922 81.4298 52.9922 81.1829V56.9654C52.9922 56.7185 53.0903 56.4817 53.265 56.3071C53.4397 56.1325 53.6766 56.0344 53.9237 56.0344C54.1708 56.0344 54.4077 56.1325 54.5824 56.3071C54.7571 56.4817 54.8552 56.7185 54.8552 56.9654V81.1829C54.8567 81.3056 54.8336 81.4273 54.7873 81.541C54.741 81.6546 54.6725 81.7578 54.5857 81.8446C54.4989 81.9313 54.3956 81.9998 54.2819 82.0461C54.1682 82.0924 54.0464 82.1154 53.9237 82.1139Z" fill="white"/>
<path d="M106.345 38.7996C106.341 39.6452 106.034 40.4613 105.479 41.1001C104.925 41.7389 104.16 42.158 103.323 42.2813C102.486 42.4046 101.633 42.2241 100.917 41.7724C100.202 41.3207 99.6726 40.6278 99.4248 39.8193C99.322 39.4891 99.2697 39.1454 99.2695 38.7996C99.2695 38.3325 99.3621 37.87 99.542 37.4388C99.7218 37.0077 99.9854 36.6164 100.317 36.2877C100.649 35.9589 101.043 35.6992 101.476 35.5235C101.909 35.3478 102.373 35.2596 102.84 35.264C103.189 35.2652 103.536 35.3137 103.872 35.408C104.59 35.6383 105.217 36.091 105.662 36.7006C106.106 37.3102 106.345 38.0453 106.345 38.7996Z" fill="#82CBAD"/>
<path d="M103.947 36.4388C103.947 36.9911 103.817 37.5357 103.568 38.0289C103.319 38.5222 102.958 38.9502 102.514 39.2789C102.07 39.6075 101.555 39.8276 101.01 39.9214C100.466 40.0153 99.9065 39.9803 99.3779 39.8192C99.2751 39.4891 99.2228 39.1453 99.2227 38.7996C99.2225 38.3287 99.3166 37.8625 99.4992 37.4284C99.6818 36.9943 99.9493 36.601 100.286 36.2716C100.623 35.9423 101.022 35.6835 101.46 35.5104C101.898 35.3374 102.367 35.2536 102.838 35.2639C103.187 35.2652 103.533 35.3136 103.869 35.408C103.945 35.746 103.971 36.0932 103.947 36.4388Z" fill="#FDFEFF"/>
<path d="M102.838 43.2551C101.961 43.2551 101.103 42.9951 100.374 42.508C99.6443 42.0208 99.0757 41.3284 98.74 40.5183C98.4043 39.7082 98.3164 38.8168 98.4876 37.9568C98.6587 37.0968 99.0812 36.3068 99.7015 35.6868C100.322 35.0668 101.112 34.6446 101.973 34.4735C102.833 34.3024 103.725 34.3902 104.536 34.7258C105.346 35.0613 106.039 35.6296 106.526 36.3586C107.014 37.0877 107.274 37.9449 107.274 38.8217C107.274 39.9975 106.807 41.1252 105.975 41.9566C105.143 42.788 104.015 43.2551 102.838 43.2551ZM102.838 36.1949C102.323 36.1949 101.819 36.3477 101.39 36.6339C100.962 36.9201 100.628 37.3269 100.43 37.8028C100.233 38.2787 100.182 38.8024 100.282 39.3077C100.383 39.8129 100.631 40.277 100.995 40.6413C101.36 41.0056 101.824 41.2536 102.33 41.3541C102.835 41.4546 103.359 41.4031 103.835 41.2059C104.312 41.0088 104.719 40.6749 105.005 40.2466C105.291 39.8183 105.444 39.3147 105.444 38.7996C105.444 38.4575 105.377 38.1188 105.246 37.8028C105.115 37.4868 104.923 37.1997 104.681 36.9578C104.439 36.7159 104.152 36.5241 103.835 36.3932C103.519 36.2623 103.18 36.1949 102.838 36.1949Z" fill="#19164C"/>
<path d="M8.8224 38.7996C8.80281 39.6331 8.4891 40.4329 7.93669 41.0577C7.38428 41.6825 6.62871 42.0921 5.80346 42.2141C4.9782 42.3361 4.13636 42.1627 3.42663 41.7245C2.71691 41.2863 2.18497 40.6114 1.92478 39.8192C1.82199 39.4891 1.76965 39.1453 1.76953 38.7996C1.76942 37.8714 2.1345 36.9804 2.78597 36.3189C3.43744 35.6574 4.32304 35.2785 5.25161 35.2639C5.60026 35.266 5.94708 35.3144 6.28292 35.408C7.01311 35.6281 7.6536 36.0762 8.11057 36.6865C8.56754 37.2968 8.817 38.0373 8.8224 38.7996Z" fill="#82CBAD"/>
<path d="M6.47144 36.4388C6.47016 36.9886 6.34059 37.5306 6.09303 38.0216C5.84547 38.5126 5.48674 38.9391 5.04535 39.2673C4.60396 39.5955 4.09207 39.8163 3.55036 39.9121C3.00865 40.0079 2.45205 39.9761 1.92478 39.8192C1.82199 39.4891 1.76965 39.1453 1.76953 38.7996C1.76942 37.8714 2.1345 36.9804 2.78597 36.3189C3.43744 35.6574 4.32304 35.2785 5.25161 35.2639C5.60026 35.266 5.94708 35.3144 6.28292 35.408C6.39616 35.7404 6.45969 36.0878 6.47144 36.4388Z" fill="#FDFEFF"/>
<path d="M5.25218 43.2551C4.37486 43.2551 3.51725 42.9951 2.7878 42.508C2.05834 42.0208 1.48979 41.3284 1.15406 40.5183C0.818328 39.7082 0.730485 38.8168 0.90164 37.9568C1.0728 37.0968 1.49526 36.3068 2.11561 35.6868C2.73597 35.0668 3.52635 34.6446 4.3868 34.4735C5.24726 34.3024 6.13914 34.3902 6.94967 34.7258C7.7602 35.0613 8.45297 35.6296 8.94038 36.3586C9.42779 37.0877 9.68794 37.9449 9.68794 38.8217C9.68794 39.9975 9.22061 41.1252 8.38874 41.9566C7.55687 42.788 6.42862 43.2551 5.25218 43.2551ZM5.25218 36.1949C4.73676 36.1949 4.23291 36.3477 3.80435 36.6339C3.3758 36.9201 3.04178 37.3269 2.84453 37.8028C2.64729 38.2787 2.59568 38.8024 2.69624 39.3077C2.79679 39.8129 3.04499 40.277 3.40945 40.6413C3.7739 41.0056 4.23825 41.2536 4.74377 41.3541C5.24929 41.4546 5.77327 41.4031 6.24945 41.2059C6.72564 41.0088 7.13265 40.6749 7.419 40.2466C7.70535 39.8183 7.85819 39.3147 7.85819 38.7996C7.85819 38.4575 7.79078 38.1188 7.65982 37.8028C7.52885 37.4868 7.3369 37.1997 7.09491 36.9578C6.85292 36.7159 6.56563 36.5241 6.24945 36.3932C5.93328 36.2623 5.5944 36.1949 5.25218 36.1949Z" fill="#19164C"/>
<path d="M81.1258 74.2225C81.1246 75.069 80.8195 75.887 80.2661 76.5278C79.7126 77.1686 78.9475 77.5896 78.1098 77.7144C77.2721 77.8392 76.4174 77.6594 75.701 77.2078C74.9847 76.7562 74.4542 76.0627 74.206 75.2533C74.1025 74.9195 74.0501 74.572 74.0508 74.2225C74.0508 73.2848 74.4235 72.3855 75.0869 71.7225C75.7503 71.0594 76.6501 70.6869 77.5883 70.6869C78.5265 70.6869 79.4263 71.0594 80.0897 71.7225C80.7531 72.3855 81.1258 73.2848 81.1258 74.2225Z" fill="#82CBAD"/>
<path d="M78.7749 71.8727C78.7661 72.4204 78.6301 72.9585 78.3776 73.4446C78.1252 73.9308 77.7631 74.3517 77.3201 74.6741C76.8771 74.9965 76.3652 75.2116 75.8248 75.3025C75.2844 75.3934 74.7302 75.3575 74.206 75.1978C74.1025 74.864 74.0501 74.5165 74.0508 74.167C74.0596 73.6194 74.1956 73.0812 74.4481 72.5951C74.7005 72.109 75.0625 71.6881 75.5055 71.3657C75.9485 71.0433 76.4604 70.8281 77.0009 70.7372C77.5413 70.6464 78.0954 70.6822 78.6196 70.842C78.7216 71.1761 78.7739 71.5234 78.7749 71.8727Z" fill="#FDFEFF"/>
<path d="M77.5881 78.6891C76.7108 78.6891 75.8532 78.4291 75.1237 77.9419C74.3943 77.4548 73.8257 76.7624 73.49 75.9523C73.1543 75.1422 73.0664 74.2508 73.2376 73.3908C73.4087 72.5308 73.8312 71.7408 74.4515 71.1208C75.0719 70.5008 75.8623 70.0785 76.7227 69.9075C77.5832 69.7364 78.4751 69.8242 79.2856 70.1597C80.0961 70.4953 80.7889 71.0635 81.2763 71.7926C81.7637 72.5217 82.0239 73.3788 82.0239 74.2557C82.0239 75.4315 81.5565 76.5592 80.7247 77.3906C79.8928 78.222 78.7646 78.6891 77.5881 78.6891ZM77.5881 71.6289C77.0718 71.6267 76.5664 71.7779 76.1361 72.0632C75.7059 72.3486 75.3701 72.7552 75.1715 73.2316C74.9729 73.708 74.9204 74.2326 75.0206 74.7389C75.1208 75.2452 75.3692 75.7103 75.7343 76.0752C76.0994 76.4402 76.5648 76.6885 77.0714 76.7886C77.5779 76.8888 78.1028 76.8362 78.5794 76.6377C79.0561 76.4392 79.463 76.1037 79.7485 75.6736C80.034 75.2436 80.1852 74.7385 80.183 74.2224C80.1801 73.5355 79.9058 72.8775 79.4198 72.3917C78.9338 71.906 78.2754 71.6318 77.5881 71.6289Z" fill="#19164C"/>
<path d="M30.7597 72.4158C30.637 72.4173 30.5152 72.3942 30.4015 72.348C30.2878 72.3017 30.1845 72.2332 30.0977 72.1464C30.0109 72.0597 29.9424 71.9565 29.8961 71.8428C29.8498 71.7292 29.8267 71.6075 29.8282 71.4848V62.7953C29.828 62.6599 29.8577 62.5261 29.9152 62.4035C29.9727 62.2809 30.0566 62.1725 30.1609 62.086L36.7036 56.5996C36.7973 56.5197 36.9059 56.4591 37.0231 56.4214C37.1403 56.3837 37.2639 56.3696 37.3866 56.3799C37.5093 56.3902 37.6288 56.4247 37.7381 56.4814C37.8473 56.5382 37.9443 56.616 38.0233 56.7105C38.1113 56.805 38.1784 56.9169 38.2203 57.039C38.2622 57.1611 38.2779 57.2907 38.2664 57.4193C38.2549 57.5479 38.2164 57.6726 38.1535 57.7854C38.0906 57.8981 38.0047 57.9964 37.9013 58.0737L31.6912 63.283V71.4848C31.6912 71.7317 31.5931 71.9685 31.4184 72.1431C31.2437 72.3177 31.0068 72.4158 30.7597 72.4158Z" fill="white"/>
<path d="M34.0835 74.2225C34.0917 75.0729 33.7919 75.8976 33.2396 76.5445C32.6872 77.1913 31.9194 77.6168 31.0779 77.7423C30.2363 77.8679 29.3777 77.6851 28.6604 77.2277C27.9431 76.7702 27.4155 76.069 27.1748 75.2533C27.0712 74.9195 27.0189 74.572 27.0195 74.2225C27.0195 73.2848 27.3922 72.3855 28.0557 71.7225C28.7191 71.0594 29.6189 70.6869 30.5571 70.6869C30.9067 70.6862 31.2544 70.7386 31.5884 70.8421C32.3112 71.0649 32.9436 71.5134 33.3927 72.1218C33.8418 72.7302 34.0839 73.4665 34.0835 74.2225Z" fill="#82CBAD"/>
<path d="M31.7794 71.8727C31.7724 72.4199 31.6379 72.9579 31.3868 73.4442C31.1356 73.9305 30.7746 74.3516 30.3324 74.6742C29.8901 74.9969 29.3788 75.2121 28.8388 75.303C28.2989 75.3939 27.7452 75.3578 27.2217 75.1978C27.1181 74.864 27.0658 74.5164 27.0664 74.167C27.0664 73.2293 27.4391 72.33 28.1025 71.6669C28.7659 71.0039 29.6657 70.6314 30.6039 70.6314C30.9536 70.6307 31.3013 70.683 31.6353 70.7865C31.7331 71.1402 31.7816 71.5057 31.7794 71.8727Z" fill="#FDFEFF"/>
<path d="M30.6037 78.6891C29.7264 78.6891 28.8688 78.4291 28.1394 77.9419C27.4099 77.4548 26.8414 76.7624 26.5056 75.9523C26.1699 75.1422 26.082 74.2508 26.2532 73.3908C26.4244 72.5308 26.8468 71.7408 27.4672 71.1208C28.0875 70.5008 28.8779 70.0785 29.7384 69.9075C30.5988 69.7364 31.4907 69.8242 32.3012 70.1597C33.1118 70.4953 33.8045 71.0635 34.2919 71.7926C34.7794 72.5217 35.0395 73.3788 35.0395 74.2557C35.0395 75.4315 34.5722 76.5592 33.7403 77.3906C32.9084 78.222 31.7802 78.6891 30.6037 78.6891ZM30.6037 71.6289C30.0874 71.6267 29.582 71.7779 29.1518 72.0632C28.7215 72.3486 28.3858 72.7552 28.1872 73.2316C27.9885 73.708 27.936 74.2326 28.0362 74.7389C28.1364 75.2452 28.3848 75.7103 28.7499 76.0752C29.1151 76.4402 29.5804 76.6885 30.087 76.7886C30.5935 76.8888 31.1184 76.8362 31.5951 76.6377C32.0717 76.4392 32.4786 76.1037 32.7641 75.6736C33.0496 75.2436 33.2009 74.7385 33.1987 74.2224C33.1957 73.5355 32.9214 72.8775 32.4354 72.3917C31.9494 71.906 31.2911 71.6318 30.6037 71.6289Z" fill="#19164C"/>
<path d="M80.9831 4.87286C80.9991 5.62097 80.7779 6.35494 80.3512 6.96979C79.9245 7.58463 79.3141 8.04884 78.6075 8.296C77.9008 8.54316 77.1341 8.56061 76.4169 8.34586C75.6997 8.13111 75.0689 7.69515 74.6146 7.10036C74.1603 6.50557 73.9059 5.78242 73.8878 5.03436C73.8696 4.28631 74.0886 3.55168 74.5135 2.93557C74.9384 2.31946 75.5473 1.85344 76.2532 1.60418C76.9592 1.35492 77.7259 1.33519 78.4437 1.54781C79.1658 1.75992 79.8015 2.19672 80.2582 2.79471C80.7149 3.3927 80.9689 4.1207 80.9831 4.87286Z" fill="#82CBAD"/>
<path d="M78.6302 2.55643C78.6302 3.49031 78.2605 4.38627 77.6019 5.0487C76.9433 5.71113 76.0492 6.08622 75.1148 6.09207C74.7601 6.10852 74.4049 6.07115 74.0613 5.98124C73.8674 5.36465 73.8462 4.70672 74.0001 4.07895C74.1541 3.45119 74.4773 2.87761 74.9346 2.42058C75.3918 1.96354 75.9657 1.64053 76.5938 1.48666C77.2219 1.33279 77.8802 1.35395 78.4971 1.54783C78.5902 1.8758 78.635 2.21556 78.6302 2.55643Z" fill="#FDFEFF"/>
<path d="M77.4436 9.3728C76.5663 9.3728 75.7087 9.11279 74.9792 8.62564C74.2497 8.13849 73.6812 7.44609 73.3455 6.63599C73.0097 5.82589 72.9219 4.93448 73.093 4.07448C73.2642 3.21448 73.6867 2.42452 74.307 1.8045C74.9274 1.18448 75.7178 0.762234 76.5782 0.59117C77.4387 0.420106 78.3306 0.507902 79.1411 0.843457C79.9516 1.17901 80.6444 1.74725 81.1318 2.47632C81.6192 3.20539 81.8794 4.06255 81.8794 4.93939C81.8794 6.11521 81.412 7.24286 80.5801 8.07429C79.7483 8.90571 78.62 9.3728 77.4436 9.3728ZM77.4436 2.30151C76.9268 2.30156 76.4216 2.45519 75.9924 2.74289C75.5631 3.03059 75.2292 3.43935 75.0329 3.91723C74.8367 4.3951 74.7871 4.9205 74.8903 5.42663C74.9936 5.93277 75.2451 6.39678 75.6129 6.75969C75.9807 7.12259 76.4482 7.368 76.9559 7.46471C77.4636 7.56143 77.9886 7.50508 78.4641 7.30283C78.9397 7.10058 79.3444 6.76157 79.6267 6.32889C79.909 5.89621 80.0562 5.3894 80.0496 4.87289C80.0408 4.18788 79.7624 3.53389 79.2747 3.0526C78.7869 2.57131 78.129 2.30146 77.4436 2.30151Z" fill="#19164C"/>
<path d="M34.8837 4.87288C34.9018 5.72634 34.6104 6.55753 34.0632 7.21299C33.516 7.86845 32.75 8.30392 31.9067 8.439C31.0634 8.57408 30.1996 8.39964 29.4749 7.9479C28.7502 7.49615 28.2135 6.79761 27.9639 5.98124C27.8594 5.6211 27.8071 5.24785 27.8086 4.87288C27.8174 3.94095 28.194 3.05016 28.8564 2.39427C29.5189 1.73838 30.4137 1.37045 31.3461 1.37049C31.6958 1.36983 32.0435 1.42215 32.3775 1.52566C33.097 1.7448 33.7279 2.18747 34.1786 2.78938C34.6293 3.3913 34.8762 4.12112 34.8837 4.87288Z" fill="#82CBAD"/>
<path d="M32.5327 2.55643C32.5327 3.02073 32.4412 3.48049 32.2634 3.90946C32.0857 4.33842 31.8251 4.72819 31.4966 5.0565C30.8332 5.71957 29.9334 6.09207 28.9952 6.09207C28.6479 6.10549 28.3004 6.06815 27.9639 5.98123C27.8594 5.6211 27.8071 5.24785 27.8086 4.87288C27.8174 3.94095 28.194 3.05016 28.8564 2.39427C29.5189 1.73838 30.4137 1.37045 31.3461 1.37049C31.6958 1.36983 32.0435 1.42215 32.3775 1.52566C32.4802 1.85962 32.5325 2.20703 32.5327 2.55643Z" fill="#FDFEFF"/>
<path d="M31.3459 9.3728C30.4686 9.3728 29.611 9.11279 28.8815 8.62564C28.1521 8.13849 27.5835 7.44609 27.2478 6.63599C26.9121 5.82589 26.8242 4.93448 26.9954 4.07448C27.1665 3.21448 27.589 2.42452 28.2094 1.8045C28.8297 1.18448 29.6201 0.762234 30.4806 0.59117C31.341 0.420106 32.2329 0.507902 33.0434 0.843457C33.854 1.17901 34.5467 1.74725 35.0341 2.47632C35.5215 3.20539 35.7817 4.06255 35.7817 4.93939C35.7817 6.11521 35.3144 7.24286 34.4825 8.07429C33.6506 8.90571 32.5224 9.3728 31.3459 9.3728ZM31.3459 2.30151C30.8291 2.30156 30.324 2.45519 29.8947 2.74289C29.4655 3.03059 29.1315 3.43935 28.9353 3.91723C28.739 4.3951 28.6894 4.9205 28.7927 5.42663C28.896 5.93277 29.1475 6.39678 29.5153 6.75969C29.8831 7.12259 30.3505 7.368 30.8582 7.46471C31.3659 7.56143 31.8909 7.50508 32.3665 7.30283C32.842 7.10058 33.2467 6.76157 33.529 6.32889C33.8113 5.89621 33.9585 5.3894 33.9519 4.87289C33.9432 4.18788 33.6648 3.53389 33.177 3.0526C32.6892 2.57131 32.0314 2.30146 31.3459 2.30151Z" fill="#19164C"/>
<path d="M67.7307 47.7551C63.8938 54.8374 53.9687 56.6219 53.9687 56.6219C53.9687 56.6219 53.7248 56.245 53.3588 55.58C51.9948 53.1084 49.0672 46.7132 51.4625 41.0939C53.8578 35.4745 61.443 32.227 64.5813 31.1187C64.968 30.9779 65.3936 30.9875 65.7736 31.1456C66.1535 31.3037 66.4602 31.5987 66.6328 31.9721C66.9433 32.6593 67.3315 33.5903 67.7418 34.6765C68.9505 38.2232 70.0262 43.5211 67.7307 47.7551Z" fill="white"/>
<path d="M67.7284 47.755C63.8914 54.8374 53.9664 56.6218 53.9664 56.6218C53.9664 56.6218 53.7224 56.245 53.3565 55.58C52.944 54.4991 52.6177 53.3873 52.3806 52.2549C51.7643 49.6251 51.9576 46.8705 52.9351 44.3524C55.3415 38.7441 62.9156 35.4856 66.0539 34.3772C66.22 34.3123 66.3967 34.2784 66.5751 34.2775C66.9816 34.2676 67.3771 34.4099 67.684 34.6765C68.9482 38.2232 70.0239 43.5211 67.7284 47.755Z" fill="#82CBAD"/>
<path d="M65.6015 43.499C62.2746 49.5838 54.5121 51.7562 52.3829 52.2439C51.7689 49.6176 51.9622 46.8672 52.9374 44.3524C55.3438 38.7441 62.9178 35.4856 66.0561 34.3772C66.2223 34.3123 66.3989 34.2784 66.5773 34.2775C67.3052 37.3731 66.9612 40.624 65.6015 43.499Z" fill="#82CBAD"/>
<path d="M53.9672 57.5528C53.813 57.5523 53.6614 57.5136 53.5259 57.4401C53.3905 57.3666 53.2753 57.2606 53.1909 57.1317C52.9581 56.777 47.3912 48.2648 50.6071 40.7281C53.1577 34.7873 61.009 31.3957 64.2693 30.2098C64.8745 29.9926 65.5392 30.0097 66.1324 30.258C66.7256 30.5062 67.2043 30.9675 67.4741 31.5509C68.8603 34.5878 71.7546 42.2908 68.583 48.1762C64.5798 55.5689 54.5882 57.442 54.1668 57.5196L53.9672 57.5528ZM65.1342 31.9167C65.0574 31.9008 64.9782 31.9008 64.9014 31.9167C61.8739 33.025 54.5882 36.1395 52.326 41.4152C49.9306 47.0124 53.3129 53.6071 54.4219 55.5246C56.5843 55.0036 63.87 52.8756 66.9196 47.2673C69.7142 42.1024 67.0527 35.0755 65.8107 32.2824C65.7461 32.162 65.6476 32.0631 65.5273 31.9981C65.4071 31.9331 65.2704 31.9048 65.1342 31.9167Z" fill="#19164C"/>
<path d="M53.9674 56.6219C53.1649 56.5048 52.3691 56.3457 51.5832 56.1453C48.2564 55.3251 42.379 53.2636 39.8285 48.4866C37.0007 43.2109 39.0411 35.4635 40.139 32.1828C40.2824 31.7351 40.5929 31.3598 41.0059 31.1349C41.4189 30.9099 41.9027 30.8525 42.3568 30.9747C43.6224 31.3096 44.8667 31.7205 46.0829 32.2049C49.4762 33.5682 53.535 35.9622 55.2095 39.9634C58.3034 47.3783 53.9674 56.6219 53.9674 56.6219Z" fill="white"/>
<path d="M53.969 56.6219C53.1664 56.5047 52.3706 56.3457 51.5847 56.1453C51.0192 55.9014 50.4758 55.6465 49.8548 55.3473C47.2847 54.1395 45.1422 52.1798 43.7113 49.7279C40.8835 44.4633 42.9239 36.7159 44.0218 33.4352C44.1356 33.0844 44.3567 32.7781 44.6539 32.5596C44.8485 32.4013 45.0754 32.2875 45.3187 32.2263C45.562 32.165 45.8158 32.1577 46.0622 32.2049C49.4556 33.5682 53.5143 35.9622 55.1888 39.9634C58.3049 47.3782 53.969 56.6219 53.969 56.6219Z" fill="#82CBAD"/>
<path d="M49.8314 55.3473C47.2612 54.1395 45.1188 52.1799 43.6878 49.7279C40.86 44.4633 42.9005 36.7159 43.9983 33.4352C44.1122 33.0844 44.3333 32.7781 44.6304 32.5596C47.3775 33.9322 49.5868 36.1832 50.907 38.9548C53.7237 45.627 50.5078 53.7734 49.8314 55.3473Z" fill="#82CBAD"/>
<path d="M53.9669 57.5529H53.856C53.4124 57.4974 42.8331 56.1231 38.9851 48.9299C35.9688 43.3105 38.1534 35.142 39.2291 31.8945C39.4511 31.228 39.9182 30.6706 40.5359 30.3352C41.1535 29.9998 41.8755 29.9114 42.5559 30.0879C45.7496 30.9192 53.4568 33.4905 56.0406 39.5976C59.3009 47.356 55.0093 56.6329 54.8208 57.0319C54.7428 57.1909 54.621 57.3244 54.4697 57.4167C54.3185 57.5089 54.1441 57.5562 53.9669 57.5529ZM41.8462 31.8502C41.6569 31.8519 41.4729 31.9127 41.3199 32.024C41.1668 32.1352 41.0523 32.2914 40.9923 32.4708C39.9942 35.4966 37.9538 43.0556 40.6263 48.0432C43.4985 53.4076 51.0726 55.1588 53.4013 55.5911C54.2663 53.3744 56.7282 46.1701 54.3107 40.3069C52.0928 34.9646 44.9956 32.6371 42.1123 31.8834C42.0259 31.8582 41.9361 31.847 41.8462 31.8502Z" fill="#19164C"/>
<path d="M61.9417 81.1829V88.498C61.9417 88.8272 61.8108 89.143 61.5779 89.3758C61.345 89.6086 61.0291 89.7393 60.6997 89.7393H50.7192C50.3917 89.7364 50.0787 89.6043 49.8481 89.3719C49.6176 89.1394 49.4883 88.8253 49.4883 88.498V81.1829H61.9417Z" fill="#82CBAD"/>
<path d="M60.7003 90.6705H47.0382C46.45 90.6705 45.8858 90.4369 45.4699 90.0212C45.054 89.6055 44.8203 89.0417 44.8203 88.4538V81.1387C44.8232 80.8926 44.9223 80.6575 45.0963 80.4835C45.2704 80.3095 45.5057 80.2105 45.7518 80.2076H61.9424C62.1885 80.2105 62.4238 80.3095 62.5979 80.4835C62.7719 80.6575 62.871 80.8926 62.8739 81.1387V88.4538C62.874 89.0341 62.6464 89.5913 62.24 90.0058C61.8336 90.4202 61.2808 90.6589 60.7003 90.6705ZM46.7277 82.114V88.4981C46.7305 88.5795 46.7641 88.6569 46.8217 88.7145C46.8793 88.7721 46.9567 88.8057 47.0382 88.8085H60.7003C60.7818 88.8057 60.8592 88.7721 60.9168 88.7145C60.9745 88.6569 61.0081 88.5795 61.0108 88.4981V82.114H46.7277Z" fill="#19164C"/>
<path d="M57.7513 89.7394V94.073C57.7483 94.5209 57.5683 94.9493 57.2504 95.265C56.9325 95.5806 56.5027 95.7577 56.0546 95.7577H51.8295C51.6058 95.7577 51.3842 95.7135 51.1777 95.6276C50.9711 95.5417 50.7836 95.4158 50.6259 95.2571C50.4682 95.0985 50.3434 94.9102 50.2588 94.7032C50.1742 94.4962 50.1314 94.2745 50.1328 94.0509V89.7394H57.7513Z" fill="#82CBAD"/>
<path d="M56.0525 96.711H51.8274C51.1304 96.711 50.4619 96.4342 49.969 95.9416C49.4761 95.449 49.1992 94.7808 49.1992 94.0842V89.7394C49.1992 89.6172 49.2233 89.4961 49.2701 89.3831C49.3169 89.2702 49.3856 89.1676 49.4721 89.0811C49.5585 88.9946 49.6612 88.9261 49.7743 88.8793C49.8873 88.8325 50.0084 88.8084 50.1307 88.8084H57.7824C57.9052 88.8069 58.027 88.83 58.1406 88.8763C58.2543 88.9225 58.3576 88.991 58.4444 89.0778C58.5312 89.1645 58.5998 89.2678 58.6461 89.3814C58.6923 89.495 58.7154 89.6168 58.7139 89.7394V94.0842C58.714 94.4319 58.6449 94.7763 58.5107 95.0971C58.3766 95.418 58.18 95.7091 57.9324 95.9535C57.6848 96.1978 57.3912 96.3906 57.0685 96.5206C56.7457 96.6507 56.4004 96.7154 56.0525 96.711ZM51.029 90.6705V94.0842C51.029 94.287 51.1096 94.4815 51.2531 94.6249C51.3966 94.7684 51.5912 94.8489 51.7941 94.8489H56.0525C56.2554 94.8489 56.45 94.7684 56.5935 94.6249C56.737 94.4815 56.8176 94.287 56.8176 94.0842V90.6705H51.029Z" fill="#19164C"/>
</g>
<defs>
<clipPath id="clip0_194_2205">
<rect width="106.458" height="96.2715" fill="white" transform="translate(0.816406 0.439453)"/>
</clipPath>
</defs>
</svg>
