<svg width="265" height="267" viewBox="0 0 265 267" fill="none" xmlns="http://www.w3.org/2000/svg">
<path d="M190.647 21.6866C216.881 35.1179 243.088 51.7493 255.519 78.3484C267.996 105.044 267.589 136.84 257.379 164.47C247.974 189.917 223.355 204.633 202.425 222.019C182.601 238.486 164.218 257.511 138.946 262.849C112.088 268.523 81.5526 268.239 59.3004 252.253C37.7188 236.749 36.5348 206.512 26.4366 182.024C16.8505 158.777 -4.76867 136.982 1.75781 112.711C8.2635 88.5169 40.2428 83.048 57.8646 65.1468C77.1211 45.5851 83.1301 12.0401 109.285 3.47958C136.352 -5.37958 165.314 8.71656 190.647 21.6866Z" fill="#282065" fill-opacity="0.08"/>
<g clip-path="url(#clip0_393_11)">
<path d="M102.198 155.957H99.2896C95.9989 155.957 93.3203 153.298 93.3203 150.031V132.028C93.3203 128.762 95.9989 126.103 99.2896 126.103H102.198C105.489 126.103 108.167 128.762 108.167 132.028V150.031C108.244 153.298 105.565 155.957 102.198 155.957Z" fill="#82CBAD"/>
<path d="M91.8663 82.8798L101.739 84.3231C102.274 84.399 102.734 84.7029 102.963 85.2346L107.325 94.4262C107.325 94.4262 107.402 94.5781 107.555 94.5781C107.708 94.5781 107.708 94.5022 107.784 94.4262L112.07 85.1587C112.3 84.7029 112.759 84.3231 113.218 84.2471L123.09 82.7278C123.09 82.7278 123.243 82.7278 123.243 82.5759C123.32 82.424 123.243 82.348 123.167 82.348L116.05 75.2075C115.667 74.8277 115.514 74.2959 115.59 73.7642L117.274 63.6611C117.274 63.5851 117.274 63.5091 117.198 63.4332C117.121 63.3572 116.968 63.4332 116.968 63.4332L108.167 68.2189C107.708 68.4468 107.172 68.4468 106.713 68.2189L97.9121 63.5091H97.8356C97.8356 63.5091 97.7591 63.5091 97.6826 63.5851C97.5295 63.6611 97.5295 63.737 97.606 63.813L99.2897 73.9161C99.3662 74.4478 99.2132 74.9796 98.8305 75.3594L91.7132 82.5C91.7132 82.5 91.6367 82.5759 91.6367 82.7278C91.7132 82.8798 91.7898 82.8798 91.8663 82.8798Z" fill="#82CBAD"/>
<path d="M166.638 132.256C166.561 133.244 166.025 134.003 165.107 135.067C165.031 135.143 164.954 135.219 164.877 135.295C164.724 135.446 164.571 135.598 164.418 135.75C163.806 136.282 163.73 137.042 164.036 137.801C164.342 138.485 164.571 139.093 164.801 139.7C165.413 141.448 165.184 142.891 164.036 144.182C163.576 144.714 162.964 145.322 162.275 146.081C161.663 146.689 161.357 147.449 161.357 148.36V148.588C161.357 149.196 161.357 149.804 161.281 150.411C161.204 151.323 160.668 152.006 159.98 152.842C157.99 155.197 155.464 156.564 152.25 157.02C150.719 157.248 149.189 157.324 147.735 157.324C146.97 157.324 146.281 157.324 145.515 157.248C143.526 157.172 141.536 157.096 139.546 156.944C137.709 156.868 135.796 156.716 133.806 156.716C131.511 156.64 129.368 156.184 126.995 155.805C126.46 155.729 125.771 155.577 125.159 155.425C124.011 155.197 122.939 155.045 121.791 154.817C120.567 154.589 119.342 154.361 118.194 154.209C117.812 154.133 117.353 154.057 116.893 153.83C116.511 153.678 116.052 153.374 115.975 152.386C115.975 152.158 115.975 152.006 115.975 151.703C115.975 143.347 116.052 134.991 116.052 126.711C116.052 126.559 116.052 126.483 116.052 126.331C116.052 126.103 116.052 125.799 116.052 125.571C116.052 125.191 116.205 124.888 116.434 124.584C116.74 124.28 117.2 124.052 117.582 124.052C117.735 124.052 117.812 124.052 117.965 124.052C118.118 124.052 118.271 124.052 118.347 124.052C119.266 124.128 119.955 123.596 120.184 123.368C121.179 122.609 121.868 121.621 122.404 120.786C124.011 118.355 125.235 115.772 126.383 113.341L126.613 112.809C126.919 112.05 127.301 111.29 127.608 110.531C128.296 108.783 129.368 107.416 130.898 106.125C131.051 105.973 131.204 105.897 131.357 105.745C131.587 105.593 131.74 105.441 131.97 105.289C133.959 103.77 135.337 101.643 135.949 99.06C136.562 96.4773 136.944 94.0465 137.021 91.6916C137.021 91.0839 137.174 90.4002 137.327 89.7925C137.48 89.1848 137.939 88.4252 139.393 88.0454C139.47 88.0454 139.47 88.0454 139.47 88.0454H139.546H140.311H140.388C140.541 88.0454 140.694 88.1213 140.847 88.1213C141.306 88.1973 141.689 88.2732 142.072 88.3492C145.209 89.2608 147.276 91.3118 148.271 94.6542C149.112 97.3129 149.036 100.124 148.041 103.314C147.582 104.909 146.816 106.353 146.128 107.948C145.975 108.252 145.898 108.479 145.745 108.783C145.286 109.771 144.827 110.758 144.444 111.746C144.368 111.974 144.214 112.202 144.138 112.506C144.061 112.733 143.985 112.961 143.985 113.113V113.189C143.908 113.493 143.985 113.797 144.138 114.025C144.291 114.253 144.597 114.405 144.903 114.405C145.286 114.405 145.592 114.405 145.975 114.405C146.74 114.405 147.505 114.405 148.271 114.405C151.791 114.405 155.388 114.329 158.985 114.784C160.745 115.012 162.046 115.544 163.041 116.38C164.571 117.747 165.643 119.342 166.332 121.165C166.791 122.457 166.714 123.596 166.102 124.736C165.872 125.115 165.643 125.419 165.413 125.799L165.337 125.875C164.495 126.939 164.495 127.394 165.184 128.534C165.26 128.686 165.413 128.838 165.49 128.99C166.025 129.901 166.561 130.813 166.714 131.724V131.8L166.638 132.256ZM164.342 115.012C163.041 113.873 161.434 113.189 159.214 112.885C155.541 112.43 151.791 112.43 148.271 112.506C147.888 112.506 147.505 112.506 147.123 112.506H146.281L146.587 111.746C146.893 111.138 147.276 110.379 147.582 109.619C147.735 109.315 147.811 109.087 147.964 108.783C148.73 107.188 149.495 105.593 150.031 103.846C151.102 100.275 151.179 97.085 150.26 94.0465C149.036 90.0964 146.51 87.5136 142.684 86.4501C142.225 86.2982 141.689 86.2222 141.23 86.1463C141 86.1463 140.847 86.0703 140.618 86.0703C140.541 86.0703 140.465 86.0703 140.388 86.0703H139.393C139.317 86.0703 139.24 86.0703 139.087 86.1463H139.01H138.934C136.638 86.678 135.72 88.1213 135.414 89.1848C135.184 89.9444 135.031 90.78 135.031 91.6156C134.954 93.8945 134.572 96.1734 133.959 98.6043C133.424 100.807 132.352 102.478 130.669 103.77C130.439 103.922 130.21 104.15 129.98 104.302C129.827 104.377 129.75 104.529 129.597 104.605C127.837 106.049 126.536 107.796 125.771 109.771C125.465 110.531 125.159 111.214 124.852 111.974L124.623 112.506C123.551 114.86 122.404 117.367 120.873 119.646C120.337 120.406 119.802 121.165 119.036 121.773C118.96 121.849 118.883 121.849 118.883 121.925L118.73 122.001H118.577C118.501 122.001 118.501 122.001 118.424 122.001C118.271 122.001 118.118 122.001 117.965 122.001C117.888 122.001 117.735 122.001 117.735 122.001C116.817 122.001 115.822 122.457 115.21 123.14C114.597 123.824 114.215 124.66 114.291 125.571C114.291 125.799 114.291 125.951 114.291 126.179C114.291 126.331 114.291 126.483 114.291 126.635C114.291 134.991 114.215 143.347 114.215 151.627C114.215 151.931 114.215 152.234 114.215 152.538C114.368 154.057 115.133 155.121 116.434 155.577C117.046 155.805 117.506 155.957 118.041 156.033C119.266 156.26 120.567 156.488 121.638 156.64H121.715C122.786 156.792 123.858 157.02 125.006 157.248C125.618 157.324 126.23 157.476 126.842 157.552C129.138 158.008 131.511 158.463 133.959 158.539C135.873 158.615 137.786 158.691 139.623 158.767C141.612 158.843 143.602 158.995 145.592 159.071C146.434 159.071 147.199 159.147 147.811 159.147C149.648 159.147 151.179 159.071 152.633 158.843C156.306 158.311 159.291 156.64 161.51 153.982C162.275 153.07 163.117 151.931 163.27 150.487C163.347 149.804 163.347 149.12 163.347 148.512V148.284C163.347 147.904 163.5 147.601 163.73 147.373C164.495 146.613 165.031 146.005 165.566 145.398C167.173 143.575 167.556 141.296 166.714 138.941C166.561 138.485 166.332 137.953 166.102 137.346L165.949 137.042L166.178 136.814C166.255 136.738 166.332 136.662 166.408 136.51C166.485 136.434 166.561 136.358 166.561 136.282C167.479 135.219 168.474 134.003 168.627 132.332V132.256V131.876V131.8C168.474 130.357 167.786 129.142 167.097 128.078C167.02 127.926 166.944 127.85 166.867 127.698L166.714 127.394L166.944 127.015C167.25 126.635 167.556 126.255 167.786 125.799C168.704 124.204 168.857 122.381 168.168 120.558C167.403 118.507 166.102 116.608 164.342 115.012Z" fill="#1D1655"/>
<path d="M92.1741 123.292C92.8629 122.836 93.5517 122.533 94.3935 122.533H95.618C97.8373 122.533 100.21 122.533 102.506 122.533C104.036 122.533 105.567 123.824 106.103 125.419C106.256 125.799 106.332 126.255 106.332 126.711C106.332 130.357 106.332 134.079 106.332 137.725C106.332 142.283 106.332 146.993 106.332 151.551C106.332 153.222 105.261 154.893 103.654 155.501C103.118 155.729 102.659 155.805 102.2 155.805C101.052 155.805 99.8271 155.805 98.373 155.805C97.072 155.805 95.771 155.805 94.6231 155.805C93.2456 155.805 92.0976 155.197 91.1793 153.981C90.6435 153.298 90.414 152.614 90.414 151.778C90.414 148.74 90.414 145.625 90.414 142.587V142.283C90.414 141.22 90.414 140.232 90.414 139.169C90.414 139.093 90.414 139.017 90.414 138.941V138.865V135.522C90.414 132.56 90.414 129.597 90.414 126.635C90.3374 125.343 90.9497 124.204 92.1741 123.292ZM88.3477 139.32C88.3477 139.396 88.3477 139.472 88.3477 139.548V139.624V142.739C88.3477 145.777 88.3477 148.892 88.3477 151.93C88.3477 153.146 88.7303 154.285 89.4956 155.273C90.7201 157.02 92.4803 157.931 94.5466 157.931C95.6945 157.931 96.9955 157.931 98.2965 157.931C99.521 157.931 100.822 157.931 102.123 157.931H102.2C102.965 157.931 103.654 157.78 104.419 157.476C106.715 156.564 108.322 154.209 108.322 151.703C108.322 147.069 108.322 142.359 108.322 137.877C108.322 134.155 108.322 130.509 108.322 126.787C108.322 126.179 108.245 125.571 108.016 124.963C107.25 122.533 104.955 120.709 102.582 120.709C100.286 120.709 97.9904 120.709 95.6945 120.709H94.3935C93.169 120.709 92.0211 121.089 91.0262 121.849C89.266 123.14 88.4242 124.887 88.4242 126.862C88.4242 129.825 88.4242 132.788 88.4242 135.75L88.3477 139.32Z" fill="#1D1655"/>
<path d="M90.9514 81.6647L97.7625 75.0559C97.9921 74.828 98.0687 74.5242 98.0687 74.2203L96.385 64.8009C96.3085 64.497 96.4615 64.2691 96.6911 64.0412C96.8442 63.9653 96.9972 63.8893 97.1503 63.8893C97.3034 63.8893 97.4564 63.9653 97.533 63.9653L105.951 68.4471C106.257 68.599 106.563 68.599 106.87 68.4471L115.288 64.0412C115.517 63.8893 115.824 63.8893 116.053 64.1172C116.283 64.2691 116.436 64.573 116.359 64.8009L114.752 74.1443C114.676 74.4482 114.829 74.7521 115.058 74.9799L121.946 81.5888C122.176 81.8166 122.252 82.0445 122.099 82.3484C122.022 82.6522 121.793 82.8042 121.487 82.8801L112.074 84.2475C111.767 84.3234 111.461 84.4754 111.308 84.7792L107.099 93.2871C106.946 93.515 106.717 93.6669 106.41 93.6669C106.104 93.6669 105.875 93.515 105.722 93.2871L101.436 84.7792C101.283 84.4754 100.977 84.3234 100.671 84.2475L91.334 82.9561C91.0279 82.8801 90.7983 82.7282 90.7218 82.4244C90.6453 82.1965 90.7218 81.8926 90.9514 81.6647ZM91.1045 84.8552L100.058 86.1466L104.115 94.1987C104.574 95.1102 105.492 95.7179 106.563 95.7179C107.635 95.7179 108.553 95.1102 109.012 94.1987L112.915 86.0706L121.869 84.7792C122.864 84.6273 123.706 83.9436 124.089 82.9561C124.395 81.9686 124.165 80.9051 123.4 80.2214L116.818 73.9165L118.349 65.1047C118.502 64.1172 118.119 63.0537 117.278 62.446C116.436 61.8383 115.288 61.7623 114.369 62.2941L106.41 66.4721L98.3748 62.2941C97.4564 61.8383 96.385 61.9143 95.5432 62.522C94.7014 63.1297 94.2422 64.1172 94.4718 65.1807L96.0024 73.9924L89.5739 80.2974C88.8086 81.057 88.579 82.0445 88.8851 83.0321C89.1912 84.0196 90.033 84.7033 91.1045 84.8552Z" fill="#1D1655"/>
<path d="M164.11 97.8446L172.146 99.06C172.528 99.136 172.911 99.3638 173.141 99.8196L176.737 107.34C176.737 107.34 176.814 107.416 176.891 107.416C176.967 107.416 177.044 107.34 177.044 107.34L180.64 99.8196C180.794 99.4398 181.176 99.136 181.635 99.06L189.671 97.8446C189.671 97.8446 189.748 97.8446 189.824 97.6927C189.824 97.6167 189.824 97.5407 189.748 97.4648L183.931 91.6156C183.625 91.3117 183.472 90.856 183.549 90.4761L184.926 82.2721C184.926 82.2721 184.926 82.1962 184.85 82.1202C184.773 82.0442 184.697 82.1202 184.697 82.1202L177.503 85.9943C177.12 86.2222 176.661 86.2222 176.278 85.9943L169.085 82.1202H169.008C169.008 82.1202 168.931 82.1202 168.931 82.1962C168.855 82.2721 168.855 82.3481 168.855 82.3481L170.232 90.5521C170.309 91.0079 170.156 91.3877 169.85 91.6916L164.034 97.5407C164.034 97.5407 163.957 97.6167 163.957 97.7686C164.034 97.8446 164.11 97.8446 164.11 97.8446Z" fill="#82CBAD"/>
<path d="M163.345 96.857L168.932 91.4636C169.085 91.3117 169.238 91.0079 169.162 90.78L167.861 83.1836C167.784 82.9557 167.937 82.7279 168.09 82.5759C168.167 82.5 168.32 82.424 168.473 82.424C168.626 82.424 168.702 82.5 168.779 82.5L175.667 86.0702C175.896 86.2222 176.202 86.2222 176.432 86.0702L183.32 82.424C183.549 82.348 183.779 82.348 183.932 82.5C184.161 82.6519 184.238 82.8798 184.161 83.1077L182.86 90.704C182.784 90.9319 182.937 91.2357 183.09 91.3877L188.677 96.7811C188.83 96.933 188.906 97.1609 188.83 97.3888C188.753 97.6167 188.6 97.7686 188.37 97.7686L180.641 98.984C180.411 99.06 180.182 99.2119 180.029 99.4398L176.585 106.352C176.508 106.58 176.279 106.656 176.049 106.656C175.82 106.656 175.59 106.504 175.514 106.352L172.07 99.4398C171.917 99.2119 171.764 99.06 171.457 98.984L163.728 97.9205C163.498 97.9205 163.345 97.7686 163.269 97.5407C163.116 97.2368 163.192 97.0089 163.345 96.857ZM163.498 99.4398L170.769 100.503L174.059 107.036C174.442 107.796 175.207 108.252 176.049 108.252C176.891 108.252 177.656 107.796 178.039 107.036L181.253 100.503L188.524 99.4398C189.365 99.2878 190.054 98.7561 190.284 97.9205C190.513 97.0849 190.36 96.2493 189.748 95.6416L184.467 90.5521L185.692 83.3356C185.845 82.5 185.462 81.6644 184.774 81.2086C184.085 80.7528 183.166 80.6768 182.478 81.0567L175.973 84.475L169.468 81.0567C168.702 80.6768 167.861 80.7528 167.172 81.2086C166.483 81.7403 166.177 82.5 166.33 83.3356L167.631 90.5521L162.35 95.6416C161.738 96.2493 161.509 97.0849 161.815 97.9205C161.968 98.7561 162.657 99.3638 163.498 99.4398Z" fill="#1D1655"/>
<path d="M137.862 71.4855L143.525 72.3211C143.831 72.3971 144.061 72.549 144.214 72.8529L146.74 78.0943C146.74 78.0943 146.74 78.1703 146.816 78.1703C146.893 78.1703 146.893 78.0943 146.893 78.0943L149.418 72.8529C149.571 72.549 149.801 72.3971 150.107 72.3211L155.77 71.4855C155.77 71.4855 155.847 71.4855 155.847 71.4096C155.847 71.3336 155.847 71.2576 155.847 71.2576L151.791 67.0796C151.561 66.8518 151.484 66.5479 151.561 66.2441L152.479 60.4708C152.479 60.4708 152.479 60.3949 152.403 60.3189C152.326 60.243 152.326 60.3189 152.25 60.3189L147.199 63.0536C146.969 63.2055 146.587 63.2055 146.357 63.0536L141.306 60.3189C141.306 60.3189 141.306 60.3189 141.229 60.3189H141.153C141.153 60.4708 141.153 60.5468 141.153 60.5468L142.148 66.32C142.224 66.6239 142.071 66.9277 141.918 67.1556L137.862 71.2576C137.862 71.2576 137.786 71.3336 137.862 71.4096C137.786 71.4855 137.862 71.4855 137.862 71.4855Z" fill="#82CBAD"/>
<path d="M137.328 70.8018L141.231 67.0036C141.384 66.8517 141.46 66.6998 141.384 66.4719L140.465 61.0785C140.465 60.9266 140.465 60.7747 140.618 60.6987C140.695 60.6227 140.771 60.6227 140.848 60.6227C140.925 60.6227 141.001 60.6227 141.078 60.6987L145.899 63.2055C146.052 63.2814 146.282 63.2814 146.435 63.2055L151.256 60.6987C151.409 60.6227 151.562 60.6227 151.715 60.6987C151.868 60.7747 151.945 60.9266 151.868 61.0785L150.95 66.4719C150.95 66.6238 150.95 66.8517 151.103 67.0036L155.006 70.8018C155.159 70.9537 155.159 71.1057 155.083 71.2576C155.006 71.4095 154.929 71.4855 154.776 71.5614L149.343 72.3211C149.19 72.3211 149.037 72.473 148.884 72.6249L146.435 77.4866C146.358 77.6385 146.205 77.7145 146.052 77.7145C145.899 77.7145 145.746 77.6385 145.669 77.4866L143.45 72.549C143.373 72.397 143.22 72.2451 142.991 72.2451L137.557 71.4855C137.404 71.4855 137.251 71.3336 137.175 71.1816C137.175 71.0297 137.251 70.8778 137.328 70.8018ZM137.404 72.6249L142.532 73.3846L144.828 78.0183C145.057 78.5501 145.593 78.8539 146.205 78.8539C146.817 78.8539 147.353 78.5501 147.583 78.0183L149.879 73.3846L155.006 72.6249C155.618 72.549 156.077 72.1691 156.23 71.5614C156.384 71.0297 156.23 70.422 155.848 69.9662L152.174 66.32L153.016 61.2304C153.093 60.6227 152.863 60.091 152.404 59.7112C151.945 59.3313 151.256 59.3313 150.797 59.6352L146.205 62.066L141.613 59.7112C141.078 59.4073 140.465 59.4833 140.006 59.8631C139.547 60.2429 139.317 60.7747 139.394 61.3824L140.312 66.4719L136.562 69.9662C136.103 70.346 135.95 70.9537 136.18 71.5614C136.333 72.1691 136.792 72.549 137.404 72.6249Z" fill="#1D1655"/>
</g>
<defs>
<clipPath id="clip0_393_11">
<rect width="102.091" height="99.7398" fill="white" transform="translate(88.3477 59.4834)"/>
</clipPath>
</defs>
</svg>
