<svg width="379" height="382" viewBox="0 0 379 382" fill="none" xmlns="http://www.w3.org/2000/svg">
<path d="M106.524 30.1827C68.9215 49.5078 31.3581 73.4372 13.5395 111.708C-4.34344 150.117 -3.76111 195.867 10.8745 235.621C24.3542 272.234 59.643 293.407 89.6429 318.422C118.058 342.115 144.407 369.488 180.631 377.169C219.127 385.332 262.896 384.923 294.791 361.923C325.725 339.616 327.422 296.111 341.896 260.877C355.637 227.43 386.625 196.071 377.27 161.149C367.945 126.339 322.107 118.47 296.849 92.7135C269.248 64.568 260.634 16.3032 223.146 3.98636C184.349 -8.76027 142.836 11.5214 106.524 30.1827Z" fill="#282065"/>
</svg>
