<svg width="61" height="61" viewBox="0 0 61 61" fill="none" xmlns="http://www.w3.org/2000/svg">
<ellipse cx="30.4167" cy="30.4905" rx="30.4167" ry="30.4005" fill="#19164C"/>
<path d="M17.1033 29.11L36.2885 29.11C36.5041 29.1018 36.72 29.1051 36.9352 29.12C37.2284 29.1305 37.5061 29.2542 37.7098 29.4652C37.9135 29.6762 38.0273 29.9579 38.0273 30.2511C38.0273 30.5443 37.9135 30.8261 37.7098 31.0371C37.5061 31.2481 37.2284 31.3718 36.9352 31.3823C36.72 31.3971 36.5041 31.4005 36.2885 31.3923L17.1407 31.3923C17.3333 31.6221 17.4468 31.7801 17.5805 31.9152C18.9227 33.2778 20.2683 34.639 21.6173 35.9987C22.2324 36.6235 22.3014 37.2656 21.8228 37.7655C21.3127 38.2955 20.6602 38.2409 20.0077 37.5859C17.9115 35.484 15.819 33.3774 13.7304 31.2659C12.9989 30.5276 13.0004 29.9732 13.7304 29.2392C15.82 27.1326 17.9129 25.0259 20.0092 22.9192C20.6616 22.2643 21.3098 22.2011 21.8228 22.734C22.3043 23.2295 22.2382 23.883 21.6231 24.5007C20.3124 25.8307 18.9931 27.1522 17.6796 28.4794C17.5158 28.6446 17.3663 28.8227 17.1033 29.11Z" fill="#808080"/>
<ellipse cx="45.6263" cy="30.0178" rx="3.04167" ry="3.04005" transform="rotate(180 45.6263 30.0178)" fill="#808080"/>
</svg>
