<svg width="62" height="62" viewBox="0 0 62 62" fill="none" xmlns="http://www.w3.org/2000/svg">
<ellipse cx="31.1081" cy="31.1537" rx="30.4167" ry="30.4005" fill="#1D1655"/>
<g clip-path="url(#clip0_176_878)">
<path d="M17.7947 29.7732L36.9799 29.7732C37.1955 29.765 37.4114 29.7684 37.6266 29.7832C37.9198 29.7937 38.1975 29.9174 38.4012 30.1284C38.6049 30.3394 38.7187 30.6211 38.7187 30.9143C38.7187 31.2076 38.6049 31.4893 38.4012 31.7003C38.1975 31.9113 37.9198 32.035 37.6266 32.0455C37.4114 32.0603 37.1955 32.0637 36.9799 32.0555L17.8321 32.0555C18.0247 32.2854 18.1382 32.4434 18.2719 32.5784C19.6141 33.941 20.9598 35.3022 22.3087 36.6619C22.9238 37.2868 22.9928 37.9288 22.5142 38.4287C22.0041 38.9587 21.3516 38.9041 20.6992 38.2491C18.6029 36.1472 16.5104 34.0406 14.4218 31.9291C13.6903 31.1908 13.6918 30.6364 14.4218 29.9024C16.5114 27.7958 18.6043 25.6891 20.7006 23.5825C21.353 22.9275 22.0012 22.8643 22.5142 23.3972C22.9957 23.8927 22.9296 24.5463 22.3145 25.1639C21.0038 26.494 19.6845 27.8154 18.371 29.1426C18.2072 29.3078 18.0577 29.4859 17.7947 29.7732Z" fill="#808080"/>
</g>
<ellipse cx="46.3177" cy="30.6811" rx="3.04167" ry="3.04005" transform="rotate(180 46.3177 30.6811)" fill="#808080"/>
<defs>
<clipPath id="clip0_176_878">
<rect width="28.3889" height="15.741" fill="white" transform="translate(42.2617 38.7878) rotate(180)"/>
</clipPath>
</defs>
</svg>
