<svg width="495" height="88" viewBox="0 0 495 88" fill="none" xmlns="http://www.w3.org/2000/svg">
<path d="M13.924 75.328H41.184V86H0.7V5.37999H13.924V75.328ZM110.823 52.476C110.823 54.8733 110.668 57.0387 110.359 58.972H61.523C61.9096 64.076 63.8043 68.1747 67.207 71.268C70.6096 74.3613 74.7856 75.908 79.735 75.908C86.8496 75.908 91.8763 72.9307 94.815 66.976H109.083C107.15 72.8533 103.631 77.6867 98.527 81.476C93.5003 85.188 87.2363 87.044 79.735 87.044C73.6256 87.044 68.135 85.6907 63.263 82.984C58.4683 80.2 54.679 76.3333 51.895 71.384C49.1883 66.3573 47.835 60.5573 47.835 53.984C47.835 47.4107 49.1496 41.6493 51.779 36.7C54.4856 31.6733 58.2363 27.8067 63.031 25.1C67.903 22.3933 73.471 21.04 79.735 21.04C85.767 21.04 91.1416 22.3547 95.859 24.984C100.576 27.6133 104.25 31.3253 106.879 36.12C109.508 40.8373 110.823 46.2893 110.823 52.476ZM97.019 48.3C96.9416 43.428 95.2016 39.5227 91.799 36.584C88.3963 33.6453 84.1816 32.176 79.155 32.176C74.5923 32.176 70.687 33.6453 67.439 36.584C64.191 39.4453 62.2576 43.3507 61.639 48.3H97.019ZM139.265 32.872V68.252C139.265 70.6493 139.806 72.3893 140.889 73.472C142.049 74.4773 143.982 74.98 146.689 74.98H154.809V86H144.369C138.414 86 133.851 84.608 130.681 81.824C127.51 79.04 125.925 74.516 125.925 68.252V32.872H118.385V22.084H125.925V6.192H139.265V22.084H154.809V32.872H139.265ZM169.085 5.37999H183.469L171.289 32.988H162.009L169.085 5.37999ZM218.291 87.044C213.264 87.044 208.74 86.1547 204.719 84.376C200.775 82.52 197.643 80.0453 195.323 76.952C193.003 73.7813 191.765 70.2627 191.611 66.396H205.299C205.531 69.1027 206.807 71.384 209.127 73.24C211.524 75.0187 214.501 75.908 218.059 75.908C221.771 75.908 224.632 75.212 226.643 73.82C228.731 72.3507 229.775 70.4947 229.775 68.252C229.775 65.8547 228.615 64.076 226.295 62.916C224.052 61.756 220.456 60.48 215.507 59.088C210.712 57.7733 206.807 56.4973 203.791 55.26C200.775 54.0227 198.145 52.128 195.903 49.576C193.737 47.024 192.655 43.66 192.655 39.484C192.655 36.0813 193.66 32.988 195.671 30.204C197.681 27.3427 200.543 25.1 204.255 23.476C208.044 21.852 212.375 21.04 217.247 21.04C224.516 21.04 230.355 22.896 234.763 26.608C239.248 30.2427 241.645 35.2307 241.955 41.572H228.731C228.499 38.7107 227.339 36.4293 225.251 34.728C223.163 33.0267 220.34 32.176 216.783 32.176C213.303 32.176 210.635 32.8333 208.779 34.148C206.923 35.4627 205.995 37.2027 205.995 39.368C205.995 41.0693 206.613 42.5 207.851 43.66C209.088 44.82 210.596 45.748 212.375 46.444C214.153 47.0627 216.783 47.8747 220.263 48.88C224.903 50.1173 228.692 51.3933 231.631 52.708C234.647 53.9453 237.237 55.8013 239.403 58.276C241.568 60.7507 242.689 64.0373 242.767 68.136C242.767 71.7707 241.761 75.0187 239.751 77.88C237.74 80.7413 234.879 82.984 231.167 84.608C227.532 86.232 223.24 87.044 218.291 87.044ZM302.616 32.872V68.252C302.616 70.6493 303.158 72.3893 304.24 73.472C305.4 74.4773 307.334 74.98 310.04 74.98H318.16V86H307.72C301.766 86 297.203 84.608 294.032 81.824C290.862 79.04 289.276 74.516 289.276 68.252V32.872H281.736V22.084H289.276V6.192H302.616V22.084H318.16V32.872H302.616ZM325.94 53.752C325.94 47.3333 327.255 41.6493 329.884 36.7C332.591 31.7507 336.226 27.9227 340.788 25.216C345.428 22.432 350.532 21.04 356.1 21.04C361.127 21.04 365.496 22.0453 369.208 24.056C372.998 25.9893 376.014 28.4253 378.256 31.364V22.084H391.596V86H378.256V76.488C376.014 79.504 372.959 82.0173 369.092 84.028C365.226 86.0387 360.818 87.044 355.868 87.044C350.378 87.044 345.351 85.652 340.788 82.868C336.226 80.0067 332.591 76.0627 329.884 71.036C327.255 65.932 325.94 60.1707 325.94 53.752ZM378.256 53.984C378.256 49.576 377.328 45.748 375.472 42.5C373.694 39.252 371.335 36.7773 368.396 35.076C365.458 33.3747 362.287 32.524 358.884 32.524C355.482 32.524 352.311 33.3747 349.372 35.076C346.434 36.7 344.036 39.136 342.18 42.384C340.402 45.5547 339.512 49.344 339.512 53.752C339.512 58.16 340.402 62.0267 342.18 65.352C344.036 68.6773 346.434 71.2293 349.372 73.008C352.388 74.7093 355.559 75.56 358.884 75.56C362.287 75.56 365.458 74.7093 368.396 73.008C371.335 71.3067 373.694 68.832 375.472 65.584C377.328 62.2587 378.256 58.392 378.256 53.984ZM422.19 0.159999V86H408.966V0.159999H422.19ZM464.84 54.1L494.304 86H476.44L452.776 58.508V86H439.552V0.159999H452.776V50.04L475.976 22.084H494.304L464.84 54.1Z" fill="#FDBC3B"/>
</svg>
