<svg width="494" height="88" viewBox="0 0 494 88" fill="none" xmlns="http://www.w3.org/2000/svg">
<path d="M13.2521 75.328H40.5121V86H0.0281253V5.37999H13.2521V75.328ZM110.151 52.476C110.151 54.8733 109.996 57.0387 109.687 58.972H60.8511C61.2378 64.076 63.1324 68.1747 66.5351 71.268C69.9378 74.3613 74.1138 75.908 79.0631 75.908C86.1778 75.908 91.2044 72.9307 94.1431 66.976H108.411C106.478 72.8533 102.959 77.6867 97.8551 81.476C92.8284 85.188 86.5644 87.044 79.0631 87.044C72.9538 87.044 67.4631 85.6907 62.5911 82.984C57.7964 80.2 54.0071 76.3333 51.2231 71.384C48.5164 66.3573 47.1631 60.5573 47.1631 53.984C47.1631 47.4107 48.4778 41.6493 51.1071 36.7C53.8138 31.6733 57.5644 27.8067 62.3591 25.1C67.2311 22.3933 72.7991 21.04 79.0631 21.04C85.0951 21.04 90.4698 22.3547 95.1871 24.984C99.9044 27.6133 103.578 31.3253 106.207 36.12C108.836 40.8373 110.151 46.2893 110.151 52.476ZM96.3471 48.3C96.2698 43.428 94.5298 39.5227 91.1271 36.584C87.7244 33.6453 83.5098 32.176 78.4831 32.176C73.9204 32.176 70.0151 33.6453 66.7671 36.584C63.5191 39.4453 61.5858 43.3507 60.9671 48.3H96.3471ZM138.593 32.872V68.252C138.593 70.6493 139.134 72.3893 140.217 73.472C141.377 74.4773 143.31 74.98 146.017 74.98H154.137V86H143.697C137.742 86 133.18 84.608 130.009 81.824C126.838 79.04 125.253 74.516 125.253 68.252V32.872H117.713V22.084H125.253V6.192H138.593V22.084H154.137V32.872H138.593ZM168.413 5.37999H182.797L170.617 32.988H161.337L168.413 5.37999ZM217.619 87.044C212.592 87.044 208.068 86.1547 204.047 84.376C200.103 82.52 196.971 80.0453 194.651 76.952C192.331 73.7813 191.093 70.2627 190.939 66.396H204.627C204.859 69.1027 206.135 71.384 208.455 73.24C210.852 75.0187 213.829 75.908 217.387 75.908C221.099 75.908 223.96 75.212 225.971 73.82C228.059 72.3507 229.103 70.4947 229.103 68.252C229.103 65.8547 227.943 64.076 225.623 62.916C223.38 61.756 219.784 60.48 214.835 59.088C210.04 57.7733 206.135 56.4973 203.119 55.26C200.103 54.0227 197.473 52.128 195.231 49.576C193.065 47.024 191.983 43.66 191.983 39.484C191.983 36.0813 192.988 32.988 194.999 30.204C197.009 27.3427 199.871 25.1 203.583 23.476C207.372 21.852 211.703 21.04 216.575 21.04C223.844 21.04 229.683 22.896 234.091 26.608C238.576 30.2427 240.973 35.2307 241.283 41.572H228.059C227.827 38.7107 226.667 36.4293 224.579 34.728C222.491 33.0267 219.668 32.176 216.111 32.176C212.631 32.176 209.963 32.8333 208.107 34.148C206.251 35.4627 205.323 37.2027 205.323 39.368C205.323 41.0693 205.941 42.5 207.179 43.66C208.416 44.82 209.924 45.748 211.703 46.444C213.481 47.0627 216.111 47.8747 219.591 48.88C224.231 50.1173 228.02 51.3933 230.959 52.708C233.975 53.9453 236.565 55.8013 238.731 58.276C240.896 60.7507 242.017 64.0373 242.095 68.136C242.095 71.7707 241.089 75.0187 239.079 77.88C237.068 80.7413 234.207 82.984 230.495 84.608C226.86 86.232 222.568 87.044 217.619 87.044ZM301.944 32.872V68.252C301.944 70.6493 302.486 72.3893 303.568 73.472C304.728 74.4773 306.662 74.98 309.368 74.98H317.488V86H307.048C301.094 86 296.531 84.608 293.36 81.824C290.19 79.04 288.604 74.516 288.604 68.252V32.872H281.064V22.084H288.604V6.192H301.944V22.084H317.488V32.872H301.944ZM325.269 53.752C325.269 47.3333 326.583 41.6493 329.213 36.7C331.919 31.7507 335.554 27.9227 340.117 25.216C344.757 22.432 349.861 21.04 355.429 21.04C360.455 21.04 364.825 22.0453 368.537 24.056C372.326 25.9893 375.342 28.4253 377.585 31.364V22.084H390.925V86H377.585V76.488C375.342 79.504 372.287 82.0173 368.421 84.028C364.554 86.0387 360.146 87.044 355.197 87.044C349.706 87.044 344.679 85.652 340.117 82.868C335.554 80.0067 331.919 76.0627 329.213 71.036C326.583 65.932 325.269 60.1707 325.269 53.752ZM377.585 53.984C377.585 49.576 376.657 45.748 374.801 42.5C373.022 39.252 370.663 36.7773 367.725 35.076C364.786 33.3747 361.615 32.524 358.213 32.524C354.81 32.524 351.639 33.3747 348.701 35.076C345.762 36.7 343.365 39.136 341.509 42.384C339.73 45.5547 338.841 49.344 338.841 53.752C338.841 58.16 339.73 62.0267 341.509 65.352C343.365 68.6773 345.762 71.2293 348.701 73.008C351.717 74.7093 354.887 75.56 358.213 75.56C361.615 75.56 364.786 74.7093 367.725 73.008C370.663 71.3067 373.022 68.832 374.801 65.584C376.657 62.2587 377.585 58.392 377.585 53.984ZM421.518 0.159999V86H408.294V0.159999H421.518ZM464.168 54.1L493.632 86H475.768L452.104 58.508V86H438.88V0.159999H452.104V50.04L475.304 22.084H493.632L464.168 54.1Z" fill="#FDBC3B"/>
</svg>
