<svg width="21" height="28" viewBox="0 0 21 28" fill="none" xmlns="http://www.w3.org/2000/svg">
<g clip-path="url(#clip0_194_2507)">
<path d="M10.5295 0.60083C7.84051 0.60083 5.26165 1.60962 3.36024 3.40527C1.45883 5.20093 0.390625 7.63636 0.390625 10.1758C0.390625 17.357 10.5295 27.9613 10.5295 27.9613C10.5295 27.9613 20.6684 17.357 20.6684 10.1758C20.6684 7.63636 19.6002 5.20093 17.6988 3.40527C15.7974 1.60962 13.2185 0.60083 10.5295 0.60083V0.60083ZM10.5295 13.5988C9.81263 13.5988 9.11184 13.3981 8.51577 13.022C7.91969 12.6458 7.45511 12.1112 7.18077 11.4857C6.90643 10.8603 6.83465 10.172 6.97451 9.50799C7.11437 8.84398 7.45958 8.23405 7.9665 7.75533C8.47341 7.27661 9.11927 6.9506 9.82238 6.81852C10.5255 6.68644 11.2543 6.75423 11.9166 7.01331C12.5789 7.27239 13.145 7.71113 13.5433 8.27405C13.9416 8.83697 14.1542 9.49878 14.1542 10.1758C14.1542 11.0836 13.7723 11.9543 13.0925 12.5963C12.4128 13.2382 11.4908 13.5988 10.5295 13.5988Z" fill="white"/>
</g>
<defs>
<clipPath id="clip0_194_2507">
<rect width="20.2778" height="27.3605" fill="white" transform="translate(0.390625 0.60083)"/>
</clipPath>
</defs>
</svg>
