<svg width="187" height="22" viewBox="0 0 187 22" fill="none" xmlns="http://www.w3.org/2000/svg">
<path d="M27.3102 0.768738V21.0357H22.5449V8.77421H22.2408L16.4616 18.705H11.5949L5.81574 8.77421H5.61295V21.0357H0.847656V0.768738H6.7282L13.9268 13.6383H14.231L21.4296 0.768738H27.3102Z" fill="#808080"/>
<path d="M53.2653 21.0359L52.5556 19.3132C51.8458 17.7932 50.325 16.7798 48.6014 16.7798H41.9097L40.0847 21.1372H34.8125L43.8361 0.870209H49.7167L58.6389 21.1372H53.2653V21.0359ZM43.532 12.8277H49.6153L46.675 6.0383H46.3709L43.532 12.8277Z" fill="#808080"/>
<path d="M83.1754 15.3611C83.1754 16.6785 82.7699 17.8945 81.8574 18.8065C80.9449 19.7185 79.931 20.4279 78.6129 20.8332C77.2949 21.2386 75.8754 21.4412 74.3546 21.4412C71.3129 21.4412 68.8796 20.8332 67.2574 19.6172C65.6352 18.4012 64.824 16.6785 64.7227 14.6518H69.7921C69.9949 15.5638 70.4004 16.2731 71.1101 16.6785C71.8199 17.0838 72.9352 17.3878 74.3546 17.3878C76.7879 17.3878 78.0046 16.7798 78.0046 15.5638C78.0046 15.0571 77.8018 14.6518 77.3963 14.3478C76.9907 14.0438 76.5851 13.7398 76.1796 13.6384C75.774 13.5371 75.0643 13.3344 74.1518 13.1318L71.1101 12.5237C69.2851 12.1184 67.8657 11.4091 66.8519 10.497C65.838 9.58503 65.331 8.26767 65.331 6.84898C65.331 4.92361 66.1421 3.40359 67.663 2.2889C69.2852 1.17422 71.313 0.667542 73.9491 0.667542C76.5852 0.667542 78.7143 1.27555 80.2351 2.39024C81.756 3.50492 82.5671 5.02495 82.6685 6.84898H77.5991C77.2949 5.43029 76.1796 4.82228 74.0504 4.82228C71.7185 4.82228 70.6032 5.43029 70.6032 6.54497C70.6032 7.15299 70.9074 7.55832 71.4144 7.86233C71.9213 8.16633 72.8338 8.47034 73.9491 8.67301L76.8893 9.17968C81.1477 9.88903 83.1754 12.0171 83.1754 15.3611Z" fill="#808080"/>
<path d="M109.132 0.76889V5.1263H102.136V21.0359H97.2695V5.1263H90.375V0.76889H109.132Z" fill="#808080"/>
<path d="M121.5 16.8812H133.768V21.0359H116.734V0.76889H133.464V5.02496H121.5V8.67302H131.74V12.8278H121.5V16.8812Z" fill="#808080"/>
<path d="M161.245 21.0359H155.973L153.336 15.9691C152.627 14.5505 151.106 13.6384 149.484 13.6384H147.05V21.0359H142.285V0.76889H153.641C155.77 0.76889 157.493 1.3769 158.71 2.49159C159.927 3.60627 160.535 5.1263 160.535 6.95033C160.535 8.36902 160.231 9.4837 159.521 10.4971C158.812 11.5104 157.899 12.2197 156.682 12.7264L161.245 21.0359ZM147.05 4.92363V9.68637H153.235C153.945 9.68637 154.553 9.4837 154.959 8.97703C155.364 8.57169 155.567 7.96368 155.567 7.25433C155.567 6.54499 155.364 6.03831 154.959 5.53164C154.553 5.1263 153.945 4.92363 153.134 4.92363H147.05Z" fill="#808080"/>
<path d="M186.898 15.3611C186.898 16.6785 186.493 17.8945 185.58 18.8065C184.668 19.7185 183.654 20.4279 182.336 20.8332C181.018 21.2386 179.598 21.4412 178.077 21.4412C175.036 21.4412 172.602 20.8332 170.98 19.6172C169.358 18.4012 168.547 16.6785 168.445 14.6518H173.515C173.718 15.5638 174.123 16.2731 174.833 16.6785C175.543 17.0838 176.658 17.3878 178.077 17.3878C180.511 17.3878 181.727 16.7798 181.727 15.5638C181.727 15.0571 181.524 14.6518 181.119 14.3478C180.713 14.0438 180.308 13.7398 179.902 13.6384C179.497 13.5371 178.787 13.3344 177.875 13.1318L174.833 12.5237C173.008 12.1184 171.69 11.4091 170.574 10.497C169.561 9.58503 169.054 8.26767 169.054 6.84898C169.054 4.92361 169.865 3.40359 171.386 2.2889C172.906 1.17422 175.036 0.667542 177.672 0.667542C180.308 0.667542 182.437 1.27555 183.958 2.39024C185.479 3.50492 186.29 5.02495 186.391 6.84898H181.322C181.018 5.43029 179.902 4.82228 177.773 4.82228C175.441 4.82228 174.326 5.43029 174.326 6.54497C174.326 7.15299 174.63 7.55832 175.137 7.86233C175.644 8.16633 176.556 8.47034 177.672 8.67301L180.612 9.17968C184.769 9.88903 186.898 12.0171 186.898 15.3611Z" fill="#808080"/>
</svg>
