<svg width="1172" height="1112" viewBox="0 0 1172 1112" fill="none" xmlns="http://www.w3.org/2000/svg">
<path d="M842.589 87.8616C958.871 144.117 1075.03 213.775 1130.13 325.182C1185.43 436.991 1183.63 570.167 1138.37 685.89C1096.69 792.473 987.563 854.106 894.793 926.925C806.924 995.896 725.445 1075.58 613.426 1097.94C494.383 1121.7 359.035 1120.51 260.404 1053.56C164.745 988.619 159.497 861.978 114.737 759.412C72.2475 662.047 -23.5781 570.76 5.35006 469.104C34.1861 367.771 175.932 344.865 254.04 269.889C339.393 187.957 366.027 47.4586 481.955 11.6043C601.929 -25.5011 730.302 33.5386 842.589 87.8616Z" fill="#0A0629"/>
</svg>
