<svg width="35" height="24" viewBox="0 0 35 24" fill="none" xmlns="http://www.w3.org/2000/svg">
<path d="M1.91512 14.026C2.97282 14.026 3.83025 13.169 3.83025 12.1119C3.83025 11.0547 2.97282 10.1978 1.91512 10.1978C0.85743 10.1978 0 11.0547 0 12.1119C0 13.169 0.85743 14.026 1.91512 14.026Z" fill="#FDBC3B"/>
<path d="M32.6717 10.1978H9.46037C8.46614 10.1978 7.66016 11.0033 7.66016 11.997V12.2267C7.66016 13.2204 8.46614 14.026 9.46037 14.026H32.6717C33.6659 14.026 34.4719 13.2204 34.4719 12.2267V11.997C34.4719 11.0033 33.6659 10.1978 32.6717 10.1978Z" fill="white"/>
<path d="M32.672 19.7683H1.80022C0.805984 19.7683 0 20.5739 0 21.5676V21.7973C0 22.791 0.805984 23.5965 1.80022 23.5965H32.672C33.6662 23.5965 34.4722 22.791 34.4722 21.7973V21.5676C34.4722 20.5739 33.6662 19.7683 32.672 19.7683Z" fill="white"/>
<path d="M32.672 0.627441H1.80022C0.805984 0.627441 0 1.433 0 2.4267V2.65639C0 3.6501 0.805984 4.45565 1.80022 4.45565H32.672C33.6662 4.45565 34.4722 3.6501 34.4722 2.65639V2.4267C34.4722 1.433 33.6662 0.627441 32.672 0.627441Z" fill="white"/>
</svg>
