<svg width="153" height="34" viewBox="0 0 153 34" fill="none" xmlns="http://www.w3.org/2000/svg">
<path d="M0.402344 0.627502H15.8135C15.8135 5.79559 15.8135 10.8623 15.8135 16.0304C10.6426 16.0304 5.57318 16.0304 0.402344 16.0304V0.627502Z" fill="#808080"/>
<path d="M17.4375 0.728851H32.8486C32.8486 5.89694 32.8486 10.9637 32.8486 16.1318C27.6778 16.1318 22.6083 16.1318 17.4375 16.1318C17.4375 10.9637 17.4375 5.7956 17.4375 0.728851Z" fill="#808080"/>
<path d="M139.305 6.70762C140.724 5.7956 142.549 5.69427 144.172 6.09961C144.172 7.01162 144.172 8.02497 144.172 8.93699C143.462 8.63298 142.549 8.43031 141.738 8.73432C141.13 8.93699 140.724 9.64633 140.623 10.2543C140.522 11.065 140.623 11.8757 140.522 12.7877C142.144 12.7877 143.766 12.7877 145.388 12.7877C145.388 11.7744 145.388 10.6597 145.388 9.64633C146.504 9.34233 147.619 8.93699 148.734 8.63298C148.734 10.0517 148.734 11.369 148.734 12.7877C149.849 12.7877 150.965 12.7877 152.08 12.7877V15.5238C150.965 15.5238 149.849 15.5238 148.734 15.5238C148.734 17.0438 148.734 18.6651 148.734 20.1852C148.734 20.9959 148.734 21.9079 148.836 22.7186C148.937 23.2252 149.038 23.8332 149.545 24.0359C150.356 24.4412 151.37 24.2386 152.08 23.8332V26.5693C151.168 26.9746 150.052 27.076 149.038 27.076C148.024 26.9746 147.011 26.6706 146.402 25.8599C145.693 24.9479 145.49 23.8332 145.49 22.7186C145.49 20.2865 145.49 17.9558 145.49 15.5238C143.868 15.5238 142.245 15.5238 140.623 15.5238C140.623 19.2732 140.623 23.0226 140.623 26.772C139.508 26.772 138.393 26.772 137.277 26.772C137.277 23.0226 137.277 19.2732 137.277 15.5238C136.466 15.5238 135.756 15.5238 134.945 15.5238C134.945 14.6117 134.945 13.6997 134.945 12.8891C135.756 12.8891 136.466 12.8891 137.277 12.8891C137.379 11.673 137.176 10.457 137.48 9.34233C137.683 8.22764 138.393 7.31563 139.305 6.70762Z" fill="#808080"/>
<path d="M68.0283 6.80893C68.738 6.7076 69.4477 6.91027 69.8533 7.41694C70.3602 8.02495 70.4616 8.93697 70.0561 9.54498C69.6505 10.2543 68.6366 10.6597 67.8255 10.457C67.0144 10.3557 66.3047 9.54498 66.3047 8.7343C66.3047 7.72095 67.1158 6.91027 68.0283 6.80893Z" fill="#808080"/>
<path d="M42.4805 7.21429C44.1027 7.21429 45.7249 7.21429 47.3471 7.21429C48.868 11.065 50.3888 14.9158 51.9096 18.6652C52.3152 19.5772 52.6194 20.5905 53.0249 21.5025C54.9513 16.7398 56.9791 11.977 58.9055 7.21429C60.4263 7.21429 62.0485 7.21429 63.5694 7.21429C63.5694 13.6997 63.5694 20.1852 63.5694 26.6706C62.4541 26.6706 61.3388 26.6706 60.2235 26.6706C60.2235 21.9079 60.2235 17.1451 60.2235 12.3824C60.2235 12.1797 60.2235 11.977 60.2235 11.7744C60.1221 11.8757 60.1221 11.977 60.0207 12.0784C58.0944 16.9425 56.168 21.8065 54.2416 26.772C53.4305 26.772 52.6194 26.772 51.8082 26.772C49.7805 21.9079 47.8541 16.9425 45.9277 12.0784C45.8263 11.977 45.8263 11.8757 45.7249 11.7744C45.7249 13.9024 45.7249 15.9291 45.7249 18.0571C45.7249 20.9959 45.7249 23.8332 45.7249 26.772C44.711 26.772 43.5957 26.772 42.5819 26.772C42.4805 20.0838 42.4805 13.6997 42.4805 7.21429Z" fill="#808080"/>
<path d="M77.1549 12.6864C78.7771 12.281 80.5007 12.281 82.1229 12.6864C82.4271 12.7877 82.7313 12.889 83.0354 13.0917C83.0354 14.1051 83.0354 15.2197 83.0354 16.2331C81.9201 15.4224 80.6021 14.9157 79.284 15.0171C78.1688 15.1184 77.1549 15.6251 76.5465 16.5371C75.7354 17.6518 75.5326 19.0705 75.634 20.3878C75.7354 21.4012 76.141 22.5159 76.9521 23.1239C77.7632 23.8332 78.9799 24.1372 80.0951 24.0359C81.2104 23.9346 82.2243 23.4279 83.0354 22.8199C83.0354 23.8332 83.0354 24.8466 83.0354 25.8599C81.7174 26.6706 79.9938 26.8733 78.4729 26.7719C76.8507 26.6706 75.3299 26.0626 74.1132 24.9479C72.8965 23.7319 72.1868 22.0092 72.0854 20.2865C71.984 18.4625 72.3896 16.6384 73.4035 15.1184C74.316 14.0037 75.634 13.0917 77.1549 12.6864Z" fill="#808080"/>
<path d="M113.552 12.585C115.073 12.281 116.695 12.4837 118.114 13.0917C118.114 14.1051 118.114 15.1184 118.114 16.1318C117.1 15.4224 115.884 15.0171 114.667 15.1184C114.059 15.1184 113.349 15.4224 113.045 16.0304C112.842 16.6384 112.943 17.3478 113.552 17.7531C114.464 18.3611 115.58 18.6651 116.593 19.1718C117.405 19.5772 118.114 20.1852 118.52 20.9959C119.23 22.5159 118.925 24.5426 117.607 25.6573C116.391 26.7719 114.566 27.076 112.943 27.076C111.828 26.9746 110.612 26.7719 109.598 26.2653C109.598 25.1506 109.598 24.1372 109.598 23.0226C110.51 23.6306 111.524 24.1372 112.639 24.3399C113.45 24.4412 114.262 24.4412 114.971 24.1372C115.681 23.8332 115.782 22.8199 115.377 22.2119C114.971 21.8065 114.464 21.5025 113.957 21.2999C112.943 20.8945 111.93 20.4892 111.118 19.7798C110.51 19.2732 110.105 18.6651 109.902 17.8545C109.598 16.7398 109.699 15.5238 110.409 14.5104C110.916 13.4971 112.234 12.7877 113.552 12.585Z" fill="#808080"/>
<path d="M90.5382 12.9904C91.4507 12.4837 92.6674 12.3824 93.5799 12.6864C93.5799 13.8011 93.5799 14.9158 93.5799 16.0304C92.9715 15.6251 92.059 15.4224 91.3493 15.5238C90.4368 15.6251 89.6257 16.3344 89.2201 17.1451C88.8146 18.0571 88.7132 19.0705 88.7132 19.9825C88.7132 22.2119 88.7132 24.4412 88.7132 26.6706C87.5979 26.6706 86.4826 26.6706 85.4688 26.6706C85.4688 22.0092 85.4688 17.4491 85.4688 12.7877C86.584 12.7877 87.6993 12.7877 88.7132 12.7877C88.7132 13.5984 88.7132 14.4091 88.7132 15.2198C89.1187 14.3077 89.6257 13.3957 90.5382 12.9904Z" fill="#808080"/>
<path d="M66.6094 12.6864C67.7247 12.6864 68.8399 12.6864 69.9552 12.6864C69.9552 17.3478 69.9552 21.9079 69.9552 26.5693C68.8399 26.5693 67.7247 26.5693 66.6094 26.5693C66.6094 22.0092 66.6094 17.3478 66.6094 12.6864Z" fill="#808080"/>
<path d="M107.366 16.0304C106.758 14.7131 105.744 13.6997 104.426 13.0917C102.905 12.3824 101.283 12.281 99.6607 12.4837C97.9371 12.6864 96.3149 13.497 95.301 14.8144C94.2871 16.0304 93.8816 17.5504 93.7802 19.0705C93.6788 20.8945 93.983 22.8199 94.9968 24.2386C95.9093 25.5559 97.3288 26.4679 98.8496 26.7719C100.168 27.0759 101.486 27.0759 102.702 26.7719C104.223 26.4679 105.643 25.6572 106.555 24.4412C107.468 23.3265 107.873 21.8065 107.975 20.3878C108.177 18.8678 107.975 17.3478 107.366 16.0304ZM104.122 22.4145C103.818 23.1239 103.209 23.7319 102.5 24.0359C101.689 24.3399 100.675 24.3399 99.7621 24.1372C98.8496 23.9345 98.1399 23.2252 97.633 22.4145C97.126 21.2998 97.0246 20.0838 97.126 18.9691C97.2274 17.8544 97.6329 16.8411 98.4441 16.0304C99.0524 15.5237 99.8635 15.2197 100.675 15.1184C101.689 15.0171 102.702 15.3211 103.412 16.0304C104.223 16.7398 104.527 17.8544 104.527 18.9691C104.73 20.1852 104.629 21.2998 104.122 22.4145Z" fill="#808080"/>
<path d="M134.032 16.4358C133.525 15.0171 132.512 13.9024 131.194 13.193C129.673 12.3824 127.949 12.281 126.225 12.4837C124.907 12.6864 123.589 13.193 122.575 14.1051C121.359 15.2197 120.548 16.7398 120.345 18.3611C120.142 19.9825 120.244 21.7052 120.852 23.2252C121.46 24.7452 122.778 25.9613 124.198 26.4679C125.719 27.0759 127.341 27.0759 128.862 26.8733C130.484 26.5693 132.005 25.7586 132.917 24.4412C133.931 23.1239 134.438 21.4012 134.438 19.6785C134.641 18.6651 134.438 17.4491 134.032 16.4358ZM131.092 21.1985C130.991 21.9079 130.687 22.6172 130.18 23.2252C129.673 23.8332 128.963 24.1372 128.253 24.2386C127.442 24.3399 126.631 24.3399 125.921 23.9346C125.11 23.6306 124.502 22.9212 124.198 22.1105C123.792 21.1985 123.691 20.0838 123.792 19.0705C123.894 18.0571 124.198 17.0438 124.806 16.3344C125.414 15.6251 126.327 15.2197 127.239 15.2197C128.152 15.1184 129.166 15.4224 129.875 16.0304C130.585 16.5371 130.889 17.4491 131.092 18.2598C131.194 19.1718 131.194 20.1852 131.092 21.1985Z" fill="#808080"/>
<path d="M0.402344 17.6518C5.57318 17.6518 10.6426 17.6518 15.8135 17.6518C15.8135 22.8199 15.8135 27.8866 15.8135 33.0547H0.402344V17.6518Z" fill="#808080"/>
<path d="M17.4357 17.6518C22.6065 17.6518 27.676 17.6518 32.8468 17.6518C32.8468 22.8199 32.8468 27.8866 32.8468 33.0547H17.4357C17.3343 27.8866 17.4357 22.8199 17.4357 17.6518Z" fill="#808080"/>
</svg>
