<svg width="148" height="33" viewBox="0 0 148 33" fill="none" xmlns="http://www.w3.org/2000/svg">
<path d="M0.597656 0.67627H15.6032C15.6032 5.64169 15.6032 10.6071 15.6032 15.6739C10.6352 15.6739 5.6671 15.6739 0.597656 15.6739V0.67627Z" fill="#1D1655"/>
<path d="M17.125 0.67627H32.1306C32.1306 5.64169 32.1306 10.6071 32.1306 15.6739C27.1625 15.6739 22.1944 15.6739 17.125 15.6739C17.125 10.7084 17.125 5.64169 17.125 0.67627Z" fill="#1D1655"/>
<path d="M135.547 6.55368C136.967 5.64167 138.69 5.54033 140.312 6.04701C140.312 6.95902 140.312 7.87104 140.312 8.78305C139.603 8.47905 138.69 8.27638 137.879 8.58038C137.271 8.78305 136.865 9.4924 136.764 10.1004C136.662 10.9111 136.764 11.7218 136.662 12.5324C138.285 12.5324 139.806 12.5324 141.428 12.5324C141.428 11.5191 141.428 10.5057 141.428 9.4924C142.543 9.18839 143.557 8.88439 144.672 8.47905C144.672 9.7964 144.672 11.2151 144.672 12.5324C145.788 12.5324 146.801 12.5324 147.917 12.5324V15.1672C146.801 15.1672 145.788 15.1672 144.672 15.1672C144.672 16.6872 144.672 18.2072 144.672 19.7272C144.672 20.5379 144.672 21.4499 144.672 22.2606C144.774 22.7673 144.875 23.274 145.382 23.578C146.193 23.9833 147.106 23.7806 147.815 23.3753V26.01C146.903 26.4153 145.889 26.5167 144.875 26.4153C143.962 26.314 142.949 26.01 142.34 25.1993C141.631 24.3886 141.428 23.1726 141.428 22.1593C141.428 19.8286 141.428 17.4979 141.428 15.1672C139.806 15.1672 138.285 15.1672 136.662 15.1672C136.662 18.8152 136.662 22.4633 136.662 26.1113C135.547 26.1113 134.533 26.1113 133.418 26.1113C133.418 22.4633 133.418 18.8152 133.418 15.1672C132.708 15.1672 131.897 15.1672 131.188 15.1672C131.188 14.2551 131.188 13.4445 131.188 12.5324C131.897 12.5324 132.708 12.5324 133.418 12.5324C133.519 11.4178 133.317 10.2017 133.621 9.08706C133.925 7.97237 134.635 7.06036 135.547 6.55368Z" fill="#1D1655"/>
<path d="M66.1964 6.65497C66.8048 6.55364 67.5145 6.75631 68.0214 7.26298C68.5284 7.87099 68.6298 8.68167 68.2242 9.39102C67.8187 10.1004 66.9062 10.5057 66.0951 10.303C65.2839 10.2017 64.5742 9.39102 64.5742 8.479C64.5742 7.56699 65.3853 6.75631 66.1964 6.65497Z" fill="#1D1655"/>
<path d="M41.4569 7.0603C42.9777 7.0603 44.5999 7.0603 46.1207 7.0603C47.5402 10.8097 49.061 14.4578 50.4805 18.2072C50.886 19.1192 51.1902 20.0312 51.5957 21.0445C53.5221 16.3831 55.4485 11.823 57.2735 7.16164C58.7944 7.16164 60.3152 7.16164 61.836 7.16164C61.836 13.4444 61.836 19.7272 61.836 26.01C60.7207 26.01 59.7069 26.01 58.5916 26.01C58.5916 21.3485 58.5916 16.6871 58.5916 12.1271C58.5916 11.9244 58.5916 11.7217 58.5916 11.519C58.4902 11.6204 58.4902 11.7217 58.3888 11.823C56.5638 16.5858 54.6374 21.3485 52.711 26.01C51.8999 26.01 51.1902 26.01 50.3791 26.01C48.4527 21.2472 46.5263 16.4845 44.5999 11.7217C44.5999 11.6204 44.4985 11.519 44.3971 11.4177C44.3971 13.4444 44.3971 15.4711 44.3971 17.4978C44.3971 20.3352 44.3971 23.1726 44.3971 25.9086C43.3832 25.9086 42.3694 25.9086 41.3555 25.9086C41.4569 19.6258 41.4569 13.3431 41.4569 7.0603Z" fill="#1D1655"/>
<path d="M75.1201 12.3299C76.6409 11.9245 78.3645 11.9245 79.8853 12.3299C80.1895 12.4312 80.4937 12.5326 80.7978 12.7352C80.7978 13.7486 80.7978 14.7619 80.7978 15.8766C79.7839 15.0659 78.4659 14.5593 77.1478 14.7619C76.1339 14.8633 75.1201 15.3699 74.4103 16.282C73.5992 17.2953 73.3964 18.714 73.5992 20.0313C73.7006 21.0447 74.1062 22.058 74.9173 22.7674C75.7284 23.4767 76.8437 23.7807 77.959 23.6794C78.9728 23.5781 79.9867 23.0714 80.8992 22.4634C80.8992 23.4767 80.8992 24.3888 80.8992 25.4021C79.5812 26.2128 77.959 26.4155 76.4381 26.3141C74.9173 26.2128 73.3964 25.6048 72.1798 24.5914C70.9631 23.3754 70.2534 21.754 70.2534 20.0313C70.152 18.3087 70.5576 16.4846 71.5714 15.0659C72.3826 13.6472 73.7006 12.8366 75.1201 12.3299Z" fill="#1D1655"/>
<path d="M110.504 12.2285C112.025 11.9245 113.545 12.1272 114.965 12.7352C114.965 13.7486 114.965 14.7619 114.965 15.6739C113.951 14.9646 112.734 14.6606 111.619 14.6606C111.011 14.6606 110.301 14.9646 110.098 15.4713C109.895 16.0793 109.997 16.7886 110.605 17.0926C111.518 17.7006 112.633 18.0046 113.545 18.5113C114.255 18.9166 115.066 19.5247 115.37 20.234C116.08 21.754 115.776 23.6794 114.559 24.7941C113.343 25.9088 111.619 26.2128 110.098 26.1114C108.983 26.0101 107.868 25.8074 106.854 25.4021C106.854 24.3887 106.854 23.2741 106.854 22.2607C107.766 22.8687 108.679 23.3754 109.794 23.5781C110.504 23.6794 111.315 23.6794 112.025 23.3754C112.734 23.0714 112.836 22.1594 112.43 21.5514C112.025 21.146 111.518 20.842 111.011 20.6393C110.098 20.234 109.084 19.8287 108.172 19.2207C107.563 18.714 107.158 18.106 106.955 17.3966C106.651 16.2819 106.752 15.0659 107.361 14.1539C107.969 13.0392 109.186 12.4312 110.504 12.2285Z" fill="#1D1655"/>
<path d="M88.0971 12.6337C89.0096 12.127 90.1249 12.0257 91.1388 12.431C91.1388 13.5457 91.1388 14.5591 91.1388 15.6737C90.5305 15.2684 89.7194 15.0657 88.9082 15.1671C87.9957 15.2684 87.286 15.9777 86.8805 16.7884C86.4749 17.5991 86.3735 18.6125 86.3735 19.5245C86.3735 21.6525 86.3735 23.8819 86.3735 26.0099C85.3596 26.0099 84.2444 26.0099 83.2305 26.0099C83.2305 21.5512 83.2305 16.9911 83.2305 12.5324C84.2444 12.5324 85.3596 12.5324 86.3735 12.5324C86.3735 13.343 86.3735 14.0524 86.3735 14.8631C86.7791 13.8497 87.286 13.039 88.0971 12.6337Z" fill="#1D1655"/>
<path d="M64.8789 12.4312C65.9942 12.4312 67.0081 12.4312 68.1233 12.4312C68.1233 16.8899 68.1233 21.45 68.1233 25.9087C67.0081 25.9087 65.9942 25.9087 64.8789 25.9087C64.8789 21.3486 64.8789 16.8899 64.8789 12.4312Z" fill="#1D1655"/>
<path d="M104.519 15.5725C103.911 14.3564 102.897 13.2418 101.68 12.7351C100.261 12.1271 98.6388 12.0257 97.0165 12.2284C95.3943 12.4311 93.7721 13.2418 92.7582 14.4578C91.8457 15.5725 91.4402 17.0925 91.3388 18.6125C91.2374 20.3352 91.5415 22.1592 92.5554 23.6793C93.4679 24.8953 94.786 25.8073 96.3068 26.1113C97.5235 26.4153 98.8415 26.4153 100.058 26.1113C101.478 25.8073 102.897 24.9966 103.81 23.7806C104.722 22.6659 105.128 21.2472 105.229 19.8285C105.229 18.4098 105.128 16.8898 104.519 15.5725ZM101.376 21.7539C101.072 22.4632 100.464 23.0713 99.754 23.2739C98.9429 23.6793 98.0304 23.6793 97.1179 23.4766C96.2054 23.2739 95.4957 22.5646 95.0902 21.7539C94.5832 20.7405 94.4818 19.5245 94.5832 18.4098C94.6846 17.3965 95.0902 16.2818 95.7999 15.5725C96.4082 15.0658 97.1179 14.7618 97.929 14.7618C98.9429 14.6604 99.9568 14.9644 100.667 15.6738C101.376 16.3831 101.68 17.4978 101.782 18.5112C101.883 19.6259 101.883 20.7405 101.376 21.7539Z" fill="#1D1655"/>
<path d="M130.377 15.9778C129.87 14.6605 128.856 13.4445 127.64 12.8364C126.119 12.1271 124.496 12.0258 122.874 12.2284C121.556 12.4311 120.34 12.8365 119.326 13.7485C118.109 14.7618 117.399 16.2818 117.196 17.9032C116.994 19.4232 117.095 21.1459 117.703 22.5646C118.312 23.9833 119.528 25.1993 120.948 25.706C122.367 26.314 123.99 26.314 125.51 26.1113C127.031 25.8073 128.552 24.9967 129.465 23.7806C130.478 22.4633 130.884 20.8419 130.884 19.2206C130.985 18.1059 130.783 16.9912 130.377 15.9778ZM127.538 20.5379C127.437 21.2473 127.133 21.9566 126.727 22.5646C126.22 23.1726 125.51 23.4766 124.801 23.578C123.99 23.6793 123.178 23.6793 122.469 23.274C121.658 22.97 121.049 22.2606 120.745 21.4499C120.34 20.5379 120.238 19.5246 120.34 18.5112C120.441 17.5992 120.644 16.5858 121.353 15.7752C121.962 15.0658 122.773 14.6605 123.685 14.6605C124.598 14.5591 125.612 14.7618 126.321 15.4712C126.93 15.9778 127.335 16.7885 127.538 17.5992C127.64 18.6125 127.64 19.6259 127.538 20.5379Z" fill="#1D1655"/>
<path d="M0.597656 17.1938C5.56571 17.1938 10.5338 17.1938 15.6032 17.1938C15.6032 22.1593 15.6032 27.1247 15.6032 32.1914L0.597656 32.0901V17.1938Z" fill="#1D1655"/>
<path d="M17.125 17.1938C22.0931 17.1938 27.0611 17.1938 32.1306 17.1938C32.1306 22.1593 32.1306 27.1247 32.1306 32.1914H17.125C17.125 27.1247 17.125 22.1593 17.125 17.1938Z" fill="#1D1655"/>
</svg>
