<svg width="537" height="553" viewBox="0 0 537 553" fill="none" xmlns="http://www.w3.org/2000/svg">
<path d="M369.203 43.6938C428.435 71.6696 487.605 106.311 515.673 161.714C543.842 217.316 542.924 283.546 519.87 341.095C498.637 394.099 443.05 424.749 395.795 460.962C351.036 495.261 309.531 534.887 252.47 546.007C191.832 557.824 122.887 557.232 72.6459 523.936C23.9186 491.642 21.2454 428.663 -1.55446 377.657C-23.1982 329.237 -72.0103 283.84 -57.2748 233.286C-42.5861 182.893 29.6173 171.502 69.4042 134.216C112.882 93.4715 126.449 23.6013 185.501 5.77083C246.614 -12.6817 312.005 16.6788 369.203 43.6938Z" fill="#A2A2A3" fill-opacity="0.12"/>
</svg>
