<svg width="27" height="26" viewBox="0 0 27 26" fill="none" xmlns="http://www.w3.org/2000/svg">
<path d="M25.6469 13.0275C25.5314 13.0275 25.4206 12.9816 25.339 12.8999C25.2573 12.8183 25.2114 12.7075 25.2114 12.592C25.2114 6.38982 20.3117 1.35058 14.2754 1.35058C14.1599 1.35058 14.0491 1.30469 13.9674 1.22301C13.8857 1.14133 13.8398 1.03055 13.8398 0.915036C13.8398 0.799523 13.8857 0.68874 13.9674 0.60706C14.0491 0.52538 14.1599 0.479492 14.2754 0.479492C20.7865 0.479492 26.0825 5.91508 26.0825 12.6007C26.0802 12.7147 26.0333 12.8232 25.9519 12.903C25.8704 12.9828 25.7609 13.0275 25.6469 13.0275Z" fill="white"/>
<path d="M20.8985 13.0275C20.783 13.0275 20.6722 12.9816 20.5905 12.9C20.5088 12.8183 20.4629 12.7075 20.4629 12.592C20.4839 10.9268 19.8446 9.32114 18.6848 8.12619C17.5249 6.93123 15.9391 6.24429 14.2741 6.21563C14.1586 6.21563 14.0478 6.16974 13.9662 6.08806C13.8845 6.00638 13.8386 5.8956 13.8386 5.78008C13.8386 5.66457 13.8845 5.55379 13.9662 5.47211C14.0478 5.39043 14.1586 5.34454 14.2741 5.34454C16.1689 5.37094 17.9759 6.14789 19.2986 7.50495C20.6213 8.862 21.3517 10.6883 21.3296 12.5833C21.3308 12.6408 21.3205 12.6981 21.2994 12.7516C21.2783 12.8052 21.2468 12.854 21.2067 12.8954C21.1666 12.9367 21.1187 12.9696 21.0658 12.9923C21.0129 13.015 20.956 13.027 20.8985 13.0275ZM23.4681 22.1827C22.9121 23.2955 22.1234 24.2759 21.1554 25.0573C20.8099 25.3311 20.4109 25.5295 19.9841 25.6397C19.5573 25.75 19.1122 25.7697 18.6773 25.6975C14.7271 25.0268 10.8378 23.2933 6.9573 19.4779C3.25099 15.5014 1.51324 11.4422 0.859955 7.38724C0.787653 6.94179 0.805523 6.48635 0.912504 6.04793C1.01949 5.60951 1.2134 5.19703 1.48276 4.83495C2.23602 3.83875 3.19962 3.02084 4.30496 2.43946C4.41112 2.32798 4.53883 2.23923 4.68032 2.17858C4.82182 2.11794 4.97416 2.08667 5.1281 2.08667C5.28204 2.08667 5.43438 2.11794 5.57588 2.17858C5.71737 2.23923 5.84508 2.32798 5.95124 2.43946L9.78822 6.42469C10.0218 6.67541 10.1517 7.00536 10.1517 7.34804C10.1517 7.69072 10.0218 8.02067 9.78822 8.27139L7.07054 11.22C8.22468 13.7505 12.4885 18.1408 14.9361 19.3255L17.8062 16.525C17.924 16.407 18.0638 16.3133 18.2177 16.2495C18.3717 16.1856 18.5367 16.1527 18.7034 16.1527C18.8701 16.1527 19.0351 16.1856 19.1891 16.2495C19.343 16.3133 19.4829 16.407 19.6006 16.525L23.4768 20.4448C23.5909 20.5592 23.6813 20.695 23.7426 20.8445C23.804 20.9939 23.8352 21.154 23.8344 21.3156C23.8336 21.4771 23.8008 21.6369 23.7379 21.7858C23.675 21.9346 23.5833 22.0695 23.4681 22.1827Z" fill="white"/>
</svg>
