<svg width="192" height="46" viewBox="0 0 192 46" fill="none" xmlns="http://www.w3.org/2000/svg">
<rect width="192" height="34" rx="17" fill="#140F3D"/>
<path d="M160.921 40.6767C160.305 41.2632 159.284 40.8621 159.233 40.0133L158.472 27.5051C158.428 26.7755 159.156 26.2463 159.836 26.5137L169.671 30.3794C170.351 30.6469 170.524 31.5301 169.995 32.0343L160.921 40.6767Z" fill="#140F3D"/>
<path d="M9.80706 17.136C9.80706 16.3427 9.96573 15.6473 10.2831 15.05C10.6097 14.4433 11.0577 13.9767 11.6271 13.65C12.1964 13.3233 12.8497 13.16 13.5871 13.16C14.5204 13.16 15.2904 13.384 15.8971 13.832C16.5131 14.2707 16.9284 14.9007 17.1431 15.722H15.4211C15.2811 15.3393 15.0571 15.0407 14.7491 14.826C14.4411 14.6113 14.0537 14.504 13.5871 14.504C12.9337 14.504 12.4111 14.7373 12.0191 15.204C11.6364 15.6613 11.4451 16.3053 11.4451 17.136C11.4451 17.9667 11.6364 18.6153 12.0191 19.082C12.4111 19.5487 12.9337 19.782 13.5871 19.782C14.5111 19.782 15.1224 19.376 15.4211 18.564H17.1431C16.9191 19.348 16.4991 19.9733 15.8831 20.44C15.2671 20.8973 14.5017 21.126 13.5871 21.126C12.8497 21.126 12.1964 20.9627 11.6271 20.636C11.0577 20.3 10.6097 19.8333 10.2831 19.236C9.96573 18.6293 9.80706 17.9293 9.80706 17.136ZM18.2016 17.108C18.2016 16.3333 18.3603 15.6473 18.6776 15.05C19.0043 14.4527 19.4429 13.9907 19.9936 13.664C20.5536 13.328 21.1696 13.16 21.8416 13.16C22.4483 13.16 22.9756 13.2813 23.4236 13.524C23.8809 13.7573 24.2449 14.0513 24.5156 14.406V13.286H26.1256V21H24.5156V19.852C24.2449 20.216 23.8763 20.5193 23.4096 20.762C22.9429 21.0047 22.4109 21.126 21.8136 21.126C21.1509 21.126 20.5443 20.958 19.9936 20.622C19.4429 20.2767 19.0043 19.8007 18.6776 19.194C18.3603 18.578 18.2016 17.8827 18.2016 17.108ZM24.5156 17.136C24.5156 16.604 24.4036 16.142 24.1796 15.75C23.9649 15.358 23.6803 15.0593 23.3256 14.854C22.9709 14.6487 22.5883 14.546 22.1776 14.546C21.7669 14.546 21.3843 14.6487 21.0296 14.854C20.6749 15.05 20.3856 15.344 20.1616 15.736C19.9469 16.1187 19.8396 16.576 19.8396 17.108C19.8396 17.64 19.9469 18.1067 20.1616 18.508C20.3856 18.9093 20.6749 19.2173 21.0296 19.432C21.3936 19.6373 21.7763 19.74 22.1776 19.74C22.5883 19.74 22.9709 19.6373 23.3256 19.432C23.6803 19.2267 23.9649 18.928 24.1796 18.536C24.4036 18.1347 24.5156 17.668 24.5156 17.136ZM29.8179 10.64V21H28.2219V10.64H29.8179ZM33.5093 10.64V21H31.9133V10.64H33.5093ZM42.5874 21.126C41.8594 21.126 41.2014 20.9627 40.6134 20.636C40.0254 20.3 39.5634 19.8333 39.2274 19.236C38.8914 18.6293 38.7234 17.9293 38.7234 17.136C38.7234 16.352 38.8961 15.6567 39.2414 15.05C39.5867 14.4433 40.0581 13.9767 40.6554 13.65C41.2527 13.3233 41.9201 13.16 42.6574 13.16C43.3947 13.16 44.0621 13.3233 44.6594 13.65C45.2567 13.9767 45.7281 14.4433 46.0734 15.05C46.4187 15.6567 46.5914 16.352 46.5914 17.136C46.5914 17.92 46.4141 18.6153 46.0594 19.222C45.7047 19.8287 45.2194 20.3 44.6034 20.636C43.9967 20.9627 43.3247 21.126 42.5874 21.126ZM42.5874 19.74C42.9981 19.74 43.3807 19.642 43.7354 19.446C44.0994 19.25 44.3934 18.956 44.6174 18.564C44.8414 18.172 44.9534 17.696 44.9534 17.136C44.9534 16.576 44.8461 16.1047 44.6314 15.722C44.4167 15.33 44.1321 15.036 43.7774 14.84C43.4227 14.644 43.0401 14.546 42.6294 14.546C42.2187 14.546 41.8361 14.644 41.4814 14.84C41.1361 15.036 40.8607 15.33 40.6554 15.722C40.4501 16.1047 40.3474 16.576 40.3474 17.136C40.3474 17.9667 40.5574 18.6107 40.9774 19.068C41.4067 19.516 41.9434 19.74 42.5874 19.74ZM52.0611 13.16C52.6678 13.16 53.2091 13.286 53.6851 13.538C54.1705 13.79 54.5485 14.1633 54.8191 14.658C55.0898 15.1527 55.2251 15.75 55.2251 16.45V21H53.6431V16.688C53.6431 15.9973 53.4705 15.47 53.1251 15.106C52.7798 14.7327 52.3085 14.546 51.7111 14.546C51.1138 14.546 50.6378 14.7327 50.2831 15.106C49.9378 15.47 49.7651 15.9973 49.7651 16.688V21H48.1691V13.286H49.7651V14.168C50.0265 13.8507 50.3578 13.6033 50.7591 13.426C51.1698 13.2487 51.6038 13.16 52.0611 13.16ZM68.4157 16.618H65.5877V19.516H64.1037V16.618H61.2757V15.274H64.1037V12.376H65.5877V15.274H68.4157V16.618ZM70.4858 18.872V17.668L75.1898 10.92H77.1218V17.486H78.4238V18.872H77.1218V21H75.5538V18.872H70.4858ZM75.6238 12.544L72.3198 17.486H75.6238V12.544ZM79.5503 18.872V17.668L84.2543 10.92H86.1863V17.486H87.4883V18.872H86.1863V21H84.6183V18.872H79.5503ZM84.6883 12.544L81.3843 17.486H84.6883V12.544ZM98.9154 12.026L95.0234 21H93.4134L97.3474 12.194H92.1674V10.836H98.9154V12.026ZM100.085 18.872V17.668L104.789 10.92H106.721V17.486H108.023V18.872H106.721V21H105.153V18.872H100.085ZM105.223 12.544L101.919 17.486H105.223V12.544ZM109.136 12.25V10.794H112.048V21H110.438V12.25H109.136ZM114.044 18.872V17.668L118.748 10.92H120.68V17.486H121.982V18.872H120.68V21H119.112V18.872H114.044ZM119.182 12.544L115.878 17.486H119.182V12.544ZM127.824 18.83C128.72 18.0553 129.424 17.4207 129.938 16.926C130.46 16.422 130.894 15.8993 131.24 15.358C131.585 14.8167 131.758 14.2753 131.758 13.734C131.758 13.174 131.622 12.7353 131.352 12.418C131.09 12.1007 130.675 11.942 130.106 11.942C129.555 11.942 129.126 12.1193 128.818 12.474C128.519 12.8193 128.36 13.286 128.342 13.874H126.802C126.83 12.81 127.147 11.998 127.754 11.438C128.37 10.8687 129.149 10.584 130.092 10.584C131.109 10.584 131.902 10.864 132.472 11.424C133.05 11.984 133.34 12.7307 133.34 13.664C133.34 14.336 133.167 14.9847 132.822 15.61C132.486 16.226 132.08 16.7813 131.604 17.276C131.137 17.7613 130.54 18.326 129.812 18.97L129.182 19.53H133.62V20.86H126.816V19.698L127.824 18.83ZM137.01 18.228C137.103 18.6947 137.304 19.0493 137.612 19.292C137.92 19.5347 138.335 19.656 138.858 19.656C139.52 19.656 140.006 19.3947 140.314 18.872C140.622 18.3493 140.776 17.458 140.776 16.198C140.552 16.5153 140.234 16.7627 139.824 16.94C139.422 17.108 138.984 17.192 138.508 17.192C137.901 17.192 137.35 17.0707 136.856 16.828C136.361 16.576 135.969 16.2073 135.68 15.722C135.4 15.2273 135.26 14.63 135.26 13.93C135.26 12.9033 135.558 12.0867 136.156 11.48C136.762 10.864 137.593 10.556 138.648 10.556C139.917 10.556 140.818 10.9807 141.35 11.83C141.891 12.67 142.162 13.9627 142.162 15.708C142.162 16.912 142.059 17.8967 141.854 18.662C141.658 19.4273 141.312 20.006 140.818 20.398C140.323 20.79 139.637 20.986 138.76 20.986C137.761 20.986 136.991 20.7247 136.45 20.202C135.908 19.6793 135.605 19.0213 135.54 18.228H137.01ZM138.788 15.848C139.348 15.848 139.786 15.6753 140.104 15.33C140.43 14.9753 140.594 14.5087 140.594 13.93C140.594 13.286 140.421 12.7867 140.076 12.432C139.74 12.068 139.278 11.886 138.69 11.886C138.102 11.886 137.635 12.0727 137.29 12.446C136.954 12.81 136.786 13.2907 136.786 13.888C136.786 14.4573 136.949 14.9287 137.276 15.302C137.612 15.666 138.116 15.848 138.788 15.848ZM145.896 18.228C145.99 18.6947 146.19 19.0493 146.498 19.292C146.806 19.5347 147.222 19.656 147.744 19.656C148.407 19.656 148.892 19.3947 149.2 18.872C149.508 18.3493 149.662 17.458 149.662 16.198C149.438 16.5153 149.121 16.7627 148.71 16.94C148.309 17.108 147.87 17.192 147.394 17.192C146.788 17.192 146.237 17.0707 145.742 16.828C145.248 16.576 144.856 16.2073 144.566 15.722C144.286 15.2273 144.146 14.63 144.146 13.93C144.146 12.9033 144.445 12.0867 145.042 11.48C145.649 10.864 146.48 10.556 147.534 10.556C148.804 10.556 149.704 10.9807 150.236 11.83C150.778 12.67 151.048 13.9627 151.048 15.708C151.048 16.912 150.946 17.8967 150.74 18.662C150.544 19.4273 150.199 20.006 149.704 20.398C149.21 20.79 148.524 20.986 147.646 20.986C146.648 20.986 145.878 20.7247 145.336 20.202C144.795 19.6793 144.492 19.0213 144.426 18.228H145.896ZM147.674 15.848C148.234 15.848 148.673 15.6753 148.99 15.33C149.317 14.9753 149.48 14.5087 149.48 13.93C149.48 13.286 149.308 12.7867 148.962 12.432C148.626 12.068 148.164 11.886 147.576 11.886C146.988 11.886 146.522 12.0727 146.176 12.446C145.84 12.81 145.672 13.2907 145.672 13.888C145.672 14.4573 145.836 14.9287 146.162 15.302C146.498 15.666 147.002 15.848 147.674 15.848ZM154.783 18.228C154.876 18.6947 155.077 19.0493 155.385 19.292C155.693 19.5347 156.108 19.656 156.631 19.656C157.294 19.656 157.779 19.3947 158.087 18.872C158.395 18.3493 158.549 17.458 158.549 16.198C158.325 16.5153 158.008 16.7627 157.597 16.94C157.196 17.108 156.757 17.192 156.281 17.192C155.674 17.192 155.124 17.0707 154.629 16.828C154.134 16.576 153.742 16.2073 153.453 15.722C153.173 15.2273 153.033 14.63 153.033 13.93C153.033 12.9033 153.332 12.0867 153.929 11.48C154.536 10.864 155.366 10.556 156.421 10.556C157.69 10.556 158.591 10.9807 159.123 11.83C159.664 12.67 159.935 13.9627 159.935 15.708C159.935 16.912 159.832 17.8967 159.627 18.662C159.431 19.4273 159.086 20.006 158.591 20.398C158.096 20.79 157.41 20.986 156.533 20.986C155.534 20.986 154.764 20.7247 154.223 20.202C153.682 19.6793 153.378 19.0213 153.313 18.228H154.783ZM156.561 15.848C157.121 15.848 157.56 15.6753 157.877 15.33C158.204 14.9753 158.367 14.5087 158.367 13.93C158.367 13.286 158.194 12.7867 157.849 12.432C157.513 12.068 157.051 11.886 156.463 11.886C155.875 11.886 155.408 12.0727 155.063 12.446C154.727 12.81 154.559 13.2907 154.559 13.888C154.559 14.4573 154.722 14.9287 155.049 15.302C155.385 15.666 155.889 15.848 156.561 15.848ZM167.17 13.16C167.067 12.7307 166.88 12.4087 166.61 12.194C166.339 11.9793 165.961 11.872 165.476 11.872C164.738 11.872 164.188 12.1567 163.824 12.726C163.46 13.286 163.268 14.2193 163.25 15.526C163.492 15.1153 163.847 14.798 164.314 14.574C164.78 14.35 165.284 14.238 165.826 14.238C166.442 14.238 166.983 14.3733 167.45 14.644C167.926 14.9053 168.294 15.288 168.556 15.792C168.826 16.296 168.962 16.898 168.962 17.598C168.962 18.2513 168.831 18.8347 168.57 19.348C168.318 19.8613 167.94 20.2673 167.436 20.566C166.932 20.8553 166.325 21 165.616 21C164.654 21 163.898 20.79 163.348 20.37C162.806 19.9407 162.424 19.3387 162.2 18.564C161.985 17.7893 161.878 16.8233 161.878 15.666C161.878 12.25 163.082 10.542 165.49 10.542C166.423 10.542 167.156 10.794 167.688 11.298C168.229 11.802 168.546 12.4227 168.64 13.16H167.17ZM165.476 15.582C164.906 15.582 164.421 15.7547 164.02 16.1C163.628 16.436 163.432 16.926 163.432 17.57C163.432 18.214 163.614 18.7273 163.978 19.11C164.351 19.4833 164.869 19.67 165.532 19.67C166.12 19.67 166.582 19.488 166.918 19.124C167.263 18.76 167.436 18.2747 167.436 17.668C167.436 17.0333 167.268 16.5293 166.932 16.156C166.605 15.7733 166.12 15.582 165.476 15.582ZM172.652 18.228C172.746 18.6947 172.946 19.0493 173.254 19.292C173.562 19.5347 173.978 19.656 174.5 19.656C175.163 19.656 175.648 19.3947 175.956 18.872C176.264 18.3493 176.418 17.458 176.418 16.198C176.194 16.5153 175.877 16.7627 175.466 16.94C175.065 17.108 174.626 17.192 174.15 17.192C173.544 17.192 172.993 17.0707 172.498 16.828C172.004 16.576 171.612 16.2073 171.322 15.722C171.042 15.2273 170.902 14.63 170.902 13.93C170.902 12.9033 171.201 12.0867 171.798 11.48C172.405 10.864 173.236 10.556 174.29 10.556C175.56 10.556 176.46 10.9807 176.992 11.83C177.534 12.67 177.804 13.9627 177.804 15.708C177.804 16.912 177.702 17.8967 177.496 18.662C177.3 19.4273 176.955 20.006 176.46 20.398C175.966 20.79 175.28 20.986 174.402 20.986C173.404 20.986 172.634 20.7247 172.092 20.202C171.551 19.6793 171.248 19.0213 171.182 18.228H172.652ZM174.43 15.848C174.99 15.848 175.429 15.6753 175.746 15.33C176.073 14.9753 176.236 14.5087 176.236 13.93C176.236 13.286 176.064 12.7867 175.718 12.432C175.382 12.068 174.92 11.886 174.332 11.886C173.744 11.886 173.278 12.0727 172.932 12.446C172.596 12.81 172.428 13.2907 172.428 13.888C172.428 14.4573 172.592 14.9287 172.918 15.302C173.254 15.666 173.758 15.848 174.43 15.848Z" fill="#E3F1E6"/>
</svg>
