<svg width="149" height="46" viewBox="0 0 149 46" fill="none" xmlns="http://www.w3.org/2000/svg">
<rect width="149" height="33.5619" rx="16.781" fill="#140F3D"/>
<path d="M25.9207 40.6767C25.3049 41.2632 24.2845 40.8621 24.2328 40.0133L23.472 27.5051C23.4276 26.7755 24.1556 26.2463 24.836 26.5137L34.671 30.3794C35.3514 30.6469 35.5242 31.5301 34.9949 32.0343L25.9207 40.6767Z" fill="#140F3D"/>
<path d="M25.1418 15.002C25.6645 15.0953 26.1078 15.3707 26.4718 15.828C26.8358 16.2853 27.0178 16.8033 27.0178 17.382C27.0178 17.8767 26.8871 18.3247 26.6258 18.726C26.3738 19.118 26.0051 19.4307 25.5198 19.664C25.0345 19.888 24.4698 20 23.8258 20H19.9338V10.27H23.6438C24.3065 10.27 24.8758 10.382 25.3518 10.606C25.8278 10.83 26.1871 11.1333 26.4298 11.516C26.6725 11.8893 26.7938 12.3093 26.7938 12.776C26.7938 13.336 26.6445 13.8027 26.3458 14.176C26.0471 14.5493 25.6458 14.8247 25.1418 15.002ZM21.5298 14.358H23.5038C24.0265 14.358 24.4325 14.2413 24.7218 14.008C25.0205 13.7653 25.1698 13.42 25.1698 12.972C25.1698 12.5333 25.0205 12.1927 24.7218 11.95C24.4325 11.698 24.0265 11.572 23.5038 11.572H21.5298V14.358ZM23.6858 18.698C24.2271 18.698 24.6518 18.5673 24.9598 18.306C25.2678 18.0447 25.4218 17.6807 25.4218 17.214C25.4218 16.738 25.2585 16.36 24.9318 16.08C24.6051 15.8 24.1711 15.66 23.6298 15.66H21.5298V18.698H23.6858ZM28.2201 16.108C28.2201 15.3333 28.3788 14.6473 28.6961 14.05C29.0228 13.4527 29.4615 12.9907 30.0121 12.664C30.5721 12.328 31.1881 12.16 31.8601 12.16C32.4668 12.16 32.9941 12.2813 33.4421 12.524C33.8995 12.7573 34.2635 13.0513 34.5341 13.406V12.286H36.1441V20H34.5341V18.852C34.2635 19.216 33.8948 19.5193 33.4281 19.762C32.9615 20.0047 32.4295 20.126 31.8321 20.126C31.1695 20.126 30.5628 19.958 30.0121 19.622C29.4615 19.2767 29.0228 18.8007 28.6961 18.194C28.3788 17.578 28.2201 16.8827 28.2201 16.108ZM34.5341 16.136C34.5341 15.604 34.4221 15.142 34.1981 14.75C33.9835 14.358 33.6988 14.0593 33.3441 13.854C32.9895 13.6487 32.6068 13.546 32.1961 13.546C31.7855 13.546 31.4028 13.6487 31.0481 13.854C30.6935 14.05 30.4041 14.344 30.1801 14.736C29.9655 15.1187 29.8581 15.576 29.8581 16.108C29.8581 16.64 29.9655 17.1067 30.1801 17.508C30.4041 17.9093 30.6935 18.2173 31.0481 18.432C31.4121 18.6373 31.7948 18.74 32.1961 18.74C32.6068 18.74 32.9895 18.6373 33.3441 18.432C33.6988 18.2267 33.9835 17.928 34.1981 17.536C34.4221 17.1347 34.5341 16.668 34.5341 16.136ZM39.8364 13.406C40.0698 13.014 40.3778 12.7107 40.7604 12.496C41.1524 12.272 41.6144 12.16 42.1464 12.16V13.812H41.7404C41.1151 13.812 40.6391 13.9707 40.3124 14.288C39.9951 14.6053 39.8364 15.156 39.8364 15.94V20H38.2404V12.286H39.8364V13.406ZM46.6655 16.15L50.2215 20H48.0655L45.2095 16.682V20H43.6135V9.64H45.2095V15.66L48.0095 12.286H50.2215L46.6655 16.15ZM52.1774 11.264C51.8881 11.264 51.6454 11.166 51.4494 10.97C51.2534 10.774 51.1554 10.5313 51.1554 10.242C51.1554 9.95267 51.2534 9.71 51.4494 9.514C51.6454 9.318 51.8881 9.22 52.1774 9.22C52.4574 9.22 52.6954 9.318 52.8914 9.514C53.0874 9.71 53.1854 9.95267 53.1854 10.242C53.1854 10.5313 53.0874 10.774 52.8914 10.97C52.6954 11.166 52.4574 11.264 52.1774 11.264ZM52.9614 12.286V20H51.3654V12.286H52.9614ZM58.9488 12.16C59.5555 12.16 60.0968 12.286 60.5728 12.538C61.0582 12.79 61.4362 13.1633 61.7068 13.658C61.9775 14.1527 62.1128 14.75 62.1128 15.45V20H60.5308V15.688C60.5308 14.9973 60.3582 14.47 60.0128 14.106C59.6675 13.7327 59.1962 13.546 58.5988 13.546C58.0015 13.546 57.5255 13.7327 57.1708 14.106C56.8255 14.47 56.6528 14.9973 56.6528 15.688V20H55.0568V12.286H56.6528V13.168C56.9142 12.8507 57.2455 12.6033 57.6468 12.426C58.0575 12.2487 58.4915 12.16 58.9488 12.16ZM67.2566 12.16C67.854 12.16 68.3813 12.2813 68.8386 12.524C69.3053 12.7573 69.6693 13.0513 69.9306 13.406V12.286H71.5406V20.126C71.5406 20.8353 71.3913 21.4653 71.0926 22.016C70.794 22.576 70.36 23.0147 69.7906 23.332C69.2306 23.6493 68.5586 23.808 67.7746 23.808C66.7293 23.808 65.8613 23.5607 65.1706 23.066C64.48 22.5807 64.088 21.918 63.9946 21.078H65.5766C65.698 21.4793 65.9546 21.8013 66.3466 22.044C66.748 22.296 67.224 22.422 67.7746 22.422C68.4186 22.422 68.9366 22.226 69.3286 21.834C69.73 21.442 69.9306 20.8727 69.9306 20.126V18.838C69.66 19.202 69.2913 19.51 68.8246 19.762C68.3673 20.0047 67.8446 20.126 67.2566 20.126C66.5846 20.126 65.9686 19.958 65.4086 19.622C64.858 19.2767 64.4193 18.8007 64.0926 18.194C63.7753 17.578 63.6166 16.8827 63.6166 16.108C63.6166 15.3333 63.7753 14.6473 64.0926 14.05C64.4193 13.4527 64.858 12.9907 65.4086 12.664C65.9686 12.328 66.5846 12.16 67.2566 12.16ZM69.9306 16.136C69.9306 15.604 69.8186 15.142 69.5946 14.75C69.38 14.358 69.0953 14.0593 68.7406 13.854C68.386 13.6487 68.0033 13.546 67.5926 13.546C67.182 13.546 66.7993 13.6487 66.4446 13.854C66.09 14.05 65.8006 14.344 65.5766 14.736C65.362 15.1187 65.2546 15.576 65.2546 16.108C65.2546 16.64 65.362 17.1067 65.5766 17.508C65.8006 17.9093 66.09 18.2173 66.4446 18.432C66.8086 18.6373 67.1913 18.74 67.5926 18.74C68.0033 18.74 68.386 18.6373 68.7406 18.432C69.0953 18.2267 69.38 17.928 69.5946 17.536C69.8186 17.1347 69.9306 16.668 69.9306 16.136ZM75.3869 18.082L73.6929 21.946H72.6569L73.6509 18.082H75.3869ZM82.0142 18.712H85.3042V20H80.4182V10.27H82.0142V18.712ZM89.9849 20.126C89.2569 20.126 88.5989 19.9627 88.0109 19.636C87.4229 19.3 86.9609 18.8333 86.6249 18.236C86.2889 17.6293 86.1209 16.9293 86.1209 16.136C86.1209 15.352 86.2935 14.6567 86.6389 14.05C86.9842 13.4433 87.4555 12.9767 88.0529 12.65C88.6502 12.3233 89.3175 12.16 90.0549 12.16C90.7922 12.16 91.4595 12.3233 92.0569 12.65C92.6542 12.9767 93.1255 13.4433 93.4709 14.05C93.8162 14.6567 93.9889 15.352 93.9889 16.136C93.9889 16.92 93.8115 17.6153 93.4569 18.222C93.1022 18.8287 92.6169 19.3 92.0009 19.636C91.3942 19.9627 90.7222 20.126 89.9849 20.126ZM89.9849 18.74C90.3955 18.74 90.7782 18.642 91.1329 18.446C91.4969 18.25 91.7909 17.956 92.0149 17.564C92.2389 17.172 92.3509 16.696 92.3509 16.136C92.3509 15.576 92.2435 15.1047 92.0289 14.722C91.8142 14.33 91.5295 14.036 91.1749 13.84C90.8202 13.644 90.4375 13.546 90.0269 13.546C89.6162 13.546 89.2335 13.644 88.8789 13.84C88.5335 14.036 88.2582 14.33 88.0529 14.722C87.8475 15.1047 87.7449 15.576 87.7449 16.136C87.7449 16.9667 87.9549 17.6107 88.3749 18.068C88.8042 18.516 89.3409 18.74 89.9849 18.74ZM99.4586 12.16C100.065 12.16 100.607 12.286 101.083 12.538C101.568 12.79 101.946 13.1633 102.217 13.658C102.487 14.1527 102.623 14.75 102.623 15.45V20H101.041V15.688C101.041 14.9973 100.868 14.47 100.523 14.106C100.177 13.7327 99.7059 13.546 99.1086 13.546C98.5113 13.546 98.0353 13.7327 97.6806 14.106C97.3353 14.47 97.1626 14.9973 97.1626 15.688V20H95.5666V12.286H97.1626V13.168C97.4239 12.8507 97.7553 12.6033 98.1566 12.426C98.5673 12.2487 99.0013 12.16 99.4586 12.16ZM104.126 16.108C104.126 15.3333 104.285 14.6473 104.602 14.05C104.929 13.4527 105.368 12.9907 105.918 12.664C106.478 12.328 107.099 12.16 107.78 12.16C108.284 12.16 108.779 12.272 109.264 12.496C109.759 12.7107 110.151 13 110.44 13.364V9.64H112.05V20H110.44V18.838C110.179 19.2113 109.815 19.5193 109.348 19.762C108.891 20.0047 108.364 20.126 107.766 20.126C107.094 20.126 106.478 19.958 105.918 19.622C105.368 19.2767 104.929 18.8007 104.602 18.194C104.285 17.578 104.126 16.8827 104.126 16.108ZM110.44 16.136C110.44 15.604 110.328 15.142 110.104 14.75C109.89 14.358 109.605 14.0593 109.25 13.854C108.896 13.6487 108.513 13.546 108.102 13.546C107.692 13.546 107.309 13.6487 106.954 13.854C106.6 14.05 106.31 14.344 106.086 14.736C105.872 15.1187 105.764 15.576 105.764 16.108C105.764 16.64 105.872 17.1067 106.086 17.508C106.31 17.9093 106.6 18.2173 106.954 18.432C107.318 18.6373 107.701 18.74 108.102 18.74C108.513 18.74 108.896 18.6373 109.25 18.432C109.605 18.2267 109.89 17.928 110.104 17.536C110.328 17.1347 110.44 16.668 110.44 16.136ZM117.493 20.126C116.765 20.126 116.107 19.9627 115.519 19.636C114.931 19.3 114.469 18.8333 114.133 18.236C113.797 17.6293 113.629 16.9293 113.629 16.136C113.629 15.352 113.801 14.6567 114.147 14.05C114.492 13.4433 114.963 12.9767 115.561 12.65C116.158 12.3233 116.825 12.16 117.563 12.16C118.3 12.16 118.967 12.3233 119.565 12.65C120.162 12.9767 120.633 13.4433 120.979 14.05C121.324 14.6567 121.497 15.352 121.497 16.136C121.497 16.92 121.319 17.6153 120.965 18.222C120.61 18.8287 120.125 19.3 119.509 19.636C118.902 19.9627 118.23 20.126 117.493 20.126ZM117.493 18.74C117.903 18.74 118.286 18.642 118.641 18.446C119.005 18.25 119.299 17.956 119.523 17.564C119.747 17.172 119.859 16.696 119.859 16.136C119.859 15.576 119.751 15.1047 119.537 14.722C119.322 14.33 119.037 14.036 118.683 13.84C118.328 13.644 117.945 13.546 117.535 13.546C117.124 13.546 116.741 13.644 116.387 13.84C116.041 14.036 115.766 14.33 115.561 14.722C115.355 15.1047 115.253 15.576 115.253 16.136C115.253 16.9667 115.463 17.6107 115.883 18.068C116.312 18.516 116.849 18.74 117.493 18.74ZM126.966 12.16C127.573 12.16 128.114 12.286 128.59 12.538C129.076 12.79 129.454 13.1633 129.724 13.658C129.995 14.1527 130.13 14.75 130.13 15.45V20H128.548V15.688C128.548 14.9973 128.376 14.47 128.03 14.106C127.685 13.7327 127.214 13.546 126.616 13.546C126.019 13.546 125.543 13.7327 125.188 14.106C124.843 14.47 124.67 14.9973 124.67 15.688V20H123.074V12.286H124.67V13.168C124.932 12.8507 125.263 12.6033 125.664 12.426C126.075 12.2487 126.509 12.16 126.966 12.16Z" fill="#E3F1E6"/>
</svg>
