<svg width="265" height="267" viewBox="0 0 265 267" fill="none" xmlns="http://www.w3.org/2000/svg">
<path d="M190.167 21.6998C216.401 35.1311 242.607 51.7625 255.039 78.3616C267.515 105.057 267.109 136.854 256.898 164.483C247.494 189.931 222.874 204.646 201.944 222.032C182.12 238.499 163.738 257.524 138.465 262.862C111.608 268.536 81.0721 268.252 58.8199 252.266C37.2383 236.762 36.0543 206.525 25.9562 182.037C16.37 158.791 -5.24913 136.995 1.27734 112.724C7.78303 88.5301 39.7623 83.0611 57.3841 65.16C76.6406 45.5982 82.6496 12.0532 108.804 3.49277C135.871 -5.3664 164.833 8.72975 190.167 21.6998Z" fill="#282065" fill-opacity="0.08"/>
<g clip-path="url(#clip0_393_7)">
<path d="M179.287 112.711H95.5362C91.2756 112.711 87.8672 109.298 87.8672 105.168V54.8796C87.8672 50.689 91.2756 47.3364 95.5362 47.3364H179.287C183.487 47.3364 186.956 50.689 186.956 54.8796V105.168C186.895 109.298 183.487 112.711 179.287 112.711ZM95.5362 48.5338C91.9452 48.5338 89.0845 51.3475 89.0845 54.8796V105.168C89.0845 108.64 91.9452 111.513 95.5362 111.513H179.287C182.817 111.513 185.739 108.7 185.739 105.168V54.8796C185.678 51.3475 182.817 48.5338 179.287 48.5338H95.5362Z" fill="#1D1655"/>
<path d="M179.288 54.9995H96.207V104.868H179.288V54.9995Z" fill="#82CBAD"/>
<path d="M179.896 105.467H95.5977V54.4009H179.896V105.467ZM96.815 104.27H178.679V55.5982H96.815V104.27Z" fill="#1D1655"/>
<path d="M127.248 112.112H125.727V122.169H127.248V112.112Z" fill="#1D1655"/>
<path d="M149.037 112.112H147.516V122.169H149.037V112.112Z" fill="#1D1655"/>
<path d="M159.567 124.504H117.691V129.234H159.567V124.504Z" fill="#82CBAD"/>
<path d="M160.784 130.431H114.039V121.571H160.784V130.431ZM115.256 129.234H159.566V122.768H115.256V129.234Z" fill="#1D1655"/>
<path d="M158.411 93.194C165.873 93.194 171.923 87.2437 171.923 79.9037C171.923 72.5636 165.873 66.6133 158.411 66.6133C150.948 66.6133 144.898 72.5636 144.898 79.9037C144.898 87.2437 150.948 93.194 158.411 93.194Z" fill="white"/>
<path d="M158.41 93.7927C150.619 93.7927 144.289 87.5666 144.289 79.9037C144.289 72.2408 150.619 66.0146 158.41 66.0146C166.201 66.0146 172.531 72.2408 172.531 79.9037C172.531 87.5666 166.201 93.7927 158.41 93.7927ZM158.41 67.2718C151.289 67.2718 145.506 72.9592 145.506 79.9636C145.506 86.9679 151.289 92.6553 158.41 92.6553C165.531 92.6553 171.313 86.9679 171.313 79.9636C171.313 72.9592 165.531 67.2718 158.41 67.2718Z" fill="#1D1655"/>
<path d="M161.576 81.1013C162.002 81.9394 162.002 82.8374 162.002 83.1368C162.002 83.3762 162.002 83.9749 161.759 84.6933C161.637 85.0525 161.394 85.3518 161.089 85.6512C160.785 85.9505 160.359 86.19 159.872 86.3696C159.872 86.4294 159.811 86.4294 159.75 86.4294C159.507 86.4294 159.324 86.2498 159.263 86.0702C159.203 85.7709 159.324 85.4716 159.629 85.4117C160.603 85.1124 161.089 84.394 161.089 83.1966C161.089 81.4006 160.176 80.5026 158.411 80.5026C157.62 80.5026 156.951 80.3829 156.403 80.0237C155.916 79.7842 155.551 79.3652 155.307 78.8862C155.125 78.527 155.003 78.108 154.881 77.629C154.82 77.2698 154.82 76.9705 154.82 76.8508C154.82 76.6113 154.82 76.0725 155.064 75.414C155.186 75.0548 155.368 74.6956 155.612 74.3962C155.916 74.0969 156.281 73.7976 156.707 73.618C156.951 73.4982 157.255 73.618 157.316 73.8574C157.377 74.1568 157.316 74.4561 157.072 74.516C156.038 74.9949 155.855 76.0126 155.855 76.7909C155.855 77.9882 156.342 79.3652 158.472 79.3652C159.263 79.3652 159.994 79.5448 160.542 79.904C160.907 80.2033 161.272 80.6224 161.576 81.1013ZM158.898 86.0702C158.898 86.1301 158.898 86.1301 158.837 86.19V87.7465C158.837 87.986 158.655 88.2254 158.351 88.2254C158.107 88.2254 157.924 87.986 157.924 87.7465V86.4893C156.403 86.3696 155.612 85.5314 155.246 84.813C154.82 83.9749 154.82 83.1368 154.82 83.0769V83.017C154.82 82.7776 155.064 82.5381 155.246 82.5381C155.551 82.5381 155.733 82.7776 155.733 83.017C155.733 83.0769 155.733 83.6756 156.038 84.2742C156.525 85.0525 157.255 85.4716 158.351 85.4716C158.655 85.5314 158.898 85.7709 158.898 86.0702ZM157.924 73.7976V72.0615C157.924 71.822 158.107 71.5825 158.351 71.5825C158.655 71.5825 158.837 71.822 158.837 72.0615V73.3186C160.359 73.4384 161.15 74.3364 161.576 75.0548C162.002 75.9528 162.002 76.7909 162.002 76.8508C162.002 76.8508 162.002 76.8508 162.002 76.9106C162.002 77.21 161.82 77.3896 161.576 77.3896C161.272 77.3896 161.089 77.21 161.089 76.9106V76.8508C161.089 76.8508 161.029 76.1922 160.724 75.5337C160.298 74.6956 159.507 74.2765 158.411 74.2765C158.351 74.2765 158.351 74.2765 158.351 74.2765H158.29C158.229 74.2765 158.229 74.2765 158.229 74.2765C158.046 74.2166 157.924 74.037 157.924 73.7976Z" fill="#1D1655"/>
<path d="M113.431 67.2722H104.727C104.483 67.2722 104.301 67.0926 104.301 66.8531C104.301 66.6137 104.483 66.4341 104.727 66.4341H113.431C113.674 66.4341 113.857 66.6137 113.857 66.8531C113.796 67.0926 113.613 67.2722 113.431 67.2722Z" fill="#1D1655"/>
<path d="M111.243 69.9065H106.008C105.765 69.9065 105.582 69.7269 105.582 69.4874C105.582 69.248 105.765 69.0684 106.008 69.0684H111.243C111.486 69.0684 111.669 69.248 111.669 69.4874C111.669 69.7269 111.486 69.9065 111.243 69.9065Z" fill="#1D1655"/>
<path d="M133.335 69.9065H126.762C126.519 69.9065 126.336 69.7269 126.336 69.4874C126.336 69.248 126.519 69.0684 126.762 69.0684H133.335C133.579 69.0684 133.762 69.248 133.762 69.4874C133.762 69.7269 133.579 69.9065 133.335 69.9065Z" fill="#1D1655"/>
<path d="M132.546 93.0146H124.633C124.39 93.0146 124.207 92.835 124.207 92.5955C124.207 92.3561 124.39 92.2363 124.633 92.2363H132.546C132.789 92.2363 132.972 92.4159 132.972 92.6554C132.972 92.8949 132.789 93.0146 132.546 93.0146Z" fill="#1D1655"/>
<path d="M131.085 95.8284H124.633C124.39 95.8284 124.207 95.6488 124.207 95.4093C124.207 95.1698 124.39 94.9902 124.633 94.9902H131.085C131.328 94.9902 131.511 95.1698 131.511 95.4093C131.511 95.6488 131.328 95.8284 131.085 95.8284Z" fill="#1D1655"/>
<path d="M134.187 67.2722H127.918C127.675 67.2722 127.492 67.0926 127.492 66.8531C127.492 66.6137 127.675 66.4341 127.918 66.4341H134.187C134.431 66.4341 134.613 66.6137 134.613 66.8531C134.613 67.0926 134.431 67.2722 134.187 67.2722Z" fill="#1D1655"/>
<path d="M110.145 76.1923H106.311L102.233 66.6136C102.172 66.434 102.233 66.1945 102.476 66.0748C102.659 66.0149 102.902 66.0748 103.024 66.3143L106.859 75.414H110.145C110.389 75.414 110.571 75.5936 110.571 75.8331C110.571 76.0127 110.389 76.1923 110.145 76.1923Z" fill="#1D1655"/>
<path d="M122.684 71.8816C122.623 71.8816 122.562 71.8816 122.501 71.8218C122.319 71.702 122.258 71.4626 122.38 71.283L125.606 66.3739C125.727 66.1943 125.971 66.1345 126.153 66.2542C126.336 66.3739 126.397 66.6134 126.275 66.793L123.049 71.702C122.988 71.7619 122.867 71.8816 122.684 71.8816Z" fill="#1D1655"/>
<path d="M122.988 95.8286C122.745 95.8286 122.562 95.649 122.562 95.4096V83.6158C122.562 83.3764 122.745 83.1968 122.988 83.1968C123.231 83.1968 123.414 83.3764 123.414 83.6158V95.4096C123.414 95.649 123.231 95.8286 122.988 95.8286Z" fill="#1D1655"/>
<path d="M119.397 82.8373C119.336 82.8373 119.215 82.8373 119.154 82.7775L110.085 75.9527C109.963 75.8928 109.902 75.7731 109.902 75.6534C109.902 75.5336 109.963 75.4139 110.085 75.354L119.154 68.8286C119.276 68.7088 119.519 68.7088 119.641 68.8286L128.831 75.4738C128.953 75.5336 129.014 75.6534 129.014 75.7731C129.014 75.8928 128.953 76.0126 128.831 76.0724L119.641 82.7775C119.519 82.8373 119.458 82.8373 119.397 82.8373ZM110.998 75.6534L119.397 81.9393L127.918 75.7731L119.397 69.6068L110.998 75.6534Z" fill="#1D1655"/>
<path d="M119.701 93.6134C119.641 93.6134 119.58 93.6134 119.519 93.5535C119.397 93.4937 119.275 93.3739 119.275 93.1943L118.91 82.4183C118.91 82.2986 118.971 82.1789 119.093 82.0591L128.344 75.4738C128.466 75.414 128.649 75.3541 128.77 75.414C128.892 75.4738 129.014 75.5936 129.014 75.7732L129.257 86.7886C129.257 86.9083 129.196 87.0281 129.075 87.1478L119.945 93.5535C119.884 93.5535 119.823 93.6134 119.701 93.6134ZM119.762 82.6578L120.067 92.4759L128.466 86.609L128.223 76.6113L119.762 82.6578Z" fill="#1D1655"/>
<path d="M119.702 93.6134C119.641 93.6134 119.519 93.6134 119.458 93.5535L110.085 87.6267C109.963 87.5668 109.902 87.4471 109.902 87.2675V75.6534C109.902 75.4738 109.963 75.3541 110.146 75.2942C110.268 75.2343 110.45 75.2343 110.572 75.3541L119.641 82.119C119.763 82.1789 119.823 82.2986 119.823 82.4183L120.189 93.1943C120.189 93.314 120.128 93.4936 120.006 93.5535C119.823 93.6134 119.763 93.6134 119.702 93.6134ZM110.694 87.028L119.276 92.416L118.971 82.6578L110.694 76.4915V87.028Z" fill="#1D1655"/>
<path d="M111.363 75.6534L119.398 69.9062L127.553 75.7732L119.398 81.7L111.363 75.6534Z" fill="white"/>
<path d="M110.996 77.0303V86.9083L118.969 91.8772L118.726 82.7775L110.996 77.0303Z" fill="white"/>
<path d="M119.945 82.7177L128.04 76.9106L128.284 86.5492L120.311 92.1167L119.945 82.7177Z" fill="white"/>
</g>
<defs>
<clipPath id="clip0_393_7">
<rect width="99.0278" height="83.0947" fill="white" transform="translate(87.8672 47.3364)"/>
</clipPath>
</defs>
</svg>
