<svg width="21" height="21" viewBox="0 0 21 21" fill="none" xmlns="http://www.w3.org/2000/svg">
<path d="M11.7511 1.50268L14.012 6.0334C14.1751 6.363 14.4932 6.59236 14.8622 6.64638L19.9267 7.38374C20.2245 7.42547 20.493 7.58204 20.6729 7.81879C20.8529 8.05554 20.9293 8.35296 20.8854 8.64523C20.8503 8.88748 20.7361 9.11197 20.5598 9.28486L16.888 12.8384C16.6191 13.0896 16.4967 13.4568 16.5624 13.8156L17.4668 18.8171C17.5667 19.4155 17.1673 19.9844 16.5624 20.1053C16.3149 20.1441 16.0612 20.1037 15.8389 19.9898L11.3169 17.6356C10.9821 17.4664 10.5846 17.4664 10.2498 17.6356L5.72782 19.9898C5.17082 20.2859 4.47494 20.0832 4.17227 19.5367C4.05758 19.318 4.01642 19.0692 4.0547 18.826L4.95909 13.8245C5.02478 13.4657 4.90243 13.0985 4.63351 12.8473L0.961682 9.29375C0.74627 9.08506 0.625 8.80028 0.625 8.50309C0.625 8.2059 0.74627 7.92111 0.961682 7.71243C1.13522 7.53595 1.36499 7.4231 1.61284 7.39262L6.67743 6.65527C7.04641 6.60124 7.3645 6.37188 7.52755 6.04229L9.70713 1.50268C9.89774 1.11545 10.3003 0.872614 10.7381 0.880817H10.8738C11.2548 0.92829 11.5851 1.16249 11.7511 1.50268Z" fill="#FDBC3B"/>
<path d="M10.7666 17.5025C10.5685 17.5012 10.3823 17.5664 10.2061 17.6552L5.69838 20.0037C5.15774 20.2759 4.47124 20.0572 4.17362 19.5369C4.05842 19.3215 4.01718 19.0753 4.05605 18.8351L4.96044 13.8424C5.02117 13.4813 4.8998 13.1137 4.63486 12.8563L0.953992 9.30279C0.510128 8.86585 0.510128 8.15842 0.953992 7.72148C1.12761 7.55003 1.35271 7.43792 1.59611 7.40166L6.67878 6.65543C7.07046 6.59861 7.3504 6.38216 7.52891 6.04245L9.73692 1.45081C9.90519 1.07729 10.4709 0.81916 10.7757 0.880978C10.7666 1.18303 10.7666 17.2982 10.7666 17.5025Z" fill="#FDBC3B"/>
</svg>
