<svg width="38" height="17" viewBox="0 0 38 17" fill="none" xmlns="http://www.w3.org/2000/svg">
<g clip-path="url(#clip0_194_2252)">
<path d="M34.0725 9.33908H14.8873C14.6717 9.34724 14.4558 9.34389 14.2406 9.32903C13.9474 9.31859 13.6697 9.19484 13.466 8.98385C13.2623 8.77286 13.1484 8.4911 13.1484 8.1979C13.1484 7.90469 13.2623 7.62293 13.466 7.41194C13.6697 7.20095 13.9474 7.07721 14.2406 7.06676C14.4558 7.05191 14.6717 7.04856 14.8873 7.05671H34.0351C33.8425 6.82689 33.729 6.66889 33.5953 6.53387C32.2531 5.17125 30.9074 3.81006 29.5585 2.45031C28.9434 1.82549 28.8744 1.18344 29.3529 0.683586C29.8631 0.153569 30.5156 0.208151 31.168 0.86313C33.2643 2.965 35.3568 5.07166 37.4454 7.18311C38.1769 7.9214 38.1754 8.47583 37.4454 9.20981C35.3558 11.3165 33.2629 13.4231 31.1666 15.5298C30.5141 16.1848 29.866 16.248 29.3529 15.7151C28.8715 15.2195 28.9376 14.566 29.5527 13.9484C30.8634 12.6183 32.1826 11.2968 33.4962 9.96964C33.66 9.80446 33.8095 9.62635 34.0725 9.33908Z" fill="#82CBAD"/>
</g>
<ellipse cx="3.52214" cy="8.43129" rx="3.04167" ry="3.04005" fill="#82CBAD"/>
<defs>
<clipPath id="clip0_194_2252">
<rect width="28.3889" height="15.741" fill="white" transform="translate(9.60547 0.324463)"/>
</clipPath>
</defs>
</svg>
