<svg width="61" height="61" viewBox="0 0 61 61" fill="none" xmlns="http://www.w3.org/2000/svg">
<ellipse cx="30.4167" cy="30.4005" rx="30.4167" ry="30.4005" fill="#19164C"/>
<path d="M43.7053 31.3982H24.5201C24.3045 31.4064 24.0886 31.403 23.8734 31.3882C23.5802 31.3777 23.3025 31.254 23.0988 31.043C22.8951 30.832 22.7812 30.5502 22.7812 30.257C22.7812 29.9638 22.8951 29.6821 23.0988 29.4711C23.3025 29.2601 23.5802 29.1363 23.8734 29.1259C24.0886 29.1111 24.3045 29.1077 24.5201 29.1159H43.6679C43.4753 28.886 43.3618 28.728 43.2281 28.593C41.8859 27.2304 40.5402 25.8692 39.1913 24.5094C38.5762 23.8846 38.5072 23.2426 38.9858 22.7427C39.4959 22.2127 40.1484 22.2673 40.8008 22.9223C42.8971 25.0241 44.9896 27.1308 47.0782 29.2423C47.8097 29.9805 47.8082 30.535 47.0782 31.269C44.9886 33.3756 42.8957 35.4823 40.7994 37.5889C40.147 38.2439 39.4988 38.3071 38.9858 37.7742C38.5043 37.2787 38.5704 36.6251 39.1855 36.0075C40.4962 34.6774 41.8155 33.356 43.129 32.0288C43.2928 31.8636 43.4423 31.6855 43.7053 31.3982Z" fill="#E3F1E6"/>
<ellipse cx="15.1823" cy="30.4904" rx="3.04167" ry="3.04005" fill="#E3F1E6"/>
</svg>
