<svg width="62" height="62" viewBox="0 0 62 62" fill="none" xmlns="http://www.w3.org/2000/svg">
<ellipse cx="30.9714" cy="31.1537" rx="30.4167" ry="30.4005" fill="#1D1655"/>
<g clip-path="url(#clip0_176_888)">
<path d="M44.2873 32.0616H25.1021C24.8865 32.0697 24.6706 32.0664 24.4554 32.0515C24.1622 32.0411 23.8845 31.9173 23.6808 31.7063C23.4771 31.4953 23.3633 31.2136 23.3633 30.9204C23.3633 30.6272 23.4771 30.3454 23.6808 30.1344C23.8845 29.9234 24.1622 29.7997 24.4554 29.7892C24.6706 29.7744 24.8865 29.771 25.1021 29.7792H44.2499C44.0574 29.5494 43.9438 29.3914 43.8102 29.2563C42.4679 27.8937 41.1223 26.5325 39.7733 25.1728C39.1582 24.548 39.0892 23.9059 39.5678 23.4061C40.078 22.876 40.7304 22.9306 41.3829 23.5856C43.4792 25.6875 45.5716 27.7941 47.6602 29.9056C48.3917 30.6439 48.3903 31.1983 47.6602 31.9323C45.5706 34.0389 43.4777 36.1456 41.3814 38.2523C40.729 38.9072 40.0808 38.9704 39.5678 38.4376C39.0864 37.942 39.1525 37.2885 39.7675 36.6708C41.0782 35.3408 42.3975 34.0193 43.711 32.6921C43.8748 32.5269 44.0243 32.3488 44.2873 32.0616Z" fill="#E3F1E6"/>
</g>
<ellipse cx="15.7643" cy="31.1536" rx="3.04167" ry="3.04005" fill="#E3F1E6"/>
<defs>
<clipPath id="clip0_176_888">
<rect width="28.3889" height="15.741" fill="white" transform="translate(19.8203 23.0469)"/>
</clipPath>
</defs>
</svg>
