<svg width="474" height="489" viewBox="0 0 474 489" fill="none" xmlns="http://www.w3.org/2000/svg">
<g clip-path="url(#clip0_144_113)">
<path d="M373.414 165.155C373.3 165.088 373.208 164.983 373.138 164.839L342.618 92.5861C342.463 92.2386 342.627 91.8732 342.974 91.7185C343.322 91.5637 343.687 91.7273 343.842 92.0747L374.362 164.328C374.517 164.675 374.354 165.041 374.006 165.196C373.84 165.303 373.605 165.267 373.414 165.155Z" fill="#1D1655"/>
<path d="M373.114 165.492C372.999 165.425 372.907 165.319 372.838 165.176L342.317 92.9225C342.162 92.575 342.326 92.2096 342.673 92.0548C343.021 91.9001 343.386 92.0637 343.541 92.4111L374.062 164.664C374.217 165.012 374.053 165.377 373.706 165.532C373.502 165.617 373.304 165.604 373.114 165.492Z" fill="#1D1655"/>
<path d="M302.674 108.183C320.605 117.646 325.914 82.611 343.845 92.0747C347.426 100.642 350.97 109.187 354.551 117.754C333.007 103.705 325.988 140.863 304.482 126.836C303.894 120.593 303.284 114.388 302.674 108.183Z" fill="#1D1655"/>
<path d="M305.211 128.035C304.868 127.834 304.487 127.609 304.128 127.347C303.937 127.235 303.83 127.069 303.843 126.872L302.013 108.257C301.988 108.037 302.085 107.786 302.311 107.663C302.499 107.517 302.757 107.515 302.986 107.649C311.483 112.131 316.964 106.122 322.769 99.7387C328.663 93.2029 334.745 86.5213 344.141 91.4807C344.255 91.5479 344.385 91.6756 344.455 91.8191L355.161 117.499C355.262 117.763 355.182 118.075 354.971 118.259C354.76 118.443 354.442 118.461 354.175 118.304C343.83 111.556 337.077 117.022 329.925 122.819C322.983 128.431 315.809 134.265 305.211 128.035ZM305.121 126.444C315.304 132.943 322.035 127.514 329.104 121.772C335.94 116.251 342.964 110.585 353.17 116.174L343.316 92.5344C334.905 88.2564 329.484 94.2496 323.724 100.557C318.108 106.794 312.259 113.254 303.448 109.306L305.121 126.444Z" fill="#1D1655"/>
<path d="M305.614 126.477C305.157 126.208 304.722 125.901 304.287 125.594C304.004 125.377 303.955 124.937 304.172 124.655C304.389 124.372 304.829 124.323 305.111 124.54C309.947 128.357 317.979 127.694 322.368 123.197C322.623 122.937 323.04 122.925 323.3 123.181C323.56 123.436 323.572 123.853 323.316 124.113C318.883 128.687 311.028 129.659 305.614 126.477Z" fill="#1D1655"/>
<path d="M332.676 116.129C332.6 116.084 332.524 116.039 332.47 115.956C332.293 115.647 332.342 115.214 332.651 115.037C337.656 111.671 342.543 110.339 347.274 111.017C347.646 111.082 347.862 111.414 347.857 111.77C347.793 112.142 347.461 112.358 347.104 112.353C342.708 111.717 338.101 113.009 333.427 116.16C333.163 116.261 332.867 116.241 332.676 116.129Z" fill="#1D1655"/>
<path d="M305.227 123.993C304.769 123.724 304.296 123.395 303.861 123.088C303.579 122.871 303.529 122.431 303.746 122.149C303.964 121.866 304.365 121.794 304.686 122.034C309.94 126.097 317.072 124.7 321.431 121.211C321.725 120.973 322.157 121.022 322.357 121.293C322.595 121.587 322.546 122.02 322.274 122.219C317.855 125.724 310.831 127.288 305.227 123.993Z" fill="#1D1655"/>
<path d="M331.102 113.921C331.026 113.876 330.95 113.831 330.896 113.748C330.658 113.455 330.745 113.044 331.039 112.807C336.049 109.085 340.797 107.465 345.592 107.771C345.949 107.776 346.225 108.092 346.198 108.486C346.194 108.843 345.878 109.119 345.483 109.092C341.044 108.79 336.576 110.369 331.8 113.869C331.649 114.037 331.331 114.055 331.102 113.921Z" fill="#1D1655"/>
<path d="M304.628 121.436C304.323 121.256 304.018 121.077 303.736 120.86C303.453 120.642 303.381 120.241 303.561 119.936C303.778 119.654 304.179 119.582 304.484 119.761C310.407 123.909 316.688 120.729 319.891 118.51C320.184 118.272 320.595 118.359 320.81 118.691C321.048 118.985 320.961 119.395 320.629 119.61C315.007 123.588 309.356 124.215 304.628 121.436Z" fill="#1D1655"/>
<path d="M329.699 111.507C329.623 111.462 329.547 111.417 329.531 111.357C329.293 111.063 329.343 110.63 329.614 110.431C334.599 106.489 339.042 104.69 343.66 104.687C344.017 104.691 344.315 104.969 344.349 105.348C344.344 105.705 344.066 106.003 343.687 106.037C339.387 106.022 335.186 107.758 330.473 111.5C330.208 111.601 329.928 111.641 329.699 111.507Z" fill="#1D1655"/>
<path d="M304.049 118.84C303.782 118.683 303.515 118.526 303.309 118.353C303.026 118.136 302.954 117.735 303.133 117.43C303.351 117.147 303.752 117.075 304.057 117.255C309.872 121.237 315.821 118.273 318.881 116.122C319.174 115.885 319.585 115.972 319.8 116.304C320.038 116.597 319.95 117.008 319.619 117.223C314.268 121.001 308.661 121.551 304.049 118.84Z" fill="#1D1655"/>
<path d="M328.201 109.344C328.125 109.299 328.087 109.276 328.033 109.194C327.795 108.9 327.822 108.505 328.116 108.268C331.247 105.646 336.045 102.108 341.942 101.677C342.321 101.643 342.619 101.921 342.653 102.3C342.687 102.679 342.409 102.977 342.03 103.01C337.808 103.298 333.791 105.245 328.997 109.299C328.748 109.46 328.43 109.478 328.201 109.344Z" fill="#1D1655"/>
<path d="M304.203 116.313C303.974 116.179 303.708 116.022 303.501 115.849C303.196 115.67 303.109 115.208 303.326 114.926C303.543 114.643 303.967 114.533 304.25 114.751C308.324 117.505 312.683 117.246 317.598 114.033C317.908 113.856 318.34 113.905 318.518 114.215C318.695 114.524 318.646 114.957 318.336 115.134C313.255 118.455 308.511 118.846 304.203 116.313Z" fill="#1D1655"/>
<path d="M326.547 107.447C326.509 107.425 326.433 107.38 326.379 107.297C326.141 107.004 326.168 106.609 326.424 106.349C329.929 103.179 334.282 99.7882 339.696 98.8681C340.036 98.812 340.418 99.0361 340.451 99.415C340.508 99.7557 340.284 100.137 339.905 100.171C334.831 101.035 330.667 104.279 327.289 107.32C327.094 107.564 326.776 107.582 326.547 107.447Z" fill="#1D1655"/>
<path d="M303.64 113.778C303.449 113.666 303.22 113.531 303.03 113.419C302.725 113.24 302.615 112.816 302.855 112.496C303.034 112.191 303.496 112.103 303.778 112.321C307.707 114.887 311.839 114.752 316.439 111.814C316.748 111.637 317.158 111.724 317.358 111.995C317.535 112.305 317.448 112.715 317.177 112.915C312.351 115.976 307.833 116.243 303.64 113.778Z" fill="#1D1655"/>
<path d="M325.2 105.374C325.162 105.352 325.086 105.307 325.07 105.246C324.81 104.991 324.821 104.536 325.115 104.298C328.544 101.083 332.629 97.5355 337.934 96.1917C338.297 96.0975 338.64 96.2992 338.734 96.6623C338.828 97.0255 338.627 97.3685 338.264 97.4627C333.785 98.6248 330.109 101.387 326.041 105.253C325.808 105.475 325.467 105.531 325.2 105.374Z" fill="#1D1655"/>
<path d="M303.055 111.281C302.902 111.191 302.711 111.079 302.559 110.989C302.254 110.81 302.144 110.386 302.384 110.066C302.624 109.745 302.987 109.651 303.307 109.891C307.068 112.307 311.018 112.219 315.401 109.564C315.71 109.386 316.12 109.474 316.298 109.783C316.475 110.092 316.387 110.503 316.078 110.68C311.47 113.458 307.096 113.656 303.055 111.281Z" fill="#1D1655"/>
<path d="M323.714 103.628C323.676 103.606 323.6 103.561 323.584 103.5C323.324 103.245 323.312 102.828 323.568 102.568C327.454 98.7493 331.065 95.4868 335.698 93.8002C336.023 93.6835 336.427 93.8695 336.544 94.1946C336.66 94.5196 336.474 94.9232 336.149 95.0398C331.758 96.6636 328.253 99.8341 324.494 103.523C324.283 103.706 323.943 103.762 323.714 103.628Z" fill="#1D1655"/>
<path d="M215.788 207.374C215.674 207.307 215.62 207.224 215.588 207.103C215.526 206.861 215.66 206.632 215.902 206.569L217.597 206.13C217.839 206.067 218.068 206.201 218.131 206.443C218.194 206.685 218.059 206.914 217.817 206.977L216.122 207.417C216.001 207.448 215.864 207.419 215.788 207.374ZM220.487 206.187C220.373 206.12 220.319 206.037 220.287 205.916C220.224 205.674 220.359 205.445 220.601 205.383L222.296 204.943C222.538 204.88 222.767 205.014 222.829 205.257C222.892 205.499 222.758 205.727 222.516 205.79L220.821 206.23C220.7 206.261 220.563 206.232 220.487 206.187ZM225.17 204.94C225.056 204.873 225.002 204.79 224.97 204.669C224.907 204.427 225.042 204.198 225.284 204.135L226.979 203.696C227.221 203.633 227.45 203.767 227.513 204.009C227.575 204.251 227.441 204.48 227.199 204.543L225.504 204.983C225.421 205.036 225.284 205.007 225.17 204.94ZM229.891 203.715C229.777 203.648 229.723 203.565 229.692 203.444C229.629 203.202 229.763 202.973 230.005 202.91L231.7 202.471C231.942 202.408 232.171 202.542 232.234 202.784C232.297 203.027 232.162 203.255 231.92 203.318L230.225 203.758C230.104 203.789 230.006 203.782 229.891 203.715ZM234.612 202.49C234.498 202.423 234.444 202.34 234.413 202.219C234.35 201.977 234.484 201.748 234.726 201.686L236.421 201.246C236.663 201.183 236.892 201.317 236.955 201.56C237.018 201.802 236.883 202.03 236.641 202.093L234.946 202.533C234.825 202.564 234.727 202.558 234.612 202.49ZM239.334 201.265C239.219 201.198 239.165 201.115 239.134 200.994C239.071 200.752 239.206 200.523 239.448 200.461L241.142 200.021C241.385 199.958 241.613 200.093 241.676 200.335C241.739 200.577 241.605 200.805 241.362 200.868L239.668 201.308C239.547 201.339 239.41 201.31 239.334 201.265ZM244.032 200.079C243.918 200.011 243.864 199.929 243.833 199.808C243.77 199.565 243.904 199.337 244.146 199.274L245.841 198.834C246.083 198.771 246.312 198.906 246.375 199.148C246.438 199.39 246.303 199.619 246.061 199.682L244.366 200.121C244.245 200.153 244.109 200.124 244.032 200.079ZM248.715 198.831C248.601 198.764 248.547 198.681 248.516 198.56C248.453 198.318 248.587 198.089 248.83 198.027L250.524 197.587C250.766 197.524 250.995 197.659 251.058 197.901C251.121 198.143 250.986 198.371 250.744 198.434L249.05 198.874C248.929 198.905 248.83 198.899 248.715 198.831ZM253.437 197.607C253.322 197.539 253.268 197.456 253.237 197.335C253.174 197.093 253.309 196.865 253.551 196.802L255.246 196.362C255.488 196.299 255.716 196.434 255.779 196.676C255.842 196.918 255.708 197.147 255.466 197.209L253.771 197.649C253.65 197.681 253.551 197.674 253.437 197.607ZM258.158 196.382C258.044 196.314 257.99 196.232 257.958 196.111C257.895 195.868 258.03 195.64 258.272 195.577L259.967 195.137C260.209 195.074 260.438 195.209 260.5 195.451C260.563 195.693 260.429 195.922 260.187 195.985L258.492 196.424C258.371 196.456 258.234 196.427 258.158 196.382ZM262.879 195.157C262.765 195.09 262.711 195.007 262.679 194.886C262.617 194.644 262.751 194.415 262.993 194.352L264.688 193.912C264.93 193.85 265.159 193.984 265.222 194.226C265.285 194.468 265.15 194.697 264.908 194.76L263.213 195.199C263.07 195.269 262.955 195.202 262.879 195.157Z" fill="#1D1655"/>
<path d="M102.527 339.217C102.413 339.15 102.359 339.067 102.327 338.946C102.265 338.704 102.399 338.475 102.641 338.412L104.336 337.973C104.578 337.91 104.807 338.044 104.87 338.286C104.932 338.529 104.798 338.757 104.556 338.82L102.861 339.26C102.74 339.291 102.603 339.262 102.527 339.217ZM107.226 338.03C107.111 337.963 107.058 337.88 107.026 337.759C106.963 337.517 107.098 337.288 107.34 337.226L109.035 336.786C109.277 336.723 109.506 336.858 109.568 337.1C109.631 337.342 109.497 337.57 109.255 337.633L107.56 338.073C107.439 338.104 107.302 338.075 107.226 338.03ZM111.909 336.783C111.795 336.716 111.741 336.633 111.709 336.512C111.646 336.27 111.781 336.041 112.023 335.978L113.718 335.539C113.96 335.476 114.189 335.61 114.251 335.852C114.314 336.095 114.18 336.323 113.938 336.386L112.243 336.826C112.122 336.857 112.023 336.85 111.909 336.783ZM116.63 335.558C116.516 335.491 116.462 335.408 116.431 335.287C116.368 335.045 116.502 334.816 116.744 334.753L118.439 334.314C118.681 334.251 118.91 334.385 118.973 334.628C119.036 334.87 118.901 335.098 118.659 335.161L116.964 335.601C116.843 335.632 116.745 335.626 116.63 335.558ZM121.351 334.333C121.237 334.266 121.183 334.183 121.152 334.062C121.089 333.82 121.223 333.591 121.465 333.529L123.16 333.089C123.402 333.026 123.631 333.161 123.694 333.403C123.757 333.645 123.622 333.873 123.38 333.936L121.685 334.376C121.564 334.407 121.428 334.378 121.351 334.333ZM126.05 333.147C125.936 333.079 125.882 332.997 125.851 332.875C125.788 332.633 125.922 332.405 126.164 332.342L127.859 331.902C128.101 331.839 128.33 331.974 128.393 332.216C128.456 332.458 128.321 332.687 128.079 332.75L126.384 333.189C126.263 333.221 126.126 333.192 126.05 333.147ZM130.733 331.899C130.619 331.832 130.565 331.749 130.534 331.628C130.471 331.386 130.605 331.157 130.847 331.095L132.542 330.655C132.784 330.592 133.013 330.727 133.076 330.969C133.139 331.211 133.004 331.439 132.762 331.502L131.067 331.942C130.984 331.996 130.848 331.967 130.733 331.899ZM135.454 330.675C135.34 330.607 135.286 330.524 135.255 330.403C135.192 330.161 135.326 329.933 135.568 329.87L137.263 329.43C137.505 329.367 137.734 329.502 137.797 329.744C137.86 329.986 137.725 330.215 137.483 330.277L135.789 330.717C135.667 330.749 135.569 330.742 135.454 330.675ZM140.176 329.45C140.061 329.382 140.007 329.3 139.976 329.178C139.913 328.936 140.048 328.708 140.29 328.645L141.984 328.205C142.227 328.142 142.455 328.277 142.518 328.519C142.581 328.761 142.447 328.99 142.205 329.053L140.51 329.492C140.389 329.524 140.29 329.517 140.176 329.45ZM144.897 328.225C144.782 328.158 144.729 328.075 144.697 327.954C144.634 327.712 144.769 327.483 145.011 327.42L146.706 326.98C146.948 326.918 147.177 327.052 147.239 327.294C147.302 327.536 147.168 327.765 146.926 327.828L145.231 328.267C145.11 328.299 144.973 328.27 144.897 328.225ZM149.596 327.038C149.481 326.971 149.427 326.888 149.396 326.767C149.333 326.525 149.468 326.296 149.71 326.233L151.404 325.794C151.647 325.731 151.875 325.865 151.938 326.107C152.001 326.349 151.867 326.578 151.625 326.641L149.93 327.081C149.809 327.112 149.672 327.083 149.596 327.038ZM154.279 325.791C154.164 325.724 154.111 325.641 154.079 325.52C154.016 325.278 154.151 325.049 154.393 324.986L156.088 324.546C156.33 324.484 156.558 324.618 156.621 324.86C156.684 325.102 156.55 325.331 156.308 325.394L154.613 325.833C154.492 325.865 154.393 325.858 154.279 325.791ZM159 324.566C158.886 324.499 158.832 324.416 158.8 324.295C158.737 324.053 158.872 323.824 159.114 323.761L160.809 323.321C161.051 323.259 161.28 323.393 161.342 323.635C161.405 323.877 161.271 324.106 161.029 324.169L159.334 324.609C159.213 324.64 159.114 324.633 159 324.566ZM163.721 323.341C163.607 323.274 163.553 323.191 163.522 323.07C163.459 322.828 163.593 322.599 163.835 322.536L165.53 322.097C165.772 322.034 166.001 322.168 166.064 322.41C166.127 322.652 165.992 322.881 165.75 322.944L164.055 323.384C163.934 323.415 163.797 323.386 163.721 323.341ZM168.42 322.154C168.306 322.087 168.252 322.004 168.22 321.883C168.157 321.641 168.292 321.412 168.534 321.35L170.229 320.91C170.471 320.847 170.7 320.982 170.762 321.224C170.825 321.466 170.691 321.694 170.449 321.757L168.754 322.197C168.633 322.228 168.496 322.199 168.42 322.154ZM173.103 320.907C172.989 320.84 172.935 320.757 172.903 320.636C172.841 320.394 172.975 320.165 173.217 320.102L174.912 319.663C175.154 319.6 175.383 319.734 175.446 319.976C175.508 320.218 175.374 320.447 175.132 320.51L173.437 320.95C173.354 321.003 173.217 320.974 173.103 320.907ZM177.824 319.682C177.71 319.615 177.656 319.532 177.625 319.411C177.562 319.169 177.696 318.94 177.938 318.877L179.633 318.438C179.875 318.375 180.104 318.509 180.167 318.751C180.23 318.994 180.095 319.222 179.853 319.285L178.158 319.725C178.037 319.756 177.939 319.749 177.824 319.682ZM182.545 318.457C182.431 318.39 182.377 318.307 182.346 318.186C182.283 317.944 182.417 317.715 182.659 317.653L184.354 317.213C184.596 317.15 184.825 317.285 184.888 317.527C184.951 317.769 184.816 317.997 184.574 318.06L182.88 318.5C182.758 318.531 182.66 318.525 182.545 318.457ZM187.267 317.233C187.152 317.165 187.098 317.082 187.067 316.961C187.004 316.719 187.139 316.491 187.381 316.428L189.075 315.988C189.318 315.925 189.546 316.06 189.609 316.302C189.672 316.544 189.538 316.773 189.296 316.835L187.601 317.275C187.48 317.306 187.343 317.277 187.267 317.233ZM191.965 316.046C191.851 315.979 191.797 315.896 191.766 315.775C191.703 315.532 191.837 315.304 192.08 315.241L193.774 314.801C194.016 314.738 194.245 314.873 194.308 315.115C194.371 315.357 194.236 315.586 193.994 315.649L192.3 316.088C192.178 316.12 192.042 316.091 191.965 316.046ZM196.649 314.798C196.534 314.731 196.48 314.648 196.449 314.527C196.386 314.285 196.52 314.056 196.763 313.994L198.457 313.554C198.699 313.491 198.928 313.626 198.991 313.868C199.054 314.11 198.92 314.339 198.677 314.401L196.983 314.841C196.9 314.895 196.763 314.866 196.649 314.798ZM201.37 313.574C201.255 313.506 201.202 313.423 201.17 313.302C201.107 313.06 201.242 312.832 201.484 312.769L203.179 312.329C203.421 312.266 203.649 312.401 203.712 312.643C203.775 312.885 203.641 313.114 203.399 313.176L201.704 313.616C201.583 313.648 201.484 313.641 201.37 313.574ZM206.091 312.349C205.977 312.282 205.923 312.199 205.891 312.078C205.828 311.835 205.963 311.607 206.205 311.544L207.9 311.104C208.142 311.041 208.371 311.176 208.434 311.418C208.496 311.66 208.362 311.889 208.12 311.952L206.425 312.391C206.304 312.423 206.205 312.416 206.091 312.349ZM210.812 311.124C210.698 311.057 210.644 310.974 210.613 310.853C210.55 310.611 210.684 310.382 210.926 310.319L212.621 309.879C212.863 309.817 213.092 309.951 213.155 310.193C213.218 310.435 213.083 310.664 212.841 310.727L211.146 311.166C211.003 311.236 210.888 311.169 210.812 311.124ZM215.511 309.937C215.397 309.87 215.343 309.787 215.311 309.666C215.248 309.424 215.383 309.195 215.625 309.132L217.32 308.693C217.562 308.63 217.791 308.764 217.853 309.006C217.916 309.249 217.782 309.477 217.54 309.54L215.845 309.98C215.724 310.011 215.587 309.982 215.511 309.937ZM220.194 308.69C220.08 308.623 220.026 308.54 219.994 308.419C219.932 308.177 220.066 307.948 220.308 307.885L222.003 307.445C222.245 307.383 222.474 307.517 222.537 307.759C222.599 308.001 222.465 308.23 222.223 308.293L220.528 308.732C220.407 308.764 220.308 308.757 220.194 308.69ZM224.915 307.465C224.801 307.398 224.747 307.315 224.716 307.194C224.653 306.952 224.787 306.723 225.029 306.66L226.724 306.221C226.966 306.158 227.195 306.292 227.258 306.534C227.321 306.776 227.186 307.005 226.944 307.068L225.249 307.508C225.128 307.539 225.03 307.532 224.915 307.465ZM229.636 306.24C229.522 306.173 229.468 306.09 229.437 305.969C229.374 305.727 229.508 305.498 229.75 305.435L231.445 304.996C231.687 304.933 231.916 305.067 231.979 305.309C232.042 305.552 231.907 305.78 231.665 305.843L229.971 306.283C229.849 306.314 229.713 306.285 229.636 306.24ZM234.335 305.053C234.221 304.986 234.167 304.903 234.136 304.782C234.073 304.54 234.207 304.311 234.449 304.249L236.144 303.809C236.386 303.746 236.615 303.881 236.678 304.123C236.741 304.365 236.606 304.593 236.364 304.656L234.669 305.096C234.548 305.127 234.412 305.098 234.335 305.053ZM239.018 303.806C238.904 303.739 238.85 303.656 238.819 303.535C238.756 303.293 238.89 303.064 239.132 303.001L240.827 302.562C241.069 302.499 241.298 302.633 241.361 302.875C241.424 303.117 241.289 303.346 241.047 303.409L239.352 303.849C239.269 303.902 239.133 303.873 239.018 303.806ZM243.74 302.581C243.625 302.514 243.571 302.431 243.54 302.31C243.477 302.068 243.611 301.839 243.854 301.776L245.548 301.337C245.79 301.274 246.019 301.408 246.082 301.651C246.145 301.893 246.011 302.121 245.768 302.184L244.074 302.624C243.953 302.655 243.854 302.649 243.74 302.581ZM248.461 301.356C248.346 301.289 248.293 301.206 248.261 301.085C248.198 300.843 248.333 300.614 248.575 300.552L250.27 300.112C250.512 300.049 250.74 300.184 250.803 300.426C250.866 300.668 250.732 300.896 250.49 300.959L248.795 301.399C248.674 301.43 248.575 301.424 248.461 301.356ZM253.182 300.132C253.068 300.064 253.014 299.981 252.982 299.86C252.919 299.618 253.054 299.39 253.296 299.327L254.991 298.887C255.233 298.824 255.462 298.959 255.525 299.201C255.587 299.443 255.453 299.672 255.211 299.734L253.516 300.174C253.395 300.205 253.258 300.176 253.182 300.132ZM257.881 298.945C257.766 298.878 257.713 298.795 257.681 298.674C257.618 298.431 257.753 298.203 257.995 298.14L259.69 297.7C259.932 297.637 260.16 297.772 260.223 298.014C260.286 298.256 260.152 298.485 259.91 298.548L258.215 298.987C258.094 299.019 257.957 298.99 257.881 298.945ZM262.564 297.698C262.449 297.63 262.396 297.547 262.364 297.426C262.301 297.184 262.436 296.956 262.678 296.893L264.373 296.453C264.615 296.39 264.844 296.525 264.906 296.767C264.969 297.009 264.835 297.238 264.593 297.3L262.898 297.74C262.777 297.771 262.678 297.765 262.564 297.698ZM267.285 296.473C267.171 296.405 267.117 296.323 267.085 296.201C267.023 295.959 267.157 295.731 267.399 295.668L269.094 295.228C269.336 295.165 269.565 295.3 269.628 295.542C269.69 295.784 269.556 296.013 269.314 296.076L267.619 296.515C267.498 296.547 267.399 296.54 267.285 296.473ZM272.006 295.248C271.892 295.181 271.838 295.098 271.807 294.977C271.744 294.735 271.878 294.506 272.12 294.443L273.815 294.003C274.057 293.94 274.286 294.075 274.349 294.317C274.412 294.559 274.277 294.788 274.035 294.851L272.34 295.29C272.219 295.322 272.083 295.293 272.006 295.248ZM276.705 294.061C276.591 293.994 276.537 293.911 276.505 293.79C276.443 293.548 276.577 293.319 276.819 293.256L278.514 292.817C278.756 292.754 278.985 292.888 279.048 293.13C279.11 293.372 278.976 293.601 278.734 293.664L277.039 294.104C276.918 294.135 276.781 294.106 276.705 294.061ZM281.388 292.814C281.274 292.747 281.22 292.664 281.189 292.543C281.126 292.3 281.26 292.072 281.502 292.009L281.865 291.915C282.107 291.852 282.336 291.986 282.399 292.229C282.462 292.471 282.327 292.699 282.085 292.762L281.722 292.856C281.639 292.91 281.502 292.881 281.388 292.814Z" fill="#1D1655"/>
<g opacity="0.5">
<path d="M242.33 323.866L188.531 337.823L190.776 346.468L244.575 332.511L242.33 323.866Z" fill="#1D1655"/>
<path d="M247.661 346.528L238.215 310.153L261.126 323.622L247.661 346.528Z" fill="#1D1655"/>
</g>
<path d="M176.728 345.808C176.614 345.741 176.56 345.658 176.529 345.537C176.466 345.295 176.6 345.066 176.842 345.003L178.537 344.563C178.779 344.501 179.008 344.635 179.071 344.877C179.134 345.119 178.999 345.348 178.757 345.411L177.062 345.85C176.941 345.882 176.843 345.875 176.728 345.808ZM181.449 344.583C181.335 344.516 181.281 344.433 181.25 344.312C181.187 344.07 181.321 343.841 181.563 343.778L183.258 343.339C183.5 343.276 183.729 343.41 183.792 343.652C183.855 343.894 183.72 344.123 183.478 344.186L181.783 344.626C181.662 344.657 181.564 344.65 181.449 344.583ZM186.171 343.358C186.056 343.291 186.002 343.208 185.971 343.087C185.908 342.845 186.043 342.616 186.285 342.553L187.979 342.114C188.222 342.051 188.45 342.185 188.513 342.427C188.576 342.67 188.442 342.898 188.199 342.961L186.505 343.401C186.384 343.432 186.247 343.403 186.171 343.358ZM190.869 342.171C190.755 342.104 190.701 342.021 190.67 341.9C190.607 341.658 190.741 341.429 190.983 341.367L192.678 340.927C192.92 340.864 193.149 340.999 193.212 341.241C193.275 341.483 193.14 341.712 192.898 341.774L191.203 342.214C191.082 342.245 190.946 342.216 190.869 342.171ZM195.552 340.924C195.438 340.857 195.384 340.774 195.353 340.653C195.29 340.411 195.424 340.182 195.667 340.119L197.361 339.68C197.603 339.617 197.832 339.751 197.895 339.993C197.958 340.236 197.823 340.464 197.581 340.527L195.887 340.967C195.804 341.021 195.667 340.991 195.552 340.924Z" fill="#1D1655"/>
<g opacity="0.5">
<path d="M129.046 185.995L108.117 191.425L108.995 194.806L129.924 189.376L129.046 185.995Z" fill="#1D1655"/>
<path d="M131.115 194.78L127.438 180.617L136.358 185.861L131.115 194.78Z" fill="#1D1655"/>
</g>
<path d="M103.389 194.738C103.275 194.67 103.221 194.587 103.189 194.466C103.127 194.224 103.261 193.996 103.503 193.933L105.198 193.493C105.44 193.43 105.669 193.565 105.732 193.807C105.795 194.049 105.66 194.278 105.418 194.34L103.723 194.78C103.602 194.811 103.503 194.805 103.389 194.738ZM108.088 193.551C107.974 193.484 107.92 193.401 107.888 193.28C107.825 193.037 107.96 192.809 108.202 192.746L109.897 192.306C110.139 192.243 110.368 192.378 110.43 192.62C110.493 192.862 110.359 193.091 110.117 193.154L108.422 193.593C108.301 193.625 108.164 193.596 108.088 193.551Z" fill="#1D1655"/>
<g opacity="0.5">
<path d="M258.785 167.131L239.012 172.261L239.834 175.428L259.607 170.298L258.785 167.131Z" fill="#1D1655"/>
<path d="M260.765 175.452L257.27 162.114L265.695 167.067L260.765 175.452Z" fill="#1D1655"/>
</g>
<path d="M234.561 175.434C234.447 175.367 234.393 175.284 234.361 175.163C234.298 174.921 234.433 174.692 234.675 174.63L236.37 174.19C236.612 174.127 236.841 174.262 236.904 174.504C236.966 174.746 236.832 174.974 236.59 175.037L234.895 175.477C234.752 175.547 234.637 175.479 234.561 175.434ZM239.26 174.248C239.145 174.18 239.092 174.098 239.06 173.976C238.997 173.734 239.132 173.506 239.374 173.443L241.069 173.003C241.311 172.94 241.539 173.075 241.602 173.317C241.665 173.559 241.531 173.788 241.289 173.851L239.594 174.29C239.473 174.322 239.336 174.293 239.26 174.248Z" fill="#1D1655"/>
<path d="M91.3444 220.634C90.7391 220.791 90.1495 221.009 89.5823 221.188C88.007 217.236 83.6791 215 79.4421 216.099C77.4446 216.617 75.7569 217.83 74.6409 219.38C73.1064 216.58 69.8392 215.07 66.6312 215.902C62.8179 216.891 60.5325 220.779 61.5227 224.592C61.5698 224.774 61.617 224.955 61.6865 225.099C56.0621 227.075 52.6517 232.352 53.9562 237.376C55.3393 242.702 61.3914 245.234 67.6863 243.601C73.9813 241.968 89.9608 237.822 95.4688 236.393C101.703 234.776 104.121 230.402 102.989 226.044C101.835 221.724 97.6169 219.039 91.3444 220.634Z" fill="white"/>
<path d="M57.6251 243.175C55.4522 241.897 53.9403 239.931 53.3274 237.571C51.9757 232.366 55.1955 226.976 60.8781 224.727C60.3595 222.729 60.6591 220.649 61.7122 218.857C62.7653 217.066 64.4373 215.792 66.4953 215.259C69.6427 214.442 72.8919 215.634 74.7582 218.218C75.9594 216.873 77.5733 215.873 79.3286 215.418C83.5656 214.318 88.0817 216.409 89.9755 220.343C90.361 220.211 90.7847 220.101 91.2308 219.953C94.3783 219.136 97.2011 219.308 99.4413 220.471C101.529 221.545 103.025 223.45 103.676 225.833C104.305 228.254 103.925 230.646 102.585 232.576C101.193 234.682 98.8104 236.204 95.663 237.021L67.8805 244.229C64.6725 245.061 61.4551 244.862 58.7598 243.688C58.3113 243.578 57.9682 243.376 57.6251 243.175ZM71.693 217.237C70.2443 216.385 68.4977 216.128 66.8029 216.568C65.1081 217.007 63.7297 218.043 62.8559 219.53C61.982 221.016 61.7248 222.763 62.1873 224.419C62.2345 224.601 62.2659 224.722 62.3131 224.903L62.5083 225.531L61.8807 225.726C56.5207 227.601 53.3501 232.558 54.5603 237.219C55.1733 239.579 56.8286 241.475 59.1965 242.509C61.6026 243.564 64.524 243.743 67.4294 242.989L95.2118 235.781C97.9961 235.059 100.13 233.698 101.342 231.897C102.465 230.249 102.758 228.268 102.223 226.21C101.689 224.152 100.446 222.601 98.6862 221.669C96.7509 220.685 94.2241 220.533 91.4398 221.255C90.8346 221.412 90.2674 221.592 89.7384 221.794L89.1488 222.011L88.893 221.399C87.4186 217.712 83.3733 215.693 79.56 216.682C77.8047 217.137 76.2065 218.198 75.113 219.709L74.499 220.579L74.0054 219.673C73.4804 218.647 72.646 217.797 71.693 217.237Z" fill="#1D1655"/>
<path d="M27.0373 309.252C26.6517 309.384 26.2885 309.478 25.9029 309.611C24.864 307.102 22.1282 305.648 19.4425 306.377C18.1714 306.707 17.109 307.467 16.3673 308.467C15.4182 306.678 13.3238 305.703 11.2659 306.237C8.84474 306.865 7.38836 309.343 8.01703 311.764C8.04846 311.885 8.07989 312.006 8.13373 312.089C4.52009 313.349 2.3892 316.712 3.19978 319.958C4.07992 323.348 7.9547 324.959 11.9496 323.922C15.9444 322.886 26.1737 320.232 29.6844 319.321C33.6792 318.285 35.2162 315.496 34.4932 312.712C33.7097 309.943 31.0321 308.215 27.0373 309.252Z" fill="white"/>
<path d="M5.37539 323.852C3.92674 323 2.94426 321.705 2.53562 320.131C1.65549 316.742 3.71683 313.235 7.32813 311.717C7.05861 310.43 7.26663 309.116 7.9164 308.011C8.61098 306.83 9.74062 305.955 11.1104 305.632C13.1078 305.114 15.1999 305.831 16.4425 307.382C17.209 306.602 18.2199 306.016 19.3094 305.734C22.0937 305.011 24.9573 306.336 26.2765 308.804C26.4805 308.718 26.7002 308.694 26.9042 308.608C28.9621 308.075 30.8365 308.202 32.2918 308.955C33.7091 309.685 34.7139 310.943 35.1002 312.555C35.5088 314.128 35.2807 315.738 34.3979 317.065C33.4702 318.469 31.9169 319.453 29.8589 319.987L12.086 324.566C9.96751 325.115 7.83531 324.99 6.08401 324.217C5.83287 324.121 5.60413 323.986 5.37539 323.852ZM14.3484 307.279C13.4716 306.764 12.4313 306.614 11.4023 306.881C10.3733 307.148 9.53728 307.784 9.02195 308.661C8.50661 309.538 8.35679 310.578 8.62397 311.607C8.6554 311.728 8.67112 311.788 8.70255 311.909L8.89784 312.537L8.27015 312.732C4.98155 313.876 3.02992 316.934 3.7686 319.779C4.1458 321.231 5.14166 322.33 6.6037 322.984C8.06573 323.638 9.90197 323.743 11.7178 323.272L29.4526 318.671C31.2079 318.216 32.5125 317.393 33.2228 316.272C33.904 315.288 34.1053 314.073 33.7528 312.84C33.4385 311.629 32.6714 310.665 31.6197 310.098C30.4312 309.502 28.8909 309.417 27.158 309.835C26.7948 309.929 26.4316 310.023 26.0842 310.178L25.4946 310.395L25.2388 309.783C24.3389 307.562 21.8857 306.325 19.5475 306.899C18.458 307.182 17.5009 307.85 16.8645 308.758L16.2505 309.628L15.757 308.723C15.4406 308.126 14.9203 307.615 14.3484 307.279Z" fill="#1D1655"/>
<path d="M360.478 198.939L343.099 183.389L337.362 160.425C336.507 158.127 333.948 156.982 331.651 157.837C329.353 158.691 328.208 161.249 329.025 163.525L334.919 187.094C335.207 187.827 335.622 188.43 336.164 188.902C336.456 189.279 336.808 189.64 337.205 189.924L355.311 206.158C357.295 207.581 360.082 207.117 361.467 205.11C362.928 203.148 362.501 200.384 360.478 198.939Z" fill="white"/>
<path d="M355.333 206.992C355.218 206.925 355.066 206.835 354.951 206.768L354.875 206.723L336.807 190.512C336.372 190.205 336.02 189.844 335.713 189.407C335.116 188.851 334.609 188.143 334.344 187.372L334.329 187.311L328.473 163.765C328.022 162.525 328.077 161.122 328.635 159.911C329.215 158.662 330.23 157.721 331.47 157.27C332.77 156.803 334.136 156.837 335.385 157.417C336.634 157.997 337.538 158.99 338.027 160.252L338.043 160.313L343.717 183.034L360.928 198.434C362.004 199.221 362.758 200.382 362.982 201.745C363.207 203.108 362.878 204.453 362.13 205.552C360.519 207.682 357.582 208.315 355.333 206.992ZM355.76 205.654C357.447 206.799 359.771 206.422 360.955 204.758C361.546 203.927 361.772 202.931 361.604 201.909C361.435 200.887 360.897 200.057 360.065 199.466L359.989 199.421L342.479 183.743L336.711 160.658C336.377 159.744 335.672 159.022 334.789 158.605C333.867 158.166 332.858 158.137 331.883 158.487C330.946 158.859 330.186 159.541 329.77 160.424C329.331 161.346 329.302 162.354 329.674 163.291L329.69 163.352L335.546 186.898C335.764 187.488 336.125 188.008 336.614 188.398L336.744 188.526C336.997 188.88 337.296 189.158 337.616 189.398L337.693 189.442L355.76 205.654Z" fill="#1D1655"/>
<path d="M339.27 231.962C340.278 235.221 343.723 237.041 346.982 236.034C350.242 235.026 352.061 231.583 351.015 228.301L341.883 198.983C340.875 195.723 337.409 193.942 334.149 194.949C330.89 195.956 329.07 199.4 330.116 202.681L339.27 231.962Z" fill="white"/>
<path d="M341.69 236.05C340.241 235.199 339.144 233.836 338.621 232.195L329.49 202.877C328.935 201.115 329.1 199.263 329.943 197.655C330.785 196.048 332.193 194.875 333.955 194.321C337.539 193.197 341.387 195.203 342.512 198.788L351.643 228.106C352.198 229.868 352.033 231.72 351.19 233.327C350.348 234.935 348.918 236.145 347.178 236.661C345.416 237.215 343.564 237.05 341.979 236.169C341.88 236.162 341.804 236.118 341.69 236.05ZM339.899 231.767C340.359 233.165 341.272 234.317 342.613 235.003C343.916 235.667 345.411 235.828 346.81 235.368C348.209 234.908 349.361 233.995 350.046 232.655C350.71 231.352 350.87 229.857 350.41 228.458L341.256 199.178C340.343 196.282 337.242 194.664 334.345 195.577C332.946 196.036 331.794 196.949 331.131 198.252C330.468 199.554 330.307 201.049 330.767 202.448L339.899 231.767Z" fill="#1D1655"/>
<path d="M336.106 206.716C339.494 206.45 342.053 203.493 341.749 200.083C341.484 196.696 338.503 194.175 335.115 194.44L310.183 196.451C306.735 196.732 304.274 199.696 304.54 203.083C304.806 206.47 307.764 209.03 311.174 208.726L336.106 206.716Z" fill="white"/>
<path d="M307.205 208.496C306.862 208.295 306.541 208.055 306.22 207.815C304.852 206.652 303.995 204.968 303.88 203.157C303.727 201.323 304.303 199.559 305.466 198.191C306.651 196.785 308.312 195.967 310.146 195.814L335.079 193.803C338.845 193.504 342.124 196.304 342.424 200.07C342.723 203.836 339.924 207.114 336.158 207.413L311.225 209.424C309.831 209.527 308.425 209.213 307.205 208.496ZM338.389 195.852C337.436 195.291 336.326 194.998 335.167 195.137L310.234 197.148C308.779 197.267 307.405 197.947 306.497 199.054C305.529 200.177 305.095 201.614 305.214 203.069C305.334 204.524 306.036 205.86 307.121 206.806C308.245 207.774 309.682 208.209 311.137 208.09L336.07 206.079C339.079 205.847 341.36 203.188 341.128 200.18C340.959 198.286 339.875 196.726 338.389 195.852Z" fill="#1D1655"/>
<path d="M230.355 271.428C231.831 268.654 232.85 265.612 233.331 262.612C234.829 253.082 231.067 233.741 215.443 229.429C211.239 228.291 205.386 230.132 201.535 231.971C197.553 226.964 191.16 224.488 185.097 227.385C182.25 228.737 180.154 230.993 178.889 233.583C175.852 229.848 170.569 228.538 166.061 230.709C161.168 233.012 158.851 238.523 160.376 243.521C160.147 243.387 159.979 243.237 159.75 243.102C155.251 240.458 149.501 241.95 146.857 246.447C145.065 249.496 145.212 253.173 146.883 256.002C140.713 253.759 133.635 256.112 130.185 261.981C126.309 268.575 128.509 277.048 135.104 280.925C138.573 282.965 142.535 283.294 146.075 282.246C146.702 286.153 149.055 289.742 152.715 291.893C158.243 295.143 165.051 294.119 169.404 289.857C171.019 293.217 174.34 295.683 178.347 295.935C183.34 296.255 187.794 293.129 189.254 288.551C191.358 290.557 194.183 291.859 197.279 292.089C203.828 292.554 209.589 287.991 210.866 281.716C211.786 281.898 212.689 282.019 213.638 282.063C221.09 282.649 226.931 277.775 230.355 271.428Z" fill="white"/>
<path d="M152.393 292.526C148.886 290.464 146.421 287.066 145.558 283.123C141.911 284.004 138.023 283.462 134.745 281.535C127.844 277.479 125.534 268.582 129.589 261.683C132.883 256.08 139.427 253.414 145.546 254.959C144.412 252.088 144.633 248.833 146.224 246.127C148.912 241.553 154.654 239.902 159.316 242.181C158.558 237.274 161.137 232.277 165.705 230.09C170.13 227.973 175.334 228.981 178.687 232.439C180.083 229.978 182.181 227.98 184.741 226.766C190.556 224.03 197.139 225.746 201.67 231.128C205.785 229.188 211.459 227.652 215.565 228.783C231.637 233.205 235.465 253.046 233.937 262.713C233.45 265.811 232.386 268.93 230.887 271.741C226.897 279.14 220.412 283.277 213.605 282.814C212.854 282.783 212.11 282.653 211.381 282.584C209.763 288.915 203.796 293.305 197.247 292.84C194.447 292.63 191.745 291.554 189.544 289.8C187.658 294.23 183.187 297.037 178.315 296.686C174.528 296.409 171.103 294.293 169.246 290.996C164.611 295.041 157.807 295.708 152.393 292.526ZM146.643 281.452L146.771 282.194C147.42 286.063 149.711 289.41 153.104 291.405C158.212 294.408 164.787 293.606 169.012 289.474L169.651 288.824L170.03 289.662C171.592 292.939 174.812 295.14 178.424 295.366C183.061 295.681 187.236 292.853 188.645 288.45L188.97 287.462L189.734 288.168C191.822 290.113 194.534 291.348 197.356 291.52C203.473 291.936 209.031 287.716 210.273 281.676L210.396 281.03L211.042 281.154C211.961 281.335 212.827 281.434 213.775 281.478C220.089 281.908 226.06 278.033 229.82 271.114C231.251 268.417 232.264 265.473 232.722 262.512C234.201 253.278 230.555 234.261 215.319 230.074C211.388 228.994 205.844 230.659 201.888 232.59L201.397 232.814L201.067 232.415C196.94 227.219 190.774 225.492 185.389 228.02C182.829 229.233 180.725 231.329 179.497 233.941L179.036 234.901L178.376 234.103C175.447 230.534 170.507 229.426 166.331 231.381C161.846 233.514 159.534 238.668 160.995 243.425L161.543 245.285L159.933 244.185C159.742 244.073 159.536 243.9 159.345 243.788C155.19 241.346 149.803 242.743 147.361 246.898C145.748 249.642 145.756 253.031 147.373 255.777L148.335 257.369L146.593 256.755C140.597 254.563 133.953 256.966 130.726 262.454C127.052 268.705 129.158 276.815 135.41 280.49C138.536 282.328 142.37 282.787 145.849 281.755L146.643 281.452Z" fill="#1D1655"/>
<path fill-rule="evenodd" clip-rule="evenodd" d="M251.344 231.354C249.328 231.554 247.207 231.846 245.118 232.259C226.145 235.825 213.954 255.429 213.954 255.429C213.954 255.429 232.485 269.194 251.419 265.606C253.509 265.194 255.582 264.72 257.542 264.18L251.344 231.354Z" fill="white"/>
<path d="M217.455 258.461C215.016 257.027 213.58 255.978 213.542 255.956L213.031 255.604L213.345 255.07C213.457 254.88 225.951 235.197 244.946 231.593C246.975 231.196 249.095 230.904 251.21 230.711L251.808 230.653L258.244 264.643L257.677 264.823C255.657 265.379 253.561 265.891 251.494 266.265C237.7 268.875 223.974 262.294 217.455 258.461ZM214.84 255.231C217.946 257.365 234.561 268.107 251.285 264.963C253.132 264.613 254.964 264.202 256.742 263.709L250.759 232.088C248.903 232.279 247.04 232.568 245.193 232.918C228.529 236.046 216.935 252.104 214.84 255.231Z" fill="#1D1655"/>
<path fill-rule="evenodd" clip-rule="evenodd" d="M252.771 238.963C251.672 239.086 250.574 239.21 249.408 239.448C239.248 241.373 232.669 251.866 232.669 251.866C232.669 251.866 242.633 259.262 252.793 257.336C253.937 257.137 255.026 256.854 256.077 256.549L252.771 238.963Z" fill="white"/>
<path d="M234.577 253.858C233.243 253.074 232.411 252.482 232.281 252.354L231.77 252.002L232.083 251.469C232.352 251.012 238.917 240.716 249.259 238.744C250.402 238.544 251.523 238.382 252.66 238.281L253.259 238.223L256.819 257.035L256.214 257.192C255.102 257.513 253.974 257.773 252.869 257.995C245.419 259.411 238.161 255.965 234.577 253.858ZM233.594 251.691C235.738 253.105 244.188 258.277 252.66 256.693C253.523 256.534 254.409 256.336 255.317 256.101L252.187 239.696C251.309 239.795 250.407 239.932 249.484 240.107C241.072 241.675 235.047 249.57 233.594 251.691Z" fill="#1D1655"/>
<g opacity="0.2">
<path fill-rule="evenodd" clip-rule="evenodd" d="M252.771 238.963C251.672 239.086 250.574 239.21 249.408 239.448C239.248 241.373 232.669 251.866 232.669 251.866C232.669 251.866 242.633 259.262 252.793 257.336C253.937 257.137 255.026 256.854 256.077 256.549L252.771 238.963Z" fill="#1D1655"/>
</g>
<path d="M274.102 264.374L262.638 274.713C254.227 276.281 245.005 264.655 241.964 248.712C238.944 232.731 243.336 218.542 251.709 216.951L266.183 222.434" fill="white"/>
<path d="M255.539 273.873C249.249 270.175 243.551 260.671 241.32 248.847C238.222 232.563 242.86 217.955 251.612 216.33L251.793 216.283L266.443 221.817L265.961 223.073L251.7 217.664C243.775 219.365 239.729 233.141 242.645 248.6C245.561 264.058 254.363 275.438 262.359 274.139L273.696 263.93L274.599 264.923L263.008 275.392L262.826 275.439C260.38 275.847 257.903 275.263 255.539 273.873Z" fill="#1D1655"/>
<g opacity="0.2">
<path d="M274.314 265.32L269.739 267.605C266.627 268.186 259.579 258.709 257.18 245.862C254.742 232.993 257.832 221.629 260.966 221.009L266.37 223.16" fill="#1D1655"/>
</g>
<path fill-rule="evenodd" clip-rule="evenodd" d="M283.304 270.707C298.82 268.136 363.578 255.534 365.524 255.191C381.726 252.15 433.741 229.288 430.697 213.087C427.653 196.887 371.92 194.485 355.718 197.525C353.591 197.916 288.326 209.809 272.454 213.248" fill="white"/>
<path d="M283.379 271.366L283.17 270.064C292.151 268.574 318.634 263.577 361.877 255.2C363.906 254.803 365.132 254.55 365.39 254.547C373.339 253.066 390.307 246.629 404.991 238.491C422.392 228.873 431.267 219.884 430.016 213.2C428.742 206.553 417.396 201.421 397.995 198.735C381.616 196.492 363.705 196.681 355.793 198.184C355.513 198.225 354.067 198.503 351.78 198.902C308.306 206.886 281.664 211.893 272.551 213.869L272.281 212.583C281.394 210.606 308.059 205.562 351.571 197.6C353.858 197.2 355.304 196.922 355.546 196.859C371.99 193.756 428.124 196.086 431.303 212.93C433.071 222.227 418.315 232.58 405.608 239.623C390.78 247.831 373.631 254.315 365.621 255.812C365.379 255.874 364.115 256.106 362.146 256.487C318.903 264.863 292.42 269.861 283.379 271.366Z" fill="#1D1655"/>
<path fill-rule="evenodd" clip-rule="evenodd" d="M345.053 244.9C336.46 246.516 328.181 240.879 326.563 232.287C324.946 223.694 330.581 215.417 339.174 213.801C347.767 212.186 356.047 217.822 357.664 226.414C359.282 235.007 353.646 243.284 345.053 244.9Z" fill="white"/>
<path d="M333.75 243.537C329.785 241.206 326.784 237.237 325.883 232.399C324.209 223.466 330.107 214.83 339.063 213.12C343.401 212.285 347.778 213.217 351.433 215.725C355.05 218.21 357.511 221.965 358.347 226.302C360.021 235.235 354.123 243.872 345.167 245.582C341.093 246.315 337.066 245.487 333.75 243.537ZM349.792 216.247C346.628 214.387 342.944 213.76 339.31 214.445C331.08 215.966 325.662 223.961 327.208 232.152C328.791 240.366 336.728 245.801 344.92 244.257C353.172 242.697 358.568 234.74 357.022 226.549C356.281 222.575 353.997 219.129 350.685 216.823C350.364 216.583 350.059 216.404 349.792 216.247Z" fill="#1D1655"/>
<path fill-rule="evenodd" clip-rule="evenodd" d="M344.411 241.547C337.665 242.812 331.148 238.366 329.881 231.62C328.614 224.875 333.06 218.36 339.806 217.094C346.551 215.829 353.068 220.275 354.335 227.02C355.602 233.766 351.157 240.281 344.411 241.547Z" fill="#1D1655"/>
<path d="M335.475 240.602C332.311 238.742 329.946 235.609 329.236 231.755C328.598 228.303 329.31 224.824 331.309 221.947C333.269 219.048 336.255 217.111 339.708 216.473C343.16 215.836 346.64 216.548 349.517 218.547C352.417 220.508 354.355 223.494 354.993 226.946C356.316 234.032 351.646 240.929 344.56 242.25C341.311 242.803 338.105 242.149 335.475 240.602ZM348.067 219.182C345.627 217.748 342.748 217.235 339.917 217.776C336.805 218.357 334.129 220.117 332.347 222.711C330.566 225.305 329.896 228.451 330.501 231.524C331.712 237.928 337.87 242.113 344.275 240.903C350.68 239.694 354.863 233.537 353.652 227.133C353.07 224.021 351.309 221.345 348.692 219.601C348.524 219.451 348.295 219.317 348.067 219.182Z" fill="#1D1655"/>
<path fill-rule="evenodd" clip-rule="evenodd" d="M403.979 224.51C400.466 225.163 397.093 222.872 396.44 219.359C395.786 215.847 398.076 212.475 401.589 211.822C405.102 211.169 408.475 213.459 409.09 216.949C409.782 220.485 407.492 223.857 403.979 224.51Z" fill="#1D1655"/>
<path d="M399.175 224.302C397.46 223.293 396.208 221.583 395.795 219.494C395.444 217.647 395.852 215.732 396.93 214.161C398.007 212.589 399.606 211.528 401.491 211.201C403.338 210.851 405.253 211.258 406.787 212.314C408.359 213.392 409.42 214.99 409.748 216.875C410.458 220.729 407.928 224.421 404.09 225.191C402.364 225.51 400.624 225.154 399.175 224.302ZM405.695 213.211C404.475 212.494 403.085 212.241 401.7 212.503C400.193 212.797 398.866 213.658 398.006 214.947C397.146 216.236 396.825 217.741 397.097 219.285C397.679 222.397 400.709 224.485 403.843 223.866C406.955 223.285 409.043 220.256 408.423 217.122C408.129 215.616 407.267 214.289 405.978 213.428C405.924 213.345 405.81 213.278 405.695 213.211Z" fill="#1D1655"/>
<path fill-rule="evenodd" clip-rule="evenodd" d="M284.843 270.534C276.431 272.103 267.21 260.477 264.168 244.534C261.127 228.591 265.54 214.364 273.914 212.773" fill="white"/>
<path d="M277.744 269.695C271.453 265.997 265.755 256.493 263.562 244.691C262.089 236.901 262.292 229.225 264.193 223.111C266.124 216.861 269.539 212.971 273.855 212.174L274.102 213.499C270.286 214.231 267.232 217.769 265.433 223.533C263.606 229.433 263.4 236.851 264.865 244.482C267.812 260.062 276.713 271.448 284.761 269.974L285.008 271.299C282.585 271.669 280.107 271.085 277.744 269.695Z" fill="#1D1655"/>
<path d="M322.238 261.285C320.293 260.142 318.351 258.385 316.541 256.141C312.56 251.134 309.568 244.093 308.117 236.265C306.643 228.475 306.847 220.799 308.748 214.686C310.678 208.435 314.094 204.545 318.409 203.748L318.656 205.073C314.841 205.805 311.786 209.343 309.988 215.107C308.161 221.007 307.955 228.425 309.42 236.056C310.846 243.664 313.752 250.501 317.588 255.32C321.331 260.034 325.484 262.219 329.3 261.488L329.547 262.812C327.139 263.243 324.639 262.697 322.238 261.285Z" fill="#1D1655"/>
<path fill-rule="evenodd" clip-rule="evenodd" d="M392.834 245.295C385.786 246.639 378.007 236.835 375.466 223.443C372.926 210.051 376.609 198.113 383.658 196.769" fill="white"/>
<path d="M386.794 244.666C381.495 241.551 376.667 233.533 374.825 223.578C373.567 216.992 373.766 210.544 375.343 205.419C376.971 200.12 379.868 196.848 383.563 196.148L383.81 197.473C380.638 198.07 378.117 201.05 376.643 205.825C375.118 210.775 374.955 216.987 376.165 223.391C378.612 236.42 386.07 245.984 392.717 244.712L392.964 246.037C390.92 246.374 388.814 245.854 386.794 244.666Z" fill="#1D1655"/>
<path fill-rule="evenodd" clip-rule="evenodd" d="M272.403 213.067L268.564 192.809L316.897 204.657L272.403 213.067Z" fill="white"/>
<path d="M271.858 213.822L267.693 191.937L319.986 204.728L271.858 213.822ZM269.416 193.719L272.913 212.289L313.751 204.601L269.416 193.719Z" fill="#1D1655"/>
<path fill-rule="evenodd" clip-rule="evenodd" d="M283.312 270.867L287.095 290.784L327.322 262.582L283.312 270.867Z" fill="white"/>
<path d="M286.644 291.903L282.557 270.32L330.224 261.313L286.644 291.903ZM284.091 271.375L287.533 289.605L324.391 263.73L284.091 271.375Z" fill="#1D1655"/>
<g opacity="0.2">
<path fill-rule="evenodd" clip-rule="evenodd" d="M313.734 272.083L327.284 262.56L283.312 270.867L284.554 277.392C294.282 275.418 303.971 273.421 313.734 272.083Z" fill="#1D1655"/>
</g>
<path d="M430.362 213.659C430.209 213.569 430.102 213.404 430.054 213.222C429.998 212.881 430.222 212.5 430.563 212.444L448.271 209.11C448.612 209.053 448.993 209.278 449.05 209.618C449.106 209.959 448.882 210.34 448.541 210.396L430.833 213.731C430.651 213.778 430.476 213.726 430.362 213.659Z" fill="#1D1655"/>
<g opacity="0.2">
<path fill-rule="evenodd" clip-rule="evenodd" d="M365.525 255.191C381.287 252.199 431.045 230.472 430.808 214.383C430.808 214.383 405.035 229.08 378.453 239.045C360.842 245.617 287.277 261.246 281.652 262.35C272.272 264.17 265.912 252.738 269.632 259.848C276.069 272.197 283.283 270.745 283.283 270.745C298.821 268.135 363.579 255.534 365.525 255.191Z" fill="#1D1655"/>
</g>
<path d="M302.101 194.574C299.887 201.221 303.687 203.045 308.571 204.685L312.313 205.911C317.197 207.551 321.345 208.348 323.56 201.701C326.122 194.027 328.181 185.288 331.757 178.158C335.362 170.892 336.23 159.555 328.194 158.216C324.981 157.661 321.176 157.937 317.762 160.341C308.6 166.853 305.741 183.584 302.101 194.574Z" fill="white"/>
<path d="M304.17 203.534C303.408 203.085 302.751 202.545 302.199 201.913C300.658 200.084 300.408 197.629 301.485 194.314C302.253 192.047 302.981 189.5 303.738 186.817C306.671 176.592 309.956 164.983 317.386 159.761C320.446 157.61 324.185 156.834 328.302 157.51C330.831 157.92 332.717 159.336 333.874 161.556C336.291 166.258 334.78 173.627 332.374 178.418C329.872 183.461 328.067 189.323 326.352 195.033C325.682 197.306 324.968 199.656 324.244 201.846C321.853 209.056 317.158 208.142 312.175 206.496L308.433 205.27C306.684 204.755 305.314 204.206 304.17 203.534ZM330.354 159.691C329.706 159.31 328.952 159.021 328.071 158.862C324.289 158.228 320.951 158.933 318.162 160.884C311.124 165.875 307.898 177.21 305.038 187.222C304.282 189.906 303.554 192.453 302.763 194.757C301.818 197.587 301.98 199.579 303.23 201.032C304.479 202.484 306.762 203.313 308.816 204.008L312.558 205.233C317.366 206.829 320.928 207.487 322.944 201.441C323.667 199.25 324.382 196.901 325.089 194.65C326.827 188.902 328.638 182.941 331.186 177.822C333.525 173.146 334.804 166.256 332.704 162.15C332.141 161.101 331.345 160.274 330.354 159.691Z" fill="#1D1655"/>
<path d="M331.376 170.086C330.076 176.399 321.33 178.797 315.457 179.19C310.28 179.532 300.707 180.11 300.707 180.11C300.707 180.11 296.392 184.395 294.073 187.032C296.956 187.188 303.595 188.373 303.595 188.373C303.595 188.373 309.228 183.94 313.01 182.829C318.811 181.163 327.031 181.84 331.177 176.533C332.653 174.632 333.045 172.657 333.167 170.267L331.376 170.086Z" fill="#1D1655"/>
<path d="M293.752 187.664C293.638 187.597 293.546 187.491 293.476 187.348C293.353 187.121 293.411 186.848 293.584 186.642C295.903 184.005 300.195 179.758 300.24 179.682C300.367 179.552 300.511 179.482 300.67 179.473C300.67 179.473 310.205 178.873 315.42 178.554C321.771 178.133 329.552 175.63 330.73 169.963C330.81 169.651 331.104 169.413 331.46 169.418L333.229 169.637C333.563 169.68 333.839 169.996 333.797 170.33C333.683 172.879 333.263 174.991 331.681 176.984C328.599 180.916 323.51 181.72 318.625 182.438C316.664 182.721 314.839 183.033 313.182 183.495C309.544 184.536 304.077 188.861 303.994 188.915C303.828 189.023 303.647 189.07 303.449 189.056C303.389 189.072 296.848 187.894 294.026 187.722C293.927 187.715 293.828 187.709 293.752 187.664ZM300.978 180.782C300.256 181.486 297.49 184.271 295.456 186.511C298.249 186.82 302.267 187.49 303.422 187.707C304.552 186.832 309.335 183.233 312.83 182.262C314.569 181.746 316.47 181.479 318.454 181.158C323.082 180.442 327.906 179.74 330.665 176.181C331.924 174.563 332.311 172.944 332.452 170.873L331.882 170.794C330.169 176.762 322.063 179.382 315.492 179.827C310.809 180.202 302.531 180.67 300.978 180.782Z" fill="#1D1655"/>
<g opacity="0.2">
<path d="M336.669 247.204C337.056 245.585 334.581 245.259 333.561 244.813C332.982 244.575 331.926 244.365 331.498 243.959C329.378 241.892 331.708 237.056 331.952 234.635C332.273 230.773 332.595 226.91 332.894 223.086C333.235 218.927 333.583 214.67 333.902 210.549C330.51 209.427 327.178 208.289 323.801 207.227C319.085 205.737 314.408 204.269 309.76 202.665C307.881 202.022 305.941 201.395 304.04 200.79L301.962 207.466L321.333 213.52C320.781 220.478 320.23 227.437 319.596 234.449C319.257 237.994 317.947 243.275 319.639 246.68C321.138 249.715 325.211 249.854 328.184 249.858C328.639 249.869 329.512 249.869 330.467 249.815C332.899 249.603 336.246 249.058 336.669 247.204Z" fill="#1D1655"/>
</g>
<path d="M308.196 205.234L327.567 211.288C327.016 218.247 326.464 225.205 325.83 232.218C325.491 235.762 324.181 241.044 325.873 244.449C327.372 247.484 331.446 247.622 334.419 247.626C334.874 247.637 335.746 247.637 336.701 247.583C339.149 247.432 342.496 246.887 342.919 245.033C343.306 243.414 340.831 243.087 339.811 242.641C339.232 242.404 338.176 242.193 337.748 241.788C335.628 239.721 337.958 234.885 338.202 232.464C338.523 228.602 338.845 224.739 339.144 220.914C339.505 216.46 339.896 211.869 340.235 207.452C340.425 204.948 339.13 202.7 337.087 201.55C336.668 201.304 336.226 201.095 335.701 200.941L311.844 193.532" fill="white"/>
<path d="M327.368 246.968C326.491 246.453 325.749 245.708 325.224 244.682C323.81 241.851 324.367 238.024 324.837 234.607C324.957 233.704 325.094 232.861 325.125 232.11C325.574 227.245 325.969 222.298 326.335 217.487C326.484 215.575 326.634 213.662 326.805 211.712L307.937 205.851C307.587 205.748 307.394 205.378 307.497 205.028C307.6 204.678 307.97 204.486 308.32 204.589L327.691 210.642C328.002 210.723 328.18 211.032 328.159 211.328C327.997 213.438 327.796 215.525 327.655 217.596C327.289 222.407 326.894 227.355 326.445 232.22C326.392 233.009 326.255 233.852 326.112 234.793C325.656 238.013 325.173 241.626 326.394 244.088C327.646 246.67 331.159 246.889 334.367 246.929C334.883 246.924 335.695 246.94 336.612 246.863C339.916 246.652 341.988 245.921 342.22 244.827C342.359 244.242 341.689 243.899 340.328 243.509C340.016 243.428 339.765 243.332 339.514 243.236C339.339 243.184 339.164 243.132 338.951 243.059C338.35 242.859 337.65 242.653 337.26 242.27C335.455 240.542 336.283 237.387 336.95 234.856C337.192 233.921 337.45 233.047 337.474 232.395C337.708 229.814 337.905 227.212 338.101 224.609C338.188 223.327 338.313 222.067 338.4 220.784L339.491 207.322C339.677 205.175 338.566 203.137 336.676 202.077C336.256 201.831 335.853 201.645 335.427 201.497L311.569 194.088C311.219 193.985 311.026 193.615 311.129 193.265C311.232 192.915 311.602 192.722 311.952 192.825L335.81 200.235C336.334 200.389 336.852 200.642 337.31 200.911C339.619 202.218 340.992 204.769 340.774 207.41L339.682 220.872C339.557 222.132 339.47 223.414 339.406 224.658C339.21 227.261 338.975 229.841 338.779 232.444C338.71 233.172 338.468 234.107 338.181 235.118C337.617 237.3 336.876 240.044 338.123 241.238C338.329 241.411 338.892 241.588 339.318 241.736C339.569 241.832 339.805 241.868 339.995 241.98C340.17 242.032 340.421 242.128 340.672 242.224C341.798 242.578 343.897 243.197 343.489 245.111C343.073 246.867 340.784 247.88 336.661 248.175C335.585 248.26 334.637 248.215 334.319 248.233C332.415 248.243 329.541 248.245 327.368 246.968Z" fill="#1D1655"/>
<path d="M301.689 196.587C300.621 200.062 302.512 203.738 306.026 204.829L326.697 211.288L324.528 238.015C328.683 239.586 333.125 240.145 337.6 239.34L340.22 207.134C340.438 204.493 339.036 202.079 336.879 200.862C336.421 200.593 335.942 200.362 335.417 200.208L309.931 192.252" fill="white"/>
<path d="M324.192 238.587C323.964 238.452 323.84 238.226 323.876 237.99L325.989 211.795L305.82 205.528C303.957 204.946 302.436 203.693 301.541 201.987C300.646 200.281 300.461 198.327 301.043 196.464C301.146 196.114 301.516 195.921 301.866 196.024C302.216 196.127 302.409 196.497 302.306 196.847C301.827 198.36 301.955 199.974 302.695 201.332C303.413 202.729 304.651 203.764 306.187 204.206L326.859 210.665C327.17 210.746 327.348 211.055 327.328 211.351L325.192 237.584C329.141 238.983 333.096 239.41 336.943 238.8L339.507 207.125C339.683 204.818 338.525 202.599 336.498 201.51C336.041 201.241 335.599 201.033 335.173 200.885L309.725 192.951C309.376 192.848 309.183 192.478 309.286 192.129C309.389 191.779 309.759 191.586 310.108 191.689L335.556 199.623C336.119 199.8 336.637 200.053 337.17 200.367C339.617 201.702 341.075 204.457 340.827 207.235L338.23 239.402C338.21 239.698 337.954 239.958 337.674 239.999C333.26 240.789 328.751 240.343 324.246 238.67C324.291 238.593 324.23 238.609 324.192 238.587Z" fill="#1D1655"/>
<path d="M335.253 162.006C328.725 162.117 323.324 156.993 323.212 150.465C323.077 143.975 328.223 138.538 334.751 138.427C341.28 138.316 346.658 143.478 346.793 149.968C346.905 156.496 341.744 161.872 335.253 162.006Z" fill="white"/>
<path d="M328.684 160.965C325.062 158.836 322.608 154.983 322.537 150.479C322.369 143.61 327.891 137.881 334.738 137.752C338.074 137.662 341.24 138.908 343.62 141.23C346.022 143.514 347.377 146.618 347.468 149.954C347.636 156.823 342.137 162.514 335.267 162.681C332.826 162.733 330.59 162.085 328.684 160.965ZM340.611 140.589C338.857 139.558 336.85 139.045 334.788 139.064C328.653 139.202 323.748 144.318 323.887 150.452C324.026 156.585 329.106 161.469 335.278 161.354C341.412 161.216 346.295 156.137 346.156 150.004C346.099 147.047 344.861 144.267 342.741 142.201C342.03 141.578 341.335 141.015 340.611 140.589Z" fill="#1D1655"/>
<path d="M338.191 150.81C338.113 151.379 337.608 151.801 337.016 151.761C336.425 151.721 336.025 151.178 336.065 150.586C336.144 150.017 336.648 149.595 337.24 149.636C337.832 149.676 338.231 150.218 338.191 150.81Z" fill="white"/>
<path d="M336.255 152.185C336.064 152.073 335.934 151.945 335.788 151.757C335.497 151.38 335.349 150.934 335.398 150.501C335.503 149.537 336.361 148.862 337.287 148.945C338.251 149.05 338.927 149.909 338.844 150.835C338.739 151.799 337.881 152.473 336.916 152.368C336.697 152.393 336.446 152.297 336.255 152.185ZM337.33 150.355C337.292 150.333 337.216 150.288 337.156 150.304C336.92 150.268 336.732 150.414 336.696 150.649C336.689 150.748 336.721 150.869 336.775 150.952C336.829 151.034 336.943 151.102 337.042 151.108C337.277 151.144 337.465 150.998 337.501 150.763C337.553 150.588 337.445 150.422 337.33 150.355Z" fill="#1D1655"/>
<path d="M345.927 151.613C345.887 152.205 345.344 152.604 344.753 152.564C344.183 152.486 343.761 151.981 343.802 151.39C343.88 150.82 344.384 150.399 344.976 150.439C345.545 150.517 345.967 151.022 345.927 151.613Z" fill="white"/>
<path d="M343.989 152.988C343.418 152.652 343.085 151.995 343.132 151.305C343.237 150.341 344.096 149.666 345.022 149.748C345.986 149.854 346.661 150.712 346.578 151.638C346.507 152.109 346.321 152.512 345.944 152.804C345.568 153.095 345.122 153.243 344.689 153.194C344.431 153.196 344.18 153.1 343.989 152.988ZM345.065 151.158C345.027 151.136 344.95 151.091 344.89 151.107C344.655 151.071 344.466 151.217 344.43 151.452C344.395 151.688 344.579 151.898 344.776 151.912C344.875 151.918 344.996 151.887 345.079 151.833C345.161 151.779 345.229 151.665 345.235 151.566C345.287 151.392 345.179 151.226 345.065 151.158Z" fill="#1D1655"/>
<path d="M336.716 157.686C336.144 157.35 335.639 156.899 335.179 156.372C334.942 156.079 334.991 155.646 335.262 155.447C335.556 155.209 335.988 155.258 336.188 155.529C337.707 157.396 340.5 157.705 342.367 156.187C342.661 155.95 343.094 155.999 343.293 156.27C343.531 156.564 343.482 156.996 343.211 157.196C341.321 158.752 338.698 158.851 336.716 157.686Z" fill="#1D1655"/>
<path d="M323.557 169.852L347.7 172.762C348.276 172.742 348.837 172.661 349.366 172.459C349.987 172.362 350.576 172.145 351.096 171.784L372.723 160.65C374.758 159.282 375.302 156.524 373.972 154.511C372.603 152.476 369.846 151.932 367.81 153.3L347.331 163.878L323.643 160.979" fill="white"/>
<path d="M323.223 170.424C322.994 170.289 322.871 170.063 322.891 169.767C322.956 169.395 323.249 169.157 323.644 169.184L347.749 172.071C348.204 172.083 348.666 171.995 349.134 171.809C349.195 171.793 349.217 171.755 349.255 171.777C349.816 171.697 350.284 171.511 350.721 171.203L350.782 171.188L372.348 160.069C374.052 158.916 374.508 156.569 373.355 154.866C372.186 153.102 369.839 152.645 368.113 153.835C368.091 153.874 368.052 153.851 368.052 153.851L347.573 164.429C347.43 164.499 347.309 164.53 347.172 164.501L323.538 161.685C323.166 161.62 322.928 161.327 322.955 160.932C323.02 160.56 323.313 160.322 323.708 160.349L347.145 163.152L367.397 152.697C369.742 151.152 372.888 151.821 374.456 154.128C376.001 156.473 375.37 159.64 373.026 161.185C373.003 161.223 372.965 161.201 372.965 161.201L351.399 172.32C350.818 172.696 350.168 172.93 349.487 173.042C348.897 173.259 348.276 173.356 347.662 173.354C347.662 173.354 347.601 173.369 347.563 173.347L323.42 170.437C323.398 170.475 323.299 170.469 323.223 170.424Z" fill="#1D1655"/>
<path d="M322.547 169.922L347.95 172.957C348.565 172.959 349.148 172.84 349.677 172.638C350.298 172.542 350.948 172.308 351.528 171.932L369.275 162.773C369.073 162.244 368.833 161.693 368.532 161.157C367.397 158.9 366.035 156.766 364.342 154.847L347.478 163.551L322.607 160.571C321.082 160.547 319.724 161.287 318.854 162.417" fill="white"/>
<path d="M322.21 170.493C321.981 170.359 321.858 170.132 321.878 169.837C321.943 169.464 322.236 169.227 322.631 169.254L347.973 172.305C348.489 172.3 348.951 172.212 349.419 172.026C349.48 172.011 349.502 171.972 349.54 171.995C350.101 171.914 350.63 171.712 351.128 171.389L351.188 171.374L368.399 162.515C368.244 162.168 368.089 161.821 367.912 161.511C366.792 159.315 365.538 157.347 364.181 155.728L347.771 164.185C347.627 164.254 347.506 164.286 347.37 164.257L322.498 161.277C321.231 161.251 320.061 161.845 319.319 162.845C319.102 163.127 318.701 163.199 318.38 162.959C318.097 162.742 318.025 162.341 318.265 162.02C319.269 160.662 320.885 159.919 322.531 159.912L322.591 159.896L347.266 162.862L364.062 154.273C364.349 154.134 364.661 154.215 364.845 154.426C366.408 156.216 367.868 158.357 369.105 160.879C369.367 161.392 369.645 161.966 369.863 162.556C369.98 162.881 369.877 163.23 369.529 163.385L351.805 172.506C351.202 172.92 350.53 173.192 349.81 173.282C349.198 173.537 348.539 173.611 347.902 173.647C347.902 173.647 347.842 173.663 347.803 173.641L322.4 170.605C322.385 170.545 322.286 170.538 322.21 170.493Z" fill="#1D1655"/>
<path d="M330.488 144.895C330.365 145.541 329.068 148.882 329.081 149.556C328.018 147.7 326.296 146.79 324.889 148.835C323.587 150.788 325.852 153.043 326.792 154.672C325.875 153.877 321.342 155.828 319.18 154.095C318.164 153.293 317.173 152.71 316.09 152.022C316.451 151.67 316.751 151.334 317.036 150.937C315.087 151.023 312.935 151.193 311.005 150.725C312.975 149.73 316.566 148.507 317.731 146.525C316.651 146.967 314.752 147.492 313.658 147.259C313.559 147.252 318.12 141.676 318.193 141.463C316.767 141.446 315.344 141.686 314.017 141.675C318.357 136.123 325.287 134.196 332.141 134.841C334.798 135.121 349.755 138.734 348.127 143.162C347.112 145.847 342.634 142.035 342.896 141.676C340.565 144.768 331.783 138.067 330.488 144.895Z" fill="white"/>
<path d="M310.707 151.319C310.516 151.207 310.408 151.041 310.384 150.822C310.343 150.542 310.5 150.275 310.726 150.151C311.157 149.943 311.67 149.68 312.199 149.479C313.181 149.03 314.306 148.512 315.257 147.942C314.636 148.039 314.06 148.059 313.535 147.905C313.299 147.869 313.131 147.719 313.068 147.477C312.936 147.091 312.936 147.091 315.905 143.349C316.228 142.975 316.535 142.54 316.835 142.203C316.577 142.206 316.358 142.23 316.1 142.233C315.403 142.284 314.705 142.336 314.03 142.349C313.773 142.352 313.544 142.217 313.443 141.953C313.32 141.726 313.378 141.453 313.528 141.285C317.629 136.054 324.446 133.446 332.203 134.211C333.995 134.392 345.948 137.008 348.395 140.96C348.896 141.767 349.017 142.608 348.683 143.437C348.388 144.289 347.74 144.78 346.884 144.841C345.451 144.922 343.574 143.665 342.724 142.755C341.419 143.577 339.422 143.224 337.507 142.816C335.531 142.424 333.495 142.048 332.29 142.877C331.687 143.292 331.321 144.001 331.111 145.057C331.053 145.33 330.876 145.893 330.536 146.821C330.24 147.673 329.678 149.24 329.696 149.558C329.676 149.854 329.497 150.159 329.216 150.2C328.914 150.278 328.624 150.159 328.463 149.911C327.931 148.983 327.22 148.36 326.666 148.342C326.249 148.353 325.835 148.622 325.416 149.248C324.69 150.308 325.437 151.568 326.574 153.211C326.843 153.625 327.135 154.002 327.366 154.394C327.505 154.681 327.463 155.015 327.23 155.237C326.958 155.437 326.602 155.432 326.357 155.237C326.129 155.103 325.068 155.249 324.387 155.361C322.546 155.612 320.266 155.913 318.784 154.683C318.05 154.098 317.348 153.634 316.548 153.163C316.281 153.006 316.014 152.85 315.77 152.655C315.579 152.543 315.471 152.377 315.447 152.157C315.438 151.998 315.489 151.823 315.556 151.709C314.025 151.783 312.379 151.79 310.859 151.409C310.821 151.387 310.783 151.364 310.707 151.319ZM318.144 145.998C318.22 146.043 318.258 146.066 318.312 146.149C318.496 146.359 318.514 146.678 318.379 146.906C317.483 148.431 315.347 149.534 313.466 150.377C314.377 150.4 315.332 150.346 316.264 150.33C316.522 150.327 316.802 150.287 317.06 150.285C317.318 150.283 317.547 150.417 317.67 150.643C317.794 150.87 317.773 151.166 317.623 151.334C317.451 151.54 317.339 151.731 317.189 151.899C317.227 151.921 317.265 151.944 317.265 151.944C318.065 152.414 318.844 152.923 319.653 153.553C320.685 154.416 322.685 154.155 324.245 153.944C324.684 153.895 325.124 153.845 325.465 153.789C324.435 152.312 323.105 150.299 324.362 148.423C325.2 147.172 326.13 146.898 326.76 146.961C327.473 146.97 328.182 147.335 328.772 147.989C328.942 147.525 329.119 146.963 329.34 146.324C329.562 145.685 329.829 144.969 329.842 144.772C330.095 143.382 330.7 142.353 331.574 141.739C333.217 140.602 335.564 141.059 337.775 141.487C339.751 141.879 341.65 142.226 342.347 141.302C342.564 141.019 343.003 140.97 343.286 141.187C343.416 141.315 343.524 141.481 343.533 141.64C343.916 142.122 345.719 143.592 346.856 143.491C347.076 143.467 347.318 143.404 347.488 142.94C347.636 142.514 347.564 142.113 347.279 141.637C345.294 138.47 334.675 135.766 332.056 135.509C325.361 134.855 319.418 136.849 315.512 140.964C315.671 140.955 315.83 140.946 315.989 140.937C316.725 140.908 317.483 140.84 318.218 140.811C318.476 140.809 318.666 140.921 318.79 141.147C318.936 141.335 318.9 141.571 318.826 141.784C318.759 141.898 318.647 142.089 316.959 144.174C316.374 144.907 315.572 145.923 315.01 146.618C315.828 146.535 316.758 146.261 317.514 145.936C317.756 145.873 317.953 145.886 318.144 145.998Z" fill="#1D1655"/>
</g>
<defs>
<clipPath id="clip0_144_113">
<rect width="331" height="372" fill="white" transform="translate(188.523) rotate(30.4496)"/>
</clipPath>
</defs>
</svg>
