<svg width="215" height="217" viewBox="0 0 215 217" fill="none" xmlns="http://www.w3.org/2000/svg">
<path d="M154.571 17.2302C175.902 28.1575 197.211 41.6883 207.319 63.3284C217.464 85.0467 217.134 110.916 208.831 133.394C201.184 154.097 181.166 166.069 164.147 180.214C148.028 193.611 133.081 209.089 112.531 213.432C90.6932 218.048 65.864 217.817 47.7703 204.811C30.2219 192.198 29.2592 167.598 21.0482 147.675C13.2536 128.763 -4.32533 111.031 0.981453 91.2845C6.27135 71.6011 32.2742 67.1518 46.6029 52.588C62.2606 36.6732 67.1467 9.38215 88.4133 2.41764C110.422 -4.78988 133.972 6.67827 154.571 17.2302Z" fill="#2FBC88"/>
<g clip-path="url(#clip0_223_5)">
<path d="M154.275 111.008C157.065 111.008 159.327 108.736 159.327 105.933C159.327 103.13 157.065 100.858 154.275 100.858C151.485 100.858 149.223 103.13 149.223 105.933C149.223 108.736 151.485 111.008 154.275 111.008Z" fill="white"/>
<path d="M78.2083 111.008C80.9985 111.008 83.2604 108.736 83.2604 105.933C83.2604 103.13 80.9985 100.858 78.2083 100.858C75.4181 100.858 73.1562 103.13 73.1562 105.933C73.1562 108.736 75.4181 111.008 78.2083 111.008Z" fill="white"/>
<path d="M116.065 116.369C121.842 116.369 126.525 111.665 126.525 105.862C126.525 100.058 121.842 95.354 116.065 95.354C110.289 95.354 105.605 100.058 105.605 105.862C105.605 111.665 110.289 116.369 116.065 116.369Z" fill="white"/>
<path d="M122.398 134.311L119.268 128.592C116.208 129.164 112.935 129.164 109.804 128.592L106.673 134.311L96.8535 129.736L99.2016 123.589C97.8497 122.517 96.64 121.23 95.5015 119.872L89.3821 122.231L84.8281 112.366L90.5206 109.221C90.236 107.649 90.0937 106.076 90.0937 104.504C90.0937 102.931 90.236 101.287 90.5206 99.7858L84.8281 96.6407L89.4533 86.7049L95.5727 89.0638C96.64 87.7057 97.9208 86.4905 99.2728 85.3468L96.9246 79.1995L106.744 74.6248L109.875 80.3432C112.935 79.7713 116.208 79.7713 119.339 80.3432L122.47 74.6248L132.289 79.1995L129.941 85.3468C131.293 86.419 132.503 87.7057 133.641 89.0638L139.76 86.7049L144.314 96.5692L138.622 99.7143C138.907 101.287 139.049 102.859 139.049 104.432C139.049 106.005 138.907 107.649 138.622 109.15L144.314 112.295L139.76 122.159L133.641 119.8C132.574 121.158 131.293 122.374 129.941 123.517L132.289 129.665L122.398 134.311ZM120.335 126.234L123.323 131.595L129.656 128.592L127.451 122.802L128.091 122.302C129.727 121.015 131.222 119.586 132.431 117.942L132.93 117.299L138.693 119.514L141.682 113.153L136.345 110.15L136.487 109.364C136.843 107.72 137.057 106.005 137.057 104.361C137.057 102.717 136.843 100.93 136.487 99.3569L136.345 98.5707L141.682 95.5685L138.693 89.2067L132.93 91.4226L132.431 90.7793C131.151 89.1353 129.727 87.6342 128.091 86.419L127.451 85.9186L129.656 80.2717L123.323 77.2695L120.335 82.6306L119.552 82.4876C116.279 81.7013 112.792 81.7013 109.519 82.4876L108.737 82.6306L105.748 77.2695L99.4862 80.2717L101.692 86.0616L101.052 86.562C99.4151 87.8486 97.9208 89.2782 96.7112 90.9223L96.2131 91.4941L90.4494 89.2782L87.4609 95.64L92.7976 98.6421L92.6553 99.4284C92.2995 101.072 92.086 102.788 92.086 104.432C92.086 106.076 92.2995 107.863 92.6553 109.436L92.7976 110.222L87.4609 113.224L90.4494 119.586L96.2131 117.37L96.7112 118.013C97.992 119.657 99.4151 121.158 101.052 122.374L101.692 122.874L99.4862 128.664L105.819 131.666L108.808 126.305L109.59 126.448C112.864 127.234 116.35 127.234 119.623 126.448L120.335 126.234Z" fill="#1D1655"/>
<path d="M114.572 117.799C107.243 117.799 101.266 111.794 101.266 104.432C101.266 97.0695 107.243 91.0652 114.572 91.0652C121.901 91.0652 127.878 97.0695 127.878 104.432C127.878 111.794 121.901 117.799 114.572 117.799ZM114.572 93.1381C108.381 93.1381 103.329 98.2132 103.329 104.432C103.329 110.651 108.381 115.726 114.572 115.726C120.762 115.726 125.814 110.651 125.814 104.432C125.814 98.2132 120.762 93.1381 114.572 93.1381Z" fill="#1D1655"/>
<path d="M157.191 126.591H148.368L147.941 120.658C146.589 120.229 145.237 119.657 144.027 118.942L145.095 117.155C146.375 117.942 147.727 118.514 149.151 118.871L149.862 119.085L150.289 124.589H155.27L155.626 119.085L156.337 118.871C157.76 118.514 159.112 117.942 160.393 117.155L161.034 116.798L165.161 120.444L168.647 116.941L165.018 112.795L165.374 112.152C166.157 110.865 166.726 109.507 167.082 108.077L167.295 107.363L172.774 107.005V102.002L167.295 101.644L167.082 100.929C166.726 99.4998 166.157 98.1417 165.374 96.855L165.018 96.2117L168.647 92.0659L165.161 88.5633L161.034 92.2088L160.393 91.8514C159.112 91.0651 157.76 90.4933 156.337 90.1359L155.626 89.9214L155.27 84.4175H150.289L149.933 89.9214L149.222 90.1359C147.799 90.4933 146.447 91.0651 145.166 91.8514L144.099 90.0644C145.308 89.3496 146.66 88.7063 148.012 88.3489L148.439 82.416H157.262L157.689 88.3489C158.828 88.7063 159.895 89.1352 160.962 89.707L165.445 85.7756L171.636 91.9944L167.722 96.4976C168.292 97.5698 168.718 98.642 169.074 99.7857L174.98 100.215V108.864L169.074 109.293C168.718 110.436 168.292 111.509 167.722 112.581L171.636 117.084L165.445 123.303L160.962 119.371C159.895 119.943 158.828 120.372 157.689 120.729L157.191 126.591Z" fill="#1D1655"/>
<path d="M152.78 112.295C148.44 112.295 144.953 108.792 144.953 104.432C144.953 100.072 148.44 96.5691 152.78 96.5691C157.121 96.5691 160.607 100.072 160.607 104.432C160.607 108.792 157.121 112.295 152.78 112.295ZM152.78 98.642C149.578 98.642 147.017 101.287 147.017 104.432C147.017 107.577 149.649 110.222 152.78 110.222C155.911 110.222 158.544 107.577 158.544 104.432C158.544 101.287 155.982 98.642 152.78 98.642Z" fill="#1D1655"/>
<path d="M80.7005 126.591H71.8771L71.4502 120.658C70.3117 120.301 69.2444 119.872 68.177 119.3L63.6942 123.231L57.5036 117.013L61.4172 112.509C60.848 111.437 60.421 110.365 60.0653 109.221L54.2305 108.864V100L60.1364 99.5714C60.4922 98.4277 60.9191 97.3555 61.4884 96.2833L57.5748 91.78L63.7654 85.5612L68.2482 89.4927C69.3155 88.9208 70.3829 88.4919 71.5214 88.1345L71.9483 82.2017H80.7716L81.1986 88.1345C82.5505 88.5634 83.9025 89.1353 85.1121 89.8501L83.9736 91.7085C82.6928 90.9223 81.3409 90.3504 79.9177 89.993L79.2062 89.7786L78.8504 84.2746H73.8695L73.4426 89.8501L72.731 90.0645C71.3079 90.4219 69.9559 90.9937 68.6751 91.78L68.0347 92.1374L63.9077 88.4919L60.421 91.9945L64.05 96.1403L63.6942 96.7836C62.9115 98.0703 62.3422 99.4284 61.9865 100.858L61.773 101.573L56.294 101.93V106.934L61.773 107.291L61.9865 108.006C62.3422 109.436 62.9115 110.794 63.6942 112.08L64.05 112.724L60.421 116.87L63.9077 120.372L68.0347 116.727L68.6751 117.084C69.9559 117.87 71.3079 118.442 72.731 118.8L73.4426 119.014L73.7983 124.518H78.7793L79.135 119.014L79.8466 118.8C81.2697 118.442 82.6217 117.87 83.9025 117.084L84.9698 118.871C83.7602 119.586 82.4082 120.229 81.0562 120.587L80.7005 126.591Z" fill="#1D1655"/>
<path d="M76.2881 112.295C71.9476 112.295 68.4609 108.792 68.4609 104.432C68.4609 100.072 71.9476 96.5691 76.2881 96.5691C80.6286 96.5691 84.1152 100.072 84.1152 104.432C84.1152 108.792 80.6286 112.295 76.2881 112.295ZM76.2881 98.642C73.0861 98.642 70.5245 101.287 70.5245 104.432C70.5245 107.577 73.0861 110.293 76.2881 110.293C79.4901 110.293 82.0517 107.649 82.0517 104.503C82.0517 101.358 79.4901 98.642 76.2881 98.642Z" fill="#1D1655"/>
<path d="M80.2764 76.5547L78.7109 75.2681C82.9091 70.05 88.3881 65.6897 94.3652 62.759C100.698 59.6854 107.458 58.1128 114.574 58.1128C128.378 58.1128 141.328 64.2601 150.151 74.9821L148.586 76.2688C140.19 66.0471 127.737 60.1857 114.574 60.1857C101.196 60.1857 88.7439 66.1186 80.2764 76.5547Z" fill="#1D1655"/>
<path d="M78.2109 77.2696L78.7802 67.7627L80.8437 67.9057L80.3456 75.0537L87.4612 74.6248L87.6035 76.6977L78.2109 77.2696Z" fill="#1D1655"/>
<path d="M114.57 150.823C100.766 150.823 87.8155 144.675 78.9922 133.953L80.5576 132.667C88.954 142.888 101.335 148.75 114.57 148.75C127.947 148.75 140.4 142.745 148.796 132.309L150.362 133.596C146.163 138.814 140.684 143.174 134.707 146.105C128.446 149.25 121.615 150.823 114.57 150.823Z" fill="#1D1655"/>
<path d="M150.362 141.101L148.299 140.958L148.726 133.81L141.61 134.311L141.539 132.238L150.932 131.666L150.362 141.101Z" fill="#1D1655"/>
</g>
<defs>
<clipPath id="clip0_223_5">
<rect width="120.68" height="92.71" fill="white" transform="translate(54.2305 58.1128)"/>
</clipPath>
</defs>
</svg>
