<svg width="155" height="156" viewBox="0 0 155 156" fill="none" xmlns="http://www.w3.org/2000/svg">
<path d="M111.435 12.3259C126.813 20.2178 142.175 29.9901 149.463 45.619C156.776 61.3044 156.538 79.9875 150.553 96.222C145.04 111.174 130.608 119.821 118.339 130.036C106.718 139.712 95.9419 150.89 81.1272 154.027C65.3835 157.361 47.4833 157.194 34.4391 147.801C21.7879 138.691 21.0939 120.925 15.1743 106.536C9.55492 92.8771 -3.11826 80.0707 0.707559 65.8095C4.5212 51.5938 23.2675 48.3804 33.5974 37.8621C44.8856 26.3681 48.4081 6.65786 63.7398 1.62794C79.6066 -3.57749 96.5843 4.70506 111.435 12.3259Z" fill="#2FBC88"/>
<g clip-path="url(#clip0_719_111)">
<path d="M101.183 82.2059C103.085 82.2059 104.628 80.6506 104.628 78.7321C104.628 76.8136 103.085 75.2583 101.183 75.2583C99.2805 75.2583 97.7383 76.8136 97.7383 78.7321C97.7383 80.6506 99.2805 82.2059 101.183 82.2059Z" fill="white"/>
<path d="M49.3197 82.2059C51.2221 82.2059 52.7643 80.6506 52.7643 78.7321C52.7643 76.8136 51.2221 75.2583 49.3197 75.2583C47.4172 75.2583 45.875 76.8136 45.875 78.7321C45.875 80.6506 47.4172 82.2059 49.3197 82.2059Z" fill="white"/>
<path d="M75.128 85.8752C79.0669 85.8752 82.26 82.6551 82.26 78.683C82.26 74.7108 79.0669 71.4907 75.128 71.4907C71.1892 71.4907 67.9961 74.7108 67.9961 78.683C67.9961 82.6551 71.1892 85.8752 75.128 85.8752Z" fill="white"/>
<path d="M79.4488 98.1561L77.314 94.242C75.2278 94.6334 72.9961 94.6334 70.8613 94.242L68.7266 98.1561L62.0313 95.0248L63.6324 90.8171C62.7106 90.0832 61.8858 89.2025 61.1095 88.2729L56.9371 89.8875L53.832 83.1356L57.7134 80.9828C57.5193 79.9064 57.4223 78.83 57.4223 77.7536C57.4223 76.6772 57.5193 75.5519 57.7134 74.5245L53.832 72.3717L56.9856 65.5709L61.158 67.1855C61.8858 66.2558 62.7591 65.4241 63.6809 64.6413L62.0798 60.4336L68.7751 57.3022L70.9099 61.2164C72.9961 60.825 75.2278 60.825 77.3626 61.2164L79.4973 57.3022L86.1926 60.4336L84.5915 64.6413C85.5133 65.3752 86.3381 66.2558 87.1144 67.1855L91.2868 65.5709L94.3919 72.3228L90.5105 74.4755C90.7046 75.5519 90.8016 76.6283 90.8016 77.7047C90.8016 78.7811 90.7046 79.9064 90.5105 80.9339L94.3919 83.0867L91.2868 89.8385L87.1144 88.224C86.3866 89.1536 85.5133 89.9853 84.5915 90.7682L86.1926 94.9759L79.4488 98.1561ZM78.0418 92.6274L80.0795 96.2969L84.3975 94.242L82.8934 90.2789L83.3301 89.9364C84.446 89.0557 85.4648 88.0772 86.2896 86.9519L86.6292 86.5115L90.559 88.0283L92.5967 83.6738L88.958 81.6189L89.055 81.0807C89.2976 79.9553 89.4432 78.7811 89.4432 77.6558C89.4432 76.5305 89.2976 75.3073 89.055 74.2309L88.958 73.6927L92.5967 71.6378L90.559 67.2833L86.6292 68.8L86.2896 68.3597C85.4163 67.2344 84.446 66.2069 83.3301 65.3752L82.8934 65.0327L84.3975 61.1675L80.0795 59.1125L78.0418 62.782L77.5081 62.6842C75.2763 62.146 72.899 62.146 70.6673 62.6842L70.1336 62.782L68.0959 59.1125L63.8264 61.1675L65.3304 65.1305L64.8938 65.473C63.7779 66.3537 62.7591 67.3322 61.9343 68.4576L61.5947 68.849L57.6648 67.3322L55.6271 71.6867L59.2659 73.7416L59.1689 74.2798C58.9263 75.4051 58.7807 76.5794 58.7807 77.7047C58.7807 78.83 58.9263 80.0532 59.1689 81.1296L59.2659 81.6678L55.6271 83.7227L57.6648 88.0772L61.5947 86.5605L61.9343 87.0008C62.8076 88.1261 63.7779 89.1536 64.8938 89.9853L65.3304 90.3278L63.8264 94.2909L68.1444 96.3458L70.1821 92.6763L70.7158 92.7742C72.9475 93.3123 75.3249 93.3123 77.5566 92.7742L78.0418 92.6274Z" fill="#19164C"/>
<path d="M74.1117 86.8538C69.1145 86.8538 65.0391 82.7439 65.0391 77.7045C65.0391 72.665 69.1145 68.5552 74.1117 68.5552C79.1089 68.5552 83.1842 72.665 83.1842 77.7045C83.1842 82.7439 79.1089 86.8538 74.1117 86.8538ZM74.1117 69.9741C69.8907 69.9741 66.446 73.4479 66.446 77.7045C66.446 81.9611 69.8907 85.4349 74.1117 85.4349C78.3326 85.4349 81.7773 81.9611 81.7773 77.7045C81.7773 73.4479 78.3326 69.9741 74.1117 69.9741Z" fill="#19164C"/>
<path d="M103.171 92.872H97.1548L96.8637 88.8111C95.9419 88.5175 95.0201 88.1261 94.1953 87.6368L94.9231 86.4137C95.7964 86.9519 96.7182 87.3433 97.6885 87.5879L98.1737 87.7347L98.4648 91.5021H101.861L102.104 87.7347L102.589 87.5879C103.559 87.3433 104.481 86.9519 105.354 86.4137L105.791 86.169L108.605 88.6643L110.982 86.2669L108.508 83.4291L108.75 82.9888C109.284 82.1081 109.672 81.1785 109.915 80.2L110.06 79.7107L113.796 79.4661V76.0412L110.06 75.7966L109.915 75.3073C109.672 74.3288 109.284 73.3991 108.75 72.5185L108.508 72.0781L110.982 69.2404L108.605 66.843L105.791 69.3382L105.354 69.0936C104.481 68.5554 103.559 68.164 102.589 67.9193L102.104 67.7726L101.861 64.0052H98.4648L98.2222 67.7726L97.737 67.9193C96.7667 68.164 95.8449 68.5554 94.9716 69.0936L94.2438 67.8704C95.0686 67.3812 95.9904 66.9408 96.9122 66.6962L97.2033 62.6353H103.219L103.51 66.6962C104.287 66.9408 105.015 67.2344 105.742 67.6258L108.799 64.9348L113.02 69.1914L110.351 72.2738C110.739 73.0077 111.031 73.7416 111.273 74.5245L115.3 74.818V80.7382L111.273 81.0317C111.031 81.8145 110.739 82.5484 110.351 83.2824L113.02 86.3647L108.799 90.6214L105.742 87.9304C105.015 88.3218 104.287 88.6154 103.51 88.86L103.171 92.872Z" fill="#19164C"/>
<path d="M100.161 83.0866C97.2015 83.0866 94.8242 80.6892 94.8242 77.7047C94.8242 74.7202 97.2015 72.3228 100.161 72.3228C103.121 72.3228 105.498 74.7202 105.498 77.7047C105.498 80.6892 103.121 83.0866 100.161 83.0866ZM100.161 73.7416C97.9778 73.7416 96.2312 75.5519 96.2312 77.7047C96.2312 79.8575 98.0263 81.6678 100.161 81.6678C102.296 81.6678 104.091 79.8575 104.091 77.7047C104.091 75.5519 102.344 73.7416 100.161 73.7416Z" fill="#19164C"/>
<path d="M51.0169 92.8718H45.0009L44.7098 88.8109C43.9335 88.5663 43.2057 88.2727 42.478 87.8813L39.4214 90.5722L35.2005 86.3156L37.8689 83.2332C37.4808 82.4993 37.1897 81.7654 36.9471 80.9826L32.9688 80.738V74.671L36.9956 74.3775C37.2382 73.5947 37.5293 72.8608 37.9174 72.1269L35.249 69.0445L39.47 64.7878L42.5265 67.4788C43.2543 67.0874 43.982 66.7938 44.7583 66.5492L45.0494 62.4883H51.0654L51.3565 66.5492C52.2783 66.8428 53.2001 67.2342 54.0249 67.7234L53.2487 68.9955C52.3754 68.4573 51.4536 68.0659 50.4832 67.8213L49.9981 67.6745L49.7555 63.9072H46.3593L46.0682 67.7234L45.583 67.8702C44.6127 68.1149 43.6909 68.5063 42.8176 69.0445L42.381 69.2891L39.567 66.7938L37.1897 69.1912L39.664 72.029L39.4214 72.4693C38.8878 73.35 38.4996 74.2796 38.2571 75.2582L38.1115 75.7474L34.3757 75.9921V79.4169L38.1115 79.6616L38.2571 80.1508C38.4996 81.1294 38.8878 82.059 39.4214 82.9397L39.664 83.38L37.1897 86.2178L39.567 88.6152L42.381 86.1199L42.8176 86.3645C43.6909 86.9027 44.6127 87.2942 45.583 87.5388L46.0682 87.6856L46.3108 91.4529H49.707L49.9495 87.6856L50.4347 87.5388C51.405 87.2942 52.3268 86.9027 53.2001 86.3645L53.9279 87.5877C53.1031 88.077 52.1813 88.5173 51.2595 88.762L51.0169 92.8718Z" fill="#19164C"/>
<path d="M48.0087 83.0866C45.0492 83.0866 42.6719 80.6892 42.6719 77.7047C42.6719 74.7202 45.0492 72.3228 48.0087 72.3228C50.9682 72.3228 53.3455 74.7202 53.3455 77.7047C53.3455 80.6892 50.9682 83.0866 48.0087 83.0866ZM48.0087 73.7416C45.8254 73.7416 44.0789 75.5519 44.0789 77.7047C44.0789 79.8575 45.8254 81.7167 48.0087 81.7167C50.1919 81.7167 51.9385 79.9064 51.9385 77.7536C51.9385 75.6008 50.1919 73.7416 48.0087 73.7416Z" fill="#19164C"/>
<path d="M50.7275 58.6231L49.6602 57.7424C52.5226 54.1708 56.2584 51.1862 60.3338 49.1802C64.6518 47.0764 69.2608 46 74.1125 46C83.5247 46 92.3547 50.2077 98.3708 57.5467L97.3034 58.4274C91.5784 51.4309 83.0881 47.4189 74.1125 47.4189C64.9914 47.4189 56.501 51.4798 50.7275 58.6231Z" fill="#19164C"/>
<path d="M49.3203 59.1122L49.7084 52.605L51.1154 52.7028L50.7758 57.5955L55.6275 57.302L55.7245 58.7208L49.3203 59.1122Z" fill="#19164C"/>
<path d="M74.1098 109.458C64.6976 109.458 55.8676 105.25 49.8516 97.9114L50.9189 97.0308C56.6439 104.027 65.0858 108.039 74.1098 108.039C83.2309 108.039 91.7213 103.929 97.4463 96.7861L98.5136 97.6668C95.6512 101.238 91.9154 104.223 87.84 106.229C83.5706 108.382 78.913 109.458 74.1098 109.458Z" fill="#19164C"/>
<path d="M98.5121 102.804L97.1052 102.706L97.3963 97.8135L92.5446 98.156L92.4961 96.7371L98.9003 96.3457L98.5121 102.804Z" fill="#19164C"/>
</g>
<defs>
<clipPath id="clip0_719_111">
<rect width="82.284" height="63.458" fill="white" transform="translate(32.9688 46)"/>
</clipPath>
</defs>
</svg>
