<svg width="139" height="127" viewBox="0 0 139 127" fill="none" xmlns="http://www.w3.org/2000/svg">
<g clip-path="url(#clip0_561_829)">
<g clip-path="url(#clip1_561_829)">
<path fill-rule="evenodd" clip-rule="evenodd" d="M18.4026 0.810547H64.5974C67.8856 0.814271 71.0381 2.129 73.3633 4.46629C75.6884 6.80359 76.9963 9.97257 77 13.278V111.329C77 114.637 75.6937 117.809 73.3682 120.15C71.0427 122.49 67.8881 123.807 64.5974 123.811H18.4026C15.1119 123.807 11.9573 122.49 9.63179 120.15C7.30625 117.809 6 114.637 6 111.329V13.278C6 9.97142 7.3067 6.80028 9.63264 4.46218C11.9586 2.12408 15.1132 0.810547 18.4026 0.810547V0.810547Z" fill="#19164C"/>
<path fill-rule="evenodd" clip-rule="evenodd" d="M8.96712 15.1913H74.0178V12.8554C74.0223 11.6113 73.7767 10.3792 73.2955 9.233C72.8144 8.08681 72.1078 7.05019 71.2181 6.18543C70.3507 5.30062 69.3181 4.59657 68.1795 4.11364C67.0409 3.6307 65.8186 3.37837 64.5829 3.37111H18.3881C17.1508 3.36896 15.9258 3.61702 14.7859 4.1005C13.646 4.58399 12.6145 5.29303 11.7528 6.18543C10.8701 7.05552 10.1681 8.09316 9.68749 9.23815C9.20689 10.3831 8.95727 11.6127 8.95312 12.8554L8.96712 15.1913Z" fill="white"/>
<path fill-rule="evenodd" clip-rule="evenodd" d="M11.2109 15.192H74.0219V13.1938C74.0116 12.1034 73.7645 11.0284 73.2979 10.0441C72.8312 9.05966 72.1562 8.18964 71.3202 7.49483C69.555 5.91268 67.2738 5.03647 64.9089 5.0323H20.3239C17.9565 5.02316 15.6707 5.90113 13.9126 7.49483C13.0802 8.19277 12.4077 9.06344 11.9414 10.0471C11.475 11.0308 11.2259 12.1043 11.2109 13.1938V15.192Z" fill="#82CBAD"/>
<path d="M40.5454 11.5329C41.6664 11.5329 42.5752 10.6194 42.5752 9.49253C42.5752 8.36566 41.6664 7.45215 40.5454 7.45215C39.4244 7.45215 38.5156 8.36566 38.5156 9.49253C38.5156 10.6194 39.4244 11.5329 40.5454 11.5329Z" fill="#19164C"/>
<path fill-rule="evenodd" clip-rule="evenodd" d="M34.684 115.494C34.2868 115.526 33.8933 115.398 33.5901 115.138C33.2869 114.878 33.0988 114.508 33.0672 114.108C33.0357 113.709 33.1632 113.313 33.4218 113.009C33.6804 112.704 34.0488 112.515 34.4461 112.483C34.5248 112.469 34.6053 112.469 34.684 112.483H48.3045C48.5033 112.494 48.6979 112.544 48.8768 112.632C49.0557 112.72 49.2152 112.843 49.3458 112.994C49.4764 113.145 49.5754 113.321 49.637 113.511C49.6986 113.701 49.7215 113.902 49.7043 114.101C49.6812 114.467 49.5263 114.812 49.2687 115.071C49.011 115.33 48.6682 115.485 48.3045 115.509L34.684 115.494Z" fill="#19164C"/>
<path fill-rule="evenodd" clip-rule="evenodd" d="M39.6614 97.1303V105.067H45.9V97.1162H66.7868V105.067H74.0194V19.0469H13.2422V105.081H20.4878V97.1303H39.6614Z" fill="#82CBAD"/>
<path fill-rule="evenodd" clip-rule="evenodd" d="M16.8047 27.5469H69.0748V85.4797H16.8047V27.5469Z" fill="#19164C"/>
<path fill-rule="evenodd" clip-rule="evenodd" d="M40.9946 36.1303H46.104V46.0648C46.1192 47.022 45.9676 47.9745 45.6561 48.8792C45.3611 49.7371 44.8834 50.5198 44.2562 51.1728C43.688 51.7894 42.9897 52.2702 42.2125 52.58C41.0607 52.9788 39.8466 53.1648 38.6289 53.1288C37.7429 53.0946 36.8596 53.01 35.9832 52.8755C35.1516 52.7958 34.3409 52.567 33.5894 52.2001C32.9208 51.8496 32.3265 51.3717 31.8396 50.7929C31.3374 50.2431 30.9601 49.5901 30.7338 48.8792C30.4445 47.9682 30.2843 47.0208 30.2578 46.0648V36.1162H35.3952V46.2759C35.3647 46.6647 35.415 47.0555 35.5427 47.4237C35.6704 47.7919 35.8728 48.1294 36.1372 48.4148C36.72 48.9227 37.4655 49.2023 38.2369 49.2023C39.0083 49.2023 39.7538 48.9227 40.3367 48.4148C40.8266 47.8162 41.0629 47.048 40.9946 46.2759V36.1303Z" fill="white"/>
<path fill-rule="evenodd" clip-rule="evenodd" d="M49.7344 36.1162H54.8858V52.8051H49.7344V36.1162Z" fill="white"/>
<path fill-rule="evenodd" clip-rule="evenodd" d="M36.0584 60.4463H40.9998V70.0994C41.013 71.0289 40.8613 71.9533 40.5519 72.8293C40.2603 73.6599 39.7811 74.4113 39.152 75.0245C38.6021 75.6367 37.923 76.1175 37.1643 76.4316C36.0424 76.8132 34.8627 76.9942 33.6787 76.9664C32.8501 76.962 32.0225 76.9056 31.2009 76.7975C30.3965 76.7249 29.6129 76.5006 28.8912 76.1361C28.2346 75.7857 27.6541 75.3073 27.1834 74.729C26.7081 74.1987 26.346 73.5761 26.1195 72.8997C25.8104 72.0067 25.6358 71.0724 25.6016 70.1276V60.4463H30.557V70.2964C30.5344 70.6726 30.5871 71.0496 30.7122 71.4049C30.8372 71.7603 31.032 72.0867 31.2849 72.3649C31.5545 72.6223 31.8737 72.8213 32.2228 72.9495C32.572 73.0778 32.9436 73.1327 33.3147 73.1107C33.6919 73.1462 34.0724 73.102 34.4316 72.9808C34.7908 72.8596 35.1209 72.6642 35.4005 72.4072C35.6552 72.1273 35.8509 71.7985 35.976 71.4406C36.1011 71.0827 36.1529 70.7031 36.1284 70.3246V60.4744L36.0584 60.4463Z" fill="white"/>
<path fill-rule="evenodd" clip-rule="evenodd" d="M43.2087 60.4463H48.6961L51.5518 65.4417L54.3234 60.4463H59.7408L54.7294 68.2982L60.2168 76.6427H54.6034L51.4538 71.4362L48.2621 76.6427H42.7188L48.2761 68.1997L43.2087 60.4463Z" fill="white"/>
<path d="M11.5305 19.0469H8.96875V105.081H11.5305V19.0469Z" fill="white"/>
<path fill-rule="evenodd" clip-rule="evenodd" d="M34.6829 115.396C34.4835 115.415 34.2823 115.394 34.0914 115.333C33.9005 115.272 33.7238 115.172 33.5721 115.041C33.4204 114.909 33.2967 114.748 33.2085 114.568C33.1204 114.387 33.0696 114.19 33.0591 113.989C33.0439 113.789 33.068 113.588 33.1302 113.398C33.1924 113.208 33.2914 113.032 33.4214 112.88C33.5515 112.728 33.7102 112.604 33.8882 112.514C34.0663 112.424 34.2602 112.371 34.459 112.356H48.3174C48.6915 112.393 49.0387 112.568 49.2913 112.847C49.544 113.127 49.6839 113.491 49.6839 113.869C49.6839 114.247 49.544 114.611 49.2913 114.891C49.0387 115.17 48.6915 115.346 48.3174 115.382L34.6829 115.396Z" fill="#19164C"/>
<path fill-rule="evenodd" clip-rule="evenodd" d="M67.077 108.937H8.9695V111.272C8.93922 113.729 9.82291 116.107 11.4472 117.942C12.1815 118.808 13.0904 119.506 14.1137 119.991C15.137 120.477 16.2513 120.737 17.3826 120.757H58.6359C59.7691 120.748 60.8869 120.492 61.9118 120.006C62.9368 119.521 63.8442 118.816 64.5712 117.942C66.1925 116.104 67.08 113.729 67.063 111.272V108.937H67.077Z" fill="white"/>
<path fill-rule="evenodd" clip-rule="evenodd" d="M74.0221 108.937H11.2112V111.272C11.193 113.766 12.1596 116.165 13.8989 117.942C14.7241 118.821 15.7173 119.523 16.819 120.007C17.9206 120.49 19.1081 120.745 20.3102 120.757H64.9231C66.1265 120.754 67.3165 120.502 68.4193 120.018C69.5221 119.534 70.5143 118.828 71.3344 117.942C73.0634 116.157 74.0325 113.764 74.0361 111.272V108.937H74.0221Z" fill="#82CBAD"/>
</g>
</g>
<defs>
<clipPath id="clip0_561_829">
<rect width="139" height="125.699" fill="white" transform="translate(0 0.810547)"/>
</clipPath>
<clipPath id="clip1_561_829">
<rect width="71" height="123" fill="white" transform="translate(6 0.810547)"/>
</clipPath>
</defs>
</svg>
