<svg width="142" height="122" viewBox="0 0 142 122" fill="none" xmlns="http://www.w3.org/2000/svg">
<g clip-path="url(#clip0_561_1065)">
<path d="M130.938 95.2438H10.9841C4.88184 95.2438 0 90.2748 0 84.2597V11.032C0 4.9297 4.88184 0.0478516 10.9841 0.0478516H130.938C136.953 0.0478516 141.922 4.9297 141.922 11.032V84.2597C141.835 90.2748 136.953 95.2438 130.938 95.2438ZM10.9841 1.79137C5.84078 1.79137 1.74352 5.88863 1.74352 11.032V84.2597C1.74352 89.3159 5.84078 93.5003 10.9841 93.5003H130.938C135.994 93.5003 140.179 89.403 140.179 84.2597V11.032C140.092 5.88863 135.994 1.79137 130.938 1.79137H10.9841Z" fill="#1D1655"/>
<path d="M130.94 11.2061H11.9453V83.8235H130.94V11.2061Z" fill="#82CBAD"/>
<path d="M131.809 84.6954H11.0703V10.3345H131.809V84.6954ZM12.8138 82.9519H130.065V12.078H12.8138V82.9519Z" fill="#1D1655"/>
<path d="M56.406 94.3721H54.2266V109.018H56.406V94.3721Z" fill="#1D1655"/>
<path d="M87.6169 94.3721H85.4375V109.018H87.6169V94.3721Z" fill="#1D1655"/>
<path d="M104.435 121.048H37.4844V108.146H104.435V121.048ZM39.2279 119.304H102.692V109.89H39.2279V119.304Z" fill="#1D1655"/>
<path d="M101.041 66.8242C111.729 66.8242 120.394 58.1596 120.394 47.4712C120.394 36.7828 111.729 28.1182 101.041 28.1182C90.3521 28.1182 81.6875 36.7828 81.6875 47.4712C81.6875 58.1596 90.3521 66.8242 101.041 66.8242Z" fill="white"/>
<path d="M101.037 67.6961C89.8788 67.6961 80.8125 58.6299 80.8125 47.4714C80.8125 36.3129 89.8788 27.2466 101.037 27.2466C112.196 27.2466 121.262 36.3129 121.262 47.4714C121.262 58.6299 112.196 67.6961 101.037 67.6961ZM101.037 29.0773C90.8377 29.0773 82.556 37.359 82.556 47.5585C82.556 57.7581 90.8377 66.0398 101.037 66.0398C111.237 66.0398 119.519 57.7581 119.519 47.5585C119.519 37.359 111.237 29.0773 101.037 29.0773Z" fill="#19164C"/>
<path d="M105.567 49.215C106.177 50.4354 106.177 51.7431 106.177 52.1789C106.177 52.5276 106.177 53.3994 105.829 54.4455C105.654 54.9686 105.306 55.4044 104.87 55.8403C104.434 56.2762 103.824 56.6249 103.126 56.8864C103.126 56.9736 103.039 56.9736 102.952 56.9736C102.603 56.9736 102.342 56.7121 102.254 56.4505C102.167 56.0147 102.342 55.5788 102.778 55.4916C104.172 55.0557 104.87 54.0096 104.87 52.2661C104.87 49.6508 103.562 48.3432 101.034 48.3432C99.9007 48.3432 98.9418 48.1688 98.1572 47.6458C97.4598 47.2971 96.9367 46.6869 96.588 45.9895C96.3265 45.4664 96.1522 44.8562 95.9778 44.1588C95.8906 43.6357 95.8906 43.1998 95.8906 43.0255C95.8906 42.6768 95.8906 41.8922 96.2393 40.9333C96.4137 40.4102 96.6752 39.8871 97.0239 39.4513C97.4598 39.0154 97.9828 38.5795 98.5931 38.318C98.9418 38.1436 99.3777 38.318 99.4648 38.6667C99.552 39.1026 99.4648 39.5384 99.1161 39.6256C97.6341 40.323 97.3726 41.805 97.3726 42.9383C97.3726 44.6818 98.07 46.6869 101.121 46.6869C102.254 46.6869 103.301 46.9484 104.085 47.4714C104.608 47.9073 105.131 48.5175 105.567 49.215ZM101.731 56.4505C101.731 56.5377 101.731 56.5377 101.644 56.6249V58.8915C101.644 59.2402 101.383 59.5889 100.947 59.5889C100.598 59.5889 100.337 59.2402 100.337 58.8915V57.0608C98.1572 56.8864 97.0239 55.666 96.5009 54.6199C95.8906 53.3994 95.8906 52.1789 95.8906 52.0918V52.0046C95.8906 51.6559 96.2393 51.3072 96.5009 51.3072C96.9367 51.3072 97.1983 51.6559 97.1983 52.0046C97.1983 52.0918 97.1983 52.9635 97.6341 53.8353C98.3315 54.9686 99.3777 55.5788 100.947 55.5788C101.383 55.666 101.731 56.0147 101.731 56.4505ZM100.337 38.5795V36.0514C100.337 35.7027 100.598 35.354 100.947 35.354C101.383 35.354 101.644 35.7027 101.644 36.0514V37.8821C103.824 38.0565 104.957 39.3641 105.567 40.4102C106.177 41.7178 106.177 42.9383 106.177 43.0255C106.177 43.0255 106.177 43.0255 106.177 43.1127C106.177 43.5485 105.916 43.8101 105.567 43.8101C105.131 43.8101 104.87 43.5485 104.87 43.1127V43.0255C104.87 43.0255 104.783 42.0665 104.347 41.1076C103.736 39.8871 102.603 39.2769 101.034 39.2769C100.947 39.2769 100.947 39.2769 100.947 39.2769H100.86C100.772 39.2769 100.772 39.2769 100.772 39.2769C100.511 39.1897 100.337 38.9282 100.337 38.5795Z" fill="#19164C"/>
<path d="M36.6076 29.0774H24.1415C23.7928 29.0774 23.5312 28.8159 23.5312 28.4672C23.5312 28.1185 23.7928 27.8569 24.1415 27.8569H36.6076C36.9563 27.8569 37.2178 28.1185 37.2178 28.4672C37.1307 28.8159 36.8691 29.0774 36.6076 29.0774Z" fill="#19164C"/>
<path d="M33.4745 32.9128H25.9774C25.6287 32.9128 25.3672 32.6513 25.3672 32.3026C25.3672 31.9539 25.6287 31.6924 25.9774 31.6924H33.4745C33.8232 31.6924 34.0848 31.9539 34.0848 32.3026C34.0848 32.6513 33.8232 32.9128 33.4745 32.9128Z" fill="#19164C"/>
<path d="M65.119 32.9128H55.704C55.3553 32.9128 55.0938 32.6513 55.0938 32.3026C55.0938 31.9539 55.3553 31.6924 55.704 31.6924H65.119C65.4677 31.6924 65.7292 31.9539 65.7292 32.3026C65.7292 32.6513 65.4677 32.9128 65.119 32.9128Z" fill="#19164C"/>
<path d="M63.9821 66.563H52.6493C52.3006 66.563 52.0391 66.3014 52.0391 65.9527C52.0391 65.604 52.3006 65.4297 52.6493 65.4297H63.9821C64.3308 65.4297 64.5924 65.6912 64.5924 66.0399C64.5924 66.3886 64.3308 66.563 63.9821 66.563Z" fill="#19164C"/>
<path d="M61.8899 70.6599H52.6493C52.3006 70.6599 52.0391 70.3984 52.0391 70.0497C52.0391 69.701 52.3006 69.4395 52.6493 69.4395H61.8899C62.2386 69.4395 62.5002 69.701 62.5002 70.0497C62.5002 70.3984 62.2386 70.6599 61.8899 70.6599Z" fill="#19164C"/>
<path d="M66.3393 29.0774H57.3602C57.0115 29.0774 56.75 28.8159 56.75 28.4672C56.75 28.1185 57.0115 27.8569 57.3602 27.8569H66.3393C66.688 27.8569 66.9496 28.1185 66.9496 28.4672C66.9496 28.8159 66.688 29.0774 66.3393 29.0774Z" fill="#19164C"/>
<path d="M31.9034 42.0664H26.4113L20.5705 28.1183C20.4833 27.8567 20.5705 27.508 20.9192 27.3337C21.1807 27.2465 21.5294 27.3337 21.7038 27.6824L27.1959 40.9331H31.9034C32.2521 40.9331 32.5136 41.1946 32.5136 41.5433C32.5136 41.8049 32.2521 42.0664 31.9034 42.0664Z" fill="#19164C"/>
<path d="M49.8625 35.7896C49.7753 35.7896 49.6882 35.7896 49.601 35.7025C49.3395 35.5281 49.2523 35.1794 49.4266 34.9179L54.047 27.7695C54.2213 27.5079 54.57 27.4208 54.8315 27.5951C55.0931 27.7695 55.1802 28.1182 55.0059 28.3797L50.3856 35.5281C50.2984 35.6153 50.1241 35.7896 49.8625 35.7896Z" fill="#19164C"/>
<path d="M50.2977 70.6602C49.949 70.6602 49.6875 70.3987 49.6875 70.05V52.8763C49.6875 52.5276 49.949 52.2661 50.2977 52.2661C50.6464 52.2661 50.908 52.5276 50.908 52.8763V70.05C50.908 70.3987 50.6464 70.6602 50.2977 70.6602Z" fill="#19164C"/>
<path d="M45.1541 51.7428C45.0669 51.7428 44.8926 51.7428 44.8054 51.6556L31.8162 41.7176C31.6419 41.6304 31.5547 41.456 31.5547 41.2817C31.5547 41.1073 31.6419 40.933 31.8162 40.8458L44.8054 31.3437C44.9798 31.1693 45.3285 31.1693 45.5028 31.3437L58.6664 41.0202C58.8407 41.1073 58.9279 41.2817 58.9279 41.456C58.9279 41.6304 58.8407 41.8047 58.6664 41.8919L45.5028 51.6556C45.3285 51.7428 45.2413 51.7428 45.1541 51.7428ZM33.1239 41.2817L45.1541 50.4352L57.3587 41.456L45.1541 32.4769L33.1239 41.2817Z" fill="#19164C"/>
<path d="M45.5864 67.4345C45.4992 67.4345 45.4121 67.4345 45.3249 67.3473C45.1505 67.2602 44.9762 67.0858 44.9762 66.8243L44.4531 51.1326C44.4531 50.9583 44.5403 50.7839 44.7147 50.6096L57.9654 41.0203C58.1397 40.9331 58.4012 40.8459 58.5756 40.9331C58.75 41.0203 58.9243 41.1946 58.9243 41.4561L59.273 57.4965C59.273 57.6708 59.1858 57.8452 59.0115 58.0195L45.9351 67.3473C45.8479 67.3473 45.7608 67.4345 45.5864 67.4345ZM45.6736 51.4814L46.1095 65.7782L58.1397 57.235L57.791 42.6766L45.6736 51.4814Z" fill="#19164C"/>
<path d="M45.59 67.4347C45.5028 67.4347 45.3285 67.4347 45.2413 67.3475L31.8162 58.7171C31.6419 58.63 31.5547 58.4556 31.5547 58.1941V41.282C31.5547 41.0204 31.6419 40.8461 31.9034 40.7589C32.0777 40.6717 32.3393 40.6717 32.5136 40.8461L45.5028 50.697C45.6772 50.7841 45.7643 50.9585 45.7643 51.1328L46.2874 66.8245C46.2874 66.9988 46.2002 67.2604 46.0259 67.3475C45.7643 67.4347 45.6772 67.4347 45.59 67.4347ZM32.688 57.8454L44.9798 65.6912L44.5439 51.4815L32.688 42.5024V57.8454Z" fill="#19164C"/>
<path d="M33.6484 41.282L45.1556 32.9131L56.8372 41.4563L45.1556 50.0867L33.6484 41.282Z" fill="white"/>
<path d="M33.125 43.2866V57.6706L44.545 64.9062L44.1963 51.6555L33.125 43.2866Z" fill="white"/>
<path d="M45.9375 51.5684L57.5319 43.1123L57.8806 57.1476L46.4606 65.255L45.9375 51.5684Z" fill="white"/>
</g>
<defs>
<clipPath id="clip0_561_1065">
<rect width="141.835" height="121" fill="white" transform="translate(0 0.0478516)"/>
</clipPath>
</defs>
</svg>
