<svg width="115" height="122" viewBox="0 0 115 122" fill="none" xmlns="http://www.w3.org/2000/svg">
<g clip-path="url(#clip0_561_1223)">
<path d="M60.776 98.3941H60.6188L56.5591 98.2512C55.662 98.2151 54.8022 97.8828 54.1142 97.3064C53.4262 96.7299 52.9488 95.9417 52.7567 95.0652L51.8276 90.5648C51.7652 90.2798 51.6334 90.0147 51.4439 89.7929C51.2544 89.571 51.013 89.3994 50.7412 89.2932C49.0675 88.7306 47.45 88.0132 45.9096 87.1502C45.6525 86.9966 45.3586 86.9156 45.0591 86.9156C44.7596 86.9156 44.4657 86.9966 44.2086 87.1502L40.1918 89.2932C39.3931 89.7156 38.4766 89.8607 37.5864 89.7055C36.6962 89.5503 35.8829 89.1037 35.2745 88.436L32.5156 85.4643C31.9058 84.8016 31.5329 83.9556 31.4553 83.0586C31.3777 82.1616 31.5998 81.2642 32.0868 80.5067L34.6312 76.6635C34.8019 76.4171 34.9038 76.1297 34.9264 75.8309C34.949 75.5321 34.8915 75.2326 34.7598 74.9634C33.9751 73.3743 33.3433 71.7143 32.873 70.0058C32.7938 69.7245 32.6427 69.4686 32.4347 69.2632C32.2267 69.0578 31.9689 68.91 31.6865 68.8342L27.2838 67.5627C26.4289 67.2964 25.6856 66.7561 25.1688 66.0253C24.6521 65.2944 24.3906 64.4138 24.4249 63.5195L24.6107 59.5191C24.65 58.6213 24.9854 57.7617 25.5645 57.0743C26.1437 56.3869 26.9342 55.9103 27.8127 55.7188L32.3155 54.7901C32.6026 54.7327 32.8703 54.6028 33.093 54.4127C33.3157 54.2227 33.486 53.9788 33.5877 53.7043C34.1647 52.0254 34.9069 50.4078 35.8033 48.8753C35.9513 48.6164 36.0291 48.3234 36.0291 48.0252C36.0291 47.7271 35.9513 47.4341 35.8033 47.1751L33.5877 43.1176C33.1569 42.3281 33.0017 41.4176 33.1466 40.5301C33.2916 39.6426 33.7285 38.8287 34.3882 38.2172L37.3472 35.4884C38.0102 34.8789 38.8567 34.5062 39.7541 34.4286C40.6516 34.3511 41.5495 34.573 42.3074 35.0598L46.1526 37.6028C46.3977 37.7713 46.6836 37.8709 46.9803 37.891C47.2771 37.9111 47.5738 37.851 47.8394 37.7171C49.4603 36.947 51.1496 36.33 52.8854 35.8741C53.1658 35.7975 53.4214 35.6491 53.6269 35.4437C53.8324 35.2383 53.9809 34.9828 54.0575 34.7026L55.3441 30.3022C55.604 29.4438 56.143 28.6967 56.8758 28.1791C57.6085 27.6616 58.4931 27.4031 59.3894 27.4448L63.4348 27.6019C64.3194 27.644 65.1655 27.976 65.8424 28.5467C66.5193 29.1174 66.9894 29.895 67.18 30.7594L68.1234 35.2598C68.1804 35.5431 68.3088 35.8073 68.4964 36.0273C68.684 36.2473 68.9246 36.4158 69.1955 36.517C70.8707 37.1053 72.488 37.8466 74.0271 38.7315C74.2835 38.8795 74.5744 38.9574 74.8705 38.9574C75.1665 38.9574 75.4574 38.8795 75.7138 38.7315L79.7163 36.517C80.5113 36.094 81.4245 35.9473 82.3122 36.0999C83.1998 36.2525 84.0114 36.6958 84.6194 37.36L87.3782 40.3459C87.9892 41.0056 88.3618 41.8505 88.4369 42.7463C88.5121 43.642 88.2853 44.5371 87.7928 45.2893L85.2483 49.1467C85.0799 49.3944 84.9805 49.6825 84.9604 49.9813C84.9403 50.2801 85.0002 50.5789 85.134 50.8469C85.9042 52.4473 86.5216 54.1167 86.978 55.8331C87.0572 56.1144 87.2082 56.3703 87.4162 56.5756C87.6242 56.781 87.882 56.9289 88.1644 57.0046L92.5672 58.2761C93.4207 58.5445 94.1626 59.0853 94.6791 59.8157C95.1955 60.5461 95.4579 61.4256 95.4261 62.3194L95.2688 66.3912C95.2295 67.289 94.8942 68.1486 94.315 68.836C93.7358 69.5234 92.9454 70 92.0668 70.1915L87.564 71.1202C87.2847 71.1719 87.0229 71.2933 86.8029 71.4731C86.583 71.6529 86.4121 71.8854 86.3061 72.1488C85.7351 73.8301 84.9927 75.4483 84.0905 76.9778C83.9426 77.2368 83.8647 77.5298 83.8647 77.8279C83.8647 78.1261 83.9426 78.4191 84.0905 78.678L86.3061 82.6926C86.7245 83.4884 86.8686 84.3999 86.7161 85.2858C86.5636 86.1718 86.1231 86.9827 85.4627 87.5931L82.4609 90.3505C81.8013 90.961 80.9571 91.3346 80.0614 91.4122C79.1658 91.4899 78.2698 91.2671 77.5149 90.7791L73.6697 88.236C73.4232 88.0654 73.1356 87.9635 72.8366 87.9409C72.5376 87.9183 72.238 87.9758 71.9687 88.1074C70.3893 88.9079 68.732 89.5447 67.0227 90.0076C66.7433 90.0876 66.4895 90.2391 66.2864 90.447C66.0834 90.655 65.9381 90.9122 65.8649 91.1934L64.5784 95.5938C64.3179 96.3998 63.8107 97.1037 63.1285 97.6061C62.4463 98.1086 61.6234 98.3842 60.776 98.3941ZM45.0519 84.55C45.7441 84.5387 46.4262 84.7166 47.0246 85.0643C48.4283 85.9058 49.9128 86.6046 51.4559 87.1502C52.0969 87.39 52.6666 87.7883 53.1116 88.3081C53.5566 88.8278 53.8624 89.4519 54.0004 90.1219L54.9295 94.608C55.0209 94.985 55.2345 95.3211 55.537 95.564C55.8396 95.8069 56.214 95.943 56.602 95.951L60.6759 96.1081C61.0659 96.126 61.4505 96.0116 61.7671 95.7833C62.0838 95.555 62.3138 95.2264 62.4199 94.8509L63.6921 90.4648C63.8822 89.8054 64.2382 89.2057 64.7262 88.723C65.2142 88.2402 65.8179 87.8906 66.4795 87.7074C68.0658 87.2926 69.6075 86.7232 71.0824 86.0072C71.6985 85.7121 72.3808 85.582 73.0623 85.6296C73.7439 85.6772 74.4014 85.9008 74.9705 86.2787L78.8301 88.8218C79.1657 89.0349 79.5641 89.1271 79.9593 89.0829C80.3544 89.0387 80.7226 88.8609 81.0028 88.5789L83.9904 85.8072C84.2695 85.5428 84.4542 85.1943 84.5162 84.8149C84.5781 84.4356 84.514 84.0464 84.3335 83.707L82.1178 79.7067C81.7809 79.1093 81.6039 78.4351 81.6039 77.7493C81.6039 77.0636 81.7809 76.3894 82.1178 75.792C82.9387 74.4091 83.6233 72.9497 84.1619 71.4345C84.3983 70.7729 84.8014 70.1834 85.3323 69.7229C85.8631 69.2624 86.5038 68.9465 87.1924 68.8057L91.6952 67.877C92.087 67.8054 92.4425 67.602 92.7025 67.3005C92.9626 66.999 93.1115 66.6176 93.1246 66.2197L93.2962 62.1622C93.305 61.7727 93.1872 61.3908 92.9603 61.074C92.7335 60.7571 92.41 60.5223 92.0382 60.4049L87.6355 59.1334C86.9673 58.937 86.3616 58.5704 85.8779 58.0694C85.3942 57.5685 85.0492 56.9504 84.8767 56.276C84.4616 54.6952 83.8918 53.159 83.1756 51.6898C82.886 51.0676 82.7589 50.3821 82.8064 49.6975C82.8539 49.0129 83.0744 48.3515 83.4472 47.7752L85.9059 44.0034C86.1249 43.6815 86.2298 43.2957 86.2039 42.9073C86.178 42.5189 86.0228 42.1503 85.7629 41.8604L83.0041 38.8744C82.734 38.5898 82.3776 38.402 81.9901 38.3401C81.6025 38.2781 81.2054 38.3454 80.8599 38.5315L76.8145 40.7603C76.2168 41.097 75.5423 41.2739 74.8562 41.2739C74.17 41.2739 73.4955 41.097 72.8978 40.7603C71.4898 39.9386 70.0058 39.2544 68.4665 38.7172C67.8178 38.4793 67.2415 38.0782 66.7933 37.5526C66.345 37.027 66.04 36.3948 65.9077 35.717L64.9643 31.2165C64.8909 30.8284 64.6887 30.4763 64.3904 30.2171C64.0922 29.9579 63.7152 29.8067 63.3204 29.7878L59.2608 29.6307C58.87 29.6171 58.4857 29.733 58.1677 29.9604C57.8497 30.1878 57.6158 30.5139 57.5025 30.8879L56.2303 35.2741C56.0301 35.94 55.662 36.5433 55.1614 37.0262C54.6608 37.509 54.0444 37.8552 53.3714 38.0315C51.7859 38.4486 50.2444 39.018 48.7685 39.7316C48.1482 40.0199 47.4648 40.1461 46.7823 40.0987C46.0998 40.0512 45.4406 39.8315 44.8661 39.4602L41.0923 37.0028C40.764 36.7997 40.3783 36.7093 39.9938 36.7454C39.6094 36.7815 39.2472 36.9421 38.9625 37.2028L35.9463 39.9173C35.6618 40.1813 35.4736 40.5327 35.4114 40.9157C35.3493 41.2987 35.4168 41.6915 35.6032 42.0318L37.8046 46.0465C38.1415 46.6439 38.3185 47.318 38.3185 48.0038C38.3185 48.6895 38.1415 49.3637 37.8046 49.9611C36.981 51.3717 36.2873 52.8541 35.7319 54.3901C35.5032 55.0189 35.1226 55.5814 34.6238 56.0276C34.125 56.4738 33.5235 56.7898 32.873 56.9475L28.3702 57.8761C27.9818 57.9495 27.6295 58.1516 27.3702 58.4497C27.1108 58.7478 26.9595 59.1245 26.9407 59.5191L26.7549 63.6766C26.7532 64.0581 26.8767 64.4295 27.1065 64.734C27.3363 65.0386 27.6597 65.2593 28.0271 65.3625L32.4298 66.634C33.0948 66.8366 33.6972 67.2053 34.1799 67.7053C34.6626 68.2053 35.0098 68.82 35.1887 69.4914C35.6075 71.0737 36.1722 72.6138 36.8754 74.0919C37.1699 74.7097 37.3009 75.3927 37.2559 76.0756C37.2108 76.7585 36.9913 77.4184 36.6181 77.9922L34.0737 81.8354C33.8846 82.1571 33.8047 82.5313 33.8459 82.9021C33.8871 83.2729 34.0473 83.6204 34.3024 83.8928L37.0613 86.8787C37.3245 87.1687 37.6779 87.3617 38.0642 87.4265C38.4506 87.4913 38.8476 87.4242 39.1912 87.2359L43.2079 85.0214C43.7839 84.7128 44.427 84.5508 45.0805 84.55H45.0519Z" fill="#19164C"/>
<path d="M112.924 40.7602L112.081 39.5458C108.808 35.0025 96.7858 19.0868 85.1786 15.4436L82.3197 21.1584L76.1873 8.45727L74.7578 5.32842L92.2258 1.1709L90.3246 5.1284L89.8243 6.14278L90.2675 6.34279C96.8686 9.41173 102.485 14.2569 106.486 20.3357C110.488 26.4144 112.717 33.4867 112.924 40.7602Z" fill="white"/>
<path d="M112.067 39.5177C108.851 35.0315 97.029 19.4016 85.5648 15.5298L85.1788 15.4012L84.0495 17.7443L82.3485 21.1874L76.1875 8.45771L79.1751 7.74336L90.3249 5.12884L90.9252 4.97168L90.2677 6.40038L88.8382 9.25778C88.7928 9.34633 88.7661 9.44324 88.7596 9.54252C88.7531 9.64181 88.767 9.74137 88.8005 9.83507C88.834 9.92877 88.8863 10.0146 88.9543 10.0873C89.0222 10.1601 89.1043 10.2181 89.1956 10.2579C94.8452 12.9399 99.8127 16.8673 103.725 21.7447C107.637 26.6222 110.391 32.3227 111.781 38.4176C111.895 38.7604 111.967 39.1462 112.067 39.5177Z" fill="#17BC9C"/>
<path d="M111.799 38.3741C108.039 28.8304 97.3755 16.9721 87.1978 13.429C87.017 13.3729 86.822 13.384 86.6487 13.4601C86.4754 13.5362 86.3354 13.6723 86.2544 13.8433L85.4824 15.5434L84.3389 18.2866L84.0959 17.7436L79.25 7.74274L90.3712 5.14251L90.9716 4.98535L90.314 6.41405L88.8846 9.27145C88.8392 9.36 88.8124 9.45691 88.8059 9.5562C88.7994 9.65548 88.8134 9.75504 88.8468 9.84874C88.8803 9.94244 88.9326 10.0283 89.0006 10.101C89.0685 10.1737 89.1507 10.2318 89.2419 10.2715C94.8839 12.945 99.8454 16.8633 103.753 21.7311C107.66 26.599 110.411 32.2895 111.799 38.3741Z" fill="#50C9B2"/>
<path d="M112.927 41.875C112.74 41.8744 112.555 41.827 112.39 41.7372C112.226 41.6474 112.086 41.518 111.984 41.3607C111.798 41.1607 98.4755 21.5732 85.7676 16.8299L83.4233 21.6875C83.3244 21.8794 83.175 22.0408 82.9911 22.1541C82.8072 22.2674 82.5958 22.3283 82.3798 22.3304C82.1652 22.3306 81.9548 22.2704 81.7728 22.1567C81.5908 22.043 81.4445 21.8804 81.3506 21.6875L73.6887 5.82891C73.6109 5.67624 73.5703 5.50734 73.5703 5.33601C73.5703 5.16467 73.6109 4.99577 73.6887 4.8431C73.7732 4.70307 73.8851 4.58153 74.0178 4.48579C74.1504 4.39004 74.301 4.32206 74.4606 4.28591L91.9715 -0.00018727C92.1217 -0.0406487 92.2786 -0.0504276 92.4327 -0.0289396C92.5868 -0.00745165 92.735 0.0448622 92.8684 0.124877C93.0019 0.204891 93.1178 0.310965 93.2093 0.436761C93.3008 0.562557 93.366 0.705494 93.4009 0.857033C93.4587 1.11188 93.4285 1.37876 93.3152 1.61424L91.3568 5.55746C97.9814 8.81001 103.593 13.8067 107.588 20.0096C111.583 26.2126 113.809 33.387 114.028 40.7606C114.021 41.0042 113.934 41.2389 113.782 41.4294C113.63 41.62 113.421 41.7563 113.185 41.8179L112.927 41.875ZM85.153 14.2868C85.2664 14.2662 85.3826 14.2662 85.496 14.2868C96.074 17.6443 106.724 30.5026 111.498 36.7174C110.596 30.3218 108.092 24.2576 104.218 19.0875C100.345 13.9174 95.2276 9.80894 89.3413 7.14331C89.066 7.00414 88.8558 6.76329 88.7552 6.47182C88.6477 6.20111 88.6477 5.89961 88.7552 5.62889L90.1561 2.85721L76.4047 6.11465L82.3512 18.5729L84.1095 14.944C84.2038 14.7473 84.3517 14.5813 84.5364 14.465C84.721 14.3487 84.9347 14.2869 85.153 14.2868Z" fill="#19164C"/>
<path d="M25.37 120.096L27.2997 115.01C20.3403 112.604 14.1975 108.292 9.57215 102.565C4.94681 96.8386 2.02518 89.9277 1.14062 82.6211C1.14062 82.6211 2.21272 83.9212 3.99954 85.9071C9.23136 91.6219 20.7385 103.052 31.0735 105.252L33.3177 99.3083L42.2519 114.11L42.3948 114.353L25.37 120.096Z" fill="white"/>
<path d="M42.2798 114.11L41.5364 114.353L29.3003 118.482L30.987 114.067C31.0257 113.973 31.0449 113.873 31.0434 113.772C31.0419 113.671 31.0197 113.571 30.9782 113.479C30.9367 113.386 30.8768 113.303 30.8021 113.235C30.7274 113.167 30.6396 113.114 30.5439 113.081C24.7935 110.982 19.547 107.702 15.1424 103.452C10.7378 99.2021 7.27287 94.0773 4.97087 88.4076C4.59921 87.5075 4.31332 86.7217 4.07031 85.9502C9.25925 91.665 20.7664 103.095 31.1014 105.252L33.3456 99.3085L42.2798 114.11Z" fill="#82CBAD"/>
<path d="M30.9744 114.067C31.0437 113.875 31.0345 113.664 30.9488 113.48C30.8632 113.295 30.7079 113.152 30.517 113.081C24.7594 110.979 19.5071 107.693 15.0996 103.436C10.6921 99.1783 7.22751 94.0438 4.92969 88.3643C10.6475 97.1365 21.683 106.423 31.8321 108.909C32.0091 108.938 32.1906 108.905 32.3466 108.817C32.5026 108.729 32.6237 108.59 32.6898 108.423L34.691 103.051L41.4524 114.295L29.302 118.481L30.9744 114.067Z" fill="#82CBAD"/>
<path d="M25.3709 121.254C25.0625 121.25 24.768 121.125 24.5513 120.906C24.3345 120.687 24.213 120.391 24.213 120.082C24.1913 119.945 24.1913 119.805 24.213 119.668L25.7568 115.611C18.884 112.973 12.8572 108.518 8.32038 102.723C3.78351 96.9277 0.906946 90.0096 -0.00203745 82.7076C-0.0177445 82.551 -0.00132926 82.3929 0.0462046 82.2428C0.0937385 82.0928 0.171392 81.954 0.274417 81.835C0.377442 81.716 0.503673 81.6192 0.645392 81.5506C0.787111 81.482 0.941339 81.4431 1.09865 81.4361C1.27681 81.4308 1.45391 81.4653 1.6171 81.5369C1.78028 81.6086 1.92546 81.7157 2.04209 81.8504C2.18504 82.0361 17.2372 100.323 30.3883 103.91L32.2752 98.8233C32.3783 98.5469 32.5857 98.3218 32.8529 98.1963C33.1201 98.0708 33.4258 98.0548 33.7046 98.1519C33.9482 98.2385 34.1516 98.4113 34.2764 98.6376L43.3678 113.682C43.528 113.938 43.5803 114.247 43.5134 114.541C43.4464 114.836 43.2656 115.092 43.0104 115.253C42.9304 115.303 42.8438 115.342 42.7531 115.368L25.7282 121.197C25.6117 121.23 25.4918 121.249 25.3709 121.254ZM2.98553 86.4651C4.47245 92.7391 7.51591 98.5379 11.8353 103.327C16.1547 108.116 21.6109 111.741 27.7009 113.868C27.8436 113.918 27.9744 113.997 28.0851 114.101C28.1958 114.204 28.284 114.329 28.3441 114.468C28.4004 114.601 28.4293 114.744 28.4293 114.889C28.4293 115.034 28.4004 115.177 28.3441 115.311L27.2578 118.168L40.7519 113.725L33.6046 101.895L32.1751 105.681C32.0785 105.939 31.893 106.154 31.652 106.288C31.4109 106.421 31.1301 106.465 30.86 106.41C20.0104 104.067 8.20306 92.237 2.98553 86.4937V86.4651Z" fill="#19164C"/>
<path d="M36.404 39.0602H21.4376C21.2052 39.0656 20.9769 38.9983 20.7847 38.8677C20.5925 38.737 20.4459 38.5496 20.3655 38.3316L16.2201 27.4878C16.1082 27.2017 16.1147 26.8829 16.238 26.6016C16.3613 26.3202 16.5914 26.0994 16.8776 25.9876C17.1639 25.8758 17.4828 25.8823 17.7643 26.0055C18.0458 26.1288 18.2667 26.3587 18.3786 26.6448L22.2238 36.76H36.5184C36.8217 36.76 37.1126 36.8804 37.327 37.0948C37.5415 37.3091 37.662 37.5999 37.662 37.903C37.662 38.2061 37.5415 38.4968 37.327 38.7112C37.1126 38.9255 36.8217 39.0459 36.5184 39.0459L36.404 39.0602Z" fill="#19164C"/>
<path d="M20.0077 23.1449C19.9965 24.1702 19.625 25.159 18.9582 25.9383C18.2914 26.7177 17.3717 27.2379 16.36 27.4081C15.3482 27.5784 14.3088 27.3878 13.4235 26.8696C12.5382 26.3514 11.8632 25.5387 11.5167 24.5736C11.3506 24.1158 11.2683 23.6318 11.2737 23.1449C11.2736 22.5647 11.3891 21.9903 11.6134 21.4552C11.8376 20.9201 12.1662 20.4349 12.58 20.028C12.9938 19.6211 13.4845 19.3006 14.0234 19.0851C14.5624 18.8696 15.1389 18.7636 15.7193 18.773C16.2061 18.7723 16.6895 18.8545 17.1488 19.0159C17.9909 19.3289 18.7166 19.8927 19.2279 20.6311C19.7392 21.3694 20.0113 22.2469 20.0077 23.1449Z" fill="#D3EFF4"/>
<path d="M17.3081 20.4446C17.3084 21.5907 16.8598 22.6915 16.0583 23.5112C15.2568 24.3309 14.1661 24.8046 13.0197 24.8307C12.5316 24.8312 12.0475 24.7441 11.5902 24.5735C11.3231 23.7988 11.2792 22.9647 11.4635 22.1663C11.6479 21.3678 12.053 20.6372 12.6327 20.0578C13.2124 19.4784 13.9434 19.0735 14.7423 18.8893C15.5411 18.705 16.3757 18.7489 17.1508 19.0159C17.281 19.4803 17.3341 19.963 17.3081 20.4446Z" fill="#FDFEFF"/>
<path d="M15.6336 28.6734C14.5394 28.6734 13.4699 28.3491 12.5602 27.7416C11.6504 27.134 10.9414 26.2705 10.5227 25.2602C10.104 24.2499 9.99441 23.1382 10.2079 22.0656C10.4213 20.9931 10.9482 20.0079 11.7219 19.2347C12.4955 18.4614 13.4812 17.9348 14.5543 17.7215C15.6274 17.5081 16.7397 17.6176 17.7506 18.0361C18.7614 18.4546 19.6254 19.1633 20.2333 20.0725C20.8411 20.9818 21.1656 22.0508 21.1656 23.1443C21.1656 24.6107 20.5827 26.0171 19.5453 27.054C18.5078 28.0909 17.1008 28.6734 15.6336 28.6734ZM15.6336 19.9154C14.9946 19.9154 14.37 20.1048 13.8388 20.4596C13.3075 20.8144 12.8934 21.3187 12.6489 21.9087C12.4044 22.4987 12.3404 23.1479 12.4651 23.7742C12.5897 24.4006 12.8974 24.9759 13.3492 25.4275C13.801 25.879 14.3766 26.1865 15.0033 26.3111C15.63 26.4357 16.2796 26.3718 16.8699 26.1274C17.4602 25.883 17.9647 25.4692 18.3197 24.9382C18.6747 24.4072 18.8642 23.7829 18.8642 23.1443C18.8567 22.2903 18.5139 21.4733 17.9097 20.8694C17.3054 20.2655 16.4881 19.9229 15.6336 19.9154Z" fill="#19164C"/>
<path d="M106.253 96.5367C106.02 96.5349 105.793 96.4631 105.602 96.3306C105.411 96.198 105.264 96.011 105.181 95.7938L101.321 85.7215H87.0264C86.7231 85.7215 86.4322 85.6011 86.2178 85.3867C86.0033 85.1724 85.8828 84.8817 85.8828 84.5785C85.8828 84.2754 86.0033 83.9847 86.2178 83.7703C86.4322 83.556 86.7231 83.4356 87.0264 83.4356H102.121C102.353 83.4343 102.579 83.5033 102.771 83.6334C102.962 83.7635 103.11 83.9486 103.194 84.1642L107.325 95.0223C107.419 95.2993 107.403 95.6019 107.281 95.8677C107.159 96.1335 106.939 96.3422 106.667 96.451C106.537 96.5101 106.395 96.5394 106.253 96.5367Z" fill="#19164C"/>
<path d="M111.314 99.3084C111.312 100.337 110.947 101.333 110.281 102.118C109.616 102.904 108.694 103.428 107.679 103.599C106.664 103.771 105.62 103.577 104.734 103.053C103.848 102.529 103.176 101.709 102.837 100.737C102.671 100.279 102.589 99.7953 102.594 99.3084C102.594 98.1489 103.055 97.0369 103.875 96.217C104.695 95.3971 105.808 94.9365 106.968 94.9365C107.455 94.9382 107.938 95.0203 108.398 95.1794C109.253 95.4794 109.993 96.0382 110.516 96.7782C111.038 97.5182 111.317 98.4026 111.314 99.3084Z" fill="#D3EFF4"/>
<path d="M108.634 96.6222C108.634 97.7816 108.173 98.8936 107.353 99.7135C106.532 100.533 105.42 100.994 104.26 100.994C103.775 100.988 103.293 100.911 102.83 100.765C102.678 100.304 102.601 99.8221 102.602 99.3367C102.602 98.1772 103.062 97.0652 103.883 96.2454C104.703 95.4255 105.816 94.9649 106.976 94.9649C107.464 94.9628 107.948 95.0499 108.405 95.222C108.564 95.6714 108.642 96.1456 108.634 96.6222Z" fill="#FDFEFF"/>
<path d="M106.963 104.837C105.872 104.837 104.805 104.514 103.898 103.908C102.99 103.302 102.283 102.441 101.865 101.433C101.448 100.425 101.338 99.3163 101.551 98.2465C101.764 97.1768 102.29 96.1941 103.061 95.4229C103.833 94.6516 104.816 94.1264 105.887 93.9136C106.957 93.7008 108.066 93.81 109.075 94.2274C110.083 94.6448 110.945 95.3516 111.551 96.2585C112.157 97.1655 112.481 98.2317 112.481 99.3224C112.481 100.785 111.899 102.188 110.865 103.222C109.83 104.256 108.426 104.837 106.963 104.837ZM106.963 96.0935C106.324 96.0935 105.699 96.2829 105.168 96.6377C104.637 96.9925 104.223 97.4968 103.978 98.0868C103.734 98.6768 103.67 99.326 103.795 99.9523C103.919 100.579 104.227 101.154 104.679 101.606C105.13 102.057 105.706 102.365 106.333 102.489C106.959 102.614 107.609 102.55 108.199 102.305C108.79 102.061 109.294 101.647 109.649 101.116C110.004 100.585 110.194 99.961 110.194 99.3224C110.194 98.4661 109.853 97.6448 109.247 97.0392C108.642 96.4337 107.82 96.0935 106.963 96.0935Z" fill="#19164C"/>
<path d="M25.586 59.8048H12.2492C11.9496 59.7758 11.6731 59.6313 11.4783 59.4019C11.2835 59.1725 11.1857 58.8763 11.2057 58.5762C11.2255 58.3061 11.3418 58.0522 11.5334 57.8608C11.725 57.6693 11.979 57.553 12.2492 57.5332H25.586C25.8691 57.5648 26.1306 57.6996 26.3205 57.9117C26.5105 58.1239 26.6155 58.3986 26.6155 58.6833C26.6155 58.968 26.5105 59.2427 26.3205 59.4549C26.1306 59.6671 25.8691 59.8018 25.586 59.8334V59.8048Z" fill="#19164C"/>
<path d="M59.1045 29.5452C58.9543 29.5452 58.8056 29.5156 58.6669 29.4582C58.5281 29.4008 58.4021 29.3166 58.2959 29.2104C58.1897 29.1043 58.1055 28.9783 58.048 28.8396C57.9905 28.701 57.9609 28.5523 57.9609 28.4022V15.7154C57.9925 15.4325 58.1274 15.1711 58.3397 14.9813C58.552 14.7915 58.8268 14.6865 59.1117 14.6865C59.3965 14.6865 59.6713 14.7915 59.8836 14.9813C60.0959 15.1711 60.2308 15.4325 60.2624 15.7154V28.4451C60.2512 28.7432 60.1238 29.0252 59.9075 29.2307C59.6912 29.4363 59.403 29.5491 59.1045 29.5452Z" fill="#19164C"/>
<path d="M107.89 61.6199H94.3389C94.0356 61.6199 93.7447 61.4995 93.5303 61.2851C93.3158 61.0708 93.1953 60.7801 93.1953 60.4769C93.1953 60.1738 93.3158 59.8831 93.5303 59.6687C93.7447 59.4544 94.0356 59.334 94.3389 59.334H107.919C108.222 59.334 108.513 59.4544 108.727 59.6687C108.942 59.8831 109.062 60.1738 109.062 60.4769C109.062 60.7801 108.942 61.0708 108.727 61.2851C108.513 61.4995 108.222 61.6199 107.919 61.6199H107.89Z" fill="#19164C"/>
<path d="M63.2529 111.138C62.9496 111.138 62.6588 111.018 62.4443 110.803C62.2299 110.589 62.1094 110.298 62.1094 109.995V96.2367C62.1094 95.9336 62.2299 95.6429 62.4443 95.4285C62.6588 95.2142 62.9496 95.0938 63.2529 95.0938C63.5562 95.0938 63.8471 95.2142 64.0616 95.4285C64.276 95.6429 64.3965 95.9336 64.3965 96.2367V110.009C64.3984 110.159 64.3706 110.307 64.3147 110.446C64.2588 110.584 64.1759 110.71 64.0709 110.817C63.9658 110.923 63.8407 111.007 63.7027 111.065C63.5648 111.123 63.4167 111.152 63.2672 111.152L63.2529 111.138Z" fill="#19164C"/>
<path d="M63.2477 115.296C64.9766 115.296 66.3782 113.895 66.3782 112.167C66.3782 110.439 64.9766 109.038 63.2477 109.038C61.5188 109.038 60.1172 110.439 60.1172 112.167C60.1172 113.895 61.5188 115.296 63.2477 115.296Z" fill="#D3F2EC"/>
<path d="M63.2493 116.438C62.4012 116.438 61.572 116.187 60.8668 115.716C60.1616 115.245 59.612 114.576 59.2874 113.793C58.9628 113.009 58.8779 112.148 59.0433 111.316C59.2088 110.485 59.6172 109.721 60.217 109.122C60.8167 108.522 61.5808 108.114 62.4127 107.949C63.2446 107.783 64.1068 107.868 64.8904 108.192C65.674 108.517 66.3438 109.066 66.815 109.771C67.2862 110.476 67.5377 111.305 67.5377 112.152C67.5377 113.289 67.0859 114.379 66.2817 115.183C65.4774 115.987 64.3867 116.438 63.2493 116.438ZM63.2493 110.181C62.7223 110.181 62.217 110.39 61.8443 110.762C61.4717 111.135 61.2624 111.64 61.2624 112.167C61.2624 112.693 61.4717 113.198 61.8443 113.571C62.217 113.943 62.7223 114.152 63.2493 114.152C63.7776 114.153 64.2845 113.944 64.6594 113.572C65.0343 113.2 65.2468 112.695 65.2506 112.167C65.2506 111.905 65.1987 111.645 65.098 111.403C64.9972 111.161 64.8496 110.942 64.6635 110.757C64.4775 110.573 64.2568 110.427 64.0141 110.328C63.7714 110.229 63.5114 110.179 63.2493 110.181Z" fill="#1A2745"/>
<path d="M110.756 63.6054C112.484 63.6054 113.886 62.2045 113.886 60.4765C113.886 58.7485 112.484 57.3477 110.756 57.3477C109.027 57.3477 107.625 58.7485 107.625 60.4765C107.625 62.2045 109.027 63.6054 110.756 63.6054Z" fill="#D3F2EC"/>
<path d="M110.749 64.7626C109.901 64.7626 109.072 64.5113 108.367 64.0403C107.662 63.5693 107.112 62.8999 106.787 62.1168C106.463 61.3336 106.378 60.4718 106.543 59.6404C106.709 58.8089 107.117 58.0452 107.717 57.4458C108.317 56.8464 109.081 56.4382 109.913 56.2728C110.745 56.1074 111.607 56.1923 112.39 56.5167C113.174 56.8411 113.844 57.3905 114.315 58.0953C114.786 58.8001 115.038 59.6288 115.038 60.4765C115.038 61.6133 114.586 62.7035 113.782 63.5073C112.977 64.3111 111.887 64.7626 110.749 64.7626ZM110.749 58.4906C110.356 58.4906 109.972 58.6071 109.645 58.8253C109.319 59.0435 109.064 59.3537 108.914 59.7166C108.763 60.0794 108.724 60.4787 108.801 60.864C108.877 61.2492 109.066 61.603 109.344 61.8808C109.622 62.1585 109.976 62.3476 110.362 62.4243C110.747 62.5009 111.147 62.4616 111.51 62.3113C111.873 62.161 112.183 61.9064 112.401 61.5798C112.62 61.2533 112.736 60.8693 112.736 60.4765C112.738 60.2164 112.689 59.9585 112.59 59.7176C112.492 59.4768 112.347 59.2577 112.164 59.0732C111.98 58.8886 111.762 58.742 111.522 58.6421C111.282 58.5421 111.024 58.4906 110.764 58.4906H110.749Z" fill="#19164C"/>
<path d="M59.1071 15.5438C60.836 15.5438 62.2376 14.143 62.2376 12.415C62.2376 10.687 60.836 9.28613 59.1071 9.28613C57.3781 9.28613 55.9766 10.687 55.9766 12.415C55.9766 14.143 57.3781 15.5438 59.1071 15.5438Z" fill="#82CBAD"/>
<path d="M59.1087 16.7011C58.2605 16.7011 57.4314 16.4497 56.7262 15.9788C56.021 15.5078 55.4713 14.8384 55.1467 14.0552C54.8222 13.272 54.7372 12.4103 54.9027 11.5788C55.0682 10.7474 55.4766 9.9837 56.0764 9.38428C56.6761 8.78486 57.4402 8.37664 58.2721 8.21126C59.1039 8.04588 59.9662 8.13076 60.7498 8.45517C61.5334 8.77957 62.2031 9.32893 62.6743 10.0338C63.1456 10.7386 63.3971 11.5673 63.3971 12.415C63.3971 13.5518 62.9453 14.6419 62.141 15.4457C61.3368 16.2495 60.246 16.7011 59.1087 16.7011ZM59.1087 10.4291C58.717 10.4348 58.3357 10.556 58.0127 10.7776C57.6897 10.9992 57.4395 11.3113 57.2935 11.6746C57.1475 12.038 57.1122 12.4363 57.1921 12.8197C57.2719 13.203 57.4634 13.5542 57.7424 13.829C58.0214 14.1039 58.3754 14.2902 58.76 14.3646C59.1447 14.4389 59.5427 14.398 59.9041 14.2468C60.2655 14.0957 60.5742 13.8412 60.7913 13.5153C61.0083 13.1894 61.1242 12.8066 61.1242 12.415C61.1243 12.1518 61.0719 11.8912 60.9703 11.6484C60.8687 11.4056 60.7197 11.1854 60.5322 11.0006C60.3447 10.8158 60.1222 10.6701 59.8778 10.572C59.6335 10.4739 59.372 10.4253 59.1087 10.4291Z" fill="#19164C"/>
<path d="M9.40395 61.6766C11.1329 61.6766 12.5345 60.2758 12.5345 58.5478C12.5345 56.8198 11.1329 55.4189 9.40395 55.4189C7.67502 55.4189 6.27344 56.8198 6.27344 58.5478C6.27344 60.2758 7.67502 61.6766 9.40395 61.6766Z" fill="#19164C"/>
<path d="M9.40557 62.8622C8.55741 62.8622 7.72829 62.6109 7.02307 62.1399C6.31785 61.6689 5.7682 60.9995 5.44362 60.2164C5.11905 59.4332 5.03412 58.5714 5.19959 57.74C5.36506 56.9085 5.77349 56.1448 6.37323 55.5454C6.97297 54.946 7.73708 54.5378 8.56895 54.3724C9.40081 54.207 10.2631 54.2919 11.0467 54.6163C11.8303 54.9407 12.5 55.4901 12.9712 56.1949C13.4424 56.8998 13.6939 57.7284 13.6939 58.5761C13.6939 59.7129 13.2421 60.8031 12.4379 61.6069C11.6337 62.4107 10.5429 62.8622 9.40557 62.8622ZM9.40557 56.6045C9.01392 56.613 8.63351 56.737 8.31215 56.9609C7.9908 57.1848 7.74284 57.4987 7.59945 57.863C7.45605 58.2274 7.42362 58.626 7.50623 59.0087C7.58884 59.3915 7.78279 59.7412 8.06373 60.0141C8.34466 60.287 8.70003 60.4708 9.08516 60.5424C9.4703 60.614 9.86802 60.5702 10.2283 60.4165C10.5886 60.2629 10.8955 60.0062 11.1102 59.6787C11.325 59.3513 11.4381 58.9677 11.4354 58.5761C11.4392 58.313 11.3906 58.0516 11.2924 57.8074C11.1943 57.5631 11.0485 57.3408 10.8636 57.1534C10.6788 56.9659 10.4584 56.8171 10.2155 56.7155C9.97253 56.6139 9.7118 56.5616 9.44845 56.5617L9.40557 56.6045Z" fill="#19164C"/>
<path d="M78.6178 58.3764C78.5911 59.1561 78.5195 59.9337 78.4034 60.7052C77.8745 64.8913 76.2592 71.3061 71.4705 74.535C65.2523 78.6782 56.8185 77.0209 54.1454 76.3494C53.588 76.2066 53.2878 76.1066 53.2878 76.1066C53.2878 76.1066 52.1728 64.9484 58.9055 59.5051C64.1945 55.219 73.3431 55.9619 77.0454 56.4762C77.4988 56.5367 77.9126 56.766 78.2042 57.1183C78.4957 57.4706 78.6434 57.9199 78.6178 58.3764Z" fill="white"/>
<path d="M78.3361 60.7047C77.8072 64.8908 76.1919 71.3057 71.4032 74.5345C65.185 78.6777 56.7512 77.0205 54.0781 76.349C54.191 74.5929 54.4929 72.8542 54.9787 71.1628C55.7381 68.2155 57.3847 65.5723 59.6959 63.5907C64.7133 59.5332 73.2758 60.0046 77.1925 60.4761L77.7786 60.5618C77.9718 60.5738 78.1609 60.6223 78.3361 60.7047Z" fill="#82CBAD"/>
<path d="M77.2632 60.4761C76.3769 63.941 74.3347 67.0002 71.4739 69.1483C65.756 72.8629 58.3371 71.8914 54.9922 71.1628C55.7623 68.2166 57.4128 65.5751 59.7237 63.5907C64.7125 59.5332 73.2321 60.0046 77.2632 60.4761Z" fill="#82CBAD"/>
<path d="M61.2468 78.4065C58.419 78.4134 55.6041 78.0238 52.8845 77.2493C52.6721 77.1785 52.4848 77.0477 52.3453 76.8728C52.2058 76.6978 52.12 76.4862 52.0983 76.2635C52.0983 75.792 51.0119 64.3767 58.1449 58.6619C63.777 54.1043 73.3258 54.8473 77.1567 55.3759C77.8939 55.4849 78.5642 55.8642 79.0372 56.4399C79.5101 57.0156 79.7519 57.7465 79.7154 58.4904C79.501 62.2194 78.286 71.3488 72.0678 75.5348C68.8247 77.5414 65.0587 78.5408 61.2468 78.4065ZM54.3139 75.2205C56.8012 75.8492 64.9348 77.4636 70.767 73.5918C76.1847 70.0058 77.1853 61.705 77.4283 58.319C77.4336 58.1508 77.3768 57.9865 77.2687 57.8574C77.1607 57.7283 77.0088 57.6434 76.8422 57.6189C73.2972 57.1332 64.5203 56.4188 59.5887 60.4763C54.3139 64.591 54.2139 72.6917 54.3139 75.2205Z" fill="#19164C"/>
<path d="M63.0836 60.2763C62.3117 69.2343 53.2203 76.0778 53.2203 76.0778C51.9282 75.1603 50.7182 74.1326 49.6038 73.006C46.8592 70.1486 43.5286 65.8625 43.5 60.7335C43.5 54.0758 49.518 47.5037 52.3055 44.8464C52.6806 44.4874 53.1799 44.2871 53.6992 44.2871C54.2185 44.2871 54.7178 44.4874 55.0929 44.8464C56.8187 46.3932 58.3715 48.1225 59.7244 50.004C62.0239 52.9235 63.214 56.563 63.0836 60.2763Z" fill="white"/>
<path d="M63.0806 60.2763C62.3087 69.2343 53.2173 76.0778 53.2173 76.0778C51.9252 75.1603 50.7151 74.1326 49.6008 73.0061L49.2291 72.4489C47.6033 70.0818 46.6815 67.3029 46.5703 64.4339C46.5703 57.7333 52.6312 51.1755 55.3901 48.5181C55.6989 48.2027 56.1086 48.0056 56.5479 47.9609C56.8405 47.926 57.1372 47.9538 57.4182 48.0424C57.6992 48.1311 57.9581 48.2787 58.1775 48.4753C58.6207 48.8896 59.1496 49.3897 59.7213 49.9897C62.0153 52.9178 63.2045 56.5595 63.0806 60.2763Z" fill="#82CBAD"/>
<path d="M58.9222 56.7622C58.2074 64.9629 50.517 71.3921 49.2447 72.4779C47.6125 70.114 46.6901 67.3332 46.5859 64.4629C46.5859 57.7909 52.6325 51.2331 55.3914 48.5757C55.7002 48.2603 56.11 48.0632 56.5493 48.0186C58.2334 50.6144 59.0631 53.6716 58.9222 56.7622Z" fill="#82CBAD"/>
<path d="M53.2168 77.2494C52.9782 77.2493 52.7447 77.1798 52.5449 77.0494C52.1447 76.7494 42.3672 69.9059 42.3672 60.705C42.3672 53.5615 48.7569 46.6181 51.53 43.975C52.1168 43.4419 52.8813 43.1465 53.6742 43.1465C54.4672 43.1465 55.2316 43.4419 55.8184 43.975C58.5201 46.4752 64.8097 53.0472 64.1664 60.4622C63.323 69.7916 54.1602 76.7922 53.8457 77.078C53.6582 77.1973 53.4389 77.257 53.2168 77.2494ZM53.7171 45.3751C53.6003 45.3729 53.4842 45.3945 53.376 45.4388C53.2679 45.483 53.1699 45.5488 53.0881 45.6323C50.5437 48.0753 44.5971 54.433 44.5971 60.6908C44.5971 67.3485 51.0154 72.949 53.1739 74.6349C55.2037 72.8633 61.3075 67.1485 61.9079 60.2193C62.4511 53.8187 56.7475 47.8896 54.2603 45.6323C54.1172 45.4845 53.9227 45.3976 53.7171 45.3894V45.3751Z" fill="#19164C"/>
<path d="M15.6368 26.3737C17.421 26.3737 18.8674 24.9281 18.8674 23.1449C18.8674 21.3616 17.421 19.916 15.6368 19.916C13.8526 19.916 12.4062 21.3616 12.4062 23.1449C12.4062 24.9281 13.8526 26.3737 15.6368 26.3737Z" fill="#82CBAD"/>
<path d="M9.40316 60.762C10.6268 60.762 11.6188 59.7705 11.6188 58.5475C11.6188 57.3245 10.6268 56.333 9.40316 56.333C8.17949 56.333 7.1875 57.3245 7.1875 58.5475C7.1875 59.7705 8.17949 60.762 9.40316 60.762Z" fill="#82CBAD"/>
<path d="M63.2526 114.152C64.3499 114.152 65.2395 113.263 65.2395 112.167C65.2395 111.07 64.3499 110.181 63.2526 110.181C62.1552 110.181 61.2656 111.07 61.2656 112.167C61.2656 113.263 62.1552 114.152 63.2526 114.152Z" fill="#82CBAD"/>
<path d="M106.952 102.937C108.95 102.937 110.569 101.319 110.569 99.3226C110.569 97.3263 108.95 95.708 106.952 95.708C104.955 95.708 103.336 97.3263 103.336 99.3226C103.336 101.319 104.955 102.937 106.952 102.937Z" fill="#82CBAD"/>
<path d="M110.752 62.8915C112.086 62.8915 113.168 61.8105 113.168 60.477C113.168 59.1435 112.086 58.0625 110.752 58.0625C109.418 58.0625 108.336 59.1435 108.336 60.477C108.336 61.8105 109.418 62.8915 110.752 62.8915Z" fill="#82CBAD"/>
</g>
<defs>
<clipPath id="clip0_561_1223">
<rect width="115" height="121.254" fill="white"/>
</clipPath>
</defs>
</svg>
