<svg width="112" height="122" viewBox="0 0 112 122" fill="none" xmlns="http://www.w3.org/2000/svg">
<g clip-path="url(#clip0_561_680)">
<path d="M99.3237 97.4819H10.4356C8.75393 97.4819 7.3125 96.1206 7.3125 94.3588V39.1841C7.3125 37.5025 8.67385 36.061 10.4356 36.061H99.3237C101.005 36.061 102.447 37.4224 102.447 39.1841V94.4389C102.447 96.1206 101.005 97.4819 99.3237 97.4819Z" fill="#82CBAD"/>
<path d="M98.0426 97.4822H8.11341C5.71103 97.4822 3.70904 95.4802 3.70904 93.0779V83.3082H102.447V93.0779C102.447 95.4802 100.445 97.4822 98.0426 97.4822ZM59.6045 118.303H46.5515V100.926H59.5244V118.303H59.6045ZM8.11341 32.6179H39.7448L41.9069 46.5517C42.0671 47.3525 42.7878 47.9931 43.5886 47.9931H67.2921C68.253 47.9931 68.9738 47.1924 68.9738 46.3115C68.9738 45.3505 68.173 44.6298 67.2921 44.6298H45.03L44.7898 43.1884L67.212 37.6629C68.0128 37.5027 68.4933 36.782 68.4933 35.9812V32.698H98.0426C100.445 32.698 102.447 34.7 102.447 37.1023V79.9448H3.70904V37.0223C3.70904 34.6199 5.63095 32.6179 8.11341 32.6179ZM65.0499 28.2135V30.8562V34.4597L44.2292 39.5848L42.3874 28.1335H65.0499V28.2135ZM105.89 37.0223C105.89 32.698 102.367 29.1745 98.0426 29.1745H68.4933V26.5319C68.4933 25.5709 67.6925 24.8502 66.8116 24.8502H41.9069L41.1862 20.2056C41.026 19.4048 40.3053 18.7642 39.5045 18.7642H31.7368C30.7759 18.7642 30.0552 19.565 30.0552 20.4458C30.0552 21.4068 30.856 22.1275 31.7368 22.1275H38.0631L39.1842 29.1745H8.11341C3.78912 29.1745 0.265625 32.698 0.265625 37.0223V81.5464V93.0779C0.265625 97.4021 3.78912 100.926 8.11341 100.926H43.1882V118.303H27.0121C26.0512 118.303 25.3305 119.104 25.3305 119.985C25.3305 120.945 26.1313 121.666 27.0121 121.666H79.1438C80.1048 121.666 80.8255 120.865 80.8255 119.985C80.8255 119.024 80.0247 118.303 79.1438 118.303H62.9678V100.926H97.9625C102.287 100.926 105.81 97.4021 105.81 93.0779V37.0223H105.89Z" fill="white"/>
<path d="M45.2696 55.1202C46.5508 55.1202 47.672 53.9991 47.672 52.5577C47.672 51.1963 46.6309 49.9951 45.2696 49.9951C43.9883 49.9951 42.8672 51.1162 42.8672 52.5577C42.8672 53.919 43.9883 55.1202 45.2696 55.1202Z" fill="white"/>
<path d="M65.1289 55.1202C66.4102 55.1202 67.5313 53.9991 67.5313 52.5577C67.5313 51.1963 66.4903 49.9951 65.1289 49.9951C63.8477 49.9951 62.7266 51.1162 62.7266 52.5577C62.7266 53.919 63.8477 55.1202 65.1289 55.1202Z" fill="white"/>
<path d="M41.2656 2.42776V15.801C41.2656 16.762 42.0664 17.4827 42.9473 17.4827C43.8282 17.4827 44.629 16.6819 44.629 15.801V2.42776C44.629 1.46681 43.8282 0.746094 42.9473 0.746094C42.0664 0.746094 41.2656 1.54689 41.2656 2.42776Z" fill="white"/>
<path d="M50.6328 2.42776V10.1154C50.6328 11.0763 51.4336 11.7971 52.3145 11.7971C53.2754 11.7971 53.9961 10.9963 53.9961 10.1154V2.42776C53.9961 1.46681 53.1954 0.746094 52.3145 0.746094C51.4336 0.746094 50.6328 1.54689 50.6328 2.42776Z" fill="white"/>
<path d="M60.0859 2.42776V20.4456C60.0859 21.4066 60.8867 22.1273 61.7676 22.1273C62.7286 22.1273 63.4493 21.3265 63.4493 20.4456V2.42776C63.5294 1.54689 62.7286 0.746094 61.7676 0.746094C60.8067 0.746094 60.0859 1.54689 60.0859 2.42776Z" fill="white"/>
<path d="M53.0411 92.4371C51.6798 92.4371 50.6387 91.3961 50.6387 90.0348C50.6387 88.6734 51.6798 87.6324 53.0411 87.6324C54.4025 87.6324 55.4435 88.6734 55.4435 90.0348C55.4435 91.316 54.3224 92.4371 53.0411 92.4371ZM53.0411 84.189C49.8379 84.189 47.1953 86.8316 47.1953 90.0348C47.1953 93.2379 49.8379 95.8806 53.0411 95.8806C56.2443 95.8806 58.8869 93.2379 58.8869 90.0348C58.8869 86.8316 56.2443 84.189 53.0411 84.189Z" fill="white"/>
<path d="M33.0218 88.2729H12.6817C11.7207 88.2729 11 89.0737 11 89.9546C11 90.9156 11.8008 91.6363 12.6817 91.6363H33.0218C33.9828 91.6363 34.7035 90.8355 34.7035 89.9546C34.7035 89.0737 33.9828 88.2729 33.0218 88.2729Z" fill="white"/>
<path d="M91.473 88.2729H71.2129C70.252 88.2729 69.5312 89.0737 69.5312 89.9546C69.5312 90.9156 70.332 91.6363 71.2129 91.6363H91.5531C92.514 91.6363 93.2348 90.8355 93.2348 89.9546C93.2348 89.0737 92.434 88.2729 91.473 88.2729Z" fill="white"/>
<path d="M42.4688 28.2134H65.0511V34.6197L44.3106 39.7448L42.4688 28.2134Z" fill="#1D1655"/>
<path d="M53.0352 92.4371C54.362 92.4371 55.4376 91.3615 55.4376 90.0347C55.4376 88.7079 54.362 87.6323 53.0352 87.6323C51.7084 87.6323 50.6328 88.7079 50.6328 90.0347C50.6328 91.3615 51.7084 92.4371 53.0352 92.4371Z" fill="#1D1655"/>
</g>
<defs>
<clipPath id="clip0_561_680">
<rect width="110.91" height="121" fill="white" transform="translate(0.265625 0.746094)"/>
</clipPath>
</defs>
</svg>
