<svg width="122" height="122" viewBox="0 0 122 122" fill="none" xmlns="http://www.w3.org/2000/svg">
<path d="M61.0031 0.608398C75.84 0.608398 90.7489 0.608398 105.586 0.608398C115.525 0.608398 121.575 6.73042 121.575 16.6697C121.575 46.2715 121.575 75.9453 121.575 105.547C121.575 115.486 115.525 121.608 105.586 121.608C75.6959 121.608 45.8061 121.608 15.9162 121.608C6.19296 121.608 0.0709339 115.414 0.0709339 105.691C0.0709339 75.9453 0.0709339 46.2715 0.0709339 16.5257C-0.00108989 6.73042 6.19296 0.608398 15.9162 0.608398C30.8971 0.608398 45.9501 0.608398 61.0031 0.608398ZM3.02391 24.3763C2.95189 25.3846 2.87986 26.2489 2.87986 27.1132C2.87986 53.1858 2.87986 79.3304 2.87986 105.475C2.87986 114.118 7.48939 118.727 16.1322 118.727C45.8061 118.727 75.5519 118.727 105.226 118.727C114.013 118.727 118.694 114.046 118.694 105.331C118.694 79.2584 118.694 53.2578 118.694 27.1852C118.694 26.2489 118.694 25.3126 118.694 24.3763C80.0174 24.3763 41.5566 24.3763 3.02391 24.3763ZM3.16796 21.3513C41.7727 21.3513 80.1614 21.3513 118.55 21.3513C120.279 9.6834 115.093 3.12923 103.353 3.27328C76.3441 3.6334 49.3352 3.41733 22.3263 3.41733C19.8055 3.41733 17.2846 3.3453 14.6918 3.41733C8.85784 3.6334 4.03224 7.30661 3.16796 12.6364C2.73581 15.4453 3.16796 18.3263 3.16796 21.3513Z" fill="#1D1655"/>
<path d="M3.16411 21.3518C3.16411 18.3988 2.80399 15.4458 3.23613 12.6369C4.10042 7.30714 8.92601 3.63393 14.7599 3.41786C17.2808 3.34583 19.8016 3.41786 22.3945 3.41786C49.4034 3.41786 76.4123 3.70595 103.349 3.27381C115.017 3.12976 120.203 9.68393 118.546 21.3518C80.1576 21.3518 41.7689 21.3518 3.16411 21.3518ZM83.7587 13.7893C86.7117 13.7893 89.6647 13.7893 92.6177 13.7893C96.7951 13.7893 100.972 13.8613 105.15 13.7173C105.87 13.7173 106.518 12.781 107.166 12.3488C106.518 11.9167 104.646 11.0524 104.43 11.0524C90.7451 11.0524 77.0605 11.0524 63.376 11.1244C62.5117 11.1244 61.5754 11.9887 60.7111 12.4208C61.5754 12.853 62.4397 13.7173 63.304 13.7173C70.1462 13.8613 76.9885 13.7893 83.7587 13.7893ZM19.7296 17.9667C22.8986 18.0387 25.4915 15.5899 25.4915 12.4929C25.4915 9.46786 22.9707 6.875 19.8736 6.875C16.8486 6.875 14.3998 9.25179 14.2558 12.2768C14.1838 15.3738 16.6326 17.8946 19.7296 17.9667ZM40.9046 12.5649C40.9766 9.39583 38.5278 6.875 35.4308 6.875C32.3337 6.875 29.8129 9.39583 29.8129 12.4929C29.8129 15.5179 32.1897 17.9667 35.2147 18.0387C38.3837 18.0387 40.8326 15.7339 40.9046 12.5649ZM50.9159 17.9667C54.0129 17.8946 56.5337 15.3018 56.4617 12.2768C56.3897 9.17976 53.7248 6.73095 50.6278 6.875C47.6028 6.94702 45.226 9.46786 45.226 12.4929C45.226 15.5899 47.7468 18.0387 50.9159 17.9667Z" fill="#82CBAD"/>
<path d="M39.3037 42.0237C39.3037 39.7189 39.3757 37.7743 39.3037 35.7576C39.2317 33.957 39.8799 33.0207 41.8246 33.0927C56.4454 33.1648 70.9942 33.1648 85.615 33.0927C87.8478 33.0927 88.2079 34.1011 88.2079 35.9737C88.1359 44.2564 88.2079 52.6112 88.2079 60.8939C88.2079 61.8302 88.2079 62.7665 88.2079 64.063C90.7287 64.063 92.9614 64.135 95.1942 64.063C97.0668 63.9909 97.8591 64.7112 97.3549 66.5838C93.8257 80.4844 90.3686 94.313 86.9115 108.214C86.4073 110.086 85.1109 110.086 83.6704 110.014C72.6507 110.014 61.6311 110.014 50.6115 110.014C42.7609 110.014 34.9103 109.942 26.9876 110.086C24.7549 110.086 23.8906 109.51 23.8906 107.133C23.9626 86.5344 23.9626 65.8636 23.8906 45.2648C23.8906 42.888 24.6109 41.9517 27.0597 42.0957C31.021 42.1677 34.9103 42.0237 39.3037 42.0237ZM94.3299 66.9439C93.7537 66.8719 93.3936 66.7279 93.0335 66.7279C75.0275 66.7279 57.0216 66.7279 39.0156 66.6558C37.5751 66.6558 37.071 67.232 36.7829 68.5285C35.5585 73.4981 34.2621 78.5398 33.0376 83.5094C31.093 91.288 29.1484 99.0665 27.2037 106.989C46.29 106.989 65.1603 106.989 84.1745 106.989C87.6317 93.6648 90.9448 80.3404 94.3299 66.9439ZM42.2567 63.7749C56.6615 63.7749 70.9222 63.7749 85.1109 63.7749C85.1109 54.3398 85.1109 45.1927 85.1109 36.0457C70.7061 36.0457 56.5174 36.0457 42.2567 36.0457C42.2567 45.4088 42.2567 54.5558 42.2567 63.7749ZM26.8436 44.9046C26.8436 61.9743 26.8436 78.6838 26.8436 96.1856C27.2757 94.8892 27.4918 94.313 27.6359 93.7368C29.7246 85.382 31.8853 77.0273 33.9019 68.6005C34.5501 65.7915 34.9103 62.9106 39.0156 63.991C39.0156 57.4368 39.0156 51.2427 39.0156 44.9046C34.9823 44.9046 31.021 44.9046 26.8436 44.9046Z" fill="#1D1655"/>
<path d="M83.7647 13.7896C76.9944 13.7896 70.1522 13.8616 63.3819 13.7176C62.5176 13.7176 61.6533 12.8533 60.7891 12.4211C61.6533 11.989 62.5897 11.1247 63.4539 11.1247C77.1385 11.0527 90.823 11.0527 104.508 11.0527C104.796 11.0527 105.084 10.9807 105.3 11.1247C105.948 11.4848 106.596 11.989 107.244 12.3491C106.596 12.8533 105.876 13.7176 105.228 13.7176C101.05 13.8616 96.873 13.7896 92.6956 13.7896C89.7426 13.7896 86.7176 13.7896 83.7647 13.7896Z" fill="black"/>
<path d="M19.722 17.9669C16.553 17.8949 14.1042 15.3741 14.2482 12.205C14.3923 9.18001 16.8411 6.80322 19.8661 6.80322C22.9631 6.80322 25.556 9.39608 25.4839 12.4211C25.4839 15.5901 22.8911 18.0389 19.722 17.9669ZM16.697 11.8449C16.697 12.277 16.697 12.7092 16.697 13.1413C17.7774 13.8616 18.7857 15.0139 19.9381 15.158C21.5947 15.3741 22.8911 14.0056 22.4589 12.3491C22.1708 11.3407 20.8024 9.90025 19.8661 9.82822C18.8578 9.7562 17.7774 11.1247 16.697 11.8449Z" fill="#1D1655"/>
<path d="M40.8903 12.5651C40.8182 15.7342 38.3694 18.111 35.1283 17.9669C32.1033 17.8949 29.7266 15.4461 29.7266 12.4211C29.7266 9.32406 32.2474 6.80322 35.3444 6.80322C38.5135 6.87525 40.9623 9.39608 40.8903 12.5651ZM38.5855 12.9252C38.5855 12.4931 38.5135 12.133 38.5135 11.7008C37.3611 10.9806 36.2087 9.68417 35.2004 9.82822C34.2641 9.90025 32.8236 11.4127 32.6795 12.4931C32.3914 14.0776 33.6879 15.5181 35.4164 15.158C36.5688 14.9419 37.5051 13.7175 38.5855 12.9252Z" fill="#1D1655"/>
<path d="M50.9164 17.9665C47.7474 18.0385 45.2266 15.5897 45.2266 12.4207C45.2266 9.39568 47.6034 6.94687 50.6284 6.80282C53.7254 6.73079 56.3903 9.1796 56.4623 12.2046C56.5343 15.3737 54.0135 17.9665 50.9164 17.9665ZM47.6754 11.6284C47.6754 12.0606 47.6033 12.4927 47.6033 12.9248C48.6117 13.7171 49.548 14.9415 50.7004 15.1576C52.4289 15.5177 53.7254 14.2213 53.4373 12.5647C53.2932 11.4844 51.9968 9.97187 50.9885 9.82782C50.0522 9.68377 48.8278 10.9802 47.6754 11.6284Z" fill="#1D1655"/>
<path d="M94.3432 66.9429C90.9581 80.3393 87.573 93.6637 84.2599 106.988C65.1736 106.988 46.3754 106.988 27.2891 106.988C29.3057 99.0655 31.1783 91.2869 33.123 83.5084C34.3474 78.5387 35.7158 73.5691 36.8682 68.5274C37.1563 67.231 37.6605 66.6548 39.101 66.6548C57.1069 66.7268 75.1129 66.6548 93.1188 66.7268C93.4069 66.7268 93.767 66.7988 94.3432 66.9429ZM75.9772 86.9655C73.5284 88.7661 71.2956 90.2786 69.2069 91.9351C68.6307 92.3673 68.6307 93.4476 68.3426 94.2399C69.1349 94.2399 70.0712 94.528 70.6474 94.1679C73.3843 92.3673 76.0492 90.3506 78.7141 88.406C80.0105 87.4697 80.0105 86.3893 78.7141 85.453C76.0492 83.5084 73.3843 81.4917 70.6474 79.6911C70.0712 79.331 69.1349 79.6191 68.3426 79.6191C68.6307 80.4113 68.6307 81.4917 69.2069 81.9238C71.2956 83.6524 73.5284 85.1649 75.9772 86.9655ZM45.5831 86.8935C48.0319 85.0929 50.2647 83.5804 52.4254 81.8518C52.9295 81.4197 53.0016 80.4113 53.2897 79.6911C52.4254 79.6911 51.417 79.331 50.8408 79.6911C48.176 81.4197 45.5831 83.4363 42.9903 85.309C41.3337 86.4613 41.6218 87.4697 43.0623 88.55C45.5831 90.3506 48.1039 92.2953 50.6968 94.0238C51.345 94.456 52.3533 94.1679 53.2176 94.2399C52.8575 93.3756 52.7855 92.2232 52.1373 91.7191C50.1206 90.0625 47.9599 88.622 45.5831 86.8935ZM65.6057 93.5197C65.4617 93.0155 65.4617 92.8715 65.3897 92.7274C63.0849 88.406 60.8522 84.1566 58.5474 79.9072C58.3313 79.547 57.395 79.5471 56.7468 79.331C56.6028 79.9792 56.0986 80.7715 56.3147 81.3476C56.8908 82.8601 57.8272 84.3006 58.5474 85.7411C59.9879 88.406 61.3563 91.1429 62.8688 93.7357C63.1569 94.2399 64.0932 94.6 64.7414 94.6721C65.0295 94.6 65.3897 93.8078 65.6057 93.5197Z" fill="#82CBAD"/>
<path d="M42.2969 63.7731C42.2969 54.482 42.2969 45.407 42.2969 36.0439C56.5576 36.0439 70.7463 36.0439 85.151 36.0439C85.151 45.191 85.151 54.41 85.151 63.7731C70.9623 63.7731 56.7016 63.7731 42.2969 63.7731ZM63.4719 61.0362C69.0177 61.0362 74.6356 61.1082 80.1814 60.9642C80.9737 60.9642 81.7659 60.0999 82.5582 59.6678C81.7659 59.2356 80.9737 58.3713 80.1094 58.3713C69.2338 58.2993 58.2862 58.2993 47.4106 58.3713C46.5463 58.3713 45.754 59.3076 44.9618 59.8118C45.826 60.2439 46.6183 60.9642 47.4826 60.9642C52.8124 61.0362 58.1421 61.0362 63.4719 61.0362ZM63.904 42.238C69.3058 42.238 74.7076 42.31 80.1094 42.166C80.9737 42.166 81.7659 41.3737 82.5582 40.9416C81.6939 40.4374 80.8296 39.5011 79.9653 39.5011C69.1618 39.4291 58.3582 39.4291 47.5546 39.5011C46.6903 39.5011 45.826 40.4374 44.9618 40.8695C45.826 41.3017 46.7623 42.0939 47.6266 42.166C53.1004 42.31 58.5022 42.238 63.904 42.238ZM64.0481 45.6951C58.5743 45.6951 53.0284 45.6231 47.5546 45.7672C46.6903 45.7672 45.826 46.6314 44.9618 47.1356C45.826 47.5678 46.7623 48.432 47.6266 48.432C58.4302 48.5041 69.2338 48.5041 80.0373 48.432C80.9016 48.432 81.6939 47.6398 82.4862 47.2076C81.6219 46.7035 80.7576 45.7672 79.8933 45.7672C74.7076 45.6231 69.3778 45.6951 64.0481 45.6951ZM63.832 54.7701C69.3778 54.7701 74.9957 54.8422 80.5415 54.6981C81.1897 54.6981 81.91 53.9058 82.5582 53.5457C81.91 53.0416 81.2618 52.4654 80.5415 52.0332C80.3975 51.8892 80.0373 52.0332 79.7492 52.0332C69.0177 52.0332 58.2862 52.0332 47.5546 52.1053C46.6903 52.1053 45.754 52.9695 44.8897 53.4017C45.754 53.8338 46.6183 54.6981 47.5546 54.6981C53.0284 54.8422 58.4302 54.7701 63.832 54.7701Z" fill="#1D1655"/>
<path d="M26.8594 44.9033C31.0368 44.9033 34.926 44.9033 39.0314 44.9033C39.0314 51.2414 39.0314 57.4355 39.0314 63.9896C34.926 62.9093 34.5659 65.7902 33.9177 68.5992C31.901 76.9539 29.7403 85.3807 27.6516 93.7355C27.5076 94.3117 27.2915 94.8878 26.8594 96.1843C26.8594 78.6825 26.8594 61.973 26.8594 44.9033Z" fill="#82CBAD"/>
<path d="M16.7109 11.8426C17.7913 11.1224 18.8717 9.75395 19.952 9.82598C20.8883 9.898 22.2568 11.2665 22.5449 12.3468C22.977 14.0034 21.6806 15.3718 20.024 15.1557C18.8717 15.0117 17.8633 13.8593 16.783 13.1391C16.7109 12.7069 16.7109 12.2748 16.7109 11.8426Z" fill="#1D1655"/>
<path d="M38.5963 12.9231C37.5159 13.7154 36.5796 14.8678 35.3552 15.1559C33.6267 15.444 32.3302 14.0755 32.6183 12.491C32.8344 11.4106 34.2028 9.97017 35.1392 9.82612C36.2195 9.7541 37.3719 11.0505 38.4523 11.6987C38.5243 12.1309 38.5963 12.563 38.5963 12.9231Z" fill="#1D1655"/>
<path d="M47.6719 11.6269C48.8243 10.9787 49.9766 9.75426 51.057 9.82628C51.9933 9.97033 53.2897 11.4828 53.5058 12.5632C53.7939 14.2197 52.4254 15.5162 50.7689 15.156C49.6165 14.94 48.6802 13.6435 47.6719 12.9233C47.6719 12.4191 47.6719 12.059 47.6719 11.6269Z" fill="#1D1655"/>
<path d="M75.9783 86.9653C73.5295 85.1647 71.2967 83.6522 69.208 81.9236C68.6318 81.4915 68.6318 80.4111 68.3438 79.6189C69.136 79.6189 70.0723 79.3308 70.6485 79.6909C73.3854 81.4915 76.0503 83.5082 78.7152 85.4528C80.0116 86.3891 80.0116 87.4695 78.7152 88.4058C76.0503 90.3504 73.3854 92.3671 70.6485 94.1677C70.1443 94.5278 69.136 94.2397 68.3438 94.2397C68.6318 93.4474 68.6318 92.3671 69.208 91.9349C71.2967 90.2064 73.5295 88.6939 75.9783 86.9653Z" fill="#1D1655"/>
<path d="M45.5758 86.8922C47.9526 88.6208 50.1133 90.0613 52.13 91.7178C52.7782 92.222 52.8502 93.3744 53.2103 94.2386C52.3461 94.1666 51.3377 94.4547 50.6895 94.0226C48.0966 92.294 45.5758 90.3494 43.055 88.5488C41.5425 87.4684 41.3264 86.4601 42.983 85.3077C45.5758 83.4351 48.1687 81.4904 50.8335 79.6898C51.4097 79.3297 52.4901 79.6898 53.2824 79.6898C52.9943 80.4101 52.9222 81.4184 52.4181 81.8506C50.2574 83.5791 48.0246 85.0916 45.5758 86.8922Z" fill="#1D1655"/>
<path d="M65.6098 93.52C65.3937 93.8081 65.0336 94.6004 64.7455 94.6004C64.0973 94.5283 63.161 94.2402 62.8729 93.664C61.3604 91.0712 59.9919 88.3343 58.5514 85.6694C57.7592 84.2289 56.8949 82.7884 56.3187 81.2759C56.1026 80.7718 56.6068 79.9795 56.7508 79.2593C57.327 79.4033 58.2633 79.4033 58.5514 79.8355C60.9282 84.0849 63.161 88.4063 65.3937 92.6557C65.4657 92.8718 65.4657 93.0158 65.6098 93.52Z" fill="#1D1655"/>
<path d="M63.4398 61.0348C58.11 61.0348 52.7803 61.1068 47.4505 60.9628C46.5862 60.9628 45.794 60.2426 44.9297 59.8104C45.7219 59.3062 46.5862 58.3699 47.3785 58.3699C58.2541 58.2979 69.2017 58.2979 80.0773 58.3699C80.8696 58.3699 81.6618 59.2342 82.5261 59.6664C81.7339 60.0985 80.9416 60.9628 80.1493 60.9628C74.6035 61.0348 69.0577 61.0348 63.4398 61.0348Z" fill="#19164C"/>
<path d="M63.8859 42.2382C58.4841 42.2382 53.0823 42.3102 47.6805 42.1662C46.7442 42.1662 45.8799 41.3019 45.0156 40.8697C45.8799 40.3656 46.7442 39.5013 47.6085 39.5013C58.4121 39.4293 69.2156 39.4293 80.0192 39.5013C80.8835 39.5013 81.7478 40.4376 82.6121 40.9418C81.8198 41.3739 80.9555 42.1662 80.1632 42.1662C74.6894 42.3102 69.2876 42.2382 63.8859 42.2382Z" fill="#19164C"/>
<path d="M64.0299 45.6948C69.3597 45.6948 74.6894 45.6227 79.9472 45.7668C80.8115 45.7668 81.6757 46.7031 82.54 47.2073C81.7478 47.6394 80.8835 48.4317 80.0912 48.4317C69.2876 48.5037 58.4841 48.5037 47.6805 48.4317C46.8162 48.4317 45.8799 47.5674 45.0156 47.1352C45.8799 46.6311 46.7442 45.7668 47.6085 45.7668C53.0823 45.6227 58.5561 45.6948 64.0299 45.6948Z" fill="#19164C"/>
<path d="M63.7999 54.7709C58.3981 54.7709 52.9964 54.8429 47.5946 54.6988C46.7303 54.6988 45.866 53.8346 44.9297 53.4024C45.794 52.9703 46.6583 52.106 47.5946 52.106C58.3261 52.034 69.0577 52.034 79.7892 52.034C80.0773 52.034 80.3654 51.9619 80.5815 52.034C81.3017 52.5381 81.9499 53.0423 82.5981 53.5465C81.9499 53.9786 81.3017 54.6988 80.5815 54.6988C74.9636 54.7709 69.4178 54.7709 63.7999 54.7709Z" fill="#19164C"/>
<path d="M35.3678 15.7341C37.1976 15.7341 38.6809 14.2508 38.6809 12.421C38.6809 10.5912 37.1976 9.10791 35.3678 9.10791C33.538 9.10791 32.0547 10.5912 32.0547 12.421C32.0547 14.2508 33.538 15.7341 35.3678 15.7341Z" fill="#1D1655"/>
<path d="M50.8443 15.7341C52.6741 15.7341 54.1574 14.2508 54.1574 12.421C54.1574 10.5912 52.6741 9.10791 50.8443 9.10791C49.0146 9.10791 47.5312 10.5912 47.5312 12.421C47.5312 14.2508 49.0146 15.7341 50.8443 15.7341Z" fill="#1D1655"/>
<path d="M19.8678 15.7341C21.6976 15.7341 23.1809 14.2508 23.1809 12.421C23.1809 10.5912 21.6976 9.10791 19.8678 9.10791C18.038 9.10791 16.5547 10.5912 16.5547 12.421C16.5547 14.2508 18.038 15.7341 19.8678 15.7341Z" fill="#1D1655"/>
<path d="M105.887 13.7887H62.0247C61.2324 13.7887 60.6562 13.1404 60.6562 12.4202C60.6562 11.6279 61.3045 11.0518 62.0247 11.0518H105.887C106.679 11.0518 107.256 11.7 107.256 12.4202C107.256 13.1404 106.607 13.7887 105.887 13.7887Z" fill="#1D1655"/>
<path d="M81.1716 42.2384H46.3841C45.5918 42.2384 45.0156 41.5902 45.0156 40.8699C45.0156 40.0777 45.6638 39.5015 46.3841 39.5015H81.1716C81.9638 39.5015 82.54 40.1497 82.54 40.8699C82.612 41.5902 81.9638 42.2384 81.1716 42.2384Z" fill="white"/>
<path d="M81.1716 48.504H46.3841C45.5918 48.504 45.0156 47.8558 45.0156 47.1355C45.0156 46.3433 45.6638 45.7671 46.3841 45.7671H81.1716C81.9638 45.7671 82.54 46.4153 82.54 47.1355C82.612 47.8558 81.9638 48.504 81.1716 48.504Z" fill="white"/>
<path d="M81.1716 54.7701H46.3841C45.5918 54.7701 45.0156 54.1219 45.0156 53.4017C45.0156 52.6094 45.6638 52.0332 46.3841 52.0332H81.1716C81.9638 52.0332 82.54 52.6814 82.54 53.4017C82.612 54.1939 81.9638 54.7701 81.1716 54.7701Z" fill="white"/>
<path d="M81.1716 61.109H46.3841C45.5918 61.109 45.0156 60.4608 45.0156 59.7405C45.0156 58.9483 45.6638 58.3721 46.3841 58.3721H81.1716C81.9638 58.3721 82.54 59.0203 82.54 59.7405C82.612 60.4608 81.9638 61.109 81.1716 61.109Z" fill="white"/>
</svg>
