<svg width="106" height="122" viewBox="0 0 106 122" fill="none" xmlns="http://www.w3.org/2000/svg">
<g clip-path="url(#clip0_561_696)">
<path d="M95.7233 46.4268C97.3917 46.5857 98.8218 47.6185 99.2985 49.128C99.7752 50.6375 99.2985 52.4648 97.9479 53.3388C95.7233 54.7688 93.4193 56.1989 91.1153 57.629C89.288 58.7413 87.0634 58.0262 86.0306 56.2784C84.9978 54.5305 85.5539 52.3059 87.3812 51.1937C89.5263 49.843 91.6714 48.4924 93.8166 47.2212C94.3727 46.824 95.0877 46.6651 95.7233 46.4268Z" fill="#82CBAD"/>
<path d="M66.7276 85.9129V90.6004C66.7276 90.6798 66.7276 90.7593 66.7276 90.7593C66.6481 91.236 66.4892 91.7126 66.1714 92.1099C66.092 92.1893 65.9331 92.3482 65.8536 92.4277H65.7742C65.5358 92.5866 65.218 92.7455 64.8208 92.8249C63.7085 92.9838 62.6757 93.4605 61.8018 94.1755C60.9278 94.8906 60.2922 95.844 59.895 96.9562C59.4978 98.2274 58.9416 99.4986 58.3855 100.69C57.9882 101.564 57.7499 102.438 57.7499 103.392C57.7499 104.663 58.1471 105.934 58.9416 107.046C59.2594 107.443 59.4183 107.92 59.4183 108.397C59.4183 108.953 59.18 109.509 58.7827 109.986L55.2075 113.561C54.7309 114.038 54.1747 114.197 53.6186 114.197C53.1419 114.197 52.7446 114.038 52.2679 113.72C51.2351 112.925 49.8845 112.528 48.6133 112.528C47.7394 112.528 46.786 112.766 45.9121 113.164C44.7203 113.72 43.4492 114.276 42.178 114.673C41.0657 114.991 40.1123 115.706 39.4767 116.501C38.7617 117.374 38.285 118.407 38.1261 119.52C38.0467 120.076 37.8083 120.552 37.4111 120.87C37.0138 121.188 36.5372 121.426 35.981 121.426H30.8963C30.3402 121.426 29.8635 121.267 29.4662 120.87C29.069 120.552 28.8307 120.076 28.7512 119.52C28.5923 118.407 28.1156 117.374 27.4006 116.501C26.6855 115.627 25.7322 114.991 24.6993 114.673C23.4282 114.276 22.157 113.72 20.9653 113.164C20.0913 112.766 19.2174 112.528 18.264 112.528C16.9928 112.528 15.7217 112.925 14.6094 113.72C14.2121 114.038 13.7354 114.197 13.2588 114.197C12.7026 114.197 12.1465 113.958 11.6698 113.561L8.09461 109.986C7.61792 109.509 7.45902 108.953 7.45902 108.397C7.45902 107.92 7.61792 107.443 7.85626 107.046C8.65075 105.934 9.04799 104.663 9.04799 103.392C9.04799 102.518 8.80964 101.564 8.4124 100.69C7.85626 99.4986 7.30012 98.2274 6.90288 96.9562C6.50564 95.844 5.87005 94.8906 4.99612 94.1755C4.12218 93.4605 3.08935 92.9838 1.97708 92.8249C1.57983 92.7455 1.26204 92.666 1.02369 92.4277H0.944246C0.864797 92.3482 0.7059 92.2688 0.626452 92.1099C0.308658 91.7126 0.0703125 91.3154 0.0703125 90.7593C0.0703125 90.6798 0.0703125 90.6798 0.0703125 90.6004V85.9129V85.5157C0.0703125 85.1184 0.149761 84.7212 0.388106 84.4034C0.547003 84.0856 0.785349 83.8472 1.10314 83.6089C1.34149 83.45 1.65928 83.2911 1.97708 83.2911C3.08935 83.1322 4.12218 82.6555 4.99612 81.9405C5.87005 81.2254 6.50564 80.2721 6.90288 79.1598C7.30012 77.8886 7.85626 76.6174 8.4124 75.4257C8.80964 74.5518 9.04799 73.6778 9.04799 72.7245C9.04799 71.4533 8.65075 70.1821 7.85626 69.0698C7.53847 68.6726 7.45902 68.1959 7.45902 67.7192C7.45902 67.1631 7.69736 66.6069 8.09461 66.1302L11.6698 62.5551C12.1465 62.0784 12.7026 61.9195 13.2588 61.9195C13.7354 61.9195 14.1327 62.0784 14.6094 62.3167C15.6422 63.1112 16.9928 63.5084 18.264 63.5084C19.1379 63.5084 20.0913 63.2701 20.9653 62.8728C22.157 62.3167 23.4282 61.7606 24.6993 61.3633C25.8116 60.9661 26.765 60.3305 27.4006 59.4566C28.1156 58.5826 28.5923 57.5498 28.7512 56.4375C28.8307 55.8814 29.1484 55.4047 29.4662 55.0869C29.8635 54.7691 30.3402 54.5308 30.8963 54.5308H35.981C36.5372 54.5308 37.0138 54.6897 37.4111 55.0869C37.8083 55.4047 38.0467 55.8814 38.1261 56.4375C38.285 57.5498 38.7617 58.5826 39.4767 59.4566C40.1918 60.3305 41.1452 60.9661 42.178 61.3633C43.4492 61.7606 44.7203 62.3167 45.9121 62.8728C46.786 63.2701 47.6599 63.5084 48.6133 63.5084C49.8845 63.5084 51.1557 63.1112 52.2679 62.3167C52.6652 61.9989 53.1419 61.84 53.6186 61.84C54.1747 61.84 54.7309 62.0784 55.2075 62.4756L58.7827 66.0508C59.2594 66.5275 59.4183 67.0836 59.4183 67.6398C59.4183 68.1164 59.2594 68.5137 58.9416 68.9904C58.1471 70.1027 57.7499 71.3738 57.7499 72.645C57.7499 73.5189 57.9882 74.4723 58.3855 75.3463C58.9416 76.538 59.4978 77.8092 59.895 79.0803C60.2922 80.1926 60.9278 81.146 61.8018 81.861C62.6757 82.5761 63.7085 83.0528 64.8208 83.2117C65.1386 83.2911 65.4564 83.3706 65.6947 83.5294C66.0125 83.7678 66.2509 84.0061 66.4098 84.3239C66.5687 84.6417 66.7276 85.039 66.7276 85.4362V85.9129Z" fill="#82CBAD"/>
<path d="M61.878 16.2363C64.182 15.5213 66.4066 14.8063 68.7106 14.0912C68.1544 12.4228 67.6777 10.7544 67.1216 9.16541C66.4066 6.86141 65.6121 4.47795 64.897 2.17395C64.4998 0.982221 64.9765 0.346633 66.2477 0.426082C72.1268 0.823324 77.4499 5.66968 78.4827 11.5489C79.1183 15.124 78.4827 18.4609 76.576 21.5594C76.3376 21.8772 76.4171 22.1155 76.576 22.4333C77.2115 23.625 77.8471 24.8168 78.4827 26.0085C78.88 26.7235 78.7211 27.3591 78.1649 27.6769C77.5293 27.9947 76.8937 27.7563 76.4965 27.0413C75.9404 26.0085 75.3842 24.9757 74.9075 24.0223C73.8747 24.8168 72.8419 25.5318 71.7296 26.2468C71.4913 26.4057 71.2529 26.5646 71.0146 26.6441C70.379 26.9619 69.7434 26.7235 69.4256 26.1674C69.1873 25.6112 69.3461 24.9757 69.9817 24.6579C71.3324 23.9428 72.5241 23.0689 73.5569 21.9566C79.1978 15.4418 76.3376 5.43133 68.3133 3.04788C68.1544 2.96843 67.9161 2.96843 67.5983 2.88898C67.8366 3.76292 68.075 4.47795 68.3133 5.27244C69.2667 8.13258 70.1406 11.0722 71.094 13.9323C71.4913 15.2035 71.2529 15.6007 70.0612 15.998C67.3599 16.8719 64.6587 17.7458 61.9574 18.6198C60.7657 19.017 60.3685 18.7787 59.9712 17.5869C58.859 14.0118 57.6672 10.4366 56.5549 6.86141C56.4755 6.70251 56.4755 6.62306 56.3166 6.30527C55.681 7.3381 55.0454 8.13258 54.6482 9.00651C51.1524 15.998 55.681 24.4195 63.3875 25.4523C64.182 25.5318 64.9765 25.5318 65.771 25.5318C66.7243 25.5318 67.201 26.1674 66.9627 27.0413C66.8832 27.2002 66.9627 27.518 67.0421 27.6769C67.3599 28.3919 67.7572 29.107 68.075 29.822C68.3928 30.537 68.2339 31.1726 67.6777 31.4904C67.0421 31.8082 66.4066 31.5699 66.0888 30.7754C65.6915 29.9809 65.2943 29.107 64.897 28.3125C64.7381 27.9152 64.4998 27.8358 64.1025 27.7563C59.3356 27.2797 55.6016 25.0551 53.1387 20.9238C49.7224 15.4418 50.9141 8.05313 55.7605 3.76292C55.9988 3.52457 56.2371 3.36567 56.5549 3.20678C57.1905 2.96843 57.8261 3.36567 58.0645 4.16016C58.8589 6.62306 59.574 9.00652 60.3685 11.4694C60.9246 13.0584 61.4013 14.5679 61.878 16.2363Z" fill="white"/>
<path d="M89.8434 35.3039C92.1475 35.2244 93.9748 35.9395 95.2459 37.9257C96.5171 39.8324 96.5171 41.8187 95.7226 43.9638C98.0266 44.4405 99.6951 45.6322 100.49 47.7773C101.284 49.9224 100.887 51.9881 99.4567 53.8948C99.6156 53.9743 99.854 54.0537 100.013 54.1332C103.588 55.9605 103.906 61.0452 100.49 63.1903C99.1389 64.0642 97.7088 64.9382 96.2788 65.8121C93.1008 67.7189 89.1284 65.971 88.3339 62.3164C88.175 61.6013 88.3339 60.7274 88.3339 59.9329C83.7259 59.8535 81.0247 55.166 82.7725 51.4319C82.5342 50.7963 82.2958 50.3196 82.2958 49.8429C82.2958 49.2074 82.852 48.8896 83.4876 48.969C84.3615 49.1279 85.0765 48.8101 85.7916 48.3334C87.9367 46.9828 90.0818 45.6322 92.2269 44.2816C93.5775 43.4076 94.2131 42.2159 93.9748 40.6269C93.8159 39.038 92.9419 37.9257 91.353 37.5284C90.0023 37.1312 88.7312 37.5284 87.5394 38.2435C87.0627 38.4818 86.5861 38.7996 86.1094 39.1174C85.4738 39.4352 84.8382 39.3558 84.5204 38.7996C84.2026 38.2435 84.3615 37.6079 84.9971 37.2106C85.3943 36.9723 85.7121 36.8134 86.1094 36.5751C87.7778 35.4628 88.3339 33.3177 87.3011 31.5698C86.2683 29.8219 84.1232 29.1863 82.3753 30.1397C81.1041 30.8548 79.8329 31.6493 78.5618 32.4437C78.3234 32.6026 78.0851 32.7615 77.8467 32.841C77.2906 33.0793 76.655 32.9204 76.3372 32.3643C76.0194 31.8876 76.1783 31.1726 76.655 30.9342C78.3234 29.9014 79.9124 28.7891 81.5808 27.9946C83.7259 26.9618 85.871 27.2796 87.7778 28.7891C89.6846 30.2986 90.2407 32.2848 89.9229 34.6683C89.9229 34.9066 89.9229 35.0655 89.8434 35.3039ZM94.8487 46.0294C94.2131 46.2678 93.4981 46.4267 92.8625 46.7445C90.7174 48.0156 88.5723 49.3663 86.4272 50.7169C84.5998 51.8292 84.0437 54.0537 85.0765 55.8016C86.1094 57.6289 88.3339 58.2645 90.1612 57.1522C92.4652 55.8016 94.7693 54.3715 96.9938 52.862C98.3444 51.9881 98.9006 50.2402 98.3444 48.6512C97.9472 47.2211 96.4377 46.1883 94.8487 46.0294ZM93.5775 64.4615C94.0542 64.3026 94.6104 64.2231 95.087 63.9053C96.5171 63.1108 97.8677 62.1575 99.2184 61.2835C100.569 60.4096 100.966 58.6617 100.172 57.3111C99.3773 55.9605 97.7088 55.4043 96.2788 56.1988C94.6898 57.0728 93.1803 58.0261 91.7502 58.9795C90.7174 59.6946 90.3201 61.0452 90.7174 62.3164C91.1146 63.5081 92.2269 64.3026 93.5775 64.4615Z" fill="white"/>
<path d="M68.3949 43.8048C68.3949 43.487 68.3949 43.2487 68.3949 42.9309C68.3949 42.2953 68.8716 41.8186 69.5072 41.8186C70.1428 41.8186 70.6195 42.2158 70.6195 42.9309C70.6195 43.5665 70.6195 44.202 70.6989 44.8376C70.6989 44.9965 70.8578 45.2349 71.0167 45.3143C72.5263 45.8705 73.9563 46.4266 75.4659 46.8238C77.8493 47.38 80.3122 45.5527 80.4711 42.9309C80.5506 41.1036 79.5972 39.5146 77.9288 38.7201C76.2603 37.9256 74.5919 37.29 73.003 36.4161C71.3345 35.5422 69.5867 35.3833 67.6799 35.7011C65.4553 36.0983 63.1513 36.3366 60.9268 36.6544C58.2255 36.9722 56.1599 39.1173 55.4448 41.8186C54.1737 46.4266 53.6175 51.1141 52.823 55.8015C52.1875 59.2178 50.6779 62.0779 47.6589 63.9847C46.2288 64.9381 44.9576 65.9709 43.607 67.0037C41.0647 68.9105 38.5223 70.7378 35.98 72.6446C35.5033 72.9624 35.0266 73.0418 34.5499 72.8035C34.1527 72.5651 33.9143 72.0884 34.0732 71.6118C34.1527 71.294 34.4705 70.9762 34.7088 70.7378C37.1717 68.9105 39.6346 67.0832 42.177 65.2559C43.607 64.2231 44.9576 63.1108 46.4672 62.0779C48.6123 60.6479 49.8835 58.6617 50.3601 56.1193C50.8368 53.8153 51.1546 51.4319 51.6313 49.0484C52.1875 46.1883 52.7436 43.3281 53.5381 40.5474C54.412 37.2106 57.4311 34.8271 61.0062 34.3504C63.4691 34.0326 66.0115 33.6354 68.4744 33.3176C70.0634 33.0793 71.5729 33.2382 73.003 33.8737C75.0686 34.7477 77.0548 35.7011 79.041 36.7339C81.8217 38.0845 83.3313 41.183 82.6162 44.1226C81.8217 47.2211 79.1205 49.2867 75.9425 49.1278C75.4659 49.1278 74.9097 48.9689 74.433 48.8101C72.9235 48.3334 71.414 47.7772 69.9045 47.3005C69.6661 47.2211 69.3483 47.2211 69.1894 47.3005C67.8388 47.7772 66.4882 48.3334 65.1376 48.8895C64.3431 49.2073 63.9458 49.1278 63.4691 48.4128C62.9924 47.8567 62.5158 47.2211 62.1185 46.6649C61.6418 46.0294 61.7213 45.3938 62.198 44.9965C62.7541 44.5993 63.3897 44.6787 63.8664 45.3143C64.1842 45.7116 64.502 46.3471 64.8992 46.506C65.2964 46.5855 65.8526 46.1883 66.3293 46.0294C66.806 45.8705 67.2032 45.6321 67.6799 45.5527C68.236 45.3938 68.3949 45.1554 68.3155 44.5993C68.3949 44.2815 68.4744 44.0431 68.3949 43.8048C68.4744 43.8048 68.4744 43.8048 68.3949 43.8048Z" fill="white"/>
<path d="M14.5312 88.2168C14.6107 79.1596 20.331 71.0559 28.832 68.1163C28.9909 68.0369 29.1498 67.9574 29.3881 67.9574C30.1031 67.7985 30.6593 68.1163 30.8976 68.6724C31.136 69.308 30.8182 69.9436 30.1031 70.2614C29.0703 70.7381 28.0375 71.0559 27.0841 71.612C20.1721 75.6639 16.7558 81.702 17.2325 89.6468C17.7092 98.1478 24.3829 105.457 32.7249 106.967C40.8287 108.397 48.7735 104.583 52.8254 97.4328C53.0638 97.0355 53.3815 96.7177 53.6993 96.5589C54.0966 96.3205 54.6527 96.4794 54.9705 96.8766C55.2883 97.3533 55.3678 97.83 55.05 98.3067C54.0966 99.6573 53.3021 101.167 52.1898 102.359C48.1379 106.967 42.9738 109.43 36.7768 109.668C25.9718 110.065 16.9147 102.279 15.0874 92.1892C14.7696 90.8386 14.6901 89.5674 14.5312 88.2168Z" fill="white"/>
<path d="M105.1 78.524C105.1 82.0992 102.558 85.2771 98.9031 86.0716C95.4074 86.8661 91.6733 85.0388 90.0844 81.7814C85.6352 72.5654 81.2656 63.4288 76.8165 54.2128C76.6576 53.9745 76.5781 53.6567 76.5781 53.3389C76.5781 52.7827 76.8959 52.4649 77.4521 52.306C77.9287 52.1471 78.4849 52.4649 78.7232 53.0211C79.5972 54.7689 80.3916 56.5168 81.2656 58.1852C84.8408 65.6534 88.4954 73.201 92.0706 80.6691C93.1829 82.9731 95.4869 84.2443 97.7909 83.9265C100.254 83.6087 102.161 81.8609 102.637 79.4774C102.955 78.2062 102.717 76.9351 102.161 75.7433C100.81 73.201 99.4593 70.6586 98.1087 68.0368C97.9498 67.719 97.7909 67.3218 97.8703 67.004C97.8703 66.5273 98.2675 66.1301 98.7442 66.0506C99.3004 65.9712 99.6976 66.2095 99.936 66.6862C100.73 68.1163 101.445 69.5464 102.161 70.897C102.796 72.0887 103.432 73.3599 104.067 74.5516C104.862 75.8228 105.18 77.0145 105.1 78.524Z" fill="white"/>
<path d="M82.5365 74.472C82.1393 74.8693 81.9009 75.346 81.5832 75.5843C78.8025 77.7294 75.6245 79.0006 72.2082 79.6362C70.4604 79.954 68.6331 80.1923 67.1235 81.2251C66.0113 81.9402 65.0579 82.8141 64.025 83.688C60.5293 86.7865 57.0336 89.885 53.6173 92.9041C53.5379 92.9835 53.4584 93.063 53.379 93.1424C52.7434 93.6191 52.1078 93.6191 51.6311 93.063C51.2338 92.5863 51.3133 91.9507 51.8694 91.3945C53.2201 90.2028 54.4912 89.0111 55.8419 87.8988C58.3842 85.6743 61.006 83.4497 63.4689 81.1457C65.5346 79.2389 67.9975 78.0472 70.6987 77.5705C74.2739 77.0144 77.5313 75.7432 80.3914 73.5186C80.7887 73.2008 81.2654 73.042 81.6626 73.3597C82.0598 73.6775 82.2187 74.0748 82.5365 74.472Z" fill="white"/>
<path d="M35.5078 84.0061C35.7462 83.6088 35.9051 83.2116 36.1434 83.0527C41.0692 79.2392 45.995 75.3462 50.8414 71.5327C51.477 71.056 52.1125 71.1354 52.5098 71.6121C52.907 72.1683 52.8276 72.8038 52.192 73.2805C47.3456 77.0941 42.4198 80.9076 37.5735 84.7211C37.0968 85.0389 36.6201 85.1978 36.1434 84.88C35.9051 84.7211 35.7462 84.3239 35.5078 84.0061Z" fill="white"/>
<path d="M71.6573 57.9467C71.6573 61.5219 70.545 63.5876 68.7971 65.4943C68.3204 66.0505 67.6848 66.0505 67.1287 65.6532C66.652 65.256 66.5726 64.5409 67.1287 63.9848C68.0026 63.0314 68.7971 61.9191 69.1149 60.648C69.6711 58.6618 69.1944 56.8344 68.241 55.0866C67.8437 54.451 67.4465 53.8948 66.9698 53.2593C66.5726 52.7031 66.5726 51.9881 66.9698 51.5908C67.4465 51.1141 68.1615 51.1936 68.6382 51.7497C70.545 53.8154 71.6573 56.1194 71.6573 57.9467Z" fill="white"/>
<path d="M50.8399 81.8606C50.1248 81.8606 49.807 81.6223 49.5687 81.1456C49.4098 80.5894 49.5687 80.1922 49.9659 79.795C51.7138 78.3649 53.4617 76.9348 55.2095 75.4253C55.5273 75.187 55.8451 74.8692 56.1629 74.6308C56.7191 74.2336 57.3547 74.313 57.7519 74.7897C58.1491 75.2664 58.0697 75.9814 57.593 76.3787C55.5273 78.1265 53.4617 79.795 51.396 81.5428C51.2371 81.7812 50.9988 81.8606 50.8399 81.8606Z" fill="white"/>
<path d="M93.5787 64.4618C92.2281 64.3823 91.1158 63.5084 90.7185 62.3167C90.3213 61.1249 90.6391 59.6949 91.7514 58.9798C93.2609 58.0264 94.7704 57.0731 96.2799 56.1991C97.71 55.4046 99.3784 55.9608 100.173 57.3114C100.967 58.662 100.57 60.4099 99.2195 61.2838C97.8689 62.1578 96.4388 63.0317 95.0882 63.9056C94.6115 64.2234 94.0554 64.3029 93.5787 64.4618Z" fill="#82CBAD"/>
<path d="M97.0751 81.2253C98.7863 81.2253 100.174 79.8381 100.174 78.1268C100.174 76.4156 98.7863 75.0283 97.0751 75.0283C95.3638 75.0283 93.9766 76.4156 93.9766 78.1268C93.9766 79.8381 95.3638 81.2253 97.0751 81.2253Z" fill="#82CBAD"/>
</g>
<defs>
<clipPath id="clip0_561_696">
<rect width="105.031" height="121" fill="white" transform="translate(0.0703125 0.34668)"/>
</clipPath>
</defs>
</svg>
