<svg width="127" height="122" viewBox="0 0 127 122" fill="none" xmlns="http://www.w3.org/2000/svg">
<g clip-path="url(#clip0_561_764)">
<path d="M7.03081 44.4228V42.0802L8.29216 40.6387L10.905 38.5665L14.1485 37.3952H15.4999L16.9415 38.7467L18.9236 39.4674L22.4374 38.0259L25.3205 37.3952H27.663L29.555 34.6923L32.8886 32.9805H35.5014L37.6637 33.9715L39.7359 35.1428L40.3666 37.1249V38.7467V39.7377V40.909L41.7181 42.0802L42.3488 43.0713C42.3488 43.0713 43.2497 43.702 43.6101 43.9723C43.9705 44.2426 44.5111 44.5129 44.6913 44.7831C44.7814 45.0534 45.412 45.8643 45.412 45.8643L46.1328 47.0356L46.6734 47.9365H47.1239H48.205H49.106H49.8268L51.6287 48.6573L52.4396 49.1979L53.1604 50.2791V50.7295L53.6109 51.18V51.9909C53.6109 51.9909 53.4307 52.982 53.791 53.2522C54.1514 53.5225 54.2415 53.6126 54.3316 54.1532C54.4217 54.6938 54.4217 53.6126 54.4217 54.6938C54.4217 55.775 54.4217 56.3155 54.4217 56.4056C54.4217 56.4957 54.4217 56.4957 54.4217 56.4957V57.3967C54.4217 57.3967 54.692 57.5769 54.4217 57.8472C54.1514 58.1175 53.791 58.8382 53.791 58.8382C53.791 58.8382 54.2415 59.1085 53.6109 59.3788C53.0703 59.6491 52.8901 59.8293 52.5297 59.8293C52.1693 59.8293 51.4485 59.8293 51.4485 59.8293C51.4485 59.8293 50.998 60.0095 51.0881 60.5501C51.1782 61.0907 50.7278 61.1808 50.7278 61.1808L50.4575 61.9015L50.1872 62.4421L49.9169 62.8926L49.7367 63.4332C49.7367 63.4332 49.8268 63.7936 49.7367 64.0639C49.6466 64.3342 49.106 65.4153 49.106 65.4153L48.3852 66.8569L48.1149 67.7578C48.1149 67.7578 47.8447 68.4786 47.8447 68.9291C47.8447 69.2895 47.8447 69.8301 47.8447 69.8301L48.2951 71.4518C48.2951 71.4518 48.4753 71.632 48.4753 72.3528C48.4753 73.0735 48.5654 73.8844 48.5654 73.8844V74.6953V75.4161L48.205 76.0467L47.7546 77.4883C47.7546 77.4883 47.4843 77.3982 47.0338 78.0289C46.5833 78.6595 46.313 79.2902 46.313 79.2902H45.7724L44.8715 79.8308C44.8715 79.8308 43.1596 80.4615 42.9794 80.3714C42.8893 80.1912 42.8893 80.1912 42.8893 80.1912L42.1686 80.3714H40.9072H39.826L38.2043 79.2902C38.2043 79.2902 38.2944 79.0199 36.7627 79.2902C35.2311 79.5605 33.7896 79.7407 33.7896 79.7407L31.8975 80.3714L28.2036 81.0021C28.2036 81.0021 27.3026 82.3535 27.2125 82.6238C27.1224 82.8941 26.3115 83.9753 26.3115 83.9753L24.5997 84.7861H23.2482H22.3473L17.6622 84.2455L15.2296 81.1823L15.3197 78.4794L15.1395 76.4972L13.5178 74.9656L11.2654 72.6231L9.01294 69.5598L6.21994 70.4607L3.78732 68.839L2.70616 66.4064L1.625 62.5322L2.25568 60.46L3.33684 58.7482L5.76945 57.7571L6.85061 55.8651L7.3011 53.3423L8.83274 50.0088V47.5761L7.03081 44.4228Z" fill="#82CBAD"/>
<path d="M83.8781 10.2759H78.4723C77.7515 10.2759 77.2109 10.8165 77.2109 11.5372C77.2109 12.258 77.7515 12.7986 78.4723 12.7986H83.8781C84.5989 12.7986 85.1395 12.258 85.1395 11.5372C85.2296 10.8165 84.5989 10.2759 83.8781 10.2759Z" fill="white"/>
<path d="M99.0187 10.2759H93.6129C92.8921 10.2759 92.3516 10.8165 92.3516 11.5372C92.3516 12.258 92.8921 12.7986 93.6129 12.7986H99.0187C99.7395 12.7986 100.28 12.258 100.28 11.5372C100.37 10.8165 99.7395 10.2759 99.0187 10.2759Z" fill="white"/>
<path d="M114.152 10.2759H108.746C108.025 10.2759 107.484 10.8165 107.484 11.5372C107.484 12.258 108.025 12.7986 108.746 12.7986H114.152C114.872 12.7986 115.413 12.258 115.413 11.5372C115.503 10.8165 114.872 10.2759 114.152 10.2759Z" fill="white"/>
<path d="M4.23455 59.7392L6.57707 59.1085C7.11765 58.9283 7.47803 58.4779 7.56813 57.9373C7.65823 56.4957 7.92852 54.9641 8.28891 53.5225C8.73939 51.8107 9.46016 50.1889 10.3611 48.6573C10.6314 48.1167 10.5413 47.486 10.1809 47.1257L8.64929 45.594L8.91958 42.1703L12.2532 38.9268L15.6768 38.7467L17.3887 40.4585C17.7491 40.8189 18.3797 40.9991 18.9203 40.7288C21.8935 39.1971 25.137 38.4764 28.4706 38.4764C29.1013 38.4764 29.5517 38.116 29.7319 37.4853L30.2725 35.4131L33.4259 33.9715L37.9307 35.2329L39.8228 38.116L39.1921 40.4585C39.0119 40.9991 39.2822 41.5397 39.7327 41.9C42.4356 43.702 44.7781 46.1346 46.3098 49.0177C46.58 49.5583 47.2107 49.7385 47.7513 49.6484L49.8235 49.1078L52.6165 51.0899L53.7878 55.5947L52.2561 58.658L49.9136 59.2887C49.373 59.4689 49.0127 59.9194 48.9226 60.46C48.8325 61.9015 48.5622 63.4332 48.2018 64.8747C47.7513 66.5866 47.0305 68.2984 46.1296 69.83C45.8593 70.3706 45.9494 71.0013 46.3098 71.3617L47.8414 72.8933L47.5711 76.317L44.1474 79.3803L40.7238 79.5605L39.0119 77.8487C38.6515 77.4883 38.0208 77.3081 37.4803 77.5784C34.5071 79.0199 31.2636 79.8308 28.0201 79.7407C27.4795 79.7407 26.9389 80.1011 26.7587 80.7318L26.2182 82.804L23.0648 84.2455L18.5599 82.9842L16.6679 80.1011L17.2986 77.7586C17.4788 77.218 17.2085 76.6774 16.758 76.317C14.0551 74.5151 11.7126 72.0825 10.0908 69.1994C9.82055 68.6588 9.18987 68.4786 8.64929 68.5687L6.57707 69.1093L3.69397 67.1271L2.52271 62.6223L4.23455 59.7392ZM106.945 42.0802C108.837 42.0802 110.369 43.6119 110.369 45.5039V115.96C110.369 117.852 108.837 119.383 106.945 119.383H38.8317C36.9397 119.383 35.408 117.852 35.408 115.96V81.2723L36.0387 81.0021C36.4892 80.8219 36.8496 80.7318 37.1199 80.5516L37.7506 80.2813L39.1921 81.7228C39.4624 81.9931 39.8228 82.1733 40.1832 82.0832L44.688 81.8129C44.9583 81.8129 45.3187 81.6327 45.4989 81.4525L49.4631 77.4883C49.6433 77.3081 49.8235 76.9477 49.8235 76.6774L50.1839 72.1726C50.1839 71.8122 50.0938 71.4518 49.8235 71.1815L48.6523 69.9201L48.9226 69.2895C49.5532 68.0281 50.0938 66.6767 50.4542 65.2351C50.7245 64.1539 50.9948 63.0728 51.175 61.9015L51.2651 61.2709L53.2472 60.7303C53.6076 60.6402 53.8779 60.3699 54.0581 60.0996L56.1303 56.0452C56.3105 55.7749 56.3105 55.4146 56.2204 55.1443L54.8689 49.7385C54.7789 49.4682 54.5987 49.1979 54.3284 49.0177L50.6344 46.495C50.3641 46.3148 49.9136 46.2247 49.5532 46.3148L47.8414 46.7653L47.481 46.1346C46.9404 45.2336 46.2197 44.4227 45.4989 43.6119L44.1474 42.0802H106.945ZM32.7952 101.094H24.5063C22.8846 101.094 21.6232 99.8323 21.6232 98.2105V86.6781L22.8846 86.9484C22.9747 86.9484 23.0648 86.9484 23.1549 86.9484C23.3351 86.9484 23.5153 86.9484 23.6955 86.8583L27.7498 84.8762C28.1102 84.696 28.3805 84.4257 28.4706 84.0653L28.9211 82.3535L29.6418 82.2634C30.2725 82.2634 30.9933 82.1733 31.624 82.0832L32.7952 81.903V101.094ZM21.6232 6.492C21.6232 4.87026 22.8846 3.6089 24.5063 3.6089H121.18C122.802 3.6089 124.063 4.87026 124.063 6.492V18.6551H21.6232V6.492ZM2.16232 58.0274L0.180194 62.0817C0 62.352 0 62.7124 0 62.9827L1.44155 68.3885C1.53165 68.6588 1.71184 68.9291 1.98213 69.1093L5.6761 71.632C5.94639 71.8122 6.39687 71.9023 6.75726 71.8122L8.4691 71.3617L8.82949 71.9924C10.271 74.1547 11.9829 76.0467 14.0551 77.5784L14.5957 78.0289L14.0551 80.011C13.965 80.3714 14.0551 80.7318 14.2353 81.0921L16.758 84.8762C16.9382 85.1465 17.2085 85.3267 17.4788 85.4168L19.1005 85.8673V98.2105C19.1005 101.274 21.5331 103.706 24.5964 103.706H32.8853V115.96C32.8853 119.293 35.5882 121.996 38.9218 121.996H107.035C110.369 121.996 113.071 119.293 113.071 115.96V103.706H121.36C124.424 103.706 126.856 101.274 126.856 98.2105V74.9656C126.856 74.2448 126.316 73.7042 125.595 73.7042C124.874 73.7042 124.334 74.2448 124.334 74.9656V98.2105C124.334 99.8323 123.072 101.094 121.45 101.094H113.162V45.5039C113.162 42.1703 110.459 39.4674 107.125 39.4674H42.2554L42.6158 38.2061C42.7059 37.8457 42.6158 37.4853 42.4356 37.1249L40.003 33.3408C39.8228 33.0706 39.5525 32.8904 39.2822 32.8003L33.8764 31.2686C33.6061 31.1785 33.2457 31.1785 32.9754 31.3587L28.9211 33.2507C28.5607 33.4309 28.2904 33.7012 28.2003 34.0616L27.7498 35.7735H27.029C25.7677 35.8636 24.4162 36.0437 23.1549 36.314L21.6232 36.7645V21.2679H124.153V59.3788C124.153 60.0996 124.694 60.6402 125.415 60.6402C126.136 60.6402 126.676 60.0996 126.676 59.3788V6.492C126.676 3.42871 124.243 0.996094 121.18 0.996094H24.5063C21.443 0.996094 19.0104 3.42871 19.0104 6.492V38.3863L17.1184 36.4041C16.8481 36.1338 16.4877 35.9537 16.1273 36.0437L11.6225 36.314C11.3522 36.314 10.9918 36.4942 10.8116 36.6744L6.75726 40.6387C6.57707 40.8189 6.39687 41.1793 6.39687 41.4496L6.03649 45.9544C6.03649 46.3148 6.12658 46.6752 6.39687 46.9455L7.65823 48.2068L7.38794 48.8375C6.75726 50.0988 6.21668 51.4503 5.85629 52.8018C5.586 53.8829 5.31571 55.0542 5.13552 56.1353L5.04542 56.8561L2.97319 57.3967C2.61281 57.4868 2.34252 57.667 2.16232 58.0274Z" fill="white"/>
<path d="M16.5795 55.8652C18.021 50.6396 22.7961 47.0357 28.202 47.0357C29.2831 47.0357 30.3643 47.2159 31.4454 47.4862C34.5988 48.3872 37.1215 50.3693 38.7433 53.2524C40.365 56.0454 40.7254 59.379 39.8244 62.4423C38.9235 65.5957 36.9413 68.1184 34.0582 69.7401C32.2563 70.7312 30.1841 71.2718 28.1119 71.2718C27.0307 71.2718 25.8594 71.0916 24.7783 70.8213C21.6249 69.9203 19.1022 67.9382 17.4804 65.0551C15.8587 62.172 15.6785 58.9285 16.5795 55.8652ZM24.2377 73.2539C25.5891 73.6143 26.9406 73.7945 28.202 73.7945C30.7247 73.7945 33.1573 73.1638 35.4097 71.9024C38.8334 70.0104 41.266 66.857 42.3471 63.073C43.4283 59.2889 42.9778 55.3246 40.9957 51.9009C39.1037 48.4773 35.9503 46.0447 32.1662 44.9635C24.3278 42.8012 16.2191 47.306 14.0568 55.1444C12.9756 58.9285 13.4261 62.8928 15.4082 66.3164C17.3002 69.7401 20.4536 72.2628 24.2377 73.2539Z" fill="white"/>
<path d="M64.9604 106.409C65.2307 106.68 65.5911 106.86 65.9514 106.86C66.3118 106.86 66.5821 106.77 66.8524 106.5C67.1227 106.229 67.2128 105.959 67.3029 105.599C67.3029 105.238 67.2128 104.878 66.9425 104.698L56.9418 93.7959L66.9425 81.9031C67.1227 81.6328 67.3029 81.2724 67.2128 80.912C67.2128 80.5516 67.0326 80.2813 66.7623 80.011C66.492 79.8309 66.1316 79.6507 65.7712 79.7408C65.4109 79.7408 65.1406 79.921 64.8703 80.1912L54.1488 92.8949C53.6983 93.4355 53.7884 94.1563 54.1488 94.6067L64.9604 106.409Z" fill="white"/>
<path d="M98.3846 93.7057L88.3838 104.607C88.1135 104.878 88.0234 105.238 88.0234 105.508C88.0234 105.869 88.2036 106.139 88.4739 106.409C88.7442 106.59 89.0145 106.77 89.3749 106.77C89.7353 106.77 90.0957 106.59 90.366 106.319L101.087 94.5166C101.538 94.0661 101.538 93.3454 101.087 92.8048L90.366 80.011C90.1858 79.7407 89.8254 79.5605 89.465 79.5605H89.3749C89.1046 79.5605 88.7442 79.6506 88.564 79.8308C88.2937 80.011 88.1135 80.3714 88.1135 80.7318C88.1135 81.0922 88.2036 81.4526 88.3838 81.7229L98.3846 93.7057Z" fill="white"/>
<path d="M74.6894 112.986C75.4102 113.077 76.0409 112.536 76.131 111.905L81.0863 75.7765C81.1764 75.4161 81.0863 75.0557 80.816 74.7854C80.6358 74.5151 80.2754 74.3349 79.915 74.2448C79.1943 74.1547 78.5636 74.6052 78.4735 75.326L73.5182 111.455C73.4281 111.815 73.5182 112.176 73.7885 112.446C74.0587 112.716 74.329 112.896 74.6894 112.986Z" fill="white"/>
<path d="M114.965 14.2403H109.469C108.208 14.2403 107.127 13.069 107.127 11.6275C107.127 10.186 108.208 9.01469 109.469 9.01469H114.965C116.227 9.01469 117.308 10.186 117.308 11.6275C117.308 13.069 116.317 14.2403 114.965 14.2403ZM99.5587 14.2403H94.0628C92.8015 14.2403 91.7203 13.069 91.7203 11.6275C91.7203 10.186 92.8015 9.01469 94.0628 9.01469H99.5587C100.82 9.01469 101.901 10.186 101.901 11.6275C101.901 13.069 100.82 14.2403 99.5587 14.2403ZM84.1522 14.2403H78.6563C77.3949 14.2403 76.3138 13.069 76.3138 11.6275C76.3138 10.186 77.3949 9.01469 78.6563 9.01469H84.1522C85.4135 9.01469 86.4947 10.186 86.4947 11.6275C86.4947 13.069 85.4135 14.2403 84.1522 14.2403ZM124.155 5.77121C124.155 4.59995 123.254 3.60889 122.173 3.60889H23.6071C22.526 3.60889 21.625 4.59995 21.625 5.77121V18.6551H124.155V5.77121Z" fill="#82CBAD"/>
<path d="M84.1527 8.02344H76.2242C74.3322 8.02344 72.8906 9.55508 72.8906 11.357C72.8906 13.2491 74.4223 14.6906 76.2242 14.6906H84.1527C86.0448 14.6906 87.4863 13.159 87.4863 11.357C87.5764 9.55508 86.0448 8.02344 84.1527 8.02344Z" fill="#19355E"/>
<path d="M101.27 8.02344H93.3414C91.4494 8.02344 90.0078 9.55508 90.0078 11.357C90.0078 13.2491 91.5395 14.6906 93.3414 14.6906H101.27C103.162 14.6906 104.603 13.159 104.603 11.357C104.694 9.55508 103.162 8.02344 101.27 8.02344Z" fill="#19355E"/>
<path d="M118.481 8.02344H110.552C108.66 8.02344 107.219 9.55508 107.219 11.357C107.219 13.2491 108.75 14.6906 110.552 14.6906H118.481C120.373 14.6906 121.814 13.159 121.814 11.357C121.814 9.55508 120.283 8.02344 118.481 8.02344Z" fill="#19355E"/>
<path d="M28.2922 71.1816C35.0595 71.1816 40.5454 65.6957 40.5454 58.9285C40.5454 52.1612 35.0595 46.6753 28.2922 46.6753C21.525 46.6753 16.0391 52.1612 16.0391 58.9285C16.0391 65.6957 21.525 71.1816 28.2922 71.1816Z" fill="white"/>
</g>
<defs>
<clipPath id="clip0_561_764">
<rect width="126.766" height="121" fill="white" transform="translate(0 0.996094)"/>
</clipPath>
</defs>
</svg>
