<svg width="116" height="122" viewBox="0 0 116 122" fill="none" xmlns="http://www.w3.org/2000/svg">
<path d="M60.9413 98.8943H60.7841L56.7261 98.7515C55.8294 98.7154 54.9699 98.3833 54.2822 97.807C53.5944 97.2308 53.1172 96.4429 52.9252 95.5668L51.9964 91.0681C51.9341 90.7833 51.8024 90.5182 51.6129 90.2965C51.4235 90.0748 51.1822 89.9032 50.9105 89.7971C49.2374 89.2347 47.6205 88.5175 46.0808 87.6549C45.8238 87.5014 45.53 87.4204 45.2306 87.4204C44.9312 87.4204 44.6374 87.5014 44.3804 87.6549L40.3652 89.7971C39.5669 90.2193 38.6507 90.3643 37.7609 90.2092C36.871 90.054 36.0581 89.6077 35.4498 88.9402L32.6921 85.9697C32.0825 85.3073 31.7098 84.4616 31.6322 83.5649C31.5547 82.6683 31.7766 81.7712 32.2634 81.0141L34.8068 77.1724C34.9775 76.9261 35.0793 76.6388 35.1019 76.3401C35.1245 76.0414 35.0671 75.742 34.9354 75.4729C34.151 73.8845 33.5195 72.2251 33.0493 70.5173C32.9701 70.2361 32.8192 69.9803 32.6113 69.775C32.4033 69.5697 32.1456 69.4219 31.8633 69.3462L27.4623 68.0751C26.6078 67.809 25.8648 67.2689 25.3482 66.5383C24.8317 65.8078 24.5703 64.9275 24.6045 64.0335L24.7903 60.0347C24.8296 59.1373 25.1648 58.278 25.7438 57.5909C26.3227 56.9037 27.1129 56.4273 27.991 56.2359L32.492 55.3076C32.7791 55.2502 33.0466 55.1204 33.2693 54.9304C33.4919 54.7404 33.6621 54.4966 33.7638 54.2222C34.3405 52.544 35.0824 50.927 35.9785 49.3951C36.1264 49.1363 36.2042 48.8434 36.2042 48.5454C36.2042 48.2474 36.1264 47.9545 35.9785 47.6957L33.7638 43.6397C33.3331 42.8506 33.178 41.9404 33.3229 41.0533C33.4678 40.1661 33.9045 39.3525 34.5639 38.7412L37.5217 36.0135C38.1845 35.4042 39.0306 35.0317 39.9278 34.9542C40.8249 34.8767 41.7224 35.0985 42.48 35.5851L46.3237 38.1271C46.5687 38.2956 46.8545 38.3951 47.1511 38.4152C47.4478 38.4353 47.7444 38.3752 48.0098 38.2414C49.6301 37.4716 51.3187 36.8548 53.0538 36.3991C53.3341 36.3225 53.5896 36.1742 53.795 35.9689C54.0005 35.7635 54.1489 35.5082 54.2255 35.228L55.5115 30.8294C55.7713 29.9714 56.3102 29.2245 57.0426 28.7072C57.7751 28.1898 58.6593 27.9315 59.5553 27.9731L63.599 28.1302C64.4833 28.1722 65.3291 28.5041 66.0057 29.0746C66.6824 29.645 67.1523 30.4223 67.3427 31.2864L68.2858 35.785C68.3428 36.0683 68.4711 36.3323 68.6587 36.5522C68.8462 36.7721 69.0867 36.9406 69.3575 37.0418C71.032 37.6298 72.6487 38.3708 74.1871 39.2554C74.4435 39.4033 74.7342 39.4811 75.0302 39.4811C75.3262 39.4811 75.6169 39.4033 75.8732 39.2554L79.8741 37.0418C80.6688 36.6189 81.5817 36.4722 82.469 36.6248C83.3562 36.7773 84.1676 37.2204 84.7752 37.8844L87.533 40.8692C88.1437 41.5286 88.5162 42.3731 88.5913 43.2685C88.6664 44.1639 88.4397 45.0587 87.9474 45.8105L85.4039 49.6665C85.2356 49.9141 85.1362 50.202 85.1161 50.5007C85.0961 50.7994 85.1559 51.0981 85.2896 51.366C86.0595 52.9657 86.6767 54.6345 87.1329 56.3502C87.2121 56.6313 87.363 56.8871 87.571 57.0924C87.7789 57.2977 88.0366 57.4455 88.3189 57.5212L92.7199 58.7923C93.5731 59.0605 94.3147 59.6011 94.831 60.3312C95.3472 61.0613 95.6095 61.9405 95.5777 62.8339L95.4205 66.9041C95.3812 67.8015 95.046 68.6608 94.467 69.348C93.8881 70.0351 93.0979 70.5115 92.2198 70.7029L87.7187 71.6312C87.4395 71.6829 87.1778 71.8042 86.958 71.984C86.7381 72.1637 86.5673 72.3961 86.4613 72.6595C85.8905 74.3401 85.1484 75.9577 84.2465 77.4866C84.0987 77.7454 84.0209 78.0383 84.0209 78.3363C84.0209 78.6343 84.0987 78.9272 84.2465 79.186L86.4613 83.1991C86.8795 83.9946 87.0235 84.9057 86.8711 85.7913C86.7187 86.6769 86.2784 87.4875 85.6183 88.0976L82.6176 90.8539C81.9583 91.4642 81.1144 91.8377 80.2191 91.9153C79.3238 91.9928 78.4282 91.7702 77.6736 91.2824L73.8299 88.7403C73.5835 88.5697 73.296 88.4679 72.9972 88.4453C72.6983 88.4227 72.3988 88.4802 72.1295 88.6117C70.5508 89.412 68.8941 90.0484 67.1856 90.5112C66.9062 90.5912 66.6525 90.7426 66.4496 90.9504C66.2466 91.1583 66.1014 91.4154 66.0282 91.6965L64.7422 96.0952C64.4818 96.9009 63.9749 97.6045 63.2929 98.1067C62.6109 98.6089 61.7884 98.8844 60.9413 98.8943V98.8943ZM45.2235 85.0557C45.9153 85.0445 46.5971 85.2222 47.1953 85.5698C48.5985 86.411 50.0824 87.1095 51.6249 87.6549C52.2657 87.8946 52.8351 88.2928 53.2799 88.8123C53.7248 89.3318 54.0304 89.9557 54.1683 90.6254L55.0971 95.1098C55.1885 95.4866 55.402 95.8225 55.7044 96.0654C56.0068 96.3082 56.3811 96.4442 56.7689 96.4522L60.8413 96.6093C61.2311 96.6272 61.6155 96.5127 61.932 96.2846C62.2485 96.0564 62.4785 95.7279 62.5845 95.3525L63.8562 90.9682C64.0463 90.309 64.4022 89.7096 64.89 89.227C65.3778 88.7445 65.9812 88.395 66.6426 88.2119C68.2282 87.7973 69.7693 87.228 71.2436 86.5124C71.8595 86.2174 72.5415 86.0873 73.2228 86.1349C73.9041 86.1824 74.5613 86.406 75.1302 86.7837L78.9882 89.3258C79.3237 89.5389 79.7219 89.631 80.117 89.5868C80.512 89.5427 80.88 89.3649 81.1601 89.083L84.1465 86.3124C84.4255 86.0482 84.6101 85.6997 84.6721 85.3205C84.734 84.9414 84.6699 84.5523 84.4895 84.2131L82.2747 80.2143C81.9379 79.6171 81.7609 78.9432 81.7609 78.2578C81.7609 77.5723 81.9379 76.8984 82.2747 76.3012C83.0953 74.9188 83.7796 73.46 84.318 71.9454C84.5543 71.2841 84.9572 70.6948 85.4879 70.2345C86.0185 69.7742 86.6589 69.4584 87.3472 69.3176L91.8483 68.3893C92.2399 68.3178 92.5952 68.1144 92.8552 67.813C93.1151 67.5116 93.2641 67.1304 93.2771 66.7327L93.4486 62.6768C93.4574 62.2874 93.3397 61.9057 93.1129 61.589C92.8862 61.2722 92.5627 61.0375 92.1912 60.9202L87.7902 59.6491C87.1222 59.4529 86.5167 59.0864 86.0332 58.5856C85.5498 58.0849 85.2049 57.4671 85.0324 56.7929C84.6175 55.2127 84.048 53.6772 83.332 52.2086C83.0425 51.5866 82.9155 50.9014 82.963 50.217C83.0105 49.5327 83.2309 48.8715 83.6035 48.2955L86.0612 44.5252C86.2802 44.2034 86.385 43.8177 86.3591 43.4295C86.3333 43.0412 86.1781 42.6728 85.9183 42.383L83.1606 39.3982C82.8906 39.1137 82.5344 38.926 82.147 38.8641C81.7596 38.8021 81.3626 38.8694 81.0172 39.0554L76.9735 41.2833C76.376 41.6199 75.7017 41.7968 75.0159 41.7968C74.33 41.7968 73.6558 41.6199 73.0583 41.2833C71.6508 40.462 70.1675 39.7781 68.6287 39.2411C67.9803 39.0033 67.4042 38.6023 66.9562 38.0769C66.5081 37.5516 66.2033 36.9196 66.071 36.242L65.128 31.7434C65.0545 31.3554 64.8524 31.0034 64.5543 30.7443C64.2562 30.4852 63.8794 30.334 63.4847 30.3152L59.4267 30.1581C59.036 30.1445 58.6519 30.2604 58.334 30.4877C58.0161 30.715 57.7824 31.041 57.6691 31.4149L56.3974 35.7993C56.1973 36.465 55.8294 37.0681 55.3289 37.5507C54.8285 38.0334 54.2124 38.3794 53.5396 38.5556C51.9548 38.9726 50.4139 39.5417 48.9386 40.2551C48.3185 40.5432 47.6354 40.6694 46.9532 40.622C46.271 40.5745 45.6119 40.3549 45.0377 39.9837L41.2654 37.5273C40.9372 37.3243 40.5516 37.234 40.1673 37.2701C39.783 37.3062 39.421 37.4667 39.1364 37.7273L36.1214 40.4407C35.837 40.7046 35.6489 41.0558 35.5868 41.4387C35.5246 41.8215 35.5921 42.2142 35.7785 42.5544L37.979 46.5674C38.3158 47.1646 38.4927 47.8385 38.4927 48.524C38.4927 49.2095 38.3158 49.8834 37.979 50.4805C37.1557 51.8906 36.4623 53.3724 35.9071 54.9077C35.6785 55.5363 35.298 56.0986 34.7994 56.5446C34.3008 56.9906 33.6996 57.3065 33.0493 57.4641L28.5483 58.3924C28.1601 58.4658 27.8079 58.6678 27.5487 58.9657C27.2894 59.2637 27.1382 59.6403 27.1194 60.0347L26.9336 64.1906C26.9319 64.5719 27.0554 64.9432 27.2851 65.2476C27.5148 65.552 27.8381 65.7727 28.2054 65.8758L32.6063 67.1469C33.2711 67.3493 33.8732 67.7179 34.3557 68.2177C34.8383 68.7174 35.1853 69.332 35.3641 70.0031C35.7828 71.5848 36.3472 73.1242 37.0502 74.6017C37.3446 75.2193 37.4755 75.9021 37.4305 76.5847C37.3855 77.2673 37.166 77.9269 36.793 78.5005L34.2496 82.3422C34.0605 82.6638 33.9807 83.0378 34.0219 83.4085C34.0631 83.7791 34.2232 84.1265 34.4782 84.3987L37.236 87.3835C37.4991 87.6734 37.8523 87.8663 38.2385 87.9311C38.6248 87.9959 39.0216 87.9288 39.365 87.7406L43.3802 85.527C43.9559 85.2184 44.5988 85.0566 45.2521 85.0557H45.2235Z" fill="white"/>
<path d="M113.081 41.2846L112.238 40.0707C108.966 35.5292 96.9489 19.6198 85.3463 15.978L82.4885 21.6906L76.3586 8.99443L74.9297 5.86681L92.3908 1.71094L90.4903 5.66687L89.9902 6.68085L90.4332 6.88079C97.0317 9.94851 102.645 14.7918 106.645 20.8681C110.646 26.9445 112.874 34.0139 113.081 41.2846V41.2846Z" fill="white"/>
<path d="M112.217 40.0421C109.002 35.5577 97.1848 19.9339 85.7251 16.0637L85.3393 15.9352L84.2105 18.2773L82.5101 21.7191L76.3516 8.99442L79.338 8.28035L90.4833 5.66686L91.0835 5.50977L90.4262 6.9379L88.9973 9.79417C88.9519 9.88269 88.9252 9.97956 88.9187 10.0788C88.9122 10.178 88.9261 10.2776 88.9596 10.3712C88.993 10.4649 89.0454 10.5507 89.1133 10.6234C89.1812 10.6961 89.2633 10.7541 89.3545 10.7939V10.7939C95.0018 13.4748 99.9675 17.4007 103.878 22.2762C107.788 27.1517 110.542 32.85 111.931 38.9424C112.045 39.2852 112.117 39.6708 112.217 40.0421Z" fill="#17BC9C"/>
<path d="M111.958 38.898C108.2 29.358 97.5402 17.5045 87.3665 13.9627C87.1858 13.9067 86.9909 13.9178 86.8176 13.9939C86.6444 14.0699 86.5044 14.206 86.4235 14.3769L85.6519 16.0764L84.5087 18.8184L84.2658 18.2757L79.4219 8.27876L90.5387 5.67956L91.1388 5.52246L90.4815 6.9506L89.0526 9.80687C89.0072 9.89538 88.9805 9.99225 88.974 10.0915C88.9675 10.1907 88.9814 10.2903 89.0149 10.3839C89.0484 10.4776 89.1007 10.5634 89.1686 10.6361C89.2365 10.7088 89.3186 10.7668 89.4098 10.8066V10.8066C95.0496 13.479 100.009 17.3957 103.915 22.2616C107.821 27.1275 110.571 32.8158 111.958 38.898V38.898Z" fill="#50C9B2"/>
<path d="M113.076 42.3985C112.888 42.3978 112.704 42.3505 112.539 42.2607C112.375 42.1709 112.235 42.0416 112.133 41.8843C111.947 41.6844 98.6297 22.1047 85.9269 17.3633L83.5835 22.2189C83.4846 22.4108 83.3352 22.5721 83.1514 22.6853C82.9676 22.7986 82.7563 22.8595 82.5404 22.8616V22.8616C82.3258 22.8617 82.1156 22.8016 81.9336 22.6879C81.7517 22.5743 81.6054 22.4117 81.5116 22.2189L73.8527 6.36662C73.7749 6.21402 73.7344 6.04519 73.7344 5.87392C73.7344 5.70265 73.7749 5.53382 73.8527 5.38121C73.9372 5.24123 74.0491 5.11974 74.1817 5.02404C74.3142 4.92833 74.4648 4.86037 74.6243 4.82424L92.1283 0.539836C92.2784 0.499391 92.4353 0.489616 92.5893 0.511095C92.7434 0.532575 92.8915 0.584868 93.0249 0.664851C93.1582 0.744834 93.2741 0.850865 93.3656 0.976611C93.457 1.10236 93.5222 1.24524 93.5572 1.39672C93.6149 1.65146 93.5847 1.91823 93.4714 2.15363L91.5138 6.09528C98.1358 9.34655 103.745 14.3412 107.739 20.5417C111.732 26.7423 113.957 33.9138 114.176 41.2845C114.169 41.528 114.082 41.7626 113.93 41.9531C113.778 42.1436 113.569 42.2798 113.333 42.3413L113.076 42.3985ZM85.3124 14.8212C85.4258 14.8006 85.542 14.8006 85.6554 14.8212C96.2292 18.1773 106.874 31.0305 111.647 37.2429C110.745 30.8498 108.242 24.788 104.37 19.62C100.498 14.4519 95.3831 10.3451 89.4991 7.68051C89.2239 7.5414 89.0138 7.30064 88.9133 7.00929C88.8058 6.73868 88.8058 6.43729 88.9133 6.16669L90.3136 3.39611L76.5676 6.65225L82.5118 19.1056L84.2694 15.4781C84.3636 15.2815 84.5115 15.1155 84.6961 14.9993C84.8806 14.8831 85.0943 14.8213 85.3124 14.8212V14.8212Z" fill="white"/>
<path d="M25.5557 120.589L27.4847 115.505C20.528 113.1 14.3877 108.79 9.76413 103.065C5.14061 97.3408 2.22015 90.4326 1.33594 83.1289C1.33594 83.1289 2.40761 84.4285 4.19372 86.4136C9.42347 92.1262 20.9261 103.551 31.257 105.751L33.5003 99.8095L42.4309 114.605L42.5738 114.848L25.5557 120.589Z" fill="white"/>
<path d="M42.4521 114.605L41.7091 114.847L29.4778 118.975L31.1639 114.562C31.2026 114.468 31.2217 114.368 31.2202 114.267C31.2187 114.166 31.1965 114.066 31.155 113.974C31.1136 113.881 31.0537 113.798 30.979 113.73C30.9044 113.662 30.8165 113.61 30.7209 113.576C24.9728 111.478 19.7284 108.199 15.3255 103.951C10.9227 99.7028 7.45911 94.5799 5.15802 88.9124V88.9124C4.7865 88.0127 4.50072 87.2272 4.25781 86.4561C9.4447 92.1686 20.9473 103.594 31.2782 105.75L33.5216 99.8091L42.4521 114.605Z" fill="#82CBAD"/>
<path d="M31.1516 114.56C31.2209 114.369 31.2117 114.158 31.126 113.973C31.0404 113.789 30.8852 113.646 30.6944 113.575C24.9391 111.474 19.6889 108.19 15.2831 103.934C10.8774 99.6779 7.4141 94.5455 5.11719 88.8682V88.8682C10.8328 97.6369 21.8638 106.92 32.009 109.405C32.1859 109.434 32.3673 109.401 32.5232 109.313C32.6792 109.225 32.8002 109.086 32.8663 108.919L34.8668 103.549L41.6254 114.789L29.4798 118.973L31.1516 114.56Z" fill="#82CBAD"/>
<path d="M25.5561 121.746C25.2479 121.742 24.9535 121.617 24.7368 121.398C24.5202 121.179 24.3987 120.883 24.3987 120.575C24.3771 120.438 24.3771 120.298 24.3987 120.161L25.9419 116.105C19.0718 113.468 13.0475 109.015 8.51239 103.222C3.97732 97.4294 1.1019 90.5141 0.193273 83.2149C0.177572 83.0584 0.193981 82.9003 0.241496 82.7503C0.289011 82.6003 0.366634 82.4616 0.469618 82.3427C0.572602 82.2237 0.698783 82.127 0.840446 82.0584C0.982109 81.9898 1.13628 81.9509 1.29352 81.9439C1.47162 81.9386 1.64865 81.9731 1.81177 82.0447C1.97489 82.1163 2.12001 82.2234 2.23659 82.358C2.37948 82.5437 17.4257 100.824 30.5716 104.408L32.4577 99.3243C32.5608 99.0479 32.7681 98.8229 33.0352 98.6975C33.3023 98.572 33.6079 98.5561 33.8866 98.6531C34.1301 98.7397 34.3334 98.9124 34.4581 99.1386L43.5459 114.177C43.7061 114.433 43.7584 114.742 43.6915 115.036C43.6245 115.33 43.4438 115.586 43.1887 115.748C43.1087 115.798 43.0221 115.836 42.9315 115.862L25.9134 121.689C25.7969 121.722 25.677 121.741 25.5561 121.746V121.746ZM3.17966 86.9709C4.66599 93.2424 7.70825 99.039 12.0259 103.826C16.3436 108.613 21.7976 112.237 27.8852 114.363C28.0279 114.413 28.1587 114.492 28.2693 114.595C28.38 114.699 28.4681 114.824 28.5282 114.962C28.5844 115.096 28.6134 115.239 28.6134 115.384C28.6134 115.528 28.5844 115.672 28.5282 115.805L27.4423 118.661L40.931 114.22L33.7866 102.395L32.3577 106.179C32.2611 106.437 32.0757 106.652 31.8348 106.786C31.5938 106.919 31.3131 106.963 31.0431 106.908C20.1978 104.566 8.39512 92.7406 3.17966 86.9995V86.9709Z" fill="white"/>
<path d="M36.5835 39.5853H21.623C21.3907 39.5907 21.1625 39.5234 20.9704 39.3928C20.7782 39.2622 20.6317 39.0749 20.5513 38.857L16.4076 28.0174C16.2958 27.7314 16.3022 27.4128 16.4255 27.1316C16.5487 26.8504 16.7787 26.6296 17.0648 26.5179C17.351 26.4061 17.6698 26.4126 17.9511 26.5358C18.2325 26.659 18.4534 26.8888 18.5652 27.1748L22.4089 37.286H36.6978C37.001 37.286 37.2918 37.4064 37.5061 37.6206C37.7205 37.8349 37.841 38.1255 37.841 38.4285C37.841 38.7315 37.7205 39.0221 37.5061 39.2364C37.2918 39.4506 37.001 39.571 36.6978 39.571L36.5835 39.5853Z" fill="white"/>
<path d="M20.1917 23.6754C20.1805 24.7003 19.8092 25.6887 19.1426 26.4677C18.4761 27.2467 17.5568 27.7668 16.5455 27.937C15.5341 28.1071 14.4951 27.9166 13.6101 27.3986C12.7252 26.8807 12.0505 26.0683 11.7041 25.1035C11.538 24.6459 11.4558 24.1621 11.4612 23.6754C11.4611 23.0954 11.5765 22.5213 11.8007 21.9863C12.0249 21.4514 12.3534 20.9665 12.767 20.5597C13.1806 20.153 13.6711 19.8326 14.2099 19.6172C14.7486 19.4018 15.3249 19.2958 15.9051 19.3053C16.3917 19.3045 16.8749 19.3867 17.3339 19.5481C18.1757 19.8609 18.9012 20.4244 19.4122 21.1625C19.9233 21.9006 20.1954 22.7778 20.1917 23.6754V23.6754Z" fill="#D3EFF4"/>
<path d="M17.501 20.9771C17.5013 22.1228 17.0529 23.2231 16.2518 24.0425C15.4506 24.8619 14.3603 25.3354 13.2143 25.3615V25.3615C12.7265 25.362 12.2425 25.275 11.7854 25.1044C11.5184 24.33 11.4746 23.4962 11.6588 22.6981C11.8431 21.9 12.248 21.1697 12.8275 20.5905C13.407 20.0113 14.1377 19.6066 14.9362 19.4224C15.7348 19.2383 16.569 19.2821 17.3438 19.549C17.4739 20.0133 17.527 20.4957 17.501 20.9771V20.9771Z" fill="#FDFEFF"/>
<path d="M15.8189 29.2022C14.7252 29.2022 13.6561 28.8781 12.7467 28.2708C11.8373 27.6635 11.1285 26.8003 10.71 25.7904C10.2915 24.7805 10.1819 23.6692 10.3953 22.5971C10.6087 21.525 11.1354 20.5402 11.9087 19.7672C12.6821 18.9943 13.6674 18.4679 14.7401 18.2546C15.8128 18.0414 16.9246 18.1508 17.9351 18.5691C18.9455 18.9875 19.8091 19.6959 20.4168 20.6048C21.0244 21.5136 21.3487 22.5822 21.3487 23.6753V23.6753C21.3487 25.1411 20.7661 26.5469 19.7291 27.5834C18.692 28.6199 17.2855 29.2022 15.8189 29.2022V29.2022ZM15.8189 20.4477C15.1802 20.4477 14.5558 20.637 14.0248 20.9917C13.4937 21.3463 13.0798 21.8504 12.8354 22.4402C12.591 23.0299 12.527 23.6789 12.6516 24.305C12.7762 24.9311 13.0838 25.5062 13.5354 25.9576C13.9871 26.409 14.5625 26.7164 15.1889 26.8409C15.8153 26.9654 16.4646 26.9015 17.0547 26.6572C17.6448 26.4129 18.1491 25.9993 18.504 25.4685C18.8588 24.9377 19.0482 24.3137 19.0482 23.6753V23.6753C19.0407 22.8216 18.6981 22.005 18.0941 21.4013C17.4901 20.7976 16.673 20.4552 15.8189 20.4477V20.4477Z" fill="white"/>
<path d="M106.409 97.0384C106.176 97.0366 105.949 96.9648 105.758 96.8323C105.567 96.6998 105.42 96.5129 105.337 96.2958L101.479 86.2274H87.19C86.8868 86.2274 86.5961 86.107 86.3817 85.8928C86.1673 85.6785 86.0469 85.3879 86.0469 85.0849C86.0469 84.7819 86.1673 84.4913 86.3817 84.277C86.5961 84.0628 86.8868 83.9424 87.19 83.9424H102.279C102.511 83.9411 102.737 84.0101 102.928 84.1401C103.12 84.2702 103.267 84.4552 103.351 84.6707L107.48 95.5246C107.574 95.8015 107.559 96.1039 107.436 96.3696C107.314 96.6353 107.095 96.844 106.823 96.9527C106.693 97.0118 106.551 97.0411 106.409 97.0384V97.0384Z" fill="white"/>
<path d="M111.467 99.8086C111.465 100.837 111.1 101.832 110.435 102.617C109.77 103.402 108.848 103.927 107.833 104.098C106.818 104.269 105.775 104.076 104.89 103.552C104.004 103.028 103.332 102.208 102.993 101.237C102.827 100.779 102.745 100.295 102.75 99.8086C102.75 98.6496 103.211 97.538 104.031 96.7185C104.851 95.8989 105.963 95.4385 107.123 95.4385V95.4385C107.609 95.4402 108.092 95.5222 108.552 95.6813C109.406 95.9811 110.146 96.5397 110.669 97.2794C111.191 98.0191 111.47 98.9032 111.467 99.8086V99.8086Z" fill="#D3EFF4"/>
<path d="M108.788 97.1235C108.788 98.2825 108.327 99.394 107.507 100.214C106.687 101.033 105.575 101.494 104.415 101.494C103.93 101.487 103.449 101.41 102.986 101.265C102.834 100.804 102.757 100.322 102.758 99.8369C102.758 98.6779 103.218 97.5664 104.038 96.7468C104.858 95.9273 105.971 95.4668 107.13 95.4668C107.618 95.4647 108.102 95.5518 108.559 95.7239C108.718 96.1731 108.796 96.6471 108.788 97.1235V97.1235Z" fill="#FDFEFF"/>
<path d="M107.117 105.337C106.026 105.337 104.96 105.013 104.053 104.408C103.146 103.802 102.439 102.941 102.021 101.934C101.604 100.926 101.495 99.818 101.708 98.7487C101.92 97.6793 102.446 96.6971 103.217 95.9261C103.988 95.1552 104.971 94.6302 106.041 94.4174C107.111 94.2047 108.22 94.3139 109.228 94.7311C110.236 95.1484 111.097 95.8549 111.703 96.7615C112.309 97.668 112.633 98.7338 112.633 99.8241C112.633 101.286 112.052 102.688 111.017 103.722C109.983 104.756 108.58 105.337 107.117 105.337V105.337ZM107.117 96.5965C106.478 96.5965 105.854 96.7858 105.323 97.1405C104.792 97.4951 104.378 97.9992 104.134 98.589C103.889 99.1787 103.825 99.8277 103.95 100.454C104.074 101.08 104.382 101.655 104.834 102.106C105.285 102.558 105.861 102.865 106.487 102.99C107.114 103.114 107.763 103.05 108.353 102.806C108.943 102.562 109.447 102.148 109.802 101.617C110.157 101.087 110.346 100.462 110.346 99.8241C110.346 98.9681 110.006 98.1472 109.401 97.5419C108.795 96.9366 107.974 96.5965 107.117 96.5965Z" fill="white"/>
<path d="M63.6874 118.522C62.5965 118.522 61.5302 118.199 60.6231 117.593C59.7161 116.987 59.0092 116.127 58.5917 115.119C58.1743 114.112 58.065 113.004 58.2779 111.934C58.4907 110.865 59.016 109.883 59.7873 109.112C60.5587 108.341 61.5415 107.816 62.6114 107.603C63.6813 107.39 64.7903 107.499 65.7981 107.917C66.8059 108.334 67.6674 109.04 68.2734 109.947C68.8795 110.854 69.2029 111.919 69.2029 113.01C69.2029 114.472 68.6218 115.874 67.5875 116.908C66.5531 117.941 65.1502 118.522 63.6874 118.522V118.522ZM63.6874 109.782C63.0487 109.782 62.4244 109.971 61.8933 110.326C61.3622 110.681 60.9483 111.185 60.7039 111.775C60.4595 112.364 60.3956 113.013 60.5202 113.639C60.6448 114.265 60.9523 114.841 61.404 115.292C61.8556 115.743 62.431 116.051 63.0574 116.175C63.6838 116.3 64.3331 116.236 64.9232 115.992C65.5133 115.747 66.0176 115.334 66.3725 114.803C66.7273 114.272 66.9167 113.648 66.9167 113.01C66.9167 112.154 66.5765 111.333 65.9709 110.727C65.3653 110.122 64.5439 109.782 63.6874 109.782Z" fill="white"/>
<path d="M25.7679 60.3215H12.4363C12.1368 60.2925 11.8604 60.148 11.6657 59.9187C11.4709 59.6895 11.3732 59.3934 11.3932 59.0933C11.413 58.8234 11.5293 58.5696 11.7208 58.3782C11.9123 58.1868 12.1662 58.0706 12.4363 58.0508H25.7679C26.0508 58.0824 26.3122 58.2171 26.5021 58.4292C26.6919 58.6413 26.7969 58.9159 26.7969 59.2004C26.7969 59.485 26.6919 59.7596 26.5021 59.9717C26.3122 60.1838 26.0508 60.3185 25.7679 60.3501V60.3215Z" fill="white"/>
<path d="M59.2759 30.0735C59.1258 30.0735 58.9772 30.044 58.8385 29.9865C58.6998 29.9291 58.5738 29.845 58.4676 29.7389C58.3615 29.6328 58.2773 29.5068 58.2198 29.3682C58.1624 29.2296 58.1328 29.081 58.1328 28.931V16.2492C58.1644 15.9663 58.2992 15.7051 58.5114 15.5153C58.7236 15.3256 58.9983 15.2207 59.2831 15.2207C59.5678 15.2207 59.8425 15.3256 60.0548 15.5153C60.267 15.7051 60.4017 15.9663 60.4333 16.2492V28.9738C60.4222 29.2719 60.2949 29.5537 60.0786 29.7592C59.8623 29.9646 59.5743 30.0774 59.2759 30.0735Z" fill="white"/>
<path d="M108.048 62.1346H94.5025C94.1993 62.1346 93.9086 62.0143 93.6942 61.8C93.4798 61.5857 93.3594 61.2951 93.3594 60.9921C93.3594 60.6891 93.4798 60.3985 93.6942 60.1842C93.9086 59.97 94.1993 59.8496 94.5025 59.8496H108.077C108.38 59.8496 108.671 59.97 108.885 60.1842C109.1 60.3985 109.22 60.6891 109.22 60.9921C109.22 61.2951 109.1 61.5857 108.885 61.8C108.671 62.0143 108.38 62.1346 108.077 62.1346H108.048Z" fill="white"/>
<path d="M63.4166 111.635C63.1134 111.635 62.8226 111.514 62.6082 111.3C62.3939 111.086 62.2734 110.795 62.2734 110.492V96.7392C62.2734 96.4362 62.3939 96.1456 62.6082 95.9313C62.8226 95.717 63.1134 95.5967 63.4166 95.5967C63.7197 95.5967 64.0105 95.717 64.2249 95.9313C64.4392 96.1456 64.5597 96.4362 64.5597 96.7392V110.506C64.5616 110.656 64.5338 110.804 64.4779 110.943C64.422 111.081 64.3391 111.207 64.2341 111.313C64.1291 111.42 64.004 111.504 63.8661 111.562C63.7283 111.619 63.5803 111.649 63.4308 111.649L63.4166 111.635Z" fill="white"/>
<path d="M63.4262 115.79C65.1544 115.79 66.5554 114.39 66.5554 112.663C66.5554 110.935 65.1544 109.535 63.4262 109.535C61.6979 109.535 60.2969 110.935 60.2969 112.663C60.2969 114.39 61.6979 115.79 63.4262 115.79Z" fill="#D3F2EC"/>
<path d="M110.903 64.1205C112.631 64.1205 114.032 62.7202 114.032 60.9929C114.032 59.2655 112.631 57.8652 110.903 57.8652C109.174 57.8652 107.773 59.2655 107.773 60.9929C107.773 62.7202 109.174 64.1205 110.903 64.1205Z" fill="#D3F2EC"/>
<path d="M110.904 65.2768C110.056 65.2768 109.227 65.0255 108.522 64.5548C107.817 64.084 107.268 63.4149 106.943 62.632C106.619 61.8491 106.534 60.9877 106.7 60.1566C106.865 59.3255 107.273 58.5621 107.873 57.9629C108.472 57.3637 109.236 56.9556 110.068 56.7903C110.899 56.625 111.761 56.7099 112.544 57.0341C113.328 57.3584 113.997 57.9076 114.468 58.6121C114.939 59.3167 115.191 60.145 115.191 60.9924C115.191 62.1287 114.739 63.2185 113.935 64.0219C113.131 64.8254 112.041 65.2768 110.904 65.2768ZM110.904 59.0073C110.511 59.0073 110.127 59.1237 109.8 59.3419C109.474 59.56 109.219 59.87 109.069 60.2327C108.919 60.5955 108.879 60.9946 108.956 61.3797C109.033 61.7648 109.222 62.1185 109.499 62.3961C109.777 62.6737 110.131 62.8628 110.516 62.9394C110.902 63.016 111.301 62.9767 111.664 62.8264C112.027 62.6762 112.337 62.4217 112.555 62.0953C112.774 61.7688 112.89 61.385 112.89 60.9924V60.9924C112.892 60.7324 112.842 60.4746 112.744 60.2338C112.646 59.9931 112.501 59.7741 112.318 59.5896C112.134 59.4051 111.916 59.2586 111.676 59.1587C111.436 59.0587 111.178 59.0073 110.918 59.0073H110.904Z" fill="white"/>
<path d="M59.2777 16.0785C61.006 16.0785 62.407 14.6782 62.407 12.9509C62.407 11.2235 61.006 9.82324 59.2777 9.82324C57.5495 9.82324 56.1484 11.2235 56.1484 12.9509C56.1484 14.6782 57.5495 16.0785 59.2777 16.0785Z" fill="#82CBAD"/>
<path d="M59.2789 17.2348C58.431 17.2348 57.6023 16.9836 56.8973 16.5128C56.1924 16.042 55.6429 15.3729 55.3185 14.59C54.994 13.8071 54.9092 12.9457 55.0746 12.1146C55.24 11.2835 55.6482 10.5201 56.2477 9.92089C56.8472 9.32171 57.611 8.91366 58.4426 8.74834C59.2741 8.58303 60.136 8.66787 60.9193 8.99215C61.7026 9.31643 62.3721 9.86557 62.8431 10.5701C63.3141 11.2747 63.5655 12.103 63.5655 12.9504C63.5655 14.0867 63.1139 15.1765 62.31 15.98C61.5061 16.7834 60.4158 17.2348 59.2789 17.2348ZM59.2789 10.9653C58.8873 10.9709 58.5062 11.0921 58.1833 11.3137C57.8605 11.5352 57.6104 11.8471 57.4644 12.2103C57.3184 12.5735 57.2832 12.9717 57.363 13.3549C57.4428 13.7381 57.6342 14.0891 57.9131 14.3639C58.192 14.6387 58.5459 14.8249 58.9304 14.8992C59.3148 14.9735 59.7127 14.9326 60.074 14.7815C60.4352 14.6305 60.7438 14.3761 60.9608 14.0503C61.1778 13.7245 61.2936 13.3418 61.2936 12.9504C61.2936 12.6873 61.2413 12.4268 61.1397 12.1841C61.0381 11.9414 60.8893 11.7213 60.7018 11.5365C60.5143 11.3518 60.292 11.2062 60.0477 11.1081C59.8034 11.0101 59.5421 10.9615 59.2789 10.9653Z" fill="white"/>
<path d="M9.59803 62.1918C11.3263 62.1918 12.7273 60.7915 12.7273 59.0641C12.7273 57.3368 11.3263 55.9365 9.59803 55.9365C7.86978 55.9365 6.46875 57.3368 6.46875 59.0641C6.46875 60.7915 7.86978 62.1918 9.59803 62.1918Z" fill="white"/>
<path d="M9.59918 63.3784C8.75136 63.3784 7.92257 63.1271 7.21763 62.6563C6.51269 62.1856 5.96325 61.5164 5.63881 60.7335C5.31436 59.9507 5.22947 59.0892 5.39487 58.2581C5.56027 57.427 5.96854 56.6636 6.56804 56.0644C7.16754 55.4653 7.93136 55.0572 8.76289 54.8919C9.59443 54.7266 10.4563 54.8114 11.2396 55.1357C12.0229 55.46 12.6924 56.0091 13.1634 56.7137C13.6345 57.4183 13.8859 58.2466 13.8859 59.094C13.8859 60.2303 13.4342 61.32 12.6303 62.1235C11.8264 62.927 10.7361 63.3784 9.59918 63.3784ZM9.59918 57.1231C9.20769 57.1316 8.82743 57.2555 8.5062 57.4794C8.18497 57.7032 7.93712 58.0169 7.79378 58.3812C7.65044 58.7454 7.61802 59.1438 7.7006 59.5264C7.78317 59.909 7.97705 60.2586 8.25787 60.5314C8.53869 60.8042 8.89392 60.9879 9.27891 61.0594C9.66389 61.131 10.0615 61.0872 10.4216 60.9336C10.7818 60.78 11.0885 60.5234 11.3032 60.1961C11.5179 59.8688 11.6309 59.4853 11.6282 59.094C11.632 58.8309 11.5834 58.5697 11.4853 58.3255C11.3872 58.0814 11.2415 57.8592 11.0567 57.6718C10.8719 57.4844 10.6516 57.3356 10.4088 57.2341C10.1659 57.1326 9.9053 57.0803 9.64205 57.0803L9.59918 57.1231Z" fill="white"/>
<path d="M78.7796 58.893C78.7529 59.6725 78.6813 60.4497 78.5653 61.2209C78.0366 65.4053 76.4219 71.8177 71.6352 75.0453C65.4195 79.1868 56.989 77.5302 54.317 76.859C53.7597 76.7162 53.4596 76.6162 53.4596 76.6162C53.4596 76.6162 52.3451 65.4625 59.0752 60.0213C64.3621 55.7369 73.507 56.4795 77.2078 56.9936C77.6611 57.0541 78.0747 57.2833 78.3662 57.6355C78.6576 57.9876 78.8052 58.4368 78.7796 58.893V58.893Z" fill="white"/>
<path d="M78.4983 61.2201C77.9696 65.4046 76.355 71.8169 71.5682 75.0445C65.3525 79.1861 56.922 77.5294 54.25 76.8582C54.3628 75.1028 54.6646 73.3648 55.1502 71.6741C55.9093 68.7279 57.5553 66.0858 59.8656 64.1049C64.881 60.049 73.4401 60.5203 77.3552 60.9916L77.9411 61.0773C78.1342 61.0892 78.3233 61.1377 78.4983 61.2201V61.2201Z" fill="#82CBAD"/>
<path d="M77.434 60.9916C76.5481 64.4552 74.5067 67.5131 71.647 69.6604C65.9314 73.3736 58.5155 72.4024 55.1719 71.6741C55.9417 68.729 57.5916 66.0886 59.9015 64.1049C64.8883 60.049 73.4046 60.5203 77.434 60.9916Z" fill="#82CBAD"/>
<path d="M61.4229 78.9158C58.5961 78.9227 55.7824 78.5333 53.0638 77.759C52.8516 77.6883 52.6643 77.5576 52.5249 77.3827C52.3854 77.2078 52.2996 76.9962 52.278 76.7736C52.278 76.3023 51.192 64.8915 58.3222 59.179C63.952 54.6232 73.497 55.3659 77.3265 55.8943C78.0634 56.0033 78.7334 56.3824 79.2062 56.9579C79.6789 57.5333 79.9206 58.2639 79.8842 59.0076C79.6698 62.735 78.4553 71.8608 72.2396 76.0453C68.9977 78.051 65.2332 79.0501 61.4229 78.9158V78.9158ZM54.4927 75.7311C56.979 76.3595 65.1094 77.9733 70.9393 74.103C76.3548 70.5184 77.355 62.2209 77.5979 58.8362C77.6032 58.6681 77.5465 58.5038 77.4384 58.3748C77.3304 58.2457 77.1787 58.1609 77.0121 58.1365C73.4684 57.6509 64.695 56.9368 59.7654 60.9927C54.4927 65.1058 54.3927 73.2033 54.4927 75.7311Z" fill="white"/>
<path d="M63.2555 60.7925C62.4839 69.7469 53.3962 76.5876 53.3962 76.5876C52.1046 75.6706 50.895 74.6432 49.7811 73.5171C47.0376 70.6609 43.7083 66.3765 43.6797 61.2495C43.6797 54.5943 49.6953 48.0249 52.4817 45.3686C52.8567 45.0098 53.3557 44.8096 53.8748 44.8096C54.3939 44.8096 54.893 45.0098 55.268 45.3686C56.9931 46.9149 58.5453 48.6435 59.8976 50.5242C62.1962 53.4426 63.3859 57.0806 63.2555 60.7925V60.7925Z" fill="white"/>
<path d="M63.2537 60.7929C62.4821 69.7474 53.3944 76.5881 53.3944 76.5881C52.1027 75.671 50.8932 74.6437 49.7793 73.5176L49.4077 72.9607C47.7826 70.5945 46.8611 67.8167 46.75 64.9488C46.75 58.2509 52.8085 51.6957 55.5663 49.0394C55.875 48.7241 56.2846 48.527 56.7237 48.4824C57.0162 48.4475 57.3127 48.4752 57.5936 48.5639C57.8745 48.6525 58.1333 48.8001 58.3526 48.9966C58.7956 49.4107 59.3243 49.9106 59.8958 50.5104C62.1888 53.4373 63.3776 57.0776 63.2537 60.7929V60.7929Z" fill="#82CBAD"/>
<path d="M59.0892 57.2792C58.3747 65.4767 50.6873 71.9034 49.4156 72.9887C47.784 70.6258 46.8619 67.846 46.7578 64.9769C46.7578 58.3075 52.802 51.7524 55.5598 49.096C55.8685 48.7807 56.2781 48.5836 56.7172 48.5391C58.4007 51.1338 59.23 54.1899 59.0892 57.2792Z" fill="#82CBAD"/>
<path d="M53.3922 77.7584C53.1536 77.7583 52.9203 77.6888 52.7206 77.5584C52.3205 77.2585 42.5469 70.4178 42.5469 61.2206C42.5469 54.0799 48.934 47.1391 51.7061 44.4971C52.2926 43.9642 53.0568 43.6689 53.8494 43.6689C54.6421 43.6689 55.4062 43.9642 55.9928 44.4971C58.6934 46.9963 64.9805 53.5658 64.3375 60.9778C63.4944 70.3035 54.3352 77.3014 54.0209 77.587C53.8334 77.7063 53.6143 77.766 53.3922 77.7584V77.7584ZM53.8923 45.8967C53.7755 45.8944 53.6595 45.9161 53.5514 45.9603C53.4433 46.0045 53.3453 46.0703 53.2636 46.1537C50.7201 48.5958 44.7759 54.951 44.7759 61.2063C44.7759 67.8614 51.1917 73.4597 53.3493 75.1449C55.3783 73.374 61.4797 67.6615 62.0798 60.735C62.6228 54.3369 56.9215 48.4102 54.4353 46.1537C54.2922 46.0061 54.0978 45.9191 53.8923 45.9109V45.8967Z" fill="white"/>
<path d="M15.8309 26.9034C17.6144 26.9034 19.0602 25.4584 19.0602 23.6758C19.0602 21.8933 17.6144 20.4482 15.8309 20.4482C14.0474 20.4482 12.6016 21.8933 12.6016 23.6758C12.6016 25.4584 14.0474 26.9034 15.8309 26.9034Z" fill="#82CBAD"/>
<path d="M9.58979 61.2778C10.813 61.2778 11.8046 60.2867 11.8046 59.0642C11.8046 57.8417 10.813 56.8506 9.58979 56.8506C8.36659 56.8506 7.375 57.8417 7.375 59.0642C7.375 60.2867 8.36659 61.2778 9.58979 61.2778Z" fill="#82CBAD"/>
<path d="M107.099 103.436C109.096 103.436 110.715 101.819 110.715 99.8231C110.715 97.8276 109.096 96.21 107.099 96.21C105.103 96.21 103.484 97.8276 103.484 99.8231C103.484 101.819 105.103 103.436 107.099 103.436Z" fill="#82CBAD"/>
<path d="M63.6854 116.623C65.682 116.623 67.3005 115.005 67.3005 113.01C67.3005 111.014 65.682 109.396 63.6854 109.396C61.6888 109.396 60.0703 111.014 60.0703 113.01C60.0703 115.005 61.6888 116.623 63.6854 116.623Z" fill="#82CBAD"/>
<path d="M110.907 63.4062C112.241 63.4062 113.322 62.3256 113.322 60.9927C113.322 59.6597 112.241 58.5791 110.907 58.5791C109.573 58.5791 108.492 59.6597 108.492 60.9927C108.492 62.3256 109.573 63.4062 110.907 63.4062Z" fill="#82CBAD"/>
</svg>
