<svg width="103" height="124" viewBox="0 0 103 124" fill="none" xmlns="http://www.w3.org/2000/svg">
<g clip-path="url(#clip0_561_1199)">
<path d="M90.4397 4.87895L92.6832 3.82129H97.4381H99.7803L101.234 4.87895V93.8491L100.796 98.8835L99.0325 110.786L96.8737 120.615H95.8296L93.6426 114.734L91.2581 104.792L90.2422 97.7694V90.4081L90.4397 4.87895Z" fill="#82CBAD"/>
<path d="M70.1774 20.166H5.78125V106.485H70.1774V20.166Z" fill="#82CBAD"/>
<path d="M19.7502 49.0613C17.9831 49.064 16.2549 48.5429 14.7843 47.5637C13.3137 46.5845 12.1668 45.1914 11.4886 43.5605C10.8104 41.9296 10.6316 40.1343 10.9746 38.4018C11.3176 36.6693 12.1671 35.0774 13.4156 33.8276C14.6641 32.5777 16.2555 31.7261 17.9884 31.3806C19.7213 31.035 21.5179 31.2109 23.1507 31.8862C24.7835 32.5614 26.1792 33.7055 27.1612 35.1738C28.1433 36.6421 28.6674 38.3685 28.6674 40.1346C28.6637 42.4985 27.7235 44.7648 26.0524 46.4376C24.3813 48.1105 22.1153 49.0538 19.7502 49.0613ZM19.7502 34.0848C18.553 34.0848 17.3827 34.4396 16.3873 35.1044C15.3919 35.7692 14.6161 36.714 14.1579 37.8195C13.6998 38.9249 13.5799 40.1413 13.8135 41.3149C14.047 42.4884 14.6235 43.5664 15.47 44.4125C16.3166 45.2586 17.3951 45.8347 18.5693 46.0682C19.7435 46.3016 20.9605 46.1818 22.0666 45.7239C23.1726 45.266 24.118 44.4906 24.7831 43.4957C25.4482 42.5008 25.8032 41.3312 25.8032 40.1346C25.7995 38.5313 25.1605 36.9946 24.0262 35.8609C22.8918 34.7271 21.3544 34.0886 19.7502 34.0848Z" fill="#19164C"/>
<path d="M42.6672 96.7122C42.3767 96.7264 42.0888 96.6505 41.8432 96.4948C41.5975 96.3392 41.4059 96.1115 41.2947 95.8429C41.1835 95.5743 41.1581 95.2779 41.2219 94.9942C41.2857 94.7106 41.4357 94.4536 41.6513 94.2585L58.1454 77.7731C58.4148 77.5038 58.7802 77.3525 59.1613 77.3525C59.5423 77.3525 59.9077 77.5038 60.1772 77.7731C60.4466 78.0424 60.598 78.4076 60.598 78.7885C60.598 79.1693 60.4466 79.5345 60.1772 79.8038L43.7395 96.2892C43.6006 96.4312 43.4333 96.5422 43.2485 96.6152C43.0638 96.6881 42.8656 96.7211 42.6672 96.7122Z" fill="#19164C"/>
<path d="M59.1649 96.7118C58.9758 96.7129 58.7885 96.676 58.6139 96.6033C58.4394 96.5307 58.2813 96.4237 58.149 96.2887L41.6549 79.8034C41.3854 79.5266 41.237 79.1542 41.2423 78.7681C41.2476 78.382 41.4062 78.0138 41.6831 77.7445C41.96 77.4752 42.3326 77.3269 42.7189 77.3322C43.1052 77.3375 43.4736 77.4959 43.7431 77.7727L60.2513 94.258C60.3878 94.3896 60.4965 94.5473 60.5707 94.7218C60.6448 94.8962 60.6831 95.0838 60.6831 95.2734C60.6831 95.4629 60.6448 95.6506 60.5707 95.825C60.4965 95.9995 60.3878 96.1572 60.2513 96.2887C60.1108 96.4326 59.9412 96.5447 59.7538 96.6177C59.5665 96.6906 59.3657 96.7227 59.1649 96.7118Z" fill="#19164C"/>
<path d="M19.7528 97.4317H19.6682C19.4789 97.4211 19.2937 97.3725 19.1237 97.2888C18.9536 97.2052 18.8022 97.0881 18.6784 96.9446C18.5546 96.8012 18.461 96.6342 18.4032 96.4538C18.3454 96.2734 18.3245 96.0832 18.3419 95.8945C18.9486 84.8103 21.4036 75.1362 25.6789 67.1404C28.9698 60.8624 33.639 55.4098 39.3369 51.1909C44.9621 46.9561 51.5417 44.1669 58.4978 43.0681C58.683 43.0477 58.8705 43.064 59.0495 43.1161C59.2285 43.1681 59.3955 43.2549 59.5409 43.3714C59.6863 43.488 59.8074 43.632 59.8971 43.7953C59.9869 43.9586 60.0435 44.138 60.0639 44.3232C60.0843 44.5084 60.068 44.6957 60.0159 44.8746C59.9638 45.0535 59.877 45.2204 59.7604 45.3658C59.6438 45.5111 59.4997 45.6321 59.3363 45.7218C59.1729 45.8115 58.9935 45.8681 58.8082 45.8885C52.3097 46.9728 46.1709 49.6148 40.9172 53.5882C28.8817 62.5008 22.2502 76.7862 21.1638 96.0497C21.1564 96.4188 21.0045 96.7702 20.7407 97.0286C20.4769 97.287 20.1222 97.4317 19.7528 97.4317Z" fill="#19164C"/>
<path d="M47.4913 57.6498C47.208 57.6462 46.9323 57.5575 46.7002 57.3952C46.468 57.2329 46.2902 57.0046 46.1897 56.7398C46.0892 56.4751 46.0708 56.1862 46.1369 55.9109C46.2029 55.6355 46.3504 55.3864 46.56 55.196L57.2128 44.831L42.4824 42.3067C42.1082 42.2412 41.7753 42.0299 41.557 41.7192C41.3387 41.4084 41.2528 41.0237 41.3183 40.6497C41.3838 40.2757 41.5953 39.943 41.9062 39.7248C42.2171 39.5066 42.602 39.4208 42.9762 39.4863L60.4015 42.49C60.661 42.5343 60.9028 42.6502 61.0998 42.8246C61.2968 42.9991 61.441 43.2251 61.5162 43.4772C61.5893 43.7233 61.5938 43.9848 61.5291 44.2333C61.4645 44.4818 61.3332 44.708 61.1494 44.8874L48.4507 57.2126C48.1995 57.4768 47.8556 57.6335 47.4913 57.6498Z" fill="#19164C"/>
<path d="M101.587 15.6956H85.7C85.3258 15.6956 84.9669 15.5471 84.7023 15.2826C84.4377 15.0181 84.2891 14.6594 84.2891 14.2854V5.89468C84.2891 2.65119 86.4619 0 89.1286 0H98.187C100.825 0 102.998 2.65119 102.998 5.89468V14.2572C103.002 14.4448 102.968 14.6312 102.899 14.8055C102.83 14.9799 102.727 15.1387 102.595 15.2727C102.464 15.4066 102.307 15.513 102.134 15.5857C101.961 15.6583 101.775 15.6957 101.587 15.6956ZM87.1533 12.8752H100.176V5.89468C100.176 4.23063 99.217 2.82042 98.1588 2.82042H89.1004C88.0563 2.82042 87.1251 4.23063 87.1251 5.85237L87.1533 12.8752Z" fill="#19164C"/>
<path d="M93.6344 123.295C93.1032 123.275 92.5924 123.085 92.178 122.752C91.7637 122.419 91.4678 121.962 91.3345 121.447L84.3926 98.221C84.3082 97.9421 84.2654 97.6522 84.2656 97.3608V25.7081C84.2656 25.3341 84.4143 24.9754 84.6789 24.7109C84.9435 24.4464 85.3024 24.2979 85.6766 24.2979H92.9854V27.1183H87.1299V97.4031L93.6344 119.12L100.181 97.4031V27.1465H93.1264V24.3261H101.592C101.966 24.3261 102.325 24.4746 102.59 24.7391C102.855 25.0036 103.003 25.3623 103.003 25.7363V97.3044C103.006 97.596 102.963 97.8862 102.876 98.1646L95.9484 121.447C95.8144 121.964 95.5164 122.423 95.0993 122.756C94.6821 123.089 94.1681 123.278 93.6344 123.295Z" fill="#19164C"/>
<path d="M94.4191 100.026H92.8247C92.6128 100.025 92.4038 99.9767 92.2133 99.8839C92.0227 99.7912 91.8556 99.6567 91.7242 99.4905C91.0696 98.5026 90.0587 97.8054 88.9023 97.5444C88.4836 97.5371 88.0677 97.6145 87.6797 97.7721C87.2918 97.9296 86.9397 98.1639 86.6447 98.461L85.7135 97.3752L84.6976 98.3764C84.5573 98.2392 84.4472 98.0743 84.3744 97.8922C84.3015 97.7101 84.2674 97.5148 84.2743 97.3188C84.2783 97.1198 84.3244 96.924 84.4095 96.7442C84.4946 96.5643 84.6168 96.4045 84.7682 96.2752C85.3547 95.729 86.0459 95.3074 86.8002 95.0359C87.5544 94.7644 88.356 94.6487 89.1562 94.6958C90.8667 94.9345 92.4212 95.8173 93.502 97.1636H93.7842C94.8601 95.8307 96.4043 94.9582 98.1017 94.724C98.906 94.682 99.7104 94.8027 100.467 95.079C101.223 95.3552 101.916 95.7813 102.504 96.3316C102.752 96.537 102.922 96.8211 102.986 97.1367C103.051 97.4522 103.005 97.7802 102.857 98.0662L101.587 97.4316L100.656 98.5174C100.359 98.2136 100.003 97.9742 99.6097 97.8141C99.2164 97.6539 98.7943 97.5765 98.3698 97.5867C97.7959 97.7041 97.251 97.934 96.7667 98.2632C96.2823 98.5924 95.868 99.0143 95.5479 99.5046C95.4121 99.672 95.2398 99.806 95.0441 99.8965C94.8484 99.9869 94.6346 100.031 94.4191 100.026Z" fill="#19164C"/>
<path d="M90.7491 113L89.1406 110.631C90.1163 109.91 91.251 109.434 92.4492 109.242C93.6475 109.051 94.8741 109.15 96.0261 109.531C96.7702 109.802 97.4766 110.167 98.1284 110.617L96.5058 112.972C96.0704 112.666 95.5959 112.419 95.0949 112.239C94.3638 111.998 93.5845 111.941 92.8263 112.074C92.0682 112.207 91.3546 112.525 90.7491 113Z" fill="#19164C"/>
<path d="M95.0596 25.708H92.1953V98.5876H95.0596V25.708Z" fill="#19164C"/>
<path d="M101.587 27.1463H85.7C85.3258 27.1463 84.9669 26.9978 84.7023 26.7333C84.4377 26.4688 84.2891 26.1101 84.2891 25.7361V19.9825C84.2891 19.6085 84.4377 19.2498 84.7023 18.9853C84.9669 18.7208 85.3258 18.5723 85.7 18.5723H101.587C101.962 18.5723 102.321 18.7208 102.585 18.9853C102.85 19.2498 102.998 19.6085 102.998 19.9825V25.7079C103.002 25.8955 102.968 26.0819 102.899 26.2563C102.83 26.4306 102.727 26.5894 102.595 26.7234C102.464 26.8573 102.307 26.9637 102.134 27.0364C101.961 27.109 101.775 27.1464 101.587 27.1463ZM87.1533 24.3259H100.176V21.5055H87.1251L87.1533 24.3259Z" fill="#19164C"/>
<path d="M101.587 21.4208H85.7C85.3258 21.4208 84.9669 21.2722 84.7023 21.0077C84.4377 20.7432 84.2891 20.3846 84.2891 20.0105V14.2569C84.2891 13.8829 84.4377 13.5242 84.7023 13.2597C84.9669 12.9953 85.3258 12.8467 85.7 12.8467H101.587C101.962 12.8467 102.321 12.9953 102.585 13.2597C102.85 13.5242 102.998 13.8829 102.998 14.2569V19.9823C103.002 20.1699 102.968 20.3563 102.899 20.5307C102.83 20.705 102.727 20.8638 102.595 20.9978C102.464 21.1317 102.307 21.2381 102.134 21.3108C101.961 21.3834 101.775 21.4208 101.587 21.4208ZM87.1533 18.6003H100.176V15.7799H87.1251L87.1533 18.6003Z" fill="#19164C"/>
<path d="M70.3786 109.348H1.41096C1.03675 109.348 0.677866 109.2 0.41326 108.935C0.148654 108.671 0 108.312 0 107.938V15.3858C0 15.0118 0.148654 14.6531 0.41326 14.3886C0.677866 14.1242 1.03675 13.9756 1.41096 13.9756H70.3786C70.7528 13.9756 71.1117 14.1242 71.3763 14.3886C71.6409 14.6531 71.7896 15.0118 71.7896 15.3858V107.91C71.7933 108.097 71.7596 108.284 71.6904 108.458C71.6211 108.632 71.5178 108.791 71.3864 108.925C71.255 109.059 71.0982 109.165 70.9252 109.238C70.7521 109.311 70.5663 109.348 70.3786 109.348ZM2.82192 106.485H68.9535V16.8101H2.82192V106.485Z" fill="#19164C"/>
<path d="M15.9828 24.9606C11.5947 24.9606 8.03906 20.73 8.03906 15.3853C8.03906 10.0406 11.5947 5.7959 15.9828 5.7959C20.3708 5.7959 23.9829 10.097 23.9829 15.3853C23.9829 15.7257 23.8476 16.0521 23.6068 16.2927C23.366 16.5334 23.0395 16.6686 22.6989 16.6686C22.3584 16.6686 22.0318 16.5334 21.791 16.2927C21.5502 16.0521 21.415 15.7257 21.415 15.3853C21.415 11.5213 19.0022 8.33428 16.0392 8.33428C13.0762 8.33428 10.6634 11.479 10.6634 15.3853C10.6634 19.2916 13.0762 22.4364 16.0392 22.4364C16.3797 22.4364 16.7063 22.5716 16.9471 22.8122C17.1879 23.0529 17.3232 23.3793 17.3232 23.7197C17.3232 24.06 17.1879 24.3864 16.9471 24.6271C16.7063 24.8678 16.3797 25.003 16.0392 25.003L15.9828 24.9606Z" fill="#19164C"/>
<path d="M35.9124 24.9606C31.5244 24.9606 27.9688 20.73 27.9688 15.3853C27.9688 10.0406 31.5244 5.7959 35.9124 5.7959C40.3005 5.7959 43.8561 10.097 43.8561 15.3853C43.8561 15.7257 43.7209 16.0521 43.4801 16.2927C43.2393 16.5334 42.9127 16.6686 42.5722 16.6686C42.2316 16.6686 41.9051 16.5334 41.6643 16.2927C41.4235 16.0521 41.2882 15.7257 41.2882 15.3853C41.2882 11.5213 38.8755 8.33428 35.9124 8.33428C32.9494 8.33428 30.5367 11.479 30.5367 15.3853C30.5367 19.2916 32.9494 22.4364 35.9124 22.4364C36.253 22.4364 36.5796 22.5716 36.8204 22.8122C37.0611 23.0529 37.1964 23.3793 37.1964 23.7197C37.1964 24.06 37.0611 24.3864 36.8204 24.6271C36.5796 24.8678 36.253 25.003 35.9124 25.003V24.9606Z" fill="#19164C"/>
<path d="M55.8343 24.9606C51.4462 24.9606 47.8906 20.73 47.8906 15.3853C47.8906 10.0406 51.4462 5.7959 55.8343 5.7959C60.2224 5.7959 63.778 10.097 63.778 15.3853C63.778 15.7257 63.6427 16.0521 63.402 16.2927C63.1612 16.5334 62.8346 16.6686 62.4941 16.6686C62.1535 16.6686 61.8269 16.5334 61.5861 16.2927C61.3454 16.0521 61.2101 15.7257 61.2101 15.3853C61.2101 11.5213 58.7973 8.33428 55.8343 8.33428C52.8713 8.33428 50.4586 11.479 50.4586 15.3853C50.4586 19.2916 52.8713 22.4364 55.8343 22.4364C56.1749 22.4364 56.5014 22.5716 56.7422 22.8122C56.983 23.0529 57.1183 23.3793 57.1183 23.7197C57.1183 24.06 56.983 24.3864 56.7422 24.6271C56.5014 24.8678 56.1749 25.003 55.8343 25.003V24.9606Z" fill="#19164C"/>
<path d="M91.7109 112.493C92.3216 112.169 93.0022 112 93.6933 112C94.3845 112 95.0651 112.169 95.6757 112.493L93.7004 119.121L91.7109 112.493Z" fill="white"/>
<path d="M90.0933 2.82086H97.1481C97.5486 2.81319 97.9465 2.88638 98.318 3.03604C98.6895 3.1857 99.027 3.40874 99.3103 3.69183C99.5935 3.97491 99.8167 4.31221 99.9664 4.68353C100.116 5.05484 100.189 5.45254 100.182 5.85281V12.8333H87.1021V5.85281C87.0946 5.45614 87.1665 5.06198 87.3136 4.6935C87.4607 4.32502 87.6801 3.98967 87.9588 3.70717C88.2375 3.42467 88.5699 3.20073 88.9365 3.04852C89.3031 2.89631 89.6964 2.81891 90.0933 2.82086Z" fill="white"/>
<path d="M19.6858 46.1846C23.0288 46.1846 25.7388 43.476 25.7388 40.1348C25.7388 36.7935 23.0288 34.085 19.6858 34.085C16.3428 34.085 13.6328 36.7935 13.6328 40.1348C13.6328 43.476 16.3428 46.1846 19.6858 46.1846Z" fill="white"/>
</g>
<defs>
<clipPath id="clip0_561_1199">
<rect width="103" height="123.295" fill="white"/>
</clipPath>
</defs>
</svg>
