<svg width="370" height="372" viewBox="0 0 370 372" fill="none" xmlns="http://www.w3.org/2000/svg">
<path d="M266.114 29.3926C302.725 48.2118 339.297 71.5147 356.646 108.784C374.057 146.188 373.49 190.739 359.241 229.452C346.117 265.108 311.759 285.726 282.55 310.086C254.885 333.159 229.232 359.815 193.963 367.296C156.483 375.245 113.869 374.847 82.8153 352.448C52.6974 330.725 51.0451 288.359 36.9528 254.048C23.575 221.476 -6.59536 190.938 2.51257 156.93C11.5915 123.031 56.2197 115.369 80.8116 90.2865C107.685 62.8777 116.071 15.8764 152.57 3.882C190.343 -8.53094 230.761 11.2197 266.114 29.3926Z" fill="#282065"/>
</svg>
