<svg width="135" height="122" viewBox="0 0 135 122" fill="none" xmlns="http://www.w3.org/2000/svg">
<path d="M37.7553 49.5128H10.5856C10.2749 49.5128 9.97693 49.3895 9.75721 49.1699C9.5375 48.9503 9.41406 48.6524 9.41406 48.3419C9.41406 48.0313 9.5375 47.7335 9.75721 47.5139C9.97693 47.2943 10.2749 47.1709 10.5856 47.1709H37.7553C38.066 47.1709 38.364 47.2943 38.5837 47.5139C38.8034 47.7335 38.9269 48.0313 38.9269 48.3419C38.9269 48.6524 38.8034 48.9503 38.5837 49.1699C38.364 49.3895 38.066 49.5128 37.7553 49.5128V49.5128Z" fill="#FDFEFF"/>
<path d="M125.006 49.5128H97.195C96.8843 49.5128 96.5863 49.3895 96.3666 49.1699C96.1469 48.9503 96.0234 48.6524 96.0234 48.3419C96.0234 48.0313 96.1469 47.7335 96.3666 47.5139C96.5863 47.2943 96.8843 47.1709 97.195 47.1709H125.006C125.317 47.1709 125.615 47.2943 125.835 47.5139C126.054 47.7335 126.178 48.0313 126.178 48.3419C126.178 48.6524 126.054 48.9503 125.835 49.1699C125.615 49.3895 125.317 49.5128 125.006 49.5128V49.5128Z" fill="#FDFEFF"/>
<path d="M46.4509 28.2681C46.1742 28.2705 45.9062 28.1713 45.6977 27.9893L37.8872 21.4374C37.756 21.3287 37.6505 21.1923 37.5782 21.0381C37.5059 20.8839 37.4685 20.7156 37.4688 20.5453V9.61628C37.4688 9.30572 37.5922 9.00788 37.8119 8.78828C38.0316 8.56868 38.3296 8.44531 38.6403 8.44531C38.9511 8.44531 39.2491 8.56868 39.4688 8.78828C39.6885 9.00788 39.8119 9.30572 39.8119 9.61628V20.0016L47.2041 26.2049C47.3235 26.302 47.4223 26.4219 47.4948 26.5576C47.5673 26.6933 47.612 26.8421 47.6263 26.9952C47.6406 27.1484 47.6242 27.3029 47.578 27.4496C47.5319 27.5964 47.4569 27.7324 47.3575 27.8499C47.2459 27.9813 47.107 28.0868 46.9504 28.159C46.7938 28.2312 46.6234 28.2685 46.4509 28.2681Z" fill="#FDFEFF"/>
<path d="M88.7055 28.6166C88.5348 28.6188 88.3657 28.5823 88.2111 28.5099C88.0565 28.4375 87.9204 28.331 87.8129 28.1984C87.614 27.9614 87.5171 27.6554 87.5432 27.3472C87.5694 27.039 87.7164 26.7536 87.9523 26.5534L95.7769 20.0016V9.61628C95.7769 9.30572 95.9003 9.00788 96.12 8.78828C96.3397 8.56868 96.6377 8.44531 96.9484 8.44531C97.2592 8.44531 97.5572 8.56868 97.7769 8.78828C97.9966 9.00788 98.12 9.30572 98.12 9.61628V20.5453C98.1203 20.7156 98.0829 20.8839 98.0106 21.0381C97.9383 21.1923 97.8328 21.3287 97.7016 21.4374L89.4587 28.4075C89.2395 28.5623 88.9732 28.6363 88.7055 28.6166Z" fill="#FDFEFF"/>
<path d="M96.9484 90.6081C96.7941 90.6099 96.6409 90.5809 96.4979 90.5227C96.3549 90.4646 96.225 90.3784 96.1158 90.2693C96.0067 90.1602 95.9205 90.0303 95.8622 89.8874C95.804 89.7445 95.775 89.5914 95.7769 89.4371V79.0517L87.9523 72.5696C87.7164 72.3694 87.5694 72.0841 87.5432 71.7759C87.5171 71.4677 87.614 71.1617 87.8129 70.9247C87.911 70.8063 88.0317 70.7087 88.1679 70.6375C88.3042 70.5663 88.4533 70.523 88.6065 70.51C88.7597 70.497 88.914 70.5147 89.0603 70.5619C89.2066 70.6092 89.342 70.6851 89.4587 70.7853L97.7016 77.6856C97.8328 77.7944 97.9383 77.9307 98.0106 78.085C98.0829 78.2392 98.1203 78.4075 98.12 78.5778V89.4371C98.12 89.7477 97.9966 90.0455 97.7769 90.2651C97.5572 90.4847 97.2592 90.6081 96.9484 90.6081V90.6081Z" fill="#FDFEFF"/>
<path d="M77.4721 102.807H57.1646C56.8747 102.805 56.5959 102.695 56.382 102.5C56.1682 102.304 56.0346 102.036 56.007 101.747L55.8256 99.8935C54.8153 88.3062 50.4538 77.263 43.2729 68.1102C40.2717 64.2797 38.2294 59.7881 37.3161 55.0093C36.4028 50.2305 36.645 45.3028 38.0224 40.6364C39.3998 35.97 41.8727 31.7001 45.235 28.182C48.5974 24.664 52.752 21.9996 57.3529 20.4108C61.9538 18.822 66.8679 18.3547 71.6861 19.0479C76.5042 19.741 81.0869 21.5746 85.0527 24.3958C89.0185 27.217 92.2526 30.9443 94.4858 35.2674C96.7189 39.5904 97.8864 44.3841 97.8912 49.2493C97.9093 55.8188 95.7842 62.2151 91.838 67.4689C84.4508 77.0141 79.898 88.4432 78.6995 100.451L78.5879 101.845C78.5401 102.109 78.4033 102.348 78.2002 102.523C77.9971 102.698 77.7401 102.798 77.4721 102.807V102.807ZM58.2386 100.451H76.3702V100.172C77.6131 87.7577 82.304 75.9377 89.9132 66.047C93.1049 61.7618 95.0124 56.6582 95.4134 51.3311C95.8145 46.0039 94.6926 40.6725 92.1785 35.9582C89.6644 31.2438 85.8616 27.3406 81.2132 24.7034C76.5649 22.0661 71.2624 20.8035 65.9236 21.0625C60.7471 21.3013 55.7366 22.9616 51.4427 25.8611C47.1488 28.7605 43.7377 32.7869 41.5843 37.4978C39.4308 42.2087 38.6184 47.4217 39.2361 52.5641C39.8539 57.7064 41.8781 62.579 45.0861 66.6465C52.5398 76.1554 57.0702 87.6231 58.127 99.6565L58.2386 100.451Z" fill="white"/>
<path d="M77.4637 101.636V110.836C77.4637 111.25 77.2992 111.647 77.0062 111.94C76.7133 112.233 76.3159 112.397 75.9016 112.397H58.7184C58.3041 112.397 57.9067 112.233 57.6138 111.94C57.3208 111.647 57.1562 111.25 57.1562 110.836V101.636H77.4637Z" fill="white"/>
<path d="M72.1913 112.396V117.847C72.1876 118.41 71.9612 118.949 71.5614 119.346C71.1616 119.743 70.6209 119.966 70.0574 119.966H64.7434C64.462 119.966 64.1833 119.91 63.9235 119.802C63.6637 119.694 63.4278 119.536 63.2295 119.336C63.0312 119.137 62.8743 118.9 62.7678 118.64C62.6614 118.379 62.6076 118.1 62.6094 117.819V112.396H72.1913Z" fill="#50C9B2"/>
<path d="M67.3825 102.806C67.0718 102.806 66.7738 102.682 66.5541 102.463C66.3344 102.243 66.2109 101.945 66.2109 101.635V71.1758C66.2109 70.8653 66.3344 70.5674 66.5541 70.3478C66.7738 70.1282 67.0718 70.0049 67.3825 70.0049C67.6932 70.0049 67.9912 70.1282 68.211 70.3478C68.4307 70.5674 68.5541 70.8653 68.5541 71.1758V101.635C68.556 101.789 68.527 101.942 68.4687 102.085C68.4105 102.228 68.3243 102.358 68.2151 102.467C68.106 102.576 67.9761 102.662 67.8331 102.72C67.6901 102.779 67.5369 102.808 67.3825 102.806V102.806Z" fill="#FDFEFF"/>
<path d="M133.313 48.3299C133.308 49.3934 132.922 50.4199 132.224 51.2233C131.527 52.0267 130.565 52.5538 129.512 52.7089C128.46 52.864 127.386 52.6369 126.487 52.0688C125.587 51.5007 124.921 50.6292 124.609 49.6124C124.48 49.1971 124.414 48.7648 124.414 48.3299C124.414 47.7424 124.53 47.1607 124.757 46.6184C124.983 46.0762 125.314 45.5841 125.732 45.1706C126.15 44.7571 126.645 44.4304 127.19 44.2094C127.734 43.9884 128.317 43.8775 128.905 43.883C129.344 43.8846 129.78 43.9455 130.202 44.0642C131.106 44.3539 131.895 44.9232 132.454 45.6899C133.013 46.4567 133.314 47.3811 133.313 48.3299V48.3299Z" fill="#82CBAD"/>
<path d="M130.293 45.3615C130.293 46.0562 130.13 46.7412 129.817 47.3615C129.504 47.9819 129.05 48.5203 128.491 48.9336C127.933 49.347 127.285 49.6238 126.6 49.7418C125.915 49.8598 125.212 49.8158 124.547 49.6132C124.418 49.198 124.352 48.7656 124.352 48.3308C124.351 47.7385 124.47 47.1522 124.699 46.6062C124.929 46.0602 125.266 45.5656 125.689 45.1513C126.113 44.7371 126.615 44.4116 127.166 44.194C127.717 43.9763 128.306 43.8709 128.898 43.8839C129.337 43.8854 129.773 43.9464 130.196 44.0651C130.291 44.4902 130.324 44.9269 130.293 45.3615Z" fill="#FDFEFF"/>
<path d="M128.899 53.9323C127.796 53.9323 126.717 53.6053 125.8 52.9926C124.882 52.3799 124.167 51.509 123.745 50.4901C123.323 49.4713 123.212 48.3501 123.428 47.2685C123.643 46.1868 124.174 45.1933 124.954 44.4135C125.735 43.6336 126.729 43.1026 127.811 42.8874C128.893 42.6723 130.015 42.7827 131.034 43.2047C132.054 43.6268 132.925 44.3415 133.538 45.2584C134.151 46.1754 134.478 47.2535 134.478 48.3563C134.478 49.8352 133.891 51.2534 132.844 52.2991C131.798 53.3448 130.379 53.9323 128.899 53.9323ZM128.899 45.0525C128.251 45.0525 127.617 45.2446 127.078 45.6046C126.539 45.9646 126.119 46.4762 125.871 47.0748C125.623 47.6734 125.558 48.3321 125.685 48.9675C125.811 49.603 126.123 50.1867 126.582 50.6448C127.04 51.103 127.624 51.415 128.26 51.5414C128.896 51.6678 129.555 51.6029 130.154 51.355C130.753 51.107 131.264 50.6871 131.625 50.1484C131.985 49.6097 132.177 48.9763 132.177 48.3284C132.177 47.8982 132.092 47.4722 131.927 47.0748C131.763 46.6773 131.521 46.3162 131.217 46.012C130.913 45.7078 130.551 45.4665 130.154 45.3019C129.756 45.1372 129.33 45.0525 128.899 45.0525V45.0525Z" fill="white"/>
<path d="M10.644 48.3297C10.6194 49.3781 10.2248 50.384 9.53004 51.1699C8.83525 51.9557 7.88496 52.4708 6.84701 52.6243C5.80907 52.7777 4.75026 52.5596 3.85762 52.0084C2.96498 51.4573 2.29595 50.6086 1.9687 49.6122C1.83942 49.1969 1.77359 48.7646 1.77344 48.3297C1.77329 47.1623 2.23247 46.0416 3.05184 45.2097C3.87121 44.3777 4.98506 43.9011 6.15294 43.8828C6.59144 43.8854 7.02765 43.9463 7.45005 44.064C8.36843 44.3409 9.17399 44.9044 9.74873 45.672C10.3235 46.4396 10.6372 47.371 10.644 48.3297V48.3297Z" fill="#82CBAD"/>
<path d="M7.68716 45.3605C7.68554 46.052 7.52258 46.7336 7.21122 47.3512C6.89985 47.9688 6.44867 48.5052 5.89352 48.918C5.33838 49.3308 4.69456 49.6084 4.01324 49.7289C3.33191 49.8494 2.63186 49.8094 1.9687 49.6122C1.83942 49.1969 1.77359 48.7646 1.77344 48.3297C1.77329 47.1623 2.23247 46.0416 3.05184 45.2097C3.87121 44.3777 4.98505 43.9011 6.15294 43.8828C6.59144 43.8854 7.02765 43.9463 7.45005 44.064C7.59248 44.4822 7.67237 44.919 7.68716 45.3605Z" fill="#FDFEFF"/>
<path d="M6.16492 53.9323C5.06151 53.9323 3.98287 53.6053 3.06541 52.9926C2.14795 52.3799 1.43287 51.509 1.01061 50.4901C0.588355 49.4713 0.477872 48.3501 0.693139 47.2685C0.908405 46.1868 1.43975 45.1933 2.21999 44.4135C3.00022 43.6336 3.9943 43.1026 5.07652 42.8874C6.15874 42.6723 7.28048 42.7827 8.29991 43.2047C9.31934 43.6268 10.1907 44.3415 10.8037 45.2584C11.4167 46.1754 11.7439 47.2535 11.7439 48.3563C11.7439 49.8352 11.1561 51.2534 10.1099 52.2991C9.0636 53.3448 7.64456 53.9323 6.16492 53.9323V53.9323ZM6.16492 45.0525C5.51667 45.0525 4.88296 45.2446 4.34396 45.6046C3.80495 45.9646 3.38485 46.4762 3.13677 47.0748C2.88869 47.6734 2.82378 48.3321 2.95025 48.9675C3.07672 49.603 3.38889 50.1867 3.84727 50.6448C4.30566 51.103 4.88968 51.415 5.52549 51.5414C6.16129 51.6678 6.82032 51.6029 7.41923 51.355C8.01814 51.107 8.53004 50.6871 8.89019 50.1484C9.25035 49.6097 9.44258 48.9763 9.44258 48.3284C9.44258 47.8982 9.3578 47.4722 9.19308 47.0748C9.02836 46.6773 8.78693 46.3162 8.48257 46.012C8.17822 45.7078 7.81689 45.4665 7.41923 45.3019C7.02157 45.1372 6.59535 45.0525 6.16492 45.0525V45.0525Z" fill="white"/>
<path d="M101.586 92.8814C101.584 93.9461 101.201 94.9749 100.505 95.7808C99.8085 96.5868 98.8462 97.1163 97.7926 97.2733C96.739 97.4302 95.664 97.2041 94.763 96.6361C93.8621 96.0681 93.1949 95.1958 92.8828 94.1779C92.7525 93.7581 92.6867 93.321 92.6875 92.8814C92.6875 91.7021 93.1563 90.571 93.9907 89.737C94.825 88.9031 95.9567 88.4346 97.1368 88.4346C98.3168 88.4346 99.4484 88.9031 100.283 89.737C101.117 90.571 101.586 91.7021 101.586 92.8814Z" fill="#82CBAD"/>
<path d="M98.6291 89.9263C98.618 90.6151 98.447 91.2919 98.1295 91.9033C97.812 92.5148 97.3566 93.0441 96.7995 93.4496C96.2423 93.8551 95.5984 94.1257 94.9187 94.24C94.239 94.3543 93.5421 94.3092 92.8828 94.1083C92.7525 93.6885 92.6867 93.2514 92.6875 92.8119C92.6986 92.1231 92.8696 91.4463 93.1872 90.8348C93.5047 90.2234 93.96 89.6941 94.5172 89.2886C95.0744 88.8831 95.7182 88.6125 96.3979 88.4982C97.0776 88.3839 97.7746 88.4289 98.4339 88.6299C98.5621 89.0501 98.6279 89.4869 98.6291 89.9263V89.9263Z" fill="#FDFEFF"/>
<path d="M97.1337 98.4997C96.0303 98.4997 94.9516 98.1727 94.0342 97.56C93.1167 96.9473 92.4016 96.0764 91.9794 95.0575C91.5571 94.0387 91.4466 92.9175 91.6619 91.8359C91.8772 90.7542 92.4085 89.7607 93.1887 88.9808C93.969 88.201 94.963 87.67 96.0453 87.4548C97.1275 87.2396 98.2492 87.3501 99.2687 87.7721C100.288 88.1941 101.159 88.9088 101.772 89.8258C102.385 90.7428 102.713 91.8208 102.713 92.9237C102.713 94.4025 102.125 95.8208 101.079 96.8665C100.032 97.9122 98.6133 98.4997 97.1337 98.4997ZM97.1337 89.6199C96.4842 89.6171 95.8486 89.8073 95.3075 90.1662C94.7663 90.5251 94.3441 91.0365 94.0943 91.6357C93.8445 92.2349 93.7784 92.8947 93.9044 93.5315C94.0304 94.1682 94.3429 94.7532 94.8021 95.2122C95.2613 95.6712 95.8466 95.9835 96.4837 96.1094C97.1208 96.2354 97.781 96.1693 98.3805 95.9197C98.98 95.67 99.4917 95.2479 99.8508 94.7071C100.21 94.1662 100.4 93.531 100.397 92.8819C100.394 92.0179 100.049 91.1903 99.4374 90.5794C98.8261 89.9684 97.9981 89.6236 97.1337 89.6199V89.6199Z" fill="white"/>
<path d="M38.242 90.6095C38.0876 90.6114 37.9344 90.5824 37.7914 90.5242C37.6484 90.466 37.5185 90.3798 37.4094 90.2707C37.3002 90.1616 37.214 90.0318 37.1558 89.8889C37.0976 89.746 37.0685 89.5928 37.0704 89.4386V78.5096C37.0701 78.3392 37.1075 78.171 37.1798 78.0167C37.2522 77.8625 37.3577 77.7261 37.4888 77.6174L45.7178 70.7171C45.8356 70.6165 45.9722 70.5403 46.1196 70.4929C46.2671 70.4454 46.4224 70.4277 46.5768 70.4406C46.7311 70.4536 46.8814 70.497 47.0188 70.5684C47.1563 70.6398 47.2782 70.7377 47.3776 70.8565C47.4883 70.9753 47.5727 71.1161 47.6254 71.2697C47.6781 71.4233 47.6978 71.5862 47.6834 71.748C47.6689 71.9097 47.6205 72.0666 47.5414 72.2084C47.4623 72.3502 47.3542 72.4738 47.2241 72.5711L39.4136 79.1229V89.4386C39.4136 89.7491 39.2901 90.047 39.0704 90.2666C38.8507 90.4862 38.5527 90.6095 38.242 90.6095V90.6095Z" fill="#FDFEFF"/>
<path d="M42.4236 92.8815C42.4339 93.951 42.0569 94.9882 41.3622 95.8018C40.6674 96.6154 39.7018 97.1505 38.6433 97.3084C37.5849 97.4663 36.505 97.2364 35.6028 96.6611C34.7007 96.0858 34.037 95.2038 33.7343 94.1779C33.6041 93.7581 33.5382 93.321 33.5391 92.8815C33.5391 91.7021 34.0078 90.571 34.8422 89.737C35.6766 88.9031 36.8083 88.4346 37.9883 88.4346C38.4281 88.4338 38.8654 88.4996 39.2854 88.6297C40.1946 88.9099 40.99 89.4741 41.5548 90.2393C42.1196 91.0045 42.4241 91.9305 42.4236 92.8815V92.8815Z" fill="#82CBAD"/>
<path d="M39.537 89.9255C39.5282 90.6138 39.3591 91.2905 39.0432 91.9021C38.7273 92.5136 38.2733 93.0433 37.7171 93.4491C37.1608 93.8549 36.5177 94.1256 35.8386 94.2399C35.1595 94.3542 34.4632 94.3089 33.8046 94.1076C33.6744 93.6878 33.6086 93.2507 33.6094 92.8111C33.6094 91.6317 34.0781 90.5007 34.9125 89.6667C35.7469 88.8328 36.8786 88.3643 38.0586 88.3643C38.4984 88.3634 38.9357 88.4292 39.3557 88.5594C39.4787 89.0043 39.5398 89.464 39.537 89.9255Z" fill="#FDFEFF"/>
<path d="M38.0477 98.4997C36.9443 98.4997 35.8657 98.1727 34.9482 97.56C34.0308 96.9473 33.3157 96.0764 32.8934 95.0575C32.4712 94.0387 32.3607 92.9175 32.576 91.8359C32.7912 90.7542 33.3226 89.7607 34.1028 88.9808C34.883 88.201 35.8771 87.67 36.9593 87.4548C38.0415 87.2396 39.1633 87.3501 40.1827 87.7721C41.2021 88.1941 42.0735 88.9088 42.6865 89.8258C43.2995 90.7428 43.6267 91.8208 43.6267 92.9237C43.6267 94.4025 43.0389 95.8208 41.9927 96.8665C40.9464 97.9122 39.5274 98.4997 38.0477 98.4997ZM38.0477 89.6199C37.3983 89.6171 36.7627 89.8073 36.2215 90.1662C35.6804 90.5251 35.2581 91.0365 35.0083 91.6357C34.7585 92.2349 34.6924 92.8947 34.8185 93.5315C34.9445 94.1682 35.2569 94.7532 35.7162 95.2122C36.1754 95.6712 36.7607 95.9835 37.3978 96.1094C38.0349 96.2354 38.6951 96.1693 39.2945 95.9197C39.894 95.67 40.4058 95.2479 40.7649 94.7071C41.124 94.1662 41.3142 93.531 41.3114 92.8819C41.3078 92.0179 40.9627 91.1903 40.3515 90.5794C39.7402 89.9684 38.9122 89.6236 38.0477 89.6199V89.6199Z" fill="white"/>
<path d="M101.418 5.65886C101.438 6.59977 101.159 7.52291 100.623 8.29622C100.086 9.06952 99.3184 9.65337 98.4296 9.96423C97.5408 10.2751 96.5765 10.297 95.6744 10.0269C94.7724 9.75684 93.979 9.20852 93.4077 8.46044C92.8363 7.71235 92.5163 6.80283 92.4935 5.86198C92.4707 4.92113 92.7461 3.99717 93.2805 3.22227C93.8149 2.44737 94.5808 1.86125 95.4686 1.54774C96.3565 1.23424 97.3208 1.20942 98.2236 1.47684C99.1319 1.74362 99.9313 2.293 100.506 3.04511C101.08 3.79722 101.4 4.71284 101.418 5.65886V5.65886Z" fill="#82CBAD"/>
<path d="M98.4591 2.74481C98.4591 3.91938 97.9942 5.04626 97.1658 5.87941C96.3374 6.71256 95.2129 7.18432 94.0377 7.19168C93.5915 7.21238 93.1448 7.16538 92.7127 7.05228C92.4687 6.27679 92.4421 5.44929 92.6357 4.65973C92.8294 3.87017 93.2358 3.14877 93.811 2.57394C94.3861 1.99912 95.1079 1.59286 95.8979 1.39933C96.6878 1.2058 97.5158 1.23241 98.2917 1.47627C98.4088 1.88876 98.4651 2.31609 98.4591 2.74481V2.74481Z" fill="#FDFEFF"/>
<path d="M96.954 11.3181C95.8506 11.3181 94.7719 10.991 93.8545 10.3783C92.937 9.76563 92.2219 8.89477 91.7997 7.87589C91.3774 6.85701 91.2669 5.73585 91.4822 4.65421C91.6975 3.57257 92.2288 2.57902 93.0091 1.7992C93.7893 1.01938 94.7834 0.488312 95.8656 0.27316C96.9478 0.0580078 98.0696 0.168432 99.089 0.590467C100.108 1.0125 100.98 1.7272 101.593 2.64417C102.206 3.56114 102.533 4.63921 102.533 5.74204C102.533 7.22089 101.945 8.63918 100.899 9.68488C99.8527 10.7306 98.4336 11.3181 96.954 11.3181ZM96.954 2.42431C96.304 2.42436 95.6686 2.61759 95.1287 2.97944C94.5889 3.34128 94.1688 3.8554 93.922 4.45643C93.6752 5.05747 93.6128 5.71828 93.7427 6.35486C93.8726 6.99144 94.189 7.57504 94.6515 8.03147C95.1141 8.48791 95.702 8.79656 96.3406 8.9182C96.9791 9.03984 97.6394 8.96897 98.2376 8.7146C98.8357 8.46023 99.3446 8.03385 99.6997 7.48965C100.055 6.94546 100.24 6.30803 100.232 5.6584C100.221 4.79684 99.8705 3.9743 99.257 3.36897C98.6435 2.76363 97.8161 2.42424 96.954 2.42431V2.42431Z" fill="white"/>
<path d="M43.4219 5.65897C43.4447 6.73238 43.0782 7.77779 42.39 8.60218C41.7018 9.42657 40.7384 9.97428 39.6778 10.1442C38.6171 10.3141 37.5307 10.0947 36.6192 9.5265C35.7077 8.95833 35.0327 8.07975 34.7187 7.05298C34.5873 6.60002 34.5216 6.13058 34.5235 5.65897C34.5345 4.48685 35.0081 3.36648 35.8413 2.54155C36.6745 1.71663 37.7999 1.25386 38.9727 1.25391C39.4125 1.25309 39.8498 1.31889 40.2698 1.44907C41.1748 1.72469 41.9683 2.28145 42.5351 3.03849C43.102 3.79554 43.4126 4.71346 43.4219 5.65897V5.65897Z" fill="#82CBAD"/>
<path d="M40.4651 2.7455C40.4651 3.32947 40.35 3.90772 40.1264 4.44724C39.9028 4.98676 39.5751 5.47698 39.1619 5.88991C38.3275 6.72386 37.1959 7.19237 36.0159 7.19237C35.579 7.20925 35.142 7.16229 34.7187 7.05297C34.5873 6.60002 34.5216 6.13057 34.5235 5.65897C34.5345 4.48685 35.0081 3.36648 35.8413 2.54155C36.6745 1.71663 37.7999 1.25386 38.9727 1.25391C39.4125 1.25309 39.8498 1.31889 40.2698 1.44907C40.399 1.86911 40.4649 2.30606 40.4651 2.7455V2.7455Z" fill="#FDFEFF"/>
<path d="M38.9931 11.3181C37.8896 11.3181 36.811 10.991 35.8935 10.3783C34.9761 9.76563 34.261 8.89477 33.8387 7.87589C33.4165 6.85701 33.306 5.73585 33.5213 4.65421C33.7365 3.57257 34.2679 2.57902 35.0481 1.7992C35.8283 1.01938 36.8224 0.488312 37.9046 0.27316C38.9869 0.0580078 40.1086 0.168432 41.128 0.590467C42.1475 1.0125 43.0188 1.7272 43.6318 2.64417C44.2448 3.56114 44.572 4.63921 44.572 5.74204C44.572 7.22089 43.9842 8.63918 42.938 9.68488C41.8917 10.7306 40.4727 11.3181 38.9931 11.3181ZM38.9931 2.42431C38.343 2.42436 37.7077 2.61759 37.1678 2.97944C36.6279 3.34128 36.2079 3.8554 35.9611 4.45643C35.7143 5.05747 35.6519 5.71828 35.7818 6.35486C35.9117 6.99144 36.228 7.57504 36.6906 8.03147C37.1532 8.48791 37.7411 8.79656 38.3796 8.9182C39.0182 9.03984 39.6785 8.96897 40.2766 8.7146C40.8748 8.46023 41.3837 8.03385 41.7388 7.48965C42.0938 6.94546 42.279 6.30803 42.2707 5.6584C42.2597 4.79684 41.9095 3.9743 41.296 3.36897C40.6825 2.76363 39.8551 2.42424 38.9931 2.42431V2.42431Z" fill="white"/>
<path d="M84.7483 59.5925C79.9225 68.5002 67.4395 70.7446 67.4395 70.7446C67.4395 70.7446 67.1326 70.2706 66.6724 69.4342C64.9568 66.3256 61.2747 58.2821 64.2873 51.2145C67.3 44.1469 76.8401 40.0625 80.7872 38.6685C81.2736 38.4914 81.8088 38.5035 82.2867 38.7023C82.7647 38.9012 83.1504 39.2722 83.3675 39.7419C83.758 40.6062 84.2462 41.7771 84.7622 43.1432C86.2825 47.6041 87.6354 54.2674 84.7483 59.5925Z" fill="white"/>
<path d="M84.7476 59.5914C79.9218 68.4991 67.4388 70.7434 67.4388 70.7434C67.4388 70.7434 67.132 70.2695 66.6717 69.4331C66.1529 68.0736 65.7425 66.6752 65.4443 65.251C64.6692 61.9434 64.9123 58.4789 66.1417 55.3118C69.1683 48.2581 78.6944 44.1597 82.6415 42.7657C82.8505 42.684 83.0727 42.6415 83.2971 42.6403C83.8083 42.6278 84.3058 42.8068 84.6918 43.1421C86.2818 47.6029 87.6347 54.2663 84.7476 59.5914Z" fill="#82CBAD"/>
<path d="M82.0676 54.2388C77.8834 61.8918 68.1202 64.6241 65.4423 65.2375C64.6701 61.9343 64.9131 58.475 66.1397 55.3121C69.1662 48.2585 78.6924 44.1601 82.6395 42.7661C82.8484 42.6844 83.0707 42.6419 83.295 42.6406C84.2105 46.5341 83.7778 50.6228 82.0676 54.2388Z" fill="#82CBAD"/>
<path d="M67.4419 71.9144C67.248 71.9137 67.0573 71.865 66.8869 71.7726C66.7165 71.6801 66.5717 71.5468 66.4656 71.3847C66.1727 70.9386 59.171 60.2326 63.2158 50.7534C66.4237 43.2815 76.2985 39.0159 80.3991 37.5243C81.1603 37.2511 81.9963 37.2727 82.7424 37.5849C83.4885 37.8971 84.0905 38.4773 84.4299 39.211C86.1733 43.0306 89.8136 52.719 85.8246 60.1211C80.7896 69.4191 68.2229 71.775 67.6929 71.8726L67.4419 71.9144ZM81.487 39.6711C81.3904 39.6512 81.2907 39.6512 81.1941 39.6711C77.3864 41.0651 68.2229 44.9822 65.3777 51.6177C62.365 58.6574 66.619 66.9517 68.0137 69.3634C70.7335 68.7082 79.897 66.0317 83.7325 58.978C87.2473 52.482 83.8999 43.644 82.3378 40.1311C82.2565 39.9796 82.1326 39.8553 81.9814 39.7735C81.8302 39.6918 81.6583 39.6561 81.487 39.6711V39.6711Z" fill="white"/>
<path d="M67.4302 70.7444C66.4209 70.5971 65.4199 70.397 64.4315 70.145V70.145C60.2473 69.1135 52.8551 66.5206 49.6472 60.5124C46.0906 53.877 48.657 44.1329 50.0378 40.0066C50.2182 39.4436 50.6087 38.9716 51.1281 38.6887C51.6475 38.4057 52.256 38.3336 52.8273 38.4872C54.419 38.9085 55.984 39.4252 57.5136 40.0345C61.7815 41.7492 66.8863 44.7602 68.9924 49.7926C72.8837 59.1184 67.4302 70.7444 67.4302 70.7444Z" fill="white"/>
<path d="M67.4392 70.7437C66.4299 70.5963 65.4289 70.3962 64.4405 70.1442V70.1442C63.7292 69.8376 63.0458 69.5169 62.2647 69.1406C59.0322 67.6215 56.3376 65.1568 54.5379 62.073C50.9813 55.4514 53.5476 45.7073 54.9284 41.5811C55.0716 41.1399 55.3496 40.7547 55.7234 40.4798C55.9682 40.2808 56.2536 40.1377 56.5596 40.0606C56.8656 39.9835 57.1848 39.9744 57.4947 40.0337C61.7626 41.7484 66.8674 44.7594 68.9735 49.7918C72.8927 59.1177 67.4392 70.7437 67.4392 70.7437Z" fill="#82CBAD"/>
<path d="M62.2257 69.1422C58.9932 67.6231 56.2986 65.1584 54.4988 62.0746C50.9422 55.4531 53.5085 45.709 54.8893 41.5827C55.0325 41.1415 55.3106 40.7564 55.6843 40.4814C59.1394 42.2079 61.9181 45.039 63.5786 48.5249C67.1212 56.9168 63.0765 67.1627 62.2257 69.1422Z" fill="#82CBAD"/>
<path d="M67.4339 71.9169H67.2944C66.7365 71.8472 53.4306 70.1187 48.5909 61.0716C44.7971 54.004 47.5448 43.7301 48.8977 39.6457C49.177 38.8074 49.7645 38.1064 50.5413 37.6845C51.3181 37.2627 52.2262 37.1515 53.0819 37.3735C57.0988 38.419 66.7923 41.6531 70.0421 49.3341C74.1426 59.0921 68.7449 70.7599 68.5078 71.2618C68.4097 71.4617 68.2565 71.6296 68.0663 71.7457C67.8761 71.8617 67.6567 71.9211 67.4339 71.9169V71.9169ZM52.1893 39.59C51.9513 39.5922 51.7199 39.6686 51.5274 39.8085C51.3348 39.9485 51.1908 40.145 51.1153 40.3706C49.8601 44.1762 47.2937 53.6833 50.6551 59.9564C54.2675 66.7034 63.7936 68.9059 66.7226 69.4495C67.8105 66.6615 70.9068 57.6005 67.8663 50.2262C65.0768 43.5071 56.1504 40.5797 52.524 39.6318C52.4154 39.6001 52.3024 39.5859 52.1893 39.59Z" fill="white"/>
<path d="M77.4599 101.636V110.836C77.4599 111.25 77.2953 111.647 77.0023 111.94C76.7094 112.233 76.3121 112.397 75.8978 112.397H63.345C62.9332 112.394 62.5394 112.228 62.2495 111.935C61.9595 111.643 61.7969 111.248 61.7969 110.836V101.636H77.4599Z" fill="#82CBAD"/>
<path d="M75.9025 113.569H58.7192C57.9794 113.569 57.2698 113.275 56.7467 112.752C56.2236 112.229 55.9297 111.52 55.9297 110.781V101.58C55.9333 101.271 56.0579 100.975 56.2768 100.756C56.4958 100.537 56.7917 100.413 57.1013 100.409H77.4646C77.7742 100.413 78.0701 100.537 78.289 100.756C78.5079 100.975 78.6325 101.271 78.6362 101.58V110.781C78.6363 111.51 78.3501 112.211 77.839 112.733C77.3278 113.254 76.6326 113.554 75.9025 113.569ZM58.3287 102.807V110.836C58.3321 110.939 58.3744 111.036 58.4469 111.108C58.5194 111.181 58.6167 111.223 58.7192 111.227H75.9025C76.0049 111.223 76.1023 111.181 76.1748 111.108C76.2473 111.036 76.2895 110.939 76.293 110.836V102.807H58.3287Z" fill="white"/>
<path d="M72.1913 112.396V117.847C72.1876 118.41 71.9612 118.949 71.5614 119.346C71.1616 119.743 70.6209 119.966 70.0574 119.966H64.7434C64.462 119.966 64.1833 119.91 63.9235 119.802C63.6637 119.694 63.4278 119.536 63.2295 119.336C63.0312 119.137 62.8743 118.9 62.7678 118.64C62.6614 118.379 62.6076 118.1 62.6094 117.819V112.396H72.1913Z" fill="#82CBAD"/>
<path d="M70.057 121.166H64.743C63.8664 121.166 63.0256 120.818 62.4057 120.198C61.7858 119.579 61.4375 118.738 61.4375 117.862V112.398C61.4375 112.244 61.4678 112.092 61.5267 111.949C61.5856 111.807 61.6719 111.678 61.7806 111.57C61.8894 111.461 62.0186 111.375 62.1607 111.316C62.3029 111.257 62.4552 111.227 62.6091 111.227H72.2328C72.3872 111.225 72.5404 111.254 72.6834 111.312C72.8264 111.37 72.9563 111.456 73.0654 111.565C73.1746 111.675 73.2608 111.804 73.319 111.947C73.3773 112.09 73.4063 112.243 73.4044 112.398V117.862C73.4044 118.3 73.3176 118.733 73.1488 119.136C72.9801 119.54 72.7329 119.906 72.4215 120.213C72.1101 120.52 71.7407 120.763 71.3349 120.927C70.929 121.09 70.4946 121.171 70.057 121.166ZM63.7388 113.569V117.862C63.7388 118.117 63.8402 118.362 64.0207 118.542C64.2012 118.723 64.446 118.824 64.7012 118.824H70.057C70.3123 118.824 70.557 118.723 70.7375 118.542C70.918 118.362 71.0194 118.117 71.0194 117.862V113.569H63.7388Z" fill="white"/>
</svg>
