<svg width="144" height="122" viewBox="0 0 144 122" fill="none" xmlns="http://www.w3.org/2000/svg">
<path d="M85.0365 52.0215H59.5781V62.3791H85.0365V52.0215Z" fill="#82CBAD"/>
<path d="M47.089 52.5068H32.8594V80.3852H47.089V52.5068Z" fill="#82CBAD"/>
<path d="M105.863 5.26758H38.2969V35.8564H105.863V5.26758Z" fill="#82CBAD"/>
<path d="M141.378 109.519H5.66406V119.876H141.378V109.519Z" fill="#82CBAD"/>
<path d="M3.63257 107.778H140.024V118.039H3.63257V107.778ZM17.2814 92.1935H126.472L138.088 104.681H5.66537L17.2814 92.1935ZM18.1526 23.6591C18.1526 22.4007 19.2174 21.4327 20.379 21.4327H33.2534V32.6615C33.2534 35.5655 35.6734 37.9855 38.5774 37.9855H102.853C105.757 37.9855 108.177 35.5655 108.177 32.6615V21.3359H123.277C124.536 21.3359 125.504 22.4007 125.504 23.5623V88.9991H18.0558V23.6591H18.1526ZM36.351 5.46072C36.351 4.20232 37.319 3.23432 38.5774 3.23432H102.853C104.111 3.23432 105.079 4.20232 105.079 5.46072V32.5647C105.079 33.8231 104.111 34.7911 102.853 34.7911H38.5774C37.319 34.7911 36.351 33.8231 36.351 32.5647V5.46072ZM2.08377 121.137H141.573C142.444 121.137 143.121 120.459 143.121 119.588V106.326C143.121 106.326 143.121 106.326 143.121 106.23V106.133V106.036V105.939V105.842V105.746V105.649V105.552C143.121 105.552 143.121 105.455 143.025 105.455L142.928 105.358L142.831 105.262L128.795 90.0639V23.6591C128.795 20.6583 126.375 18.2383 123.374 18.2383H108.273V5.46072C108.273 2.55672 105.853 0.136719 102.949 0.136719H38.5774C35.6734 0.136719 33.2534 2.55672 33.2534 5.46072V18.2383H20.379C17.3782 18.2383 14.9582 20.6583 14.9582 23.6591V89.9671L0.922175 105.262L0.825375 105.358C0.825375 105.358 0.825375 105.455 0.728575 105.455V105.552V105.649V105.746V105.842V105.939V106.036V106.133V106.23V119.491C0.534975 120.459 1.21257 121.137 2.08377 121.137Z" fill="#19164C"/>
<path d="M81.9444 28.2092C82.3316 28.2092 82.7188 28.1124 82.9124 27.822L91.3341 20.6588C91.7213 20.3684 91.9149 19.8844 91.9149 19.4972C91.9149 19.0132 91.7213 18.626 91.3341 18.3356L82.9124 11.1724C82.622 10.882 82.2348 10.7852 81.9444 10.7852C81.4604 10.7852 81.0733 10.9788 80.7829 11.366C80.2021 12.0436 80.2988 13.0116 80.9764 13.5924L88.0429 19.594L80.8796 25.402C80.2021 25.9828 80.1053 26.9508 80.6861 27.6284C80.9765 27.9188 81.4604 28.2092 81.9444 28.2092Z" fill="#19164C"/>
<path d="M49.7167 20.5614L58.1383 27.7246C58.4287 27.9182 58.8159 28.1118 59.1063 28.1118C59.5903 28.1118 59.9775 27.9182 60.2679 27.531C60.8487 26.8534 60.7519 25.8854 60.0743 25.3046L53.0079 19.303L60.0743 13.3014C60.7519 12.7206 60.8487 11.7526 60.2679 11.075C59.6871 10.3974 58.7191 10.3006 58.0415 10.8814L49.6199 18.0446C49.2327 18.335 49.0391 18.819 49.0391 19.2062C49.1359 19.8838 49.3295 20.271 49.7167 20.5614Z" fill="#19164C"/>
<path d="M67.6102 30.0472C67.8038 30.0472 67.9006 30.144 68.0942 30.144C68.7718 30.144 69.3526 29.66 69.5462 29.0792L75.3542 10.1064C75.6446 9.33196 75.1606 8.46076 74.2894 8.17036C73.515 7.87996 72.6438 8.36396 72.3534 9.23516L66.5454 28.208C66.255 28.9824 66.739 29.8536 67.6102 30.0472Z" fill="#19164C"/>
<path d="M45.2599 78.8359H30.9335V50.5703H45.2599V78.8359ZM46.8087 47.4727H29.3847C28.5135 47.4727 27.8359 48.1503 27.8359 49.0215V80.3847C27.8359 81.2559 28.5135 81.9335 29.3847 81.9335H46.8087C47.6799 81.9335 48.3575 81.2559 48.3575 80.3847V49.0215C48.3575 48.1503 47.6799 47.4727 46.8087 47.4727Z" fill="#19164C"/>
<path d="M83.1111 60.9279H58.1367V50.5703H83.0143V60.9279H83.1111ZM86.2087 62.5735V49.0215C86.2087 48.1503 85.5311 47.4727 84.6599 47.4727H56.5879C55.7167 47.4727 55.0391 48.1503 55.0391 49.0215V62.4767C55.0391 63.3479 55.7167 64.0255 56.5879 64.0255H84.6599C85.4343 64.1223 86.2087 63.3479 86.2087 62.5735Z" fill="#19164C"/>
<path d="M111.561 48.9248H97.041C96.1698 48.9248 95.4922 49.6024 95.4922 50.4736C95.4922 51.3448 96.1698 52.0224 97.041 52.0224H111.561C112.432 52.0224 113.11 51.3448 113.11 50.4736C113.207 49.6024 112.432 48.9248 111.561 48.9248Z" fill="#19164C"/>
<path d="M111.561 57.4424H97.041C96.1698 57.4424 95.4922 58.12 95.4922 58.9912C95.4922 59.8624 96.1698 60.54 97.041 60.54H111.561C112.432 60.54 113.11 59.8624 113.11 58.9912C113.207 58.12 112.432 57.4424 111.561 57.4424Z" fill="#19164C"/>
<path d="M111.563 69.9287H65.9707C65.0995 69.9287 64.4219 70.6063 64.4219 71.4775C64.4219 72.3487 65.0995 73.0263 65.9707 73.0263H111.66C112.531 73.0263 113.209 72.3487 113.209 71.4775C113.209 70.6063 112.435 69.9287 111.563 69.9287Z" fill="#19164C"/>
<path d="M111.563 78.834H65.9707C65.0995 78.834 64.4219 79.5116 64.4219 80.3828C64.4219 81.254 65.0995 81.9316 65.9707 81.9316H111.66C112.531 81.9316 113.209 81.254 113.209 80.3828C113.209 79.5116 112.435 78.834 111.563 78.834Z" fill="#19164C"/>
</svg>
