<svg width="139" height="126" viewBox="0 0 139 126" fill="none" xmlns="http://www.w3.org/2000/svg">
<path d="M38.5857 51.316H10.3803C10.0577 51.316 9.74839 51.1879 9.52029 50.9599C9.2922 50.732 9.16406 50.4228 9.16406 50.1004C9.16406 49.778 9.2922 49.4688 9.52029 49.2408C9.74839 49.0128 10.0577 48.8848 10.3803 48.8848H38.5857C38.9083 48.8848 39.2177 49.0128 39.4457 49.2408C39.6738 49.4688 39.802 49.778 39.802 50.1004C39.802 50.4228 39.6738 50.732 39.4457 50.9599C39.2177 51.1879 38.9083 51.316 38.5857 51.316Z" fill="#1D1655"/>
<path d="M129.166 51.316H100.294C99.9718 51.316 99.6625 51.1879 99.4344 50.9599C99.2063 50.732 99.0781 50.4228 99.0781 50.1004C99.0781 49.778 99.2063 49.4688 99.4344 49.2408C99.6625 49.0128 99.9718 48.8848 100.294 48.8848H129.166C129.488 48.8848 129.798 49.0128 130.026 49.2408C130.254 49.4688 130.382 49.778 130.382 50.1004C130.382 50.4228 130.254 50.732 130.026 50.9599C129.798 51.1879 129.488 51.316 129.166 51.316Z" fill="#1D1655"/>
<path d="M47.6215 29.2611C47.3342 29.2636 47.0559 29.1606 46.8396 28.9716L38.7313 22.17C38.5951 22.0571 38.4856 21.9156 38.4105 21.7555C38.3354 21.5954 38.2966 21.4207 38.2969 21.2439V9.89822C38.2969 9.57582 38.425 9.26663 38.6531 9.03866C38.8812 8.81069 39.1906 8.68262 39.5131 8.68262C39.8357 8.68262 40.1451 8.81069 40.3731 9.03866C40.6012 9.26663 40.7294 9.57582 40.7294 9.89822V20.6795L48.4033 27.1193C48.5273 27.22 48.6299 27.3445 48.7052 27.4854C48.7804 27.6262 48.8268 27.7807 48.8417 27.9397C48.8565 28.0987 48.8395 28.2591 48.7915 28.4114C48.7436 28.5637 48.6658 28.705 48.5626 28.8269C48.4468 28.9634 48.3025 29.0729 48.14 29.1479C47.9774 29.2228 47.8005 29.2615 47.6215 29.2611Z" fill="#1D1655"/>
<path d="M91.4765 29.6228C91.2993 29.6252 91.1238 29.5873 90.9633 29.5121C90.8028 29.4369 90.6615 29.3264 90.5499 29.1887C90.3435 28.9427 90.2428 28.625 90.27 28.305C90.2971 27.9851 90.4498 27.6889 90.6947 27.4811L98.8175 20.6795V9.89822C98.8175 9.57582 98.9456 9.26663 99.1737 9.03866C99.4018 8.81069 99.7111 8.68262 100.034 8.68262C100.356 8.68262 100.666 8.81069 100.894 9.03866C101.122 9.26663 101.25 9.57582 101.25 9.89822V21.2439C101.25 21.4207 101.211 21.5954 101.136 21.7555C101.061 21.9156 100.952 22.0571 100.816 22.17L92.2584 29.4058C92.0308 29.5665 91.7545 29.6433 91.4765 29.6228Z" fill="#1D1655"/>
<path d="M100.034 93.9779C99.8735 93.9799 99.7144 93.9497 99.566 93.8893C99.4176 93.8289 99.2827 93.7395 99.1694 93.6262C99.056 93.5129 98.9665 93.3782 98.9061 93.2298C98.8457 93.0814 98.8155 92.9225 98.8175 92.7623V81.981L90.6947 75.2518C90.4498 75.044 90.2971 74.7478 90.27 74.4278C90.2428 74.1079 90.3435 73.7902 90.5499 73.5442C90.6517 73.4213 90.777 73.32 90.9185 73.2461C91.0599 73.1721 91.2147 73.1271 91.3738 73.1137C91.5328 73.1002 91.693 73.1185 91.8449 73.1676C91.9967 73.2167 92.1373 73.2955 92.2584 73.3994L100.816 80.5628C100.952 80.6757 101.061 80.8173 101.136 80.9774C101.211 81.1375 101.25 81.3122 101.25 81.489V92.7623C101.25 93.0847 101.122 93.3939 100.894 93.6219C100.666 93.8499 100.356 93.9779 100.034 93.9779Z" fill="#1D1655"/>
<path d="M79.8127 106.641H58.731C58.4301 106.639 58.1406 106.525 57.9186 106.322C57.6966 106.119 57.5579 105.84 57.5293 105.541L57.341 103.616C56.2921 91.5873 51.7644 80.1231 44.3098 70.6213C41.1941 66.6449 39.074 61.982 38.1259 57.021C37.1777 52.06 37.4291 46.9445 38.8591 42.1002C40.289 37.2559 42.8561 32.8232 46.3467 29.171C49.8372 25.5188 54.1502 22.7529 58.9265 21.1036C63.7028 19.4542 68.8043 18.9691 73.8061 19.6887C78.8079 20.4083 83.5653 22.3117 87.6823 25.2405C91.7993 28.1692 95.1567 32.0386 97.475 36.5265C99.7932 41.0143 101.005 45.9907 101.01 51.0414C101.029 57.8614 98.8229 64.5016 94.7262 69.9556C87.0574 79.8647 82.3311 91.7295 81.0869 104.195L80.971 105.642C80.9214 105.916 80.7794 106.165 80.5686 106.346C80.3578 106.528 80.091 106.632 79.8127 106.641ZM59.8459 104.195H78.6688V103.906C79.959 91.0179 84.8288 78.7473 92.7281 68.4795C96.0414 64.0309 98.0216 58.7328 98.438 53.2026C98.8543 47.6723 97.6897 42.1377 95.0797 37.2436C92.4698 32.3495 88.522 28.2975 83.6964 25.5597C78.8709 22.822 73.3662 21.5112 67.8239 21.7801C62.4501 22.0279 57.2486 23.7516 52.791 26.7616C48.3334 29.7716 44.7923 33.9515 42.5567 38.842C40.3212 43.7324 39.4777 49.1442 40.1191 54.4826C40.7604 59.8209 42.8617 64.8793 46.1921 69.1018C53.9299 78.9732 58.633 90.8781 59.7301 103.37L59.8459 104.195Z" fill="#19164C"/>
<path d="M79.8082 105.425V114.976C79.8082 115.406 79.6374 115.818 79.3333 116.122C79.0291 116.426 78.6167 116.597 78.1866 116.597H60.3482C59.9181 116.597 59.5057 116.426 59.2015 116.122C58.8974 115.818 58.7266 115.406 58.7266 114.976V105.425H79.8082Z" fill="white"/>
<path d="M74.3379 116.597V122.255C74.334 122.84 74.0989 123.399 73.6839 123.811C73.2689 124.223 72.7076 124.455 72.1225 124.455H66.606C66.3138 124.455 66.0246 124.397 65.7549 124.285C65.4851 124.173 65.2403 124.008 65.0344 123.801C64.8285 123.594 64.6656 123.348 64.5551 123.078C64.4447 122.808 64.3888 122.518 64.3907 122.226V116.597H74.3379Z" fill="#50C9B2"/>
<path d="M69.3413 106.64C69.0187 106.64 68.7093 106.512 68.4812 106.284C68.2531 106.056 68.125 105.747 68.125 105.425V73.8045C68.125 73.4821 68.2531 73.1729 68.4812 72.9449C68.7093 72.7169 69.0187 72.5889 69.3413 72.5889C69.6638 72.5889 69.9732 72.7169 70.2013 72.9449C70.4294 73.1729 70.5575 73.4821 70.5575 73.8045V105.425C70.5594 105.585 70.5293 105.744 70.4689 105.892C70.4084 106.04 70.3189 106.175 70.2056 106.289C70.0923 106.402 69.9574 106.491 69.809 106.552C69.6605 106.612 69.5015 106.642 69.3413 106.64Z" fill="#1D1655"/>
<path d="M137.785 50.0863C137.78 51.1904 137.379 52.256 136.655 53.0901C135.931 53.9241 134.932 54.4713 133.839 54.6323C132.747 54.7933 131.632 54.5576 130.698 53.9678C129.765 53.3781 129.073 52.4733 128.75 51.4177C128.615 50.9866 128.547 50.5378 128.547 50.0863C128.547 49.4764 128.668 48.8726 128.903 48.3096C129.137 47.7467 129.482 47.2358 129.915 46.8066C130.349 46.3774 130.863 46.0382 131.428 45.8088C131.994 45.5794 132.599 45.4642 133.209 45.4699C133.664 45.4715 134.117 45.5348 134.556 45.6581C135.494 45.9587 136.313 46.5498 136.893 47.3457C137.473 48.1417 137.786 49.1014 137.785 50.0863Z" fill="#82CBAD"/>
<path d="M134.653 47.0038C134.652 47.725 134.483 48.4361 134.158 49.0801C133.833 49.7241 133.362 50.283 132.782 50.7121C132.202 51.1412 131.529 51.4286 130.818 51.5511C130.107 51.6736 129.377 51.6279 128.687 51.4176C128.553 50.9866 128.485 50.5377 128.484 50.0863C128.484 49.4714 128.607 48.8627 128.845 48.2959C129.084 47.7291 129.433 47.2157 129.873 46.7856C130.313 46.3556 130.834 46.0177 131.406 45.7918C131.978 45.5658 132.59 45.4564 133.205 45.4699C133.66 45.4715 134.113 45.5348 134.551 45.658C134.65 46.0993 134.684 46.5527 134.653 47.0038Z" fill="#FDFEFF"/>
<path d="M133.206 55.9034C132.06 55.9034 130.94 55.5639 129.988 54.9278C129.036 54.2917 128.293 53.3877 127.855 52.33C127.417 51.2722 127.302 50.1083 127.525 48.9855C127.749 47.8626 128.3 46.8312 129.11 46.0216C129.92 45.2121 130.952 44.6608 132.076 44.4374C133.199 44.214 134.364 44.3287 135.422 44.7668C136.48 45.2049 137.385 45.9469 138.021 46.8988C138.658 47.8507 138.997 48.9699 138.997 50.1148C138.997 51.65 138.387 53.1223 137.301 54.2079C136.215 55.2935 134.742 55.9034 133.206 55.9034ZM133.206 46.685C132.533 46.685 131.875 46.8845 131.315 47.2582C130.756 47.6318 130.32 48.163 130.062 48.7844C129.805 49.4058 129.737 50.0896 129.869 50.7493C130 51.409 130.324 52.0149 130.8 52.4906C131.276 52.9662 131.882 53.2901 132.542 53.4213C133.202 53.5525 133.886 53.4852 134.508 53.2278C135.13 52.9704 135.661 52.5345 136.035 51.9752C136.409 51.4159 136.608 50.7584 136.608 50.0858C136.608 49.6392 136.52 49.197 136.349 48.7844C136.178 48.3718 135.928 47.9969 135.612 47.6811C135.296 47.3653 134.921 47.1148 134.508 46.9439C134.095 46.773 133.653 46.685 133.206 46.685Z" fill="#19164C"/>
<path d="M10.4509 50.0861C10.4254 51.1745 10.0158 52.2188 9.29449 53.0346C8.57322 53.8504 7.5867 54.3851 6.50918 54.5444C5.43166 54.7037 4.33249 54.4773 3.40582 53.9051C2.47915 53.3329 1.78462 52.4519 1.4449 51.4175C1.31069 50.9864 1.24235 50.5376 1.24219 50.0861C1.24204 48.8742 1.71872 47.7109 2.56932 46.8472C3.41993 45.9835 4.57624 45.4887 5.78865 45.4697C6.24387 45.4724 6.69671 45.5357 7.13521 45.6579C8.0886 45.9453 8.92486 46.5303 9.52152 47.3271C10.1182 48.124 10.4439 49.0909 10.4509 50.0861Z" fill="#82CBAD"/>
<path d="M7.38135 47.0037C7.37968 47.7216 7.2105 48.4292 6.88727 49.0703C6.56403 49.7114 6.09565 50.2684 5.51934 50.6969C4.94303 51.1254 4.27467 51.4136 3.56737 51.5387C2.86008 51.6638 2.13334 51.6223 1.4449 51.4175C1.31069 50.9864 1.24235 50.5376 1.24219 50.0861C1.24204 48.8742 1.71872 47.7109 2.56932 46.8472C3.41993 45.9835 4.57624 45.4887 5.78865 45.4697C6.24387 45.4724 6.6967 45.5357 7.13521 45.6579C7.28306 46.0919 7.366 46.5454 7.38135 47.0037Z" fill="#FDFEFF"/>
<path d="M5.79167 55.9034C4.64619 55.9034 3.52643 55.5639 2.57399 54.9278C1.62156 54.2917 0.879225 53.3877 0.440867 52.33C0.00250942 51.2722 -0.112185 50.1083 0.111288 48.9855C0.334761 47.8626 0.886364 46.8312 1.69634 46.0216C2.50632 45.2121 3.5383 44.6608 4.66177 44.4374C5.78525 44.214 6.94976 44.3287 8.00805 44.7668C9.06634 45.2049 9.97087 45.9469 10.6073 46.8988C11.2437 47.8507 11.5833 48.9699 11.5833 50.1148C11.5833 51.65 10.9731 53.1223 9.887 54.2079C8.80085 55.2935 7.32772 55.9034 5.79167 55.9034ZM5.79167 46.685C5.1187 46.685 4.46084 46.8845 3.90128 47.2582C3.34173 47.6318 2.90561 48.163 2.64807 48.7844C2.39054 49.4058 2.32316 50.0896 2.45445 50.7493C2.58574 51.409 2.9098 52.0149 3.38567 52.4906C3.86153 52.9662 4.46781 53.2901 5.12786 53.4213C5.7879 53.5525 6.47205 53.4852 7.09379 53.2278C7.71554 52.9704 8.24695 52.5345 8.62083 51.9752C8.99472 51.4159 9.19428 50.7584 9.19428 50.0858C9.19428 49.6392 9.10627 49.197 8.93527 48.7844C8.76427 48.3718 8.51364 47.9969 8.19768 47.6811C7.88171 47.3653 7.50662 47.1148 7.09379 46.9439C6.68097 46.773 6.23851 46.685 5.79167 46.685Z" fill="#19164C"/>
<path d="M104.855 96.3371C104.853 97.4424 104.455 98.5104 103.732 99.347C103.01 100.184 102.011 100.733 100.917 100.896C99.8231 101.059 98.7072 100.825 97.7718 100.235C96.8365 99.6452 96.1439 98.7397 95.8199 97.683C95.6847 97.2472 95.6163 96.7934 95.6172 96.3371C95.6172 95.1128 96.1038 93.9386 96.97 93.0728C97.8362 92.2071 99.0111 91.7207 100.236 91.7207C101.461 91.7207 102.636 92.2071 103.502 93.0728C104.368 93.9386 104.855 95.1128 104.855 96.3371Z" fill="#82CBAD"/>
<path d="M101.785 93.2692C101.774 93.9843 101.596 94.6869 101.267 95.3216C100.937 95.9564 100.464 96.5059 99.8859 96.9269C99.3075 97.3478 98.6391 97.6287 97.9335 97.7474C97.2279 97.8661 96.5043 97.8192 95.8199 97.6107C95.6847 97.1749 95.6163 96.7211 95.6172 96.2648C95.6287 95.5498 95.8063 94.8472 96.1359 94.2124C96.4655 93.5777 96.9382 93.0281 97.5166 92.6072C98.095 92.1862 98.7634 91.9053 99.469 91.7867C100.175 91.668 100.898 91.7148 101.583 91.9234C101.716 92.3597 101.784 92.8131 101.785 93.2692Z" fill="#FDFEFF"/>
<path d="M100.237 102.169C99.0915 102.169 97.9717 101.829 97.0193 101.193C96.0669 100.557 95.3245 99.6533 94.8862 98.5956C94.4478 97.5379 94.3331 96.374 94.5566 95.2511C94.7801 94.1282 95.3317 93.0968 96.1417 92.2872C96.9516 91.4777 97.9836 90.9264 99.1071 90.703C100.231 90.4797 101.395 90.5943 102.453 91.0324C103.512 91.4706 104.416 92.2125 105.053 93.1644C105.689 94.1164 106.029 95.2355 106.029 96.3804C106.029 97.9156 105.418 99.388 104.332 100.474C103.246 101.559 101.773 102.169 100.237 102.169ZM100.237 92.9507C99.5628 92.9478 98.9029 93.1452 98.3412 93.5178C97.7794 93.8903 97.341 94.4213 97.0817 95.0433C96.8224 95.6653 96.7538 96.3503 96.8846 97.0113C97.0154 97.6724 97.3398 98.2797 97.8165 98.7561C98.2933 99.2326 98.9009 99.5568 99.5623 99.6876C100.224 99.8183 100.909 99.7498 101.531 99.4906C102.154 99.2314 102.685 98.7933 103.058 98.2318C103.43 97.6703 103.628 97.0108 103.625 96.337C103.621 95.44 103.263 94.5809 102.629 93.9467C101.994 93.3125 101.134 92.9545 100.237 92.9507Z" fill="#19164C"/>
<path d="M39.0913 93.9782C38.9311 93.9801 38.7721 93.95 38.6236 93.8896C38.4752 93.8292 38.3403 93.7397 38.227 93.6265C38.1137 93.5132 38.0241 93.3784 37.9637 93.23C37.9033 93.0817 37.8731 92.9227 37.8751 92.7626V81.4169C37.8748 81.2401 37.9136 81.0654 37.9887 80.9053C38.0638 80.7452 38.1733 80.6037 38.3095 80.4908L46.8522 73.3274C46.9744 73.223 47.1162 73.1439 47.2693 73.0946C47.4223 73.0454 47.5837 73.0269 47.7439 73.0404C47.9041 73.0539 48.0601 73.0989 48.2028 73.173C48.3455 73.2471 48.4721 73.3488 48.5752 73.4721C48.6901 73.5954 48.7778 73.7416 48.8325 73.9011C48.8872 74.0605 48.9077 74.2297 48.8926 74.3976C48.8776 74.5655 48.8274 74.7283 48.7453 74.8755C48.6631 75.0228 48.5509 75.151 48.4159 75.2521L40.3076 82.0537V92.7626C40.3076 93.085 40.1794 93.3942 39.9514 93.6221C39.7233 93.8501 39.4139 93.9782 39.0913 93.9782Z" fill="#1D1655"/>
<path d="M43.4342 96.3371C43.4448 97.4474 43.0535 98.5242 42.3323 99.3688C41.6111 100.213 40.6086 100.769 39.5098 100.933C38.411 101.097 37.29 100.858 36.3534 100.261C35.4168 99.6636 34.7279 98.748 34.4137 97.683C34.2784 97.2472 34.2101 96.7934 34.2109 96.3371C34.2109 95.1128 34.6976 93.9386 35.5638 93.0728C36.43 92.2071 37.6048 91.7207 38.8298 91.7207C39.2863 91.7199 39.7403 91.7882 40.1764 91.9233C41.1202 92.2142 41.9459 92.7998 42.5322 93.5942C43.1186 94.3886 43.4347 95.3499 43.4342 96.3371Z" fill="#82CBAD"/>
<path d="M40.4271 93.2683C40.4179 93.9827 40.2424 94.6852 39.9144 95.3201C39.5865 95.955 39.1151 96.5049 38.5377 96.9261C37.9603 97.3474 37.2926 97.6285 36.5877 97.7471C35.8827 97.8658 35.1598 97.8187 34.4762 97.6097C34.3409 97.1739 34.2726 96.7201 34.2734 96.2639C34.2734 95.0395 34.7601 93.8653 35.6263 92.9996C36.4925 92.1338 37.6673 91.6475 38.8923 91.6475C39.3488 91.6466 39.8028 91.7149 40.2389 91.8501C40.3666 92.3119 40.4299 92.7891 40.4271 93.2683Z" fill="#FDFEFF"/>
<path d="M38.8932 102.169C37.7478 102.169 36.628 101.829 35.6756 101.193C34.7231 100.557 33.9808 99.6533 33.5424 98.5956C33.1041 97.5379 32.9894 96.374 33.2129 95.2511C33.4363 94.1282 33.9879 93.0968 34.7979 92.2872C35.6079 91.4777 36.6399 90.9264 37.7633 90.703C38.8868 90.4797 40.0513 90.5943 41.1096 91.0324C42.1679 91.4706 43.0724 92.2125 43.7088 93.1644C44.3452 94.1164 44.6849 95.2355 44.6849 96.3804C44.6849 97.9156 44.0747 99.388 42.9886 100.474C41.9024 101.559 40.4293 102.169 38.8932 102.169ZM38.8932 92.9507C38.219 92.9478 37.5592 93.1452 36.9974 93.5178C36.4357 93.8903 35.9973 94.4213 35.738 95.0433C35.4786 95.6653 35.41 96.3503 35.5409 97.0113C35.6717 97.6724 35.996 98.2797 36.4728 98.7561C36.9495 99.2326 37.5571 99.5568 38.2185 99.6876C38.8799 99.8183 39.5652 99.7498 40.1876 99.4906C40.8099 99.2314 41.3412 98.7933 41.714 98.2318C42.0867 97.6703 42.2842 97.0108 42.2814 96.337C42.2775 95.44 41.9194 94.5809 41.2848 93.9467C40.6502 93.3125 39.7906 92.9545 38.8932 92.9507Z" fill="#19164C"/>
<path d="M104.672 5.78917C104.693 6.76595 104.404 7.72428 103.847 8.52707C103.29 9.32985 102.493 9.93596 101.57 10.2587C100.647 10.5814 99.6462 10.6042 98.7098 10.3238C97.7734 10.0434 96.9497 9.47415 96.3566 8.69755C95.7635 7.92094 95.4313 6.97674 95.4076 6.00003C95.3839 5.02331 95.6699 4.06412 96.2246 3.25969C96.7794 2.45525 97.5745 1.84678 98.4962 1.52132C99.4178 1.19587 100.419 1.17011 101.356 1.44772C102.299 1.72467 103.129 2.29499 103.725 3.07577C104.322 3.85655 104.653 4.80709 104.672 5.78917Z" fill="#82CBAD"/>
<path d="M101.6 2.76387C101.6 3.98322 101.117 5.15305 100.257 6.01796C99.3975 6.88288 98.2301 7.37262 97.0101 7.38027C96.5469 7.40175 96.0831 7.35296 95.6346 7.23555C95.3813 6.4305 95.3537 5.57145 95.5547 4.75179C95.7557 3.93213 96.1776 3.18323 96.7747 2.58649C97.3718 1.98975 98.1211 1.568 98.9412 1.3671C99.7613 1.16619 100.621 1.19382 101.426 1.44697C101.548 1.87518 101.606 2.3188 101.6 2.76387Z" fill="#FDFEFF"/>
<path d="M100.049 11.6641C98.904 11.6641 97.7842 11.3246 96.8318 10.6885C95.8794 10.0525 95.137 9.14844 94.6987 8.09071C94.2603 7.03298 94.1456 5.86909 94.3691 4.74621C94.5926 3.62333 95.1442 2.59191 95.9542 1.78236C96.7641 0.972807 97.7961 0.421497 98.9196 0.198143C100.043 -0.0252113 101.208 0.0894222 102.266 0.527547C103.324 0.965672 104.229 1.70761 104.865 2.65954C105.501 3.61147 105.841 4.73063 105.841 5.87551C105.841 7.41074 105.231 8.88309 104.145 9.96866C103.059 11.0542 101.586 11.6641 100.049 11.6641ZM100.049 2.4313C99.3747 2.43135 98.7151 2.63195 98.1547 3.00759C97.5942 3.38323 97.1582 3.91694 96.902 4.54089C96.6457 5.16484 96.5809 5.85084 96.7158 6.51169C96.8506 7.17254 97.179 7.77839 97.6593 8.25222C98.1395 8.72606 98.7498 9.04648 99.4127 9.17276C100.076 9.29903 100.761 9.22546 101.382 8.96139C102.003 8.69732 102.531 8.25469 102.9 7.68975C103.268 7.12481 103.461 6.46308 103.452 5.78868C103.441 4.89428 103.077 4.04038 102.44 3.41197C101.803 2.78356 100.944 2.43122 100.049 2.4313Z" fill="#19164C"/>
<path d="M44.4799 5.78882C44.5036 6.90315 44.1231 7.98841 43.4087 8.84423C42.6942 9.70005 41.6941 10.2686 40.593 10.445C39.4919 10.6214 38.3641 10.3936 37.4179 9.80379C36.4716 9.21396 35.7709 8.30188 35.4449 7.23596C35.3085 6.76574 35.2403 6.2784 35.2422 5.78882C35.2537 4.57201 35.7454 3.40893 36.6103 2.55256C37.4753 1.69618 38.6436 1.21577 39.8611 1.21583C40.3176 1.21497 40.7716 1.28328 41.2076 1.41843C42.1471 1.70455 42.9709 2.28253 43.5593 3.06844C44.1478 3.85435 44.4702 4.80726 44.4799 5.78882Z" fill="#82CBAD"/>
<path d="M41.4104 2.76428C41.4104 3.37051 41.2909 3.97081 41.0588 4.5309C40.8266 5.09098 40.4864 5.59989 40.0575 6.02856C39.1913 6.89431 38.0165 7.38068 36.7915 7.38068C36.338 7.3982 35.8844 7.34945 35.4449 7.23596C35.3085 6.76574 35.2403 6.2784 35.2422 5.78881C35.2537 4.57201 35.7454 3.40893 36.6103 2.55256C37.4753 1.69618 38.6436 1.21577 39.8611 1.21583C40.3176 1.21497 40.7716 1.28328 41.2076 1.41843C41.3418 1.85448 41.4101 2.30808 41.4104 2.76428Z" fill="#FDFEFF"/>
<path d="M39.862 11.6641C38.7165 11.6641 37.5967 11.3246 36.6443 10.6885C35.6919 10.0525 34.9495 9.14844 34.5112 8.09071C34.0728 7.03298 33.9581 5.86909 34.1816 4.74621C34.4051 3.62333 34.9567 2.59191 35.7667 1.78236C36.5766 0.972807 37.6086 0.421497 38.7321 0.198143C39.8556 -0.0252113 41.0201 0.0894222 42.0784 0.527547C43.1366 0.965672 44.0412 1.70761 44.6776 2.65954C45.314 3.61147 45.6537 4.73063 45.6537 5.87551C45.6537 7.41074 45.0435 8.88309 43.9573 9.96866C42.8712 11.0542 41.398 11.6641 39.862 11.6641ZM39.862 2.4313C39.1872 2.43135 38.5276 2.63195 37.9672 3.00759C37.4067 3.38323 36.9707 3.91694 36.7144 4.54089C36.4582 5.16484 36.3934 5.85084 36.5283 6.51169C36.6631 7.17254 36.9915 7.77839 37.4718 8.25222C37.952 8.72606 38.5623 9.04648 39.2252 9.17276C39.8881 9.29903 40.5735 9.22546 41.1945 8.96139C41.8154 8.69732 42.3438 8.25469 42.7124 7.68975C43.081 7.12481 43.2732 6.46308 43.2646 5.78868C43.2532 4.89428 42.8896 4.04038 42.2528 3.41197C41.6159 2.78356 40.7569 2.43122 39.862 2.4313Z" fill="#19164C"/>
<path d="M87.3689 61.7787C82.3591 71.026 69.4002 73.3559 69.4002 73.3559C69.4002 73.3559 69.0817 72.8639 68.6039 71.9956C66.8229 68.7685 63.0004 60.4184 66.1279 53.0814C69.2554 45.7443 79.1592 41.5042 83.2568 40.057C83.7618 39.8732 84.3174 39.8858 84.8135 40.0922C85.3096 40.2986 85.7101 40.6837 85.9354 41.1713C86.3409 42.0686 86.8476 43.2842 87.3834 44.7024C88.9616 49.3332 90.3661 56.2506 87.3689 61.7787Z" fill="white"/>
<path d="M87.3676 61.7786C82.3578 71.0259 69.399 73.3558 69.399 73.3558C69.399 73.3558 69.0804 72.8638 68.6026 71.9955C68.064 70.5842 67.6379 69.1325 67.3284 67.654C66.5238 64.2203 66.7761 60.6237 68.0524 57.3359C71.1944 50.0133 81.0837 45.7587 85.1813 44.3115C85.3982 44.2267 85.6289 44.1826 85.8618 44.1813C86.3925 44.1684 86.909 44.3542 87.3097 44.7023C88.9603 49.3331 90.3648 56.2505 87.3676 61.7786Z" fill="#82CBAD"/>
<path d="M84.5855 56.2219C80.2417 64.1668 70.1063 67.0032 67.3263 67.6399C66.5247 64.2108 66.777 60.6197 68.0503 57.3362C71.1923 50.0136 81.0815 45.759 85.1791 44.3119C85.3961 44.2271 85.6267 44.1829 85.8597 44.1816C86.8101 48.2236 86.3609 52.4681 84.5855 56.2219Z" fill="#82CBAD"/>
<path d="M69.4008 74.5716C69.1996 74.5709 69.0016 74.5203 68.8247 74.4243C68.6478 74.3283 68.4975 74.19 68.3873 74.0217C68.0832 73.5586 60.8147 62.4445 65.0136 52.6039C68.3439 44.8471 78.5951 40.4189 82.852 38.8704C83.6422 38.5868 84.5101 38.6092 85.2846 38.9333C86.0591 39.2574 86.6841 39.8597 87.0365 40.6215C88.8464 44.5867 92.6254 54.6443 88.4844 62.3287C83.2574 71.9812 70.2117 74.4268 69.6615 74.5281L69.4008 74.5716ZM83.9814 41.099C83.8811 41.0784 83.7776 41.0784 83.6773 41.099C79.7245 42.5462 70.2117 46.6127 67.2579 53.5011C64.1304 60.8092 68.5466 69.4197 69.9945 71.9233C72.8179 71.2431 82.3307 68.4646 86.3125 61.142C89.9613 54.3983 86.4863 45.2234 84.8646 41.5766C84.7803 41.4193 84.6516 41.2903 84.4946 41.2054C84.3376 41.1205 84.1592 41.0835 83.9814 41.099Z" fill="#19164C"/>
<path d="M69.3957 73.3561C68.3478 73.2031 67.3087 72.9954 66.2827 72.7338C61.9389 71.6629 54.2649 68.9712 50.9347 62.734C47.2426 55.8456 49.9067 45.73 51.3402 41.4465C51.5275 40.862 51.9328 40.372 52.4721 40.0783C53.0113 39.7846 53.643 39.7096 54.236 39.8691C55.8884 40.3065 57.513 40.8429 59.101 41.4754C63.5316 43.2554 68.831 46.3813 71.0173 51.6055C75.057 61.2869 69.3957 73.3561 69.3957 73.3561Z" fill="white"/>
<path d="M69.3983 73.3563C68.3504 73.2033 67.3113 72.9956 66.2852 72.734C65.5468 72.4156 64.8373 72.0828 64.0265 71.6921C60.6707 70.1151 57.8734 67.5564 56.005 64.355C52.3129 57.4811 54.977 47.3655 56.4105 43.082C56.5591 42.624 56.8478 42.2241 57.2358 41.9387C57.4899 41.7321 57.7862 41.5835 58.1039 41.5035C58.4215 41.4235 58.7529 41.414 59.0746 41.4756C63.5052 43.2556 68.8046 46.3815 70.991 51.6057C75.0596 61.2871 69.3983 73.3563 69.3983 73.3563Z" fill="#82CBAD"/>
<path d="M63.9953 71.6919C60.6395 70.1149 57.8422 67.5562 55.9738 64.3548C52.2816 57.4809 54.9458 47.3653 56.3792 43.0817C56.5279 42.6237 56.8165 42.2239 57.2045 41.9385C60.7913 43.7307 63.6759 46.6698 65.3997 50.2885C69.0774 59.0004 64.8785 69.6369 63.9953 71.6919Z" fill="#82CBAD"/>
<path d="M69.3976 74.5721H69.2528C68.6736 74.4997 54.8605 72.7052 49.8362 63.3133C45.8979 55.9762 48.7503 45.3107 50.1547 41.0706C50.4447 40.2003 51.0546 39.4726 51.861 39.0346C52.6674 38.5967 53.6101 38.4813 54.4985 38.7117C58.6685 39.7971 68.7315 43.1545 72.1052 51.1283C76.362 61.2583 70.7586 73.3709 70.5124 73.8919C70.4106 74.0995 70.2516 74.2738 70.0541 74.3943C69.8566 74.5147 69.6289 74.5764 69.3976 74.5721ZM53.5718 41.0127C53.3247 41.015 53.0845 41.0943 52.8846 41.2396C52.6848 41.3849 52.5353 41.5889 52.4569 41.8231C51.1538 45.7738 48.4896 55.6434 51.9791 62.1555C55.7292 69.1597 65.6185 71.4462 68.6591 72.0106C69.7885 69.1163 73.0029 59.7099 69.8464 52.0544C66.9506 45.0792 57.6839 42.0402 53.9193 41.0561C53.8065 41.0232 53.6892 41.0085 53.5718 41.0127Z" fill="#19164C"/>
<path d="M79.807 105.425V114.976C79.807 115.406 79.6361 115.818 79.332 116.122C79.0279 116.426 78.6154 116.597 78.1853 116.597H65.1541C64.7265 116.593 64.3177 116.421 64.0167 116.117C63.7157 115.813 63.5469 115.403 63.5469 114.976V105.425H79.807Z" fill="#82CBAD"/>
<path d="M78.1873 117.812H60.349C59.5809 117.812 58.8444 117.508 58.3013 116.965C57.7582 116.422 57.4531 115.686 57.4531 114.918V105.367C57.4569 105.046 57.5862 104.739 57.8135 104.512C58.0408 104.284 58.348 104.155 58.6694 104.151H79.809C80.1304 104.155 80.4376 104.284 80.6648 104.512C80.8921 104.739 81.0215 105.046 81.0252 105.367V114.918C81.0254 115.676 80.7282 116.403 80.1976 116.945C79.667 117.486 78.9452 117.797 78.1873 117.812ZM59.9435 106.64V114.976C59.9472 115.082 59.991 115.183 60.0663 115.259C60.1415 115.334 60.2426 115.378 60.349 115.381H78.1873C78.2937 115.378 78.3947 115.334 78.47 115.259C78.5452 115.183 78.5891 115.082 78.5927 114.976V106.64H59.9435Z" fill="#19164C"/>
<path d="M74.3379 116.597V122.255C74.334 122.84 74.0989 123.399 73.6839 123.811C73.2689 124.223 72.7076 124.455 72.1225 124.455H66.606C66.3138 124.455 66.0246 124.397 65.7549 124.285C65.4851 124.173 65.2403 124.008 65.0344 123.801C64.8285 123.594 64.6656 123.348 64.5551 123.078C64.4447 122.808 64.3888 122.518 64.3907 122.226V116.597H74.3379Z" fill="#82CBAD"/>
<path d="M72.12 125.699H66.6034C65.6933 125.699 64.8205 125.338 64.177 124.695C63.5334 124.051 63.1719 123.179 63.1719 122.269V116.597C63.1719 116.437 63.2033 116.279 63.2645 116.131C63.3256 115.984 63.4152 115.85 63.5281 115.737C63.641 115.624 63.7751 115.535 63.9227 115.473C64.0702 115.412 64.2284 115.381 64.3881 115.381H74.3787C74.539 115.379 74.698 115.409 74.8465 115.47C74.9949 115.53 75.1298 115.619 75.2431 115.733C75.3564 115.846 75.4459 115.981 75.5064 116.129C75.5668 116.277 75.5969 116.436 75.595 116.597V122.269C75.595 122.723 75.5049 123.173 75.3297 123.592C75.1545 124.011 74.8979 124.391 74.5746 124.71C74.2513 125.029 73.8679 125.281 73.4465 125.451C73.0252 125.62 72.5743 125.705 72.12 125.699ZM65.5609 117.812V122.269C65.5609 122.534 65.6662 122.788 65.8536 122.975C66.0409 123.163 66.295 123.268 66.56 123.268H72.12C72.385 123.268 72.6391 123.163 72.8264 122.975C73.0138 122.788 73.1191 122.534 73.1191 122.269V117.812H65.5609Z" fill="#19164C"/>
</svg>
