<svg width="122" height="122" viewBox="0 0 122 122" fill="none" xmlns="http://www.w3.org/2000/svg">
<path d="M112.539 10.7576H9.49776C6.68434 10.7576 4.39844 9.47437 4.39844 7.89502V7.59889C4.39844 6.01955 6.68434 4.73633 9.49776 4.73633H112.627C115.441 4.73633 117.727 6.01955 117.727 7.59889V7.89502C117.727 9.47437 115.441 10.7576 112.539 10.7576Z" fill="#82CBAD"/>
<path d="M104.047 17.5332H17.5312V86.859H104.047V17.5332Z" fill="#82CBAD"/>
<path d="M39.1113 67.4697H31.7031V79.7252H39.1113V67.4697Z" fill="#19164C"/>
<path d="M56.2128 63.1709H48.8047V79.6335H56.2128V63.1709Z" fill="#19164C"/>
<path d="M73.5878 57.8662H66.1797V79.7249H73.5878V57.8662Z" fill="#1D1655"/>
<path d="M91.0566 79.6331H83.6484V50.3663L91.0566 48.5371V79.6331Z" fill="#1D1655"/>
<path d="M55.5714 78.3524C55.5714 78.7182 55.297 78.9926 54.9312 78.9926H50.1753C49.8095 78.9926 49.5351 78.7182 49.5351 78.3524V65.7311C49.5351 65.4567 49.718 65.1823 49.9924 65.0909C51.6387 64.6336 53.1935 64.2677 54.7483 63.8104C54.9312 63.719 55.1141 63.8104 55.297 63.9019C55.4799 63.9934 55.5714 64.1763 55.5714 64.4506V78.3524ZM57.5835 60.8838C57.4006 60.7008 57.1262 60.6094 56.8518 60.6094C56.7604 60.6094 56.5774 60.6094 56.486 60.7008C55.6629 60.9752 54.9312 61.1581 54.1081 61.4325C52.096 61.9813 49.9924 62.53 47.8889 63.0788C47.3401 63.2617 46.8828 63.719 46.8828 64.3592V79.267C46.8828 80.6389 47.9803 81.7364 49.3522 81.7364H55.7543C57.1262 81.7364 58.2237 80.6389 58.2237 79.267V61.8898C58.1322 61.4325 57.9493 61.0667 57.5835 60.8838Z" fill="#19164C"/>
<path d="M90.3237 78.3522C90.3237 78.718 90.0493 78.9924 89.6835 78.9924H84.9276C84.5618 78.9924 84.2874 78.718 84.2874 78.3522V52.4693C84.2874 52.1949 84.3789 52.012 84.6532 51.9206C86.2995 51.006 87.8543 50.0914 89.4091 49.0853C89.592 48.9939 89.8664 48.9939 90.0493 49.0853C90.2322 49.1768 90.4151 49.4512 90.4151 49.6341V78.3522H90.3237ZM92.2443 44.8782C92.0614 44.7868 91.8785 44.6953 91.6041 44.6953C91.3297 44.6953 91.0554 44.7868 90.8724 44.9697C88.2201 46.7989 85.3849 48.5366 82.3668 50.1828C81.9095 50.3658 81.7266 50.8231 81.7266 51.2803V79.1753C81.7266 80.5472 82.8241 81.6447 84.1959 81.6447H90.5981C91.9699 81.6447 93.0675 80.5472 93.0675 79.1753V45.9757C92.976 45.5184 92.7016 45.0611 92.2443 44.8782Z" fill="#19164C"/>
<path d="M72.9464 78.3525C72.9464 78.7183 72.672 78.9927 72.3062 78.9927H67.5503C67.1845 78.9927 66.9101 78.7183 66.9101 78.3525V60.3351C66.9101 60.0607 67.093 59.7864 67.3674 59.6949C69.0137 59.0547 70.5685 58.5059 72.1233 57.8657C72.3062 57.7743 72.5806 57.7743 72.7635 57.9572C72.9464 58.0486 73.0379 58.323 73.0379 58.5059V78.3525H72.9464ZM74.9585 54.4817C74.7756 54.2988 74.5012 54.2988 74.2268 54.2988C74.0439 54.2988 73.861 54.2988 73.6781 54.3903C70.9343 55.5793 68.0991 56.7682 65.0809 57.7743C64.5322 57.9572 64.2578 58.4145 64.2578 58.9632V79.1756C64.2578 80.5475 65.3553 81.645 66.7272 81.645H73.1293C74.5012 81.645 75.5987 80.5475 75.5987 79.1756V55.5793C75.5072 55.122 75.3243 54.7561 74.9585 54.4817Z" fill="#19164C"/>
<path d="M38.1886 78.3526C38.1886 78.7185 37.9142 78.9929 37.5484 78.9929H32.7925C32.4267 78.9929 32.1523 78.7185 32.1523 78.3526V69.3897C32.1523 69.1153 32.4267 68.8409 32.7011 68.7495C34.2559 68.4751 35.9021 68.2007 37.4569 67.9263C37.6398 67.9263 37.8228 67.9263 38.0057 68.0178C38.1886 68.1093 38.28 68.2922 38.28 68.4751V78.3526H38.1886ZM40.2921 65.1826C40.0178 64.9997 39.7434 64.9082 39.469 64.9082C39.3776 64.9082 39.2861 64.9082 39.1946 64.9082C36.268 65.5484 33.3413 66.0057 30.5975 66.463C29.9573 66.5545 29.5 67.1032 29.5 67.7434V79.1758C29.5 80.5477 30.5975 81.6452 31.9694 81.6452H38.3715C39.7434 81.6452 40.8409 80.5477 40.8409 79.1758V66.1886C40.7494 65.8228 40.5665 65.457 40.2921 65.1826Z" fill="#19164C"/>
<path d="M29.7814 60.5185C29.8728 60.5185 29.8728 60.5185 29.9643 60.5185C30.0557 60.5185 31.6105 60.3356 34.2628 59.8783C36.7322 59.5124 39.2931 59.0551 41.9454 58.5064C44.5062 57.9576 47.0671 57.4089 49.6279 56.7687C51.0913 56.4028 52.6461 55.9455 54.2009 55.5797C55.2069 55.3053 56.213 55.0309 57.3105 54.6651C59.9628 53.842 62.5236 53.0188 64.993 52.1043C67.5538 51.1897 70.0232 50.0922 72.4012 49.0861C73.3158 48.6288 74.3218 48.263 75.1449 47.8057C76.8826 46.9826 78.6204 46.068 80.2666 45.0619C82.9189 43.5986 85.2969 41.9523 87.4919 40.3061C88.5894 39.4829 89.6869 38.5684 90.6929 37.7452C90.9673 37.5623 91.3331 37.5623 91.6075 37.7452L92.7965 38.9342C93.0709 39.2086 93.4367 39.2086 93.5282 39.1171C93.6196 39.1171 93.9854 38.9342 94.0769 38.5684L96.3634 30.0627C96.3634 29.9712 96.3634 29.8798 96.3634 29.7883C96.2719 29.4225 95.9975 29.0566 95.5402 29.0566H95.4488C95.3573 29.0566 95.3573 29.0566 95.3573 29.0566L86.8517 31.3431C86.5773 31.3431 86.3944 31.8004 86.3944 32.0748C86.3944 32.2577 86.4858 32.4406 86.6687 32.6235L88.4979 34.4527C88.5894 34.5442 88.6808 34.7271 88.6808 34.91C88.6808 35.0929 88.5894 35.2758 88.4979 35.3673C78.1631 44.0559 63.7126 49.452 53.3777 52.3786C48.0731 53.9334 42.3112 55.2139 36.7322 56.2199C32.7995 56.9516 30.1472 57.226 29.6899 57.3174C29.2326 57.4089 28.8668 57.5918 28.5924 57.8662C28.318 58.232 28.2266 58.5978 28.2266 59.0551C28.318 59.8783 28.9582 60.5185 29.7814 60.5185Z" fill="#19164C"/>
<path d="M4.26314 4.81979C5.08627 3.99666 6.18378 3.53936 7.37274 3.53936H115.111C117.489 3.53936 119.41 5.46 119.41 7.83793C119.41 9.02689 118.952 10.1244 118.129 10.9475C117.306 11.7707 116.209 12.2279 115.02 12.2279H7.37274C4.99482 12.2279 3.07418 10.3073 3.07418 7.92938C2.98272 6.74042 3.44002 5.64291 4.26314 4.81979ZM107.337 86.8583C107.337 88.3217 106.148 89.5106 104.685 89.5106H64.0772C63.3455 89.5106 62.7968 90.0594 62.7968 90.7911V106.065C62.7968 106.248 62.7053 106.431 62.6139 106.522C62.5224 106.613 62.3395 106.705 62.1566 106.705C62.1566 106.705 62.1566 106.705 62.0651 106.705C61.5164 106.613 60.8761 106.613 60.3274 106.705C60.1445 106.705 59.9616 106.705 59.8701 106.522C59.7786 106.431 59.6872 106.248 59.6872 106.065V90.7911C59.6872 90.0594 59.1384 89.5106 58.4068 89.5106H17.7076C16.2442 89.5106 15.0553 88.3217 15.0553 86.8583V15.5205C15.0553 15.1546 15.3297 14.8803 15.6955 14.8803H106.697C107.063 14.8803 107.337 15.1546 107.337 15.5205V86.8583ZM66.2722 114.387C66.2722 117.223 63.9857 119.418 61.242 119.418C58.4068 119.418 56.2117 117.131 56.2117 114.387C56.2117 112.924 56.852 111.552 57.9495 110.546C58.8641 109.723 59.9616 109.266 61.242 109.266C61.3334 109.266 61.3334 109.266 61.4249 109.266C62.6139 109.266 63.8028 109.723 64.7174 110.546C65.632 111.552 66.2722 112.924 66.2722 114.387ZM7.37274 14.7888H11.8542C12.2201 14.7888 12.4944 15.0632 12.4944 15.429V86.8583C12.4944 89.785 14.8724 92.0715 17.7076 92.0715H56.3947C56.7605 92.0715 57.0349 92.3459 57.0349 92.7117V107.528C57.0349 107.711 56.9434 107.894 56.7605 108.077C56.5776 108.26 56.3032 108.443 56.1203 108.534C54.474 109.997 53.468 112.101 53.468 114.296C53.468 118.503 56.9434 121.979 61.1505 121.979C65.3576 121.979 68.8331 118.503 68.8331 114.296C68.8331 112.101 67.9185 109.997 66.2722 108.534C66.0893 108.351 65.9064 108.168 65.632 108.077C65.4491 107.985 65.3576 107.802 65.3576 107.528V92.7117C65.3576 92.3459 65.632 92.0715 65.9978 92.0715H104.685C107.612 92.0715 109.898 89.6936 109.898 86.8583V15.429C109.898 15.0632 110.172 14.7888 110.538 14.7888H115.02C116.849 14.7888 118.587 14.0571 119.867 12.7767C121.147 11.4963 121.879 9.75856 121.879 7.92938C121.879 4.08811 118.77 0.978516 114.928 0.978516H7.37274C5.54357 0.978516 3.80585 1.71019 2.52543 2.99061C1.15355 4.27103 0.421875 6.00875 0.421875 7.92938C0.421875 11.6792 3.53147 14.7888 7.37274 14.7888Z" fill="#19164C"/>
</svg>
