<svg width="132" height="122" viewBox="0 0 132 122" fill="none" xmlns="http://www.w3.org/2000/svg">
<g clip-path="url(#clip0_561_1024)">
<path d="M54.5064 87.8298C65.8404 87.8298 75.0284 79.0594 75.0284 68.2406C75.0284 57.4218 65.8404 48.6514 54.5064 48.6514C43.1724 48.6514 33.9844 57.4218 33.9844 68.2406C33.9844 79.0594 43.1724 87.8298 54.5064 87.8298Z" fill="#82CBAD"/>
<path d="M127.799 24.9313H113.94C112.874 24.9313 111.808 24.5315 111.141 23.732C110.475 23.0657 109.942 21.9996 109.942 20.9335V3.47648H42.779C42.6458 3.47648 42.5125 3.47648 42.5125 3.60974C42.3793 3.743 42.3793 3.743 42.3793 3.87626V38.7904C41.1799 39.1901 39.9806 39.5899 38.9145 40.123V4.00952C38.9145 2.94344 39.3143 1.87736 40.1138 1.21106C40.7801 0.411498 41.713 0.0117188 42.779 0.0117188H111.674H112.474L113.007 0.678018L120.336 9.47317L123.401 13.2044L131.264 22.5326V117.014C131.264 118.08 130.864 119.146 130.064 119.812C129.398 120.479 128.332 121.012 127.266 121.012H42.779C41.713 121.012 40.6469 120.612 39.9806 119.812C39.3143 119.146 38.7812 118.08 38.7812 117.014V94.0932C39.9806 94.6263 41.0467 95.026 42.246 95.4258V117.014C42.246 117.147 42.246 117.28 42.3793 117.28C42.5125 117.414 42.5125 117.414 42.6458 117.414H127.133C127.266 117.414 127.399 117.414 127.399 117.28C127.532 117.147 127.532 117.147 127.532 117.014V24.9313H127.799ZM125.8 21.4666L119.27 13.6042L116.472 10.2727L113.407 6.67471V21.0668C113.407 21.2 113.407 21.3333 113.54 21.3333C113.673 21.4666 113.673 21.4666 113.807 21.4666H125.8Z" fill="#19164C"/>
<path fill-rule="evenodd" clip-rule="evenodd" d="M56.373 29.5952H113.675C114.608 29.5952 115.407 30.3948 115.407 31.3276C115.407 32.2604 114.608 33.06 113.675 33.06H56.373C55.4402 33.06 54.6406 32.2604 54.6406 31.3276C54.6406 30.3948 55.4402 29.5952 56.373 29.5952ZM56.373 98.8904H113.675C114.608 98.8904 115.407 99.6899 115.407 100.623C115.407 101.556 114.608 102.355 113.675 102.355H56.373C55.4402 102.355 54.6406 101.556 54.6406 100.623C54.6406 99.6899 55.4402 98.8904 56.373 98.8904ZM77.2948 81.5666H113.808C114.741 81.5666 115.54 82.3661 115.54 83.299C115.54 84.2318 114.741 85.0313 113.808 85.0313H75.0294C75.8289 83.9653 76.6285 82.8992 77.2948 81.5666ZM80.8928 64.2428H113.808C114.741 64.2428 115.54 65.0423 115.54 65.9752C115.54 66.908 114.741 67.7075 113.808 67.7075H81.0261C81.0261 67.5743 81.0261 67.3078 81.0261 67.1745C81.0261 66.2417 80.8928 65.3089 80.8928 64.2428ZM73.0305 46.919H113.808C114.741 46.919 115.54 47.7186 115.54 48.6514C115.54 49.5842 114.741 50.3838 113.808 50.3838H75.829C75.0294 49.1844 74.0966 48.1183 73.0305 46.919Z" fill="#19164C"/>
<path fill-rule="evenodd" clip-rule="evenodd" d="M76.6265 67.1749C76.6265 53.1826 65.2994 41.8555 51.3071 41.8555C37.3148 41.8555 25.9877 53.1826 25.9877 67.1749C25.9877 73.0383 27.9866 78.3687 31.1849 82.633L27.9866 85.9645C26.3875 85.698 24.6551 86.0978 23.4558 87.2971L1.46792 109.285C-0.530975 111.284 -0.530975 114.482 1.46792 116.348C3.46682 118.347 6.66506 118.347 8.5307 116.348L30.5186 94.3599C31.7179 93.1605 32.251 91.4282 31.8512 89.829L35.0494 86.6308C39.447 90.3621 45.0439 92.4942 51.3071 92.4942C65.2994 92.4942 76.6265 81.1671 76.6265 67.1749ZM54.6386 50.5174C44.7774 50.9171 36.7818 59.046 36.7818 68.9072H37.8479C38.3809 68.9072 38.914 68.5075 38.914 67.9744C39.447 59.579 46.2433 52.916 54.7719 52.6495C55.3049 52.6495 55.838 52.1165 55.838 51.5834C55.838 51.3169 55.7047 51.0504 55.5714 50.7839C55.1717 50.5174 54.9051 50.5174 54.6386 50.5174ZM72.2289 67.1749C72.2289 55.7145 62.9007 46.3863 51.4404 46.3863C39.98 46.3863 30.6518 55.7145 30.6518 67.1749C30.6518 78.6352 39.98 87.9634 51.4404 87.9634C62.9007 88.0967 72.2289 78.7685 72.2289 67.1749Z" fill="#19164C"/>
<path fill-rule="evenodd" clip-rule="evenodd" d="M40.2485 70.6394C41.1813 69.7066 42.6472 69.7066 43.58 70.6394L49.8432 76.9027L61.7033 56.3806C62.3696 55.1813 63.8355 54.9148 64.9016 55.4478C66.1009 56.1141 66.3674 57.58 65.8344 58.6461L52.6417 81.5668C52.1086 82.3663 51.1758 82.8994 50.243 82.7661C49.5767 82.8994 48.7771 82.6328 48.2441 82.0998L40.1152 73.9709C39.3157 73.0381 39.3157 71.439 40.2485 70.6394Z" fill="#19164C"/>
<path d="M113.405 6.5415V20.8003C113.405 20.8003 113.272 21.3334 113.805 21.3334C114.338 21.3334 125.665 21.3334 125.665 21.3334L113.405 6.5415Z" fill="#82CBAD"/>
</g>
<defs>
<clipPath id="clip0_561_1024">
<rect width="131.261" height="121" fill="white" transform="translate(0 0.0117188)"/>
</clipPath>
</defs>
</svg>
