<svg width="91" height="96" viewBox="0 0 91 96" fill="none" xmlns="http://www.w3.org/2000/svg">
<g clip-path="url(#clip0_194_2270)">
<path d="M48.2171 77.6594H48.0937L44.9083 77.5472C44.2044 77.5189 43.5297 77.2582 42.9899 76.8059C42.45 76.3535 42.0754 75.7351 41.9247 75.0473L41.1956 71.516C41.1467 71.2924 41.0433 71.0844 40.8946 70.9103C40.7459 70.7363 40.5565 70.6016 40.3432 70.5183C39.0299 70.0768 37.7607 69.5139 36.552 68.8367C36.3503 68.7162 36.1197 68.6526 35.8847 68.6526C35.6496 68.6526 35.419 68.7162 35.2173 68.8367L32.0655 70.5183C31.4388 70.8497 30.7196 70.9635 30.0211 70.8418C29.3226 70.72 28.6844 70.3696 28.207 69.8457L26.0422 67.5139C25.5637 66.9939 25.2712 66.3301 25.2103 65.6262C25.1494 64.9224 25.3236 64.2182 25.7057 63.6238L27.7023 60.6082C27.8362 60.4149 27.9162 60.1894 27.9339 59.9549C27.9517 59.7204 27.9065 59.4854 27.8032 59.2742C27.1875 58.0273 26.6917 56.7248 26.3227 55.3841C26.2605 55.1634 26.142 54.9626 25.9788 54.8015C25.8156 54.6403 25.6133 54.5243 25.3917 54.4649L21.937 53.4672C21.2663 53.2582 20.683 52.8343 20.2775 52.2608C19.872 51.6873 19.6669 50.9963 19.6937 50.2946L19.8396 47.1557C19.8704 46.4512 20.1335 45.7767 20.588 45.2373C21.0425 44.6979 21.6627 44.3239 22.352 44.1737L25.8852 43.445C26.1105 43.4 26.3206 43.298 26.4953 43.1489C26.6701 42.9997 26.8037 42.8084 26.8835 42.593C27.3362 41.2756 27.9186 40.0063 28.622 38.8039C28.7381 38.6007 28.7991 38.3708 28.7991 38.1368C28.7991 37.9029 28.7381 37.673 28.622 37.4698L26.8835 34.286C26.5454 33.6666 26.4236 32.9521 26.5374 32.2557C26.6512 31.5593 26.994 30.9207 27.5116 30.4408L29.8334 28.2996C30.3537 27.8214 31.0178 27.529 31.7221 27.4681C32.4263 27.4073 33.1308 27.5814 33.7255 27.9633L36.7427 29.9588C36.935 30.091 37.1593 30.1691 37.3922 30.1849C37.625 30.2007 37.8579 30.1536 38.0662 30.0485C39.3381 29.4442 40.6636 28.96 42.0256 28.6023C42.2457 28.5422 42.4462 28.4258 42.6075 28.2646C42.7688 28.1034 42.8852 27.903 42.9454 27.6831L43.9549 24.2302C44.1588 23.5567 44.5818 22.9705 45.1568 22.5644C45.7317 22.1583 46.4258 21.9555 47.1291 21.9882L50.3034 22.1115C50.9975 22.1445 51.6614 22.405 52.1925 22.8528C52.7237 23.3006 53.0925 23.9107 53.2421 24.589L53.9823 28.1203C54.0271 28.3426 54.1278 28.5499 54.275 28.7225C54.4222 28.8951 54.611 29.0274 54.8236 29.1068C56.138 29.5684 57.4071 30.1501 58.6147 30.8444C58.8159 30.9605 59.0442 31.0217 59.2765 31.0217C59.5088 31.0217 59.7371 30.9605 59.9383 30.8444L63.0789 29.1068C63.7027 28.7749 64.4192 28.6597 65.1157 28.7795C65.8122 28.8992 66.4491 29.2471 66.9261 29.7682L69.0909 32.1112C69.5702 32.6288 69.8627 33.2918 69.9216 33.9947C69.9805 34.6975 69.8026 35.3999 69.4161 35.99L67.4196 39.0169C67.2874 39.2112 67.2095 39.4373 67.1937 39.6717C67.1779 39.9062 67.2249 40.1406 67.3299 40.3509C67.9342 41.6067 68.4187 42.9166 68.7768 44.2634C68.839 44.4841 68.9574 44.6849 69.1207 44.846C69.2839 45.0072 69.4862 45.1232 69.7078 45.1826L73.1624 46.1804C73.8322 46.3909 74.4143 46.8153 74.8196 47.3884C75.2248 47.9615 75.4307 48.6516 75.4057 49.3529L75.2823 52.5479C75.2515 53.2524 74.9883 53.9269 74.5339 54.4663C74.0794 55.0057 73.4592 55.3796 72.7699 55.5299L69.2367 56.2586C69.0174 56.2991 68.812 56.3944 68.6395 56.5355C68.4669 56.6766 68.3328 56.859 68.2496 57.0657C67.8016 58.385 67.219 59.6547 66.5111 60.8549C66.395 61.058 66.334 61.2879 66.334 61.5219C66.334 61.7558 66.395 61.9857 66.5111 62.1889L68.2496 65.3391C68.5779 65.9635 68.691 66.6787 68.5713 67.3738C68.4517 68.069 68.106 68.7053 67.5879 69.1842L65.2324 71.3479C64.7149 71.8269 64.0524 72.1201 63.3497 72.181C62.6469 72.2419 61.9438 72.0671 61.3515 71.6842L58.3343 69.6887C58.1409 69.5548 57.9152 69.4749 57.6806 69.4572C57.446 69.4395 57.2109 69.4845 56.9996 69.5878C55.7603 70.216 54.4599 70.7156 53.1187 71.0788C52.8994 71.1416 52.7003 71.2604 52.541 71.4236C52.3816 71.5868 52.2676 71.7886 52.2102 72.0093L51.2007 75.4621C50.9963 76.0945 50.5984 76.6469 50.063 77.0411C49.5277 77.4353 48.882 77.6516 48.2171 77.6594ZM35.879 66.7964C36.4221 66.7876 36.9573 66.9271 37.4269 67.2C38.5283 67.8603 39.6932 68.4086 40.904 68.8367C41.407 69.0248 41.854 69.3374 42.2031 69.7453C42.5523 70.1531 42.7923 70.6428 42.9005 71.1685L43.6296 74.6886C43.7013 74.9844 43.8689 75.2481 44.1063 75.4387C44.3437 75.6293 44.6375 75.7361 44.9419 75.7424L48.1386 75.8657C48.4446 75.8797 48.7464 75.7899 48.9948 75.6108C49.2433 75.4317 49.4238 75.1738 49.507 74.8792L50.5053 71.4375C50.6544 70.9201 50.9338 70.4496 51.3167 70.0708C51.6996 69.692 52.1733 69.4177 52.6925 69.2739C53.9371 68.9485 55.1468 68.5017 56.3041 67.9399C56.7876 67.7083 57.3229 67.6062 57.8577 67.6435C58.3925 67.6809 58.9085 67.8564 59.355 68.1529L62.3834 70.1483C62.6468 70.3156 62.9594 70.3879 63.2695 70.3532C63.5796 70.3186 63.8685 70.179 64.0883 69.9578L66.4326 67.7829C66.6516 67.5755 66.7965 67.302 66.8451 67.0043C66.8937 66.7067 66.8434 66.4013 66.7018 66.135L64.9632 62.9961C64.6989 62.5273 64.56 61.9983 64.56 61.4602C64.56 60.9221 64.6989 60.3931 64.9632 59.9244C65.6074 58.8393 66.1446 57.6941 66.5672 56.5052C66.7527 55.9861 67.069 55.5235 67.4855 55.1622C67.902 54.8009 68.4047 54.553 68.945 54.4425L72.4782 53.7138C72.7856 53.6576 73.0646 53.498 73.2686 53.2614C73.4727 53.0248 73.5896 52.7256 73.5999 52.4134L73.7345 49.2296C73.7414 48.924 73.6489 48.6243 73.4709 48.3757C73.293 48.127 73.0391 47.9428 72.7474 47.8507L69.2928 46.853C68.7684 46.6989 68.2931 46.4112 67.9136 46.0182C67.5341 45.6251 67.2633 45.1401 67.128 44.6109C66.8023 43.3705 66.3552 42.1652 65.7932 41.0123C65.566 40.5241 65.4663 39.9862 65.5036 39.449C65.5408 38.9118 65.7138 38.3929 66.0063 37.9407L67.9356 34.9811C68.1074 34.7285 68.1897 34.4257 68.1694 34.121C68.1491 33.8162 68.0273 33.527 67.8234 33.2995L65.6586 30.9565C65.4467 30.7332 65.1671 30.5859 64.863 30.5373C64.5589 30.4886 64.2472 30.5414 63.9762 30.6875L60.8019 32.4363C60.3329 32.7005 59.8037 32.8394 59.2653 32.8394C58.7269 32.8394 58.1976 32.7005 57.7286 32.4363C56.6238 31.7916 55.4594 31.2547 54.2515 30.8332C53.7425 30.6465 53.2903 30.3318 52.9386 29.9194C52.5869 29.507 52.3476 29.0109 52.2438 28.479L51.5035 24.9477C51.4459 24.6431 51.2872 24.3669 51.0532 24.1635C50.8192 23.9601 50.5234 23.8414 50.2136 23.8267L47.0282 23.7034C46.7215 23.6927 46.42 23.7836 46.1705 23.9621C45.9209 24.1405 45.7374 24.3964 45.6485 24.6899L44.6503 28.1315C44.4932 28.654 44.2044 29.1274 43.8116 29.5063C43.4187 29.8852 42.9351 30.1568 42.407 30.2951C41.1629 30.6225 39.9534 31.0692 38.7953 31.6292C38.3085 31.8553 37.7723 31.9544 37.2368 31.9172C36.7013 31.8799 36.184 31.7076 35.7332 31.4162L32.7721 29.488C32.5144 29.3286 32.2118 29.2577 31.9101 29.286C31.6084 29.3144 31.3243 29.4404 31.1008 29.6449L28.7342 31.7749C28.5109 31.982 28.3632 32.2577 28.3145 32.5583C28.2657 32.8588 28.3187 33.167 28.465 33.434L30.1923 36.5842C30.4567 37.0529 30.5956 37.5819 30.5956 38.12C30.5956 38.6581 30.4567 39.1871 30.1923 39.6559C29.5461 40.7627 29.0017 41.9259 28.5659 43.1311C28.3865 43.6245 28.0878 44.0659 27.6964 44.416C27.3051 44.7661 26.8331 45.0141 26.3227 45.1378L22.7895 45.8665C22.4847 45.9241 22.2083 46.0826 22.0048 46.3165C21.8013 46.5504 21.6826 46.846 21.6678 47.1557L21.522 50.4179C21.5207 50.7172 21.6176 51.0087 21.7979 51.2476C21.9782 51.4866 22.232 51.6598 22.5203 51.7407L25.9749 52.7385C26.4967 52.8974 26.9694 53.1867 27.3482 53.579C27.7269 53.9713 27.9994 54.4537 28.1397 54.9806C28.4684 56.2221 28.9114 57.4305 29.4632 58.5903C29.6943 59.0751 29.7971 59.6111 29.7618 60.1469C29.7264 60.6827 29.5541 61.2005 29.2614 61.6508L27.2648 64.6664C27.1165 64.9188 27.0538 65.2124 27.0861 65.5034C27.1184 65.7943 27.2441 66.067 27.4443 66.2807L29.6091 68.6237C29.8156 68.8513 30.0929 69.0027 30.3961 69.0535C30.6992 69.1044 31.0107 69.0517 31.2803 68.904L34.4321 67.1664C34.884 66.9242 35.3887 66.7971 35.9015 66.7964H35.879Z" fill="#19164C"/>
<path d="M89.1354 32.4364L88.4736 31.4835C85.905 27.9186 76.472 15.4301 67.3643 12.5715L65.121 17.0556L60.3091 7.08953L59.1875 4.63444L72.894 1.37219L71.4022 4.47749L71.0096 5.27344L71.3573 5.43038C76.537 7.83846 80.9436 11.6403 84.0835 16.4101C87.2234 21.1798 88.9727 26.7291 89.1354 32.4364Z" fill="white"/>
<path d="M88.4618 31.461C85.9381 27.941 76.6621 15.6767 67.6666 12.6387L67.3637 12.5378L66.4776 14.3763L65.1429 17.078L60.3086 7.08948L62.6528 6.52896L71.4016 4.47744L71.8727 4.35413L71.3568 5.47517L70.2351 7.71727C70.1995 7.78675 70.1785 7.86279 70.1734 7.94069C70.1683 8.0186 70.1793 8.09672 70.2055 8.17024C70.2318 8.24377 70.2729 8.31113 70.3262 8.36819C70.3795 8.42525 70.4439 8.47079 70.5155 8.502C74.9485 10.6065 78.8464 13.6881 81.916 17.5153C84.9856 21.3425 87.1469 25.8154 88.2375 30.5978C88.3272 30.8669 88.3833 31.1696 88.4618 31.461Z" fill="#17BC9C"/>
<path d="M88.2468 30.5642C85.2969 23.0756 76.9295 13.7709 68.9434 10.9907C68.8015 10.9468 68.6485 10.9554 68.5125 11.0152C68.3765 11.0749 68.2666 11.1817 68.2031 11.3158L67.5974 12.6499L66.7001 14.8023L66.5094 14.3763L62.707 6.52898L71.4334 4.48867L71.9045 4.36536L71.3885 5.4864L70.2669 7.7285C70.2313 7.79798 70.2103 7.87402 70.2052 7.95192C70.2001 8.02983 70.211 8.10795 70.2373 8.18147C70.2636 8.255 70.3046 8.32236 70.358 8.37942C70.4113 8.43648 70.4757 8.48202 70.5473 8.51323C74.9744 10.611 78.8675 13.6855 81.9333 17.5051C84.9992 21.3247 87.1579 25.7899 88.2468 30.5642Z" fill="#50C9B2"/>
<path d="M89.132 33.3108C88.9847 33.3103 88.84 33.2731 88.7107 33.2026C88.5815 33.1322 88.4718 33.0306 88.3917 32.9072C88.2459 32.7502 77.7922 17.3807 67.8208 13.6588L65.9813 17.4704C65.9037 17.621 65.7864 17.7476 65.6421 17.8365C65.4978 17.9254 65.332 17.9732 65.1625 17.9749C64.9941 17.975 64.829 17.9277 64.6862 17.8385C64.5434 17.7493 64.4286 17.6217 64.3549 17.4704L58.3429 5.02677C58.2818 4.90698 58.25 4.77445 58.25 4.64001C58.25 4.50557 58.2818 4.37304 58.3429 4.25325C58.4092 4.14337 58.497 4.048 58.6011 3.97287C58.7052 3.89775 58.8234 3.8444 58.9486 3.81604L72.6887 0.452901C72.8066 0.421152 72.9297 0.413479 73.0506 0.43034C73.1715 0.447201 73.2878 0.48825 73.3925 0.551034C73.4972 0.613818 73.5882 0.69705 73.6599 0.795758C73.7317 0.894465 73.7829 1.00662 73.8103 1.12553C73.8557 1.32549 73.8319 1.53491 73.743 1.71968L72.2064 4.81377C77.4045 7.36593 81.8078 11.2866 84.9423 16.1538C88.0769 21.0211 89.824 26.6506 89.9956 32.4364C89.9897 32.6275 89.9221 32.8116 89.8028 32.9611C89.6835 33.1107 89.519 33.2176 89.3339 33.2659L89.132 33.3108ZM67.3385 11.6634C67.4275 11.6472 67.5187 11.6472 67.6077 11.6634C75.9078 14.2978 84.264 24.3872 88.0103 29.2638C87.3023 24.2454 85.3375 19.4871 82.2982 15.4303C79.2589 11.3735 75.2436 8.14975 70.6249 6.05813C70.4089 5.94893 70.2439 5.75995 70.165 5.53124C70.0807 5.31882 70.0807 5.08224 70.165 4.86982L71.2642 2.69499L60.474 5.25098L65.14 15.0265L66.5197 12.179C66.5937 12.0247 66.7098 11.8944 66.8546 11.8032C66.9995 11.7119 67.1672 11.6635 67.3385 11.6634Z" fill="#19164C"/>
<path d="M20.4337 94.688L21.9479 90.6971C16.4871 88.8097 11.6671 85.4262 8.03778 80.9325C4.40844 76.4389 2.11596 71.0162 1.42188 65.283C1.42187 65.283 2.26311 66.3031 3.66516 67.8614C7.77037 72.3456 16.7996 81.3139 24.9091 83.0403L26.67 78.3768L33.6803 89.9908L33.7925 90.1814L20.4337 94.688Z" fill="white"/>
<path d="M33.7041 89.9908L33.1209 90.1814L23.5196 93.4212L24.8432 89.9572C24.8735 89.8838 24.8886 89.805 24.8874 89.7256C24.8862 89.6462 24.8688 89.5679 24.8362 89.4955C24.8037 89.4231 24.7567 89.3581 24.6981 89.3044C24.6395 89.2508 24.5705 89.2097 24.4955 89.1837C19.9834 87.5363 15.8666 84.9624 12.4105 81.6279C8.95438 78.2933 6.23558 74.2721 4.42929 69.8232C4.13766 69.117 3.91334 68.5004 3.72266 67.895C7.79422 72.3792 16.8234 81.3476 24.9329 83.0404L26.6939 78.3768L33.7041 89.9908Z" fill="#82CBAD"/>
<path d="M24.8308 89.9573C24.8852 89.8071 24.878 89.6415 24.8108 89.4967C24.7435 89.3518 24.6217 89.2393 24.4719 89.1838C19.9542 87.5347 15.8329 84.9564 12.3745 81.6157C8.91611 78.275 6.19755 74.2462 4.39453 69.7897C8.8811 76.6729 17.5402 83.9597 25.5038 85.9103C25.6427 85.933 25.7851 85.9076 25.9075 85.8383C26.0299 85.7689 26.1249 85.6599 26.1768 85.5292L27.7471 81.314L33.0525 90.1367L23.5185 93.4213L24.8308 89.9573Z" fill="#82CBAD"/>
<path d="M20.4332 95.5962C20.1912 95.5932 19.9602 95.4951 19.7901 95.323C19.62 95.1509 19.5247 94.9188 19.5247 94.6769C19.5077 94.5692 19.5077 94.4595 19.5247 94.3518L20.7361 91.168C15.3432 89.098 10.6142 85.6028 7.05434 81.0555C3.49444 76.5083 1.23731 71.0799 0.524063 65.3503C0.511738 65.2274 0.524618 65.1033 0.561916 64.9856C0.599214 64.8679 0.660146 64.759 0.740986 64.6656C0.821826 64.5722 0.920875 64.4963 1.03208 64.4425C1.14328 64.3887 1.26429 64.3581 1.38773 64.3526C1.52753 64.3485 1.66649 64.3755 1.79454 64.4317C1.92258 64.488 2.0365 64.572 2.12801 64.6777C2.24018 64.8234 14.0511 79.1728 24.3702 81.9866L25.8507 77.9957C25.9317 77.7788 26.0944 77.6022 26.3041 77.5037C26.5137 77.4052 26.7536 77.3927 26.9724 77.4688C27.1635 77.5368 27.3231 77.6724 27.421 77.85L34.5547 89.6546C34.6804 89.8555 34.7215 90.0979 34.669 90.329C34.6164 90.56 34.4745 90.7609 34.2743 90.8878C34.2115 90.9269 34.1435 90.9571 34.0724 90.9774L20.7136 95.5513C20.6222 95.5771 20.5281 95.5921 20.4332 95.5962ZM2.86829 68.2987C4.03502 73.2216 6.42311 77.7718 9.81236 81.5295C13.2016 85.2872 17.4829 88.1316 22.2615 89.8003C22.3735 89.8399 22.4761 89.9021 22.563 89.9832C22.6498 90.0642 22.719 90.1622 22.7662 90.2712C22.8103 90.3759 22.8331 90.4883 22.8331 90.6019C22.8331 90.7155 22.8103 90.8279 22.7662 90.9326L21.9138 93.1747L32.5021 89.6882L26.8939 80.406L25.7722 83.3767C25.6965 83.5792 25.5509 83.748 25.3618 83.8528C25.1726 83.9576 24.9523 83.9915 24.7403 83.9485C16.2271 82.11 6.96229 72.8277 2.86829 68.3211V68.2987Z" fill="#19164C"/>
<path d="M29.0913 31.1024H17.3477C17.1654 31.1066 16.9863 31.0538 16.8354 30.9513C16.6846 30.8487 16.5696 30.7017 16.5065 30.5306L13.2538 22.0219C13.166 21.7974 13.1711 21.5473 13.2678 21.3265C13.3646 21.1058 13.5451 20.9325 13.7697 20.8448C13.9943 20.7571 14.2446 20.7621 14.4654 20.8588C14.6863 20.9555 14.8597 21.136 14.9474 21.3605L17.9647 29.2975H29.1811C29.4191 29.2975 29.6473 29.392 29.8156 29.5602C29.9839 29.7283 30.0784 29.9565 30.0784 30.1943C30.0784 30.4322 29.9839 30.6603 29.8156 30.8285C29.6473 30.9967 29.4191 31.0912 29.1811 31.0912L29.0913 31.1024Z" fill="#19164C"/>
<path d="M16.2284 18.6138C16.2196 19.4184 15.9281 20.1943 15.4049 20.8058C14.8817 21.4173 14.1601 21.8255 13.3662 21.9591C12.5723 22.0927 11.7568 21.9431 11.0621 21.5365C10.3674 21.1299 9.83778 20.4922 9.56588 19.7349C9.43552 19.3757 9.37093 18.9959 9.3752 18.6138C9.37514 18.1586 9.46574 17.7079 9.64172 17.288C9.8177 16.8681 10.0755 16.4874 10.4002 16.1681C10.7249 15.8489 11.1099 15.5974 11.5328 15.4283C11.9557 15.2592 12.4081 15.176 12.8635 15.1834C13.2455 15.1829 13.6248 15.2473 13.9851 15.374C14.6459 15.6196 15.2154 16.062 15.6165 16.6413C16.0177 17.2207 16.2313 17.9092 16.2284 18.6138Z" fill="#D3EFF4"/>
<path d="M14.1074 16.4951C14.1077 17.3944 13.7557 18.2581 13.1268 18.9014C12.4979 19.5446 11.6421 19.9162 10.7425 19.9367C10.3596 19.9372 9.97964 19.8688 9.62087 19.7349C9.41128 19.1271 9.37683 18.4725 9.52147 17.846C9.6661 17.2195 9.98399 16.6463 10.4389 16.1916C10.8938 15.737 11.4673 15.4193 12.0942 15.2747C12.721 15.1302 13.3759 15.1646 13.9841 15.3741C14.0862 15.7385 14.1279 16.1172 14.1074 16.4951Z" fill="#FDFEFF"/>
<path d="M12.7939 22.9523C11.9354 22.9523 11.0961 22.6979 10.3823 22.2211C9.66845 21.7444 9.11209 21.0668 8.78355 20.2741C8.45501 19.4813 8.36904 18.609 8.53653 17.7675C8.70402 16.9259 9.11744 16.1528 9.72451 15.5461C10.3316 14.9394 11.105 14.5262 11.947 14.3588C12.7891 14.1914 13.6619 14.2773 14.455 14.6056C15.2482 14.934 15.9261 15.4901 16.4031 16.2035C16.8801 16.917 17.1346 17.7558 17.1346 18.6138C17.1346 19.7645 16.6773 20.868 15.8633 21.6816C15.0492 22.4952 13.9451 22.9523 12.7939 22.9523ZM12.7939 16.0803C12.2925 16.0803 11.8024 16.2289 11.3856 16.5073C10.9687 16.7857 10.6438 17.1813 10.4519 17.6443C10.2601 18.1072 10.2099 18.6167 10.3077 19.1081C10.4055 19.5996 10.6469 20.051 11.0014 20.4053C11.3559 20.7597 11.8076 21.001 12.2993 21.0987C12.7911 21.1965 13.3008 21.1463 13.764 20.9546C14.2271 20.7628 14.623 20.4381 14.9016 20.0214C15.1801 19.6048 15.3288 19.1149 15.3288 18.6138C15.3229 17.9437 15.054 17.3027 14.5799 16.8288C14.1057 16.3549 13.4644 16.0861 12.7939 16.0803Z" fill="#19164C"/>
<path d="M83.8975 76.202C83.7149 76.2006 83.5369 76.1442 83.3869 76.0402C83.2368 75.9362 83.1216 75.7895 83.0562 75.6191L80.0278 67.7157H68.8114C68.5734 67.7157 68.3452 67.6212 68.1769 67.453C68.0086 67.2848 67.9141 67.0567 67.9141 66.8188C67.9141 66.581 68.0086 66.3529 68.1769 66.1847C68.3452 66.0165 68.5734 65.922 68.8114 65.922H80.6559C80.8376 65.921 81.0152 65.9751 81.1654 66.0772C81.3156 66.1793 81.4313 66.3245 81.4972 66.4937L84.7387 75.0137C84.8126 75.2311 84.8003 75.4685 84.7043 75.677C84.6083 75.8856 84.436 76.0494 84.2227 76.1347C84.1207 76.1811 84.0096 76.2041 83.8975 76.202Z" fill="#19164C"/>
<path d="M87.8657 78.3768C87.8646 79.1843 87.5776 79.9653 87.0556 80.5816C86.5336 81.1979 85.8102 81.6096 85.0135 81.7439C84.2169 81.8782 83.3984 81.7263 82.703 81.3152C82.0076 80.9041 81.4803 80.2603 81.2143 79.4979C81.084 79.1386 81.0194 78.7589 81.0236 78.3768C81.0236 77.467 81.3852 76.5945 82.0289 75.9512C82.6726 75.3078 83.5456 74.9464 84.4559 74.9464C84.8377 74.9478 85.2167 75.0122 85.5775 75.137C86.2485 75.3723 86.8294 75.8108 87.2395 76.3915C87.6496 76.9721 87.8685 77.6661 87.8657 78.3768Z" fill="#D3EFF4"/>
<path d="M85.7685 76.2693C85.7685 77.1791 85.4069 78.0517 84.7632 78.695C84.1195 79.3383 83.2466 79.6997 82.3363 79.6997C81.9557 79.6948 81.5778 79.6343 81.2146 79.5203C81.0953 79.1586 81.0347 78.7802 81.0352 78.3993C81.0352 77.4895 81.3968 76.617 82.0404 75.9736C82.6841 75.3303 83.5571 74.9689 84.4674 74.9689C84.8504 74.9672 85.2306 75.0356 85.589 75.1707C85.7139 75.5233 85.7746 75.8953 85.7685 76.2693Z" fill="#FDFEFF"/>
<path d="M84.4585 82.7153C83.6021 82.7153 82.7651 82.4615 82.0531 81.986C81.3411 81.5105 80.7862 80.8347 80.4585 80.044C80.1308 79.2533 80.045 78.3832 80.2121 77.5438C80.3792 76.7044 80.7915 75.9334 81.397 75.3282C82.0025 74.723 82.7739 74.3109 83.6138 74.1439C84.4536 73.977 85.3242 74.0627 86.1153 74.3902C86.9064 74.7177 87.5826 75.2723 88.0583 75.9839C88.5341 76.6956 88.788 77.5322 88.788 78.388C88.788 79.5357 88.3318 80.6363 87.5199 81.4479C86.7079 82.2594 85.6067 82.7153 84.4585 82.7153ZM84.4585 75.8545C83.9571 75.8545 83.467 76.0031 83.0501 76.2814C82.6333 76.5598 82.3084 76.9555 82.1165 77.4185C81.9246 77.8814 81.8744 78.3908 81.9722 78.8823C82.0701 79.3738 82.3115 79.8252 82.666 80.1795C83.0205 80.5339 83.4722 80.7752 83.9639 80.8729C84.4556 80.9707 84.9653 80.9205 85.4285 80.7287C85.8917 80.537 86.2876 80.2123 86.5662 79.7956C86.8447 79.379 86.9934 78.8891 86.9934 78.388C86.9934 77.7161 86.7263 77.0717 86.2509 76.5965C85.7755 76.1214 85.1308 75.8545 84.4585 75.8545Z" fill="#19164C"/>
<path d="M20.6021 47.3799H10.1372C9.90212 47.3571 9.68515 47.2437 9.5323 47.0637C9.37944 46.8837 9.30273 46.6513 9.31841 46.4158C9.33399 46.2039 9.42525 46.0047 9.57556 45.8544C9.72587 45.7042 9.92521 45.613 10.1372 45.5974H20.6021C20.8243 45.6222 21.0295 45.7279 21.1785 45.8944C21.3275 46.0609 21.4099 46.2765 21.4099 46.4999C21.4099 46.7232 21.3275 46.9388 21.1785 47.1053C21.0295 47.2718 20.8243 47.3775 20.6021 47.4023V47.3799Z" fill="#19164C"/>
<path d="M46.9051 23.6361C46.7873 23.6361 46.6706 23.6129 46.5617 23.5678C46.4529 23.5228 46.354 23.4567 46.2706 23.3734C46.1873 23.2901 46.1212 23.1913 46.0761 23.0825C46.031 22.9737 46.0078 22.857 46.0078 22.7393V12.7844C46.0326 12.5624 46.1384 12.3573 46.305 12.2083C46.4716 12.0594 46.6872 11.9771 46.9107 11.9771C47.1342 11.9771 47.3499 12.0594 47.5165 12.2083C47.6831 12.3573 47.7889 12.5624 47.8137 12.7844V22.7729C47.8049 23.0068 47.705 23.2281 47.5352 23.3893C47.3655 23.5506 47.1393 23.6392 46.9051 23.6361Z" fill="#19164C"/>
<path d="M85.1867 48.8037H74.5536C74.3156 48.8037 74.0873 48.7092 73.9191 48.541C73.7508 48.3728 73.6563 48.1447 73.6562 47.9069C73.6563 47.669 73.7508 47.4409 73.9191 47.2727C74.0873 47.1045 74.3156 47.01 74.5536 47.01H85.2092C85.4472 47.01 85.6754 47.1045 85.8437 47.2727C86.0119 47.4409 86.1065 47.669 86.1065 47.9069C86.1065 48.1447 86.0119 48.3728 85.8437 48.541C85.6754 48.7092 85.4472 48.8037 85.2092 48.8037H85.1867Z" fill="#19164C"/>
<path d="M50.1551 87.6592C49.9171 87.6592 49.6889 87.5647 49.5206 87.3965C49.3523 87.2283 49.2578 87.0002 49.2578 86.7623V75.9667C49.2578 75.7288 49.3523 75.5007 49.5206 75.3325C49.6889 75.1643 49.9171 75.0698 50.1551 75.0698C50.3931 75.0698 50.6213 75.1643 50.7896 75.3325C50.9579 75.5007 51.0524 75.7288 51.0524 75.9667V86.7736C51.0539 86.8908 51.0321 87.0072 50.9882 87.1159C50.9444 87.2247 50.8793 87.3236 50.7969 87.407C50.7145 87.4905 50.6163 87.5567 50.508 87.6019C50.3998 87.6471 50.2837 87.6704 50.1663 87.6704L50.1551 87.6592Z" fill="#19164C"/>
<path d="M50.1556 90.9214C51.5122 90.9214 52.612 89.8222 52.612 88.4663C52.612 87.1104 51.5122 86.0112 50.1556 86.0112C48.799 86.0112 47.6992 87.1104 47.6992 88.4663C47.6992 89.8222 48.799 90.9214 50.1556 90.9214Z" fill="#D3F2EC"/>
<path d="M50.1579 91.8182C49.4924 91.8182 48.8418 91.621 48.2884 91.2514C47.7351 90.8819 47.3038 90.3566 47.0491 89.7421C46.7944 89.1275 46.7278 88.4513 46.8576 87.7989C46.9875 87.1466 47.3079 86.5473 47.7785 86.077C48.2491 85.6066 48.8487 85.2863 49.5014 85.1565C50.1542 85.0268 50.8307 85.0934 51.4456 85.3479C52.0605 85.6025 52.586 86.0335 52.9557 86.5866C53.3255 87.1397 53.5228 87.7899 53.5228 88.4551C53.5228 89.347 53.1683 90.2024 52.5373 90.8332C51.9062 91.4639 51.0503 91.8182 50.1579 91.8182ZM50.1579 86.908C49.7444 86.908 49.3478 87.0722 49.0555 87.3644C48.7631 87.6566 48.5988 88.053 48.5988 88.4663C48.5988 88.8795 48.7631 89.2759 49.0555 89.5681C49.3478 89.8604 49.7444 90.0245 50.1579 90.0245C50.5724 90.0245 50.9702 89.8607 51.2643 89.5688C51.5585 89.2769 51.7252 88.8806 51.7282 88.4663C51.7282 88.2607 51.6875 88.0571 51.6085 87.8674C51.5294 87.6776 51.4136 87.5053 51.2676 87.3604C51.1216 87.2156 50.9484 87.101 50.758 87.0234C50.5675 86.9457 50.3636 86.9065 50.1579 86.908Z" fill="#1A2745"/>
<path d="M87.4291 50.3618C88.7857 50.3618 89.8854 49.2627 89.8854 47.9068C89.8854 46.5508 88.7857 45.4517 87.4291 45.4517C86.0724 45.4517 84.9727 46.5508 84.9727 47.9068C84.9727 49.2627 86.0724 50.3618 87.4291 50.3618Z" fill="#D3F2EC"/>
<path d="M87.4274 51.27C86.7619 51.27 86.1113 51.0727 85.558 50.7032C85.0046 50.3336 84.5733 49.8084 84.3186 49.1939C84.064 48.5793 83.9973 47.9031 84.1272 47.2507C84.257 46.5983 84.5775 45.9991 85.0481 45.5287C85.5187 45.0584 86.1182 44.7381 86.771 44.6083C87.4237 44.4786 88.1003 44.5452 88.7151 44.7997C89.33 45.0543 89.8555 45.4853 90.2253 46.0384C90.595 46.5914 90.7924 47.2417 90.7924 47.9068C90.7924 48.7988 90.4378 49.6542 89.8068 50.2849C89.1757 50.9157 88.3199 51.27 87.4274 51.27ZM87.4274 46.3486C87.1191 46.3486 86.8176 46.44 86.5612 46.6112C86.3049 46.7824 86.105 47.0258 85.987 47.3105C85.869 47.5953 85.8381 47.9086 85.8983 48.2108C85.9585 48.5131 86.107 48.7908 86.325 49.0087C86.543 49.2266 86.8208 49.375 87.1233 49.4352C87.4257 49.4953 87.7392 49.4644 88.0241 49.3465C88.309 49.2285 88.5524 49.0288 88.7238 48.7726C88.8951 48.5163 88.9865 48.215 88.9865 47.9068C88.988 47.7027 88.949 47.5004 88.8719 47.3114C88.7948 47.1224 88.681 46.9505 88.5371 46.8057C88.3933 46.6608 88.2221 46.5459 88.0336 46.4674C87.8451 46.389 87.6429 46.3486 87.4386 46.3486H87.4274Z" fill="#19164C"/>
<path d="M46.9056 12.6499C48.2622 12.6499 49.362 11.5507 49.362 10.1948C49.362 8.83893 48.2622 7.73975 46.9056 7.73975C45.549 7.73975 44.4492 8.83893 44.4492 10.1948C44.4492 11.5507 45.549 12.6499 46.9056 12.6499Z" fill="#82CBAD"/>
<path d="M46.904 13.5579C46.2385 13.5579 45.5879 13.3607 45.0345 12.9912C44.4812 12.6216 44.0499 12.0964 43.7952 11.4818C43.5405 10.8673 43.4739 10.1911 43.6037 9.53869C43.7336 8.88631 44.054 8.28705 44.5246 7.81671C44.9952 7.34636 45.5948 7.02606 46.2475 6.89629C46.9003 6.76652 47.5768 6.83312 48.1917 7.08767C48.8066 7.34222 49.3321 7.77328 49.7018 8.32635C50.0716 8.87941 50.2689 9.52964 50.2689 10.1948C50.2689 11.0868 49.9144 11.9422 49.2834 12.5729C48.6523 13.2036 47.7964 13.5579 46.904 13.5579ZM46.904 8.63655C46.5966 8.64097 46.2974 8.73611 46.044 8.90999C45.7906 9.08388 45.5943 9.32877 45.4797 9.61386C45.3651 9.89896 45.3374 10.2115 45.4001 10.5123C45.4627 10.8131 45.613 11.0887 45.8319 11.3043C46.0508 11.52 46.3286 11.6662 46.6304 11.7246C46.9322 11.7829 47.2445 11.7507 47.5281 11.6322C47.8117 11.5136 48.0539 11.3139 48.2242 11.0582C48.3946 10.8024 48.4855 10.502 48.4855 10.1948C48.4855 9.98827 48.4445 9.7838 48.3647 9.59327C48.285 9.40273 48.1681 9.22995 48.021 9.08495C47.8738 8.93996 47.6993 8.82565 47.5075 8.74867C47.3158 8.67169 47.1106 8.63358 46.904 8.63655Z" fill="#19164C"/>
<path d="M7.90562 48.8484C9.26225 48.8484 10.362 47.7492 10.362 46.3933C10.362 45.0374 9.26225 43.9382 7.90562 43.9382C6.54898 43.9382 5.44922 45.0374 5.44922 46.3933C5.44922 47.7492 6.54898 48.8484 7.90562 48.8484Z" fill="#19164C"/>
<path d="M7.90399 49.7789C7.23847 49.7789 6.5879 49.5816 6.03454 49.2121C5.48118 48.8426 5.04989 48.3173 4.7952 47.7028C4.54052 47.0882 4.47388 46.412 4.60372 45.7596C4.73356 45.1073 5.05403 44.508 5.52463 44.0377C5.99522 43.5673 6.59479 43.247 7.24753 43.1172C7.90026 42.9875 8.57683 43.0541 9.19169 43.3086C9.80655 43.5632 10.3321 43.9942 10.7018 44.5473C11.0716 45.1004 11.2689 45.7506 11.2689 46.4158C11.2689 47.3077 10.9144 48.1631 10.2834 48.7939C9.65231 49.4246 8.79642 49.7789 7.90399 49.7789ZM7.90399 44.8687C7.59668 44.8753 7.29818 44.9726 7.04603 45.1483C6.79388 45.324 6.59931 45.5703 6.4868 45.8562C6.37428 46.1421 6.34883 46.4549 6.41365 46.7552C6.47847 47.0555 6.63066 47.33 6.8511 47.5441C7.07154 47.7582 7.35038 47.9024 7.65258 47.9586C7.95478 48.0148 8.26686 47.9804 8.54958 47.8598C8.8323 47.7393 9.07305 47.5378 9.24157 47.2809C9.41009 47.024 9.49886 46.723 9.49672 46.4158C9.4997 46.2092 9.46156 46.0042 9.38455 45.8125C9.30753 45.6209 9.19316 45.4465 9.04809 45.2994C8.90301 45.1523 8.73014 45.0355 8.5395 44.9558C8.34887 44.8761 8.14428 44.8351 7.93764 44.8351L7.90399 44.8687Z" fill="#19164C"/>
<path d="M62.2148 46.2588C62.1938 46.8707 62.1377 47.4808 62.0466 48.0861C61.6316 51.3708 60.3641 56.4043 56.6066 58.9379C51.7275 62.1889 45.1098 60.8885 43.0123 60.3616C42.5749 60.2495 42.3393 60.171 42.3393 60.171C42.3393 60.171 41.4644 51.4156 46.7474 47.1445C50.8974 43.7813 58.076 44.3643 60.981 44.7678C61.3368 44.8153 61.6615 44.9952 61.8903 45.2717C62.119 45.5481 62.2349 45.9007 62.2148 46.2588Z" fill="white"/>
<path d="M61.9913 48.0862C61.5763 51.3708 60.3088 56.4043 56.5513 58.9379C51.6722 62.1889 45.0545 60.8885 42.957 60.3616C43.0456 58.9837 43.2825 57.6194 43.6637 56.2922C44.2595 53.9796 45.5516 51.9056 47.3651 50.3507C51.302 47.1669 58.0207 47.5369 61.094 47.9068L61.5539 47.9741C61.7055 47.9834 61.8539 48.0215 61.9913 48.0862Z" fill="#82CBAD"/>
<path d="M61.1471 47.9068C60.4516 50.6256 58.8492 53.026 56.6044 54.7116C52.1178 57.6263 46.2965 56.864 43.6719 56.2922C44.2761 53.9805 45.5713 51.9078 47.3845 50.3507C51.299 47.1669 57.984 47.5369 61.1471 47.9068Z" fill="#82CBAD"/>
<path d="M48.5883 61.976C46.3693 61.9813 44.1606 61.6757 42.0267 61.0679C41.86 61.0124 41.7131 60.9098 41.6036 60.7725C41.4941 60.6352 41.4268 60.4691 41.4098 60.2944C41.4098 59.9245 40.5573 50.9673 46.1543 46.4831C50.5736 42.907 58.0661 43.4899 61.0721 43.9047C61.6506 43.9903 62.1766 44.2879 62.5476 44.7396C62.9187 45.1913 63.1085 45.7648 63.0799 46.3486C62.9116 49.2745 61.9582 56.438 57.0791 59.7227C54.5343 61.2971 51.5793 62.0813 48.5883 61.976ZM43.1483 59.476C45.1 59.9693 51.4821 61.2361 56.0584 58.198C60.3094 55.3842 61.0946 48.8709 61.2852 46.214C61.2894 46.082 61.2448 45.9531 61.16 45.8518C61.0752 45.7505 60.9561 45.6839 60.8254 45.6647C58.0437 45.2836 51.1568 44.7231 47.2872 47.9068C43.1483 51.1354 43.0698 57.4918 43.1483 59.476Z" fill="#19164C"/>
<path d="M50.0227 47.7499C49.4171 54.7788 42.2834 60.1486 42.2834 60.1486C41.2695 59.4288 40.3201 58.6223 39.4457 57.7384C37.2921 55.4963 34.6787 52.1332 34.6562 48.1086C34.6562 42.8845 39.3784 37.7277 41.5656 35.6426C41.8599 35.3609 42.2517 35.2037 42.6592 35.2037C43.0666 35.2037 43.4584 35.3609 43.7528 35.6426C45.1069 36.8563 46.3254 38.2133 47.3869 39.6895C49.1912 41.9804 50.1251 44.8361 50.0227 47.7499Z" fill="white"/>
<path d="M50.0214 47.7499C49.4157 54.7788 42.282 60.1487 42.282 60.1487C41.2682 59.4288 40.3187 58.6223 39.4443 57.7384L39.1527 57.3012C37.877 55.4438 37.1536 53.2633 37.0664 51.0121C37.0664 45.7544 41.8222 40.6088 43.9869 38.5237C44.2293 38.2762 44.5508 38.1215 44.8955 38.0865C45.1251 38.059 45.3579 38.0808 45.5784 38.1504C45.7988 38.22 46.002 38.3358 46.1741 38.49C46.5218 38.8151 46.9369 39.2075 47.3855 39.6783C49.1855 41.9759 50.1186 44.8334 50.0214 47.7499Z" fill="#82CBAD"/>
<path d="M46.7579 44.992C46.1971 51.4268 40.1626 56.4715 39.1644 57.3235C37.8836 55.4687 37.1598 53.2867 37.0781 51.0345C37.0781 45.7992 41.8227 40.6536 43.9874 38.5684C44.2298 38.3209 44.5513 38.1662 44.896 38.1312C46.2174 40.1681 46.8685 42.567 46.7579 44.992Z" fill="#82CBAD"/>
<path d="M42.2828 61.0678C42.0956 61.0678 41.9124 61.0132 41.7556 60.9109C41.4416 60.6755 33.7695 55.3057 33.7695 48.0861C33.7695 42.4809 38.7833 37.0326 40.9593 34.9587C41.4197 34.5404 42.0195 34.3086 42.6417 34.3086C43.2639 34.3086 43.8638 34.5404 44.3242 34.9587C46.4441 36.9205 51.3793 42.0773 50.8746 47.8955C50.2128 55.216 43.0231 60.7091 42.7763 60.9333C42.6292 61.0269 42.4571 61.0738 42.2828 61.0678ZM42.6754 36.0573C42.5837 36.0555 42.4926 36.0725 42.4078 36.1072C42.3229 36.1419 42.246 36.1936 42.1818 36.2591C40.1853 38.1761 35.5193 43.1647 35.5193 48.0749C35.5193 53.299 40.5555 57.6935 42.2491 59.0163C43.8419 57.6262 48.6313 53.142 49.1024 47.705C49.5286 42.6827 45.0533 38.0303 43.1016 36.2591C42.9893 36.1432 42.8367 36.0749 42.6754 36.0685V36.0573Z" fill="#19164C"/>
<path d="M12.7966 21.1475C14.1966 21.1475 15.3315 20.0131 15.3315 18.6139C15.3315 17.2146 14.1966 16.0803 12.7966 16.0803C11.3966 16.0803 10.2617 17.2146 10.2617 18.6139C10.2617 20.0131 11.3966 21.1475 12.7966 21.1475Z" fill="#82CBAD"/>
<path d="M7.90261 48.131C8.86278 48.131 9.64115 47.353 9.64115 46.3934C9.64115 45.4337 8.86278 44.6558 7.90261 44.6558C6.94244 44.6558 6.16406 45.4337 6.16406 46.3934C6.16406 47.353 6.94244 48.131 7.90261 48.131Z" fill="#82CBAD"/>
<path d="M50.1567 90.0245C51.0178 90.0245 51.7158 89.3268 51.7158 88.4662C51.7158 87.6056 51.0178 86.908 50.1567 86.908C49.2957 86.908 48.5977 87.6056 48.5977 88.4662C48.5977 89.3268 49.2957 90.0245 50.1567 90.0245Z" fill="#82CBAD"/>
<path d="M84.4471 81.2243C86.0144 81.2243 87.2849 79.9544 87.2849 78.388C87.2849 76.8216 86.0144 75.5518 84.4471 75.5518C82.8799 75.5518 81.6094 76.8216 81.6094 78.388C81.6094 79.9544 82.8799 81.2243 84.4471 81.2243Z" fill="#82CBAD"/>
<path d="M87.4307 49.8013C88.4776 49.8013 89.3263 48.9531 89.3263 47.9068C89.3263 46.8604 88.4776 46.0122 87.4307 46.0122C86.3838 46.0122 85.5352 46.8604 85.5352 47.9068C85.5352 48.9531 86.3838 49.8013 87.4307 49.8013Z" fill="#82CBAD"/>
</g>
<defs>
<clipPath id="clip0_194_2270">
<rect width="90.2361" height="95.1432" fill="white" transform="translate(0.523438 0.452881)"/>
</clipPath>
</defs>
</svg>
