<svg width="461" height="465" viewBox="0 0 461 465" fill="none" xmlns="http://www.w3.org/2000/svg">
<path d="M331.428 36.7407C377.167 60.2647 422.857 89.3934 444.531 135.98C466.283 182.734 465.575 238.424 447.773 286.816C431.377 331.385 388.453 357.158 351.962 387.608C317.399 416.449 285.35 449.769 241.288 459.12C194.463 469.056 141.225 468.558 102.428 440.561C64.8014 413.406 62.7373 360.449 45.1313 317.56C28.4182 276.845 -9.27432 238.672 2.10442 196.163C13.4469 153.789 69.202 144.211 99.9252 112.858C133.498 78.5972 143.975 19.8455 189.575 4.8525C236.765 -10.6637 287.26 14.0247 331.428 36.7407Z" fill="#A2A2A3" fill-opacity="0.12"/>
</svg>
