<svg width="598" height="603" viewBox="0 0 598 603" fill="none" xmlns="http://www.w3.org/2000/svg">
<path d="M430.024 47.6846C489.274 78.1358 548.462 115.842 576.538 176.147C604.716 236.67 603.798 308.759 580.737 371.4C559.498 429.094 503.894 462.456 456.624 501.873C411.851 539.207 370.334 582.339 313.256 594.443C252.599 607.305 183.634 606.661 133.377 570.419C84.6354 535.268 81.9614 466.717 59.1546 411.197C37.5044 358.494 -11.3226 309.08 3.41747 254.053C18.1106 199.201 90.3358 186.802 130.135 146.217C173.626 101.867 187.197 25.8143 246.267 6.40619C307.398 -13.6791 372.809 18.2793 430.024 47.6846Z" fill="#A2A2A3" fill-opacity="0.12"/>
</svg>
