<svg width="265" height="267" viewBox="0 0 265 267" fill="none" xmlns="http://www.w3.org/2000/svg">
<path d="M190.327 21.6998C216.561 35.1311 242.768 51.7625 255.199 78.3616C267.675 105.057 267.269 136.854 257.058 164.483C247.654 189.931 223.034 204.646 202.104 222.032C182.28 238.499 163.898 257.524 138.625 262.862C111.768 268.536 81.2323 268.252 58.9801 252.266C37.3985 236.762 36.2145 206.525 26.1163 182.037C16.5302 158.791 -5.08898 136.995 1.43749 112.724C7.94319 88.5301 39.9225 83.0611 57.5443 65.16C76.8008 45.5982 82.8098 12.0532 108.964 3.49277C136.031 -5.3664 164.994 8.72975 190.327 21.6998Z" fill="#282065" fill-opacity="0.08"/>
<g clip-path="url(#clip0_393_6)">
<path d="M145.57 117.31L157.564 136.792L167.087 131.019C167.087 131.019 173.048 127.051 168.977 120.557C164.833 113.991 164.325 113.342 164.325 113.342C164.325 113.342 160.254 108.724 155.166 111.682C150.004 114.641 145.57 117.31 145.57 117.31Z" fill="#82CBAD"/>
<path d="M106.028 117.31L94.0341 136.792L84.5116 131.019C84.5116 131.019 78.5509 127.051 82.6216 120.557C86.6923 114.063 87.2738 113.342 87.2738 113.342C87.2738 113.342 91.3445 108.724 96.4329 111.682C101.521 114.641 106.028 117.31 106.028 117.31Z" fill="#82CBAD"/>
<path d="M154.73 90.0364C158.343 90.0364 161.272 87.129 161.272 83.5426C161.272 79.9562 158.343 77.0488 154.73 77.0488C151.117 77.0488 148.188 79.9562 148.188 83.5426C148.188 87.129 151.117 90.0364 154.73 90.0364Z" fill="#82CBAD"/>
<path d="M126.529 84.9136C130.704 84.9136 134.088 81.554 134.088 77.4097C134.088 73.2654 130.704 69.9058 126.529 69.9058C122.353 69.9058 118.969 73.2654 118.969 77.4097C118.969 81.554 122.353 84.9136 126.529 84.9136Z" fill="#82CBAD"/>
<path d="M98.2513 88.5215C101.503 88.5215 104.139 85.9372 104.139 82.7493C104.139 79.5614 101.503 76.9771 98.2513 76.9771C94.9994 76.9771 92.3633 79.5614 92.3633 82.7493C92.3633 85.9372 94.9994 88.5215 98.2513 88.5215Z" fill="#82CBAD"/>
<path d="M88.9453 81.3781C88.9453 86.1402 92.8706 89.9643 97.5955 89.9643C102.32 89.9643 106.246 86.0681 106.246 81.3781C106.246 76.6881 102.393 72.7197 97.5955 72.7197C92.7979 72.7197 88.9453 76.616 88.9453 81.3781ZM104.138 81.3781C104.138 84.9136 101.23 87.8719 97.5955 87.8719C93.961 87.8719 91.0534 84.9858 91.0534 81.3781C91.0534 77.7704 93.961 74.8843 97.5955 74.8843C101.23 74.8843 104.138 77.7704 104.138 81.3781Z" fill="#1D1655"/>
<path d="M145.355 81.3781C145.355 86.1402 149.281 89.9643 154.006 89.9643C158.803 89.9643 162.656 86.0681 162.656 81.3781C162.656 76.6881 158.803 72.7197 154.006 72.7197C149.208 72.7197 145.355 76.616 145.355 81.3781ZM160.548 81.3781C160.548 84.9136 157.64 87.8719 154.006 87.8719C150.371 87.8719 147.464 84.9858 147.464 81.3781C147.464 77.7704 150.371 74.8843 154.006 74.8843C157.64 74.8843 160.548 77.7704 160.548 81.3781Z" fill="#1D1655"/>
<path d="M116.062 75.2452C116.062 80.5845 120.424 84.9137 125.803 84.9137C131.182 84.9137 135.544 80.5845 135.544 75.2452C135.544 69.9058 131.182 65.5767 125.803 65.5767C120.424 65.5767 116.062 69.9058 116.062 75.2452ZM133.436 75.2452C133.436 79.4301 130.019 82.7491 125.876 82.7491C121.732 82.7491 118.316 79.3579 118.316 75.2452C118.316 71.1325 121.66 67.7413 125.803 67.7413C129.946 67.7413 133.436 71.1325 133.436 75.2452Z" fill="#1D1655"/>
<path d="M84.5132 135.276L98.0337 143.358C99.2695 144.079 100.796 143.863 101.814 142.852L103.486 143.863L116.206 154.253C118.751 156.345 121.876 157.427 125.147 157.427H129.872C132.489 157.427 134.961 156.417 136.778 154.613L146.737 144.656L149.79 142.78C150.735 143.863 152.407 144.079 153.642 143.358L167.09 135.276C171.524 132.751 173.124 126.69 170.579 122.361C171.742 114.857 172.397 101.653 164.183 95.1592C158.295 90.4693 149.717 90.4693 143.829 95.1592C143.756 95.2314 143.611 95.3035 143.538 95.3757C140.558 91.9123 136.633 89.3148 131.69 87.6553C127.837 86.4287 123.694 86.4287 119.841 87.6553C114.971 89.2427 111.045 91.8402 107.992 95.3757C107.92 95.3035 107.774 95.2314 107.702 95.1592C101.814 90.4693 93.2361 90.4693 87.3481 95.1592C79.2067 101.653 79.7883 114.857 80.9513 122.361C78.5525 126.69 80.1517 132.679 84.5132 135.276ZM100.287 141.265C100.069 141.626 99.4875 141.77 99.1241 141.554L96.6526 140.038L108.647 120.557C110.028 121.423 110.973 121.928 111.336 122.145C111.772 122.361 111.845 122.938 111.627 123.299L100.287 141.265ZM135.179 153.098C133.725 154.541 131.835 155.335 129.8 155.335H125.075C122.313 155.335 119.623 154.397 117.515 152.665L104.794 142.275C104.721 142.275 104.721 142.203 104.649 142.203L102.977 141.193L112.863 125.536L117.733 128.494C118.605 128.999 119.55 129.288 120.495 129.288H123.621C123.185 129.648 122.749 130.009 122.385 130.442L117.66 135.637C116.061 137.441 115.988 140.183 117.442 141.987C119.114 144.079 122.531 144.296 124.493 142.492L128.855 138.523C129.291 138.09 130.018 138.163 130.381 138.595L139.468 148.769L135.179 153.098ZM145.501 142.925C145.428 142.997 145.356 142.997 145.283 143.069L141.067 147.254L132.053 137.225C130.89 135.854 128.709 135.781 127.401 137.008L123.039 140.976C121.949 141.987 120.059 141.914 119.114 140.688C118.315 139.678 118.315 138.163 119.26 137.08L123.984 131.669C125.438 130.009 127.546 129.071 129.727 129.071H132.998C133.216 129.071 133.362 128.999 133.58 128.927L139.031 125.752L148.627 140.976L145.501 142.925ZM152.479 141.554C152.043 141.77 151.534 141.698 151.316 141.265L140.049 123.371C139.758 123.01 139.904 122.433 140.34 122.217C140.703 122 141.576 121.423 143.029 120.629L155.024 140.111L152.479 141.554ZM165.927 133.4C163.674 134.771 156.841 138.884 156.841 138.884L144.847 119.403C147.1 118.032 150.153 116.228 154.006 113.919C157.495 111.827 162.147 112.909 164.328 116.444C164.328 116.444 167.381 121.351 168.399 122.938C170.725 126.402 169.489 131.38 165.927 133.4ZM145.21 96.7466C150.299 92.706 157.713 92.706 162.801 96.7466C169.271 101.869 169.489 112.187 168.762 119.331L166.218 115.29C163.456 110.816 157.495 109.373 152.915 112.115C152.043 112.62 151.171 113.125 150.371 113.63C149.79 106.92 147.972 101.364 144.847 97.0352C144.992 96.9631 145.065 96.8188 145.21 96.7466ZM120.568 89.6756C123.984 88.5933 127.692 88.5933 131.035 89.6756C141.866 93.2111 147.464 101.509 148.336 114.857C143.102 117.96 139.976 119.836 139.25 120.269C138.014 120.99 137.505 122.577 137.941 123.876L132.78 126.907H120.568C119.986 126.907 119.405 126.762 118.896 126.474L113.88 123.443C114.171 122.217 113.59 120.918 112.499 120.269C111.7 119.763 108.647 117.96 103.413 114.857C104.14 101.509 109.81 93.2111 120.568 89.6756ZM88.802 96.7466C93.8903 92.706 101.305 92.706 106.393 96.7466C106.466 96.8188 106.611 96.8909 106.684 97.0352C103.558 101.364 101.741 106.92 101.159 113.703C100.36 113.198 99.4875 112.692 98.6153 112.187C94.1084 109.518 88.075 110.961 85.3128 115.362L82.7686 119.403C82.1144 112.187 82.3325 101.942 88.802 96.7466ZM83.1321 123.01C84.1497 121.351 87.2028 116.517 87.2028 116.517C89.3835 113.053 94.0357 111.971 97.5249 113.991C101.378 116.3 104.431 118.104 106.684 119.475L94.6899 138.956C94.6899 138.956 87.857 134.843 85.6036 133.473C82.1144 131.38 80.9513 126.402 83.1321 123.01Z" fill="#1D1655"/>
</g>
<defs>
<clipPath id="clip0_393_6">
<rect width="91.8815" height="91.8509" fill="white" transform="translate(79.8594 65.5767)"/>
</clipPath>
</defs>
</svg>
