<svg width="512" height="950" viewBox="0 0 512 950" fill="none" xmlns="http://www.w3.org/2000/svg">
<path d="M264.062 929.556L278.147 309.866C278.147 309.866 293.569 310.853 311.004 299.788" stroke="white" stroke-width="1.91" stroke-miterlimit="10"/>
<path d="M345.909 949.842L322.328 304.86" stroke="white" stroke-width="1.91" stroke-miterlimit="10"/>
<path d="M321.452 943.387L308.484 301.356" stroke="white" stroke-width="0.96" stroke-miterlimit="10"/>
<path d="M278.148 309.83L255.941 290.467" stroke="white" stroke-width="1.91" stroke-miterlimit="10"/>
<path d="M249.367 281.661C250.392 284.263 251.926 286.635 253.878 288.639C255.83 290.644 258.162 292.239 260.738 293.334C270.586 297.391 282.03 293.085 288.426 283.625" stroke="white" stroke-width="1.91" stroke-miterlimit="10"/>
<path d="M323.336 332.236C323.336 332.236 326.382 335.104 339.626 336.791C352.87 338.479 359.211 329.184 361.712 322.96C363.013 319.563 363.522 315.915 363.198 312.292" stroke="white" stroke-width="1.91" stroke-miterlimit="10"/>
<path d="M282.809 247.766C282.809 247.766 296.376 254.34 311.171 262.067" stroke="white" stroke-width="1.91" stroke-miterlimit="10"/>
<path d="M257.057 250.855C254.141 253.437 251.789 256.593 250.148 260.124C248.508 263.656 247.614 267.488 247.523 271.38" stroke="white" stroke-width="1.91" stroke-miterlimit="10"/>
<path d="M293.005 263.256C291.704 255.742 287.117 249.296 280.084 246.41C276.261 244.843 272.053 244.467 268.012 245.331" stroke="white" stroke-width="1.91" stroke-miterlimit="10"/>
<path d="M252.055 278.507C253.487 280.09 255.256 281.331 257.232 282.14C260.648 283.498 264.445 283.544 267.893 282.271C271.34 280.997 274.194 278.494 275.904 275.243" stroke="white" stroke-width="0.96" stroke-miterlimit="10"/>
<path d="M248.446 270.67C248.039 267.914 248.39 265.1 249.461 262.528C250.921 258.85 253.782 255.901 257.415 254.328C261.049 252.755 265.159 252.686 268.843 254.137C270.848 254.969 272.64 256.241 274.087 257.857C275.535 259.474 276.6 261.395 277.205 263.478" stroke="white" stroke-width="0.96" stroke-miterlimit="10"/>
<path d="M262.965 266.263C263.392 265.043 263.453 263.725 263.138 262.471C262.824 261.218 262.148 260.084 261.196 259.21C260.243 258.335 259.055 257.759 257.778 257.552C256.501 257.346 255.192 257.517 254.011 258.046C252.831 258.575 251.832 259.438 251.137 260.528C250.442 261.618 250.083 262.887 250.102 264.179C250.122 265.472 250.52 266.73 251.248 267.798C251.976 268.866 253.001 269.698 254.197 270.191C255.881 270.829 257.75 270.774 259.394 270.038C261.038 269.302 262.322 267.944 262.965 266.263Z" stroke="white" stroke-width="0.96" stroke-miterlimit="10"/>
<path d="M266.74 266.788C266.91 265.846 267.397 264.99 268.121 264.363C268.844 263.736 269.761 263.375 270.718 263.339L329.067 261.772C334.302 261.634 339.517 262.488 344.434 264.289L508.266 324.426C509.132 324.746 509.835 325.394 510.224 326.23C510.613 327.066 510.656 328.021 510.343 328.889L508.211 334.827C507.93 335.597 507.387 336.244 506.676 336.654C505.966 337.064 505.133 337.21 504.325 337.067L326.316 305.809C320.526 304.792 315.017 302.557 310.156 299.254L268.494 270.891C267.84 270.446 267.327 269.823 267.016 269.096C266.706 268.368 266.61 267.568 266.74 266.788V266.788Z" stroke="white" stroke-width="1.91" stroke-miterlimit="10"/>
<path d="M465.078 308.567L458.461 329" stroke="white" stroke-width="0.96" stroke-miterlimit="10"/>
<path d="M445.403 301.347L438.02 325.412" stroke="white" stroke-width="0.96" stroke-miterlimit="10"/>
<path d="M251.076 268.383L198.468 302.287C194.734 304.697 191.288 307.525 188.195 310.715L50.0945 453.017C49.8816 453.236 49.7382 453.513 49.6823 453.813C49.6265 454.113 49.6607 454.423 49.7807 454.704L52.1712 460.375C52.2652 460.597 52.4101 460.795 52.5943 460.952C52.7784 461.108 52.9967 461.22 53.2317 461.277C53.4667 461.334 53.7119 461.336 53.9476 461.282C54.1833 461.228 54.4031 461.119 54.5893 460.965L198.108 343.365C201.271 340.772 204.154 337.854 206.709 334.661L254.481 274.893" stroke="white" stroke-width="1.91" stroke-miterlimit="10"/>
<path d="M74.3398 428.029L80.9851 439.343" stroke="white" stroke-width="0.96" stroke-miterlimit="10"/>
<path d="M85.3438 416.688L92.9581 429.532" stroke="white" stroke-width="0.96" stroke-miterlimit="10"/>
<path d="M256.817 252.763C255.303 243.912 247.163 196.518 247.163 196.518C246.405 192.073 246.139 187.558 246.369 183.055L255.395 7.06166C255.418 6.64343 255.538 6.23629 255.747 5.87283C255.955 5.50938 256.246 5.1997 256.595 4.96858L262.29 1.21579C262.482 1.08998 262.704 1.01644 262.933 1.00245C263.162 0.988462 263.391 1.0345 263.597 1.13601C263.803 1.23752 263.979 1.391 264.108 1.58126C264.236 1.77152 264.313 1.99197 264.33 2.22083L277.057 172.203C277.402 176.778 277.229 181.378 276.54 185.914L266.388 253.058M257.084 254.165C257.084 254.165 257.001 253.667 256.845 252.754" stroke="white" stroke-width="1.91" stroke-miterlimit="10"/>
<path d="M251.336 267.821L257.677 282.269" stroke="white" stroke-width="0.96" stroke-miterlimit="10"/>
<path d="M273.293 447.696C273.293 447.696 296.201 432.943 327.415 443.907" stroke="white" stroke-width="0.96" stroke-miterlimit="10"/>
<path d="M275.738 415.895C275.738 415.895 295.074 402.147 326.288 413.128" stroke="white" stroke-width="0.96" stroke-miterlimit="10"/>
<path d="M141.281 936.536L150.511 531.235C150.511 531.235 160.599 531.917 172.006 524.688" stroke="white" stroke-width="1.91" stroke-miterlimit="10"/>
<path d="M194.813 949.842L179.391 527.989" stroke="white" stroke-width="1.91" stroke-miterlimit="10"/>
<path d="M178.818 945.6L170.336 525.694" stroke="white" stroke-width="0.96" stroke-miterlimit="10"/>
<path d="M150.501 531.226L135.965 518.566" stroke="white" stroke-width="1.91" stroke-miterlimit="10"/>
<path d="M131.664 512.785C132.339 514.483 133.345 516.03 134.623 517.336C135.902 518.642 137.428 519.68 139.112 520.392C145.573 523.056 153.04 520.235 157.248 514.048" stroke="white" stroke-width="1.91" stroke-miterlimit="10"/>
<path d="M180.047 545.896C180.047 545.896 182.04 547.74 190.707 548.874C199.373 550.008 203.517 543.904 205.151 539.838C205.985 537.611 206.3 535.224 206.074 532.858" stroke="white" stroke-width="1.91" stroke-miterlimit="10"/>
<path d="M153.547 490.655C153.547 490.655 162.416 494.961 172.089 500.014" stroke="white" stroke-width="1.91" stroke-miterlimit="10"/>
<path d="M136.704 492.666C134.793 494.354 133.25 496.417 132.172 498.727C131.094 501.036 130.504 503.543 130.438 506.091" stroke="white" stroke-width="1.91" stroke-miterlimit="10"/>
<path d="M160.223 500.798C159.876 498.389 158.919 496.108 157.443 494.171C155.967 492.235 154.02 490.707 151.787 489.733C149.285 488.708 146.532 488.46 143.887 489.023" stroke="white" stroke-width="1.91" stroke-miterlimit="10"/>
<path d="M133.438 510.747C134.37 511.786 135.524 512.603 136.815 513.135C139.05 514.023 141.534 514.052 143.789 513.218C146.044 512.384 147.91 510.745 149.026 508.617" stroke="white" stroke-width="0.96" stroke-miterlimit="10"/>
<path d="M131.036 505.629C130.771 503.825 131.004 501.982 131.71 500.3C132.178 499.104 132.877 498.012 133.768 497.086C134.659 496.16 135.724 495.419 136.902 494.906C138.08 494.392 139.347 494.115 140.633 494.091C141.918 494.068 143.195 494.297 144.391 494.767C145.7 495.315 146.871 496.148 147.816 497.206C148.762 498.263 149.458 499.519 149.855 500.881" stroke="white" stroke-width="0.96" stroke-miterlimit="10"/>
<path d="M140.563 502.744C140.842 501.946 140.881 501.083 140.675 500.263C140.469 499.443 140.027 498.702 139.404 498.13C138.78 497.558 138.003 497.182 137.167 497.047C136.332 496.912 135.475 497.025 134.703 497.372C133.931 497.718 133.278 498.283 132.824 498.997C132.37 499.71 132.135 500.541 132.149 501.386C132.163 502.232 132.424 503.054 132.901 503.753C133.378 504.451 134.049 504.995 134.832 505.316C135.933 505.733 137.155 505.696 138.23 505.214C139.304 504.732 140.143 503.843 140.563 502.744V502.744Z" stroke="white" stroke-width="0.96" stroke-miterlimit="10"/>
<path d="M143.037 503.094C143.064 502.917 143.111 502.744 143.175 502.577C143.366 502.075 143.702 501.641 144.141 501.33C144.58 501.02 145.102 500.847 145.64 500.835L183.84 499.802C187.271 499.711 190.688 500.272 193.91 501.452L301.055 540.788C301.336 540.89 301.594 541.048 301.815 541.25C302.035 541.453 302.213 541.697 302.339 541.968C302.465 542.24 302.536 542.533 302.549 542.832C302.561 543.131 302.515 543.43 302.411 543.71L301.009 547.574C300.825 548.079 300.469 548.504 300.003 548.772C299.537 549.04 298.991 549.135 298.461 549.04L181.994 528.607C178.206 527.947 174.603 526.485 171.427 524.32L144.154 505.777C143.731 505.482 143.401 505.073 143.203 504.598C143.006 504.123 142.948 503.601 143.037 503.094V503.094Z" stroke="white" stroke-width="1.91" stroke-miterlimit="10"/>
<path d="M272.758 530.415L268.43 543.775" stroke="white" stroke-width="0.96" stroke-miterlimit="10"/>
<path d="M259.882 525.694L255.055 541.442" stroke="white" stroke-width="0.96" stroke-miterlimit="10"/>
<path d="M132.791 504.127L98.3655 526.312C95.9169 527.891 93.6592 529.747 91.6372 531.844L1.34524 624.889C1.20539 625.033 1.11073 625.214 1.073 625.411C1.03527 625.607 1.05612 625.811 1.13297 625.996L2.70198 629.684C2.76388 629.83 2.85885 629.959 2.97943 630.062C3.1 630.165 3.24287 630.239 3.39678 630.277C3.55069 630.316 3.71143 630.318 3.86634 630.284C4.02125 630.25 4.16609 630.18 4.28945 630.08L98.1532 553.162C100.221 551.465 102.105 549.555 103.774 547.464L135.016 508.359" stroke="white" stroke-width="1.91" stroke-miterlimit="10"/>
<path d="M17.2031 608.541L21.5502 615.917" stroke="white" stroke-width="0.96" stroke-miterlimit="10"/>
<path d="M24.3906 601.127L29.3745 609.527" stroke="white" stroke-width="0.96" stroke-miterlimit="10"/>
<path d="M136.55 493.91C135.553 488.119 130.237 457.101 130.237 457.101C129.739 454.194 129.563 451.241 129.711 448.296L135.618 333.222C135.631 332.948 135.71 332.681 135.846 332.442C135.982 332.203 136.173 332 136.402 331.848L140.094 329.396C140.219 329.313 140.363 329.265 140.513 329.256C140.663 329.246 140.812 329.276 140.946 329.342C141.081 329.409 141.195 329.509 141.279 329.633C141.363 329.757 141.412 329.901 141.423 330.05L149.729 441.223C149.953 444.217 149.838 447.227 149.388 450.195L142.743 494.104M136.661 494.832L136.504 493.91" stroke="white" stroke-width="1.91" stroke-miterlimit="10"/>
<path d="M132.957 503.767L137.073 513.236" stroke="white" stroke-width="0.96" stroke-miterlimit="10"/>
<path d="M147.32 621.403C147.32 621.403 162.3 611.74 182.715 618.932" stroke="white" stroke-width="0.96" stroke-miterlimit="10"/>
<path d="M148.926 600.611C148.926 600.611 161.57 591.612 181.986 598.767" stroke="white" stroke-width="0.96" stroke-miterlimit="10"/>
</svg>
