<svg width="52" height="90" viewBox="0 0 52 90" fill="none" xmlns="http://www.w3.org/2000/svg">
<g clip-path="url(#clip0_194_2401)">
<path fill-rule="evenodd" clip-rule="evenodd" d="M9.46743 0.89447H42.9258C45.3074 0.897152 47.5907 1.84394 49.2748 3.52711C50.9589 5.21029 51.9061 7.49239 51.9088 9.87276V80.483C51.9088 82.8651 50.9627 85.1498 49.2784 86.8352C47.594 88.5206 45.3092 89.4688 42.9258 89.4714H9.46743C7.08404 89.4688 4.79919 88.5206 3.11484 86.8352C1.43048 85.1498 0.484373 82.8651 0.484375 80.483V9.87276C0.484375 7.49157 1.4308 5.2079 3.11545 3.52415C4.8001 1.84039 7.08498 0.89447 9.46743 0.89447V0.89447Z" fill="#19164C"/>
<path fill-rule="evenodd" clip-rule="evenodd" d="M2.63514 11.2509H49.7506V9.56876C49.7538 8.67288 49.5759 7.78557 49.2274 6.96015C48.879 6.13473 48.3672 5.38823 47.7228 4.76548C47.0945 4.12829 46.3466 3.62128 45.5219 3.2735C44.6972 2.92572 43.812 2.74401 42.9169 2.73878H9.45861C8.56251 2.73724 7.67526 2.91587 6.84964 3.26404C6.02403 3.61222 5.27692 4.12283 4.65278 4.76548C4.01345 5.39207 3.50499 6.13931 3.15689 6.96386C2.8088 7.7884 2.62801 8.67383 2.625 9.56876L2.63514 11.2509Z" fill="white"/>
<path fill-rule="evenodd" clip-rule="evenodd" d="M4.25781 11.2509H49.751V9.81193C49.7436 9.02669 49.5646 8.25255 49.2266 7.54365C48.8886 6.83476 48.3998 6.20822 47.7942 5.70786C46.5157 4.5685 44.8635 3.93751 43.1506 3.9345H10.8582C9.14358 3.92792 7.488 4.56018 6.21462 5.70786C5.61167 6.21047 5.12461 6.83748 4.78685 7.54587C4.44909 8.25426 4.26862 9.02729 4.25781 9.81193V11.2509Z" fill="#82CBAD"/>
<path d="M25.5053 8.61621C26.3172 8.61621 26.9754 7.95835 26.9754 7.14685C26.9754 6.33534 26.3172 5.67749 25.5053 5.67749C24.6934 5.67749 24.0352 6.33534 24.0352 7.14685C24.0352 7.95835 24.6934 8.61621 25.5053 8.61621Z" fill="#19164C"/>
<path fill-rule="evenodd" clip-rule="evenodd" d="M21.2604 83.4826C20.9727 83.5054 20.6877 83.4131 20.468 83.2259C20.2484 83.0387 20.1122 82.772 20.0894 82.4844C20.0665 82.1968 20.1589 81.912 20.3462 81.6925C20.5335 81.473 20.8003 81.3368 21.088 81.314C21.1451 81.3039 21.2034 81.3039 21.2604 81.314H31.1255C31.2695 81.3216 31.4105 81.3581 31.54 81.4213C31.6696 81.4845 31.7851 81.5731 31.8797 81.6818C31.9743 81.7905 32.0461 81.9172 32.0907 82.0542C32.1353 82.1912 32.1519 82.3358 32.1394 82.4793C32.1227 82.7426 32.0105 82.9908 31.8239 83.1773C31.6372 83.3638 31.389 83.476 31.1255 83.4927L21.2604 83.4826Z" fill="#19164C"/>
<path fill-rule="evenodd" clip-rule="evenodd" d="M23.1134 70.2583V75.9736H27.9496V70.2482H44.1414V75.9736H49.7482V14.0275H2.63281V75.9837H8.24976V70.2583H23.1134Z" fill="#82CBAD"/>
<path fill-rule="evenodd" clip-rule="evenodd" d="M8.3125 20.1481H46.1711V61.8678H8.3125V20.1481Z" fill="#19164C"/>
<path fill-rule="evenodd" clip-rule="evenodd" d="M25.8312 26.3296H29.5319V33.4838C29.5429 34.1732 29.4331 34.8591 29.2075 35.5105C28.9938 36.1283 28.6478 36.6921 28.1936 37.1623C27.782 37.6063 27.2762 37.9526 26.7133 38.1757C25.8791 38.4629 24.9997 38.5968 24.1177 38.5709C23.4761 38.5462 22.8363 38.4853 22.2015 38.3885C21.5992 38.331 21.012 38.1663 20.4677 37.9021C19.9835 37.6497 19.553 37.3055 19.2004 36.8887C18.8366 36.4928 18.5633 36.0225 18.3994 35.5105C18.1899 34.8545 18.0739 34.1722 18.0547 33.4838V26.3195H21.7757V33.6358C21.7536 33.9158 21.7899 34.1973 21.8824 34.4624C21.975 34.7276 22.1216 34.9706 22.313 35.1761C22.7352 35.5419 23.2752 35.7433 23.8339 35.7433C24.3926 35.7433 24.9325 35.5419 25.3547 35.1761C25.7095 34.7451 25.8806 34.1919 25.8312 33.6358V26.3296Z" fill="#82CBAD"/>
<path fill-rule="evenodd" clip-rule="evenodd" d="M32.1602 26.3195H35.8913V38.3378H32.1602V26.3195Z" fill="#82CBAD"/>
<path fill-rule="evenodd" clip-rule="evenodd" d="M22.2534 43.8403H25.8325V50.7919C25.842 51.4612 25.7322 52.1269 25.508 52.7578C25.2968 53.3559 24.9498 53.897 24.4941 54.3386C24.0958 54.7795 23.6039 55.1257 23.0544 55.3519C22.2419 55.6267 21.3874 55.7571 20.5298 55.737C19.9297 55.7339 19.3303 55.6933 18.7352 55.6154C18.1526 55.5631 17.5851 55.4016 17.0623 55.1391C16.5868 54.8868 16.1663 54.5423 15.8254 54.1258C15.4811 53.7439 15.2189 53.2956 15.0548 52.8084C14.8309 52.1654 14.7045 51.4925 14.6797 50.8121V43.8403H18.2689V50.9337C18.2525 51.2047 18.2907 51.4761 18.3812 51.732C18.4718 51.9879 18.6129 52.223 18.7961 52.4233C18.9913 52.6087 19.2225 52.752 19.4754 52.8443C19.7283 52.9367 19.9974 52.9762 20.2662 52.9604C20.5395 52.986 20.815 52.9541 21.0752 52.8668C21.3354 52.7796 21.5744 52.6389 21.7769 52.4538C21.9614 52.2522 22.1032 52.0154 22.1938 51.7577C22.2844 51.5 22.3219 51.2266 22.3041 50.954V43.8605L22.2534 43.8403Z" fill="#82CBAD"/>
<path fill-rule="evenodd" clip-rule="evenodd" d="M27.433 43.8403H31.4074L33.4758 47.4377L35.4833 43.8403H39.407L35.7773 49.4948L39.7517 55.5039H35.686L33.4048 51.7545L31.0931 55.5039H27.0781L31.1033 49.4238L27.433 43.8403Z" fill="#82CBAD"/>
<path d="M4.48823 14.0275H2.63281V75.9837H4.48823V14.0275Z" fill="white"/>
<path fill-rule="evenodd" clip-rule="evenodd" d="M21.2575 83.4116C21.113 83.4255 20.9673 83.41 20.829 83.3661C20.6907 83.3221 20.5628 83.2507 20.4529 83.156C20.343 83.0613 20.2534 82.9453 20.1896 82.8151C20.1257 82.6849 20.0889 82.5431 20.0813 82.3983C20.0703 82.2545 20.0878 82.1099 20.1328 81.9729C20.1779 81.8358 20.2495 81.7091 20.3438 81.5998C20.438 81.4906 20.5529 81.4011 20.6818 81.3363C20.8108 81.2716 20.9513 81.233 21.0952 81.2228H31.1327C31.4037 81.2489 31.6551 81.375 31.8381 81.5764C32.0211 81.7778 32.1225 82.0401 32.1225 82.3121C32.1225 82.5842 32.0211 82.8465 31.8381 83.0479C31.6551 83.2493 31.4037 83.3753 31.1327 83.4015L21.2575 83.4116Z" fill="#19164C"/>
<path fill-rule="evenodd" clip-rule="evenodd" d="M44.7199 78.7603H2.63336V80.4425C2.61142 82.2112 3.25147 83.9243 4.42794 85.2458C4.95977 85.8689 5.6181 86.3719 6.35927 86.7213C7.10043 87.0707 7.90747 87.2586 8.72683 87.2725H38.6061C39.4269 87.2665 40.2365 87.0822 40.9789 86.7322C41.7212 86.3822 42.3785 85.875 42.905 85.2458C44.0793 83.9222 44.7221 82.2113 44.7097 80.4425V78.7603H44.7199Z" fill="white"/>
<path fill-rule="evenodd" clip-rule="evenodd" d="M49.7473 78.7603H4.25409V80.4425C4.24091 82.2381 4.94102 83.9655 6.20076 85.2458C6.79846 85.8785 7.51783 86.3842 8.31575 86.7325C9.11367 87.0807 9.97372 87.2644 10.8444 87.2725H43.157C44.0286 87.2703 44.8905 87.0893 45.6892 86.7407C46.488 86.3921 47.2066 85.8832 47.8006 85.2458C49.0529 83.9598 49.7548 82.237 49.7574 80.4425V78.7603H49.7473Z" fill="#82CBAD"/>
</g>
<defs>
<clipPath id="clip0_194_2401">
<rect width="51.4244" height="88.577" fill="white" transform="translate(0.484375 0.89447)"/>
</clipPath>
</defs>
</svg>
