<svg width="140" height="36" viewBox="0 0 140 36" fill="none" xmlns="http://www.w3.org/2000/svg">
<path d="M0.710739 9.33987C0.60935 8.52919 1.11631 7.81975 1.92742 7.71841C2.02881 7.71841 2.23161 7.71841 2.333 7.71841H3.9552C4.76631 7.61708 5.476 8.12383 5.57739 8.93451C5.57739 9.03584 5.57739 9.23854 5.57739 9.33987V19.3719C5.57739 20.3853 5.78021 21.3987 6.18576 22.3107C6.69271 23.1214 7.70656 23.5267 8.61906 23.4253C10.2413 23.4253 11.7621 22.716 12.6746 21.3986C13.1816 20.7906 13.4857 20.0813 13.6885 19.2706C13.8913 18.46 14.0941 17.6493 14.0941 16.7373V9.33987C13.9927 8.52919 14.4997 7.81975 15.3108 7.71841C15.4122 7.71841 15.6149 7.71841 15.7163 7.71841H17.3385C18.1497 7.61708 18.8594 8.12383 18.9607 8.93451C18.9607 9.03584 18.9607 9.23854 18.9607 9.33987V25.8574C19.0621 26.6681 18.5552 27.3774 17.7441 27.4787C17.6427 27.4787 17.4399 27.4787 17.3385 27.4787H15.8177C15.0066 27.5801 14.2968 27.0735 14.1954 26.2628C14.1954 26.1614 14.1954 25.9587 14.1954 25.8574V24.3374C14.1954 24.1347 14.2969 23.932 14.2969 23.8307H14.1954C13.9927 24.3374 13.5871 24.8441 13.1816 25.3507C12.776 25.8574 12.2691 26.2628 11.6607 26.6681C11.0524 27.0735 10.3427 27.3775 9.73438 27.5802C8.92326 27.7829 8.21355 27.9854 7.40244 27.9854C5.57744 28.0868 3.75242 27.4788 2.43436 26.2628C1.2177 25.1481 0.609375 23.2228 0.609375 20.4867L0.710739 9.33987Z" fill="#1D1655"/>
<path d="M23.3214 9.33994C23.2201 8.52926 23.727 7.81981 24.5381 7.71848C24.6395 7.71848 24.8423 7.71848 24.9437 7.71848H26.4645C27.2757 7.61714 27.9854 8.12389 28.0867 8.93457C28.0867 9.03591 28.0867 9.2386 28.0867 9.33994V10.5559C28.0867 10.6572 28.0867 10.7586 28.0867 10.86C28.0867 10.9613 28.0867 11.0626 28.0867 11.1639C28.0867 11.2652 28.0867 11.3666 28.0867 11.4679H28.1882C28.3909 10.9613 28.6951 10.5559 29.1006 10.1505C29.5062 9.64387 30.0132 9.13727 30.5201 8.83326C31.1284 8.42792 31.8382 8.02258 32.5479 7.81991C33.359 7.5159 34.2715 7.41454 35.184 7.41454C37.009 7.31321 38.9353 7.92115 40.2534 9.2385C41.4701 10.4545 42.0784 12.38 42.0784 15.0147V26.0602C42.1798 26.8709 41.6729 27.5802 40.8618 27.6816C40.7604 27.6816 40.5576 27.6816 40.4562 27.6816H38.834C38.0229 27.7829 37.3131 27.2761 37.2117 26.4655C37.2117 26.3641 37.2117 26.1616 37.2117 26.0602V16.028C37.2117 15.0147 37.009 14.0013 36.6034 13.0893C36.0965 12.2786 35.0826 11.8733 34.1701 11.9746C33.359 11.9746 32.5479 12.1773 31.8381 12.4813C31.1284 12.7853 30.5201 13.292 30.0132 13.9C29.5062 14.508 29.1006 15.2174 28.8978 15.9267C28.5937 16.7374 28.4923 17.5481 28.4923 18.4601V26.0602C28.5937 26.8709 28.0868 27.5802 27.2756 27.6816C27.1743 27.6816 26.9714 27.6816 26.8701 27.6816H25.1465C24.3354 27.7829 23.6256 27.2761 23.5242 26.4655C23.5242 26.3641 23.5242 26.1616 23.5242 26.0602L23.3214 9.33994Z" fill="#1D1655"/>
<path d="M47.4515 4.37445C46.6404 4.47579 45.9307 3.96904 45.8293 3.15836C45.8293 3.05702 45.8293 2.85445 45.8293 2.75312V1.63833C45.7279 0.827653 46.2348 0.118332 47.0459 0.0169974C47.1473 0.0169974 47.3501 0.0169974 47.4515 0.0169974H49.1751C49.9862 -0.0843376 50.696 0.422412 50.7973 1.23309C50.7973 1.33443 50.7973 1.537 50.7973 1.63833V2.75312C50.8987 3.5638 50.3918 4.27312 49.5807 4.37445C49.4793 4.37445 49.2765 4.37445 49.1751 4.37445H47.4515ZM45.9307 9.3399C45.8293 8.52921 46.3362 7.81977 47.1473 7.71844C47.2487 7.71844 47.4515 7.71844 47.5529 7.71844H49.2765C50.0876 7.6171 50.7973 8.12385 50.8987 8.93453C50.8987 9.03587 50.8987 9.23856 50.8987 9.3399V25.8574C51.0001 26.6681 50.4931 27.3774 49.682 27.4788C49.5806 27.4788 49.3779 27.4788 49.2765 27.4788H47.5529C46.7418 27.5801 46.0321 27.0735 45.9307 26.2628C45.9307 26.1615 45.9307 25.9588 45.9307 25.8574V9.3399Z" fill="#1D1655"/>
<path d="M54.9543 1.63833C54.8529 0.827653 55.3598 0.118332 56.1709 0.0169974C56.2723 0.0169974 56.4751 0.0169974 56.5765 0.0169974H58.3001C59.1112 -0.0843376 59.821 0.422412 59.9223 1.23309C59.9223 1.33443 59.9223 1.537 59.9223 1.63833V20.9934C59.9223 21.3988 59.9223 21.8041 60.0237 22.2094C60.1251 22.5134 60.2265 22.716 60.4293 22.9187C60.5307 23.1214 60.7335 23.2227 60.9362 23.2227C61.139 23.3241 61.3418 23.3241 61.4432 23.3241C61.7473 23.3241 62.0515 23.5268 62.3556 23.7294C62.5584 24.0334 62.7612 24.3374 62.6599 24.7428V26.0602C62.6599 26.4655 62.5584 26.9721 62.2543 27.2761C61.9501 27.5802 61.4432 27.7828 61.0376 27.6815C60.3279 27.6815 59.6182 27.5801 59.0098 27.4788C57.489 27.1748 56.1709 26.1615 55.664 24.7428C55.2584 23.6281 55.0557 22.5134 55.0557 21.3987L54.9543 1.63833Z" fill="#1D1655"/>
<path d="M66.6116 4.37445C65.8005 4.47579 65.0908 3.96904 64.9894 3.15836C64.9894 3.05702 64.9894 2.85445 64.9894 2.75312V1.63833C64.888 0.827653 65.395 0.118332 66.2061 0.0169974C66.3075 0.0169974 66.5102 0.0169974 66.6116 0.0169974H68.3352C69.1463 -0.0843376 69.856 0.422412 69.9574 1.23309C69.9574 1.33443 69.9574 1.537 69.9574 1.63833V2.75312C70.0588 3.5638 69.5519 4.27312 68.7408 4.37445C68.6394 4.37445 68.4366 4.37445 68.3352 4.37445H66.6116ZM65.0908 9.3399C64.9894 8.52921 65.4963 7.81977 66.3075 7.71844C66.4088 7.71844 66.6117 7.71844 66.713 7.71844H68.4366C69.2477 7.6171 69.9575 8.12385 70.0589 8.93453C70.0589 9.03587 70.0589 9.23856 70.0589 9.3399V25.8574C70.1603 26.6681 69.6533 27.3774 68.8422 27.4788C68.7408 27.4788 68.538 27.4788 68.4366 27.4788H66.713C65.9019 27.5801 65.1922 27.0735 65.0908 26.2628C65.0908 26.1615 65.0908 25.9588 65.0908 25.8574V9.3399Z" fill="#1D1655"/>
<path d="M74.1144 9.33994C74.013 8.52926 74.52 7.81981 75.3311 7.71848C75.4325 7.71848 75.6352 7.71848 75.7366 7.71848H77.2574C78.0686 7.61714 78.7783 8.12389 78.8797 8.93457C78.8797 9.03591 78.8797 9.2386 78.8797 9.33994V10.5559C78.8797 10.6572 78.8797 10.7586 78.8797 10.86C78.8797 10.9613 78.8797 11.0626 78.8797 11.1639C78.8797 11.2652 78.8797 11.3666 78.8797 11.4679H78.9811C79.1838 10.9613 79.488 10.5559 79.8936 10.1505C80.2992 9.64387 80.8061 9.13727 81.313 8.83326C81.9213 8.42792 82.6311 8.02258 83.3408 7.81991C84.1519 7.5159 85.0644 7.41454 85.9769 7.41454C87.8019 7.31321 89.7283 7.92115 91.0464 9.2385C92.263 10.4545 92.8714 12.38 92.8714 15.0147V26.0602C92.9727 26.8709 92.4658 27.5802 91.6547 27.6816C91.5533 27.6816 91.3505 27.6816 91.2491 27.6816H89.6269C88.8158 27.7829 88.1061 27.2761 88.0047 26.4655C88.0047 26.3641 88.0047 26.1616 88.0047 26.0602V16.028C88.0047 15.0147 87.8019 14.0013 87.3963 13.0893C86.8894 12.2786 85.8755 11.8733 84.963 11.9746C84.1519 11.9746 83.3408 12.1773 82.631 12.4813C81.9213 12.7853 81.313 13.292 80.8061 13.9C80.2991 14.508 79.8936 15.2174 79.6908 15.9267C79.3866 16.7374 79.2852 17.5481 79.2852 18.4601V26.0602C79.3866 26.8709 78.8797 27.5802 78.0685 27.6816C77.9672 27.6816 77.7644 27.6816 77.663 27.6816H75.9394C75.1283 27.7829 74.4186 27.2761 74.3172 26.4655C74.3172 26.3641 74.3172 26.1616 74.3172 26.0602L74.1144 9.33994Z" fill="#1D1655"/>
<path d="M98.4481 31.5322C98.5495 31.1269 98.8536 30.823 99.2592 30.6203C99.6647 30.519 100.07 30.5189 100.476 30.7216C100.983 30.9243 101.591 31.1269 102.098 31.2283C102.909 31.4309 103.619 31.4309 104.43 31.4309C105.14 31.4309 105.849 31.3296 106.559 31.2283C107.168 31.1269 107.776 30.8229 108.384 30.4175C108.891 30.0122 109.297 29.5055 109.601 28.8975C109.905 28.1882 110.108 27.4789 110.006 26.6682V24.8441C110.006 24.7428 110.006 24.6415 110.006 24.5402C110.006 24.4389 110.006 24.3375 110.006 24.2361H109.905C109.398 25.1481 108.688 25.8575 107.776 26.3641C106.762 26.8708 105.647 27.1749 104.531 27.1749C103.213 27.1749 101.895 26.9722 100.679 26.3641C99.5634 25.8575 98.6508 25.1481 97.8397 24.2361C97.0286 23.3241 96.5217 22.2095 96.1161 21.0948C95.305 18.5614 95.305 15.9267 96.1161 13.3933C96.4203 12.2786 97.0286 11.1639 97.8397 10.2518C98.6508 9.33983 99.5633 8.63051 100.577 8.12384C101.794 7.61716 103.112 7.31323 104.43 7.31323C105.444 7.31323 106.356 7.41457 107.269 7.81991C107.877 8.12391 108.486 8.42792 109.094 8.83326C109.601 9.2386 110.006 9.74527 110.311 10.3533H110.412V10.2518V9.13719C110.412 8.83318 110.513 8.42782 110.818 8.22515C111.122 7.92114 111.527 7.81991 112.034 7.81991H113.352C114.163 7.71857 114.873 8.2252 114.974 9.03588C114.974 9.13721 114.974 9.33991 114.974 9.44124V26.3641C114.974 27.8842 114.67 29.3029 114.062 30.7216C113.454 31.8363 112.642 32.8496 111.73 33.5589C110.716 34.2683 109.601 34.8764 108.486 35.1804C107.269 35.4844 106.052 35.687 104.836 35.687C103.72 35.687 102.706 35.5857 101.591 35.383C100.679 35.1803 99.8675 34.9777 99.0564 34.6737C98.3467 34.471 97.8397 33.6603 98.0425 32.9509C98.0425 32.8496 98.1439 32.7482 98.2453 32.5456L98.4481 31.5322ZM105.647 22.9187C106.255 22.9187 106.762 22.8175 107.37 22.6148C107.979 22.4121 108.486 22.1081 108.891 21.7028C109.398 21.1961 109.702 20.588 109.905 19.8787C110.209 18.9667 110.311 18.0547 110.311 17.1427C110.311 16.2307 110.209 15.2173 109.905 14.3053C109.702 13.6972 109.297 13.0893 108.891 12.5826C108.486 12.1773 107.979 11.8732 107.37 11.6706C106.762 11.4679 106.154 11.3666 105.545 11.4679C104.227 11.3666 102.909 11.9746 101.997 12.988C101.186 14.1027 100.679 15.5214 100.78 16.9401C100.679 18.4601 101.186 20.0814 102.098 21.2974C102.808 22.4121 104.227 23.0201 105.647 22.9187Z" fill="#1D1655"/>
<path d="M138.802 13.3933C138.295 12.1772 137.484 11.0625 136.47 10.1505C135.457 9.23846 134.24 8.52914 133.023 8.02246C130.286 7.00911 127.345 7.00911 124.608 8.02246C123.29 8.52914 122.175 9.23846 121.161 10.1505C120.147 11.0625 119.336 12.1772 118.829 13.3933C117.105 17.3453 118.018 22.0067 121.161 25.0468C122.175 25.9588 123.29 26.6681 124.608 27.1748C127.345 28.1882 130.286 28.1882 133.023 27.1748C134.341 26.6681 135.457 25.9588 136.47 25.0468C137.484 24.1348 138.295 23.02 138.802 21.804C139.918 19.068 139.918 16.1293 138.802 13.3933ZM133.125 18.2573C131.198 19.5746 129.373 20.892 127.447 22.2094C127.244 22.412 126.838 22.5133 126.534 22.412C126.23 22.3107 125.926 21.9054 126.027 21.6014C126.027 20.284 126.027 19.068 126.027 17.7506V17.548C126.027 16.2306 126.027 14.9133 126.027 13.4946C126.027 13.0892 126.331 12.6839 126.737 12.6839H126.838C127.041 12.6839 127.143 12.7852 127.345 12.7852C129.272 14.1025 131.198 15.5212 133.125 16.8386C133.53 17.0412 133.632 17.548 133.429 17.9533C133.327 18.156 133.226 18.2573 133.125 18.2573Z" fill="#1D1655"/>
</svg>
