<svg width="140" height="37" viewBox="0 0 140 37" fill="none" xmlns="http://www.w3.org/2000/svg">
<path d="M0.769333 9.94989C0.667944 9.13921 1.1749 8.42976 1.98601 8.32843C2.0874 8.32843 2.2902 8.32843 2.39159 8.32843H4.01379C4.8249 8.22709 5.5346 8.73384 5.63599 9.54452C5.63599 9.64586 5.63599 9.84855 5.63599 9.94989V19.982C5.63599 20.9953 5.8388 22.0087 6.24436 22.9207C6.7513 23.7314 7.76515 24.1367 8.67765 24.0354C10.2999 24.0354 11.8207 23.326 12.7332 22.0087C13.2402 21.4007 13.5443 20.6913 13.7471 19.8806C13.9499 19.07 14.1527 18.2593 14.1527 17.3473V9.94989C14.0513 9.13921 14.5582 8.42976 15.3694 8.32843C15.4707 8.32843 15.6735 8.32843 15.7749 8.32843H17.3971C18.2082 8.22709 18.9179 8.73384 19.0193 9.54452C19.0193 9.64586 19.0193 9.84855 19.0193 9.94989V26.4674C19.1207 27.2781 18.6138 27.9874 17.8027 28.0888C17.7013 28.0888 17.4985 28.0888 17.3971 28.0888H15.8763C15.0652 28.1901 14.3554 27.6835 14.254 26.8728C14.254 26.7715 14.254 26.5688 14.254 26.4674V24.9474C14.254 24.7447 14.3555 24.5421 14.3555 24.4407H14.254C14.0513 24.9474 13.6457 25.4541 13.2402 25.9608C12.8346 26.4674 12.3277 26.8728 11.7193 27.2782C11.111 27.6835 10.4013 27.9875 9.79297 28.1902C8.98186 28.3929 8.27215 28.5954 7.46104 28.5954C5.63604 28.6968 3.81101 28.0888 2.49296 26.8728C1.27629 25.7581 0.667969 23.8328 0.667969 21.0967L0.769333 9.94989Z" fill="#808080"/>
<path d="M23.38 9.94986C23.2787 9.13918 23.7856 8.42974 24.5967 8.3284C24.6981 8.3284 24.9009 8.3284 25.0023 8.3284H26.5231C27.3342 8.22707 28.0439 8.73381 28.1453 9.54449C28.1453 9.64583 28.1453 9.84852 28.1453 9.94986V11.1658C28.1453 11.2672 28.1453 11.3686 28.1453 11.4699C28.1453 11.5712 28.1453 11.6725 28.1453 11.7738C28.1453 11.8752 28.1453 11.9765 28.1453 12.0779H28.2468C28.4495 11.5712 28.7537 11.1658 29.1592 10.7605C29.5648 10.2538 30.0717 9.74719 30.5787 9.44318C31.187 9.03784 31.8967 8.6325 32.6065 8.42983C33.4176 8.12583 34.3301 8.02447 35.2426 8.02447C37.0676 7.92313 38.9939 8.53107 40.312 9.84843C41.5287 11.0644 42.137 12.9899 42.137 15.6246V26.6701C42.2384 27.4808 41.7315 28.1901 40.9204 28.2915C40.819 28.2915 40.6162 28.2915 40.5148 28.2915H38.8926C38.0815 28.3928 37.3717 27.8861 37.2703 27.0754C37.2703 26.974 37.2703 26.7715 37.2703 26.6701V16.6379C37.2703 15.6246 37.0676 14.6112 36.662 13.6992C36.1551 12.8885 35.1412 12.4832 34.2287 12.5845C33.4176 12.5845 32.6065 12.7872 31.8967 13.0912C31.187 13.3952 30.5787 13.9019 30.0717 14.5099C29.5648 15.1179 29.1592 15.8273 28.9564 16.5366C28.6523 17.3473 28.5509 18.158 28.5509 19.07V26.6701C28.6523 27.4808 28.1453 28.1901 27.3342 28.2915C27.2328 28.2915 27.03 28.2915 26.9287 28.2915H25.2051C24.394 28.3928 23.6842 27.8861 23.5828 27.0754C23.5828 26.974 23.5828 26.7715 23.5828 26.6701L23.38 9.94986Z" fill="#808080"/>
<path d="M47.5101 4.98444C46.699 5.08577 45.9892 4.57902 45.8879 3.76834C45.8879 3.66701 45.8879 3.46444 45.8879 3.3631V2.24832C45.7865 1.43764 46.2934 0.728318 47.1045 0.626983C47.2059 0.626983 47.4087 0.626983 47.5101 0.626983H49.2337C50.0448 0.525648 50.7545 1.0324 50.8559 1.84308C50.8559 1.94441 50.8559 2.14698 50.8559 2.24832V3.3631C50.9573 4.17378 50.4504 4.8831 49.6393 4.98444C49.5379 4.98444 49.3351 4.98444 49.2337 4.98444H47.5101ZM45.9893 9.94988C45.8879 9.1392 46.3948 8.42976 47.2059 8.32842C47.3073 8.32842 47.5101 8.32842 47.6115 8.32842H49.3351C50.1462 8.22709 50.8559 8.73384 50.9573 9.54452C50.9573 9.64585 50.9573 9.84855 50.9573 9.94988V26.4674C51.0587 27.2781 50.5517 27.9874 49.7406 28.0888C49.6392 28.0888 49.4365 28.0888 49.3351 28.0888H47.6115C46.8004 28.1901 46.0907 27.6835 45.9893 26.8728C45.9893 26.7714 45.9893 26.5688 45.9893 26.4674V9.94988Z" fill="#808080"/>
<path d="M55.0129 2.24832C54.9115 1.43764 55.4184 0.728318 56.2295 0.626983C56.3309 0.626983 56.5337 0.626983 56.6351 0.626983H58.3587C59.1698 0.525648 59.8795 1.0324 59.9809 1.84308C59.9809 1.94441 59.9809 2.14698 59.9809 2.24832V21.6034C59.9809 22.0088 59.9809 22.414 60.0823 22.8194C60.1837 23.1234 60.2851 23.326 60.4879 23.5287C60.5893 23.7313 60.792 23.8327 60.9948 23.8327C61.1976 23.9341 61.4004 23.934 61.5018 23.934C61.8059 23.934 62.1101 24.1367 62.4142 24.3394C62.617 24.6434 62.8198 24.9474 62.7184 25.3528V26.6702C62.7184 27.0755 62.617 27.5821 62.3129 27.8861C62.0087 28.1901 61.5017 28.3928 61.0962 28.2915C60.3865 28.2915 59.6767 28.1901 59.0684 28.0888C57.5476 27.7847 56.2295 26.7714 55.7226 25.3528C55.317 24.2381 55.1143 23.1233 55.1143 22.0087L55.0129 2.24832Z" fill="#808080"/>
<path d="M66.6702 4.98444C65.8591 5.08577 65.1494 4.57902 65.048 3.76834C65.048 3.66701 65.048 3.46444 65.048 3.3631V2.24832C64.9466 1.43764 65.4536 0.728318 66.2647 0.626983C66.3661 0.626983 66.5688 0.626983 66.6702 0.626983H68.3938C69.2049 0.525648 69.9146 1.0324 70.016 1.84308C70.016 1.94441 70.016 2.14698 70.016 2.24832V3.3631C70.1174 4.17378 69.6105 4.8831 68.7994 4.98444C68.698 4.98444 68.4952 4.98444 68.3938 4.98444H66.6702ZM65.1494 9.94988C65.048 9.1392 65.5549 8.42976 66.3661 8.32842C66.4674 8.32842 66.6702 8.32842 66.7716 8.32842H68.4952C69.3063 8.22709 70.0161 8.73384 70.1175 9.54452C70.1175 9.64585 70.1175 9.84855 70.1175 9.94988V26.4674C70.2188 27.2781 69.7119 27.9874 68.9008 28.0888C68.7994 28.0888 68.5966 28.0888 68.4952 28.0888H66.7716C65.9605 28.1901 65.2508 27.6835 65.1494 26.8728C65.1494 26.7714 65.1494 26.5688 65.1494 26.4674V9.94988Z" fill="#808080"/>
<path d="M74.173 9.94986C74.0716 9.13918 74.5786 8.42974 75.3897 8.3284C75.4911 8.3284 75.6938 8.3284 75.7952 8.3284H77.316C78.1272 8.22707 78.8369 8.73381 78.9383 9.54449C78.9383 9.64583 78.9383 9.84852 78.9383 9.94986V11.1658C78.9383 11.2672 78.9383 11.3686 78.9383 11.4699C78.9383 11.5712 78.9383 11.6725 78.9383 11.7738C78.9383 11.8752 78.9383 11.9765 78.9383 12.0779H79.0397C79.2424 11.5712 79.5466 11.1658 79.9522 10.7605C80.3577 10.2538 80.8647 9.74719 81.3716 9.44318C81.9799 9.03784 82.6897 8.6325 83.3994 8.42983C84.2105 8.12583 85.123 8.02447 86.0355 8.02447C87.8605 7.92313 89.7869 8.53107 91.105 9.84843C92.3216 11.0644 92.93 12.9899 92.93 15.6246V26.6701C93.0313 27.4808 92.5244 28.1901 91.7133 28.2915C91.6119 28.2915 91.4091 28.2915 91.3077 28.2915H89.6855C88.8744 28.3928 88.1647 27.8861 88.0633 27.0754C88.0633 26.974 88.0633 26.7715 88.0633 26.6701V16.6379C88.0633 15.6246 87.8605 14.6112 87.4549 13.6992C86.948 12.8885 85.9341 12.4832 85.0216 12.5845C84.2105 12.5845 83.3994 12.7872 82.6896 13.0912C81.9799 13.3952 81.3716 13.9019 80.8647 14.5099C80.3577 15.1179 79.9522 15.8273 79.7494 16.5366C79.4452 17.3473 79.3438 18.158 79.3438 19.07V26.6701C79.4452 27.4808 78.9383 28.1901 78.1271 28.2915C78.0258 28.2915 77.823 28.2915 77.7216 28.2915H75.998C75.1869 28.3928 74.4772 27.8861 74.3758 27.0754C74.3758 26.974 74.3758 26.7715 74.3758 26.6701L74.173 9.94986Z" fill="#808080"/>
<path d="M98.5067 32.1422C98.6081 31.7368 98.9122 31.4329 99.3178 31.2302C99.7233 31.1289 100.129 31.1289 100.534 31.3316C101.041 31.5342 101.65 31.7369 102.157 31.8382C102.968 32.0409 103.677 32.0409 104.489 32.0409C105.198 32.0409 105.908 31.9396 106.618 31.8382C107.226 31.7369 107.834 31.4328 108.443 31.0275C108.95 30.6222 109.355 30.1155 109.659 29.5075C109.964 28.7981 110.166 28.0888 110.065 27.2782V25.4541C110.065 25.3527 110.065 25.2515 110.065 25.1501C110.065 25.0488 110.065 24.9474 110.065 24.8461H109.964C109.457 25.7581 108.747 26.4674 107.834 26.9741C106.821 27.4808 105.705 27.7848 104.59 27.7848C103.272 27.7848 101.954 27.5821 100.737 26.9741C99.622 26.4674 98.7094 25.7581 97.8983 24.8461C97.0872 23.9341 96.5803 22.8194 96.1747 21.7047C95.3636 19.1714 95.3636 16.5367 96.1747 14.0033C96.4789 12.8886 97.0872 11.7738 97.8983 10.8618C98.7094 9.94979 99.6219 9.24047 100.636 8.73379C101.852 8.22712 103.171 7.92319 104.489 7.92319C105.502 7.92319 106.415 8.02452 107.328 8.42986C107.936 8.73387 108.544 9.03787 109.153 9.44321C109.659 9.84855 110.065 10.3552 110.369 10.9632H110.471V10.8618V9.74714C110.471 9.44314 110.572 9.03777 110.876 8.8351C111.18 8.5311 111.586 8.42986 112.093 8.42986H113.411C114.222 8.32853 114.932 8.83515 115.033 9.64583C115.033 9.74717 115.033 9.94986 115.033 10.0512V26.9741C115.033 28.4941 114.729 29.9129 114.121 31.3316C113.512 32.4462 112.701 33.4595 111.789 34.1689C110.775 34.8782 109.659 35.4863 108.544 35.7903C107.327 36.0943 106.111 36.297 104.894 36.297C103.779 36.297 102.765 36.1956 101.65 35.9929C100.737 35.7903 99.9261 35.5877 99.115 35.2836C98.4053 35.081 97.8983 34.2702 98.1011 33.5609C98.1011 33.4595 98.2025 33.3582 98.3039 33.1555L98.5067 32.1422ZM105.705 23.5287C106.314 23.5287 106.821 23.4274 107.429 23.2248C108.037 23.0221 108.544 22.7181 108.95 22.3127C109.457 21.806 109.761 21.198 109.964 20.4886C110.268 19.5766 110.369 18.6647 110.369 17.7526C110.369 16.8406 110.268 15.8272 109.964 14.9152C109.761 14.3072 109.355 13.6992 108.95 13.1926C108.544 12.7872 108.037 12.4832 107.429 12.2805C106.821 12.0778 106.212 11.9766 105.604 12.0779C104.286 11.9766 102.968 12.5846 102.055 13.5979C101.244 14.7126 100.737 16.1313 100.839 17.55C100.737 19.07 101.244 20.6913 102.157 21.9073C102.866 23.022 104.286 23.63 105.705 23.5287Z" fill="#808080"/>
<path d="M138.861 14.0033C138.354 12.7873 137.543 11.6725 136.529 10.7605C135.515 9.84848 134.298 9.13916 133.082 8.63248C130.344 7.61913 127.404 7.61913 124.666 8.63248C123.348 9.13916 122.233 9.84848 121.219 10.7605C120.205 11.6725 119.394 12.7873 118.887 14.0033C117.164 17.9554 118.076 22.6168 121.219 25.6568C122.233 26.5688 123.348 27.2782 124.666 27.7848C127.404 28.7982 130.344 28.7982 133.082 27.7848C134.4 27.2782 135.515 26.5688 136.529 25.6568C137.543 24.7448 138.354 23.63 138.861 22.414C139.976 19.678 139.976 16.7393 138.861 14.0033ZM133.183 18.8673C131.257 20.1846 129.432 21.502 127.505 22.8194C127.303 23.0221 126.897 23.1233 126.593 23.022C126.289 22.9207 125.985 22.5154 126.086 22.2114C126.086 20.894 126.086 19.678 126.086 18.3606V18.158C126.086 16.8406 126.086 15.5233 126.086 14.1046C126.086 13.6993 126.39 13.2939 126.796 13.2939H126.897C127.1 13.2939 127.201 13.3952 127.404 13.3952C129.33 14.7125 131.257 16.1312 133.183 17.4486C133.589 17.6512 133.69 18.158 133.487 18.5634C133.386 18.766 133.285 18.8673 133.183 18.8673Z" fill="#808080"/>
</svg>
