<svg width="136" height="35" viewBox="0 0 136 35" fill="none" xmlns="http://www.w3.org/2000/svg">
<path d="M0.231605 9.26846C0.130216 8.45778 0.637173 7.8498 1.44828 7.64713C1.54967 7.64713 1.75241 7.64713 1.8538 7.64713H3.47606C4.28717 7.54579 4.89548 8.05242 5.09826 8.8631C5.09826 8.96443 5.09826 9.16713 5.09826 9.26846V18.9966C5.09826 20.01 5.30101 20.922 5.70657 21.834C6.21351 22.6447 7.12606 23.05 8.03856 22.9487C9.5594 22.9487 11.0802 22.2393 11.9927 21.0233C12.4996 20.4153 12.8038 19.7059 13.0066 18.9966C13.2094 18.1859 13.4122 17.3752 13.4122 16.5645V9.36977C13.3108 8.55909 13.8177 7.95111 14.6288 7.74844C14.7302 7.74844 14.933 7.74844 15.0344 7.74844H16.6566C17.4677 7.6471 18.076 8.15373 18.2788 8.96441C18.2788 9.06574 18.2788 9.26844 18.2788 9.36977V25.3808C18.3802 26.1914 17.8732 26.7994 17.0621 27.0021C16.9607 27.0021 16.758 27.0021 16.6566 27.0021H15.2371C14.5274 27.1034 13.8177 26.5967 13.7163 25.786C13.7163 25.6847 13.7163 25.4821 13.7163 25.3808V23.962C13.7163 23.7594 13.7163 23.658 13.8177 23.4554H13.7163C13.5135 23.962 13.108 24.4687 12.8038 24.8741C12.3982 25.3808 11.8913 25.786 11.283 26.1914C10.6746 26.5967 10.0663 26.9007 9.35661 27.1034C8.64688 27.3061 7.83578 27.5088 7.02467 27.5088C5.19967 27.6101 3.47601 27.002 2.15796 25.786C0.94129 24.6713 0.332969 22.7459 0.332969 20.2126L0.231605 9.26846Z" fill="#1D1655"/>
<path d="M22.2342 9.26855C22.1328 8.55921 22.6398 7.84989 23.3495 7.64722C23.4509 7.64722 23.6537 7.64722 23.7551 7.64722H25.1745C25.8842 7.54588 26.5939 8.05251 26.6953 8.86319C26.6953 8.96452 26.6953 9.16722 26.6953 9.26855V10.3832C26.6953 10.4845 26.6953 10.5859 26.6953 10.6873C26.6953 10.7886 26.6953 10.8899 26.6953 10.9912C26.6953 11.0925 26.6953 11.1939 26.6953 11.2953H26.7967C26.9995 10.7886 27.3036 10.3832 27.7092 9.97785C28.1148 9.47117 28.6217 9.06591 29.1287 8.66057C29.737 8.25523 30.3453 7.84989 31.055 7.64722C31.8661 7.34321 32.7787 7.24185 33.6912 7.24185C35.5162 7.14052 37.2397 7.74848 38.6592 8.9645C39.7745 10.0792 40.3828 12.0045 40.3828 14.5379V25.2794C40.4842 26.0901 39.9772 26.7995 39.1661 26.9009C39.0647 26.9009 38.862 26.9009 38.7606 26.9009H37.037C36.2259 27.0022 35.5162 26.4955 35.4148 25.6848C35.4148 25.5834 35.4148 25.3807 35.4148 25.2794V15.5513C35.4148 14.5379 35.212 13.626 34.8064 12.714C34.2995 11.9033 33.387 11.4978 32.3731 11.5992C31.562 11.5992 30.7509 11.8019 30.0411 12.1059C29.3314 12.4099 28.8245 12.9166 28.3176 13.4233C27.8106 14.0313 27.405 14.7406 27.2023 15.45C26.8981 16.2606 26.7967 17.0714 26.7967 17.882V25.2794C26.8981 25.9888 26.3911 26.6982 25.6814 26.9009C25.58 26.9009 25.3773 26.9009 25.2759 26.9009H23.6536C22.9439 27.0022 22.2342 26.4955 22.1328 25.6848C22.1328 25.5834 22.1328 25.3807 22.1328 25.2794V9.26855H22.2342Z" fill="#1D1655"/>
<path d="M45.7564 4.40437C45.0467 4.5057 44.337 3.99905 44.2356 3.28971C44.2356 3.18837 44.2356 2.98568 44.2356 2.88434V1.76968C44.1342 1.06034 44.6412 0.351018 45.3509 0.148348C45.4523 0.148348 45.655 0.148348 45.7564 0.148348H47.3787C48.1898 0.0470126 48.7981 0.553638 49.0009 1.36432C49.0009 1.46565 49.0009 1.66835 49.0009 1.76968V2.88434C49.1023 3.59369 48.5953 4.30303 47.7842 4.40437C47.6828 4.40437 47.4801 4.40437 47.3787 4.40437H45.7564ZM44.2356 9.2685C44.1342 8.55916 44.6412 7.84983 45.3509 7.64716C45.4523 7.64716 45.655 7.64716 45.7564 7.64716H47.3787C48.0884 7.54583 48.7981 8.05246 48.8995 8.86314C48.8995 8.96447 48.8995 9.16717 48.8995 9.2685V25.2794C49.0009 25.9887 48.4939 26.6982 47.7842 26.9008C47.6828 26.9008 47.4801 26.9008 47.3787 26.9008H45.7564C45.0467 27.0022 44.337 26.4954 44.2356 25.6847C44.2356 25.5834 44.2356 25.3807 44.2356 25.2794V9.2685Z" fill="#1D1655"/>
<path d="M52.9554 1.66837C52.854 0.95902 53.3609 0.249699 54.0706 0.0470293C54.172 0.0470293 54.3748 0.0470293 54.4762 0.0470293H56.0984C56.8081 -0.0543058 57.5179 0.45232 57.6193 1.263C57.6193 1.36434 57.6193 1.56703 57.6193 1.66837V20.4153C57.6193 20.8207 57.6193 21.226 57.7207 21.53C57.8221 21.7327 57.9234 22.0366 58.1262 22.2393C58.2276 22.3406 58.4304 22.5434 58.6331 22.5434C58.8359 22.6447 58.9373 22.6447 59.1401 22.6447C59.4443 22.6447 59.7484 22.8474 59.9512 23.05C60.154 23.354 60.2554 23.6581 60.2554 23.9621V25.2794C60.2554 25.6847 60.154 26.0901 59.8498 26.4954C59.5457 26.7995 59.0387 27.0021 58.6331 26.9008C57.9234 26.9008 57.3151 26.7994 56.6054 26.6981C55.0845 26.3941 53.8679 25.3808 53.3609 23.9621C52.9554 22.9487 52.7526 21.834 52.854 20.7193L52.9554 1.66837Z" fill="#1D1655"/>
<path d="M64.4125 4.40437C63.7027 4.5057 62.993 3.99905 62.8916 3.28971C62.8916 3.18837 62.8916 2.98568 62.8916 2.88434V1.76968C62.7902 1.06034 63.2972 0.351018 64.0069 0.148348C64.1083 0.148348 64.3111 0.148348 64.4125 0.148348H66.0347C66.8458 0.0470126 67.4541 0.553638 67.6569 1.36432C67.6569 1.46565 67.6569 1.66835 67.6569 1.76968V2.88434C67.7583 3.59369 67.2513 4.30303 66.4402 4.40437C66.3388 4.40437 66.136 4.40437 66.0347 4.40437H64.4125ZM62.7903 9.2685C62.6889 8.55916 63.1958 7.84983 63.9055 7.64716C64.0069 7.64716 64.2097 7.64716 64.3111 7.64716H65.9333C66.643 7.54583 67.3527 8.05246 67.4541 8.86314C67.4541 8.96447 67.4541 9.16717 67.4541 9.2685V25.2794C67.5555 25.9887 67.0486 26.6982 66.3389 26.9008C66.2375 26.9008 66.0347 26.9008 65.9333 26.9008H64.4125C63.7027 27.0022 62.993 26.4954 62.8916 25.6847C62.8916 25.5834 62.8916 25.3807 62.8916 25.2794V9.2685H62.7903Z" fill="#1D1655"/>
<path d="M71.6106 9.26855C71.5092 8.55921 72.0162 7.84989 72.7259 7.64722C72.8273 7.64722 73.03 7.64722 73.1314 7.64722H74.5509C75.2606 7.54588 75.9703 8.05251 76.0717 8.86319C76.0717 8.96452 76.0717 9.16722 76.0717 9.26855V10.3832C76.0717 10.4845 76.0717 10.5859 76.0717 10.6873C76.0717 10.7886 76.0717 10.8899 76.0717 10.9912C76.0717 11.0925 76.0717 11.1939 76.0717 11.2953H76.1731C76.3759 10.7886 76.68 10.3832 77.0856 9.97785C77.4912 9.47117 77.9981 9.06591 78.5051 8.66057C79.1134 8.25523 79.7217 7.84989 80.4314 7.64722C81.2425 7.34321 82.1551 7.24185 83.0676 7.24185C84.8926 7.14052 86.6161 7.74848 88.0356 8.9645C89.1509 10.0792 89.7592 12.0045 89.7592 14.5379V25.2794C89.8606 26.0901 89.3536 26.6982 88.5425 26.9009C88.4411 26.9009 88.2384 26.9009 88.137 26.9009H86.5148C85.7036 27.0022 85.0953 26.4955 84.8926 25.6848C84.8926 25.5834 84.8926 25.3807 84.8926 25.2794V15.5513C84.8926 14.5379 84.6897 13.626 84.2842 12.714C83.7772 11.9033 82.8648 11.4978 81.8509 11.5992C81.0398 11.5992 80.2287 11.8019 79.519 12.1059C78.8092 12.4099 78.3023 12.9166 77.7953 13.4233C77.2884 14.0313 76.8828 14.7406 76.68 15.45C76.3759 16.2606 76.2745 17.0714 76.2745 17.882V25.2794C76.3759 25.9888 75.8689 26.6982 75.1592 26.9009C75.0578 26.9009 74.8551 26.9009 74.7537 26.9009H73.1314C72.4217 27.0022 71.712 26.4955 71.6106 25.6848C71.6106 25.5834 71.6106 25.3807 71.6106 25.2794V9.26855Z" fill="#1D1655"/>
<path d="M95.2315 30.7515C95.3329 30.3462 95.637 30.0421 96.0426 29.8395C96.4481 29.7381 96.8537 29.7382 97.2593 29.9409C97.7662 30.1436 98.3745 30.3463 98.8814 30.4476C99.5912 30.6503 100.402 30.6502 101.112 30.6502C101.822 30.6502 102.531 30.5489 103.241 30.4476C103.849 30.3463 104.458 30.0422 104.965 29.6369C105.472 29.2315 105.877 28.7248 106.08 28.2181C106.384 27.5088 106.486 26.7995 106.486 26.0901V24.3675C106.486 24.2661 106.486 24.1648 106.486 24.0634C106.486 23.9621 106.486 23.8607 106.486 23.7594H106.384C105.877 24.6714 105.168 25.3808 104.356 25.8875C103.343 26.3942 102.227 26.6981 101.112 26.5968C99.794 26.5968 98.5773 26.3941 97.3606 25.7861C96.3467 25.2794 95.3328 24.5701 94.6231 23.6581C93.9134 22.746 93.305 21.7327 92.8995 20.5167C92.1898 18.0847 92.1898 15.5512 92.8995 13.1192C93.2036 12.0045 93.812 10.9912 94.5217 10.0791C95.2315 9.16713 96.144 8.45778 97.2593 8.05244C98.4759 7.54577 99.6925 7.24181 101.011 7.34315C101.923 7.34315 102.937 7.44448 103.748 7.84982C104.356 8.05249 104.965 8.45783 105.472 8.86317C105.979 9.26851 106.384 9.77521 106.587 10.2819H106.688V10.1806V9.06579C106.688 8.76179 106.79 8.35655 107.094 8.15388C107.398 7.84987 107.804 7.74851 108.209 7.74851H109.527C110.237 7.64718 110.947 8.1538 111.048 8.96448C111.048 9.06582 111.048 9.26851 111.048 9.36985V25.7861C111.048 27.2048 110.744 28.6236 110.136 29.9409C109.629 31.0556 108.818 31.9675 107.804 32.7782C106.891 33.4876 105.776 34.0956 104.559 34.3996C103.444 34.7036 102.227 34.9062 101.011 34.9062C99.9967 34.9062 98.8814 34.805 97.8676 34.6023C97.0564 34.3996 96.1439 34.1969 95.4342 33.8929C94.7245 33.6902 94.2175 32.9809 94.4203 32.2715C94.4203 32.1702 94.5217 32.0688 94.5217 31.8662L95.2315 30.7515ZM102.227 22.4421C102.734 22.4421 103.343 22.3407 103.85 22.138C104.356 21.9354 104.863 21.6313 105.269 21.226C105.674 20.7193 106.08 20.1114 106.283 19.5034C106.587 18.5913 106.688 17.6794 106.688 16.7674C106.688 15.8553 106.587 14.9433 106.283 14.0312C106.08 13.4232 105.776 12.8153 105.269 12.3086C104.863 11.9032 104.356 11.5992 103.748 11.3965C103.14 11.1939 102.531 11.1939 101.923 11.1939C100.605 11.0926 99.3884 11.5992 98.4759 12.6125C97.6648 13.7272 97.2592 15.0446 97.3606 16.4633C97.2592 17.9833 97.7662 19.5033 98.5773 20.7193C99.4898 21.834 100.808 22.4421 102.227 22.4421Z" fill="#1D1655"/>
<path d="M134.471 13.2207C133.964 12.0047 133.153 10.8899 132.241 10.0792C131.227 9.16718 130.112 8.45783 128.895 8.05249C126.259 7.03914 123.319 7.03914 120.682 8.05249C119.466 8.55917 118.35 9.26851 117.337 10.0792C116.323 10.9912 115.613 12.0047 115.106 13.2207C113.382 17.0714 114.295 21.6315 117.337 24.4688C118.35 25.3809 119.466 26.0902 120.682 26.4955C123.319 27.5089 126.259 27.5089 128.895 26.4955C130.112 25.9889 131.328 25.2795 132.241 24.4688C133.255 23.5568 133.964 22.5435 134.471 21.3275C135.587 18.6928 135.587 15.7541 134.471 13.2207ZM128.895 17.8821C127.07 19.1994 125.245 20.4154 123.318 21.7327C123.116 21.9354 122.812 22.0368 122.507 21.9355C122.203 21.8341 122 21.4287 122 21.1247C122 19.9087 122 18.5914 122 17.3754V17.1726C122 15.8553 122 14.538 122 13.322C122 12.9166 122.305 12.5113 122.71 12.5113H122.812C123.014 12.5113 123.116 12.5112 123.318 12.6126C125.245 13.9299 127.07 15.2473 128.996 16.5647C129.402 16.7673 129.503 17.274 129.3 17.578C129.098 17.7807 128.996 17.8821 128.895 17.8821Z" fill="#1D1655"/>
</svg>
