<svg width="625" height="630" viewBox="0 0 625 630" fill="none" xmlns="http://www.w3.org/2000/svg">
<path d="M449.333 49.7777C511.343 81.6489 573.288 121.114 602.672 184.231C632.163 247.576 631.202 323.027 607.067 388.589C584.838 448.973 526.644 483.891 477.172 525.146C430.314 564.222 386.863 609.365 327.126 622.033C263.643 635.495 191.465 634.821 138.867 596.889C87.8544 560.099 85.0559 488.351 61.1867 430.242C38.5279 375.081 -12.5736 323.362 2.85306 265.769C18.2307 208.359 93.8205 195.382 135.473 152.905C180.99 106.486 195.194 26.8875 257.016 6.57436C320.994 -14.4476 389.453 19.0012 449.333 49.7777Z" fill="#D4DCD5"/>
</svg>
