<svg width="489" height="463" viewBox="0 0 489 463" fill="none" xmlns="http://www.w3.org/2000/svg">
<path d="M351.11 36.5106C399.495 59.8873 447.83 88.8336 470.758 135.128C493.769 181.59 493.02 236.931 474.188 285.019C456.843 329.309 411.435 354.921 372.832 385.18C336.269 413.841 302.365 446.952 255.753 456.244C206.218 466.118 149.898 465.624 108.857 437.801C69.0518 410.817 66.8682 358.192 48.2433 315.571C30.5629 275.111 -9.31108 237.178 2.72621 194.935C14.7252 152.826 73.7071 143.308 106.208 112.151C141.725 78.1049 152.808 19.7212 201.046 4.82211C250.968 -10.5969 304.386 13.9369 351.11 36.5106Z" fill="#282065"/>
</svg>
