<svg width="489" height="393" viewBox="0 0 489 393" fill="none" xmlns="http://www.w3.org/2000/svg">
<path d="M351.297 31.1281C399.683 50.9675 448.018 75.5337 470.946 114.823C493.957 154.255 493.208 201.222 474.375 242.033C457.03 279.622 411.622 301.358 373.02 327.039C336.456 351.363 302.552 379.464 255.94 387.349C206.405 395.729 150.085 395.31 109.044 371.697C69.2393 348.796 67.0557 304.134 48.4308 267.962C30.7504 233.625 -9.12358 201.431 2.91371 165.58C14.9127 129.843 73.8946 121.765 106.396 95.3231C141.912 66.4285 152.995 16.8792 201.234 4.23454C251.156 -8.85132 304.573 11.9701 351.297 31.1281Z" fill="#82CBAD" fill-opacity="0.34"/>
</svg>
