<svg width="598" height="603" viewBox="0 0 598 603" fill="none" xmlns="http://www.w3.org/2000/svg">
<path d="M429.579 48.4778C488.829 78.929 548.017 116.635 576.093 176.94C604.271 237.463 603.353 309.552 580.292 372.193C559.052 429.887 503.449 463.249 456.179 502.666C411.406 540 369.889 583.132 312.811 595.236C252.154 608.099 183.189 607.454 132.932 571.212C84.19 536.062 81.5161 467.51 58.7093 411.991C37.0591 359.287 -11.7679 309.873 2.97216 254.846C17.6653 199.994 89.8905 187.595 129.689 147.01C173.18 102.66 186.752 26.6075 245.822 7.19941C306.953 -12.8859 372.364 19.0726 429.579 48.4778Z" fill="#282065"/>
</svg>
