<svg width="33" height="19" viewBox="0 0 33 19" fill="none" xmlns="http://www.w3.org/2000/svg">
<g clip-path="url(#clip0_79_2994)">
<path d="M28.1017 10.4735H10.2314C9.98497 10.4828 9.73826 10.479 9.49227 10.462C9.15722 10.4501 8.83987 10.3086 8.60706 10.0675C8.37425 9.82637 8.24414 9.50436 8.24414 9.16926C8.24414 8.83417 8.37425 8.51216 8.60706 8.27103C8.83987 8.0299 9.15722 7.88848 9.49227 7.87654C9.73826 7.85957 9.98497 7.85574 10.2314 7.86505H28.059C27.839 7.6024 27.7092 7.42183 27.5565 7.26753C26.0224 5.71024 24.4846 4.15459 22.9429 2.60059C22.2399 1.88652 22.1611 1.15274 22.708 0.581481C23.2911 -0.0242516 24.0367 0.0381273 24.7824 0.786675C27.1782 3.18881 29.5695 5.59643 31.9565 8.00951C32.7925 8.85327 32.7909 9.48691 31.9565 10.3257C29.5684 12.7334 27.1765 15.141 24.7808 17.5486C24.0351 18.2971 23.2944 18.3693 22.708 17.7603C22.1578 17.194 22.2334 16.4471 22.9363 15.7412C24.4342 14.2211 25.942 12.7109 27.4431 11.1941C27.6304 11.0053 27.8012 10.8018 28.1017 10.4735Z" fill="white"/>
</g>
<defs>
<clipPath id="clip0_79_2994">
<rect width="32.4444" height="17.9898" fill="white" transform="translate(0.138672 0.171021)"/>
</clipPath>
</defs>
</svg>
