<svg width="215" height="217" viewBox="0 0 215 217" fill="none" xmlns="http://www.w3.org/2000/svg">
<path d="M154.571 17.2302C175.902 28.1575 197.211 41.6883 207.319 63.3284C217.464 85.0467 217.134 110.916 208.831 133.394C201.184 154.097 181.166 166.069 164.147 180.214C148.028 193.611 133.081 209.089 112.531 213.432C90.6932 218.048 65.864 217.817 47.7703 204.811C30.2219 192.198 29.2592 167.598 21.0482 147.675C13.2536 128.763 -4.32533 111.031 0.981453 91.2845C6.27135 71.6011 32.2742 67.1518 46.6029 52.588C62.2606 36.6732 67.1467 9.38215 88.4133 2.41764C110.422 -4.78988 133.972 6.67827 154.571 17.2302Z" fill="#2FBC88"/>
<g clip-path="url(#clip0_223_7)">
<path d="M128.375 133.552C128.375 131.338 128.375 129.161 128.375 126.927C129.182 126.927 129.913 126.927 130.758 126.927C130.758 127.344 130.758 127.741 130.758 128.139C130.758 130.94 130.777 133.76 130.758 136.562C130.72 140.556 128.281 143.755 124.753 144.455C124.227 144.55 123.702 144.569 123.177 144.569C110.885 144.569 98.5933 144.569 86.3017 144.569C82.2108 144.569 79.0018 141.502 78.7204 137.357C78.6828 136.922 78.6828 136.467 78.6828 136.032C78.6828 111.992 78.6828 87.9522 78.6641 63.9122C78.6641 61.6786 79.1707 59.6532 80.6157 57.9496C82.0231 56.3028 83.7871 55.3942 85.964 55.3942C98.4807 55.3942 110.979 55.3752 123.496 55.3942C127.474 55.3942 130.57 58.631 130.739 63.0604C130.87 66.4866 130.758 69.9317 130.758 73.3768C130.758 73.4714 130.72 73.5471 130.683 73.6796C129.97 73.6796 129.275 73.6796 128.468 73.6796C128.45 73.3389 128.431 72.9982 128.431 72.6575C128.431 69.6667 128.375 66.6569 128.45 63.6662C128.525 60.9025 126.573 57.6846 122.782 57.9496C121.3 58.0632 119.799 57.9685 118.185 57.9685C118.185 58.631 118.204 59.1989 118.185 59.7668C118.091 61.6975 116.965 62.7765 115.051 62.7765C108.201 62.7765 101.352 62.7765 94.5024 62.7765C92.4569 62.7765 91.331 61.6218 91.3122 59.5585C91.3122 59.0853 91.3122 58.631 91.3122 58.0632C90.9557 58.0442 90.6554 58.0064 90.3552 57.9874C88.9852 57.9874 87.5966 57.9685 86.2267 57.9874C83.4681 58.0064 81.3851 59.9371 81.0848 62.6818C81.0286 63.1551 81.0286 63.6283 81.0286 64.1015C81.0286 86.8543 81.0286 109.588 81.0286 132.341C81.0286 132.738 81.0286 133.155 81.0286 133.571C96.8669 133.552 112.574 133.552 128.375 133.552ZM104.749 141.237C106.437 141.237 108.126 141.256 109.815 141.237C111.317 141.219 112.292 140.291 112.292 138.89C112.292 137.49 111.317 136.505 109.834 136.505C106.437 136.486 103.022 136.486 99.6255 136.505C98.143 136.505 97.1484 137.471 97.1296 138.871C97.1108 140.253 98.1242 141.237 99.5879 141.256C101.314 141.256 103.022 141.237 104.749 141.237Z" fill="#1D1655"/>
<path d="M90.0547 82.0272C90.0547 78.7336 90.0547 75.5346 90.0547 72.1841C90.3925 72.1652 90.7115 72.1273 91.0493 72.1273C99.9255 72.1273 108.82 72.1273 117.697 72.1084C118.391 72.1084 118.86 72.3166 119.329 72.8088C120.493 74.0392 121.675 75.2506 122.914 76.4053C123.251 76.7271 123.814 76.9732 124.283 76.9732C132.315 77.011 140.366 76.9921 148.398 76.9921C148.773 76.9921 149.129 76.9921 149.58 76.9921C149.58 78.6957 149.58 80.3047 149.58 82.0083C129.763 82.0272 109.965 82.0272 90.0547 82.0272ZM94.84 75.1938C94.8212 74.3799 94.1269 73.7174 93.3012 73.7363C92.513 73.7552 91.875 74.4177 91.8562 75.1938C91.8374 76.0078 92.5318 76.6892 93.3575 76.6892C94.1644 76.6892 94.84 76.0078 94.84 75.1938ZM103.435 75.1749C103.416 74.361 102.703 73.6984 101.896 73.7363C101.127 73.7552 100.47 74.4367 100.451 75.1938C100.451 76.0078 101.127 76.6892 101.952 76.6892C102.778 76.6892 103.453 75.9889 103.435 75.1749ZM97.6736 76.6892C98.4805 76.6703 99.1561 75.9699 99.1373 75.156C99.1186 74.342 98.4055 73.6795 97.5798 73.7174C96.8104 73.7552 96.1536 74.4367 96.1536 75.1938C96.1536 76.0267 96.8667 76.7082 97.6736 76.6892Z" fill="#1D1655"/>
<path d="M90.0719 83.6172C109.964 83.6172 129.743 83.6172 149.635 83.6172C149.635 83.9958 149.635 84.3176 149.635 84.6583C149.635 96.4132 149.635 108.187 149.635 119.942C149.635 122.46 148.509 123.595 146.032 123.595C128.561 123.595 111.09 123.595 93.5999 123.595C91.2354 123.595 90.0156 122.403 90.0156 120.094C90.0156 108.206 90.0156 96.3186 90.0156 84.4311C90.0156 84.204 90.0532 83.9579 90.0719 83.6172ZM147.608 85.7183C129.03 85.7183 110.602 85.7183 92.0799 85.7183C92.0799 86.2862 92.0799 86.7973 92.0799 87.2894C92.0799 98.079 92.0799 108.869 92.0799 119.639C92.0799 121.305 92.3051 121.532 93.9752 121.532C111.24 121.532 128.485 121.532 145.75 121.532C147.401 121.532 147.608 121.324 147.608 119.696C147.608 108.793 147.608 97.8708 147.608 86.9676C147.608 86.5891 147.608 86.1726 147.608 85.7183Z" fill="#1D1655"/>
<path d="M104.748 141.237C103.022 141.237 101.314 141.256 99.5875 141.237C98.105 141.218 97.1104 140.234 97.1292 138.852C97.1479 137.47 98.1425 136.505 99.625 136.486C103.022 136.467 106.437 136.467 109.834 136.486C111.316 136.486 112.292 137.47 112.292 138.871C112.292 140.272 111.316 141.218 109.815 141.218C108.126 141.237 106.437 141.237 104.748 141.237Z" fill="white"/>
<path d="M94.8392 75.1939C94.858 76.0078 94.1637 76.7082 93.3567 76.7082C92.531 76.7082 91.8555 76.0078 91.8555 75.2128C91.8742 74.4367 92.5123 73.7931 93.3004 73.7553C94.1074 73.6985 94.8205 74.3799 94.8392 75.1939Z" fill="white"/>
<path d="M103.433 75.175C103.452 75.989 102.757 76.6893 101.95 76.6893C101.125 76.6893 100.449 76.0079 100.449 75.1939C100.449 74.4179 101.106 73.7553 101.894 73.7364C102.72 73.6986 103.414 74.3611 103.433 75.175Z" fill="white"/>
<path d="M97.6724 76.6893C96.8654 76.7083 96.1523 76.0079 96.1523 75.2129C96.1523 74.4368 96.7904 73.7743 97.5785 73.7364C98.4042 73.6986 99.1173 74.3611 99.1361 75.175C99.1549 75.97 98.4793 76.6893 97.6724 76.6893Z" fill="white"/>
<path d="M147.61 85.7185C147.61 86.1728 147.61 86.5703 147.61 86.9868C147.61 97.8899 147.61 108.812 147.61 119.715C147.61 121.343 147.404 121.551 145.752 121.551C128.488 121.551 111.242 121.551 93.9774 121.551C92.3072 121.551 92.082 121.324 92.082 119.658C92.082 108.869 92.082 98.0792 92.082 87.3085C92.082 86.8164 92.082 86.3053 92.082 85.7374C110.585 85.7185 129.013 85.7185 147.61 85.7185ZM119.837 117.746C127.643 117.728 133.873 111.424 133.855 103.531C133.855 95.732 127.587 89.4475 119.799 89.4475C112.011 89.4475 105.725 95.7888 105.762 103.644C105.781 111.443 112.086 117.765 119.837 117.746Z" fill="white"/>
<path d="M119.836 117.746C112.105 117.765 105.799 111.443 105.762 103.644C105.743 95.7887 112.011 89.4475 119.799 89.4475C127.568 89.4475 133.835 95.732 133.854 103.531C133.854 111.424 127.643 117.728 119.836 117.746ZM118.766 104.704C116.909 104.704 115.163 104.704 113.249 104.704C113.456 106.048 113.643 107.298 113.831 108.528C115.576 108.263 117.153 108.017 118.748 107.752C118.766 106.749 118.766 105.764 118.766 104.704ZM118.766 99.4421C117.078 99.1771 115.52 98.931 113.831 98.666C113.643 99.9153 113.475 101.165 113.287 102.49C115.22 102.49 116.965 102.49 118.785 102.49C118.766 101.43 118.766 100.445 118.766 99.4421ZM126.385 104.666C124.452 104.666 122.726 104.666 120.925 104.666C120.925 105.727 120.925 106.749 120.925 107.752C122.538 107.998 124.096 108.244 125.804 108.528C125.991 107.279 126.179 106.029 126.385 104.666ZM120.925 99.4421C120.925 100.483 120.925 101.486 120.925 102.49C122.745 102.49 124.509 102.49 126.367 102.49C126.179 101.165 125.991 99.9342 125.804 98.6849C124.115 98.931 122.557 99.1771 120.925 99.4421ZM111.861 109.285C111.635 107.695 111.41 106.2 111.185 104.685C110.097 104.685 109.027 104.685 107.957 104.685C107.92 106.465 108.858 109.058 109.928 110.251C110.566 109.929 111.204 109.607 111.861 109.285ZM109.871 96.9056C108.727 98.5713 108.07 100.407 107.901 102.509C109.046 102.509 110.097 102.509 111.185 102.509C111.41 100.975 111.635 99.461 111.861 97.9088C111.223 97.587 110.585 97.2652 109.871 96.9056ZM131.752 104.685C130.57 104.685 129.5 104.685 128.45 104.685C128.224 106.257 127.999 107.771 127.774 109.285C128.45 109.626 129.088 109.948 129.782 110.288C130.908 108.585 131.565 106.768 131.752 104.685ZM129.782 96.9056C129.181 97.2084 128.637 97.4356 128.131 97.7384C127.962 97.8331 127.793 98.117 127.812 98.2874C127.999 99.6881 128.243 101.07 128.468 102.49C129.538 102.49 130.626 102.49 131.734 102.49C131.565 100.426 130.908 98.5903 129.782 96.9056ZM114.638 96.7163C116.008 96.9245 117.359 97.1138 118.748 97.322C118.748 95.3345 118.748 93.574 118.748 91.7758C117.04 92.1922 115.07 94.5394 114.638 96.7163ZM118.748 115.551C118.748 113.582 118.748 111.784 118.748 109.834C117.321 110.061 115.989 110.269 114.507 110.497C115.426 112.692 116.477 114.529 118.748 115.551ZM125.147 110.497C123.627 110.269 122.313 110.08 120.925 109.872C120.925 111.841 120.925 113.601 120.925 115.532C123.158 114.547 124.19 112.711 125.147 110.497ZM120.925 91.6622C120.925 93.6308 120.925 95.4102 120.925 97.3409C122.351 97.1138 123.683 96.9056 125.128 96.6784C124.209 94.4826 123.158 92.6655 120.925 91.6622ZM125.973 93.1576C125.916 93.2144 125.879 93.2712 125.822 93.328C126.254 94.1798 126.686 95.0316 127.136 95.9213C127.586 95.6752 127.98 95.4859 128.543 95.183C127.586 94.4259 126.779 93.8012 125.973 93.1576ZM125.804 113.923C125.86 113.98 125.916 114.017 125.973 114.074C126.779 113.412 127.605 112.768 128.562 111.992C127.98 111.708 127.586 111.519 127.136 111.292C126.648 112.219 126.216 113.071 125.804 113.923ZM113.625 113.999C113.681 113.942 113.737 113.866 113.775 113.809C113.362 112.976 112.949 112.162 112.499 111.273C112.048 111.519 111.654 111.727 111.11 112.011C112.048 112.768 112.836 113.374 113.625 113.999ZM112.517 95.9023C112.968 94.9937 113.362 94.1608 113.775 93.328C113.718 93.2901 113.643 93.2333 113.587 93.1955C112.799 93.8391 112.011 94.4637 111.091 95.2019C111.692 95.4859 112.086 95.6941 112.517 95.9023Z" fill="#1D1655"/>
<path d="M118.768 104.704C118.768 105.764 118.768 106.768 118.768 107.752C117.154 107.998 115.596 108.244 113.851 108.528C113.664 107.317 113.476 106.067 113.27 104.704C115.165 104.704 116.91 104.704 118.768 104.704Z" fill="white"/>
<path d="M118.768 99.4421C118.768 100.445 118.768 101.43 118.768 102.49C116.966 102.49 115.202 102.49 113.27 102.49C113.457 101.165 113.645 99.9153 113.814 98.666C115.521 98.931 117.079 99.1771 118.768 99.4421Z" fill="white"/>
<path d="M126.387 104.667C126.181 106.029 125.993 107.279 125.824 108.528C124.117 108.263 122.559 108.017 120.945 107.752C120.945 106.749 120.945 105.727 120.945 104.667C122.709 104.667 124.436 104.667 126.387 104.667Z" fill="white"/>
<path d="M120.926 99.442C122.558 99.1959 124.116 98.9498 125.805 98.6848C125.993 99.9152 126.18 101.165 126.368 102.49C124.51 102.49 122.746 102.49 120.926 102.49C120.926 101.467 120.926 100.483 120.926 99.442Z" fill="white"/>
<path d="M111.862 109.285C111.205 109.607 110.567 109.929 109.948 110.25C108.878 109.058 107.94 106.465 107.978 104.685C109.047 104.685 110.117 104.685 111.205 104.685C111.412 106.2 111.618 107.695 111.862 109.285Z" fill="white"/>
<path d="M109.873 96.9055C110.586 97.2652 111.224 97.587 111.862 97.9277C111.637 99.4799 111.412 100.994 111.186 102.527C110.098 102.527 109.047 102.527 107.902 102.527C108.071 100.407 108.728 98.5713 109.873 96.9055Z" fill="white"/>
<path d="M131.752 104.685C131.564 106.768 130.926 108.585 129.781 110.288C129.087 109.948 128.449 109.626 127.773 109.285C127.999 107.771 128.205 106.275 128.449 104.685C129.5 104.685 130.57 104.685 131.752 104.685Z" fill="white"/>
<path d="M129.781 96.9055C130.926 98.5902 131.564 100.407 131.752 102.49C130.626 102.49 129.556 102.49 128.486 102.49C128.261 101.07 128.017 99.6881 127.83 98.2873C127.811 98.117 127.98 97.833 128.149 97.7384C128.636 97.4355 129.181 97.2084 129.781 96.9055Z" fill="white"/>
<path d="M114.637 96.7162C115.068 94.5394 117.039 92.1922 118.746 91.7947C118.746 93.574 118.746 95.3533 118.746 97.3409C117.358 97.1137 116.007 96.9245 114.637 96.7162Z" fill="white"/>
<path d="M118.749 115.551C116.478 114.529 115.427 112.711 114.508 110.516C115.972 110.288 117.304 110.08 118.749 109.853C118.749 111.784 118.749 113.582 118.749 115.551Z" fill="white"/>
<path d="M125.148 110.496C124.21 112.711 123.178 114.547 120.926 115.532C120.926 113.601 120.926 111.822 120.926 109.872C122.296 110.08 123.628 110.269 125.148 110.496Z" fill="white"/>
<path d="M120.926 91.6621C123.159 92.6654 124.21 94.4825 125.129 96.6783C123.684 96.9055 122.352 97.1137 120.926 97.3408C120.926 95.429 120.926 93.6497 120.926 91.6621Z" fill="white"/>
<path d="M125.974 93.1575C126.781 93.8011 127.588 94.4446 128.545 95.1829C127.982 95.4668 127.588 95.675 127.138 95.9211C126.687 95.0314 126.256 94.1796 125.824 93.3278C125.881 93.271 125.918 93.2143 125.974 93.1575Z" fill="white"/>
<path d="M125.805 113.923C126.236 113.071 126.668 112.219 127.118 111.292C127.569 111.5 127.963 111.708 128.544 111.992C127.587 112.749 126.781 113.412 125.955 114.074C125.899 114.017 125.842 113.961 125.805 113.923Z" fill="white"/>
<path d="M113.624 113.998C112.836 113.374 112.048 112.749 111.109 112.011C111.654 111.708 112.048 111.5 112.498 111.273C112.948 112.162 113.361 112.976 113.774 113.809C113.718 113.866 113.68 113.942 113.624 113.998Z" fill="white"/>
<path d="M112.516 95.9022C112.084 95.675 111.672 95.4857 111.09 95.2018C112.009 94.4636 112.798 93.82 113.586 93.1953C113.642 93.2332 113.717 93.29 113.773 93.3278C113.379 94.1607 112.966 95.0125 112.516 95.9022Z" fill="white"/>
</g>
<defs>
<clipPath id="clip0_223_7">
<rect width="70.9722" height="89.1748" fill="white" transform="translate(78.6641 55.394)"/>
</clipPath>
</defs>
</svg>
