<svg width="155" height="156" viewBox="0 0 155 156" fill="none" xmlns="http://www.w3.org/2000/svg">
<path d="M111.435 12.3259C126.813 20.2178 142.175 29.9901 149.463 45.619C156.776 61.3044 156.538 79.9875 150.553 96.222C145.04 111.174 130.608 119.821 118.339 130.036C106.718 139.712 95.9419 150.89 81.1272 154.027C65.3835 157.361 47.4833 157.194 34.4391 147.801C21.7879 138.691 21.0939 120.925 15.1743 106.536C9.55492 92.8771 -3.11826 80.0707 0.707559 65.8095C4.5212 51.5938 23.2675 48.3804 33.5974 37.8621C44.8856 26.3681 48.4081 6.65786 63.7398 1.62794C79.6066 -3.57749 96.5843 4.70506 111.435 12.3259Z" fill="#2FBC88"/>
<g clip-path="url(#clip0_704_4)">
<path d="M86.8944 100.497C86.8944 98.9816 86.8944 97.4916 86.8944 95.9627C87.4446 95.9627 87.9436 95.9627 88.5194 95.9627C88.5194 96.2477 88.5194 96.5198 88.5194 96.7919C88.5194 98.7095 88.5322 100.64 88.5194 102.558C88.4938 105.291 86.8304 107.481 84.4249 107.96C84.0667 108.025 83.7084 108.038 83.3501 108.038C74.9693 108.038 66.5885 108.038 58.2076 108.038C55.4183 108.038 53.2303 105.939 53.0384 103.102C53.0128 102.804 53.0128 102.493 53.0128 102.195C53.0128 85.74 53.0128 69.2852 53 52.8303C53 51.3015 53.3455 49.9151 54.3307 48.749C55.2903 47.6218 56.4931 46.9999 57.9773 46.9999C66.5117 46.9999 75.0333 46.9869 83.5676 46.9999C86.2802 46.9999 88.3914 49.2155 88.5066 52.2473C88.5961 54.5924 88.5194 56.9505 88.5194 59.3086C88.5194 59.3734 88.4938 59.4252 88.4682 59.5159C87.982 59.5159 87.5086 59.5159 86.9584 59.5159C86.9456 59.2827 86.9328 59.0495 86.9328 58.8163C86.9328 56.7691 86.8944 54.709 86.9456 52.6619C86.9967 50.7703 85.666 48.5676 83.0814 48.749C82.0706 48.8268 81.047 48.762 79.9466 48.762C79.9466 49.2155 79.9594 49.6042 79.9466 49.9929C79.8826 51.3144 79.1149 52.053 77.8098 52.053C73.1396 52.053 68.4694 52.053 63.7991 52.053C62.4044 52.053 61.6367 51.2626 61.6239 49.8503C61.6239 49.5264 61.6239 49.2155 61.6239 48.8268C61.3808 48.8138 61.1761 48.7879 60.9714 48.7749C60.0373 48.7749 59.0905 48.762 58.1565 48.7749C56.2756 48.7879 54.8553 50.1095 54.6506 51.9882C54.6122 52.3121 54.6122 52.636 54.6122 52.9599C54.6122 68.5337 54.6122 84.0945 54.6122 99.6683C54.6122 99.9404 54.6122 100.225 54.6122 100.51C65.4113 100.497 76.1209 100.497 86.8944 100.497ZM70.7853 105.758C71.9368 105.758 73.0884 105.771 74.24 105.758C75.2636 105.745 75.9289 105.11 75.9289 104.151C75.9289 103.192 75.2636 102.519 74.2528 102.519C71.9368 102.506 69.6081 102.506 67.2922 102.519C66.2814 102.519 65.6032 103.179 65.5904 104.138C65.5776 105.084 66.2686 105.758 67.2666 105.771C68.4438 105.771 69.6081 105.758 70.7853 105.758Z" fill="#1D1655"/>
<path d="M60.7656 65.2301C60.7656 62.9757 60.7656 60.7861 60.7656 58.4927C60.9959 58.4798 61.2135 58.4539 61.4438 58.4539C67.4959 58.4539 73.5608 58.4539 79.6129 58.4409C80.0863 58.4409 80.4062 58.5834 80.7261 58.9203C81.5194 59.7625 82.3255 60.5917 83.17 61.3821C83.4003 61.6023 83.7841 61.7708 84.104 61.7708C89.5803 61.7967 95.0695 61.7837 100.546 61.7837C100.802 61.7837 101.045 61.7837 101.352 61.7837C101.352 62.9498 101.352 64.0511 101.352 65.2172C87.8402 65.2301 74.3413 65.2301 60.7656 65.2301ZM64.0284 60.5528C64.0156 59.9957 63.5422 59.5422 62.9792 59.5552C62.4418 59.5681 62.0068 60.0216 61.994 60.5528C61.9812 61.11 62.4546 61.5764 63.0176 61.5764C63.5678 61.5764 64.0284 61.11 64.0284 60.5528ZM69.8886 60.5399C69.8758 59.9827 69.3896 59.5293 68.8394 59.5552C68.3148 59.5681 67.8669 60.0346 67.8541 60.5528C67.8541 61.11 68.3148 61.5764 68.8778 61.5764C69.4407 61.5764 69.9014 61.097 69.8886 60.5399ZM65.9605 61.5764C66.5107 61.5634 66.9713 61.0841 66.9585 60.5269C66.9457 59.9698 66.4595 59.5163 65.8965 59.5422C65.3719 59.5681 64.9241 60.0346 64.9241 60.5528C64.9241 61.1229 65.4103 61.5894 65.9605 61.5764Z" fill="#1D1655"/>
<path d="M60.7806 66.3184C74.3434 66.3184 87.8295 66.3184 101.392 66.3184C101.392 66.5775 101.392 66.7978 101.392 67.031C101.392 75.077 101.392 83.136 101.392 91.182C101.392 92.9052 100.625 93.6826 98.9357 93.6826C87.0235 93.6826 75.1112 93.6826 63.1861 93.6826C61.5739 93.6826 60.7422 92.8663 60.7422 91.2856C60.7422 83.1489 60.7422 75.0122 60.7422 66.8755C60.7422 66.72 60.7678 66.5516 60.7806 66.3184ZM100.011 67.7565C87.3433 67.7565 74.7785 67.7565 62.1497 67.7565C62.1497 68.1452 62.1497 68.4951 62.1497 68.8319C62.1497 76.2172 62.1497 83.6024 62.1497 90.9747C62.1497 92.1148 62.3032 92.2703 63.442 92.2703C75.2135 92.2703 86.9723 92.2703 98.7438 92.2703C99.8698 92.2703 100.011 92.1278 100.011 91.0135C100.011 83.5506 100.011 76.0746 100.011 68.6117C100.011 68.3525 100.011 68.0675 100.011 67.7565Z" fill="#1D1655"/>
<path d="M70.7849 105.758C69.6077 105.758 68.4433 105.771 67.2662 105.758C66.2554 105.745 65.5772 105.071 65.59 104.125C65.6028 103.18 66.281 102.519 67.2918 102.506C69.6077 102.493 71.9364 102.493 74.2523 102.506C75.2632 102.506 75.9285 103.18 75.9285 104.138C75.9285 105.097 75.2632 105.745 74.2396 105.745C73.088 105.758 71.9364 105.758 70.7849 105.758Z" fill="white"/>
<path d="M64.0305 60.5529C64.0433 61.11 63.5699 61.5894 63.0197 61.5894C62.4567 61.5894 61.9961 61.11 61.9961 60.5658C62.0089 60.0346 62.4439 59.5941 62.9813 59.5682C63.5315 59.5293 64.0177 59.9958 64.0305 60.5529Z" fill="white"/>
<path d="M69.8899 60.5395C69.9027 61.0966 69.4293 61.576 68.8791 61.576C68.3161 61.576 67.8555 61.1096 67.8555 60.5524C67.8555 60.0212 68.3033 59.5677 68.8407 59.5548C69.4037 59.5289 69.8771 59.9823 69.8899 60.5395Z" fill="white"/>
<path d="M65.9622 61.576C65.412 61.5889 64.9258 61.1096 64.9258 60.5654C64.9258 60.0342 65.3608 59.5807 65.8982 59.5548C66.4612 59.5289 66.9474 59.9823 66.9602 60.5395C66.973 61.0836 66.5124 61.576 65.9622 61.576Z" fill="white"/>
<path d="M100.009 67.7563C100.009 68.0673 100.009 68.3394 100.009 68.6244C100.009 76.0874 100.009 83.5633 100.009 91.0263C100.009 92.1406 99.8686 92.2831 98.7426 92.2831C86.9711 92.2831 75.2123 92.2831 63.4407 92.2831C62.302 92.2831 62.1484 92.1276 62.1484 90.9874C62.1484 83.6022 62.1484 76.217 62.1484 68.8447C62.1484 68.5078 62.1484 68.158 62.1484 67.7693C74.7645 67.7563 87.3293 67.7563 100.009 67.7563ZM81.0725 89.6788C86.3953 89.6659 90.6433 85.3513 90.6305 79.9485C90.6305 74.6104 86.3569 70.3088 81.0469 70.3088C75.7369 70.3088 71.4505 74.6492 71.4761 80.0262C71.4889 85.3643 75.7881 89.6918 81.0725 89.6788Z" fill="white"/>
<path d="M81.073 89.6791C75.8014 89.6921 71.5022 85.3646 71.4766 80.0265C71.4638 74.6495 75.7374 70.3091 81.0474 70.3091C86.3446 70.3091 90.6182 74.6107 90.631 79.9488C90.631 85.3516 86.3958 89.6662 81.073 89.6791ZM80.3436 80.7521C79.0769 80.7521 77.887 80.7521 76.5819 80.7521C76.7226 81.672 76.8506 82.5271 76.9785 83.3693C78.1685 83.1879 79.2433 83.0195 80.3308 82.8381C80.3436 82.1514 80.3436 81.4776 80.3436 80.7521ZM80.3436 77.1501C79.1921 76.9687 78.1301 76.8003 76.9785 76.6189C76.8506 77.4741 76.7354 78.3292 76.6075 79.2361C77.9254 79.2361 79.1153 79.2361 80.3564 79.2361C80.3436 78.5106 80.3436 77.8368 80.3436 77.1501ZM85.5385 80.7261C84.2206 80.7261 83.0434 80.7261 81.8151 80.7261C81.8151 81.4517 81.8151 82.1514 81.8151 82.8381C82.9155 83.0065 83.9775 83.1749 85.1418 83.3693C85.2698 82.5142 85.3977 81.659 85.5385 80.7261ZM81.8151 77.1501C81.8151 77.8627 81.8151 78.5494 81.8151 79.2361C83.0562 79.2361 84.259 79.2361 85.5257 79.2361C85.3977 78.3292 85.2698 77.487 85.1418 76.6319C83.9903 76.8003 82.9283 76.9687 81.8151 77.1501ZM75.635 83.8875C75.4815 82.7992 75.3279 81.7756 75.1744 80.7391C74.4323 80.7391 73.703 80.7391 72.9736 80.7391C72.948 81.957 73.5878 83.7321 74.3171 84.5483C74.7522 84.3281 75.1872 84.1078 75.635 83.8875ZM74.2787 75.414C73.4982 76.5541 73.0504 77.8109 72.9352 79.2491C73.7157 79.2491 74.4323 79.2491 75.1744 79.2491C75.3279 78.1996 75.4815 77.1631 75.635 76.1007C75.2 75.8804 74.7649 75.6601 74.2787 75.414ZM89.1979 80.7391C88.3918 80.7391 87.6625 80.7391 86.9459 80.7391C86.7924 81.8145 86.6389 82.851 86.4853 83.8875C86.9459 84.1208 87.381 84.341 87.8544 84.5742C88.6221 83.4082 89.0699 82.1643 89.1979 80.7391ZM87.8544 75.414C87.445 75.6213 87.0739 75.7767 86.7284 75.9841C86.6133 76.0488 86.4981 76.2432 86.5109 76.3598C86.6389 77.3186 86.8052 78.2644 86.9587 79.2361C87.6881 79.2361 88.4302 79.2361 89.1851 79.2361C89.0699 77.8239 88.6221 76.5671 87.8544 75.414ZM77.5287 75.2844C78.4628 75.4269 79.384 75.5565 80.3308 75.699C80.3308 74.3386 80.3308 73.1336 80.3308 71.9027C79.1665 72.1878 77.823 73.7944 77.5287 75.2844ZM80.3308 88.1762C80.3308 86.8287 80.3308 85.5978 80.3308 84.2633C79.3584 84.4188 78.45 84.5613 77.4391 84.7168C78.0661 86.2197 78.7826 87.4765 80.3308 88.1762ZM84.694 84.7168C83.6576 84.5613 82.7619 84.4317 81.8151 84.2892C81.8151 85.6367 81.8151 86.8416 81.8151 88.1632C83.3377 87.4895 84.0414 86.2327 84.694 84.7168ZM81.8151 71.825C81.8151 73.1725 81.8151 74.3904 81.8151 75.712C82.7875 75.5565 83.696 75.414 84.6812 75.2585C84.0542 73.7555 83.3377 72.5117 81.8151 71.825ZM85.257 72.8486C85.2186 72.8874 85.193 72.9263 85.1546 72.9652C85.4489 73.5482 85.7432 74.1313 86.0503 74.7402C86.3574 74.5718 86.6261 74.4422 87.0099 74.2349C86.3574 73.7167 85.8072 73.2891 85.257 72.8486ZM85.1418 87.0619C85.1802 87.1008 85.2186 87.1267 85.257 87.1656C85.8072 86.7121 86.3702 86.2715 87.0227 85.7403C86.6261 85.546 86.3574 85.4164 86.0503 85.2609C85.7176 85.8958 85.4233 86.4789 85.1418 87.0619ZM76.8378 87.1137C76.8762 87.0749 76.9145 87.023 76.9401 86.9842C76.6586 86.4141 76.3771 85.8569 76.0701 85.248C75.763 85.4164 75.4943 85.5589 75.1232 85.7533C75.763 86.2716 76.3004 86.6862 76.8378 87.1137ZM76.0829 74.7273C76.3899 74.1054 76.6586 73.5353 76.9401 72.9652C76.9017 72.9393 76.8506 72.9004 76.8122 72.8745C76.2748 73.315 75.7374 73.7426 75.1104 74.2479C75.5199 74.4422 75.7886 74.5847 76.0829 74.7273Z" fill="#1D1655"/>
<path d="M80.3427 80.752C80.3427 81.4775 80.3427 82.1642 80.3427 82.838C79.2423 83.0064 78.1804 83.1748 76.9904 83.3692C76.8624 82.54 76.7345 81.6848 76.5938 80.752C77.8861 80.752 79.076 80.752 80.3427 80.752Z" fill="white"/>
<path d="M80.3427 77.1499C80.3427 77.8366 80.3427 78.5103 80.3427 79.2359C79.1144 79.2359 77.9117 79.2359 76.5938 79.2359C76.7217 78.3289 76.8497 77.4738 76.9648 76.6187C78.1292 76.8 79.1912 76.9685 80.3427 77.1499Z" fill="white"/>
<path d="M85.5387 80.7261C85.398 81.6589 85.27 82.5141 85.1549 83.3692C83.9905 83.1878 82.9285 83.0194 81.8281 82.838C81.8281 82.1513 81.8281 81.4516 81.8281 80.7261C83.0309 80.7261 84.208 80.7261 85.5387 80.7261Z" fill="white"/>
<path d="M81.8164 77.1501C82.9296 76.9817 83.9916 76.8132 85.1431 76.6318C85.2711 77.474 85.3991 78.3291 85.527 79.2361C84.2603 79.2361 83.0575 79.2361 81.8164 79.2361C81.8164 78.5364 81.8164 77.8627 81.8164 77.1501Z" fill="white"/>
<path d="M75.6337 83.8872C75.1859 84.1075 74.7508 84.3277 74.3286 84.548C73.5993 83.7317 72.9595 81.9567 72.9851 80.7388C73.7144 80.7388 74.4438 80.7388 75.1859 80.7388C75.3266 81.7753 75.4674 82.7989 75.6337 83.8872Z" fill="white"/>
<path d="M74.2771 75.4136C74.7633 75.6597 75.1983 75.88 75.6334 76.1132C75.4798 77.1757 75.3263 78.2122 75.1727 79.2617C74.4306 79.2617 73.7141 79.2617 72.9336 79.2617C73.0488 77.8105 73.4966 76.5538 74.2771 75.4136Z" fill="white"/>
<path d="M89.1969 80.7388C89.069 82.164 88.634 83.4078 87.8535 84.5739C87.38 84.3407 86.945 84.1204 86.4844 83.8872C86.6379 82.8507 86.7787 81.8271 86.945 80.7388C87.6615 80.7388 88.3909 80.7388 89.1969 80.7388Z" fill="white"/>
<path d="M87.8551 75.4136C88.6356 76.5667 89.0707 77.8105 89.1986 79.2358C88.4309 79.2358 87.7016 79.2358 86.9722 79.2358C86.8187 78.264 86.6524 77.3182 86.5244 76.3594C86.5116 76.2428 86.6268 76.0484 86.7419 75.9837C87.0746 75.7764 87.4457 75.6209 87.8551 75.4136Z" fill="white"/>
<path d="M77.5273 75.2842C77.8216 73.7942 79.1651 72.1876 80.3295 71.9155C80.3295 73.1334 80.3295 74.3514 80.3295 75.7118C79.3826 75.5563 78.4614 75.4268 77.5273 75.2842Z" fill="white"/>
<path d="M80.3292 88.1758C78.781 87.4761 78.0645 86.2323 77.4375 84.7294C78.4355 84.5739 79.344 84.4314 80.3292 84.2759C80.3292 85.5974 80.3292 86.8283 80.3292 88.1758Z" fill="white"/>
<path d="M84.6953 84.7166C84.0556 86.2325 83.3518 87.4893 81.8164 88.1631C81.8164 86.8415 81.8164 85.6236 81.8164 84.2891C82.7505 84.4316 83.6589 84.5612 84.6953 84.7166Z" fill="white"/>
<path d="M81.8164 71.8247C83.339 72.5114 84.0556 73.7552 84.6825 75.2582C83.6973 75.4137 82.7888 75.5562 81.8164 75.7117C81.8164 74.4031 81.8164 73.1851 81.8164 71.8247Z" fill="white"/>
<path d="M85.2547 72.8486C85.8049 73.2892 86.3551 73.7297 87.0076 74.235C86.6238 74.4293 86.3551 74.5719 86.048 74.7403C85.7409 74.1313 85.4466 73.5483 85.1523 72.9652C85.1907 72.9264 85.2163 72.8875 85.2547 72.8486Z" fill="white"/>
<path d="M85.1406 87.0617C85.4349 86.4787 85.7292 85.8956 86.0363 85.2607C86.3434 85.4033 86.6121 85.5458 87.0087 85.7401C86.3562 86.2584 85.806 86.7119 85.243 87.1654C85.2046 87.1265 85.1662 87.0876 85.1406 87.0617Z" fill="white"/>
<path d="M76.8356 87.1138C76.2982 86.6862 75.7609 86.2587 75.1211 85.7534C75.4922 85.546 75.7609 85.4035 76.0679 85.248C76.375 85.857 76.6565 86.4141 76.938 86.9842C76.8996 87.0231 76.874 87.0749 76.8356 87.1138Z" fill="white"/>
<path d="M76.0818 74.7273C75.7875 74.5718 75.506 74.4423 75.1094 74.2479C75.7363 73.7426 76.2737 73.3021 76.8111 72.8745C76.8495 72.9004 76.9007 72.9393 76.9391 72.9652C76.6704 73.5353 76.3889 74.1183 76.0818 74.7273Z" fill="white"/>
</g>
<defs>
<clipPath id="clip0_704_4">
<rect width="48.3913" height="61.0383" fill="white" transform="translate(53 47)"/>
</clipPath>
</defs>
</svg>
