<svg width="108" height="97" viewBox="0 0 108 97" fill="none" xmlns="http://www.w3.org/2000/svg">
<g clip-path="url(#clip0_92_1601)">
<path d="M30.5621 39.5424H8.82783C8.57927 39.5424 8.34089 39.4437 8.16513 39.2681C7.98937 39.0924 7.89062 38.8542 7.89062 38.6057C7.89062 38.3573 7.98937 38.119 8.16513 37.9434C8.34089 37.7677 8.57927 37.669 8.82783 37.669H30.5621C30.8106 37.669 31.049 37.7677 31.2248 37.9434C31.4005 38.119 31.4993 38.3573 31.4993 38.6057C31.4993 38.8542 31.4005 39.0924 31.2248 39.2681C31.049 39.4437 30.8106 39.5424 30.5621 39.5424V39.5424Z" fill="#1D1655"/>
<path d="M100.364 39.5424H78.1169C77.8683 39.5424 77.63 39.4437 77.4542 39.2681C77.2784 39.0924 77.1797 38.8542 77.1797 38.6057C77.1797 38.3573 77.2784 38.119 77.4542 37.9434C77.63 37.7677 77.8683 37.669 78.1169 37.669H100.364C100.613 37.669 100.851 37.7677 101.027 37.9434C101.203 38.119 101.302 38.3573 101.302 38.6057C101.302 38.8542 101.203 39.0924 101.027 39.2681C100.851 39.4437 100.613 39.5424 100.364 39.5424V39.5424Z" fill="#1D1655"/>
<path d="M37.5212 22.5479C37.2998 22.5498 37.0854 22.4705 36.9187 22.3249L30.6707 17.0838C30.5657 16.9968 30.4813 16.8877 30.4235 16.7643C30.3656 16.6409 30.3357 16.5063 30.3359 16.3701V7.62748C30.3359 7.37905 30.4347 7.14079 30.6104 6.96512C30.7862 6.78946 31.0246 6.69077 31.2731 6.69077C31.5217 6.69077 31.7601 6.78946 31.9358 6.96512C32.1116 7.14079 32.2103 7.37905 32.2103 7.62748V15.9352L38.1237 20.8975C38.2192 20.9751 38.2983 21.071 38.3563 21.1796C38.4142 21.2881 38.45 21.4072 38.4614 21.5297C38.4729 21.6522 38.4597 21.7758 38.4228 21.8932C38.3859 22.0106 38.3259 22.1194 38.2464 22.2134C38.1571 22.3185 38.046 22.4029 37.9207 22.4607C37.7955 22.5184 37.6591 22.5482 37.5212 22.5479Z" fill="#1D1655"/>
<path d="M71.3159 22.8267C71.1793 22.8285 71.0441 22.7993 70.9204 22.7414C70.7968 22.6834 70.6878 22.5982 70.6018 22.4921C70.4428 22.3025 70.3653 22.0577 70.3862 21.8112C70.4071 21.5647 70.5247 21.3364 70.7134 21.1763L76.9726 15.9352V7.62748C76.9726 7.37905 77.0713 7.14079 77.2471 6.96512C77.4229 6.78946 77.6612 6.69077 77.9098 6.69077C78.1584 6.69077 78.3967 6.78946 78.5725 6.96512C78.7483 7.14079 78.847 7.37905 78.847 7.62748V16.3701C78.8472 16.5063 78.8173 16.6409 78.7595 16.7643C78.7016 16.8877 78.6172 16.9968 78.5123 17.0838L71.9184 22.6594C71.743 22.7833 71.5301 22.8424 71.3159 22.8267Z" fill="#1D1655"/>
<path d="M77.9098 72.4165C77.7863 72.418 77.6638 72.3948 77.5494 72.3482C77.435 72.3017 77.3311 72.2327 77.2438 72.1454C77.1564 72.0582 77.0875 71.9543 77.0409 71.84C76.9943 71.7257 76.9711 71.6032 76.9726 71.4798V63.172L70.7134 57.9867C70.5247 57.8265 70.4071 57.5983 70.3862 57.3518C70.3653 57.1052 70.4428 56.8604 70.6018 56.6708C70.6803 56.5762 70.7769 56.4981 70.8859 56.4411C70.9949 56.3842 71.1142 56.3495 71.2367 56.3391C71.3593 56.3287 71.4827 56.3429 71.5997 56.3807C71.7168 56.4185 71.8251 56.4792 71.9184 56.5593L78.5123 62.0792C78.6172 62.1662 78.7016 62.2753 78.7595 62.3987C78.8173 62.522 78.8472 62.6566 78.847 62.7929V71.4798C78.847 71.7282 78.7483 71.9664 78.5725 72.1421C78.3967 72.3178 78.1584 72.4165 77.9098 72.4165V72.4165Z" fill="#1D1655"/>
<path d="M62.3301 82.1737H46.0853C45.8533 82.172 45.6303 82.0844 45.4592 81.9279C45.2882 81.7713 45.1813 81.557 45.1592 81.3262L45.0142 79.8431C44.2059 70.5739 40.717 61.74 34.9727 54.4182C32.5718 51.3541 30.9381 47.761 30.2075 43.9382C29.477 40.1155 29.6707 36.1735 30.7725 32.4407C31.8744 28.7079 33.8525 25.2921 36.5422 22.4779C39.232 19.6636 42.5554 17.5323 46.2359 16.2613C49.9164 14.9904 53.8474 14.6166 57.7016 15.1711C61.5559 15.7256 65.2218 17.1923 68.3942 19.4491C71.5667 21.7059 74.1538 24.6876 75.9402 28.1458C77.7265 31.604 78.6605 35.4386 78.6643 39.3305C78.6788 44.5858 76.9789 49.7025 73.8221 53.9052C67.9127 61.5409 64.2707 70.6835 63.312 80.2891L63.2227 81.4043C63.1845 81.6153 63.075 81.8068 62.9126 81.9468C62.7502 82.0868 62.5446 82.1669 62.3301 82.1737V82.1737ZM46.9444 80.2891H61.4487V80.0661C62.4429 70.1352 66.1954 60.6798 72.2824 52.7678C74.8355 49.3398 76.3614 45.2573 76.6822 40.9958C77.003 36.7344 76.1056 32.4696 74.0944 28.6984C72.0833 24.9271 69.0413 21.8048 65.3228 19.6951C61.6044 17.5855 57.3627 16.5754 53.092 16.7827C48.951 16.9736 44.9429 18.3018 41.5081 20.6212C38.0732 22.9407 35.3445 26.1616 33.6219 29.93C31.8992 33.6985 31.2493 37.8686 31.7435 41.9822C32.2377 46.0958 33.8568 49.9936 36.4231 53.2473C42.3857 60.8539 46.0097 70.0275 46.8551 79.6535L46.9444 80.2891Z" fill="#19164C"/>
<path d="M62.323 81.237V88.5969C62.323 88.9281 62.1914 89.2458 61.957 89.48C61.7227 89.7142 61.4048 89.8458 61.0734 89.8458H47.3277C46.9963 89.8458 46.6785 89.7142 46.4441 89.48C46.2098 89.2458 46.0781 88.9281 46.0781 88.5969V81.237H62.323Z" fill="white"/>
<path d="M58.1103 89.8459V94.206C58.1074 94.6566 57.9262 95.0877 57.6064 95.4052C57.2866 95.7228 56.8541 95.901 56.4033 95.901H52.1524C51.9273 95.901 51.7044 95.8565 51.4966 95.7701C51.2887 95.6836 51.1 95.557 50.9414 95.3973C50.7827 95.2377 50.6572 95.0483 50.5721 94.84C50.4869 94.6318 50.4439 94.4087 50.4453 94.1837V89.8459H58.1103Z" fill="#50C9B2"/>
<path d="M54.2575 82.1738C54.009 82.1738 53.7706 82.0751 53.5948 81.8994C53.4191 81.7237 53.3203 81.4855 53.3203 81.237V56.8715C53.3203 56.6231 53.4191 56.3848 53.5948 56.2092C53.7706 56.0335 54.009 55.9348 54.2575 55.9348C54.5061 55.9348 54.7445 56.0335 54.9202 56.2092C55.096 56.3848 55.1947 56.6231 55.1947 56.8715V81.237C55.1962 81.3605 55.173 81.483 55.1264 81.5973C55.0799 81.7116 55.0109 81.8155 54.9236 81.9027C54.8362 81.99 54.7323 82.059 54.6179 82.1055C54.5036 82.152 54.381 82.1753 54.2575 82.1738V82.1738Z" fill="#1D1655"/>
<path d="M107.001 38.5946C106.997 39.4453 106.688 40.2665 106.131 40.9092C105.573 41.5519 104.803 41.9735 103.961 42.0976C103.119 42.2217 102.26 42.04 101.541 41.5856C100.821 41.1311 100.288 40.4339 100.039 39.6205C99.9356 39.2883 99.8829 38.9425 99.8828 38.5946C99.8828 38.1246 99.976 37.6593 100.157 37.2255C100.338 36.7917 100.603 36.3981 100.937 36.0673C101.271 35.7366 101.667 35.4752 102.103 35.2985C102.539 35.1217 103.005 35.0329 103.475 35.0373C103.826 35.0386 104.175 35.0874 104.513 35.1823C105.236 35.414 105.867 35.8694 106.314 36.4828C106.761 37.0961 107.002 37.8357 107.001 38.5946V38.5946Z" fill="#82CBAD"/>
<path d="M104.589 36.2193C104.589 36.775 104.458 37.323 104.208 37.8192C103.957 38.3154 103.594 38.7461 103.147 39.0768C102.701 39.4074 102.182 39.6289 101.634 39.7233C101.086 39.8177 100.524 39.7825 99.9921 39.6204C99.8887 39.2883 99.8361 38.9424 99.8359 38.5945C99.8358 38.1207 99.9304 37.6517 100.114 37.2149C100.298 36.7782 100.567 36.3825 100.906 36.0512C101.245 35.7198 101.646 35.4594 102.087 35.2853C102.528 35.1112 102.999 35.0269 103.473 35.0373C103.824 35.0385 104.173 35.0873 104.511 35.1822C104.587 35.5223 104.613 35.8717 104.589 36.2193Z" fill="#FDFEFF"/>
<path d="M103.471 43.0773C102.588 43.0773 101.725 42.8157 100.991 42.3256C100.257 41.8355 99.6853 41.1388 99.3475 40.3238C99.0097 39.5087 98.9214 38.6119 99.0936 37.7466C99.2658 36.8814 99.6908 36.0866 100.315 35.4628C100.939 34.839 101.734 34.4141 102.6 34.242C103.466 34.0699 104.363 34.1583 105.179 34.4959C105.994 34.8335 106.691 35.4052 107.181 36.1387C107.672 36.8722 107.934 37.7346 107.934 38.6168C107.934 39.7998 107.463 40.9344 106.626 41.7709C105.789 42.6074 104.654 43.0773 103.471 43.0773ZM103.471 35.974C102.952 35.974 102.445 36.1277 102.014 36.4156C101.583 36.7036 101.247 37.1128 101.048 37.5917C100.85 38.0705 100.798 38.5974 100.899 39.1058C101 39.6141 101.25 40.081 101.617 40.4475C101.983 40.814 102.451 41.0636 102.959 41.1647C103.468 41.2658 103.995 41.2139 104.474 41.0156C104.953 40.8173 105.363 40.4814 105.651 40.0504C105.939 39.6195 106.093 39.1128 106.093 38.5945C106.093 38.2504 106.025 37.9096 105.893 37.5917C105.761 37.2737 105.568 36.9849 105.325 36.7415C105.081 36.4982 104.792 36.3052 104.474 36.1735C104.156 36.0418 103.815 35.974 103.471 35.974V35.974Z" fill="#19164C"/>
<path d="M8.88504 38.5946C8.86533 39.4332 8.5497 40.2379 7.99392 40.8665C7.43813 41.4952 6.67795 41.9072 5.84765 42.03C5.01735 42.1527 4.17036 41.9782 3.45629 41.5373C2.74223 41.0964 2.20704 40.4175 1.94526 39.6205C1.84184 39.2883 1.78918 38.9424 1.78906 38.5946C1.78895 37.6607 2.15626 36.7642 2.81171 36.0987C3.46716 35.4332 4.35818 35.0519 5.29242 35.0373C5.6432 35.0393 5.99215 35.0881 6.33004 35.1823C7.0647 35.4037 7.7091 35.8545 8.16886 36.4686C8.62863 37.0826 8.87961 37.8276 8.88504 38.5946V38.5946Z" fill="#82CBAD"/>
<path d="M6.51971 36.2193C6.51842 36.7725 6.38806 37.3178 6.13899 37.8118C5.88991 38.3058 5.52899 38.735 5.08491 39.0652C4.64082 39.3953 4.1258 39.6175 3.58078 39.7139C3.03576 39.8103 2.47575 39.7783 1.94526 39.6205C1.84184 39.2883 1.78918 38.9424 1.78906 38.5945C1.78895 37.6607 2.15626 36.7642 2.81171 36.0987C3.46716 35.4332 4.35818 35.0519 5.29242 35.0373C5.6432 35.0393 5.99214 35.0881 6.33004 35.1823C6.44397 35.5167 6.50789 35.8662 6.51971 36.2193Z" fill="#FDFEFF"/>
<path d="M5.29101 43.0773C4.40833 43.0773 3.54548 42.8157 2.81156 42.3256C2.07765 41.8355 1.50563 41.1388 1.16784 40.3238C0.830059 39.5087 0.741679 38.6119 0.91388 37.7466C1.08608 36.8814 1.51113 36.0866 2.13527 35.4628C2.75942 34.839 3.55463 34.4141 4.42034 34.242C5.28606 34.0699 6.18339 34.1583 6.99888 34.4959C7.81436 34.8335 8.51137 35.4052 9.00176 36.1387C9.49215 36.8722 9.75389 37.7346 9.75389 38.6168C9.75389 39.7998 9.2837 40.9344 8.44674 41.7709C7.60979 42.6074 6.47464 43.0773 5.29101 43.0773V43.0773ZM5.29101 35.974C4.77244 35.974 4.26551 36.1277 3.83434 36.4156C3.40316 36.7036 3.0671 37.1128 2.86865 37.5917C2.6702 38.0705 2.61828 38.5974 2.71945 39.1058C2.82061 39.6141 3.07033 40.081 3.43702 40.4475C3.8037 40.814 4.27089 41.0636 4.77949 41.1647C5.2881 41.2658 5.81529 41.2139 6.29438 41.0156C6.77348 40.8173 7.18297 40.4814 7.47107 40.0504C7.75918 39.6195 7.91295 39.1128 7.91295 38.5945C7.91295 38.2504 7.84513 37.9096 7.71337 37.5917C7.5816 37.2737 7.38847 36.9849 7.145 36.7415C6.90153 36.4982 6.61249 36.3052 6.29438 36.1735C5.97627 36.0418 5.63533 35.974 5.29101 35.974V35.974Z" fill="#19164C"/>
<path d="M81.6261 74.234C81.6249 75.0857 81.3179 75.9087 80.7611 76.5534C80.2043 77.1981 79.4345 77.6217 78.5916 77.7473C77.7488 77.8728 76.8889 77.6919 76.1681 77.2376C75.4474 76.7832 74.9137 76.0854 74.664 75.2711C74.5598 74.9353 74.5072 74.5856 74.5078 74.234C74.5078 73.2906 74.8828 72.3858 75.5503 71.7187C76.2177 71.0516 77.123 70.6768 78.067 70.6768C79.0109 70.6768 79.9162 71.0516 80.5837 71.7187C81.2511 72.3858 81.6261 73.2906 81.6261 74.234Z" fill="#82CBAD"/>
<path d="M79.2608 71.87C79.2519 72.421 79.1151 72.9624 78.8611 73.4515C78.6071 73.9406 78.2429 74.3641 77.7971 74.6885C77.3514 75.0128 76.8364 75.2293 76.2927 75.3207C75.749 75.4122 75.1914 75.3761 74.664 75.2154C74.5598 74.8796 74.5072 74.5299 74.5078 74.1783C74.5167 73.6273 74.6535 73.0859 74.9075 72.5968C75.1615 72.1077 75.5257 71.6842 75.9715 71.3598C76.4172 71.0355 76.9322 70.819 77.4759 70.7276C78.0197 70.6361 78.5772 70.6722 79.1046 70.8329C79.2072 71.1691 79.2598 71.5185 79.2608 71.87V71.87Z" fill="#FDFEFF"/>
<path d="M78.0723 78.728C77.1896 78.728 76.3267 78.4664 75.5928 77.9763C74.8589 77.4862 74.2869 76.7896 73.9491 75.9745C73.6113 75.1595 73.5229 74.2626 73.6951 73.3973C73.8673 72.5321 74.2924 71.7373 74.9165 71.1135C75.5407 70.4897 76.3359 70.0648 77.2016 69.8927C78.0673 69.7206 78.9646 69.809 79.7801 70.1466C80.5956 70.4842 81.2926 71.0559 81.783 71.7894C82.2734 72.5229 82.5351 73.3853 82.5351 74.2675C82.5351 75.4505 82.0649 76.5851 81.228 77.4216C80.391 78.2581 79.2559 78.728 78.0723 78.728ZM78.0723 71.6247C77.5527 71.6225 77.0443 71.7746 76.6114 72.0617C76.1785 72.3488 75.8407 72.7579 75.6409 73.2372C75.4411 73.7165 75.3882 74.2444 75.489 74.7537C75.5898 75.2631 75.8398 75.7311 76.2071 76.0982C76.5745 76.4654 77.0427 76.7152 77.5523 76.8159C78.062 76.9167 78.5901 76.8639 79.0696 76.6642C79.5492 76.4644 79.9586 76.1268 80.2458 75.6942C80.5331 75.2615 80.6852 74.7533 80.683 74.2341C80.6801 73.5429 80.4041 72.8809 79.9151 72.3922C79.4261 71.9035 78.7638 71.6276 78.0723 71.6247V71.6247Z" fill="#19164C"/>
<path d="M30.9529 72.4163C30.8294 72.4178 30.7069 72.3946 30.5925 72.3481C30.4781 72.3015 30.3742 72.2326 30.2869 72.1453C30.1995 72.058 30.1306 71.9542 30.084 71.8399C30.0374 71.7255 30.0142 71.6031 30.0157 71.4796V62.737C30.0155 62.6008 30.0454 62.4662 30.1032 62.3428C30.1611 62.2194 30.2455 62.1104 30.3504 62.0234L36.9332 56.5035C37.0274 56.423 37.1366 56.3621 37.2546 56.3241C37.3725 56.2862 37.4968 56.272 37.6203 56.2823C37.7438 56.2927 37.864 56.3274 37.9739 56.3845C38.0839 56.4416 38.1814 56.52 38.2609 56.615C38.3494 56.71 38.417 56.8227 38.4591 56.9455C38.5013 57.0684 38.5171 57.1988 38.5055 57.3281C38.4939 57.4575 38.4552 57.583 38.3919 57.6964C38.3286 57.8099 38.2422 57.9087 38.1381 57.9866L31.8901 63.2277V71.4796C31.8901 71.7281 31.7914 71.9663 31.6156 72.142C31.4398 72.3177 31.2015 72.4163 30.9529 72.4163V72.4163Z" fill="#1D1655"/>
<path d="M34.3025 74.234C34.3107 75.0896 34.0091 75.9194 33.4534 76.5702C32.8976 77.221 32.1252 77.649 31.2785 77.7754C30.4318 77.9017 29.5679 77.7178 28.8462 77.2576C28.1245 76.7973 27.5937 76.0918 27.3515 75.2711C27.2473 74.9353 27.1947 74.5856 27.1953 74.234C27.1953 73.2906 27.5703 72.3858 28.2378 71.7187C28.9052 71.0516 29.8105 70.6768 30.7545 70.6768C31.1062 70.6761 31.4561 70.7288 31.7921 70.8329C32.5194 71.0571 33.1556 71.5083 33.6074 72.1205C34.0593 72.7326 34.3028 73.4734 34.3025 74.234V74.234Z" fill="#82CBAD"/>
<path d="M31.9762 71.8699C31.9691 72.4205 31.8339 72.9618 31.5812 73.4511C31.3285 73.9403 30.9652 74.364 30.5203 74.6886C30.0753 75.0132 29.5609 75.2298 29.0177 75.3212C28.4744 75.4126 27.9174 75.3764 27.3906 75.2153C27.2864 74.8795 27.2337 74.5299 27.2344 74.1783C27.2344 73.2348 27.6094 72.33 28.2768 71.6629C28.9443 70.9958 29.8496 70.621 30.7935 70.621C31.1453 70.6203 31.4952 70.673 31.8311 70.7771C31.9295 71.133 31.9784 71.5007 31.9762 71.8699Z" fill="#FDFEFF"/>
<path d="M30.7988 78.728C29.9161 78.728 29.0533 78.4664 28.3194 77.9763C27.5855 77.4862 27.0134 76.7896 26.6757 75.9745C26.3379 75.1595 26.2495 74.2626 26.4217 73.3973C26.5939 72.5321 27.0189 71.7373 27.6431 71.1135C28.2672 70.4897 29.0624 70.0648 29.9282 69.8927C30.7939 69.7206 31.6912 69.809 32.5067 70.1466C33.3222 70.4842 34.0192 71.0559 34.5096 71.7894C35 72.5229 35.2617 73.3853 35.2617 74.2675C35.2617 75.4505 34.7915 76.5851 33.9546 77.4216C33.1176 78.2581 31.9825 78.728 30.7988 78.728ZM30.7988 71.6247C30.2793 71.6225 29.7708 71.7746 29.338 72.0617C28.9051 72.3488 28.5673 72.7579 28.3675 73.2372C28.1676 73.7165 28.1148 74.2444 28.2156 74.7537C28.3164 75.2631 28.5663 75.7311 28.9337 76.0982C29.301 76.4654 29.7693 76.7152 30.2789 76.8159C30.7885 76.9167 31.3167 76.8639 31.7962 76.6642C32.2758 76.4644 32.6851 76.1268 32.9724 75.6942C33.2596 75.2615 33.4118 74.7533 33.4096 74.2341C33.4067 73.5429 33.1307 72.8809 32.6417 72.3922C32.1527 71.9035 31.4903 71.6276 30.7988 71.6247V71.6247Z" fill="#19164C"/>
<path d="M81.4836 4.46051C81.4996 5.21319 81.277 5.95165 80.8477 6.57025C80.4184 7.18886 79.8043 7.6559 79.0934 7.90457C78.3824 8.15325 77.6109 8.17081 76.8894 7.95474C76.1678 7.73867 75.5331 7.30005 75.0761 6.70162C74.619 6.1032 74.3631 5.37562 74.3448 4.623C74.3265 3.87037 74.5469 3.13125 74.9744 2.51137C75.4018 1.8915 76.0145 1.42263 76.7247 1.17184C77.435 0.921059 78.2064 0.901207 78.9286 1.11513C79.6551 1.32854 80.2947 1.76801 80.7542 2.36966C81.2137 2.9713 81.4692 3.70375 81.4836 4.46051V4.46051Z" fill="#82CBAD"/>
<path d="M79.12 2.12989C79.1201 3.06948 78.7481 3.97092 78.0855 4.6374C77.4228 5.30388 76.5233 5.68126 75.5832 5.68715C75.2263 5.7037 74.8689 5.6661 74.5233 5.57563C74.3281 4.95528 74.3068 4.29333 74.4617 3.66172C74.6166 3.03012 74.9418 2.45304 75.4018 1.99321C75.8619 1.53338 76.4393 1.20839 77.0712 1.05358C77.7032 0.898771 78.3655 0.920057 78.9862 1.11513C79.0798 1.4451 79.1249 1.78694 79.12 2.12989V2.12989Z" fill="#FDFEFF"/>
<path d="M77.9238 8.98793C77.0411 8.98793 76.1783 8.72633 75.4444 8.2362C74.7105 7.74607 74.1384 7.04944 73.8007 6.23438C73.4629 5.41933 73.3745 4.52247 73.5467 3.65722C73.7189 2.79196 74.1439 1.99718 74.7681 1.37336C75.3922 0.749548 76.1874 0.324725 77.0532 0.152615C77.9189 -0.0194944 78.8162 0.0688386 79.6317 0.406444C80.4472 0.74405 81.1442 1.31576 81.6346 2.04929C82.125 2.78282 82.3867 3.64521 82.3867 4.52742C82.3867 5.71042 81.9165 6.84497 81.0796 7.68148C80.2426 8.51799 79.1075 8.98793 77.9238 8.98793ZM77.9238 1.87342C77.4038 1.87346 76.8956 2.02803 76.4637 2.31749C76.0319 2.60694 75.6959 3.01821 75.4984 3.49901C75.301 3.9798 75.2511 4.50841 75.355 5.01764C75.4589 5.52687 75.7119 5.99372 76.082 6.35884C76.452 6.72396 76.9223 6.97087 77.4331 7.06818C77.9439 7.16548 78.4721 7.10879 78.9506 6.90531C79.4291 6.70182 79.8362 6.36074 80.1203 5.92541C80.4043 5.49009 80.5524 4.98018 80.5458 4.46051C80.537 3.77131 80.2568 3.11333 79.7661 2.62909C79.2753 2.14486 78.6134 1.87336 77.9238 1.87342V1.87342Z" fill="#19164C"/>
<path d="M35.1027 4.46051C35.1209 5.31918 34.8277 6.15545 34.2772 6.81492C33.7267 7.47439 32.956 7.91252 32.1075 8.04843C31.2591 8.18433 30.39 8.00883 29.6609 7.55432C28.9317 7.09982 28.3918 6.397 28.1406 5.57564C28.0355 5.2133 27.9829 4.83777 27.9844 4.46051C27.9932 3.52288 28.3721 2.62665 29.0386 1.96675C29.7051 1.30685 30.6054 0.936666 31.5436 0.936708C31.8953 0.936047 32.2452 0.988685 32.5812 1.09283C33.3051 1.3133 33.9399 1.75868 34.3933 2.36427C34.8467 2.96987 35.0952 3.70416 35.1027 4.46051V4.46051Z" fill="#82CBAD"/>
<path d="M32.7374 2.12989C32.7374 2.59704 32.6453 3.05961 32.4665 3.4912C32.2876 3.92278 32.0254 4.31493 31.6949 4.64525C31.0275 5.31237 30.1222 5.68715 29.1782 5.68715C28.8288 5.70065 28.4792 5.66309 28.1406 5.57564C28.0355 5.2133 27.9829 4.83777 27.9844 4.46051C27.9932 3.52288 28.3721 2.62665 29.0386 1.96675C29.7051 1.30685 30.6054 0.936666 31.5436 0.936708C31.8953 0.936047 32.2452 0.988685 32.5812 1.09283C32.6845 1.42883 32.7372 1.77837 32.7374 2.12989V2.12989Z" fill="#FDFEFF"/>
<path d="M31.541 8.98793C30.6583 8.98793 29.7955 8.72633 29.0616 8.2362C28.3276 7.74607 27.7556 7.04944 27.4178 6.23438C27.0801 5.41933 26.9917 4.52247 27.1639 3.65722C27.3361 2.79196 27.7611 1.99718 28.3853 1.37336C29.0094 0.749548 29.8046 0.324725 30.6703 0.152615C31.5361 -0.0194944 32.4334 0.0688386 33.2489 0.406444C34.0644 0.74405 34.7614 1.31576 35.2518 2.04929C35.7421 2.78282 36.0039 3.64521 36.0039 4.52742C36.0039 5.71042 35.5337 6.84497 34.6967 7.68148C33.8598 8.51799 32.7246 8.98793 31.541 8.98793ZM31.541 1.87342C31.021 1.87346 30.5128 2.02803 30.0809 2.31749C29.649 2.60694 29.313 3.01821 29.1156 3.49901C28.9182 3.9798 28.8683 4.50841 28.9722 5.01764C29.0761 5.52687 29.3291 5.99372 29.6992 6.35884C30.0692 6.72396 30.5395 6.97087 31.0503 7.06818C31.5611 7.16548 32.0893 7.10879 32.5678 6.90531C33.0463 6.70182 33.4534 6.36074 33.7374 5.92541C34.0215 5.49009 34.1696 4.98018 34.163 4.46051C34.1541 3.77131 33.874 3.11333 33.3833 2.62909C32.8925 2.14486 32.2306 1.87336 31.541 1.87342V1.87342Z" fill="#19164C"/>
<path d="M68.1521 47.6048C64.2917 54.7305 54.306 56.5258 54.306 56.5258C54.306 56.5258 54.0606 56.1467 53.6924 55.4776C52.3201 52.9909 49.3745 46.5566 51.7845 40.9029C54.1945 35.2492 61.826 31.9819 64.9835 30.8667C65.3726 30.7251 65.8007 30.7348 66.183 30.8938C66.5653 31.0529 66.8739 31.3497 67.0476 31.7254C67.36 32.4168 67.7505 33.3535 68.1633 34.4463C69.3794 38.0147 70.4617 43.345 68.1521 47.6048Z" fill="white"/>
<path d="M68.1486 47.6048C64.2882 54.7305 54.3025 56.5259 54.3025 56.5259C54.3025 56.5259 54.057 56.1467 53.6888 55.4776C53.2738 54.3901 52.9455 53.2715 52.707 52.1323C52.0869 49.4863 52.2814 46.7149 53.2649 44.1814C55.686 38.5388 63.3063 35.2604 66.4638 34.1452C66.631 34.0799 66.8087 34.0459 66.9882 34.0449C67.3972 34.0349 67.7951 34.1781 68.1039 34.4463C69.3759 38.0147 70.4581 43.345 68.1486 47.6048Z" fill="#82CBAD"/>
<path d="M66.0047 43.3227C62.6576 49.4447 54.8475 51.6304 52.7054 52.1211C52.0876 49.4787 52.2821 46.7115 53.2632 44.1813C55.6843 38.5388 63.3047 35.2603 66.4622 34.1452C66.6293 34.0798 66.8071 34.0458 66.9866 34.0448C67.7189 37.1594 67.3728 40.4302 66.0047 43.3227Z" fill="#82CBAD"/>
<path d="M54.3063 57.4625C54.1512 57.462 53.9987 57.423 53.8624 57.349C53.7261 57.2751 53.6103 57.1685 53.5253 57.0388C53.291 56.6819 47.6901 48.1178 50.9257 40.5349C53.4919 34.5578 61.3912 31.1455 64.6714 29.9523C65.2803 29.7338 65.9491 29.7511 66.5459 30.0008C67.1427 30.2505 67.6243 30.7146 67.8958 31.3016C69.2905 34.3571 72.2025 42.1072 69.0115 48.0285C64.9838 55.4664 54.9311 57.351 54.5072 57.4291L54.3063 57.4625ZM65.5416 31.6696C65.4643 31.6537 65.3846 31.6537 65.3073 31.6696C62.2614 32.7847 54.9311 35.9183 52.6551 41.2263C50.2451 46.8577 53.6481 53.4927 54.7638 55.4218C56.9394 54.8977 64.2697 52.7567 67.3379 47.1141C70.1496 41.9176 67.4718 34.8477 66.2222 32.0376C66.1572 31.9164 66.0581 31.817 65.9372 31.7516C65.8162 31.6862 65.6787 31.6577 65.5416 31.6696V31.6696Z" fill="#19164C"/>
<path d="M54.3009 56.5258C53.4935 56.408 52.6928 56.2479 51.9021 56.0463V56.0463C48.555 55.2211 42.6417 53.147 40.0755 48.3408C37.2304 43.0328 39.2833 35.2381 40.3879 31.9373C40.5323 31.4869 40.8446 31.1093 41.2601 30.883C41.6756 30.6567 42.1624 30.5989 42.6193 30.7218C43.8927 31.0588 45.1445 31.4722 46.3682 31.9596C49.7823 33.3312 53.8658 35.7399 55.5505 39.7655C58.6634 47.2257 54.3009 56.5258 54.3009 56.5258Z" fill="white"/>
<path d="M54.3022 56.5258C53.4947 56.408 52.694 56.2479 51.9034 56.0463V56.0463C51.3343 55.801 50.7876 55.5445 50.1628 55.2434C47.577 54.0282 45.4215 52.0566 43.9818 49.5897C41.1367 44.2929 43.1896 36.4981 44.2942 33.1973C44.4087 32.8444 44.6311 32.5363 44.9301 32.3164C45.1259 32.1572 45.3542 32.0427 45.599 31.981C45.8438 31.9194 46.0991 31.9121 46.3471 31.9596C49.7612 33.3312 53.8447 35.7398 55.5294 39.7654C58.6646 47.2256 54.3022 56.5258 54.3022 56.5258Z" fill="#82CBAD"/>
<path d="M50.1394 55.2434C47.5536 54.0283 45.398 52.0566 43.9583 49.5897C41.1132 44.2929 43.1662 36.4981 44.2707 33.1974C44.3853 32.8444 44.6077 32.5363 44.9067 32.3164C47.6706 33.6975 49.8933 35.9622 51.2217 38.7507C54.0556 45.4638 50.82 53.66 50.1394 55.2434Z" fill="#82CBAD"/>
<path d="M54.3022 57.4625H54.1906C53.7444 57.4068 43.1004 56.024 39.2288 48.7868C36.1941 43.1331 38.392 34.9146 39.4743 31.6473C39.6977 30.9767 40.1677 30.4159 40.7891 30.0785C41.4105 29.741 42.1369 29.6521 42.8215 29.8297C46.0347 30.666 53.789 33.2531 56.3886 39.3975C59.6688 47.2033 55.351 56.537 55.1613 56.9384C55.0828 57.0984 54.9603 57.2327 54.8081 57.3255C54.656 57.4183 54.4805 57.4659 54.3022 57.4625V57.4625ZM42.1074 31.6027C41.917 31.6045 41.7319 31.6656 41.5779 31.7776C41.4239 31.8895 41.3087 32.0467 41.2483 32.2272C40.2441 35.2715 38.1912 42.8767 40.8801 47.8947C43.7698 53.2919 51.3902 55.0538 53.7332 55.4887C54.6035 53.2585 57.0804 46.0102 54.6481 40.1111C52.4167 34.7362 45.276 32.3944 42.3752 31.6362C42.2883 31.6108 42.1979 31.5995 42.1074 31.6027Z" fill="#19164C"/>
<path d="M62.3264 81.237V88.5969C62.3264 88.9281 62.1948 89.2458 61.9604 89.48C61.7261 89.7142 61.4082 89.8458 61.0768 89.8458H51.0353C50.7058 89.8429 50.3909 89.71 50.1589 89.4761C49.927 89.2422 49.7969 88.9262 49.7969 88.5969V81.237H62.3264Z" fill="#82CBAD"/>
<path d="M61.0787 90.7826H47.333C46.7412 90.7826 46.1736 90.5476 45.7551 90.1293C45.3367 89.7111 45.1016 89.1438 45.1016 88.5523V81.1925C45.1045 80.9449 45.2041 80.7084 45.3793 80.5333C45.5544 80.3583 45.7911 80.2587 46.0388 80.2558H62.3283C62.576 80.2587 62.8127 80.3583 62.9878 80.5333C63.1629 80.7084 63.2626 80.9449 63.2655 81.1925V88.5523C63.2656 89.1362 63.0367 89.6968 62.6278 90.1138C62.2189 90.5308 61.6627 90.7709 61.0787 90.7826ZM47.0206 82.1738V88.5969C47.0234 88.6788 47.0572 88.7567 47.1152 88.8146C47.1732 88.8726 47.251 88.9064 47.333 88.9092H61.0787C61.1607 88.9064 61.2385 88.8726 61.2965 88.8146C61.3545 88.7567 61.3883 88.6788 61.3911 88.5969V82.1738H47.0206Z" fill="#19164C"/>
<path d="M58.1103 89.8459V94.206C58.1074 94.6566 57.9262 95.0877 57.6064 95.4052C57.2866 95.7228 56.8541 95.901 56.4033 95.901H52.1524C51.9273 95.901 51.7044 95.8565 51.4966 95.7701C51.2887 95.6836 51.1 95.557 50.9414 95.3973C50.7827 95.2377 50.6572 95.0483 50.5721 94.84C50.4869 94.6318 50.4439 94.4087 50.4453 94.1837V89.8459H58.1103Z" fill="#82CBAD"/>
<path d="M56.403 96.86H52.1521C51.4508 96.86 50.7782 96.5815 50.2823 96.0859C49.7864 95.5903 49.5078 94.918 49.5078 94.2171V89.8458C49.5078 89.7228 49.5321 89.601 49.5792 89.4873C49.6263 89.3737 49.6953 89.2704 49.7823 89.1835C49.8693 89.0965 49.9727 89.0275 50.0864 88.9804C50.2001 88.9333 50.3219 88.9091 50.445 88.9091H58.1435C58.267 88.9076 58.3895 88.9308 58.5039 88.9774C58.6183 89.0239 58.7222 89.0928 58.8095 89.1801C58.8969 89.2674 58.9658 89.3713 59.0124 89.4856C59.059 89.5999 59.0822 89.7224 59.0807 89.8458V94.2171C59.0807 94.567 59.0112 94.9134 58.8763 95.2363C58.7413 95.5591 58.5435 95.852 58.2944 96.0978C58.0453 96.3437 57.7498 96.5376 57.4252 96.6685C57.1005 96.7993 56.753 96.8644 56.403 96.86ZM51.3487 90.7825V94.2171C51.3487 94.4212 51.4299 94.6169 51.5742 94.7612C51.7186 94.9055 51.9144 94.9866 52.1186 94.9866H56.403C56.6071 94.9866 56.8029 94.9055 56.9473 94.7612C57.0917 94.6169 57.1728 94.4212 57.1728 94.2171V90.7825H51.3487Z" fill="#19164C"/>
</g>
<defs>
<clipPath id="clip0_92_1601">
<rect width="107.109" height="96.86" fill="white" transform="translate(0.828125)"/>
</clipPath>
</defs>
</svg>
