<svg width="102" height="122" viewBox="0 0 102 122" fill="none" xmlns="http://www.w3.org/2000/svg">
<path d="M86.7017 6.05458L88.9034 5.0166H93.5698H95.8684L97.2947 6.05458V93.3693L96.8654 98.31L95.1345 109.991L93.0159 119.637H91.9912L89.845 113.866L87.5048 104.109L86.5078 97.2167V89.9924L86.7017 6.05458Z" fill="#82CBAD"/>
<path d="M68.8855 20.1016H5.6875V104.814H68.8855V20.1016Z" fill="#82CBAD"/>
<circle cx="19.5293" cy="39.4121" r="6.62305" fill="#19164C"/>
<path d="M19.3962 48.4586C17.662 48.4613 15.966 47.9498 14.5228 46.9889C13.0795 46.0279 11.9539 44.6607 11.2884 43.0601C10.6228 41.4596 10.4473 39.6977 10.7839 37.9974C11.1206 36.2971 11.9543 34.7349 13.1796 33.5083C14.4048 32.2817 15.9666 31.446 17.6673 31.1069C19.3679 30.7677 21.131 30.9404 22.7335 31.603C24.3359 32.2657 25.7057 33.3885 26.6694 34.8295C27.6331 36.2705 28.1476 37.9648 28.1476 39.698C28.1439 42.018 27.2212 44.242 25.5812 45.8837C23.9412 47.5255 21.7174 48.4513 19.3962 48.4586V48.4586ZM19.3962 33.7608C18.2213 33.7608 17.0728 34.109 16.0959 34.7614C15.119 35.4138 14.3576 36.3411 13.908 37.4259C13.4584 38.5108 13.3408 39.7046 13.57 40.8563C13.7992 42.008 14.365 43.066 15.1957 43.8963C16.0265 44.7266 17.085 45.2921 18.2373 45.5212C19.3896 45.7503 20.5841 45.6327 21.6695 45.1833C22.755 44.7339 23.6827 43.973 24.3355 42.9966C24.9882 42.0202 25.3366 40.8723 25.3366 39.698C25.333 38.1245 24.7059 36.6165 23.5927 35.5038C22.4794 34.3912 20.9706 33.7644 19.3962 33.7608V33.7608Z" fill="white"/>
<path d="M41.8975 95.2231C41.6123 95.237 41.3299 95.1625 41.0888 95.0098C40.8477 94.857 40.6597 94.6336 40.5505 94.3699C40.4414 94.1063 40.4164 93.8154 40.4791 93.5371C40.5417 93.2587 40.6889 93.0065 40.9005 92.815L57.0877 76.6364C57.3521 76.3721 57.7107 76.2236 58.0847 76.2236C58.4586 76.2236 58.8172 76.3721 59.0817 76.6364C59.3461 76.9007 59.4946 77.2591 59.4946 77.6328C59.4946 78.0066 59.3461 78.365 59.0817 78.6293L42.9498 94.8079C42.8135 94.9473 42.6494 95.0563 42.468 95.1278C42.2867 95.1994 42.0922 95.2319 41.8975 95.2231V95.2231Z" fill="white"/>
<path d="M58.0814 95.2223C57.8958 95.2234 57.712 95.1872 57.5407 95.1159C57.3694 95.0445 57.2143 94.9395 57.0844 94.8071L40.8972 78.6285C40.6328 78.3569 40.4871 77.9914 40.4923 77.6125C40.4975 77.2335 40.6531 76.8722 40.9249 76.6079C41.1966 76.3436 41.5623 76.1981 41.9414 76.2033C42.3206 76.2085 42.6821 76.364 42.9465 76.6356L59.1476 92.8142C59.2816 92.9433 59.3882 93.0981 59.461 93.2693C59.5338 93.4405 59.5714 93.6246 59.5714 93.8106C59.5714 93.9967 59.5338 94.1808 59.461 94.352C59.3882 94.5232 59.2816 94.678 59.1476 94.8071C59.0097 94.9483 58.8433 95.0583 58.6594 95.1299C58.4755 95.2015 58.2784 95.233 58.0814 95.2223V95.2223Z" fill="white"/>
<path d="M19.4061 95.9297H19.3231C19.1373 95.9194 18.9556 95.8717 18.7887 95.7896C18.6218 95.7075 18.4732 95.5926 18.3517 95.4518C18.2302 95.311 18.1384 95.1472 18.0816 94.9701C18.0249 94.793 18.0044 94.6064 18.0214 94.4212C18.6169 83.5432 21.0263 74.0492 25.2219 66.2021C28.4516 60.0409 33.034 54.6898 38.6259 50.5494C44.1464 46.3934 50.6036 43.656 57.4302 42.5777C57.612 42.5577 57.796 42.5737 57.9717 42.6248C58.1473 42.6759 58.3112 42.761 58.4539 42.8754C58.5966 42.9898 58.7154 43.1311 58.8035 43.2914C58.8916 43.4516 58.9472 43.6277 58.9672 43.8094C58.9872 43.9912 58.9712 44.1751 58.9201 44.3506C58.869 44.5262 58.7838 44.69 58.6693 44.8326C58.5549 44.9753 58.4135 45.094 58.2531 45.182C58.0928 45.27 57.9166 45.3256 57.7348 45.3456C51.3573 46.4098 45.3327 49.0026 40.1767 52.9021C28.3652 61.6488 21.8571 75.6684 20.7909 94.5735C20.7836 94.9357 20.6345 95.2806 20.3756 95.5342C20.1167 95.7878 19.7686 95.9298 19.4061 95.9297V95.9297Z" fill="white"/>
<path d="M46.6182 56.8866C46.3402 56.8831 46.0697 56.7961 45.8418 56.6368C45.614 56.4775 45.4394 56.2534 45.3408 55.9936C45.2422 55.7338 45.2242 55.4503 45.289 55.1801C45.3538 54.9099 45.4985 54.6654 45.7043 54.4785L56.1588 44.3063L41.7025 41.829C41.3352 41.7648 41.0086 41.5574 40.7943 41.2524C40.5801 40.9474 40.4958 40.5699 40.5601 40.2029C40.6244 39.8358 40.8319 39.5093 41.137 39.2952C41.4422 39.0811 41.8199 38.9968 42.1871 39.0611L59.2883 42.0089C59.5429 42.0524 59.7802 42.1661 59.9735 42.3373C60.1668 42.5085 60.3084 42.7303 60.3822 42.9777C60.4539 43.2193 60.4583 43.4759 60.3949 43.7198C60.3314 43.9637 60.2025 44.1856 60.0222 44.3617L47.5598 56.4576C47.3132 56.7168 46.9757 56.8706 46.6182 56.8866Z" fill="white"/>
<path d="M99.7109 15.7141H84.1191C83.7518 15.7141 83.3996 15.5683 83.1399 15.3088C82.8803 15.0492 82.7344 14.6972 82.7344 14.3302V6.09554C82.7344 2.91241 84.8668 0.310547 87.4839 0.310547H96.3737C98.9631 0.310547 101.096 2.91241 101.096 6.09554V14.3025C101.099 14.4866 101.066 14.6695 100.998 14.8406C100.93 15.0117 100.829 15.1676 100.7 15.299C100.571 15.4305 100.417 15.5349 100.247 15.6062C100.077 15.6775 99.8951 15.7142 99.7109 15.7141V15.7141ZM85.5453 12.9462H98.3262V6.09554C98.3262 4.46246 97.3846 3.07849 96.346 3.07849H87.4562C86.4315 3.07849 85.5176 4.46246 85.5176 6.05403L85.5453 12.9462Z" fill="white"/>
<path d="M91.9054 121.311C91.384 121.292 90.8828 121.105 90.4761 120.778C90.0695 120.452 89.7791 120.003 89.6483 119.498L82.8356 96.704C82.7527 96.4302 82.7107 96.1458 82.7109 95.8598V25.5402C82.7109 25.1732 82.8568 24.8212 83.1165 24.5616C83.3762 24.3021 83.7284 24.1562 84.0956 24.1562H91.2684V26.9242H85.5219V95.9013L91.9054 117.214L98.3304 95.9013V26.9519H91.4069V24.1839H99.7151C100.082 24.1839 100.435 24.3297 100.694 24.5893C100.954 24.8488 101.1 25.2008 101.1 25.5679V95.8044C101.102 96.0906 101.06 96.3754 100.975 96.6486L94.1763 119.498C94.0448 120.005 93.7524 120.456 93.343 120.783C92.9336 121.109 92.4291 121.295 91.9054 121.311Z" fill="white"/>
<path d="M92.6756 98.4758H91.1109C90.9029 98.4749 90.6978 98.4271 90.5109 98.336C90.3239 98.245 90.1598 98.113 90.0309 97.9499C89.3885 96.9804 88.3963 96.2962 87.2614 96.04C86.8505 96.0329 86.4424 96.1089 86.0617 96.2635C85.6809 96.4181 85.3354 96.6481 85.0459 96.9396L84.132 95.874L83.135 96.8566C82.9974 96.722 82.8893 96.5601 82.8178 96.3814C82.7463 96.2027 82.7128 96.011 82.7196 95.8186C82.7235 95.6234 82.7688 95.4312 82.8523 95.2547C82.9358 95.0782 83.0558 94.9213 83.2043 94.7945C83.7799 94.2584 84.4583 93.8446 85.1985 93.5782C85.9387 93.3118 86.7253 93.1982 87.5107 93.2444C89.1893 93.4787 90.7149 94.3451 91.7756 95.6664H92.0525C93.1085 94.3583 94.6239 93.502 96.2897 93.2721C97.079 93.2309 97.8685 93.3494 98.6109 93.6205C99.3533 93.8916 100.033 94.3097 100.61 94.8498C100.853 95.0514 101.021 95.3302 101.084 95.6399C101.147 95.9496 101.102 96.2715 100.956 96.5521L99.71 95.9293L98.796 96.995C98.505 96.6968 98.1556 96.4618 97.7696 96.3047C97.3837 96.1475 96.9695 96.0716 96.5528 96.0815C95.9896 96.1967 95.4549 96.4224 94.9795 96.7455C94.5042 97.0685 94.0976 97.4826 93.7834 97.9637C93.6502 98.128 93.481 98.2596 93.289 98.3484C93.097 98.4371 92.8872 98.4807 92.6756 98.4758Z" fill="white"/>
<path d="M89.0786 111.209L87.5 108.884C88.4576 108.176 89.5711 107.709 90.7471 107.521C91.923 107.333 93.1268 107.43 94.2574 107.804C94.9876 108.07 95.6809 108.429 96.3206 108.87L94.7282 111.181C94.3009 110.88 93.8351 110.638 93.3435 110.461C92.626 110.225 91.8612 110.17 91.1171 110.3C90.3731 110.43 89.6728 110.743 89.0786 111.209Z" fill="white"/>
<path d="M93.311 25.54H90.5V97.0636H93.311V25.54Z" fill="white"/>
<path d="M99.7109 26.9517H84.1191C83.7518 26.9517 83.3996 26.8058 83.1399 26.5463C82.8803 26.2868 82.7344 25.9347 82.7344 25.5677V19.9211C82.7344 19.554 82.8803 19.202 83.1399 18.9425C83.3996 18.6829 83.7518 18.5371 84.1191 18.5371H99.7109C100.078 18.5371 100.43 18.6829 100.69 18.9425C100.95 19.202 101.096 19.554 101.096 19.9211V25.54C101.099 25.7241 101.066 25.907 100.998 26.0781C100.93 26.2492 100.829 26.4051 100.7 26.5366C100.571 26.668 100.417 26.7724 100.247 26.8437C100.077 26.915 99.8951 26.9517 99.7109 26.9517ZM85.5453 24.1837H98.3262V21.4158H85.5176L85.5453 24.1837Z" fill="white"/>
<path d="M99.7109 21.3325H84.1191C83.7518 21.3325 83.3996 21.1867 83.1399 20.9272C82.8803 20.6676 82.7344 20.3156 82.7344 19.9485V14.3019C82.7344 13.9349 82.8803 13.5829 83.1399 13.3233C83.3996 13.0638 83.7518 12.918 84.1191 12.918H99.7109C100.078 12.918 100.43 13.0638 100.69 13.3233C100.95 13.5829 101.096 13.9349 101.096 14.3019V19.9209C101.099 20.1049 101.066 20.2879 100.998 20.459C100.93 20.6301 100.829 20.786 100.7 20.9174C100.571 21.0489 100.417 21.1533 100.247 21.2246C100.077 21.2959 99.8951 21.3325 99.7109 21.3325V21.3325ZM85.5453 18.5646H98.3262V15.7966H85.5176L85.5453 18.5646Z" fill="white"/>
<path d="M69.0847 107.624H1.40033C1.03308 107.624 0.680879 107.479 0.421196 107.219C0.161513 106.959 0.015625 106.607 0.015625 106.24V15.4103C0.015625 15.0433 0.161513 14.6913 0.421196 14.4317C0.680879 14.1722 1.03308 14.0264 1.40033 14.0264H69.0847C69.452 14.0264 69.8042 14.1722 70.0639 14.4317C70.3236 14.6913 70.4694 15.0433 70.4694 15.4103V106.213C70.4731 106.397 70.44 106.58 70.3721 106.751C70.3042 106.922 70.2027 107.078 70.0738 107.209C69.9448 107.341 69.7909 107.445 69.6211 107.516C69.4513 107.588 69.2689 107.624 69.0847 107.624ZM2.78504 104.815H67.6862V16.8081H2.78504V104.815Z" fill="white"/>
<path d="M15.71 24.8062C11.4035 24.8062 7.91406 20.6543 7.91406 15.409C7.91406 10.1638 11.4035 5.99805 15.71 5.99805C20.0164 5.99805 23.5612 10.2192 23.5612 15.409C23.5612 15.7431 23.4285 16.0634 23.1922 16.2996C22.9559 16.5358 22.6354 16.6685 22.3012 16.6685C21.967 16.6685 21.6465 16.5358 21.4101 16.2996C21.1738 16.0634 21.0411 15.7431 21.0411 15.409C21.0411 11.617 18.6732 8.48919 15.7653 8.48919C12.8575 8.48919 10.4896 11.5754 10.4896 15.409C10.4896 19.2426 12.8575 22.3289 15.7653 22.3289C16.0995 22.3289 16.42 22.4616 16.6564 22.6978C16.8927 22.934 17.0254 23.2543 17.0254 23.5883C17.0254 23.9223 16.8927 24.2427 16.6564 24.4789C16.42 24.715 16.0995 24.8477 15.7653 24.8477L15.71 24.8062Z" fill="white"/>
<path d="M35.2568 24.8062C30.9504 24.8062 27.4609 20.6543 27.4609 15.409C27.4609 10.1638 30.9504 5.99805 35.2568 5.99805C39.5633 5.99805 43.0527 10.2192 43.0527 15.409C43.0527 15.7431 42.92 16.0634 42.6837 16.2996C42.4473 16.5358 42.1268 16.6685 41.7926 16.6685C41.4584 16.6685 41.1379 16.5358 40.9016 16.2996C40.6653 16.0634 40.5326 15.7431 40.5326 15.409C40.5326 11.617 38.1647 8.48919 35.2568 8.48919C32.349 8.48919 29.9811 11.5754 29.9811 15.409C29.9811 19.2426 32.349 22.3289 35.2568 22.3289C35.591 22.3289 35.9115 22.4616 36.1478 22.6978C36.3842 22.934 36.5169 23.2543 36.5169 23.5883C36.5169 23.9223 36.3842 24.2427 36.1478 24.4789C35.9115 24.715 35.591 24.8477 35.2568 24.8477V24.8062Z" fill="white"/>
<path d="M54.8193 24.8062C50.5129 24.8062 47.0234 20.6543 47.0234 15.409C47.0234 10.1638 50.5129 5.99805 54.8193 5.99805C59.1258 5.99805 62.6152 10.2192 62.6152 15.409C62.6152 15.7431 62.4825 16.0634 62.2462 16.2996C62.0098 16.5358 61.6893 16.6685 61.3551 16.6685C61.021 16.6685 60.7004 16.5358 60.4641 16.2996C60.2278 16.0634 60.0951 15.7431 60.0951 15.409C60.0951 11.617 57.7272 8.48919 54.8193 8.48919C51.9115 8.48919 49.5436 11.5754 49.5436 15.409C49.5436 19.2426 51.9115 22.3289 54.8193 22.3289C55.1535 22.3289 55.474 22.4616 55.7103 22.6978C55.9467 22.934 56.0794 23.2543 56.0794 23.5883C56.0794 23.9223 55.9467 24.2427 55.7103 24.4789C55.474 24.715 55.1535 24.8477 54.8193 24.8477V24.8062Z" fill="white"/>
<path d="M90.0156 110.71C90.6149 110.393 91.2829 110.227 91.9611 110.227C92.6394 110.227 93.3074 110.393 93.9066 110.71L91.9681 117.215L90.0156 110.71Z" fill="white"/>
</svg>
